<?xml version="1.0" encoding="utf-8"?>
<!-- Generator: Adobe Illustrator 21.0.0, SVG Export Plug-In . SVG Version: 6.00 Build 0)  -->
<svg version="1.1" id="Layer_1" xmlns="http://www.w3.org/2000/svg" xmlns:xlink="http://www.w3.org/1999/xlink" x="0px" y="0px"
	 viewBox="0 0 326 326" style="enable-background:new 0 0 326 326;" xml:space="preserve">
<style type="text/css">
	.st0{fill:#F05950;}
	.st1{fill:#CB423E;}
	.st2{fill:#37494E;}
	.st3{fill:#F9BB55;}
	.st4{fill:#5F6568;}
	.st5{opacity:0.8;}
	.st6{fill:#67C9D9;}
	.st7{fill:#B2E0E8;}
</style>
<title>ed</title>
<g id="Layer_8">
	<path class="st0" d="M237.6,74.7c-0.3,3.1-0.7,6.8-2,9.7c-0.7,3.5-1.8,6.9-3.3,10.1c-2.4,4.9-4.1,10.1-6.3,15.1
		c-1.1,2.9-2.6,5.7-3.8,8.6l0,0c-0.2,0.1-3.4,1.6-8.4,3.5c-8.5,3.2-22.5,7.7-36.9,8.6c0,0,15-21.6,29-39.3c0.8-1,1.6-2,2.4-3
		s1.6-1.7,2.2-2.6c1.6-2.1,3.3-4,5.1-5.9c1.7-1.8,3.1-3.9,4.9-5.5c0.1,0,0.1,0,0.2,0c0.5-0.6,1.1-1.2,1.6-2
		c3.5-4.1,8.3-9.6,12.4-6.3C236.9,67.6,237.8,72.1,237.6,74.7z"/>
	<path class="st0" d="M205.8,91c0.7-1.1,1.5-2.1,2.4-3C207.4,89,206.6,90,205.8,91z"/>
	<path class="st0" d="M222.2,118.3c-0.4,0.8-2.7,1.5-3.5,1.8c-0.5,0.2-1,0.4-1.6,0.7c-0.8,0.6-1.8,0.9-2.8,0.9
		c-0.1,0-0.2,0.1-0.3,0.1c-0.1,0.1-0.1,0.1-0.2,0l0,0C218.8,119.9,221.9,118.4,222.2,118.3z"/>
	<path class="st0" d="M222.3,72.1c-0.6,0.7-1.1,1.4-1.6,2c-0.1,0-0.1,0-0.2,0c-1.8,1.6-3.2,3.7-4.9,5.5c-1.8,1.9-3.5,3.8-5.1,5.9
		c-0.7,0.9-1.5,1.7-2.2,2.6C212.6,82.4,217.3,77.1,222.3,72.1z"/>
	<path class="st1" d="M239.8,73.7c-0.1-2.7-1.2-5.3-2.9-7.3c-0.2-0.3-1.5-1.3-1.9-0.9c0,0,0,0-0.1,0l0,0c0,0.1,0,0.1,0,0.2l0,0l0,0
		c1.8,3.9,3.1,6.9,2.4,11.4c-0.3,1.7-0.6,3.3-0.9,5c-0.3,1.2-0.7,2.4-1.1,3.6l0,0c-1.4,4.8-3.5,9.3-5.2,14c-0.7,1.9-1.4,3.9-2.2,5.8
		c-0.5,1.3-1.5,2.7-1.8,4.1l0,0c-0.3,0.6-0.6,1.2-0.8,1.8c-0.7,1.1-1.1,2.5-1.8,3.7c-0.4,0.6-0.6,1.3-1,1.9c-0.1,0.2-0.5,0.7-0.4,1
		c0,0,0,0.1,0,0.1v0.1c0,0.1,0.1,0.1,0.2,0.1l1,0.5c0,0.1,0.1,0.1,0.2,0.1s0.1,0.1,0.1,0c0.4-0.4,1-0.7,1.3-1.2
		c0.2-0.3,0.3-0.7,0.4-1c0.5-0.9,1-1.9,1.5-2.9c0.7-1.6,1.6-3.3,2.2-5.1c2-3.1,3.1-7,4.4-10.3c1.6-4.1,3.5-8.4,4.7-12.7l0,0
		C239.3,81.8,240.3,77.8,239.8,73.7z"/>
	<path class="st2" d="M290.9,124.9c-3.7-1.5-5.6-5.4-5.6-9.1c0.1,0,0.2-0.2,0.1-0.3c0-0.1-0.1-0.1-0.1-0.1
		c-3.9-1.3-8.1-1.1-12.2-1.3c-4.1-0.2-8.2,0.4-12.1,1.7c0,0-0.1,0-0.1,0c-1.6,6.5,0.5,12.4,3.9,18c1.1,1.9,2.6,3.5,4.3,4.9
		c1.2,1.2,2.6,2.3,4.2,3c0.5,0.4,1.1,0.5,1.7,0.3c2.6-1.4,5-3.2,7.1-5.3c3.3-2.9,7.1-7.3,9-11.3c0,0,0-0.1,0-0.2
		C291.1,125.2,291.1,125,290.9,124.9C291,124.9,290.9,124.9,290.9,124.9z"/>
	<path class="st3" d="M291.5,122.8c-1.5-0.6-2.6-1.8-3.2-3.2c-0.5-0.9-1.3-2.2-0.9-3.2c0-0.1,0-0.1-0.1-0.1
		c-0.4-0.4-0.9-0.6-1.4-0.7c-0.1,0-0.1,0-0.1,0.1c0,0,0,0,0,0c-0.8,0.1-0.4,2.3-0.1,3.2c0.8,2.6,2.8,5.5,5.6,6c0.1,0,0.2,0,0.2-0.1
		c0,0,0,0,0,0C291.5,124.2,292.2,123,291.5,122.8z"/>
	<path class="st0" d="M304.7,113.5c0.2-1.1-1.3-1.7-2.3-1.6c-1.4-0.4-3.9,0.7-5.2,1.1c-1,0.3-2,0.6-3,0.9l0,0c-1,0.2-2,0.5-3,0.8
		l-1.6,0.5l-1,0.3l0,0l-0.9,0.3c-0.1,0-0.1,0.1-0.1,0.1c0,0,0,0-0.1,0.1v0.1c-0.1,0.4,0.5,0.5,0.6,0.2c-0.3,0.9-0.6-0.8-0.6,0.9
		c0.1,0.9,0.4,1.9,0.9,2.7c0.6,1.1,1.6,2,2.8,2.5c0.7,0.2,1.5,0.1,2.1-0.2c2.8-1.3,5.4-2.8,8-4.5l0.5-0.4c0.8-0.4,1.4-1,2-1.6
		C304.4,115,304.7,114.3,304.7,113.5L304.7,113.5z"/>
	<path class="st3" d="M273.9,142.2c-2.2-1.4-4.5-2.6-6.4-4.5c-1.8-2.1-3.4-4.5-4.7-6.9c-1.4-2.2-1.9-5.6-2.3-8.2
		c-0.3-1.5-0.4-3.1-0.2-4.6c0.2-0.6,0.2-1.3,0.1-2c0-0.1-0.1-0.1-0.2-0.1c-0.9,0-1.9,0.1-2.8,0.3c-0.1,0-0.1,0-0.1,0.1
		c0,0-0.1,0-0.1,0.1c-1.9,4-0.8,10,0.6,13.9c2.3,6.6,7.5,12.5,14.3,14.6c0.1,0,0.3,0,0.3-0.2c0,0,0,0,0-0.1c0,0.3,0.5-0.6,0.8-0.9
		l0.1-0.1l0,0l0,0c0.2-0.2,0.4-0.5,0.5-0.8l0.2-0.2C274.1,142.5,274.1,142.3,273.9,142.2C274,142.2,273.9,142.2,273.9,142.2z"/>
	<path class="st3" d="M259.2,133.6l-0.1-0.2c0,0,0,0,0-0.1c-0.1-0.4-0.3-0.9-0.5-1.3c-0.1-0.2-0.1-0.4-0.1-0.6
		c0-0.2-0.1-0.3-0.3-0.3c0,0-0.1,0-0.1,0c-0.2,0.1-0.5,0.2-0.7,0.3c-0.8,0.3-1.6,0.6-2.4,1c-4.5,1.9-9.1,3.4-13.7,4.9
		c-0.1,0-0.1,0.1-0.1,0.1c0,0,0,0,0,0c-2.3,0.7-11.7,3.1-12.7,3.4c-5.4,1.7-10.9,3.2-16.4,4.5s-11,3.2-16.4,4.9
		c-3.9,1.2-7.8,2.2-11.7,3.5c-5.4,1.2-10.6,3.4-15.9,4.8c-4.6,1.2-9.5,2.3-14.1,3.9c-2.9,0.7-5.8,1.7-8.7,2.4
		c-4.1,1.1-8.1,2.1-12.2,3.3c-3.4,1-6.8,1.8-10.2,2.9c-3.6,1.2-7.3,1.9-10.9,3c-6,1.4-12.1,3.2-18,4.9c-6.3,1.8-12.8,3.2-19.2,5
		c-4.7,0.9-9.3,2.3-14,3.4c-3.8,0.9-7.8,1.7-11.5,2.8c-4.4,0.8-8.7,1.9-13,2.7c-4.6,0.9-9.7,2-14.4,1.7c0,0-0.1,0-0.1,0
		c-0.1,0-0.2,0.1-0.2,0.2c0.3,0.8,0.6,1.7,1,2.4c0,0.1,0.2,0.2,0.3,0.1c0,0,0,0,0,0c0.7-0.2,1.4-0.3,2.1-0.2c0.1,0,0.2-0.1,0.2-0.1
		c0.1-0.7,1-1.2,2.1-1.5c2.3-0.3,4.8-0.2,7-0.9l0,0c2.9-0.4,5.8-1,8.8-1.6s5.5-1.2,8.3-1.8c2.5-0.5,5-2.1,7.4-1.1
		c0.1,0.1,0.2,0.3,0.2,0.5c0,0.1,0.1,0.2,0.2,0.2c1.6-0.1,3.2-0.5,4.8-1c1.4-0.4,2.8-0.7,4.1-1.1c6.8-1.1,13.7-3.5,20.4-5.2
		c3.8-1,7.6-2.4,11.5-3.1c3.4-0.6,6.8-1.4,10.1-2.6c5.3-0.9,10.6-2.9,15.6-4.3c5.2-1.5,10.8-2.6,16-4.4c2.5-0.5,4.9-1.5,7.4-2
		c3.4-0.8,6.7-1.7,9.9-2.9c7.9-2.5,16.1-4.1,23.9-7.1c4.5-1.3,8.9-2.6,13.4-3.9c6.4-1.8,13.1-3.4,19.4-5.5c3.4-0.5,6.8-1.8,10-2.7
		c3.8-1.1,7.6-2.3,11.4-3.4c4.1-1.2,8.1-2.5,12.1-3.9c3-1,7.3-1.7,9.8-3.7C259.2,133.8,259.3,133.7,259.2,133.6z"/>
	<path class="st4" d="M271.8,144.7c-1.7-0.5-3.3-1.3-4.7-2.5c-2.1-1.4-3.9-3.1-5.3-5.1c-1.8-2.5-1.6-3.9-3.9-2.9c0,0-0.1,0-0.1,0
		c-2,0.7-4.1,1.5-6.1,2.4c-3.9,1.3-7.8,2.6-11.8,3.9c-4.1,1.3-8.3,2.4-12.5,3.6c-8.9,2.5-18.1,4.5-26.7,7.7
		c-3.7,0.8-7.3,1.9-10.8,3.2c-5.3,1.9-11.2,2.9-16.4,5.1c-2.8,0.8-5.6,1.4-8.4,2.1c-2.5,0.7-5,1.4-7.5,2.2c-2,0.5-4,1.1-6,1.8
		c-5.2,1.5-10.6,2.5-15.7,4.3c-2.8,1-8.8,2.3-8.8,2.4c-5.4,1.4-10.5,3-15.7,4.3c-3.4,0.9-6.8,1.9-10.2,2.9c-2.6,0.4-5.2,1.2-7.6,1.9
		c-4,1.1-8,2.1-12,3.2c-7.3,2-14.8,4.1-22.2,5.6c-0.1-0.1-0.2-0.1-0.2,0c0,0,0,0,0,0.1l0,0c0,0,0,0,0,0.1c-0.7,2.5-2.6,4.6-4.7,6.6
		c0,0-0.1,0-0.1,0c-0.4,0.4-0.7,0.7-1.1,1.1c-0.8,0.8-1.7,1.6-2.4,2.4c-0.3,0.4-0.7,0.8-1.1,1.2c-0.5,0.4-0.9,0.8-1.4,1.2
		c-0.8,0.7-1.6,1.5-2.4,2.4c-1.4,1.1-2.7,2.4-4,3.7c-0.1,0.1-0.1,0.2,0,0.3c0.1,0,0.1,0.1,0.2,0h0.1l0,0l0,0c2.2,0.6,5.4,0,7.7,0
		c4.1,0,8.3-0.4,12.4-0.6c4.4-0.2,8.7-0.6,13-1.1c3.8-0.4,8.2-0.1,12-0.9c7.4,0,14.9-2.1,22.2-3.1c3.8-0.4,7.5-1.1,11.2-1.9
		c3.5-0.8,7.3-0.9,10.8-1.9c1.9-0.2,3.8-0.5,5.6-1c2-0.5,4.4-0.4,6.3-1.2c0.1,0,0.1-0.1,0.1-0.2c0.4-0.4,0.5-1,1-1.9
		c1.1-2.2,2-4.7,2.9-7.1c1-2.6,2-5.2,3-7.9c0.9-2,1.8-4.1,2.7-6.1c1.3-2.6,2.5-5.2,3.5-7.9l0.2-0.1c1.1-0.2,2.2-0.5,3.2-0.8
		c1.2-0.3,2.4-0.8,3.6-1.2c2.2-0.6,4.4-1.1,6.5-1.6c3.8-0.8,7.4-2.4,11.1-3.5s7.3-2,10.9-3.1s7.9-2.9,11.6-2.4
		c4.4,3.1-2.1,12.7-3.8,16.3c-2.4,5.2-5.2,10.3-7.7,15.5c-0.1,0.1,0,0.3,0.1,0.3c0.1,0,0.2,0,0.2,0c3.1-1.6,6.6-2.2,9.9-3.2
		c3.6-1.1,7-2.5,10.6-3.6c8-2.3,15.8-5.4,23.3-9.3l0,0c5.6-2,11.4-5.7,16.2-9.3c4.3-2.1,7.7-5.1,11.2-8.2c1.4-1.2,2.6-2.6,4.1-3.8
		c1.4-1.2,2.7-2.5,3.6-4.1C272,144.9,271.9,144.8,271.8,144.7C271.8,144.7,271.8,144.7,271.8,144.7z"/>
	<path class="st4" d="M24.7,197.5c-0.2,0-0.5,0-0.7-0.1c-0.3,0-0.6,0-0.8,0c-0.1,0-0.2,0.1-0.2,0.1c0,0.5,0.1,0.9,0.4,1.3
		c0.1,0.3,0.3,0.7,0.6,0.9c0.1,0.1,0.2,0.1,0.2,0c0.2-0.2,0.3-0.4,0.3-0.7c0.1-0.2,0.1-0.4,0.2-0.5c0.1-0.3,0.4-0.8,0.3-1.1
		C24.9,197.4,24.8,197.4,24.7,197.5z"/>
	<path class="st0" d="M58.3,189.6h-0.2h-0.2c-0.4,0.1-0.8,0.1-1.2,0.3c-5,1-10,2.3-15,3.4c-2.8,0.6-5.8,1-8.7,1.5
		c-1.8,0.2-3.6,0.4-5.4,0.8c-0.6,0.1-1.2,0.2-1.7,0.5c-0.6,0.3-0.8,1.2-1,1.8c0,0.1,0,0.2,0.1,0.2c0,0,0,0,0,0
		c-0.2,0.5-0.3,1.1-0.5,1.7c-1,3.6-1.9,7.2-2.7,10.9c-0.4,1.7-3.5,14.1-0.4,14.1c1.5,0,3.4-2.7,4.5-3.6c3.1-2.4,5.5-5.5,8.5-8.1
		c1.4-1.2,2.6-2.5,3.8-3.9c2.2-1.7,4.2-3.7,6-5.7c1.7-1.3,3.3-2.7,4.8-4.1c1.9-1.4,3.7-3,5.4-4.7c0.9-1,1.8-1.9,2.8-2.8
		c0.6-0.5,1.1-1.2,1.4-1.9c0.1-0.1,0-0.3-0.1-0.3C58.3,189.6,58.3,189.6,58.3,189.6z"/>
	<path class="st1" d="M59,189.8c0-0.1-0.2-0.2-0.3-0.2c0,0-0.1,0-0.1,0.1c-1.1,1.1-1.8,2.3-2.8,3.4c-1.8,2-3.9,3.6-5.9,5.4
		c-2.5,2.4-5.2,4.6-7.7,7c-3.3,2.8-6,6.2-9.2,9.1c-3.6,3.4-7.4,6.6-11.1,10c-0.1,0-0.2,0.1-0.2,0.2c-0.1,0.1-0.1,0.1,0,0.2
		c0,0,0,0,0.1,0c2.8,0.4,6.2-3.1,8.1-4.8c2.7-2.1,5.2-4.4,7.7-6.8c1.2-1,2.4-2.2,3.5-3.4c1.5-1.4,3-2.7,4.4-4.2c3-3,6.6-5.6,9.3-8.9
		c1.9-1.6,4.4-3.9,4.2-6.6l0,0C59.1,190.3,59.1,190,59,189.8z"/>
	<path class="st4" d="M85.8,207.7c0.1-0.3-0.2-0.4-0.4-0.3c0,0,0-0.1-0.1-0.1h-0.1c-0.2,0-0.4,0-0.6,0.1c-0.4,0.1-0.9,0.2-1.3,0.2
		H83c-0.4,0-0.7,0.1-1.1,0.2c-0.1,0-0.2,0.1-0.2,0.2v0.5c0,0.2-0.1,0.5-0.1,0.7c0,0.1,0.1,0.2,0.3,0.2c0,0,0.1,0,0.1,0
		c0.7-0.3,1.4,0,2.1,0c0.4,0,0.9,0.3,1.3,0.1c0.1,0,0.1-0.1,0.1-0.2c0-0.1,0-0.2,0-0.3c0-0.1,0.1-0.2,0.1-0.2
		C85.6,208.5,85.6,208.1,85.8,207.7z"/>
	<path class="st2" d="M86.5,210.4c-2.5-1.5-6.1-1.1-7.9,1.2c0-0.1-0.1-0.1-0.1-0.1c0,0,0,0-0.1,0.1c-1.2,1.7-1.4,3.9-0.5,5.8
		c1.6,2.6,4.5,3,7.3,2.5C89.7,218.9,90.6,212,86.5,210.4z M83.7,212.5c1.3,0.3,2.2,1.6,1.9,3c-0.1,0.4-0.3,0.8-0.6,1.1
		c-1.2,1.3-2.9,0.5-3.8-0.6c-0.6-0.8-0.6-1.9,0.1-2.6C82,212.8,82.9,212.5,83.7,212.5L83.7,212.5z"/>
	<path class="st1" d="M84.8,212.8c-0.9-0.4-1.9-0.3-2.7,0.1c-0.5,0.3-0.9,0.9-0.9,1.6c-0.1,0.3-0.1,0.6,0,0.9c0,0,0,0.1,0,0.1
		c0.2,0.7,0.9,1.2,1.6,1.3c0.1,0,0.2,0,0.3,0.1h0.2c0.1,0,0.2,0,0.3,0c0.9,0,1.6-0.6,1.9-1.5C85.9,214.5,85.6,213.4,84.8,212.8z
		 M82.5,213.8c0.5-0.3,1.2-0.3,1.7,0.1c0.4,0.4,0.4,1.1,0.1,1.6c-0.5,0.4-1.3,0.5-1.9,0.1C81.9,215,82,214.2,82.5,213.8L82.5,213.8z
		"/>
	<path class="st2" d="M84.1,214c-0.1-0.1-0.1-0.2-0.2-0.2c-0.6-0.5-1.4,0-1.7,0.6c-0.2,0.3-0.2,0.6-0.1,0.9c0.3,0.6,1,0.8,1.6,0.5
		c0.1,0,0.2-0.1,0.2-0.2C84.4,215.2,84.7,214.4,84.1,214z"/>
	<path class="st0" d="M258.3,130.9c-0.3-0.5-0.5-1-0.7-1.6c-0.2-2.2-0.9-4.3-0.9-6.5c-0.1-1.3-0.1-2.6,0-3.9
		c0.2-0.9,0.4-1.8,0.5-2.8c0-0.1-0.1-0.1-0.1-0.2c-0.5-0.1-1-0.1-1.5,0c-2.2-0.2-4.6,0.5-6.7,0.8c-0.1,0-0.2,0.1-0.2,0.2
		c-0.6,2.9-1.3,5.6-0.8,8.4c0,0.6,0.1,1.2,0.3,1.8c0,0.3,0,0.7,0.1,1c0.2,0.9,0.2,1.7,0.2,2.6c-1.9,2.5-5.6,3.4-8.3,4.5
		c-2.1,0.9-4.2,1.6-6.4,2.2c-3.6,0.9-7.2,1.8-10.7,3c-4,0.6-7.9,1.6-11.8,2.4c-3.4,0.7-6.8,1.4-10.2,2.1c-1,0.2-2.1,0.4-3.1,0.6
		c-3,0.1-5.2-0.3-7.3-2.7c-1-1.2-1.9-2.4-3.3-3.9c-0.7-0.9-1.4-1.9-1.9-2.9c-0.9-1.3-1.7-2.6-2.4-4l-0.4-1.1c-0.8-2.5-2.1-7.1,0-9
		c0.2-0.2-1.8,0.4-2,0.5c-4.9,2.1-9.9,3.6-14.9,5.3c-2.5,0.9-5.1,1.7-7.6,2.7c-1.3,0.5-2.6,1.2-3.9,1.8c0,0-0.1,0-0.1,0
		c-3.6,1.2-7.2,2.9-10.7,4.5c-4.2,1.9-8.6,3.7-12.7,5.7c-3.9,2-7.9,3.8-11.9,5.8c-2,1-4,1.9-6,3.1c-1,0.4-2,1-3,1.6
		c-3.1,1.4-5.8,3.6-8.9,5.1c-3.7,1.8-7.4,3.8-11,5.8c-8,4.5-16.7,10.1-26,11.3c0,0-0.1,0-0.1,0.1c-1.9,0-3.8-0.3-5.7-0.8
		c-3.1-0.9-5.4-3-8.2-4.5c-5-2.6-9.7-5.9-14.8-8.3c-4.1-1.9-8.5-4.3-13.1-4.1c-3.7,0.1-5.7,3.8-6,7.2c0-0.1,0-0.2,0-0.3
		c-1,4.9,0.5,10.4,1.4,15.2c0.6,3.1,1.4,6.1,2.5,9c0.5,1.5,1.2,2.9,1.7,4.3c0.3,0.8,0.3,0.9,0.4,0.9v0.1c0,0.1,0,0.2,0.1,0.2
		l0.1,0.1c0,0.1,0.1,0.1,0.2,0.1c1.8-0.3,3.6-0.1,5.5-0.4c2.4-0.4,4.8-0.6,7.2-1c4-0.7,8-1.4,12-2.3c4.3-0.9,8.5-2.1,12.8-3.1
		c3.5-0.9,7.5-1.3,10.9-2.8c3.9-0.3,8-2,11.8-2.8c4.8-1,9.4-2.9,14.2-4c5.1-1.2,10.2-2.7,15.3-4.1c4.8-1.3,9.9-2.3,14.6-4
		c2.2-0.4,4.5-1.4,6.6-1.9c3.3-0.9,6.7-1.7,10-2.7c6.4-2,12.9-3.4,19.3-5.4c2.3-0.4,4.6-1.4,6.9-1.9c3.8-1,7.6-2.3,11.3-3.5
		c6.7-2.2,13.9-3.5,20.5-6c6.5-1.4,12.8-3.9,19.2-5.4s13.4-2.9,19.6-5.5c0,0,0.1,0,0.1,0c3.6-1,7.1-2.3,10.6-3.5
		c1.7-0.6,3.3-1.2,4.9-1.9c0.9-0.2,1.8-0.6,2.7-1C258.4,131.1,258.4,131,258.3,130.9z"/>
	<path class="st0" d="M203.2,154.5c0-0.1-0.1-0.1-0.2-0.1c-4.5,0-9.3,1.9-13.5,3.6c-2.9,0.8-5.8,1.8-8.7,2.6
		c-3.9,1.1-7.8,2.2-11.7,3.4s-7.8,1.7-11.6,3c-1,0.4-1.8,2.2-2.3,3.8c-1.7,3-3,6.2-4.1,9.4c-1.5,4-3.3,7.8-4.8,11.8
		c-1.3,3.4-2.8,6.7-4,10.1c-0.9,2.5-2.1,4.7-2.9,7.2c-3.1,6.5-5,13.6-7.3,20.4c-1.9,5.6-4.5,11.1-5.9,16.8
		c-1.3,3.6-2.4,7.3-3.2,11.1c-0.6,2.4-1.5,4.7-2.1,7.1c-0.3,1.4-0.3,2.8-0.1,4.2c-0.1,1.2,0.3,2.4,1.1,3.4c1.3,1.3,3.6,0.8,5.1,0.5
		c6.2-1.5,10.2-5.5,14-10.3c2.1-2.7,4.2-5.5,6.2-8.3c1.8-2.6,3.9-4.9,5.5-7.6c2.8-2.4,4.9-6.6,6.8-9.6c2.3-3.6,4.6-7.2,6.7-10.9
		c3.9-6.9,9.2-13.5,12.1-21c2.6-4.8,6-9.3,8.7-14.1c2.5-4.4,5.8-9.1,7.6-14c1.7-3.2,3.3-6.4,4.9-9.6S204.8,158.4,203.2,154.5z"/>
	<path class="st1" d="M205.4,156.2c0-0.3-0.2-0.5-0.3-0.8c-0.1-0.1-0.2-0.2-0.3-0.4l-0.1-0.1l0,0c-0.3-0.3-0.6-0.4-1-0.5h-0.1l0,0
		c-0.1,0-0.1,0.1-0.1,0.2c1.1,2.7-1.3,6.6-2.4,9s-2.2,4.8-3.5,7.1s-2.4,4.6-3.5,6.9c-2.9,5.1-4.9,10.8-8.4,15.5
		c-1.8,2.6-3.3,5.3-4.7,8.1c-0.3,0.6-0.6,1.1-1,1.6c0,0-0.1,0-0.1,0.1c-3.5,5.4-6.4,11-9.6,16.5c-1.8,3-3.5,6-5.3,9
		c-1.1,1.9-2.5,3.6-3.4,5.5c-2.4,3.6-4.7,7.2-7.2,10.8c-1.4,2-2.8,3.9-4.3,5.9c-1,1.3-2.1,2.8-3,4.2c-2.5,3.2-4.7,6.6-7.8,9.3
		c-2.2,2-3.8,4.5-6.2,6.3c-2.8,2-5.8,2.5-9.1,2.4c-0.1,0-0.1,0.1-0.1,0.1c0,0,0,0.1,0.1,0.1c0,0,0,0.1,0,0.2
		c3.1,2.9,8.9,0.5,11.7-1.7c2.3-2,4.5-4.2,6.5-6.5c1.4-1.5,2.8-3,4.1-4.6c3.5-3.3,6-8,8.8-11.9c1.8-2.5,3.3-5.1,5.1-7.5
		c0.5-0.8,1-1.5,1.5-2.2c1.6-1.3,2.8-3.6,3.6-5.4c1.8-3.8,4.4-7.2,6.4-10.8c1.8-3,3.4-6.1,5.2-9.1c1.4-2.4,3.3-4.9,4.5-7.5
		c3.3-5.1,6.5-10.4,9.3-15.7c1.6-3,3.5-5.8,4.9-8.9s2.7-5.9,4.1-8.7c2-3.5,3.8-7.2,5.4-11C205.4,160.1,206,157.9,205.4,156.2z"/>
	<path class="st4" d="M248.4,117.7c0.2-0.7,0.3-1.1-0.5-1.3c-0.4-0.1-0.7,0.6-0.8,1.2c-1.8,3.3-1,8.6-0.3,12.2
		c-0.5,2.2-7,3.4-8.9,4.1c-2.2,0.8-4.8,1.2-6.9,2.3c-6.1,1.5-12.1,3.4-18.2,4.8c-2.8,0.6-5.7,0.8-8.6,1.4s-6.5,1.8-9.2,0.9
		c-1.4-0.7-2.7-1.6-3.9-2.7c-1.2-1.3-2.4-2.6-3.5-4c-2-2.7-3.4-5.8-4.3-9l0,0l0,0h-0.1h-0.1l0,0l0,0l0,0c-0.8,1.5-0.8,3.3,0,4.8
		c1,2.3,2.4,4.5,4,6.5c1.7,1.9,2.9,4.4,5.1,5.7c2.1,1.2,4.7,1.5,7,0.8c0.8-0.1,1.5-0.3,2.3-0.6c4.4-0.9,8.8-1.7,13.2-2.6
		c3.6-0.6,7.2-1.5,10.7-2.5c2.1-0.7,4.3-1.1,6.3-1.8c4.7-1.4,8.7-2.3,12.2-4.2c1.6-0.9,3.1-1.4,3.8-2.5c0.1,0,0.2,0,0.2,0
		c0,0,0,0,0,0c0.1-0.2,0.2-0.5,0.3-0.8c0,0,0.1-0.1,0.1-0.1c0-0.1,0-0.1,0-0.2c0.2-1.6-0.3-3.3-0.5-4.9c-0.3-2.2,0.3-4.3,0.3-6.4
		C248.2,118.4,248.3,118,248.4,117.7z"/>
	<path class="st2" d="M199.2,142.5c-2.6-3.3-6-5.8-8.4-9.3c-1.1-1.4-2.1-3-3.1-4.5c-0.9-1.7-1.1-3.5-1.7-5.2c0-0.1-0.2-0.2-0.3-0.2
		c-0.1,0-0.1,0.1-0.2,0.2c-1.2,3.1,2.3,7,3.7,9.3c2.6,3.8,5.7,7.3,9.1,10.3l0,0l0,0C198.9,143.7,199.6,143,199.2,142.5z"/>
	<path class="st2" d="M197.9,142.9c-0.4-0.6-1-1.1-1.6-1.5c-0.3-0.3-0.5-0.6-0.6-0.7c-1.3-1.7-2.8-3.2-4.1-4.9
		c-2.8-3.4-5.5-7-6.1-11.5c0-0.1-0.1-0.2-0.3-0.2c-0.1,0-0.2,0.1-0.2,0.2c-0.1,0.2-0.2,0.4-0.2,0.6c0,0,0,0,0,0.1
		c-0.7,1-1.6,2-1.4,3.2c0.6,2.7,1.7,5.2,3.3,7.4c2.2,3.5,6.4,9,11.1,7.9h0.1c0.1,0,0.2-0.1,0.1-0.2
		C198.1,143.1,198,142.9,197.9,142.9z"/>
	<g class="st5">
		<path class="st6" d="M306,144.4c-0.3-2.5-0.5-6-1.4-8.5c-0.3-1.9-0.8-3.8-1.5-5.6c-0.5-1.5-1.1-3-1.7-4.5c-0.8-2-2.4-4-2.9-6.1
			c0-0.1-0.1-0.2-0.3-0.1c0,0,0,0,0,0c-1.4,1-3,1.8-4.5,2.6c-0.5,0.2-1,0.3-1.6,0.3c-0.6-0.1-1.2-0.2-1.8-0.6
			c-0.2-0.2-0.5-0.4-0.7-0.6l-0.5-0.4c-0.7-1.2-1.2-2.5-1.5-3.9c0-0.4,0-0.9,0.2-1.3c1.3-0.5,2.7-0.9,4.1-1.3c1.5-0.4,3-1.3,4.5-1.4
			c0.1,0,0.2-0.1,0.2-0.2c0,0,0-0.1,0-0.1c-0.4-0.6-0.8-1.3-1.1-1.9c-0.3-0.8-0.7-1.7-1.1-2.5c-1.4-3.7-3-7.2-4.9-10.7
			c-2.3-4.2-4.9-8.8-8.5-12c-1.5-2.6-5.6-6.5-8-4.1c-1.4,1.4-1.5,3.7-1.4,5.7c-0.1,1.4-0.1,2.8,0,4.2c0,1.1,0,2.1,0.2,3.2
			c0,1.6,0.2,3.3,0.6,4.8c0.5,4.2,1.5,8.4,2.9,12.4c1,3.1,2.2,6.1,3.3,9.2c0.6,2,1.4,3.9,2.3,5.8c1.7,5,4.7,9.5,7.1,14.2
			c1.1,2.4,2.5,4.7,4.1,6.9c1.5,2,2.5,4.2,4.4,5.8c1.5,1.9,3.3,3.7,5.4,4.2c3.3,0.8,3.8-0.1,4.6-3.4S306.4,147.7,306,144.4z"/>
		<path class="st6" d="M290.5,122.4L290.5,122.4z"/>
	</g>
	<path class="st3" d="M24.3,191.1c-0.4-0.3-1-0.2-1.3,0.2c0,0-0.1,0.1-0.1,0.1c-0.7,1,1,1.7,1.5,1c0,0,0.1-0.1,0.1-0.1
		C24.8,191.9,24.7,191.4,24.3,191.1C24.3,191.1,24.3,191.1,24.3,191.1z"/>
	<path class="st3" d="M34.3,189.6c-0.4,0.4-0.5,1-0.1,1.4c0,0,0.1,0.1,0.1,0.1c0.1,0.1,0.3,0.2,0.5,0.2l0,0c0.6,0.3,1.1-0.5,1.1-0.9
		C36,189.7,34.8,189.3,34.3,189.6z"/>
	<path class="st3" d="M46.5,187.4c-1-0.5-1.8,1-0.9,1.6c0.1,0.1,0.2,0.1,0.4,0.1c0.1,0,0.1,0,0.2,0.1c0.5,0.1,0.9-0.3,1-0.8
		C47.2,187.9,47,187.5,46.5,187.4z"/>
	<path class="st3" d="M58.4,184.8c-1-0.5-1.8,1-0.9,1.6c0.1,0.1,0.2,0.1,0.4,0.1c0.1,0,0.1,0,0.2,0.1c0.5,0.1,0.9-0.3,1-0.8
		C59.1,185.3,58.8,184.9,58.4,184.8z"/>
	<path class="st3" d="M60.7,192.2c-1-0.5-1.8,1-0.9,1.6c0.1,0.1,0.2,0.1,0.4,0.1c0.1,0,0.1,0,0.2,0.1c0.5,0.1,0.9-0.3,1-0.8
		C61.4,192.7,61.1,192.3,60.7,192.2z"/>
	<path class="st3" d="M69.9,182c-1-0.5-1.8,1-0.9,1.6c0.1,0.1,0.2,0.1,0.4,0.1c0.1,0,0.1,0,0.2,0.1c0.5,0.1,0.9-0.3,1-0.8
		C70.5,182.5,70.3,182.1,69.9,182z"/>
	<path class="st3" d="M72,189.4c-1-0.5-1.8,1-0.9,1.6c0.1,0.1,0.2,0.1,0.4,0.1c0.1,0,0.1,0,0.2,0.1c0.5,0.1,0.9-0.3,1-0.8
		C72.7,189.9,72.4,189.5,72,189.4z"/>
	<path class="st3" d="M83.9,186.1c-1-0.5-1.8,1-0.9,1.6c0.1,0.1,0.2,0.1,0.4,0.1c0.1,0,0.1,0,0.2,0.1c0.5,0.1,0.9-0.3,1-0.8
		C84.6,186.7,84.4,186.3,83.9,186.1z"/>
	<path class="st3" d="M82,179c-1-0.5-1.8,1-0.9,1.6c0.1,0.1,0.2,0.1,0.4,0.1c0.1,0,0.1,0,0.2,0.1c0.5,0.1,0.9-0.3,1-0.8
		C82.7,179.5,82.4,179.1,82,179z"/>
	<path class="st3" d="M93.6,176.1c-1-0.5-1.8,1-0.9,1.6c0.1,0.1,0.2,0.1,0.4,0.1c0.1,0,0.1,0,0.2,0.1c0.5,0.1,0.9-0.3,1-0.8
		C94.3,176.7,94.1,176.3,93.6,176.1z"/>
	<path class="st3" d="M95.4,183c-1-0.5-1.8,1-0.9,1.6c0.1,0.1,0.2,0.1,0.4,0.1c0.1,0,0.1,0,0.2,0.1c0.5,0.1,0.9-0.3,1-0.8
		C96.1,183.5,95.9,183.1,95.4,183z"/>
	<path class="st3" d="M104.5,173.3c-1-0.5-1.8,1-0.9,1.6c0.1,0.1,0.2,0.1,0.4,0.1c0.1,0,0.1,0,0.2,0.1c0.5,0.1,0.9-0.3,1-0.8
		C105.2,173.8,104.9,173.4,104.5,173.3z"/>
	<path class="st3" d="M106.8,179.9c-1-0.5-1.8,1-0.9,1.6c0.1,0.1,0.2,0.1,0.4,0.1c0.1,0,0.1,0,0.2,0.1c0.5,0.1,0.9-0.3,1-0.8
		C107.4,180.5,107.2,180.1,106.8,179.9z"/>
	<path class="st3" d="M115.8,170.1c-1-0.5-1.8,1-0.9,1.6c0.1,0.1,0.2,0.1,0.4,0.1c0.1,0,0.1,0,0.2,0.1c0.5,0.1,0.9-0.3,1-0.8
		C116.4,170.7,116.2,170.3,115.8,170.1z"/>
	<path class="st3" d="M118.2,176.9c-1-0.5-1.8,1-0.9,1.6c0.1,0.1,0.2,0.1,0.4,0.1c0.1,0,0.1,0,0.2,0.1c0.5,0.1,0.9-0.3,1-0.8
		C118.9,177.5,118.6,177.1,118.2,176.9z"/>
	<path class="st3" d="M129.9,173.8c-1-0.5-1.9,1-0.9,1.6c0.1,0.1,0.2,0.1,0.4,0.1c0.1,0,0.1,0,0.2,0.1c0.5,0,0.9-0.3,1-0.8
		C130.5,174.4,130.2,174,129.9,173.8z"/>
	<path class="st3" d="M127,167c-1-0.5-1.8,1-0.9,1.6c0.1,0.1,0.2,0.1,0.4,0.1c0.1,0,0.1,0,0.2,0.1c0.5,0.1,0.9-0.3,1-0.8
		C127.7,167.5,127.4,167.1,127,167z"/>
	<path class="st3" d="M138.5,164.1c-1-0.5-1.9,1-0.9,1.6c0.1,0.1,0.2,0.1,0.4,0.1c0.1,0,0.1,0,0.2,0.1c0.5,0,0.9-0.3,1-0.8
		C139.1,164.6,138.9,164.2,138.5,164.1z"/>
	<path class="st3" d="M140.8,170.8c-1-0.5-1.9,1-0.9,1.6c0.1,0.1,0.2,0.1,0.4,0.1c0.1,0,0.1,0,0.2,0.1c0.5,0.1,0.9-0.3,1-0.8
		C141.5,171.3,141.2,170.9,140.8,170.8z"/>
	<path class="st3" d="M149.9,160.8c-1-0.5-1.9,1-0.9,1.6c0.1,0.1,0.2,0.1,0.4,0.1c0.1,0,0.1,0,0.2,0.1c0.5,0.1,0.9-0.3,1-0.8
		C150.5,161.3,150.3,160.9,149.9,160.8z"/>
	<path class="st3" d="M161.1,157.7c-1-0.5-1.9,1-0.9,1.6c0.1,0.1,0.2,0.1,0.4,0.1c0.1,0,0.1,0,0.2,0.1c0.5,0.1,0.9-0.3,1-0.8
		C161.8,158.2,161.6,157.8,161.1,157.7z"/>
	<path class="st3" d="M172.8,154.2c-1-0.5-1.9,1-0.9,1.6c0.1,0.1,0.2,0.1,0.4,0.1c0.1,0,0.1,0,0.2,0.1c0.5,0.1,0.9-0.3,1-0.8
		C173.4,154.8,173.2,154.4,172.8,154.2z"/>
	<path class="st3" d="M183.9,150.9c-1-0.5-1.9,1-0.9,1.6c0.1,0.1,0.2,0.1,0.4,0.1c0.1,0,0.1,0,0.2,0.1c0.5,0.1,0.9-0.3,1-0.8
		C184.6,151.4,184.3,151,183.9,150.9z"/>
	<path class="st3" d="M195.2,147.6c-1-0.5-1.9,1-0.9,1.6c0.1,0.1,0.2,0.1,0.4,0.1c0.1,0,0.1,0,0.2,0.1c0.5,0,0.9-0.3,1-0.8
		C195.8,148.1,195.5,147.7,195.2,147.6z"/>
	<path class="st3" d="M209.2,151.5c-1-0.5-1.9,1-0.9,1.6c0.1,0.1,0.2,0.1,0.4,0.1c0.1,0,0.1,0,0.2,0.1c0.5,0,0.9-0.3,1-0.8
		C209.8,152.1,209.6,151.7,209.2,151.5z"/>
	<path class="st3" d="M220.2,148.4c-1-0.5-1.9,1-0.9,1.6c0.1,0.1,0.2,0.1,0.4,0.1c0.1,0,0.1,0,0.2,0.1c0.5,0.1,0.9-0.3,1-0.8
		C220.8,149,220.6,148.6,220.2,148.4z"/>
	<path class="st3" d="M231.2,145.3c-1-0.5-1.9,1-0.9,1.6c0.1,0.1,0.2,0.1,0.4,0.1c0.1,0,0.1,0,0.2,0.1c0.5,0,0.9-0.3,1-0.8
		C231.8,145.8,231.6,145.4,231.2,145.3z"/>
	<path class="st3" d="M242.1,141.8c-1-0.5-1.9,1-0.9,1.6c0.1,0.1,0.2,0.1,0.4,0.1c0.1,0,0.1,0,0.2,0.1c0.5,0,0.9-0.3,1-0.8
		C242.7,142.4,242.5,142,242.1,141.8z"/>
	<path class="st3" d="M252.4,138.6c-1-0.5-1.9,1-0.9,1.6c0.1,0.1,0.2,0.1,0.4,0.1c0.1,0,0.1,0,0.2,0.1c0.5,0.1,0.9-0.3,1-0.8
		C253.1,139.1,252.8,138.7,252.4,138.6z"/>
	<path class="st3" d="M266.9,132.1c-1-0.5-1.9,1-0.9,1.6c0.1,0.1,0.2,0.1,0.4,0.1c0.1,0,0.1,0,0.2,0.1c0.5,0.1,0.9-0.3,1-0.8
		C267.6,132.6,267.3,132.2,266.9,132.1z"/>
	<path class="st3" d="M264.5,127.2c-1-0.5-1.9,1-0.9,1.5c0.1,0.1,0.2,0.1,0.4,0.1c0.1,0,0.1,0,0.2,0.1c0.5,0.1,0.9-0.3,1-0.8
		C265.2,127.7,265,127.3,264.5,127.2z"/>
	<path class="st3" d="M263.3,121.9c-1-0.5-1.9,1-0.9,1.6c0.1,0.1,0.2,0.1,0.4,0.1c0.1,0,0.1,0,0.2,0.1c0.5,0.1,0.9-0.3,1-0.8
		C263.9,122.5,263.7,122.1,263.3,121.9z"/>
	<path class="st3" d="M262.9,116.7c-1-0.5-1.9,1-0.9,1.6c0.1,0.1,0.2,0.1,0.4,0.1c0.1,0,0.1,0,0.2,0.1c0.5,0.1,0.9-0.3,1-0.8
		C263.6,117.2,263.3,116.8,262.9,116.7z"/>
	<path class="st3" d="M270.4,136.4c-1-0.5-1.9,1-0.9,1.6c0.1,0.1,0.2,0.1,0.4,0.1c0.1,0,0.1,0,0.2,0.1c0.5,0,0.9-0.3,1-0.8
		C271,137,270.8,136.6,270.4,136.4z"/>
	<path class="st3" d="M274.8,139.5c-1-0.5-1.9,1-0.9,1.6c0.1,0.1,0.2,0.1,0.4,0.1c0.1,0,0.1,0,0.2,0.1c0.5,0.1,0.9-0.3,1-0.8
		C275.4,140,275.2,139.6,274.8,139.5z"/>
	<path class="st3" d="M152,167.6c-1-0.5-1.9,1-0.9,1.6c0.1,0.1,0.2,0.1,0.4,0.1c0.1,0,0.1,0,0.2,0.1c0.5,0.1,0.9-0.3,1-0.8
		C152.7,168.1,152.4,167.7,152,167.6z"/>
	<path class="st7" d="M247.9,116.4c-1,1.4-1.6,3-1.8,4.7c0,2.4,0.6,7.2,0.6,8.7s-12.3,5.7-28.9,10.4s-20.3,4.4-21.9,3.8
		s-8.2-3.4-10.6-10.4s-2.2-8.2-1-11.2s15.7-7.8,30.1-8.6S240.2,112.5,247.9,116.4z"/>
	<path class="st4" d="M230.7,113.3c0,0-3.2,9.4,3.2,22.1l-2.2,0.8c0,0-4.4-9.2-4.6-15.1s0.8-8.4,0.8-8.4L230.7,113.3z"/>
	<path class="st4" d="M203.6,114.9c0,0-7.8,9,7.6,27.1l-1.6,0.4c0,0-9.2-9.4-10-21.1c-0.5-2.3,0.1-4.7,1.6-6.4L203.6,114.9z"/>
	<path class="st4" d="M185.4,121.1l-0.3-0.1l-2.6,0.9c0,0-1.4,1.7-1,5.6c0.4,3.9,1.8,5.6,1.8,5.6l1.4-0.9c-0.6-2.2-0.9-4.5-1-6.8
		C183.9,123.7,184.5,122.3,185.4,121.1z"/>
</g>
</svg>
