<svg xmlns="http://www.w3.org/2000/svg" width="1000" height="1000" viewBox="0 0 1000 1000"><defs><style>.cls-1{fill:none;stroke:#ffce23;stroke-linejoin:round;stroke-width:29px;}.cls-2{fill:#f05950;}.cls-3{fill:#cb423e;}.cls-4{fill:#37494e;}.cls-5{fill:#f9bb55;}.cls-6{fill:#5f6568;}.cls-7{opacity:0.8;}.cls-8{fill:#67c9d9;}.cls-9{fill:#b2e0e8;}</style></defs><title>ed_current</title><g id="outline"><path class="cls-1" d="M948.93,405.15c-1-7.83-1.68-18.64-4.47-26.31a97.17,97.17,0,0,0-4.63-17.27c-1.71-4.72-3.57-9.32-5.34-14.07-2.39-6.21-7.3-12.43-9-19a.62.62,0,0,0-.78-.41l-.09,0a104.1,104.1,0,0,1-14.13,8,24.23,24.23,0,0,1-4.91,1,13.44,13.44,0,0,1-1.56-.23,8.19,8.19,0,0,0,5.51-1,199.85,199.85,0,0,0,24.85-14.1l1.65-1.18a24.85,24.85,0,0,0,6.21-5.06,9.54,9.54,0,0,0,2.61-6.37l.12-.06c.53-3.48-3.95-5.37-7.21-4.88-4.47-1.21-12.12,2.08-16.06,3.32-3.11,1-6.21,1.83-9.32,2.7a55.34,55.34,0,0,0-9.32,2.64l-5.09,1.49-3.11.87-2.55.75a118.05,118.05,0,0,1,12.62-3.89c4.66-1.18,9.32-3.91,14.07-4.35a.5.5,0,0,0,.43-.75c-1.24-2-2.36-4-3.42-6-1.06-2.61-2.24-5.16-3.48-7.67a285.78,285.78,0,0,0-15.1-33.15c-7-13-15.19-27.31-26.41-37.28-4.72-8-17.46-20.16-24.85-12.86-4.22,4.22-4.63,11.49-4.26,17.83a88.63,88.63,0,0,0,0,12.89,50.26,50.26,0,0,0,.65,9.88,69.39,69.39,0,0,0,1.86,15,187,187,0,0,0,9,38.49c.77,2.39,1.59,4.78,2.44,7.15-3.09-.09-6.18-.17-9.24-.32a95.34,95.34,0,0,0-37.47,5.41h-.37a59,59,0,0,0-1.48,18.22A52.8,52.8,0,0,1,807,323a14.35,14.35,0,0,0,.47-6.21.59.59,0,0,0-.56-.43,63.21,63.21,0,0,0-8.64.81.4.4,0,0,0-.34.28.44.44,0,0,0-.25.22c-.17.36-.31.74-.47,1.11.06-.47.11-.95.16-1.42a.56.56,0,0,0-.4-.53,14.91,14.91,0,0,0-4.6,0c-6.87-.47-14.13,1.62-20.81,2.52a.9.9,0,0,0-.65.65c-.61,2.82-1.22,5.6-1.74,8.35,0-1,.07-2,0-3a11.67,11.67,0,0,1,.68-3.11c.62-2.05.87-3.45-1.43-4-14.39-7.31-32.87-9.77-55.12-10l-7.13-1.52s-.19.49-.46,1.51l-2.43,0c2-4.49,4.3-9.31,6.09-14.11,6.21-9.63,9.6-21.75,13.58-32.15,4.85-12.77,10.84-26,14.69-39.33,4.1-11.87,7.08-24.42,5.65-37.15a37.62,37.62,0,0,0-9-22.74c-.78-.87-4.54-4-6-2.83a.19.19,0,0,0-.19,0,.44.44,0,0,0,0,.56l1.05,2.3a15,15,0,0,0-1.67-1.71c-12.55-10.34-27.56,6.65-38.37,19.51-1.83,2.33-3.54,4.41-5.13,6.21h0c1.57-1.88,3.25-4,5.06-6.14a504.92,504.92,0,0,0-43.77,49.55l.44-.48-.34.41c-2.49,3.11-5,6.21-7.49,9.32-26.19,33.08-53.51,70.6-71.1,95.22l-1.6.55a9,9,0,0,0-.81,1.29,49.38,49.38,0,0,0-4.93,1.45c-15.13,6.49-30.76,11.12-46.26,16.59-7.89,2.76-15.84,5.28-23.58,8.42-4,1.62-8,3.76-12,5.62a.5.5,0,0,0-.4,0c-11.31,3.67-22.46,9.13-33.36,13.89-13.17,5.75-26.59,11.37-39.48,17.77-12.27,6.21-24.67,11.74-36.87,18-6.21,3.11-12.43,6.06-18.64,9.51a60.87,60.87,0,0,0-9.32,4.85c-9.54,4.5-18.08,11.09-27.62,15.75-11.53,5.62-23,11.87-34.17,18.14-24.85,14-51.88,31.22-80.77,35.1a.5.5,0,0,0-.31.19,63.13,63.13,0,0,1-17.71-2.45c-9.72-2.86-16.81-9.32-25.6-13.89-15.53-7.92-30-18.45-46-25.72-12.67-6.06-26.37-13.3-40.63-12.89-11.49.34-17.8,11.87-18.64,22.31v-.81c-3.11,15.16,1.62,32.28,4.19,47.19a191.05,191.05,0,0,0,7.7,28c1.55,4.6,3.63,9,5.41,13.48.93,2.33,1,2.73,1.15,2.64v.25a.65.65,0,0,0,.4.62l.19.28a.53.53,0,0,0,.59.25c5.53-.93,11.31-.31,16.93-1.21,7.42-1.18,14.91-2,22.37-3.11,2.55-.42,5.1-.87,7.66-1.32l-3.37.66c-14.23,2.64-30.1,6.21-44.64,5.16a.53.53,0,0,0-.28,0c-.34,0-.65.22-.59.59A37.09,37.09,0,0,0,69,569.36a.71.71,0,0,0,.9.46l.12-.05a18.64,18.64,0,0,1,6.55-.71h.07c-.2.49-.37,1-.53,1.48a1.35,1.35,0,0,0-.1-.28.81.81,0,0,0-.9-.16,9.6,9.6,0,0,1-2.24-.22,15.54,15.54,0,0,0-2.58,0,.62.62,0,0,0-.59.43,6.68,6.68,0,0,0,1.24,4.1,8.23,8.23,0,0,0,1.83,2.89.62.62,0,0,0,.78,0,3.32,3.32,0,0,0,1.06-2.05c.25-.56.43-1.18.59-1.55s.5-1,.71-1.55l.06,0h0c-.56,1.62-1,3.35-1.55,5.31-3.11,11.12-5.84,22.49-8.51,33.71C64.64,616.61,55.23,655,64.58,655a4.91,4.91,0,0,0,1.46-.26l-.18.14a.43.43,0,0,0,.19.71c8.67,1.18,19.2-9.6,25.29-14.82a299,299,0,0,0,23.77-21,99.13,99.13,0,0,0,10.84-10.44c4.57-4.32,9.32-8.51,13.73-13,5.58-5.58,11.81-10.71,17.73-16.11-.32.35-.65.7-1,1-1.06,1.24-2.24,2.42-3.36,3.63a44.94,44.94,0,0,1-4.44,3.63,91,91,0,0,0-7.42,7.39,138.81,138.81,0,0,0-12.43,11.43.59.59,0,0,0,.71.9h.22c6.87,1.89,16.74,0,23.8,0,12.8,0,25.72-1.27,38.52-1.77,13.61-.53,26.93-2,40.39-3.32,6.66-.65,14-.65,21.18-1-.29.08-.58.16-.87.26a.71.71,0,0,0-.53.68v1.62A11.37,11.37,0,0,0,252,607a.75.75,0,0,0,1.09.62,7.31,7.31,0,0,1,4.17-.22c-5.68-.14-11.35,2-14.8,6.31a.34.34,0,0,0-.62,0,17.58,17.58,0,0,0-1.52,18c4.91,8.2,14.07,9.32,22.8,7.74,13.92-2.76,16.71-24.23,3.91-29.36a19.37,19.37,0,0,0-4.62-1.94,1.79,1.79,0,0,0,1-.23.75.75,0,0,0,.37-.62v-.87a1.89,1.89,0,0,0,.19-.71,15.53,15.53,0,0,1,.71-3.73.73.73,0,0,0-.17-.78c1.74-.25,3.46-.55,5.14-.93,23,0,46.38-6.68,69.12-9.6a345.51,345.51,0,0,0,34.76-5.78c11-2.55,22.71-2.83,33.55-5.87a97.6,97.6,0,0,0,17.52-3.11c6.21-1.49,13.79-1.24,19.57-3.67a.68.68,0,0,0,.43-.56c1.24-1.18,1.55-3.11,3.11-6.06.76-1.53,1.48-3.1,2.18-4.69-3.13,7.75-6.45,15.43-9.3,23.27-2.73,7.64-6.59,14.6-9,22.24-9.57,20.13-15.53,42.37-22.71,63.41-5.81,17.27-14.1,34.36-18.48,52.25a301.91,301.91,0,0,0-9.94,34.36c-1.93,7.39-4.78,14.51-6.52,22a35.91,35.91,0,0,0-.28,13.11A14.41,14.41,0,0,0,377.13,802c4,4,11.15,2.49,15.87,1.4a61.48,61.48,0,0,0,25-12.47,50.28,50.28,0,0,1-7,6.26c-8.61,6.21-18.11,7.74-28.36,7.52a.34.34,0,0,0,0,.65.43.43,0,0,0,0,.5c9.66,8.95,27.71,1.62,36.47-5.37a188,188,0,0,0,20.16-20.29,183.56,183.56,0,0,0,12.77-14.32C462.9,755.6,470.73,741,479.28,729c5.47-7.67,10.34-15.72,15.78-23.39,1.65-2.33,3.11-4.63,4.66-6.93,5.09-4,8.54-11.12,11.25-16.81,5.59-11.71,13.51-22.27,20-33.49,5.44-9.32,10.56-19,16.09-28.43,4.38-7.42,10.31-15.19,14-23.42,10.28-15.72,20.1-32.31,29-48.84,2.09-3.95,4.36-7.79,6.6-11.64a.76.76,0,0,0,.26.24.78.78,0,0,0,.75,0c9.69-5,20.47-6.77,30.72-10.07,11.09-3.54,21.75-7.89,33-11.21a397,397,0,0,0,72.29-28.77c17.3-6.21,35.26-17.83,50.39-29,13.3-6.46,24.08-15.69,34.95-25.47,4.29-3.85,8.23-8.11,12.67-11.8a48.93,48.93,0,0,0,11.25-12.8.68.68,0,0,0-.13-1l-.05,0A42.4,42.4,0,0,1,830,400a61.35,61.35,0,0,0,13.89,6.37.75.75,0,0,0,.93-.71c0,1,1.68-1.83,2.33-2.8l.22-.22a5.09,5.09,0,0,0,1.43-2.52l.56-.68a.65.65,0,0,0-.16-1.12c-1.47-.95-3-1.86-4.45-2.77.81.45,1.63.88,2.47,1.28a5.31,5.31,0,0,0,5.22,1,106.68,106.68,0,0,0,22.18-16.46c2.31-2.06,4.7-4.35,7.08-6.79,3.7,6.85,7.56,13.63,11,20.56a135,135,0,0,0,12.71,21.31c4.57,6.21,7.92,13,13.58,18.11,4.57,6,10.38,11.56,16.84,13,10.22,2.33,11.8-.4,14.2-10.72S950.26,415.4,948.93,405.15Z"/><g id="Layer_8" data-name="Layer 8"><path class="cls-2" d="M736.38,188.74c-.84,9.69-2.14,21.16-6.21,30.23a139.58,139.58,0,0,1-10.22,31.41c-7.33,15.32-12.64,31.5-19.7,47-3.51,9.07-8,17.74-11.8,26.65h0c-.78.37-10.53,5-26.06,10.9-26.53,10.07-70,23.92-114.6,26.65,0,0,46.6-67.19,90.09-122.12,2.52-3.11,5-6.21,7.49-9.32s4.94-5.31,7-8a205,205,0,0,1,15.78-18.33c5.34-5.44,9.57-12,15.32-17a.4.4,0,0,1,.56,0c1.58-1.8,3.29-3.88,5.13-6.21,10.81-12.86,25.82-29.85,38.37-19.51C734.11,166.66,737.09,180.64,736.38,188.74Z"/><path class="cls-2" d="M637.74,239.32a66.26,66.26,0,0,1,7.49-9.32C642.77,233.11,640.26,236.21,637.74,239.32Z"/><path class="cls-2" d="M688.47,324c-1.15,2.61-8.39,4.57-10.84,5.72-1.62.75-3.11,1.4-4.82,2.05a14,14,0,0,1-8.73,2.67,2.89,2.89,0,0,0-.9.43.47.47,0,0,1-.62,0h0C677.94,329,687.7,324.41,688.47,324Z"/><path class="cls-2" d="M689,180.64c-1.83,2.21-3.54,4.32-5.13,6.21a.4.4,0,0,0-.56,0c-5.72,5-9.94,11.59-15.32,17a205,205,0,0,0-15.78,18.33c-2.05,2.67-4.54,5.28-7,8A504.94,504.94,0,0,1,689,180.64Z"/><path class="cls-3" d="M743.36,185.48a37.62,37.62,0,0,0-9-22.74c-.78-.87-4.54-4-6-2.83a.19.19,0,0,0-.19,0h0a.43.43,0,0,0,0,.56h0c5.59,12.12,9.54,21.56,7.33,35.51-.81,5.19-1.77,10.31-2.7,15.53a76.42,76.42,0,0,1-3.51,11.21h0c-4.5,14.79-10.75,29-16.22,43.49-2.27,6-4.47,12-6.87,18-1.58,3.91-4.72,8.29-5.44,12.67h0c-.93,1.9-1.74,3.82-2.55,5.75-2.3,3.54-3.42,7.8-5.44,11.49-1.09,2-1.71,4-3.11,5.87-.43.68-1.65,2.08-1.4,3.11a.59.59,0,0,0,0,.43v.22a.59.59,0,0,0,.5.28l3.11,1.43a.44.44,0,0,0,.5.43c.25,0,.31.22.47,0,1.34-1.37,3.11-2,4-3.76A15.75,15.75,0,0,0,698,319a86.17,86.17,0,0,0,4.57-9.07c2.24-4.94,4.85-10.41,6.87-15.81,6.21-9.63,9.6-21.75,13.58-32.15,4.85-12.77,10.84-26,14.69-39.33h0C741.81,210.77,744.79,198.22,743.36,185.48Z"/><path class="cls-4" d="M902.08,344.54c-11.56-4.6-17.3-16.65-17.52-28.33a.65.65,0,0,0,0-1.21c-12.24-4-25.29-3.36-38-4a95.34,95.34,0,0,0-37.47,5.41h-.37c-4.85,20.22,1.52,38.58,12.15,55.92a60.55,60.55,0,0,0,13.3,15.16,45.7,45.7,0,0,0,13,9.32,5.31,5.31,0,0,0,5.22,1,106.68,106.68,0,0,0,22.18-16.46c10.25-9.13,22-22.68,27.8-35.1a.75.75,0,0,0,0-.47.78.78,0,0,0-.37-1.21Z"/><path class="cls-5" d="M903.85,338a18.2,18.2,0,0,1-10-10.1c-1.46-2.83-3.95-6.74-2.86-10.07a.37.37,0,0,0-.19-.43,9.51,9.51,0,0,0-4.41-2.21.34.34,0,0,0-.4.4c-2.52.37-1.15,7.21-.37,9.79,2.36,7.92,8.73,17,17.37,18.64a.53.53,0,0,0,.65-.37h0C903.88,342.43,906.12,338.73,903.85,338Z"/><path class="cls-2" d="M944.95,309.12c.53-3.48-3.95-5.37-7.21-4.88-4.47-1.21-12.12,2.08-16.06,3.32-3.11,1-6.21,1.83-9.32,2.7h0a55.33,55.33,0,0,0-9.32,2.64l-5.09,1.49-3.11.87h0l-2.73.81a.47.47,0,0,0-.34.43l-.19.22v.37c-.37,1.15,1.43,1.65,1.8.5-1,2.76-2-2.36-2,2.83a23.8,23.8,0,0,0,2.73,8.36,17.4,17.4,0,0,0,8.73,7.83,8.2,8.2,0,0,0,6.65-.71,199.87,199.87,0,0,0,24.85-14.1l1.65-1.18a24.85,24.85,0,0,0,6.21-5.06,9.54,9.54,0,0,0,2.61-6.37Z"/><path class="cls-5" d="M849.24,398.31c-6.83-4.41-14.13-8-19.79-14.07a123.76,123.76,0,0,1-14.6-21.5c-4.26-6.93-5.81-17.43-7.15-25.32A52.81,52.81,0,0,1,807,323a14.35,14.35,0,0,0,.47-6.21.59.59,0,0,0-.56-.43,63.22,63.22,0,0,0-8.64.81.4.4,0,0,0-.34.28.43.43,0,0,0-.25.22c-6,12.43-2.45,31.07,1.74,43.31,7.15,20.53,23.21,38.71,44.45,45.36a.75.75,0,0,0,.93-.71c0,1,1.68-1.83,2.33-2.8l.22-.22h0a5.09,5.09,0,0,0,1.43-2.52l.56-.68a.65.65,0,0,0-.16-1.12Z"/><path class="cls-5" d="M803.69,371.66l-.31-.65a.34.34,0,0,0,0-.19,17.37,17.37,0,0,0-1.68-4,14.28,14.28,0,0,1-.43-2,.93.93,0,0,0-1.37-.78,9.57,9.57,0,0,1-2.3,1,65.61,65.61,0,0,0-7.58,3.11c-13.86,5.87-28.18,10.72-42.53,15.19a.34.34,0,0,0-.22.5c-7.11,2.05-36.38,9.72-39.48,10.66q-25.21,7.74-50.79,13.92c-17.09,4.1-34.17,9.82-50.95,15.19-12,3.82-24.32,6.74-36.28,10.75-16.62,3.73-32.9,10.53-49.36,14.79-14.2,3.67-29.64,7.15-43.8,12.15-9.07,2.21-18,5.25-27.06,7.58-12.64,3.26-25.32,6.52-37.87,10.13-10.53,3.11-21.28,5.59-31.62,9.1-11,3.73-22.71,6-33.86,9.32-18.64,4.44-37.43,10-55.92,15.19-19.7,5.56-39.83,9.85-59.52,15.53-14.54,2.92-28.92,7.11-43.34,10.66-11.77,2.89-24.08,5.28-35.79,8.82-13.58,2.39-26.9,5.84-40.39,8.39-14.23,2.64-30.1,6.21-44.64,5.16a.53.53,0,0,0-.28,0c-.34,0-.65.22-.59.59A37.09,37.09,0,0,0,69,569.36a.71.71,0,0,0,.9.46l.12-.05a18.64,18.64,0,0,1,6.55-.71.62.62,0,0,0,.59-.47c.47-2.27,3.11-3.76,6.68-4.75,7.24-1,15-.75,21.9-2.92h0c9.1-1.4,18.14-3.11,27.18-4.88s17.12-3.85,25.69-5.62c7.8-1.62,15.53-6.46,23-3.29a2.45,2.45,0,0,1,.59,1.65.53.53,0,0,0,.53.53,59.68,59.68,0,0,0,14.85-3.11c4.32-1.18,8.61-2.17,12.86-3.36,21.22-3.45,42.59-10.78,63.28-16.22,11.87-3.11,23.61-7.46,35.69-9.72a204,204,0,0,0,31.25-8c16.34-2.86,32.9-9,48.49-13.48,16.28-4.69,33.71-8,49.71-13.76,7.67-1.62,15.16-4.6,22.83-6.21a282.69,282.69,0,0,0,30.91-9c24.67-7.89,50-12.89,74.31-22.06q20.81-6.21,41.66-12.27c20-5.72,40.66-10.44,60.33-17.21,10.53-1.52,21-5.56,31.07-8.45,11.87-3.39,23.61-7.11,35.45-10.59,12.64-3.73,25-7.86,37.53-12.08,9.32-3.11,22.62-5.19,30.35-11.46A.56.56,0,0,0,803.69,371.66Z"/><path class="cls-6" d="M842.74,406.2a42.4,42.4,0,0,1-14.63-7.67,68.87,68.87,0,0,1-16.59-15.78c-5.47-7.7-5.06-12-12-8.85a.4.4,0,0,0-.4,0c-6.21,2.21-12.64,4.69-18.86,7.42-12.18,3.91-24.26,8.14-36.5,12-12.77,4-25.82,7.52-38.74,11.15-27.49,7.7-56.2,13.92-83,24a263.56,263.56,0,0,0-33.46,9.82c-16.4,6-34.76,8.88-50.82,16-8.7,2.33-17.49,4.29-26.22,6.55-7.8,2.05-15.53,4.32-23.3,6.74a127.86,127.86,0,0,0-18.64,5.69c-16.19,4.75-32.93,7.77-48.8,13.45-8.82,3.11-27.21,7.27-27.4,7.33-16.81,4.22-32.49,9.32-48.8,13.36-10.66,2.67-21.16,5.87-31.69,8.88-8,1.37-16.06,3.73-23.7,5.78-12.43,3.32-24.85,6.59-37.28,10.07-22.65,6.21-45.88,12.89-69,17.37a.53.53,0,0,0-.87.25h0a.4.4,0,0,0,0,.22c-2.08,7.86-8.17,14.35-14.51,20.44a.31.31,0,0,0-.31,0c-1.15,1.09-2.27,2.27-3.42,3.45-2.64,2.49-5.16,4.94-7.33,7.42-1.06,1.24-2.24,2.42-3.36,3.63a45,45,0,0,1-4.44,3.63,91,91,0,0,0-7.42,7.39,138.8,138.8,0,0,0-12.43,11.43.59.59,0,0,0,.71.9h.22c6.87,1.9,16.74,0,23.8,0,12.8,0,25.72-1.27,38.52-1.77,13.61-.53,26.93-2,40.39-3.32,11.74-1.15,25.5-.25,37.28-2.92,23,0,46.38-6.68,69.12-9.6a345.54,345.54,0,0,0,34.76-5.78c11-2.55,22.71-2.83,33.55-5.87a97.61,97.61,0,0,0,17.52-3.11c6.21-1.49,13.79-1.24,19.57-3.67a.68.68,0,0,0,.43-.56c1.24-1.18,1.55-3.11,3.11-6.06,3.45-6.93,6.21-14.69,9.13-22,3.11-8.11,6.21-16.31,9.32-24.51,2.73-6.21,5.44-12.61,8.45-18.79a237,237,0,0,0,10.84-24.67l.53-.28A81.24,81.24,0,0,0,496,473c3.79-.93,7.52-2.42,11.28-3.7,6.74-1.74,13.54-3.48,20.32-4.88,11.93-2.49,23-7.42,34.64-10.75s22.65-6.21,33.83-9.79,24.6-9.1,36.07-7.3C646,446.34,625.5,476,620.38,487.1c-7.52,16.25-16.28,32-23.8,48.18a.78.78,0,0,0,1.06,1.06c9.69-5,20.47-6.77,30.72-10.07,11.09-3.54,21.75-7.89,33-11.21a397,397,0,0,0,72.29-28.77h0c17.3-6.21,35.26-17.83,50.39-29,13.3-6.46,24.08-15.69,34.95-25.47,4.29-3.85,8.23-8.11,12.67-11.8a48.93,48.93,0,0,0,11.25-12.8.68.68,0,0,0-.13-1Z"/><path class="cls-6" d="M75.11,570.08a9.6,9.6,0,0,1-2.24-.22,15.53,15.53,0,0,0-2.58,0,.62.62,0,0,0-.59.43,6.68,6.68,0,0,0,1.24,4.1,8.23,8.23,0,0,0,1.83,2.89.62.62,0,0,0,.78,0,3.32,3.32,0,0,0,1.06-2.05c.25-.56.43-1.18.59-1.55.43-1,1.37-2.42.81-3.45A.81.81,0,0,0,75.11,570.08Z"/><path class="cls-2" d="M179.31,545.75h-1.09a21.74,21.74,0,0,0-3.76.81c-15.53,3.11-31.07,7.11-46.6,10.62-8.85,2-18,3.11-27,4.6a125.29,125.29,0,0,0-16.62,2.55A13.33,13.33,0,0,0,78.87,566c-1.83,1.06-2.49,3.73-3.11,5.59a.43.43,0,0,0,.21.58h0c-.56,1.62-1,3.36-1.55,5.31-3.11,11.12-5.84,22.49-8.51,33.71C64.64,616.61,55.23,655,64.58,655c4.75,0,10.66-8.51,14.1-11.21,9.54-7.52,17.12-17.15,26.31-25.07a140.36,140.36,0,0,0,11.93-12.12,152.56,152.56,0,0,0,18.64-17.8A181.42,181.42,0,0,0,150.41,576a109.57,109.57,0,0,0,16.65-14.63c2.8-3.11,5.75-5.78,8.54-8.73a18.64,18.64,0,0,0,4.44-5.78.78.78,0,0,0-.75-1.12Z"/><path class="cls-3" d="M181.6,546.34a.78.78,0,0,0-1.27-.34c-3.29,3.29-5.75,7-8.82,10.53-5.44,6.21-12.24,11.09-18.24,16.74-7.83,7.36-16.06,14.32-23.77,21.75-10.16,8.61-18.79,19.17-28.49,28.24-11.28,10.59-23,20.63-34.45,31.07a4.35,4.35,0,0,0-.71.53.43.43,0,0,0,.19.71c8.67,1.18,19.2-9.6,25.29-14.82a299.06,299.06,0,0,0,23.77-21,99.13,99.13,0,0,0,10.84-10.44c4.57-4.32,9.32-8.51,13.73-13,9.32-9.32,20.5-17.4,28.89-27.59,6-4.91,13.58-12.18,13.17-20.38h0A2.73,2.73,0,0,0,181.6,546.34Z"/><path class="cls-6" d="M264.74,602c.25-.87-.65-1.21-1.27-.84,0,0,0-.16-.28-.22h-.4a3.51,3.51,0,0,0-1.9.31,16,16,0,0,1-4.19.59h-.59a11.71,11.71,0,0,0-3.36.62.71.71,0,0,0-.53.68v1.62A11.37,11.37,0,0,0,252,607a.75.75,0,0,0,1.09.62c2-.93,4.32,0,6.43,0,1.24,0,2.8,1,3.91.31a.75.75,0,0,0,.37-.62v-.87a1.89,1.89,0,0,0,.19-.71A15.53,15.53,0,0,1,264.74,602Z"/><path class="cls-4" d="M267.07,610.09c-7.83-4.6-19-3.32-24.57,3.6a.34.34,0,0,0-.62,0,17.58,17.58,0,0,0-1.52,18c4.91,8.2,14.07,9.32,22.8,7.74C277.07,636.68,279.87,615.21,267.07,610.09Zm-8.67,6.62a7.67,7.67,0,0,1,4,12.64c-3.73,4-9.13,1.68-11.68-2a6.21,6.21,0,0,1,.31-8.08,11.68,11.68,0,0,1,7.39-2.55Z"/><path class="cls-3" d="M261.66,617.67a9.32,9.32,0,0,0-8.48.47,6,6,0,0,0-2.8,4.85,6.65,6.65,0,0,0,0,2.7V626a6.21,6.21,0,0,0,5.09,4.13,6.93,6.93,0,0,0,1.06.19H257a6.9,6.9,0,0,0,1,0,6.59,6.59,0,0,0,6-4.54A7.15,7.15,0,0,0,261.66,617.67Zm-7,3.11a4.54,4.54,0,0,1,5.13.34,3.85,3.85,0,0,1,.22,4.82,4.91,4.91,0,0,1-5.9.25,4,4,0,0,1,.59-5.47Z"/><path class="cls-4" d="M259.67,621.43a3.45,3.45,0,0,0-.59-.78c-1.77-1.62-4.47,0-5.28,1.9a2.83,2.83,0,0,0-.19,2.83,3.63,3.63,0,0,0,5.62,1C260.6,625.19,261.35,622.55,259.67,621.43Z"/><path class="cls-2" d="M800.77,363.15a17.05,17.05,0,0,1-2.08-4.88c-.56-6.71-2.7-13.33-2.73-20.22a75,75,0,0,1,0-12,58.32,58.32,0,0,0,1.46-8.64.56.56,0,0,0-.4-.53,14.91,14.91,0,0,0-4.6,0c-6.87-.47-14.13,1.62-20.81,2.52a.9.9,0,0,0-.65.65C769,329,767,337.46,768.37,346.22a15.07,15.07,0,0,0,.84,5.47,14.17,14.17,0,0,0,.22,3.11A38.27,38.27,0,0,1,770,363c-5.78,7.7-17.33,10.59-25.75,14.07a151.7,151.7,0,0,1-19.88,7c-11.09,2.8-22.4,5.69-33.33,9.32-12.43,1.74-24.6,4.91-36.66,7.52-10.5,2.27-21,4.35-31.59,6.68-3.11.68-6.52,1.09-9.6,1.93-9.32.31-16.12-.87-22.77-8.33-3.11-3.6-6-7.61-10.16-12.12-2.05-2.89-4.22-5.81-6-8.95a112.34,112.34,0,0,1-7.3-12.43l-1.27-3.26c-2.58-7.83-6.68-22,0-28,.62-.56-5.47,1.21-6.21,1.55-15.13,6.49-30.75,11.12-46.26,16.59-7.89,2.76-15.84,5.28-23.58,8.42-4,1.62-8,3.76-12,5.62a.5.5,0,0,0-.4,0c-11.31,3.67-22.46,9.13-33.36,13.89-13.17,5.75-26.59,11.37-39.48,17.77-12.27,6.21-24.67,11.74-36.87,18-6.21,3.11-12.43,6.06-18.64,9.51a60.85,60.85,0,0,0-9.32,4.85c-9.54,4.5-18.08,11.09-27.62,15.75-11.53,5.62-23,11.87-34.17,18.14-24.85,14-51.88,31.22-80.77,35.1a.5.5,0,0,0-.31.19,63.13,63.13,0,0,1-17.71-2.45c-9.72-2.86-16.81-9.32-25.6-13.89-15.53-7.92-30-18.45-46-25.72-12.67-6.06-26.37-13.3-40.63-12.89-11.49.34-17.8,11.87-18.64,22.31v-.81c-3.11,15.16,1.62,32.28,4.19,47.19a191.05,191.05,0,0,0,7.7,28c1.55,4.6,3.63,9,5.41,13.48.93,2.33,1,2.73,1.15,2.64v.25a.65.65,0,0,0,.4.62l.19.28a.53.53,0,0,0,.59.25c5.53-.93,11.31-.31,16.93-1.21,7.42-1.18,14.91-2,22.37-3.11q18.64-3.08,37.28-7.15c13.36-2.89,26.56-6.46,39.83-9.79,11-2.73,23.33-4,33.92-8.57,12.27-.87,24.85-6.21,36.78-8.7,14.91-3.11,29.23-9,44.11-12.43,15.91-3.6,31.75-8.26,47.47-12.64,14.94-4.16,30.82-7.05,45.45-12.43,6.9-1.24,14-4.19,20.6-6,10.34-2.8,20.78-5.16,31.07-8.39,19.73-6.21,40.14-10.56,59.86-16.84,7.15-1.09,14.45-4.29,21.4-6,11.93-3.11,23.45-7.11,35.1-11,20.88-6.93,43-10.75,63.56-18.64,20.16-4.5,39.73-12,59.8-16.84s41.69-8.88,60.73-17.18a.65.65,0,0,0,.43,0c11-3.11,21.9-7.18,32.81-10.84,5.22-1.74,10.19-3.88,15.28-5.93a39.21,39.21,0,0,0,8.39-3.11A.9.9,0,0,0,800.77,363.15Z"/><path class="cls-2" d="M629.51,436.71a.71.71,0,0,0-.62-.37c-13.92,0-28.77,5.93-41.85,11.12-9.1,2.33-18.11,5.47-27.09,8.08-12.08,3.51-24.29,6.77-36.32,10.44s-24.29,5.28-36,9.32c-3.11,1.12-5.47,6.8-7,11.77a168.59,168.59,0,0,0-12.77,29.23c-4.54,12.43-10.19,24.26-14.79,36.63-3.91,10.5-8.61,20.75-12.43,31.28-2.73,7.64-6.59,14.6-9,22.24-9.57,20.13-15.53,42.37-22.71,63.4-5.81,17.27-14.1,34.36-18.48,52.25a301.93,301.93,0,0,0-9.94,34.36c-1.93,7.39-4.78,14.51-6.52,22a35.91,35.91,0,0,0-.28,13.11A14.41,14.41,0,0,0,377.13,802c4,4,11.15,2.49,15.87,1.4,19.29-4.57,31.56-16.93,43.49-32,6.62-8.29,13.11-17,19.14-25.85,5.44-8,12.18-15.13,17.09-23.45,8.54-7.49,15.07-20.6,21-29.79,7.15-11.18,14.2-22.52,20.78-34C526.71,637,543.21,616.27,552,593.09c8.11-15,18.64-29,27.06-43.71,7.8-13.58,17.92-28.24,23.58-43.49,5.22-9.85,10.22-19.85,15.1-29.79S634.64,448.64,629.51,436.71Z"/><path class="cls-3" d="M636.56,442a5.78,5.78,0,0,0-1-2.33,10.62,10.62,0,0,0-1-1.09l-.22-.28h0a5.16,5.16,0,0,0-3.11-1.43h-.4a.53.53,0,0,0-.28.65c3.42,8.36-4.13,20.44-7.46,28a245.73,245.73,0,0,1-11,22.21c-4.1,7.21-7.49,14.13-10.9,21.44C592.26,525,586,542.58,575,557.25a197.6,197.6,0,0,0-14.63,25.19,43.13,43.13,0,0,1-3.11,5,.4.4,0,0,0-.34.19c-10.75,16.62-19.82,34.17-30,51.2q-8.29,13.92-16.46,28c-3.39,5.78-7.7,11.18-10.72,17.18-7.46,11.15-14.66,22.52-22.52,33.43-4.38,6.21-8.73,12.21-13.23,18.17-3.11,4-6.4,8.61-9.32,13.14-7.7,10-14.69,20.38-24.36,29-6.93,6.21-11.68,14-19.29,19.51-8.61,6.21-18.11,7.74-28.36,7.52a.34.34,0,0,0,0,.65.43.43,0,0,0,0,.5c9.66,8.95,27.71,1.62,36.47-5.37a188,188,0,0,0,20.16-20.29,183.6,183.6,0,0,0,12.77-14.32C462.9,755.6,470.73,741,479.28,729c5.47-7.67,10.34-15.72,15.78-23.39,1.65-2.33,3.11-4.63,4.66-6.93,5.09-4,8.54-11.12,11.25-16.81,5.59-11.71,13.51-22.27,20-33.49,5.44-9.32,10.56-19,16.09-28.43,4.38-7.42,10.31-15.19,14-23.42,10.28-15.72,20.1-32.31,29-48.84,4.94-9.32,10.87-18.08,15.07-27.68s8.29-18.2,12.77-27.15a298.23,298.23,0,0,0,16.74-34.17C636.31,454,638.27,447.21,636.56,442Z"/><path class="cls-6" d="M769.93,322.26c.62-2.05.87-3.45-1.43-4-1.27-.31-2.05,2-2.45,3.82-5.44,10.28-3.11,26.59-1.06,37.9-1.65,6.87-21.75,10.66-27.62,12.83-6.77,2.49-14.79,3.85-21.4,7-18.89,4.54-37.47,10.66-56.45,15-8.76,2-17.8,2.42-26.56,4.22s-20.29,5.5-28.7,2.76A54.89,54.89,0,0,1,592,393.34c-3.7-4.13-7.49-8-10.94-12.43a81.83,81.83,0,0,1-13.23-28h-.43a16.19,16.19,0,0,0,0,14.79A93,93,0,0,0,579.87,388c5.22,5.84,9,13.79,15.87,17.83a28.7,28.7,0,0,0,21.75,2.52,33.08,33.08,0,0,0,7.11-1.74c13.61-2.86,27.24-5.41,40.94-8a303.92,303.92,0,0,0,33.15-7.89c6.52-2.05,13.27-3.42,19.7-5.62,14.66-4.41,27-7.15,38-13.14,4.91-2.67,9.51-4.44,11.9-7.77a.43.43,0,0,0,.6-.14l0,0a12.21,12.21,0,0,0,.84-2.39.43.43,0,0,0,.19-.34v-.65c.78-4.94-1-10.38-1.52-15.25-.81-6.77,1.06-13.3.84-19.91A11.67,11.67,0,0,1,769.93,322.26Z"/><path class="cls-4" d="M617.05,399.4C609,389.27,598.41,381.51,591,370.54a152.22,152.22,0,0,1-9.51-14c-2.7-5.22-3.29-10.78-5.34-16.15a.75.75,0,0,0-1.43,0c-3.63,9.63,7.05,21.75,11.62,29a173.62,173.62,0,0,0,28.39,32.06h0A1.54,1.54,0,1,0,617.05,399.4Z"/><path class="cls-4" d="M613.11,400.46a22.74,22.74,0,0,0-4.82-4.75c-.81-.9-1.52-1.74-2-2.3-3.95-5.22-8.57-10-12.8-15.07-8.79-10.44-17.15-21.75-18.83-35.63a.81.81,0,0,0-1.55-.22,10.41,10.41,0,0,0-.68,1.74v.19c-2.05,3.11-4.85,6.21-4.22,10a62.38,62.38,0,0,0,10.13,23.08c7,10.75,19.73,28,34.64,24.67h.19a.59.59,0,0,0,.43-.68A.81.81,0,0,0,613.11,400.46Z"/><g class="cls-7"><path class="cls-8" d="M948.93,405.15c-1-7.83-1.68-18.64-4.47-26.31a97.17,97.17,0,0,0-4.63-17.27c-1.71-4.72-3.57-9.32-5.34-14.07-2.39-6.21-7.3-12.43-9-19a.62.62,0,0,0-.78-.41l-.09,0a104.1,104.1,0,0,1-14.13,8,24.23,24.23,0,0,1-4.91,1,13.45,13.45,0,0,1-5.59-1.74c-.75-.62-1.55-1.18-2.27-1.83l-1.52-1.37a35,35,0,0,1-4.57-12,9.32,9.32,0,0,1,.53-4.07,118,118,0,0,1,12.77-3.95c4.66-1.18,9.32-3.91,14.07-4.35a.5.5,0,0,0,.43-.75c-1.24-2-2.36-4-3.42-6-1.06-2.61-2.24-5.16-3.48-7.67a285.8,285.8,0,0,0-15.1-33.15c-7-13-15.19-27.31-26.41-37.28-4.72-8-17.46-20.16-24.85-12.86-4.22,4.22-4.63,11.49-4.26,17.83a88.64,88.64,0,0,0,0,12.89,50.27,50.27,0,0,0,.65,9.88,69.4,69.4,0,0,0,1.86,15,187,187,0,0,0,9,38.49c3.11,9.63,7,19,10.28,28.61a124.26,124.26,0,0,0,7.11,18c5.41,15.53,14.63,29.54,21.93,44.24a135,135,0,0,0,12.71,21.31c4.57,6.21,7.92,13,13.58,18.11,4.57,6,10.38,11.56,16.84,13,10.22,2.33,11.8-.4,14.2-10.72S950.26,415.4,948.93,405.15Z"/></g><path class="cls-5" d="M73.74,550.16a2.89,2.89,0,0,0-4.29,1.06c-2.24,3.11,3.11,5.28,4.6,3.11a5.13,5.13,0,0,0,.43-.34,2.58,2.58,0,0,0-.75-3.82Z"/><path class="cls-5" d="M105,545.6a3.11,3.11,0,0,0,0,4.72,2.64,2.64,0,0,0,1.4.5h0c1.9.81,3.32-1.43,3.36-3C110.15,545.91,106.49,544.76,105,545.6Z"/><path class="cls-5" d="M142.93,538.79c-3.11-1.46-5.75,3.11-2.92,4.82a2.7,2.7,0,0,0,1.12.4,2.18,2.18,0,0,0,.59.16,2.76,2.76,0,0,0,1.21-5.37Z"/><path class="cls-5" d="M179.8,530.68c-3.11-1.46-5.75,3.11-2.92,4.82a2.64,2.64,0,0,0,1.12.4,1.93,1.93,0,0,0,.59.16,2.76,2.76,0,0,0,1.21-5.37Z"/><path class="cls-5" d="M186.85,553.61c-3.11-1.46-5.75,3.11-2.92,4.82a2.8,2.8,0,0,0,1.12.4,2.14,2.14,0,0,0,.59.16,2.76,2.76,0,0,0,1.21-5.37Z"/><path class="cls-5" d="M215.37,522c-3.11-1.46-5.75,3.11-2.92,4.82a2.67,2.67,0,0,0,1.12.4,2.14,2.14,0,0,0,.59.16,2.76,2.76,0,0,0,1.21-5.37Z"/><path class="cls-5" d="M222,544.94c-3.11-1.46-5.75,3.11-2.92,4.82a2.77,2.77,0,0,0,1.12.4,1.93,1.93,0,0,0,.59.16,2.76,2.76,0,0,0,1.21-5.37Z"/><path class="cls-5" d="M259.08,534.88c-3.11-1.46-5.75,3.11-2.92,4.82a2.67,2.67,0,0,0,1.12.4,1.83,1.83,0,0,0,.59.16,2.76,2.76,0,0,0,1.21-5.37Z"/><path class="cls-5" d="M253.06,512.7c-3.11-1.46-5.75,3.11-2.92,4.82a2.67,2.67,0,0,0,1.12.4,2.18,2.18,0,0,0,.59.16,2.76,2.76,0,0,0,1.21-5.37Z"/><path class="cls-5" d="M289.22,503.78c-3.11-1.46-5.75,3.11-2.92,4.82a2.77,2.77,0,0,0,1.12.4,1.93,1.93,0,0,0,.59.16,2.76,2.76,0,0,0,1.21-5.37Z"/><path class="cls-5" d="M294.84,525.12c-3.11-1.46-5.75,3.11-2.92,4.82a2.64,2.64,0,0,0,1.12.4,2,2,0,0,0,.59.16,2.76,2.76,0,0,0,1.21-5.37Z"/><path class="cls-5" d="M323,494.87c-3.11-1.46-5.75,3.11-2.92,4.82a2.77,2.77,0,0,0,1.12.4,2.05,2.05,0,0,0,.59.16,2.76,2.76,0,0,0,1.21-5.37Z"/><path class="cls-5" d="M330,515.62c-3.11-1.46-5.75,3.11-2.92,4.82a2.64,2.64,0,0,0,1.12.4,1.93,1.93,0,0,0,.59.16,2.76,2.76,0,0,0,1.21-5.37Z"/><path class="cls-5" d="M357.93,485.11c-3.11-1.46-5.75,3.11-2.92,4.82a2.7,2.7,0,0,0,1.12.4,2.05,2.05,0,0,0,.59.16,2.76,2.76,0,0,0,1.21-5.37Z"/><path class="cls-5" d="M365.54,506.3c-3.11-1.46-5.75,3.11-2.92,4.82a2.7,2.7,0,0,0,1.12.4,1.83,1.83,0,0,0,.59.16,2.76,2.76,0,0,0,1.21-5.37Z"/><path class="cls-5" d="M401.71,496.67c-3.11-1.46-5.75,3.11-2.92,4.82a2.67,2.67,0,0,0,1.12.37,1.89,1.89,0,0,0,.59.16,2.76,2.76,0,0,0,1.21-5.34Z"/><path class="cls-5" d="M392.85,475.42c-3.11-1.46-5.75,3.11-2.92,4.82a2.8,2.8,0,0,0,1.12.4,2.14,2.14,0,0,0,.59.16,2.76,2.76,0,0,0,1.21-5.37Z"/><path class="cls-5" d="M428.58,466.35c-3.11-1.46-5.75,3.11-2.92,4.82a2.67,2.67,0,0,0,1.12.37,1.93,1.93,0,0,0,.59.16,2.76,2.76,0,0,0,1.21-5.34Z"/><path class="cls-5" d="M435.82,487.1c-3.11-1.46-5.75,3.11-2.92,4.82a2.73,2.73,0,0,0,1.12.4,2,2,0,0,0,.59.16,2.76,2.76,0,0,0,1.21-5.37Z"/><path class="cls-5" d="M463.84,456.16c-3.11-1.46-5.75,3.11-2.92,4.82a2.8,2.8,0,0,0,1.12.4,2.08,2.08,0,0,0,.59.16,2.76,2.76,0,0,0,1.21-5.37Z"/><path class="cls-5" d="M498.91,446.53c-3.11-1.46-5.75,3.11-2.92,4.82a2.73,2.73,0,0,0,1.12.4,2.11,2.11,0,0,0,.59.16,2.76,2.76,0,0,0,1.21-5.37Z"/><path class="cls-5" d="M535,435.78c-3.11-1.46-5.75,3.11-2.92,4.82a2.76,2.76,0,0,0,1.12.4,1.89,1.89,0,0,0,.59.16,2.76,2.76,0,0,0,1.21-5.37Z"/><path class="cls-5" d="M569.61,425.4c-3.11-1.46-5.75,3.11-2.92,4.82a2.73,2.73,0,0,0,1.12.4,2,2,0,0,0,.59.16,2.76,2.76,0,0,0,1.21-5.37Z"/><path class="cls-5" d="M604.63,415c-3.11-1.46-5.75,3.11-2.92,4.82a2.67,2.67,0,0,0,1.12.37,2.05,2.05,0,0,0,.59.16,2.76,2.76,0,0,0,1.21-5.34Z"/><path class="cls-5" d="M648.15,427.39c-3.11-1.46-5.75,3.11-2.92,4.82a2.73,2.73,0,0,0,1.12.37,2.14,2.14,0,0,0,.59.16,2.76,2.76,0,0,0,1.21-5.34Z"/><path class="cls-5" d="M682.29,417.7c-3.11-1.46-5.75,3.11-2.92,4.82a2.7,2.7,0,0,0,1.12.4,2,2,0,0,0,.59.16,2.76,2.76,0,0,0,1.21-5.37Z"/><path class="cls-5" d="M716.62,407.88c-3.11-1.46-5.75,3.11-2.92,4.82a2.77,2.77,0,0,0,1.12.37,2,2,0,0,0,.59.16,2.76,2.76,0,0,0,1.21-5.34Z"/><path class="cls-5" d="M750.39,397.26c-3.11-1.46-5.75,3.11-2.92,4.82a2.73,2.73,0,0,0,1.12.37,2,2,0,0,0,.59.16,2.76,2.76,0,0,0,1.21-5.34Z"/><path class="cls-5" d="M782.38,387.07c-3.11-1.46-5.75,3.11-2.92,4.82a2.7,2.7,0,0,0,1.12.4,2,2,0,0,0,.59.16,2.76,2.76,0,0,0,1.21-5.37Z"/><path class="cls-5" d="M827.4,366.94c-3.11-1.46-5.75,3.11-2.92,4.82a2.73,2.73,0,0,0,1.12.4,2.05,2.05,0,0,0,.59.16,2.76,2.76,0,0,0,1.21-5.37Z"/><path class="cls-5" d="M820.16,351.62c-3.11-1.46-5.75,3.11-2.92,4.82a2.73,2.73,0,0,0,1.12.4,2,2,0,0,0,.59.16,2.76,2.76,0,0,0,1.21-5.37Z"/><path class="cls-5" d="M816.15,335.37c-3.11-1.46-5.75,3.11-2.92,4.82a2.77,2.77,0,0,0,1.12.4,2,2,0,0,0,.59.16,2.76,2.76,0,0,0,1.21-5.37Z"/><path class="cls-5" d="M815,319.16c-3.11-1.46-5.75,3.11-2.92,4.82a2.67,2.67,0,0,0,1.12.4,2.05,2.05,0,0,0,.59.16,2.76,2.76,0,0,0,1.21-5.37Z"/><path class="cls-5" d="M838.39,380.51c-3.11-1.46-5.75,3.11-2.92,4.82a2.83,2.83,0,0,0,1.12.37,2,2,0,0,0,.59.16,2.76,2.76,0,0,0,1.21-5.34Z"/><path class="cls-5" d="M851.85,390c-3.11-1.46-5.75,3.11-2.92,4.82a2.7,2.7,0,0,0,1.12.4,2,2,0,0,0,.59.16,2.76,2.76,0,0,0,1.21-5.37Z"/><path class="cls-5" d="M470.52,477.28c-3.11-1.46-5.75,3.11-2.92,4.82a2.73,2.73,0,0,0,1.12.4,2.11,2.11,0,0,0,.59.16,2.76,2.76,0,0,0,1.21-5.37Z"/><path class="cls-9" d="M768.5,318.26A28,28,0,0,0,763,332.89c0,7.49,2,22.37,2,27.09s-38.12,17.8-89.9,32.15-63,13.73-67.88,11.84-25.57-10.59-33.05-32.43S567.28,346,571,336.62s48.65-24.32,93.57-26.81S744.64,306.14,768.5,318.26Z"/><path class="cls-6" d="M715,308.56s-10,29.33,10,68.62l-6.87,2.49s-13.73-28.7-14.35-46.78,2.49-26.19,2.49-26.19Z"/><path class="cls-6" d="M630.78,313.54s-24.32,28,23.7,84.22l-5,1.24s-28.7-29.33-31.07-65.49a22.68,22.68,0,0,1,5-20Z"/><path class="cls-6" d="M574.31,332.67l-1.06-.25-8.08,2.8s-4.32,5.16-3.11,17.3,5.72,17.3,5.72,17.3l4.44-2.92a93.54,93.54,0,0,1-3.11-21.16A25.51,25.51,0,0,1,574.31,332.67Z"/></g></g></svg>