<svg xmlns="http://www.w3.org/2000/svg" width="1000" height="1000" viewBox="0 0 1000 1000"><defs><style>.cls-1{isolation:isolate;}.cls-2{fill:#cc8854;}.cls-3{fill:#e09e6c;}.cls-4{fill:#ebba50;}.cls-5{fill:#f59f3f;}.cls-6{fill:#f2821c;}.cls-7{fill:#019f9f;}.cls-8{fill:#38c7c2;}.cls-9{fill:#00b5b8;}.cls-10{fill:#68dec8;}.cls-11{fill:none;stroke:#7a664b;stroke-miterlimit:10;stroke-width:9px;}.cls-12{fill:#ffe549;}.cls-13{fill:#ffd800;}.cls-14{fill:#fb0;}.cls-15{fill:#65cd00;}.cls-16{fill:#6a7273;mix-blend-mode:multiply;}.cls-17{fill:#b4bcca;}.cls-18{fill:#99a4b7;}.cls-19{fill:#e6e6e6;}.cls-20{fill:#ffd464;}.cls-21{fill:#e6bf5a;}.cls-22{fill:#cc803d;}.cls-23{fill:#b37035;}.cls-24{fill:#f5f5f5;}.cls-25{fill:#fff1cc;}.cls-26{fill:#ccc;}</style></defs><title>ef</title><g class="cls-1"><g id="plano1"><polygon class="cls-2" points="155.94 392.92 363.05 283.45 501.11 257.69 889.42 354.28 967.09 489.5 818.23 602.19 539.94 650.48 447.18 669.8 423.45 714.88 449.34 785.71 408.35 834 205.56 821.12 123.59 695.56 196.93 669.8 222.82 631.17 147.32 560.34 61.02 531.36 56.71 441.21 155.94 392.92"/><polygon class="cls-3" points="114.96 457.31 378.15 322.08 511.9 293.11 870.01 386.48 857.07 412.23 885.11 450.87 908.84 434.77 926.1 470.19 921.78 502.38 809.6 579.65 425.61 644.04 388.93 721.31 423.45 769.61 406.19 801.8 248.71 795.37 164.57 705.22 250.87 634.38 205.56 566.77 145.16 521.7 78.28 499.16 82.6 463.75 114.96 457.31"/><polygon class="cls-4" points="147.32 463.75 151.63 495.94 216.35 550.68 281.07 640.82 227.14 676.24 196.93 714.88 255.18 766.39 386.77 779.27 384.62 743.85 367.36 711.66 416.98 621.51 798.82 550.68 887.27 489.5 835.49 402.57 516.21 328.52 425.61 354.28 378.15 347.84 147.32 463.75"/><path class="cls-5" d="M338.61,491.1a7.84,7.84,0,0,1-6.29-3.14l-23.55-31.4a7.85,7.85,0,1,1,12.56-9.42l23.55,31.4a7.85,7.85,0,0,1-6.27,12.56Z"/><path class="cls-5" d="M778.2,491.1a7.85,7.85,0,0,1-6.28-12.56l23.55-31.4A7.85,7.85,0,0,1,808,456.56L784.48,488A7.84,7.84,0,0,1,778.2,491.1Z"/><path class="cls-6" d="M495.61,177.1a7.83,7.83,0,0,1-5.55-2.3l-31.4-31.4a7.85,7.85,0,0,1,11.1-11.1l31.4,31.4a7.85,7.85,0,0,1-5.55,13.4Z"/><path class="cls-6" d="M495.61,177.1a7.85,7.85,0,0,1-5.55-13.4l31.4-31.4a7.85,7.85,0,0,1,11.1,11.1l-31.4,31.4A7.82,7.82,0,0,1,495.61,177.1Z"/><path class="cls-6" d="M621.21,177.1a7.85,7.85,0,0,1-5.55-13.4l31.4-31.4a7.85,7.85,0,1,1,11.1,11.1l-31.4,31.4A7.82,7.82,0,0,1,621.21,177.1Z"/><path class="cls-6" d="M621.21,177.1a7.82,7.82,0,0,1-5.55-2.3l-31.4-31.4a7.85,7.85,0,1,1,11.1-11.1l31.4,31.4a7.85,7.85,0,0,1-5.55,13.4Z"/><path class="cls-7" d="M659.63,479.74l-157-314a7.85,7.85,0,0,0-14,0l-157,314a7.85,7.85,0,0,0,7,11.36h314a7.85,7.85,0,0,0,7-11.36Z"/><path class="cls-8" d="M488.59,165.74l-157,314a7.93,7.93,0,0,0,7,11.36h70.65a7.85,7.85,0,0,0,7.08-4.46L495.61,318.4v-157A7.85,7.85,0,0,0,488.59,165.74Z"/><path class="cls-8" d="M785.23,479.74l-157-314a7.85,7.85,0,0,0-7-4.34H495.61a7.85,7.85,0,0,0-7,11.36l157,314a7.85,7.85,0,0,0,7,4.34H778.2a7.85,7.85,0,0,0,7-11.36Z"/><path class="cls-9" d="M659.63,479.74l-157-314a7.85,7.85,0,0,0-7-4.33V491.1h157A7.93,7.93,0,0,0,659.63,479.74Z"/><path class="cls-10" d="M667.46,322.74l-31.4-62.8a7.85,7.85,0,0,0-7-4.34h-31.4a7.92,7.92,0,0,0-7,11.36l31.4,62.8a7.85,7.85,0,0,0,7,4.34h31.4A7.92,7.92,0,0,0,667.46,322.74Z"/><path class="cls-10" d="M403.71,488.8a7.93,7.93,0,0,0,12.63-2.16L495.61,318.4,377.21,451.87a7.85,7.85,0,0,0,.32,10.76Z"/><line class="cls-11" x1="295.34" y1="517.02" x2="221.68" y2="225.33"/><polygon class="cls-12" points="224.63 245.95 304.18 222.38 324.81 293.09 245.25 313.72 224.63 245.95"/><polygon class="cls-13" points="283.56 250.37 354.27 231.22 351.32 269.52 376.37 294.57 299.76 316.66 283.56 250.37"/><polygon class="cls-14" points="318.91 269.52 298.29 297.51 324.81 291.62 318.91 269.52"/><path class="cls-15" d="M690.28,491.17l153.8.2L832.8,455.57a1.19,1.19,0,0,0-1.86-.6l-16.66,12.5a1.19,1.19,0,0,1-1.76-.38l-15.6-28.35a1.19,1.19,0,0,0-2.17.16l-9.48,25.74a1.19,1.19,0,0,1-2.08.3l-11.45-15.27a1.19,1.19,0,0,0-2.12.46l-5.42,24.93a1.19,1.19,0,0,1-2.18.38l-19.54-31.1a1.19,1.19,0,0,0-2,0l-18.8,27.48a1.19,1.19,0,0,1-1.89.11L702.58,452a1.19,1.19,0,0,0-2.09.9Z"/><path class="cls-15" d="M497.29,556l153.8.2-11.28-35.79a1.19,1.19,0,0,0-1.86-.6L621.3,532.3a1.19,1.19,0,0,1-1.76-.38l-15.6-28.35a1.19,1.19,0,0,0-2.17.16l-9.48,25.74a1.19,1.19,0,0,1-2.08.3L578.76,514.5a1.19,1.19,0,0,0-2.12.46l-5.42,24.93a1.19,1.19,0,0,1-2.18.38l-19.54-31.1a1.19,1.19,0,0,0-2,0l-18.8,27.48a1.19,1.19,0,0,1-1.89.11l-17.21-19.86a1.19,1.19,0,0,0-2.09.9Z"/><path class="cls-15" d="M199.71,542.73l153.8.2-11.28-35.79a1.19,1.19,0,0,0-1.86-.6L323.71,519a1.19,1.19,0,0,1-1.76-.38l-15.6-28.35a1.19,1.19,0,0,0-2.17.16l-9.48,25.74a1.19,1.19,0,0,1-2.08.3l-11.45-15.27a1.19,1.19,0,0,0-2.12.46l-5.42,24.93a1.19,1.19,0,0,1-2.18.38l-19.54-31.1a1.19,1.19,0,0,0-2,0l-18.8,27.48a1.19,1.19,0,0,1-1.89.11L212,503.61a1.19,1.19,0,0,0-2.09.9Z"/><path class="cls-15" d="M218,752l153.8.2-11.28-35.79a1.19,1.19,0,0,0-1.86-.6L342,728.26a1.19,1.19,0,0,1-1.76-.38l-15.6-28.35a1.19,1.19,0,0,0-2.17.16L313,725.44a1.19,1.19,0,0,1-2.08.3l-11.45-15.27a1.19,1.19,0,0,0-2.12.46l-5.42,24.93a1.19,1.19,0,0,1-2.18.38l-19.54-31.1a1.19,1.19,0,0,0-2,0l-18.8,27.48a1.19,1.19,0,0,1-1.89.11l-17.21-19.86a1.19,1.19,0,0,0-2.09.9Z"/></g><g id="bloqueados"><path class="cls-16" d="M889.42,354.28,698.79,306.86l-68-136.06,27.4-27.4a7.85,7.85,0,0,0-11.1-11.1l-25.85,25.85L595.36,132.3a7.85,7.85,0,0,0-11.1,11.1l18,18h-87.7l18-18a7.85,7.85,0,0,0-11.1-11.1l-25.85,25.85L469.76,132.3a7.85,7.85,0,0,0-11.1,11.1l27.4,27.4-49.47,98.93L364.9,283.1l-13.58-13.58,2.95-38.3-44,11.93-6.06-20.76L231.05,244l-5-19.82-8.73,2.2,29.86,118.26-91.24,48.23L56.71,441.21,61,531.36l86.29,29,75.51,70.83L196.93,669.8l-73.35,25.76,82,125.56L408.35,834l41-48.29-25.89-70.83,23.73-45.07,92.76-19.32,278.29-48.29L967.09,489.5Zm-641-41.39,47.4-12.29,3.93,16.06,1-.28-45.37,24Z"/><path class="cls-17" d="M652.8,371.8A152.8,152.8,0,1,1,500,219,152.8,152.8,0,0,1,652.8,371.8Zm0,0"/><path class="cls-18" d="M623.31,462a11.85,11.85,0,0,0-1.73-3.28,13.37,13.37,0,0,0-2.42-6.43,15.13,15.13,0,0,0-2.79-7,15.66,15.66,0,0,0-2.08-4.63,13.05,13.05,0,0,0-2.28-5.5,14.59,14.59,0,0,0-2.46-6.51,12.53,12.53,0,0,0-2.3-5.53,14,14,0,0,0-2.44-6.47,11.93,11.93,0,0,0-2.32-5.59,13.36,13.36,0,0,0-2.41-6.42,14.88,14.88,0,0,0-2.46-6.49,13,13,0,0,0-2.56-5.93,13,13,0,0,0-2.14-4.68,14.49,14.49,0,0,0-2.46-6.5,12.41,12.41,0,0,0-2.31-5.56,13.85,13.85,0,0,0-2.43-6.45,12,12,0,0,0-2.95-6.37,14.41,14.41,0,0,0-11.07-9.75l-.27-.59a51.66,51.66,0,0,0-2.39-6.11,51.72,51.72,0,0,0-2.39-6.12,52.14,52.14,0,0,0-2.39-6.11,52.37,52.37,0,0,0-4.05-9.42c-.23-.54-.48-1.06-.72-1.59a51.66,51.66,0,0,0-2.39-6.11,51.77,51.77,0,0,0-2.39-6.12,52.19,52.19,0,0,0-2.39-6.11,52.38,52.38,0,0,0-7.22-14.44,52.51,52.51,0,0,0-97.75,26.68V352.7H430.65A14.37,14.37,0,0,0,416.32,367v88.4A13.11,13.11,0,0,0,418.8,463a14.78,14.78,0,0,0,2.45,6.47,12.83,12.83,0,0,0,2.31,5.6,14.15,14.15,0,0,0,2.42,6.43,12.3,12.3,0,0,0,2.57,6,12.49,12.49,0,0,0,2.16,4.72,13.76,13.76,0,0,0,2.42,6.43,11.86,11.86,0,0,0,2.35,5.64,13.13,13.13,0,0,0,2.4,6.4c0,.29.1.58.16.87A152.75,152.75,0,0,0,623.31,462Zm0,0"/><path class="cls-19" d="M583.45,453a14.37,14.37,0,0,1-14.32,14.32H430.65A14.37,14.37,0,0,1,416.32,453V367a14.37,14.37,0,0,1,14.33-14.32H569.12A14.37,14.37,0,0,1,583.45,367Zm0,0"/><path class="cls-20" d="M583.45,453a14.37,14.37,0,0,1-14.32,14.32H430.65A14.37,14.37,0,0,1,416.32,453V367a14.37,14.37,0,0,1,14.33-14.32H569.12A14.37,14.37,0,0,1,583.45,367Zm0,0"/><path class="cls-21" d="M569.12,352.7h-9.55A14.37,14.37,0,0,1,573.9,367v86a14.37,14.37,0,0,1-14.32,14.32h9.55A14.37,14.37,0,0,0,583.45,453V367a14.37,14.37,0,0,0-14.32-14.32Zm0,0"/><path class="cls-19" d="M461.69,352.7V316.89a38.2,38.2,0,0,1,76.4,0V352.7h14.33V316.89a52.53,52.53,0,0,0-105.05,0V352.7Zm0,0"/><path class="cls-22" d="M519,398.06a19.1,19.1,0,1,0-31,14.9V429.1a11.94,11.94,0,0,0,23.88,0V413a19.05,19.05,0,0,0,7.16-14.9Zm0,0"/><path class="cls-23" d="M492.73,429.1V413a19.08,19.08,0,0,1,9.55-33.83,19.5,19.5,0,0,0-2.39-.16,19.09,19.09,0,0,0-11.94,34V429.1A11.94,11.94,0,0,0,499.89,441a11.69,11.69,0,0,0,2.39-.25,11.93,11.93,0,0,1-9.55-11.69Zm0,0"/><path class="cls-24" d="M499.89,264.36a52.58,52.58,0,0,0-52.52,52.52v7.16a7.16,7.16,0,0,0,7.16-7.16,45.36,45.36,0,1,1,90.73,0,7.16,7.16,0,0,0,7.16,7.16v-7.16a52.58,52.58,0,0,0-52.53-52.52Zm0,0"/><path class="cls-20" d="M507,398.06a7.16,7.16,0,1,1-7.16-7.16,7.16,7.16,0,0,1,7.16,7.16Zm0,0"/><path class="cls-21" d="M499.89,390.9a7.3,7.3,0,0,0-1.19.12,7.14,7.14,0,0,1,0,14.09,7.65,7.65,0,0,0,1.19.12,7.16,7.16,0,1,0,0-14.33Zm0,0"/><rect class="cls-25" x="416.32" y="364.64" width="167.13" height="9.55"/><rect class="cls-25" x="416.32" y="445.81" width="167.13" height="9.55"/><rect class="cls-26" x="447.36" y="350.31" width="14.32" height="2.39"/><rect class="cls-26" x="538.09" y="350.31" width="14.32" height="2.39"/></g></g></svg>