<svg xmlns="http://www.w3.org/2000/svg" width="1000" height="1000" viewBox="0 0 1000 1000"><defs><style>.cls-1,.cls-11{fill:none;}.cls-1{stroke:#ffce23;stroke-linejoin:round;stroke-width:29px;}.cls-2{fill:#cc8854;}.cls-3{fill:#e09e6c;}.cls-4{fill:#ebba50;}.cls-5{fill:#f59f3f;}.cls-6{fill:#f2821c;}.cls-7{fill:#019f9f;}.cls-8{fill:#38c7c2;}.cls-9{fill:#00b5b8;}.cls-10{fill:#68dec8;}.cls-11{stroke:#7a664b;stroke-miterlimit:10;stroke-width:9px;}.cls-12{fill:#ffe549;}.cls-13{fill:#ffd800;}.cls-14{fill:#fb0;}.cls-15{fill:#65cd00;}</style></defs><title>ef_current</title><g id="outline"><path class="cls-1" d="M889.42,354.28,698.79,306.86l-68-136.06,27.4-27.4a7.85,7.85,0,0,0-11.1-11.1l-25.85,25.85L595.36,132.3a7.85,7.85,0,0,0-11.1,11.1l18,18h-87.7l18-18a7.85,7.85,0,0,0-11.1-11.1l-25.85,25.85L469.76,132.3a7.85,7.85,0,0,0-11.1,11.1l27.4,27.4-49.47,98.93L364.9,283.1l-13.58-13.58,2.95-38.3-44,11.93-6.06-20.76L231.05,244l-5-19.82-8.73,2.2,29.86,118.26-91.24,48.23L56.71,441.21,61,531.36l86.29,29,75.51,70.83L196.93,669.8l-73.35,25.76,82,125.56L408.35,834l41-48.29-25.89-70.83,23.73-45.07,92.76-19.32,278.29-48.29L967.09,489.5Zm-641-41.39,47.4-12.29,3.93,16.06,1-.28-45.37,24Z"/></g><g id="plano1"><polygon class="cls-2" points="155.94 392.92 363.05 283.45 501.11 257.69 889.42 354.28 967.09 489.5 818.23 602.19 539.94 650.48 447.18 669.8 423.45 714.88 449.34 785.71 408.35 834 205.56 821.12 123.59 695.56 196.93 669.8 222.82 631.17 147.32 560.34 61.02 531.36 56.71 441.21 155.94 392.92"/><polygon class="cls-3" points="114.96 457.31 378.15 322.08 511.9 293.11 870.01 386.48 857.07 412.23 885.11 450.87 908.84 434.77 926.1 470.19 921.78 502.38 809.6 579.65 425.61 644.04 388.93 721.31 423.45 769.61 406.19 801.8 248.71 795.37 164.57 705.22 250.87 634.38 205.56 566.77 145.16 521.7 78.28 499.16 82.6 463.75 114.96 457.31"/><polygon class="cls-4" points="147.32 463.75 151.63 495.94 216.35 550.68 281.07 640.82 227.14 676.24 196.93 714.88 255.18 766.39 386.77 779.27 384.62 743.85 367.36 711.66 416.98 621.51 798.82 550.68 887.27 489.5 835.49 402.57 516.21 328.52 425.61 354.28 378.15 347.84 147.32 463.75"/><path class="cls-5" d="M338.61,491.1a7.84,7.84,0,0,1-6.29-3.14l-23.55-31.4a7.85,7.85,0,1,1,12.56-9.42l23.55,31.4a7.85,7.85,0,0,1-6.27,12.56Z"/><path class="cls-5" d="M778.2,491.1a7.85,7.85,0,0,1-6.28-12.56l23.55-31.4A7.85,7.85,0,0,1,808,456.56L784.48,488A7.84,7.84,0,0,1,778.2,491.1Z"/><path class="cls-6" d="M495.61,177.1a7.83,7.83,0,0,1-5.55-2.3l-31.4-31.4a7.85,7.85,0,0,1,11.1-11.1l31.4,31.4a7.85,7.85,0,0,1-5.55,13.4Z"/><path class="cls-6" d="M495.61,177.1a7.85,7.85,0,0,1-5.55-13.4l31.4-31.4a7.85,7.85,0,0,1,11.1,11.1l-31.4,31.4A7.82,7.82,0,0,1,495.61,177.1Z"/><path class="cls-6" d="M621.21,177.1a7.85,7.85,0,0,1-5.55-13.4l31.4-31.4a7.85,7.85,0,1,1,11.1,11.1l-31.4,31.4A7.82,7.82,0,0,1,621.21,177.1Z"/><path class="cls-6" d="M621.21,177.1a7.82,7.82,0,0,1-5.55-2.3l-31.4-31.4a7.85,7.85,0,1,1,11.1-11.1l31.4,31.4a7.85,7.85,0,0,1-5.55,13.4Z"/><path class="cls-7" d="M659.63,479.74l-157-314a7.85,7.85,0,0,0-14,0l-157,314a7.85,7.85,0,0,0,7,11.36h314a7.85,7.85,0,0,0,7-11.36Z"/><path class="cls-8" d="M488.59,165.74l-157,314a7.93,7.93,0,0,0,7,11.36h70.65a7.85,7.85,0,0,0,7.08-4.46L495.61,318.4v-157A7.85,7.85,0,0,0,488.59,165.74Z"/><path class="cls-8" d="M785.23,479.74l-157-314a7.85,7.85,0,0,0-7-4.34H495.61a7.85,7.85,0,0,0-7,11.36l157,314a7.85,7.85,0,0,0,7,4.34H778.2a7.85,7.85,0,0,0,7-11.36Z"/><path class="cls-9" d="M659.63,479.74l-157-314a7.85,7.85,0,0,0-7-4.33V491.1h157A7.93,7.93,0,0,0,659.63,479.74Z"/><path class="cls-10" d="M667.46,322.74l-31.4-62.8a7.85,7.85,0,0,0-7-4.34h-31.4a7.92,7.92,0,0,0-7,11.36l31.4,62.8a7.85,7.85,0,0,0,7,4.34h31.4A7.92,7.92,0,0,0,667.46,322.74Z"/><path class="cls-10" d="M403.71,488.8a7.93,7.93,0,0,0,12.63-2.16L495.61,318.4,377.21,451.87a7.85,7.85,0,0,0,.32,10.76Z"/><line class="cls-11" x1="295.34" y1="517.02" x2="221.68" y2="225.33"/><polygon class="cls-12" points="224.63 245.95 304.18 222.38 324.81 293.09 245.25 313.72 224.63 245.95"/><polygon class="cls-13" points="283.56 250.37 354.27 231.22 351.32 269.52 376.37 294.57 299.76 316.66 283.56 250.37"/><polygon class="cls-14" points="318.91 269.52 298.29 297.51 324.81 291.62 318.91 269.52"/><path class="cls-15" d="M690.28,491.17l153.8.2L832.8,455.57a1.19,1.19,0,0,0-1.86-.6l-16.66,12.5a1.19,1.19,0,0,1-1.76-.38l-15.6-28.35a1.19,1.19,0,0,0-2.17.16l-9.48,25.74a1.19,1.19,0,0,1-2.08.3l-11.45-15.27a1.19,1.19,0,0,0-2.12.46l-5.42,24.93a1.19,1.19,0,0,1-2.18.38l-19.54-31.1a1.19,1.19,0,0,0-2,0l-18.8,27.48a1.19,1.19,0,0,1-1.89.11L702.58,452a1.19,1.19,0,0,0-2.09.9Z"/><path class="cls-15" d="M497.29,556l153.8.2-11.28-35.79a1.19,1.19,0,0,0-1.86-.6L621.3,532.3a1.19,1.19,0,0,1-1.76-.38l-15.6-28.35a1.19,1.19,0,0,0-2.17.16l-9.48,25.74a1.19,1.19,0,0,1-2.08.3L578.76,514.5a1.19,1.19,0,0,0-2.12.46l-5.42,24.93a1.19,1.19,0,0,1-2.18.38l-19.54-31.1a1.19,1.19,0,0,0-2,0l-18.8,27.48a1.19,1.19,0,0,1-1.89.11l-17.21-19.86a1.19,1.19,0,0,0-2.09.9Z"/><path class="cls-15" d="M199.71,542.73l153.8.2-11.28-35.79a1.19,1.19,0,0,0-1.86-.6L323.71,519a1.19,1.19,0,0,1-1.76-.38l-15.6-28.35a1.19,1.19,0,0,0-2.17.16l-9.48,25.74a1.19,1.19,0,0,1-2.08.3l-11.45-15.27a1.19,1.19,0,0,0-2.12.46l-5.42,24.93a1.19,1.19,0,0,1-2.18.38l-19.54-31.1a1.19,1.19,0,0,0-2,0l-18.8,27.48a1.19,1.19,0,0,1-1.89.11L212,503.61a1.19,1.19,0,0,0-2.09.9Z"/><path class="cls-15" d="M218,752l153.8.2-11.28-35.79a1.19,1.19,0,0,0-1.86-.6L342,728.26a1.19,1.19,0,0,1-1.76-.38l-15.6-28.35a1.19,1.19,0,0,0-2.17.16L313,725.44a1.19,1.19,0,0,1-2.08.3l-11.45-15.27a1.19,1.19,0,0,0-2.12.46l-5.42,24.93a1.19,1.19,0,0,1-2.18.38l-19.54-31.1a1.19,1.19,0,0,0-2,0l-18.8,27.48a1.19,1.19,0,0,1-1.89.11l-17.21-19.86a1.19,1.19,0,0,0-2.09.9Z"/></g></svg>