<svg xmlns="http://www.w3.org/2000/svg" width="1000" height="1000" viewBox="0 0 1000 1000"><defs><style>.cls-1{fill:#569400;}.cls-2{fill:#66b000;}.cls-3{fill:#80cf13;}.cls-4{fill:#f0c260;}.cls-5{fill:#f5d974;}.cls-6{fill:#fae594;}.cls-7{fill:#ffeca8;}</style></defs><title>fnd_s1</title><g id="plano1"><polygon class="cls-1" points="278.56 17.99 164.69 35.3 54.19 60.78 24.38 179.53 36.57 331.27 87.61 362.31 134.17 404.77 131.26 546.88 56.5 583.81 21.09 663.31 39.04 784.18 65.23 909.96 162.23 972.58 303.85 990 401.82 962.78 451.83 875.73 490.09 709.04 488.15 467.29 381.51 397.53 399.05 343.32 438.21 302.15 475.36 287.09 446.25 129.44 439.22 45.1 278.56 17.99"/><polygon class="cls-2" points="55.65 72.21 34.56 174.63 44.6 314.2 103.62 345.97 148.72 398.24 138.54 546.88 60.86 575.65 28.37 666.58 50.68 774.38 85.6 893.63 172.42 958.42 384.36 951.89 448.92 869.2 475.54 723.75 485.24 470.56 375.69 399.17 394.03 330.26 464.32 283.07 435.2 139.49 424.67 41.83 278.56 17.99 161.78 40.2 55.65 72.21"/><polygon class="cls-3" points="67.29 90.18 36.02 168.09 53.64 295.12 107.98 328 163.27 380.27 167.63 432.54 144.36 543.61 56.5 583.81 37.1 669.84 63.77 761.32 94.33 869.12 163.27 914.39 223.34 936.64 381.45 921.94 440.19 869.2 475.54 702.51 485.24 470.56 375.33 408.58 378.97 323.24 458.29 268.01 418.13 138.48 415.94 36.93 278.56 17.99 153.05 45.1 67.29 90.18"/><path class="cls-4" d="M153.5,170S137,243,147.68,270.19s76.63,103.45,76.63,103.45l39.77,47.91L269.9,476s-27.16,112.16-47.53,156.81S115,741.9,118.91,781.11s15.63,50.43,60.25,73.3c13.57,7,89.37,21.09,89.37,21.09s65.28-3.6,62.25-2S388,855.41,388,855.41l56.23-2,12-62.25-61.25-2-49.2,19.08-53.22,2-83.34-19.08-10-19.08,79.39-80.45,26.19-50.09s33.95-91.47,32-154.63-14.55-110-14.55-110l-64-59.89L211.7,248.41,206.85,219l2.91-47.91Z"/><path class="cls-5" d="M509.15,750.89c-15.81,7.18,8.17,27.77,16.33,16.33S527.12,742.73,509.15,750.89Z"/><path class="cls-5" d="M519.59,786.38c-9.55-5.54-23.61-23.17-27.51-.8s-20.17,47.86-1.27,58,67.89-5.28,54.14-19.5S528.14,791.33,519.59,786.38Z"/><path class="cls-6" d="M510,788.93c-10.48-4.25-15.41-8.72-19.33,7s-11.63,25.16,6,31.31,34.09-.24,33-12.78S517,791.77,510,788.93Z"/><path class="cls-5" d="M549,861.05c27.69-90.25-6.26-125.58,53.72-157.92s146-132.37,267.42-116.64S963.9,661.43,967,732s-18,117.07-76.31,111.33-165.08-65.19-166.81,2.53-39,63.42-71.41,88.76S521.27,951.3,549,861.05Z"/><path class="cls-6" d="M559.41,865c0,21.16-11.41,43.72,27.43,60.72s60-26.7,79.41-32.31,60-46.45,35.77-80.36-38.75-66.38-59.81-65-58.29-8.57-63.23,38S559.44,848.11,559.41,865Z"/><path class="cls-6" d="M660.82,712.72c12.85,25.3,68,32.07,90.61,46.75s53.38,36,108.44,40.12,89.11-23.81,87.59-77.06,1.81-111.82-66.18-123.92-136-8.22-160.38,27.68S639.84,671.41,660.82,712.72Z"/><path class="cls-7" d="M574.11,843.19c2.42,32.38,4.77,52.21,35.54,50.85s37.33-46.49,53.56-64.81,17.92-63.46-17.69-73.4-61.54-2.93-60,18.24S572.53,822,574.11,843.19Z"/><path class="cls-7" d="M722.21,642.84c-10.82,8.39-35.66,18.85-32.46,40.28s48.53,31.6,82.52,41.75,59.87,31.62,102,15.31,66.45-31.4,50.31-61.69,13.06-60.49-29-77-79.32-20.31-108.5-5.23S740,629,722.21,642.84Z"/><path class="cls-5" d="M719.62,483.09c16.46-2.53,34.3,0,34.3,11.43s-19.6,22.87-29.4,18S698.39,486.36,719.62,483.09Z"/><path class="cls-6" d="M731.05,488c14.61-7.3,11.43,6.53,8.17,14.7S711.45,497.79,731.05,488Z"/><path class="cls-5" d="M678.41,486c-31-3.45-39.2,4.9-39.2,18s6.53,49,34.3,34.3S707.81,489.25,678.41,486Z"/><path class="cls-6" d="M667,492.52c-9.55,2.2-22.87,3.27-19.6,16.33s18,24.5,31,6.53S688.21,487.62,667,492.52Z"/><path class="cls-5" d="M961.74,305.91c-8.15,46-43,58.43-118.07,59.44-79.89,1.08-84.44,76.42-148.15,77.5s-82.91-34.77-90-67C601.17,356,572.75,344.17,563,330.26c-.93-2.25-4.09-19.25-4.9-21.09-12.14-27.42-14.09-146.55,8.66-185.26S563.59,58.5,728.92,31.09,942.79,84.31,970.1,113.34C994.16,138.91,964.05,229.55,961.74,305.91Z"/><path class="cls-6" d="M650.52,307.52s-62.19-58.06-71.29-106.44-6.07-64.51,36.4-103.21,128.93-79,174.43-64.51S890.18,64,914.45,97.87s39.44,133.85-4.55,161.27-94,9.68-141.06,32.25S691.47,344.61,650.52,307.52Z"/><path class="cls-7" d="M654.56,77.24s55.07-43.32,82.64-49.86c52.59-12.46,55.67-5.47,98.87,10.56s112.07,19,117.7,79.54-32.51,95.09-83.22,88-163.39,92.25-197.21,41c-18.78-28.49-99.54-35.61-62-85.47C642.64,119.42,622.63,102.17,654.56,77.24Z"/><polygon class="cls-1" points="520.38 680.29 517.38 711.65 543.49 757.19 560.4 774.62 595.94 762.03 595.79 726.21 578.73 672.96 539.93 665.41 520.38 680.29"/><polygon class="cls-2" points="522.81 680.38 517.38 711.65 543.75 747.41 562.15 764.16 585.93 753.34 591.33 725.76 574.63 675.93 540.74 669.82 522.81 680.38"/><polygon class="cls-3" points="527.14 682 517.51 705.52 538.79 736.51 560.7 750.47 585.83 729.46 574.63 675.93 540.74 669.82 527.14 682"/><path class="cls-5" d="M790,397.93c22.82-17.11,40.83-22.87,65.33-13.07s57.16,29.4,53.9,50.63-42.46,35.93-60.43,26.13-53.9,0-60.43-13.07S770.35,412.63,790,397.93Z"/><path class="cls-6" d="M822.62,384.87c21.51-11.83,44.1,11.43,55.53,18s16.33,24.5,8.17,32.67-14.7,16.33-35.93,4.9-40.83,9.8-49,0S790,402.83,822.62,384.87Z"/><path class="cls-7" d="M749.37,437.74c-15.81,7.18,8.17,27.77,16.33,16.33S767.34,429.57,749.37,437.74Z"/></g></svg>