<svg xmlns="http://www.w3.org/2000/svg" width="1000" height="1000" viewBox="0 0 1000 1000"><defs><style>.cls-1{fill:#fbdc52;}.cls-2{fill:#fbd321;}.cls-3{fill:#c8fac9;}.cls-4{fill:#50e6d3;}.cls-5{fill:#16d5bd;}.cls-6{fill:#d1a850;}</style></defs><title>fnd_s2</title><g id="plano1"><polygon class="cls-1" points="85.69 749.18 127.11 786.13 112.42 799.39 78.16 833.77 72.32 864.45 175.16 900.63 256.75 906.84 246.39 929.84 290.31 954.34 328.82 963.61 467.35 976.52 567.71 975.81 590.07 986.99 765.94 954.46 788.3 958.52 777.12 974.79 894.03 976.82 957.06 928.03 940.79 907.7 978.4 872.12 979.42 854.84 961.12 841.62 935.71 834.5 930.63 823.32 956.04 806.04 978.4 778.59 949.94 743.01 980.44 715.57 940.79 638.31 913.34 623.06 912.33 592.56 896.87 582.99 592.08 579.36 553.51 609.85 437.42 605.76 261.97 555.85 200.96 575.38 191.06 593.22 99.28 607.93 82.85 640.78 21.06 666.67 7.58 677.95 24.45 722.09 85.69 749.18"/><polygon class="cls-2" points="192.29 789.85 112.42 799.39 110.17 848.06 270.99 898.75 278.46 931.65 424.73 970.65 423.15 972.4 467.35 976.52 567.71 975.81 590.07 986.99 765.94 954.46 788.3 958.52 777.12 974.79 894.03 976.82 957.06 928.03 940.79 907.7 978.4 872.12 979.42 854.84 961.12 841.62 935.71 834.5 930.63 823.32 956.04 806.04 978.4 778.59 949.94 743.01 980.44 715.57 961.74 679.12 913.9 655.94 610.42 614.16 564.47 629.39 465.07 624.71 277.95 574.95 223.68 588.84 222.49 602.25 110.2 625.54 94.06 666.74 42.09 677.33 35.03 709.97 170.19 757.73 192.29 789.85"/><path class="cls-3" d="M179.08,798l-37.85,16.39-4.24,36,153.69,49,7,26.62,169.67,50.44,100.36-.71L590.07,987l175.87-32.53,22.36,4.07-11.18,16.27,116.91,2,63-48.8L940.79,907.7l37.61-35.58,1-17.28-18.3-13.22-25.41-7.12-5.08-11.18L956,806l22.36-27.45L949.94,743l7.91-7.12-167.49.92S619.88,687.64,620.18,688l-70.65-45-116-5.12L294.93,582.7l-52.66,19.23L140.48,624.07l-15.7,24.6L68.36,663.41,57.12,719.6l87.48,45.21Z"/><polygon class="cls-4" points="214.73 806.4 145.93 820.04 144.58 846.96 316.18 893.41 324.2 920.12 500.31 974.25 498.29 976.3 567.71 975.81 590.07 986.99 765.94 954.46 788.3 958.52 777.12 974.79 894.03 976.82 957.06 928.03 940.79 907.7 978.4 872.12 979.42 854.84 961.12 841.62 935.71 834.5 930.63 823.32 956.04 806.04 978.4 778.59 953.55 747.52 790.06 749.19 599.81 696.23 537.67 647.66 430.68 646.47 299.08 594.5 240.71 619.47 136.86 641.43 121.25 665 88.26 673.5 80.19 717.5 168.7 762.8 214.73 806.4"/><polygon class="cls-5" points="226.95 821.01 158.61 829.49 158.18 846.09 327.04 888.14 335.82 918.03 519.67 972.85 516.38 976.17 567.71 975.81 590.07 986.99 765.94 954.46 788.3 958.52 777.12 974.79 894.03 976.82 957.06 928.03 940.79 907.7 978.4 872.12 979.42 854.84 961.12 841.62 935.71 834.5 930.63 823.32 956.04 806.04 978.4 778.59 963.13 759.5 783.14 763.36 590.56 707.77 540.9 657.88 437.37 652.83 305.39 605.46 252.82 623.66 145.59 648.44 132.23 670.13 100.27 678.73 96.48 709.59 170.19 757.73 226.95 821.01"/><path class="cls-6" d="M33,214.4l107.76-10.17,41.68,27.45,206.36,62L465,306.9l24.4,26.43L475.2,450.24l-65.06,29.48L280,485.82l-72.18-18.3-18.3-13.22,6.1-10.17s-48.41-2.1-51.59-4.83c-10.67-9.15-3-22.87-3-22.87l-13-28.21-22.87-17.28L82.81,359.77l4.57-37.36-33.55-8.13L35,300.81,21.81,281.49,8.6,235.74Z"/><polygon class="cls-4" points="41.13 220.5 126.52 208.3 161.59 243.37 218.01 247.94 303.4 299.79 414.72 315.04 432.34 315.73 472.66 347.06 471.14 380.61 469.61 441.6 414.72 469.05 332.37 475.15 314.08 462.95 321.7 447.7 271.38 430.93 283.58 406.53 181.41 403.48 195.14 371.46 165.4 365.36 159.68 356.97 169.22 326.47 59.42 307.41 35.03 257.09 41.13 220.5"/><polygon class="cls-5" points="48.75 228.12 126.52 222.02 169.86 272.87 229 270.9 407.09 313.51 457.41 348.58 460.46 426.35 426.92 452.27 327.8 466 320.18 459.9 329.32 444.65 295.78 432.45 280.53 426.35 300.35 401.95 250.03 392.81 193.61 395.85 207.34 360.78 167.69 356.21 171.12 341.72 203.14 334.86 137 300.47 59.42 295.21 35.03 257.09 48.75 228.12"/></g></svg>