<svg xmlns="http://www.w3.org/2000/svg" width="500" height="500" viewBox="0 0 500 500"><defs><style>.cls-1{fill:#ff6310;}.cls-2{fill:#ffb361;}.cls-3{fill:#ffdf59;}.cls-4{fill:#8c5800;}.cls-5{fill:#a46700;}.cls-6{fill:#dbab5a;}</style></defs><title>foro</title><g id="UI"><path class="cls-1" d="M168.7,388.54s-15.05-42.06-17.2-53.53,15.05-53.53,17.2-63.09S166.55,226,166.55,226s28,17.21,32.26,32.5L201,212.65S190.2,199.27,190.2,187.8s23.66-53.53,23.66-53.53,4.3,36.32,6.45,45.88,34.41-57.35,32.26-63.09,34.41,57.35,36.56,65,8.6,40.15,6.45,47.8,15.05-19.12,17.2-28.68,15.05,21,15.05,28.68,0,40.15-2.15,51.62L347.2,249s6.45,21,6.45,30.59-10.75,59.27-10.75,59.27l15.05-7.65s-2.15,24.85-17.2,38.24-71,45.88-71,45.88l-66.67-9.56Z"/><polygon class="cls-1" points="319.65 171.9 312.12 144.29 319.65 106.65 329.69 156.84 319.65 171.9"/><polygon class="cls-1" points="359.8 202.01 359.8 227.1 369.84 232.12 359.8 202.01"/><path class="cls-1" d="M231.82,48.94s-15.06,27.6-20.07,42.66,2.11,42.67,2.11,42.67,20.47-25.1,25.49-37.65S231.82,48.94,231.82,48.94Z"/><path class="cls-2" d="M269.77,415.3l-66.67-9.56-16.45-35.61s-7.53-42.66-5-50.19,17.57-35.13,17.57-35.13l5,17.57s17.57-40.15,20.07-47.68,2.51-45.17,2.51-45.17l20.07-37.64,5,35.13L272,192s10,32.62,7.53,50.19,5,40.15,5,40.15l22.58-40.15s5,25.09,0,45.17a278.78,278.78,0,0,1-10,32.62l27.6-22.58,7.53,20.07-10,42.66Z"/><path class="cls-3" d="M269.77,415.3l-45.48-5-12.55-40.15,5-57.71,30.11-47.68s7.53,47.68,7.53,55.21,20.07-7.53,20.07-7.53,7.53,35.13,0,52.7l25.09-32.62-5,42.66Z"/><polygon class="cls-3" points="259.43 222.08 244.37 239.65 246.88 264.74 261.94 239.65 259.43 222.08"/><polygon class="cls-3" points="274.48 312.42 299.57 274.78 292.05 307.4 274.48 312.42"/><polygon class="cls-4" points="385.52 368.25 250.02 400.25 250.02 428.48 385.52 417.19 395.37 396.23 385.52 368.25"/><polygon class="cls-4" points="269.77 430.36 117.33 421.89 116.39 365.12 269.46 410.28 269.77 430.36"/><polygon class="cls-5" points="269.77 415.3 191.67 397.74 194.18 450.43 269.77 430.36 269.77 415.3"/><polygon class="cls-6" points="116.39 422.83 104.63 394.15 114.04 362.61 124.76 371.76 128.16 402.76 116.39 422.83"/><polygon class="cls-6" points="195.2 451.06 184.15 425.52 192.99 397.42 203.07 405.57 206.26 433.18 195.2 451.06"/></g></svg>