<svg xmlns="http://www.w3.org/2000/svg" width="1000" height="1000" viewBox="0 0 1000 1000"><defs><style>.cls-1{isolation:isolate;}.cls-2{fill:#bd703e;}.cls-3{fill:#a35d3e;}.cls-4{fill:#47a900;}.cls-5{fill:#d09569;}.cls-6{fill:#c58155;}.cls-7{fill:#59b601;}.cls-8{fill:#80c629;}.cls-9{fill:#48a83a;}.cls-10{fill:#1c9343;}.cls-11{fill:#a4c9a1;}.cls-12{fill:#7ea273;}.cls-13{fill:#a9cbac;}.cls-14{fill:#b5d2b7;}.cls-15{fill:#bddbbf;}.cls-16{fill:#6e9064;}.cls-17{fill:#90b991;}.cls-18{fill:#65cd00;}.cls-19{fill:#9cbb9e;}.cls-20{fill:#abd2b0;}.cls-21{fill:#85ac7a;}.cls-22{fill:#96c391;}.cls-23{fill:#6a7273;mix-blend-mode:multiply;}.cls-24{fill:#b4bcca;}.cls-25{fill:#99a4b7;}.cls-26{fill:#e6e6e6;}.cls-27{fill:#ffd464;}.cls-28{fill:#e6bf5a;}.cls-29{fill:#cc803d;}.cls-30{fill:#b37035;}.cls-31{fill:#f5f5f5;}.cls-32{fill:#fff1cc;}.cls-33{fill:#ccc;}.cls-34{fill:none;stroke:#fff;stroke-linecap:round;stroke-miterlimit:10;stroke-width:21.43px;stroke-dasharray:6.12 55.1;}</style></defs><title>L1_block</title><g class="cls-1"><g id="plano_2"><path class="cls-2" d="M426.42,613.78H392.63S377,590.4,351,593s-15.57-29.91-32.49-36.4v50.68H186s19.48-48.09,45.48-59.79,24.88-7.79,24.88-62.37V331.42l2.44.14,64.87,3.76h.09V515s18.21,20.8,32.49,37.69-1.29,26,19.51,31.2S422.54,596.89,426.42,613.78Z"/><path class="cls-3" d="M325.29,436.78l-1.55.4-34.82,9.16V387l-11.49-9.6c-5.66,3.25-13.7,2.73-21.09,1V336.1l2.44-4.54,5.23-9.71,59.39-1.93.26,15.4.09,5.83Z"/><path class="cls-4" d="M194.76,277.26s-9.46,17.87,10.51,29.43c0,0-17.87,7.36-2.1,26.28s27.33,0,27.33,0,7.36,21,28.38,23.12,27.33-10.51,27.33-10.51-1.05,21,16.82,24.17,24.17-6.31,24.17-6.31-12.61,34.68,35.73,41,46.24-30.48,46.24-30.48,22.07,5.26,25.22-21c0,0,30.48,8.41,42-26.28s-8.41-49.4-8.41-49.4,9.46-15.77-5.26-26.28-27.33-1.05-27.33-1.05,14.71-21-17.87-39.94-49.4,1.05-49.4,1.05-1.05-17.87-12.61-21-25.22,4.2-25.22,4.2-30.48-29.43-66.21,3.15c0,0-21-12.61-33.63,7.36s5.26,33.63,5.26,33.63S217.88,227.86,199,252,194.76,277.26,194.76,277.26Z"/><path class="cls-5" d="M744.3,199.91V459.76s15.89,18.16,28.37,32.91-1.13,22.69,17,27.23,40.85,11.35,44.25,26.1h-29.5s-13.62-20.42-36.31-18.16-13.62-26.1-28.37-31.77v44.25H624s17-42,39.71-52.2,40.85-6.81,40.85-54.47V196.51Z"/><polygon class="cls-6" points="726.3 226.84 726.3 290.56 719.93 290.56 719.93 321.15 715.47 325.61 715.47 368.31 719.93 372.77 726.62 366.08 730.76 366.08 730.76 420.56 725.03 426.3 725.03 460.07 739.68 477.27 727.58 473.45 730.13 479.82 718.66 479.19 746.7 505.31 759.44 535.26 780.47 525.71 777.28 497.03 744.15 458.8 744.78 225.56 726.3 226.84"/><path class="cls-5" d="M668.51,163.73V461.38s18.2,20.8,32.5,37.69-1.3,26,19.5,31.2,46.79,13,50.69,29.9H737.4s-15.6-23.4-41.59-20.8-15.6-29.9-32.5-36.39v50.69H530.73s19.5-48.09,45.49-59.79S623,486.08,623,431.49V159.83Z"/><path class="cls-7" d="M648.59,146.11s7.8-14.73-8.67-24.26c0,0,14.73-6.07,1.73-21.66s-22.53,0-22.53,0-6.07-17.33-23.4-19.06-22.53,8.67-22.53,8.67.87-17.33-13.86-19.93-19.93,5.2-19.93,5.2,10.4-28.6-29.46-33.79-38.13,25.13-38.13,25.13-18.2-4.33-20.8,17.33c0,0-25.13-6.93-34.66,21.66s6.93,40.73,6.93,40.73-7.8,13,4.33,21.66,22.53.87,22.53.87S438,186,464.88,201.57s40.73-.87,40.73-.87.87,14.73,10.4,17.33,20.8-3.47,20.8-3.47,25.13,24.26,54.59-2.6c0,0,17.33,10.4,27.73-6.07s-4.33-27.73-4.33-27.73,14.73,8.67,30.33-11.26S648.59,146.11,648.59,146.11Z"/><path class="cls-4" d="M600.61,110.73c25.71-15.33,55.46,6.07,55.46,6.07s-10.4-15.6,0-21.66a13.27,13.27,0,0,1,17.33,2.6s-6.93-34.66,22.53-45.93,38.13,10.4,38.13,10.4,13.86-11.26,28.6-2.6,13,25.13,13,25.13,8.67-19.93,26.86-6.93c0,0,16.46-11.26,29.46,6.07s.87,25.13.87,25.13,26-3.47,29.46,14.73-26.86,20.8-26.86,20.8,5.2,12.13-11.26,17.33-23.4-5.2-23.4-5.2,11.26,24.26-13,40.73S754,199.11,754,199.11s0,10.4-9.53,11.26c0,0,12.13,25.13-12.13,36.39S696.8,239,696.8,239s-.87,11.26-11.26,10.4-7.8-10.4-7.8-10.4-14.73,13.86-32.93-1.73-11.26-32.93-11.26-32.93-7.8,12.13-22.53.87c0,0-7.8,13.86-21.66,5.2S580.68,180,580.68,180,555.55,137.59,600.61,110.73Z"/><path class="cls-8" d="M679.24,283.26s17.33-4.33,19.93-20.8-14.73-21.66-14.73-21.66,2.6-18.2-19.06-17.33c0,0,8.67-19.06-14.73-29.46S616,198.34,616,198.34s-.87-20.8-26-26-31.2,11.26-31.2,11.26-19.93-30.33-58.92-21.66-47.66,49.39-47.66,49.39-6.93-6.07-20.8,8.67-2.6,31.2-2.6,31.2-10.4,0-11.26,8.67,8.67,11.26,8.67,11.26-15.6,6.07-8.67,25.13c0,0-16.46-13-39,1.73,0,0-6.07-15.6-25.13-6.93s-18.2,45.06,14.73,50.26c0,0-18.2,12.13-9.53,30.33,0,0-12.13,27.73,22.53,38.13s48.53-9.53,48.53-9.53,32.93,33.79,68.46,2.6c0,0,7.8,10.4,18.2,2.6s.87-15.6.87-15.6,59.79,13.86,73.66-48.53c0,0,23.4,18.2,45.06,3.47S642,311.85,642,311.85,673.17,324.85,679.24,283.26Z"/><path class="cls-9" d="M844.85,560.17H676.51s-3.66-19.52,15.86-22c0,0-6.1-14.64,0-25.62s23.18-11,23.18-11S718,487,731.4,489.42s8.54,8.54,8.54,8.54,14.64-18.3,29.28-7.32,8.54,26.84,8.54,26.84,8.54-9.76,13.42,3.66c0,0,15.86-11,25.62,2.44s0,23.18,0,23.18S840,534.55,844.85,560.17Z"/></g><g id="plano1"><path class="cls-10" d="M230,581.27a22.74,22.74,0,0,0-5.21.14,14.2,14.2,0,0,0,.33-2.15,17.28,17.28,0,0,0-28.17-14.85,35.48,35.48,0,1,0-64.72,28.84,17.89,17.89,0,0,0-29,20.3l.57-.23-.15.08L248,611.09a15.57,15.57,0,0,0,2.05-6.93C251,592.56,242,582.32,230,581.27Zm-97.75,12a17.82,17.82,0,0,1,2.38,3.18l-.41.2A27.91,27.91,0,0,1,132.23,593.27Z"/><path class="cls-10" d="M789,572.22a28,28,0,0,0-6.42.17,17.51,17.51,0,0,0,.41-2.65,21.3,21.3,0,0,0-34.72-18.31A43.74,43.74,0,1,0,668.48,587a22.06,22.06,0,0,0-35.76,25l.71-.28-.19.1,178.42-1.26c1.6-3,1.73-6.63,2-10.14C814.94,586.14,803.87,573.52,789,572.22ZM668.5,587a22,22,0,0,1,2.94,3.92l-.5.25A34.4,34.4,0,0,1,668.5,587Z"/><polygon class="cls-11" points="532.13 610.92 198.8 610.92 217.4 518.42 532.13 528.15 532.13 610.92"/><polygon class="cls-12" points="754.98 610.92 529 610.92 531.92 528.15 721.33 485.14 754.98 610.92"/><polygon class="cls-13" points="217.4 518.42 532.57 528.15 721.33 485.14 623.9 462.1 363.99 475.19 217.4 518.42"/><polygon class="cls-13" points="271.65 417.84 503.5 429.82 637.6 382.28 540.17 359.23 415.91 373.19 271.65 417.84"/><polygon class="cls-13" points="313.09 343.79 489.15 353.27 589.76 317.69 477.11 291.16 313.09 343.79"/><polygon class="cls-11" points="519.31 517.36 263.21 505.22 271.63 417.83 517.95 422.71 519.31 517.36"/><polygon class="cls-12" points="664.29 474.37 518.45 517.38 517.46 422.71 637.61 382.22 664.29 474.37"/><polygon class="cls-11" points="501 416.19 306.91 406.99 313.29 343.93 496.92 349.46 501 416.19"/><polygon class="cls-12" points="609.25 376.07 500.34 416.2 495.85 349.46 589.67 317.56 609.25 376.07"/><polygon class="cls-11" points="480.51 337.99 358.14 329.69 355.69 225.38 478.67 232.47 480.51 337.99"/><polygon class="cls-12" points="559.65 311.13 479.9 337.99 478.06 232.47 551.67 208.43 559.65 311.13"/><polygon class="cls-14" points="346.09 245.61 479.58 252.8 558.25 225.18 556.6 204.82 423.24 197.96 345.21 221.19 346.09 245.61"/><polygon class="cls-15" points="479.38 228.88 556.68 204.8 500.45 201.22 422.54 197.24 376.5 210.95 345.43 221.45 479.38 228.88"/><polygon class="cls-16" points="433.67 610.92 376.26 610.92 438.26 347.78 442.18 347.78 448.11 414.2 431.27 426.78 442.37 514.52 421.04 524.43 433.67 610.92"/><path class="cls-13" d="M402.16,304.7a13.16,13.16,0,1,1,26.31,0v23.94h0V300.1c0-9.61-7.75-16.91-17.35-16.91h-.83c-9.61,0-17.7,7.3-17.7,16.91v32.09l9.57.5Z"/><path class="cls-16" d="M415.32,291.21a13.25,13.25,0,0,0-13.16,13.48v28.16l26.31,1.66V304.7A13.25,13.25,0,0,0,415.32,291.21Z"/><ellipse class="cls-16" cx="375.25" cy="284.68" rx="7.77" ry="12.86"/><ellipse class="cls-16" cx="450" cy="284.68" rx="7.77" ry="12.86"/><path class="cls-17" d="M235.18,563.86c0-12.67-8.48-23.67-21-29.45L201.59,597C220.69,594.15,235.18,580.43,235.18,563.86Z"/><path class="cls-18" d="M454.13,614.7l159.34.2-11.68-37.08a1.24,1.24,0,0,0-1.92-.62L582.6,590.15a1.24,1.24,0,0,1-1.83-.39l-16.16-29.38a1.24,1.24,0,0,0-2.24.17l-9.83,26.67a1.24,1.24,0,0,1-2.15.31l-11.86-15.82a1.24,1.24,0,0,0-2.2.48L530.71,598a1.24,1.24,0,0,1-2.26.4l-20.25-32.22a1.24,1.24,0,0,0-2.07,0l-19.48,28.47a1.24,1.24,0,0,1-2,.11l-17.83-20.58a1.24,1.24,0,0,0-2.17.94Z"/><polygon class="cls-19" points="479.73 252.92 479.38 228.88 556.68 204.8 558.25 225.18 479.73 252.92"/><polygon class="cls-20" points="370.59 222.51 365.64 227.46 361.3 235.96 354.15 241.95 354.98 222.13 370.59 222.51"/><path class="cls-21" d="M641.18,394.54c-11.83,6-20.14,20.17-20.14,36.67,0,22,14.73,39.77,32.89,39.77a27.59,27.59,0,0,0,8.94-1.53Z"/><circle class="cls-21" cx="577.98" cy="430.31" r="5.98"/><circle class="cls-22" cx="326.18" cy="475.1" r="18.52"/><polygon class="cls-14" points="282.25 610.92 401.86 610.92 438.04 347.78 380.63 342.99 282.25 610.92"/></g><g id="bloqueados"><path class="cls-23" d="M862.31,123.72c-3.47-18.2-29.46-14.73-29.46-14.73s12.13-7.8-.87-25.13-29.46-6.07-29.46-6.07c-18.2-13-26.86,6.93-26.86,6.93s1.73-16.46-13-25.13-28.6,2.6-28.6,2.6-8.67-21.66-38.13-10.4S673.4,97.73,673.4,97.73a13.27,13.27,0,0,0-17.33-2.6c-10.4,6.07,0,21.66,0,21.66a65.32,65.32,0,0,0-9.07-5.17c-.09-3-1.5-6.81-5.34-11.43-13-15.6-22.53,0-22.53,0s-6.07-17.33-23.4-19.06-22.53,8.67-22.53,8.67.87-17.33-13.86-19.93-19.93,5.2-19.93,5.2,10.4-28.6-29.46-33.79-38.13,25.13-38.13,25.13-18.2-4.33-20.8,17.33c0,0-25.13-6.93-34.66,21.66s6.93,40.73,6.93,40.73-7.8,13,4.33,21.66,22.53.87,22.53.87-9.71,13.88,7.51,28c-.4.8-.77,1.59-1.11,2.35l-34-1.74L402,203.35c-22.37-5.94-33.86,7.7-33.86,7.7s-1.05-17.87-12.61-21-25.22,4.2-25.22,4.2-30.48-29.43-66.21,3.15c0,0-21-12.61-33.63,7.36s5.26,33.63,5.26,33.63S217.88,227.86,199,252s-4.2,25.22-4.2,25.22-9.46,17.87,10.51,29.43c0,0-17.87,7.36-2.1,26.28s27.33,0,27.33,0,6.77,19.3,25.84,22.76V485.13c0,8.64,0,15.81,0,21.82L217.4,518.42l38.53,1.19h0l-38.53-1.19-3.22,16-5.25,26.13a17.17,17.17,0,0,0-12,3.87,35.48,35.48,0,1,0-64.72,28.84,17.89,17.89,0,0,0-29,20.3l.57-.23-.15.08L248,611.09l.09-.17H390.42c1.45,1.74,2.21,2.87,2.21,2.87h33.79a19.21,19.21,0,0,0-.91-2.87h29.63l-1,3.78,159.34.2-1.26-4h20c.16.37.32.74.5,1.1l.71-.28-.19.1,178.42-1.26c1.6-3,1.73-6.63,2-10.14,1.24-14.29-9.83-26.92-24.7-28.21a28,28,0,0,0-6.42.17,17.51,17.51,0,0,0,.41-2.65,21.19,21.19,0,0,0-1.37-9.57h63.24c-1.87-9.79-6.41-14.05-11.31-15.59-1.87-5.75-6.77-10.24-13.11-13.84a23.22,23.22,0,0,0-3.64-7.17c-8.32-11.44-21.06-5.15-24.64-3l-1.35-.34c-3.07-7.47-7.39-6.68-10.2-5A10.46,10.46,0,0,1,779,509.7a23.91,23.91,0,0,0-.58-5.38,22.69,22.69,0,0,0-.64-2.64l-.52-4.65L744.3,459V402.39l.46-166.62c6.3-11.7-.3-25.39-.3-25.39,9.53-.87,9.53-11.27,9.53-11.27s9.53,14.73,33.79-1.73,13-40.73,13-40.73,6.93,10.4,23.4,5.2,11.26-17.33,11.26-17.33S865.77,141.92,862.31,123.72ZM134.21,596.66a27.91,27.91,0,0,1-2-3.39,17.82,17.82,0,0,1,2.38,3.18ZM609.07,375.53l-9.81-29.3c6,2.78,14.57,5.39,23.75,3.81v28.79ZM696.8,239a25.43,25.43,0,0,0,7.79,7.59v187.1c0,27.42-6,37.94-15.44,43.87l-8.3-2c-7.08-8.18-12.34-14.19-12.34-14.19V307.77c4.82-4.48,8.9-12,10.72-24.52,0,0,17.33-4.33,19.93-20.8a17.38,17.38,0,0,0-5.4-16.11A14.2,14.2,0,0,0,696.8,239ZM421.08,524.72h0L532,528.13h-.05ZM817.44,546h1c-1,.43-1.66.75-1.66.75S817.05,546.49,817.44,546Z"/><path class="cls-24" d="M652.8,371.8A152.8,152.8,0,1,1,500,219,152.8,152.8,0,0,1,652.8,371.8Zm0,0"/><path class="cls-25" d="M623.31,462a11.85,11.85,0,0,0-1.73-3.28,13.37,13.37,0,0,0-2.42-6.43,15.13,15.13,0,0,0-2.79-7,15.66,15.66,0,0,0-2.08-4.63,13.05,13.05,0,0,0-2.28-5.5,14.59,14.59,0,0,0-2.46-6.51,12.53,12.53,0,0,0-2.3-5.53,14,14,0,0,0-2.44-6.47,11.93,11.93,0,0,0-2.32-5.59,13.36,13.36,0,0,0-2.41-6.42,14.88,14.88,0,0,0-2.46-6.49,13,13,0,0,0-2.56-5.93,13,13,0,0,0-2.14-4.68,14.49,14.49,0,0,0-2.46-6.5,12.41,12.41,0,0,0-2.31-5.56,13.85,13.85,0,0,0-2.43-6.45,12,12,0,0,0-2.95-6.37,14.41,14.41,0,0,0-11.07-9.75l-.27-.59a51.66,51.66,0,0,0-2.39-6.11,51.72,51.72,0,0,0-2.39-6.12,52.14,52.14,0,0,0-2.39-6.11,52.37,52.37,0,0,0-4.05-9.42c-.23-.54-.48-1.06-.72-1.59a51.66,51.66,0,0,0-2.39-6.11,51.77,51.77,0,0,0-2.39-6.12,52.19,52.19,0,0,0-2.39-6.11,52.38,52.38,0,0,0-7.22-14.44,52.51,52.51,0,0,0-97.75,26.68V352.7H430.65A14.37,14.37,0,0,0,416.32,367v88.4A13.11,13.11,0,0,0,418.8,463a14.78,14.78,0,0,0,2.45,6.47,12.83,12.83,0,0,0,2.31,5.6,14.15,14.15,0,0,0,2.42,6.43,12.3,12.3,0,0,0,2.57,6,12.49,12.49,0,0,0,2.16,4.72,13.76,13.76,0,0,0,2.42,6.43,11.86,11.86,0,0,0,2.35,5.64,13.13,13.13,0,0,0,2.4,6.4c0,.29.1.58.16.87A152.75,152.75,0,0,0,623.31,462Zm0,0"/><path class="cls-26" d="M583.45,453a14.37,14.37,0,0,1-14.32,14.32H430.65A14.37,14.37,0,0,1,416.32,453V367a14.37,14.37,0,0,1,14.33-14.32H569.12A14.37,14.37,0,0,1,583.45,367Zm0,0"/><path class="cls-27" d="M583.45,453a14.37,14.37,0,0,1-14.32,14.32H430.65A14.37,14.37,0,0,1,416.32,453V367a14.37,14.37,0,0,1,14.33-14.32H569.12A14.37,14.37,0,0,1,583.45,367Zm0,0"/><path class="cls-28" d="M569.12,352.7h-9.55A14.37,14.37,0,0,1,573.9,367v86a14.37,14.37,0,0,1-14.32,14.32h9.55A14.37,14.37,0,0,0,583.45,453V367a14.37,14.37,0,0,0-14.32-14.32Zm0,0"/><path class="cls-26" d="M461.69,352.7V316.89a38.2,38.2,0,0,1,76.4,0V352.7h14.33V316.89a52.53,52.53,0,0,0-105.05,0V352.7Zm0,0"/><path class="cls-29" d="M519,398.06a19.1,19.1,0,1,0-31,14.9V429.1a11.94,11.94,0,0,0,23.88,0V413a19.05,19.05,0,0,0,7.16-14.9Zm0,0"/><path class="cls-30" d="M492.73,429.1V413a19.08,19.08,0,0,1,9.55-33.83,19.5,19.5,0,0,0-2.39-.16,19.09,19.09,0,0,0-11.94,34V429.1A11.94,11.94,0,0,0,499.89,441a11.69,11.69,0,0,0,2.39-.25,11.93,11.93,0,0,1-9.55-11.69Zm0,0"/><path class="cls-31" d="M499.89,264.36a52.58,52.58,0,0,0-52.52,52.52v7.16a7.16,7.16,0,0,0,7.16-7.16,45.36,45.36,0,1,1,90.73,0,7.16,7.16,0,0,0,7.16,7.16v-7.16a52.58,52.58,0,0,0-52.53-52.52Zm0,0"/><path class="cls-27" d="M507,398.06a7.16,7.16,0,1,1-7.16-7.16,7.16,7.16,0,0,1,7.16,7.16Zm0,0"/><path class="cls-28" d="M499.89,390.9a7.3,7.3,0,0,0-1.19.12,7.14,7.14,0,0,1,0,14.09,7.65,7.65,0,0,0,1.19.12,7.16,7.16,0,1,0,0-14.33Zm0,0"/><rect class="cls-32" x="416.32" y="364.64" width="167.13" height="9.55"/><rect class="cls-32" x="416.32" y="445.81" width="167.13" height="9.55"/><rect class="cls-33" x="447.36" y="350.31" width="14.32" height="2.39"/><rect class="cls-33" x="538.09" y="350.31" width="14.32" height="2.39"/></g><g id="camino_bloqueado" data-name="camino bloqueado"><path class="cls-34" d="M261.19,465.55c-22.44-12.07-51.89-21.35-90.42-23.92C122,438.39,58.72,441.39-7.33,457"/><path class="cls-34" d="M572.75,1001.93c5.22-79.54-22.3-161.43-104.51-252.7C413,687.86,379.84,642.54,360,610.56"/></g></g></svg>