<svg xmlns="http://www.w3.org/2000/svg" width="1000" height="1000" viewBox="0 0 1000 1000"><defs><style>.cls-1{isolation:isolate;}.cls-2{fill:#00a18e;}.cls-3{fill:#23ae9e;}.cls-4{fill:#44baac;}.cls-5{fill:#5f6946;}.cls-6{fill:#737a5f;}.cls-33,.cls-7{fill:#849162;}.cls-8{fill:#b2ba9d;}.cls-9{fill:#9ea883;}.cls-10{fill:#c2a382;}.cls-11{fill:#67bb00;}.cls-12{fill:#89946c;}.cls-13{fill:#7a8855;}.cls-14{fill:#4c5633;}.cls-15{fill:#647044;}.cls-16{fill:#ab8254;}.cls-17{fill:#aad233;}.cls-18{fill:#29c3de;}.cls-19{fill:#52ddeb;}.cls-20{fill:#abb494;}.cls-21{fill:#869365;}.cls-22{fill:#3e782d;}.cls-23{fill:#4d9438;}.cls-24{fill:#919d73;}.cls-25{fill:#8c7051;}.cls-26,.cls-29{fill:#6b784b;}.cls-27{fill:#917454;}.cls-28{fill:#a5ae8b;}.cls-29{opacity:0.48;}.cls-29,.cls-33,.cls-48{mix-blend-mode:multiply;}.cls-30{fill:#389454;}.cls-31{fill:#8d996d;}.cls-32{fill:#458532;}.cls-33{opacity:0.57;}.cls-34{fill:#818e5e;}.cls-35{fill:#3894a0;}.cls-36{fill:#26bfcf;}.cls-37{fill:#b7f2eb;}.cls-38{fill:#7a6246;}.cls-39{fill:#23afbd;}.cls-40{fill:#7a6247;}.cls-41{fill:#67b441;}.cls-42{fill:#4e7e31;}.cls-43{fill:#947859;}.cls-44{fill:#897258;}.cls-45{fill:#86e307;}.cls-46{fill:#ccb687;}.cls-47,.cls-48{fill:#6a7273;}.cls-49{fill:#b4bcca;}.cls-50{fill:#99a4b7;}.cls-51{fill:#e6e6e6;}.cls-52{fill:#ffd464;}.cls-53{fill:#e6bf5a;}.cls-54{fill:#cc803d;}.cls-55{fill:#b37035;}.cls-56{fill:#f5f5f5;}.cls-57{fill:#fff1cc;}.cls-58{fill:#ccc;}.cls-59{fill:none;stroke:#fff;stroke-linecap:round;stroke-miterlimit:10;stroke-width:21.68px;stroke-dasharray:6.19 55.75;}</style></defs><title>L2_block</title><g class="cls-1"><g id="plano_2"><path class="cls-2" d="M436.29,155.41s-5.62-12.65,6.32-18.27c0,0-11.24-4.92-9.14-17.57S446.83,109,446.83,109s-5.62-7.73-1.41-11.24S456,96.38,456,96.38s-7-4.92-4.22-8.43,8.43-.7,8.43-.7-7-11.95-1.41-19,14.76-3.51,14.76-3.51,4.22-13.35,18.27-15.46,19,7.73,19,7.73-12.65-19.68,13.35-26.7,21.79,21.79,21.79,21.79,9.84-6.32,14.76,2.11a10.77,10.77,0,0,1-2.11,14.05s11.24-16.16,24.6-4.22,2.11,19.68,2.11,19.68S600,75.3,605.65,86.54s-3.51,16.16-3.51,16.16,9.84-2.81,9.84,8.43-9.14,7.73-9.14,7.73a17.08,17.08,0,0,1,3.51,13.35s5.62-14.05,17.57-9.84c0,0,.7-18.27,20.38-19.68s19,14.76,19,14.76,21.79-22.49,42.16-7,8.43,30.22,8.43,30.22,7-4.92,14.05,4.22-1.41,9.84-1.41,9.84,12.65-8.43,19,4.92-4.92,15.46-4.92,15.46,11.95-4.22,15.46,9.84-5.62,9.14-5.62,9.14,14.05,2.81-1.41,16.16c0,0,28.11,9.14,17.57,37.25l21.79,130H458.78L367.42,227.79Z"/><path class="cls-3" d="M655.55,246.77s-6.32-22.49,7-30.22S682.25,218,682.25,218s.7-13.35,16.16-18.27S723,213,723,213s9.14-9.14,18.27-4.22,6.32,14.76,6.32,14.76,16.87-9.84,25.3-2.81,7.73,19,7.73,19,9.84-11.24,19-1.41-.7,16.87-.7,16.87,21.08-2.81,19,30.92-26,33.73-26,33.73,9.14.7,9.14,6.32-9.84,10.54-9.84,10.54,0,2.11-2.11,8.43c0,0,9.14-10.54,20.38-1.41S813,357.8,813,357.8s10.54-8.43,18.27,7.73S823.5,388,823.5,388s13.35,2.81,2.11,15.46-16.16,1.41-16.16,1.41,9.84,9.14-2.11,19.68c0,0,9.14-2.81,10.54,7.73s-13.35,13.35-13.35,13.35l-68.87-9.14L756,383.8s14.76-11.24,7-24.6-14.76-8.43-14.76-8.43,15.46-3.51,11.95-17.57-13.35-14.76-13.35-14.76,11.95,1.41,11.95-7c0,0,16.16-2.11,11.24-18.27s-18.27-10.54-18.27-10.54,2.81-9.14-5.62-9.84-7,6.32-7,6.32-2.11-12.65-15.46-9.84-12.65,11.24-12.65,11.24,0-10.54-10.54-9.14c0,0,6.32-12.65-7-17.57S678,256.6,678,256.6s-.7-7.73-9.14-6.32-6.32,7.73-6.32,7.73S667.5,247.47,655.55,246.77Z"/><path class="cls-4" d="M628.84,306.5S626.74,291,638,290.34s9.84,8.43,9.84,8.43,11.24-16.16,23.89-4.92S678,310,678,310s20.38-9.84,30.22,9.84-7,25.3-7,25.3,4.92,2.81,3.51,7c0,0,17.57-10.54,26.7,1.41s4.22,21.79,4.22,21.79,4.72-14.09,23.89-7c0,0,9.14-15.46,21.08,0,0,0,12.65-8.43,15.46,2.81s-4.92,12.65-4.92,12.65,9.14,10.54-2.11,15.46l-28.81,58.33L616.19,444.94Z"/></g><g id="plano1"><path class="cls-5" d="M411.93,218l4.45,9.6L419,242.78l4.45,14.29,3.28.7,7.73.47,2.58,1.64s2.81,10.78,3.28,11.71,7.5,5.62,7.5,5.62l2.81-2.81,6.56-1.17,6.56,7,3.51,9.84,4.45,18.27s-41.23,6.32-42.16,5.86-35.84-27.64-35.84-27.64l-3-64.42,1.17-4.45Z"/><path class="cls-6" d="M416.85,234.82l-14.76,1.41-1.87,2.34,1.41,7.73,8.67,5.62,4.45-.47-8,.7-3.51-1.87-.47,6.09L404,265l1.17,4,6.09,1.17,4.92-3.28,2.58-3.28s1.17.23.7,1.87-3.51,5.86-3.51,5.86l-8.9.23-3,3.75-4.45,2.58-7.73-58.8,19-.94,2.81,5.39Z"/><polygon class="cls-7" points="400.92 141.82 425.98 142.06 440.04 142.53 440.98 145.57 446.36 145.57 449.18 144.4 454.8 145.1 462.29 148.15 470.26 147.21 476.35 149.79 477.75 157.05 477.05 165.25 481.97 167.82 493.68 168.53 497.9 171.34 501.41 179.3 501.41 186.56 515 186.8 518.04 209.29 365.78 202.26 363.91 184.22 364.85 181.18 375.62 180.47 382.18 179.3 381.01 171.81 379.37 166.18 387.57 159.63 393.89 158.69 400.69 157.28 401.39 154.24 399.51 146.27 400.92 141.82"/><polygon class="cls-6" points="563.84 144.16 562.79 150.49 567.71 159.98 576.84 156.11 580.35 153.65 606.36 141.71 603.9 132.57 603.78 125.89 599.33 125.54 565.6 135.73 563.84 144.16"/><polygon class="cls-6" points="567.71 177.43 601.44 167.71 605.3 162.44 602.49 152.25 603.54 150.49 602.84 145.92 606.36 141.71 595.11 138.19 564.19 153.65 553.3 156.46 567.71 177.43"/><polygon class="cls-8" points="489 141.35 496.96 138.07 501.65 134.79 512.42 132.45 529.29 123.08 543.81 121.21 552.71 123.08 561.15 124.49 578.48 124.49 584.1 126.36 598.16 125.42 603.78 125.89 593 130.58 590.66 133.39 590.66 136.67 585.51 133.39 579.89 135.73 577.54 139.01 577.54 142.76 574.26 142.29 571.92 139.48 565.36 141.35 563.96 146.51 522.26 145.57 489.47 144.16 489 141.35"/><polygon class="cls-9" points="317.33 197.66 384.79 293.58 332.08 306.23 299.84 257.07 299.49 253.79 296.33 249.23 293.4 247.24 263.57 200.82 317.33 197.66"/><polygon class="cls-6" points="340.52 157.6 317.33 197.66 384.79 293.58 388.74 214.44 340.52 157.6"/><polygon class="cls-9" points="382.65 277.22 368.59 198.51 370.47 195.23 515.23 206.47 541.47 367.64 524.13 365.76 516.64 320.32 511.49 278.62 512.89 273 506.33 230.37 481.03 226.15 475.88 227.56 416.38 218.19 415.91 221.47 392.95 221.94 401.39 275.81 382.65 277.22"/><polygon class="cls-9" points="539.74 357.88 508.11 174.47 565.03 177.63 605.09 370.53 539.74 357.88"/><polygon class="cls-6" points="650.41 377.91 608.25 382.12 591.41 302.42 592.07 302.99 593 294.08 593 286.59 597.69 285.19 603.78 286.12 605.65 282.84 596.75 274.88 597.22 269.25 599.1 262.7 593 254.73 589.72 252.39 588.79 243.48 581.76 231.31 578.48 232.71 574.73 219.59 574.23 221.14 565.03 177.63 601.92 166.03 650.41 377.91"/><polygon class="cls-9" points="304.41 174.15 313.78 188.67 312.37 191.01 250.06 195.23 246.31 193.83 239.76 180.71 242.1 178.83 304.41 174.15"/><path class="cls-10" d="M459.48,286.47c-19.59,0-25.85-46.4-26.1-48.38l3.48-.45c1.64,12.61,8.91,45.32,22.62,45.32,4.57,0,11-4.4,15.92-25.35a183.82,183.82,0,0,0,3.88-26.41l3.51.22a187.82,187.82,0,0,1-4,27C474.49,277,468,286.47,459.48,286.47Z"/><path class="cls-11" d="M415.91,218.66s-4.68,13.59-1.41,15.93,7-5.62,7-5.62.94,19.68,4.22,20.61,6.09-17.33,6.09-17.33.47,10.78,3.75,10.78,2.34-9.37,2.34-9.37,9.37,19.21,6.09-11.24Z"/><path class="cls-11" d="M480.1,227.56s-2.81,27.17.94,29,4.68-17.33,4.68-17.33-1.87,26.7,4.22,27.17,2.81-23.89,2.81-23.89,9.37,15.93,7.5-13.12"/><path class="cls-6" d="M304.41,174.15l14.05-14.05,3.28-6.09L333,145.57l5.62-11.24s4.22-7,5.62-7,2.34,8.9,2.34,8.9l-.47,9.84-5.62,7.5-23,35.14h-3.75l-9.37-12.18Z"/><polygon class="cls-8" points="344.23 127.3 327.83 125.89 315.65 126.36 301.13 125.89 277.24 130.58 273.49 137.61 254.28 158.69 243.04 172.74 242.1 178.83 304.41 174.15 315.19 162.44 318.46 160.09 321.74 154 328.3 148.38 332.99 145.57 336.74 136.67 344.23 127.3"/><polygon class="cls-9" points="567.71 165.72 569.11 172.74 567.71 177.43 508.21 176.02 504.93 173.21 504.46 163.37 567.71 165.72"/><polygon class="cls-9" points="493.21 154.94 569.11 158.69 570.05 164.31 567.71 165.72 498.37 162.91 495.09 161.03 493.21 154.94"/><polygon class="cls-9" points="489 141.35 493.21 140.89 533.04 142.76 539.13 146.04 544.75 144.16 559.27 144.63 563.96 146.51 565.83 152.6 564.89 158.22 495.09 155.41 489.93 152.13 489 141.35"/><polygon class="cls-7" points="492.75 153.07 524.6 156.35 541.94 156.81 564.89 158.22 566.77 161.97 542.41 161.03 514.3 158.22 494.15 157.28 492.75 153.07"/><polygon class="cls-7" points="504.46 163.37 515.7 164.31 552.71 166.65 567.71 165.72 566.3 169.46 552.71 170.4 515.7 166.65 503.52 167.12 504.46 163.37"/><polygon class="cls-7" points="509.14 181.18 511.49 177.43 517.11 176.49 550.84 178.37 562.08 180.24 566.77 185.39 565.03 177.63 521.32 173.21 508.11 174.47 509.14 181.18"/><polygon class="cls-5" points="605.65 282.84 603.78 286.12 597.69 285.19 593 286.59 593 294.08 592.07 302.99 591.41 302.42 574.23 221.14 574.73 219.59 578.48 232.71 581.76 231.31 588.79 243.48 589.72 252.39 593 254.73 599.1 262.7 597.22 269.25 596.75 274.88 605.65 282.84"/><polygon class="cls-12" points="591.41 302.42 585.98 297.83 571.92 289.87 567.23 289.4 560.21 284.24 568.18 286.12 571.92 284.24 573.33 277.69 572.86 270.66 567.23 269.73 568.18 266.44 565.37 257.07 559.27 252.86 565.37 243.96 569.58 242.08 570.04 234.12 574.23 221.14 591.41 302.42"/><polygon class="cls-12" points="513.36 206.47 541.94 355.93 536.32 356.39 535.38 342.81 534.44 338.59 527.41 336.25 522.73 334.84 529.76 334.84 532.1 332.5 525.07 286.12 520.86 285.65 522.73 282.84 517.11 243.49 512.89 244.42 509.61 243.02 516.64 241.14 511.49 218.66 485.72 217.25 470.73 216.31 459.95 213.97 447.3 214.44 408.42 213.97 386.4 210.69 380.77 210.69 374.68 210.69 370.94 208.82 368.13 199.92 370.94 196.64 375.62 197.57 371.4 200.38 371.4 204.13 378.43 207.88 409.82 209.75 422 211.63 438.4 211.16 470.26 212.57 484.78 214.44 506.33 214.91 510.55 213.03 513.36 206.47"/><polygon class="cls-12" points="377.03 211.16 378.9 217.72 381.92 238.51 381.92 238.51 382.65 243.49 384.05 252.86 386.4 270.19 389.68 268.79 386.4 251.92 388.74 246.77 385.46 245.36 383.58 235.99 382.65 227.09 386.87 225.22 383.12 223.34 380.77 210.69 377.03 211.16"/><path class="cls-13" d="M572.62,226.74,570,234.12l-.46,8L565.36,244l-6.09,8.9,6.09,4.22,2.81,9.37-.94,3.28,5.62.93-1.29,8.08-.7,6.68-2.69.7-8-1.88,7,5.16,6.44,2,4.57,3.51v6.32l4.57-4.92,3.16,1.52s-.7,2.69.35,2.69,5.08,1.9,5.08,1.9l-2.27-5.76-10.19-3.51-5.62-4.92-.35-5.62,1.76-15.46-2.46-.7L570.16,264l-3.51-9.14L564.19,252l.7-2.46,2.46-3.87,4.22-2.81.35-7.38Z"/><polygon class="cls-14" points="627.09 294.2 626.38 297.36 622.87 302.63 621.11 298.07 616.55 289.28 610.57 287.17 603.78 286.12 596.17 286.47 594.06 288.23 594.41 291.74 591.41 302.42 590.9 294.2 589.49 288.93 592.3 284.71 596.87 283.66 601.09 284.01 602.14 282.61 601.44 279.8 605.65 282.84 606 285.07 615.49 286.47 619.71 288.93 622.52 296.66 627.09 294.2"/><path class="cls-12" d="M321.74,279.8c-1.41-1.05-4.92-6.32-4.92-6.32l-1.41-10.54-4.92-4.22-1.05-3.51,1.41-3.51,9.49-2.46,2.11-2.81L317.53,245l-6.32-1.41L301,243.25,293.63,238l-.7-5.27-1.05-4.92-6-2.46L281,216.2s-6.32-5.62-8.43-6.68-1.05-3.87-1.05-3.87l3.16-1.76h14.41l15.11-2.46,7.73,1.76,6.68,4.22,2.11,6.68,4.22,2.11,4.92,4.57,1.05,8.43L329.47,231l-1.05,7-4.22,4.22,6,1.41,7.73,1.05,7,3.87,6,6.68,4.22,5.62.35,5.27,2.81,1.41.7,4.92-8.47,7.14,20.77-5.73-54-75.81-53.76,3.16,29.67,45.31,2.86,2.51,3.75,4.8.44,3.45,20.06,30.63,18.51-5.11C332.11,281.85,322.64,280.47,321.74,279.8Z"/><polygon class="cls-15" points="295.74 248.87 302.07 248.52 307.34 250.28 312.61 248.87 315.42 245.71 317.53 245.01 322.45 244.66 325.96 242.55 331.58 241.14 336.85 238.69 342.48 236.22 342.83 234.12 347.75 238.33 347.04 242.55 336.15 242.55 332.29 244.31 325.96 245.71 320.34 249.23 314.37 251.69 305.93 252.04 304.18 254.5 299.96 253.79 295.74 248.87"/><polygon class="cls-14" points="342.83 234.12 350.09 230.37 356.18 211.39 360.39 203.43 365.78 196.87 361.8 204.37 358.52 212.57 350.56 234.59 347.75 238.33 342.83 234.12"/><path class="cls-5" d="M587,143.81l-4.92,7.38-1.76,2.46,2.46,2.81,1.76,3.16,4.22-.35s-3.16-.35-.35-6a46.43,46.43,0,0,1,6.32-9.49Z"/><polygon class="cls-5" points="571.92 165.25 579.3 162.44 583.16 160.68 593.36 157.52 593.36 154.35 597.57 154.35 595.11 155.76 595.11 158.57 579.3 164.19 572.98 167 571.57 171.22 573.33 172.98 575.43 175.79 580.71 173.33 583.87 170.52 590.9 168.41 595.46 165.95 601.44 164.9 603.9 162.09 601.44 167.71 596.87 167.36 591.25 170.52 587.03 170.87 583.87 172.63 577.54 176.84 573.33 177.55 570.87 179.65 566.77 185.39 565.03 177.63 569.81 175.79 568.76 168.06 566.3 163.84 568.06 162.09 571.92 165.25"/><polygon class="cls-9" points="387.57 179.54 398.11 180 406.78 180 414.98 180.71 415.91 176.73 415.91 167.82 414.27 164.54 408.42 165.25 401.39 163.84 394.36 164.54 386.16 165.25 384.99 168.06 384.76 173.45 387.57 179.54"/><path class="cls-9" d="M419,168.29l6.56-3.75H429l2.58,1.41h6.09a8.08,8.08,0,0,1,2.81-.23c.94.23,7,1.87,7,1.87L459,168.76s2.34,4.92,2.34,5.62-.47,4.68-.47,4.68l.23,4.22-6.56,1.41-13.35-2.58-10.31-.47-7.5-.47-3.28-3.51Z"/><path class="cls-9" d="M404.2,186.8l-3.75-3.75h-9.6l-5.39-.23-10.78.47-4.68.23-1.17,2.58,1.41,4.45s5.15,5.62,6.09,5.62,11.48-.23,11.48-.23l9.37,1.64,8.67.23.7-5.15Z"/><path class="cls-9" d="M415.21,185.39h-5.86l-.7,3.28,1.17,7,5.86,1.87s5.62.7,7.26.94,15.46.7,15.46.7l4,1.64,1.64-3.51-2.11-9.14-4-2.81-4.45-.94-9.6.94Z"/><path class="cls-9" d="M449.18,186.1l-2.58.7a9.49,9.49,0,0,0-.7,2.34c0,.7.7,5.39.7,5.39l2.34,2.58-.94,4.45,19,.94,13.82,1.41,3.75-.7.23-3.28-2.11-3.75L481,188.91,470.26,188l-7.26.47L457.37,187l-2.58.94Z"/><path class="cls-9" d="M507.74,188.44l-16.4.23-5.15.23.94,2.81,1.87,5.86-.7,4.45s-1.64,1.64-.94,1.64,6.56,1.17,6.56,1.17l7.5-.47,5.39,1.41,4.45.23-.47-4.92-4.45-2.81,2.81-2.11Z"/><polygon class="cls-9" points="406.31 150.02 408.88 149.79 412.63 150.72 414.27 150.02 418.25 150.49 420.13 149.55 420.13 148.38 412.16 148.15 408.88 147.68 404.2 147.68 403.73 145.57 407.48 143.93 413.1 144.16 416.85 145.57 423.64 144.63 429.03 143.93 436.99 143.7 439.1 145.1 442.38 147.44 441.91 149.55 432.78 149.55 439.1 151.66 440.98 154.24 443.08 157.52 442.62 162.2 440.74 163.37 434.89 161.73 425.75 161.73 419.66 161.5 409.59 161.73 407.01 160.8 406.07 158.45 406.07 155.64 408.65 155.18 406.31 150.02"/><polygon class="cls-5" points="459.72 148.38 455.03 146.27 447.77 150.02 447.54 153.77 447.3 158.69 444.96 162.91 450.35 165.95 457.84 166.42 461.59 168.29 464.17 179.54 465.34 184.46 467.45 184.22 470.49 185.63 474.94 186.1 493.21 186.1 499.77 185.39 501.41 179.3 497.9 171.34 495.56 169 491.57 168.06 482.91 168.76 481.74 171.34 481.03 174.62 477.99 169.7 475.88 166.65 472.83 165.72 474.94 161.97 475.18 154.71 475.41 149.55 470.26 147.21 464.17 148.38 461.82 150.96 460.89 159.86 459.25 155.88 459.72 148.38"/><polygon class="cls-5" points="416.85 163.84 418.02 165.72 423.41 164.54 428.09 163.37 422.24 162.44 418.96 162.44 416.85 163.84"/><polygon class="cls-5" points="401.15 143.46 399.05 145.34 401.15 150.96 401.39 155.88 402.56 155.18 406.31 153.77 404.43 151.19 405.37 149.55 408.42 148.62 402.32 148.38 402.09 146.27 401.15 143.46"/><polygon class="cls-5" points="442.62 184.69 444.26 192.89 445.19 191.48 445.66 185.86 447.77 184.92 453.86 187.74 455.73 186.33 454.56 184.69 447.54 183.52 444.72 183.99 442.62 184.69"/><path class="cls-5" d="M381.95,167.12l.94,2.34,2.58-5.39,8-.23,4.92.23,7.26-3.28-.94-1.41-3.51,1.41h-4.22l-1.64-.94a27.84,27.84,0,0,0-4.45,0c-.7.23-5.15,2.11-5.15,2.11Z"/><polygon class="cls-5" points="366.95 185.63 366.95 182.11 370.94 181.65 380.31 181.18 379.6 182.11 370 183.52 368.36 185.39 366.95 185.63"/><polygon class="cls-5" points="372.81 206.94 380.54 208.58 385.46 208.58 387.1 209.05 380.77 210.69 373.04 209.29 372.81 206.94"/><polygon class="cls-16" points="868 453.19 933.6 491.32 902.68 527.87 852.27 493.57 868 453.19"/><polygon class="cls-17" points="528.86 378.39 532.22 407.37 361.67 407.37 359.2 385.08 528.86 378.39"/><polygon class="cls-16" points="363.91 403.48 360.36 402.11 65.54 470.52 115.67 488.73 360.85 433.93 363.91 403.48"/><path class="cls-16" d="M482.8,609.57l-24.27-4c-1.52-.25-2.16-1.75-1.17-2.73,7.75-7.69,33.31-33.32,33.31-36.38,0-3.61,2.17-10.84,2.17-10.84l8-5.42,21-1.81,19.57,48.8Z"/><path class="cls-16" d="M152.8,505.68s-63.35,43.25-76.21,49a.83.83,0,0,0,0,1.56l6.57,3.28a6.13,6.13,0,0,1,1.35.91l5.69,5.1a6.78,6.78,0,0,0,4.2,1.64l7.9.37a7.36,7.36,0,0,1,1.32.18L114,570.08l3.83.2,24.46-4.8,45.51-25.56Z"/><path class="cls-18" d="M105.93,477.12c28.93-2.68,114.5-13.45,153.06-30.71l102.67-25.26v-21L527,398.54l96.64-27.13,297.74,134L891,543.33l22,25.3-160,22.86-85.21,19.6-61.64,6-61.65,10.55L482.8,609.57l25.39-27.13-14.51-42.2-25.38-1.51L292.41,596l-119.67-6.65-41.23-15.52a2.8,2.8,0,0,0-1-.18h-11c-2.12,0-3.19-2.13-1.69-3.38l29.51-24.62,10.88-11-5.18-6.16a12,12,0,0,1-2.78-10.17l2.52-12.64-48.42-23C101.51,481.13,102.53,477.44,105.93,477.12Z"/><polygon class="cls-19" points="543.34 483.36 525.54 488.98 515.23 497.88 521.79 515.68 554.59 533.02 638.92 561.13 740.11 562.53 766.35 555.98 736.36 559.25 644.07 554.1 585.98 536.3 547.56 519.43 530.23 508.19 526.48 498.82 531.16 491.32 543.34 483.36"/><polygon class="cls-19" points="521.32 478.67 497.9 489.92 493.21 499.75 496.02 510.06 488.53 498.35 494.15 485.7 521.32 478.67"/><polygon class="cls-19" points="489 513.34 503.52 536.3 544.75 558.79 609.4 577.53 635.17 576.59 599.56 570.5 549.43 550.82 499.3 521.77 489 513.34"/><polygon class="cls-19" points="671.71 572.84 739.64 570.97 759.79 564.41 734.49 577.99 689.51 577.06 671.71 572.84"/><polygon class="cls-19" points="578.48 550.82 600.97 562.53 617.83 562.53 578.48 550.82"/><polygon class="cls-19" points="534.44 569.09 561.15 580.34 591.13 584.55 560.21 585.96 539.6 577.99 534.44 569.09"/><polygon class="cls-19" points="458.55 464.62 428.09 461.81 422 455.25 440.74 459.46 481.97 457.59 458.55 464.62"/><polygon class="cls-19" points="392.95 459.93 405.61 468.83 436.53 471.18 459.48 471.18 434.18 475.39 393.89 473.99 392.95 459.93"/><polygon class="cls-19" points="345.17 458.06 334.86 460.87 333.93 464.62 346.57 470.71 346.11 483.83 364.38 488.98 418.25 489.45 364.85 483.83 355.94 478.2 360.16 471.18 341.42 464.62 345.17 458.06"/><polygon class="cls-19" points="449.64 487.11 477.29 484.3 485.72 478.67 481.5 488.04 449.64 487.11"/><polygon class="cls-19" points="486.65 469.3 518.04 465.56 521.32 457.59 522.73 462.27 518.04 471.18 486.65 469.3"/><polygon class="cls-19" points="497.9 475.86 495.56 480.55 510.55 475.86 497.9 475.86"/><path class="cls-16" d="M408.88,368.34c-2.34,1.56-3.51,18.27-3.51,22.49s16.16,14.76,16.16,14.76l26.7-28.81S437.7,364.83,434.18,362s-8.43-3.51-10.54-2.81S413.1,365.53,408.88,368.34Z"/><path class="cls-16" d="M202.28,428.07c-3.56,1.29,2.81,15.46,4.22,19.68s5.62,4.22,8.43,4.22,34.43,0,39.35-.7,20.38-7,26.7-9.14,2.11-14.05-4.22-24.6-9.14-5.62-19-6.32S243,413.32,202.28,428.07Z"/><path class="cls-20" d="M416.61,307.91c7.11-7.11,5.62-16.87,9.14-15.46s40.76,11.24,47.08,13.35,11.95,6.32,20.38,21.08S496.73,343,488.29,355,477.05,367.64,464.4,369s-40.76-4.22-40.76-4.22-17.57-30.92-20.38-36.54S408.88,315.64,416.61,307.91Z"/><path class="cls-21" d="M483.84,361.55l8.9-15.46a20.6,20.6,0,0,0-.7-6.56c-.94-2.81-7.5-4.22-9.37-4.68S468.85,333,468.85,333s-12.18-2.81-14.05-3.75-10.07-5.39-10.07-5.39l-30.92-7.26-8.67,22,43.57,27.64Z"/><path class="cls-22" d="M473.89,334.26s-2.81,2.46-2.81,3.87,2.81,3.51,2.81,3.51-5.62,2.81-3.16,6.32,5.62.7,6.32,2.46.35,7.73,4.92,5.27l2.81,3.51,3.51-6,4.45-7.14s-.12-5.5-.7-6.56-4.1-3.51-4.1-3.51-8.78-1.76-10.19-2.11A9.89,9.89,0,0,0,473.89,334.26Z"/><path class="cls-23" d="M487.94,323s-6.32-5.62-8.08-3.51.35,5.27.35,5.27-8.43-1.76-6.68,1.05-1.05,3.87-1.05,3.87l1.41,4.57a18,18,0,0,1,8.78.59,38.08,38.08,0,0,1,9.37,4.68l2.93-2.46S491.46,324.77,487.94,323Z"/><polygon class="cls-24" points="495.09 346.32 492.75 346.09 484.78 359.21 495.09 346.32"/><path class="cls-13" d="M447.54,344.45l5.62-5.27,1.05-3.16,6-5.27,1.05-3.16-4.57-7.73s3.51-5.27,4.57-7.38-1.05-4.57-1.05-4.57l-.7,3.87-5.62,7.73,1.05,4.92-2.46,3.16,2.11,3.51L451.4,336Z"/><path class="cls-25" d="M422.59,319.15s-2.46,2.11-2.11,4.57,1.76-.35,3.16,0-3.16,9.84-.7,10.54,4.92-3.87,6-2.11-5.27,10.89,0,9.14,4.57-6,7.38-7.73,5.27,1.76,6.68-2.11,4.92-1.41,5.62-3.87-3.87-3.75-3.87-3.75Z"/><ellipse class="cls-25" cx="445.95" cy="342.34" rx="1.58" ry="1.76"/><ellipse class="cls-25" cx="458.08" cy="349.89" rx="1.05" ry="1.23"/><circle class="cls-25" cx="464.23" cy="342.16" r="0.53"/><path class="cls-26" d="M252.17,418.94c4.55,8,12.65,7,19.68,4.92s26-14.05,30.92-16.16,28.11-11.24,28.11-11.24l5.62-23.19L245.85,388v9.14C245.85,402.07,249.36,414,252.17,418.94Z"/><path class="cls-7" d="M246.55,376.77l6,14.05,7.38,8.43V414l-2.11,7-3.16,2.11L248,413.32s-4.57-5.62-4.57-6.68-1.05-7.38-1.05-7.38S242.33,381,246.55,376.77Z"/><path class="cls-9" d="M336.5,373.26s-19.68-19-22.49-21.08-7-2.11-10.54-.7-54.11,20.38-54.11,20.38-4.92,2.11-4.92,4.92A54.62,54.62,0,0,0,245.85,388c.7,2.11,10.54,9.84,12.65,12.65S317.53,380.29,336.5,373.26Z"/><polygon class="cls-8" points="254.28 396.45 266.58 399.61 263.42 404.18 262.01 408.75 259.9 414.02 257.44 405.59 253.58 401.37 254.28 396.45"/><path class="cls-23" d="M276.77,396.1s-4.57-.53-4-2.46,1.41-1.41,1.41-1.41-5.27-1.58-4.39-4.22.53-5.27,3.34-7.73c0,0-2.28-3.16-1.23-4.39s2.81.18,2.81.18,3.16-3.16,5.09-1.23.7,3.16,1.76,3.87,7-4.57,10-.7c0,0-.35-4.57,1.23-3.51s3,2.11,3,2.11,4.57-2.81,7.38-.53,1.05,4.22,1.05,4.22,5.8-1.49,7.91,2.46Z"/><path class="cls-22" d="M276.77,396.1s-1.23,2.28.35,3.69,3.34,5.27,5.09,4.22,3-4,3-4,1.05,8.43,4,5.8,3.16,0,4.92-1.41,1.93-5.8,1.93-5.8,1.76,1.58,2.64-.35c7.64-1.41,6-3.34,5.27-5.27,0,0,3.87-2.64,2.46-4.22,0,0,.92,2.4,2.11,3.16s5.45,2.28,5.09-.35a11.06,11.06,0,0,0-2.28-4.92s.88-.79.7-3.87Z"/><path class="cls-23" d="M300.78,358.39c-1.71,2.42-4.1,1.87-3.28,3.4s-.35,4.45,2.23,5,5,6.44,5.74,2.93c0,0,6.09,2.46,5.86-1.41s-3.87-3.16-3.75-4.68,3.75-3-.12-4.22C307.45,359.44,302.18,356.39,300.78,358.39Z"/><path class="cls-27" d="M289.42,365.3c-1.08,1.22-5.27-.47-5-1.29s2.23-3.4,3.16-2.46S290.35,364.24,289.42,365.3Z"/><path class="cls-27" d="M252.52,382.75c.35,4.45,2.69,8,3.75,7.61s1.29-3.4,1.17-5.27-1.41-2.81-2-1.76S252.52,382.75,252.52,382.75Z"/><path class="cls-8" d="M460.89,368.34c-11.24-13.35-26.7-33-28.81-35.84s-10.54-6.32-13.35-7.73-5.62-8.43-7.73-11.24-16.87,4.22-27.41,7.73-44.27,17.57-47.08,19-6.32,2.81-8.43,4.22-4.22,27.41-4.22,27.41L440.51,408.4Z"/><path class="cls-24" d="M382.65,338.59v9.84c0,1.87,2.81,16.87,3.28,21.55s1.87,16.4,1.87,16.4l38.89,23.42s35.61-38.42,34.2-41.46-17.8-20.38-21.08-24.13-8.9-11.95-8.9-11.95-15.93-2.58-21.55-1.64S386.86,333,386.86,333A41.87,41.87,0,0,0,382.65,338.59Z"/><path class="cls-7" d="M385.46,338.59l-8.9-14.05-6.09-1.41s-39.82,12.18-41.7,13.12-1.41,3.75-1.64,9.14,5.39,33,5.39,33l54.35,11.24,7.5-15.93S385.93,341.87,385.46,338.59Z"/><path class="cls-9" d="M305.58,454.08s-12.65-4.92-16.16-7S281,433,279.58,428.78s-4.22-8.43,5.62-13.35,37.25-18.27,40.76-19,54.81,23.19,59.73,28.81,2.11,14.05,3.51,20.38S378,457.59,378,457.59Z"/><path class="cls-15" d="M332.52,431.82c-4.22,0-18.27,2.81-28.58,7s-14.52,8.2-14.52,8.2l11.24,8.2,87.61,1.41,6.56-10.78-44-17.8Z"/><polygon class="cls-28" points="334.39 424.33 326.43 431.35 327.37 439.79 335.33 441.66 344.7 436.04 334.39 424.33"/><path class="cls-29" d="M322.09,414.37s4.22,8.43,6.68,10.89,8.08,4.92,8.08,4.92l59.38,13-4.57,6.32-50.6-11.24h-5.62l-4.92-2.11-4.1-4.8Z"/><path class="cls-8" d="M421.53,405.59a11.45,11.45,0,0,1-.77,2.56c-3.39,9-16.8,37.49-16.8,37.49s-57.39-10-69.53-14.36a12.51,12.51,0,0,1-1.25-.51,2.61,2.61,0,0,1-.9-.58c-.12-.15-.25-.33-.39-.53a80.84,80.84,0,0,1-4.91-8.76c-3.4-6.82-6.81-15-5.95-16.7,1.19-2.39,7.25-25.66,10.53-33,.57-1.28,1.05-2.07,1.42-2.17,4.92-1.41,68.17,14.76,71,16.16S421.53,402.78,421.53,405.59Z"/><path class="cls-24" d="M420.77,408.15c-3.39,9-16.8,37.49-16.8,37.49s-57.39-10-69.53-14.36l0,.54-1.21-1.05a2.61,2.61,0,0,1-.9-.58c-.12-.15-.25-.33-.39-.53l-6.59-5.73,1.69-3,18.65-33.57,3.07.66,10,2.15,17.8,4.22s25.77,5.15,28.58,5.15,6.09,3.75,7.49,5.16C413.59,405.61,418,407.22,420.77,408.15Z"/><path class="cls-9" d="M348.71,388c-.79,1.78-2.63,4.57-4.48,9.18a124.65,124.65,0,0,1-6.56,13.58l-2.35,8.9-.89,11.64,0,.54-1.21-1.05-1.29-1.12-6.59-5.73,1.69-3c-3.4-6.82-6.81-15-5.95-16.7,1.19-2.39,7.25-25.66,10.53-33a3.19,3.19,0,0,1,.95-.3c1.41,0,10.78,9.84,10.78,9.84s4.68,3.75,5.62,5.15C349.24,386.39,349.12,387,348.71,388Z"/><path class="cls-23" d="M365.78,392.23s-3-.47-2.58,2.34,6.56,3,6.56,3a5.41,5.41,0,0,0-2.58,5.86s-2.81.94-1.41,6.79,5.62,4.22,5.62,4.22,1.64,1.64,4.22-.47a5.74,5.74,0,0,0,4.1,4.22s.82,3.51,4.1,3,3.51-4.45,3.51-4.45a2,2,0,0,0,1.87-1.87s2.81,2.11,4.22,1.17,4-4.45,4.22-6.09c0,0,5.15,3.75,6.32.7a5.85,5.85,0,0,0-.23-5.15s4.45-1.64,4.22-4.68Z"/><polygon class="cls-15" points="369.88 377.83 370.23 382.4 376.91 386.61 382.88 389.77 387.8 395.4 388.15 397.86 387.45 408.4 379.72 418.24 386.05 429.83 393.42 431.94 395.53 440.72 396.24 443.18 397.64 438.97 395.53 430.18 388.5 428.07 384.99 417.53 389.21 408.4 389.56 399.61 393.42 397.86 390.96 393.64 384.99 389.42 374.1 383.45 371.64 380.99 369.88 377.83"/><path class="cls-27" d="M350.56,418.94s-1.87-4.45.47-4.45,6.32-3.75,6.79-1.64,4.92,2.81,3.75,6.09c0,0,1.64,2.81-.7,4.22s-3.75-1.87-3.75-1.87-2.58,3.51-4.45,2.58-.7-3.51-.7-3.51Z"/><circle class="cls-27" cx="353.84" cy="407.46" r="1.87"/><circle class="cls-27" cx="360.87" cy="412.47" r="0.96" transform="translate(-157.08 591.58) rotate(-67.89)"/><path class="cls-30" d="M358.05,437s-1.17-3,0-3,1.17-5.39,4.22-2.81,4.45,6.09,7.26,5.15,6.09.7,6.09.7,1.64-4.45,3-3a13.52,13.52,0,0,1,2.34,3.51s1.17-2.34,2.81-.94c0,0,3-1.64,2.34,1.41,0,0,.94.23,1.41,2.11s-2.81.7-2.81.7l.47,1.64Z"/><path class="cls-30" d="M377,440.49s-.94,2.11,0,3.51,1.64-1.41,1.64-1.41-.23,5.39,1.41,5.15,1.41-4.68,1.41-4.68,0,2.58.94,2.34.7-3.51.7-3.51Z"/><polygon class="cls-26" points="313.13 357.1 314.54 362.19 320.69 365 330.64 366.23 330 362.54 313.13 357.1"/><path class="cls-26" d="M330.65,366.23l23-1.87,13.65-3.61a3,3,0,0,0,2.2-3l-.62-18.26-.7-7.5-12.18-.47L328.77,358.5Z"/><path class="cls-9" d="M364.61,323.37c-.46,6.48-.93,18.44-1.19,25.85-.13,3.85-.22,6.47-.22,6.47s-5.62,4.22-8.43,4.22-30.22,4.22-34.43,2.81a29.83,29.83,0,0,1-5.63-2.6,16.38,16.38,0,0,0-2.1-6.54c-.26-.43-1.81-.09-1.54-1.52.3-1.66.72-3.89,1.25-6.51,1.67-8.14,4.59-20.07,9.42-30.63C352.66,313.53,365.31,313.53,364.61,323.37Z"/><path class="cls-31" d="M363.42,349.22c-.13,3.85-.22,6.47-.22,6.47s-5.62,4.22-8.43,4.22-30.22,4.22-34.43,2.81a29.83,29.83,0,0,1-5.63-2.6l-3.64-8.05-.8-1.76a29,29,0,0,1,2.05-4.74,2.82,2.82,0,0,1,.76-.88c1.17-.7,5.85-1.64,5.85-1.64l17.1,1.88c4.22.46,14.05,1.17,14.05,1.17s8.2-1.64,9.37-.93A13.4,13.4,0,0,1,363.42,349.22Z"/><path class="cls-32" d="M329.57,325.94s-.79,4.21-.33,6.32,2.11-2.81,2.34-1.64-.23,5.62.7,6.09,3-1.17,3-1.17.23,4.45,1.87,4a22.17,22.17,0,0,0,3.75-1.64s-.94,3.51.23,3.28.94-6.56.94-6.56,2.27,3.22,1.72-2.14"/><polygon class="cls-33" points="318.93 322.19 337.2 332.5 353.37 340 365.31 338.83 367.42 329.22 323.15 320.09 318.93 322.19"/><polygon class="cls-26" points="363.44 349.6 382.18 334.38 389.91 331.56 399.05 327.58 412.43 320.83 406.54 313.53 364.61 323.6 363.44 349.6"/><path class="cls-8" d="M412.43,320.83l-28.84,9.8-30.43,5.58c-1.47-.56-2.92-1.15-4.37-1.73-2.23-.9-4.42-1.83-6.56-2.75l-2.12-.92c-10.59-4.65-19.4-9.14-22.59-11-2.28-2.81-4.13-4.49-4.39-9.66a71.23,71.23,0,0,1,.7-9.49c.65-2.89-.11-1.4,2.28-5.45,5.76-9.75,8.17-14.48,11.1-17a12.63,12.63,0,0,1,6.47-2.7c7.73-1.41,20.38-3.51,20.38-3.51s43.57-2.11,47.08-.7,21.08,16.87,21.08,16.87.25,2,.61,4.44c.24,1.57.51,3.3.79,4.69C424.32,300.77,419.73,309.44,412.43,320.83Z"/><path class="cls-24" d="M412.43,320.83l-28.84,9.8-30.43,5.58c-1.47-.56-2.92-1.15-4.37-1.73-2.23-.9-4.42-1.83-6.56-2.75l-2.12-.92c-1.17-9.8-1-25.83,12.08-27.12q2.37-.23,4.45-.46c15.28-1.67,19.21-3,19.21-3l39.35-10.77a14.15,14.15,0,0,1,4.69,1.17,30.58,30.58,0,0,1,3,2.1c.24,1.57.51,3.3.79,4.69C424.32,300.77,419.73,309.44,412.43,320.83Z"/><path class="cls-9" d="M353,301.23l2.81,7.38-7,25.87c-2.23-.9-4.42-1.83-6.56-2.75l-2.12-.92c-10.59-4.65-19.4-9.14-22.59-11-5.62-6.5-5.8-5.09-4.57-14.05,1.05-3.34.62-6.24,3.16-10.54,5.76-9.75,8.17-14.48,11.1-17l3.42,9s6.56,8.66,9.6,10.3S353,301.23,353,301.23Z"/><polygon class="cls-8" points="351.26 300.88 361.8 302.63 358.99 307.2 355.48 310.72 351.26 300.88"/><path class="cls-24" d="M328.71,324.12a9.87,9.87,0,0,0,.86,1.83l-12-6.09Z"/><polygon class="cls-24" points="333.06 327.71 340.58 331.15 336.97 329.69 333.06 327.71"/><path class="cls-24" d="M350.09,330.16l-1.3,4.31-4.94-2a2.4,2.4,0,0,0,2.41-3Z"/><path class="cls-34" d="M347.23,333.22l2.45-2.63a.42.42,0,0,1,.68.1l2.29,4.52a.42.42,0,0,1-.53.58l-4.75-1.89A.42.42,0,0,1,347.23,333.22Z"/><polygon class="cls-13" points="374.45 281.67 375.39 284.71 384.76 290.57 385.46 292.91 387.57 292.91 389.91 296.43 387.8 304.39 385.23 310.48 384.76 315.63 387.57 318.92 385.93 315.17 386.63 310.48 390.14 303.69 392.49 294.79 388.5 291.74 388.27 290.1 385.93 289.87 376.56 283.78 374.45 281.67"/><polygon class="cls-13" points="343.53 273.94 346.34 276.28 354.54 286.12 347.98 275.34 344.93 273.47 343.53 273.94"/><polygon class="cls-13" points="388.27 270.89 392.02 275.11 390.14 270.66 388.27 270.89"/><path class="cls-32" d="M343.84,332.47l-3.27-1.32-7.51-3.44-3.5-1.77a9.87,9.87,0,0,1-.86-1.83l11.54,4.4,6,1A2.4,2.4,0,0,1,343.84,332.47Z"/><path class="cls-23" d="M329.57,325.94l3.5,1.77-3.36-1.54Z"/><path class="cls-23" d="M340.58,331.15l3.27,1.32-.32,0Z"/><path class="cls-23" d="M346.26,329.52l-6-1-11.54-4.4c-.34-1-.4-2.16.77-2.39,0,0-1.64-4.92,2.58-5.86,0,0,6.09-5.62,7.26-.7s1.17,2.11,3.75,3.28.7,4,.7,4.92.94,0,1.88,1.41a4,4,0,0,1,.23,3.28A5.55,5.55,0,0,1,346.26,329.52Z"/><path class="cls-18" d="M750.42,451.27H401.15L418.1,403a68.54,68.54,0,0,1,64.68-45.86H750.42Z"/><path class="cls-35" d="M482.26,418.22l-3.4-.9,4.14-15.6a42.57,42.57,0,0,1,41.1-31.62h97.48v3.51H524.11a39,39,0,0,0-37.71,29Z"/><rect class="cls-35" x="437.55" y="410.86" width="19.02" height="3.51" transform="translate(-36.46 781.83) rotate(-80.07)"/><path class="cls-35" d="M457.73,386.31l-3.05-1.74.8-1.41a44.62,44.62,0,0,1,38.66-22.44h42.64v3.51H494.14a41.1,41.1,0,0,0-35.61,20.66Z"/><path class="cls-35" d="M542.93,415.18l-3.39-.92,1.75-6.44a30.53,30.53,0,0,1,29.41-22.49h9.89v3.51h-9.89a27,27,0,0,0-26,19.9Z"/><rect class="cls-35" x="619.24" y="382.75" width="89.01" height="3.51"/><rect class="cls-35" x="688.58" y="364.94" width="40.76" height="3.51"/><path class="cls-36" d="M750.42,451.27H539.13l5.11-22.58a25.81,25.81,0,0,1,3-7.56c7.17-12,21.67-19.75,37.72-19.75h165.5Z"/><path class="cls-37" d="M389.25,452.67s-3.06-12.24,6.12-15.3,13.77,3.06,13.77,3.06,2.3-17.6,14.54-19.13,16.07,9.95,16.83,17.6c0,0,6.38-5.87,8.93,1.79,0,0,3.06-5.61,7.65-5.61s8.67,6.63,8.67,6.63-4.08-8.67,5.1-12.24S484.12,432,484.12,432s8.16-21.42,32.65-13.26,17.34,28.06,17.34,28.06,6.25-4.46,8.54-.26-1.91,6.12-1.91,6.12Z"/><circle class="cls-37" cx="519.92" cy="405.12" r="3.28"/><circle class="cls-37" cx="458.08" cy="425.26" r="1.87"/><circle class="cls-37" cx="554.12" cy="428.07" r="4.68"/><circle class="cls-37" cx="408.42" cy="416.36" r="4.68"/><circle class="cls-37" cx="379.37" cy="441.19" r="3.28"/><circle class="cls-37" cx="384.05" cy="451.97" r="1.87"/><circle class="cls-37" cx="388.74" cy="425.73" r="1.41"/><circle class="cls-37" cx="370.47" cy="421.98" r="2.34"/><path class="cls-27" d="M720.2,411.91l5.62-27.41,10.54-18.27,18.27-19,15.46-5.62s11.24,4.22,14.05,6.32,7.73,10.54,7.73,10.54l4.22,14.05,10.54,4.22,9.84,8.43,6.32,22.49L808,445.64Z"/><polygon class="cls-38" points="766.58 363.42 756.74 380.29 760.26 393.64 765.14 402.55 772.2 401.37 770.8 390.83 779.93 375.37 796.1 372.56 791.88 358.5 780.64 355.69 766.58 363.42"/><polygon class="cls-38" points="789.07 390.83 797.5 383.8 809.45 385.21 816.48 385.21 819.99 402.78 786.26 403.48 789.07 390.83"/><path class="cls-39" d="M552.24,497.65s63.95,27.76,69.22,29.16,111.74,15.46,125.44,15.46,115.25,2.11,130.71-4.57S904,527.51,904,527.51l16.16-21.79-17.92-9.14Z"/><path class="cls-27" d="M899.28,519.59c-5.9,3.94-29.52,3.94-39.35,6.89s-78.71,7.87-107.24,8.85c-5.22.18-12.78.06-21.73-.29-40-1.57-107.7-7.86-119-13.49-13.77-6.89-61-21.64-62-24.6s-1-20.66,2-26.56,10.82-7.87,10.82-7.87l2-8.85,12.79-11.81s31.48-22.63,44.27-29.52,51.15-8.85,54.1-8.85,57.06,3.94,86.58,3,120,49.19,122,52.14,17.71,16.73,19.68,20.66c.51,1,.82,3.9.9,7.7C905.34,498,903.67,516.66,899.28,519.59Z"/><path class="cls-38" d="M899.28,519.59c-5.9,3.94-29.52,3.94-39.35,6.89s-78.71,7.87-107.24,8.85c-5.22.18-12.78.06-21.73-.29L720.2,523.65s-6.32-3.51-4.22-13.35,23.19-19.68,23.19-19.68l22.49-13.35,33-3.51,16.16,8.43s15.46-5.62,19-7.73,19.68.7,19.68.7,23.89,2.11,28.11,4.22,18.27.7,26,6.32A13.52,13.52,0,0,1,905.1,487C905.34,498,903.67,516.66,899.28,519.59Z"/><path class="cls-38" d="M671,492.38s6,9.49,9.49,7.73,6.68-3.51,6.68-3.51,2.81,2.11,4.22.7c0,0,5.62,10.89,7.38,9.49s4.57,5.62,9.84,3.87,10.19,5.27,12.3,1.76,3.87-18.27,3.87-18.27l-32-5.62Z"/><path class="cls-40" d="M581.06,458.29s-2.81,8.78-.35,10.89,12.3,3.16,16.51.35,6.32-6.68,8.43-6.32,2.81,9.84,5.62,4.92-.7-21.08-.7-21.08Z"/><path class="cls-40" d="M631,489.92s1.76,2.46,2.81,4.22,6,7.38,8.08,8.43,8.43-1.05,10.89-1.41,11.95.35,13.35-2.46,6.32-9.84.7-9.84S631,489.92,631,489.92Z"/><path class="cls-41" d="M741.09,397.3c6.12,0,11.81,3.94,11.81,3.94s9.18-2.62,12.24,1.31,29.3,52.91,29.3,52.91.44,24.49-3.5,29.3-12.68,2.19-12.68,2.19-.44,8.31-7.87,7c0,0,3.06,4.81-.44,8.31a14.9,14.9,0,0,1-8.31,3.94s7.87,7.87-1.75,14.43-13.12-3.94-13.12-3.94-5.68,1.75-7-5.25c0,0-3.94,4.81-8.31,1.75s-2.19-7.87-2.19-7.87-5.25-.44-4.37-4.37c0,0-8.31,7.87-10.49,4.37s-2.19,1.75-5.68-2.19-5.68-.87-8.31-1.75-7.87-9.18-7.87-9.18-5.25,3.5-7.43,2.19-4.81,5.25-8.75,3.5-5.25-7-7.43-7.43-5.25,5.25-10.06,6.12-11.81,4.81-14.43,2.62-9.18-3.06-8.75-7.43-.87,0-7-.87a11,11,0,0,1-8.31-5.68s-12.68-.87-13.56-2.62,4.81-16.18,3.5-19.68-7-4.81-11.81-.44-15.74,5.25-16.18,3.06.87-9.18-.87-10.93-7-3.5-5.68-9.18-8.75.87-7-3.5,14.87-11.37,18.37-12.68-4.37-5.25,3.5-7.87S599,417,606,416.54s-3.06-7.87,8.31-8.75,13.77-2.62,17.6-4.37,13.45-3.94,17.38-2.19,8.75-7.43,19.68-4.81,14-.44,14-.44,10.93-7.43,14,.44c0,0,11.37-6.12,17.49-1.31s10.93,5.25,14,3.94S741.09,397.3,741.09,397.3Z"/><path class="cls-42" d="M628.27,422.23s-9.62-1.31-9.18,3.06,7.43,3.5,7.43,3.5-8.31,4.37-5.25,8.75,10.06-.44,10.06-.44-5.25,7.43,2.19,9.18,7.87-2.62,7.87-2.62.44,6.12,5.25,6.12,7-2.19,10.93-1.75,6.12,2.62,10.06-.44,4.81,2.62,10.93-1.31,2.19-6.56,2.19-6.56-5.25,6.12-6.56,4.37-6.56,1.31-9.62,0-12.68,2.62-15.74-.44-8.31-4.37-11.37-4.37-.87-3.94-2.62-6.56-5.25,2.62-7,.87,2.62-6.12,1.31-7.43S628.27,422.23,628.27,422.23Z"/><path class="cls-42" d="M690.36,456.33s-13.12,7.43-9.18,11.81,14.43-4.81,15.74-7.43,2.62,9.62,9.62,9.62,8.31-3.94,8.31-3.94,2.19,7,7,7,6.12-6.56,6.12-6.56,7.87,7.87,14,5.68,7-5.68,7-5.68S760.33,476,766.45,469s-2.62-14.43-2.62-14.43,4.37,7.43-1.31,10.06S749,459,746.77,459.83s-2.62,6.12-7.43,6.12-8.75-6.56-11.81-5.68-2.62,6.56-7.87,4.37-3.94-5.68-7-3.94-5.68,5.68-12.68-3.5C700,457.21,682.93,465.08,690.36,456.33Z"/><path class="cls-43" d="M656.69,413.48l8.75-1.31s3.06-.44,7,6.12v7s-7.43,3.06-10.93,2.62a14.07,14.07,0,0,1-8.31-4.81C651.88,421.35,653.63,415.67,656.69,413.48Z"/><path class="cls-43" d="M874.9,445.4c-.82,1.9-.79,5.33-1,8.27a12.53,12.53,0,0,1-.79,4.41,5.32,5.32,0,0,1-.64.94c-2.34,2.92-9,7.81-9,7.81S812.4,465,786.39,448.55c-5.26-3.32-9.5-7.25-12.07-11.89a41.7,41.7,0,0,1-6.12-.44c-1.52-.3-5.84-4.67-8.89-7.58a19.25,19.25,0,0,0-2.92-2.48c-1.75-.88-4.81,2.19-5.69.87s-.44-15.31-.44-15.31l6.12-6.12c1.75-1.75,10.06-7.43,11.37-7.43s7.87,0,10.06-1.31,10.93-3.94,14.87-3.94,17.06.87,21,2.19,12.68,4.81,13.56,6.56,3.49,5.69,10.06,8.75,18.8,10.49,23.61,12.24S876.21,442.34,874.9,445.4Z"/><path class="cls-44" d="M873.93,453.68a12.53,12.53,0,0,1-.79,4.41,5.32,5.32,0,0,1-.64.94c-2.34,2.92-9,7.81-9,7.81S812.4,465,786.39,448.55c-5.26-3.32-9.5-7.25-12.07-11.89a41.7,41.7,0,0,1-6.12-.44c-1.52-.3-5.84-4.67-8.89-7.58-.68-5.35-1.16-11.11-1.16-11.11v-7l4.38-4.06,9,7.58,13.35,2.11,17.57-.7,19.68,4.92,16.87,7,14.76,8.43,14.76,7,4.92,8.43Z"/><path class="cls-38" d="M872.51,459c-2.34,2.92-9,7.81-9,7.81S812.4,465,786.39,448.55c-1.19-3.59-2.37-7.08-2.94-8.52a43.56,43.56,0,0,1-2.11-7.73s2.11-5.62,5.62-7S808,419.64,808,419.64l14.05,4.22s11.95,9.84,14.05,12.65,13.35,4.22,21.79,6.32,9.14,6.32,10.54,8.43C869.1,452.19,870.79,455.55,872.51,459Z"/><polygon class="cls-45" points="239.37 593.76 233.78 574.76 227.07 585.94 215.89 574.76 212.54 583.7 194.65 576.99 194.65 584.82 179 580.35 179 589.29 239.37 593.76"/><polygon class="cls-46" points="398.11 555.75 398.11 541.22 407.05 526.69 430.52 523.33 454 538.98 446.18 549.04 408.17 561.34 398.11 555.75"/></g><g id="bloqueados"><path class="cls-47" d="M250.06,195.23,312.37,191l1.41-2.34h3.75l23-35.14,5.62-7.5.47-9.84s-.94-8.9-2.34-8.9l-16.4-1.41-12.18.47-14.52-.47-23.89,4.68-3.75,7-19.21,21.08L243,172.74l-.94,6.09-2.34,1.87,6.56,13.12Zm78.24-46.85,4.68-2.81,3.75-8.9,1.87-2.34L333,145.57,321.74,154Zm-13.12,14.05,3.28-2.34-14.05,14.05Z"/><path class="cls-48" d="M904,527.51l3.83-5.16L916.12,512l17.48-20.65-39.34-22.87c-4.39-4.27-8.76-8.4-9.74-9.87-.39-.59-4.29-3-10.51-6.59.11-2.49.22-5,.88-6.59,1.31-3.06-9.18-21-14-22.74s-17.06-9.18-23.61-12.24-9.18-7-10.06-8.75l-.06-.1c8.31-11-3.67-13.55-3.67-13.55s15.46-6.32,7.73-22.49c-7-14.67-16.34-9.08-18-7.92,1.25-1,6.2-5.76-3.78-13.86-11.24-9.14-20.38,1.41-20.38,1.41,2.11-6.32,2.11-8.43,2.11-8.43S801,331.8,801,326.18s-9.14-6.32-9.14-6.32,23.89,0,26-33.73-19-30.92-19-30.92,9.84-7,.7-16.87-19,1.41-19,1.41.7-11.95-7.73-19c-3-2.49-7-2.86-11-2.3A35.37,35.37,0,0,0,749,210.22c11.37-9.82,6.78-13.94,3.55-15.43,2.46.46,5.85-.38,3.48-9.87-2.95-11.78-11.81-10.72-14.61-10.07,2.5-.82,9.3-4.17,4.06-15.22-4.22-8.92-11.26-8.12-15.48-6.6,1.09-1.36,1.26-3.8-2.09-8.15-7-9.14-14.05-4.22-14.05-4.22s11.95-14.76-8.43-30.22-42.16,7-42.16,7,.7-16.16-19-14.76-20.38,19.68-20.38,19.68c-11.95-4.22-17.57,9.84-17.57,9.84a17.08,17.08,0,0,0-3.51-13.35s9.14,3.51,9.14-7.73-9.84-8.43-9.84-8.43,9.14-4.92,3.51-16.16-20.38-2.81-20.38-2.81,11.24-7.73-2.11-19.68c-9.83-8.79-18.5-2.36-22.41,1.65,1.54-2.43,2.85-6.46-.08-11.49-4.92-8.43-14.76-2.11-14.76-2.11s4.22-28.81-21.79-21.79c-23.39,6.32-15.51,22.87-13.69,26.13-1.31-2.06-6.65-9-18.64-7.16-14.05,2.11-18.27,15.46-18.27,15.46s-9.14-3.51-14.76,3.51,1.41,19,1.41,19-5.62-2.81-8.43.7S456,96.38,456,96.38s-6.32-2.11-10.54,1.41S446.83,109,446.83,109s-11.24-2.11-13.35,10.54,9.14,17.57,9.14,17.57a13.16,13.16,0,0,0-6.05,5.27L426,142.06l-25.06-.23-.81,2.57-1.06.94.67,1.78,1.58,6.71,0,.7-.64,2.76-6.79,1.41-6.32.94-8.2,6.56,1.64,5.62,1.17,7.5-6.56,1.17-10.78.7-.94,3,.11,1.09-23.5-27.7-23.19,40.05-53.76,3.16.22.34h-.22l12.29,18.77,17.54,27.29,2.41,1.64h-.06l1.78,2.08,2,2.84.35,3.28,20.41,31.12c-1.17,2-2.52,4.33-4.13,7.06-2.39,4-1.64,2.55-2.28,5.45a29.31,29.31,0,0,0-.38,3.08,18.17,18.17,0,0,1-.5,2c-1.23,9-1.05,7.55,4.57,14.05l1.76,1a162.57,162.57,0,0,0-7,24.74,29,29,0,0,0-2.05,4.74l.17.37a12.91,12.91,0,0,0-7,.8c-3.51,1.41-54.11,20.38-54.11,20.38s-4.92,2.11-4.92,4.92c0,.9.07,2.16.19,3.53-2.3,6.76-2.3,19-2.3,19s1.05,6.32,1.05,7.38c0,.76,2.38,3.91,3.71,5.59-7.41,1.88-18.82,6.43-44.82,15.84-2,.73-.83,5.65.83,10.53L65.54,470.53l50.13,18.21,1-.22,36.14,17.16s-63.35,43.25-76.21,49a.83.83,0,0,0,0,1.56l6.57,3.28a6.13,6.13,0,0,1,1.35.91l5.69,5.1a6.78,6.78,0,0,0,4.2,1.64l7.9.37a7.36,7.36,0,0,1,1.32.18L114,570.08l3.83.2c-1.5,1.25-.43,3.38,1.69,3.38h11a2.8,2.8,0,0,1,1,.18l41.23,15.52,28.41,1.58,38.21,2.83-.21-.72,53.26,3,112.31-36.57,3.45,1.92,38-12.3,3.25-4.18,18.87-6.14,25.38,1.51,4.12,12-4.95,3.37s-2.17,7.23-2.17,10.84c0,3.07-25.57,28.69-33.31,36.38-1,1-.34,2.48,1.17,2.73l24.27,4,61.65,18.09,61.65-10.55,61.64-6,85.21-19.6,160-22.86-22-25.3,12.58-15.67Z"/><path class="cls-49" d="M652.8,371.8A152.8,152.8,0,1,1,500,219,152.8,152.8,0,0,1,652.8,371.8Zm0,0"/><path class="cls-50" d="M623.31,462a11.85,11.85,0,0,0-1.73-3.28,13.37,13.37,0,0,0-2.42-6.43,15.13,15.13,0,0,0-2.79-7,15.66,15.66,0,0,0-2.08-4.63,13.05,13.05,0,0,0-2.28-5.5,14.59,14.59,0,0,0-2.46-6.51,12.53,12.53,0,0,0-2.3-5.53,14,14,0,0,0-2.44-6.47,11.93,11.93,0,0,0-2.32-5.59,13.36,13.36,0,0,0-2.41-6.42,14.88,14.88,0,0,0-2.46-6.49,13,13,0,0,0-2.56-5.93,13,13,0,0,0-2.14-4.68,14.49,14.49,0,0,0-2.46-6.5,12.41,12.41,0,0,0-2.31-5.56,13.85,13.85,0,0,0-2.43-6.45,12,12,0,0,0-2.95-6.37,14.41,14.41,0,0,0-11.07-9.75l-.27-.59a51.66,51.66,0,0,0-2.39-6.11,51.72,51.72,0,0,0-2.39-6.12,52.14,52.14,0,0,0-2.39-6.11,52.37,52.37,0,0,0-4.05-9.42c-.23-.54-.48-1.06-.72-1.59a51.66,51.66,0,0,0-2.39-6.11,51.77,51.77,0,0,0-2.39-6.12,52.19,52.19,0,0,0-2.39-6.11,52.38,52.38,0,0,0-7.22-14.44,52.51,52.51,0,0,0-97.75,26.68V352.7H430.65A14.37,14.37,0,0,0,416.32,367v88.4A13.11,13.11,0,0,0,418.8,463a14.78,14.78,0,0,0,2.45,6.47,12.83,12.83,0,0,0,2.31,5.6,14.15,14.15,0,0,0,2.42,6.43,12.3,12.3,0,0,0,2.57,6,12.49,12.49,0,0,0,2.16,4.72,13.76,13.76,0,0,0,2.42,6.43,11.86,11.86,0,0,0,2.35,5.64,13.13,13.13,0,0,0,2.4,6.4c0,.29.1.58.16.87A152.75,152.75,0,0,0,623.31,462Zm0,0"/><path class="cls-51" d="M583.45,453a14.37,14.37,0,0,1-14.32,14.32H430.65A14.37,14.37,0,0,1,416.32,453V367a14.37,14.37,0,0,1,14.33-14.32H569.12A14.37,14.37,0,0,1,583.45,367Zm0,0"/><path class="cls-52" d="M583.45,453a14.37,14.37,0,0,1-14.32,14.32H430.65A14.37,14.37,0,0,1,416.32,453V367a14.37,14.37,0,0,1,14.33-14.32H569.12A14.37,14.37,0,0,1,583.45,367Zm0,0"/><path class="cls-53" d="M569.12,352.7h-9.55A14.37,14.37,0,0,1,573.9,367v86a14.37,14.37,0,0,1-14.32,14.32h9.55A14.37,14.37,0,0,0,583.45,453V367a14.37,14.37,0,0,0-14.32-14.32Zm0,0"/><path class="cls-51" d="M461.69,352.7V316.89a38.2,38.2,0,0,1,76.4,0V352.7h14.33V316.89a52.53,52.53,0,0,0-105.05,0V352.7Zm0,0"/><path class="cls-54" d="M519,398.06a19.1,19.1,0,1,0-31,14.9V429.1a11.94,11.94,0,0,0,23.88,0V413a19.05,19.05,0,0,0,7.16-14.9Zm0,0"/><path class="cls-55" d="M492.73,429.1V413a19.08,19.08,0,0,1,9.55-33.83,19.5,19.5,0,0,0-2.39-.16,19.09,19.09,0,0,0-11.94,34V429.1A11.94,11.94,0,0,0,499.89,441a11.69,11.69,0,0,0,2.39-.25,11.93,11.93,0,0,1-9.55-11.69Zm0,0"/><path class="cls-56" d="M499.89,264.36a52.58,52.58,0,0,0-52.52,52.52v7.16a7.16,7.16,0,0,0,7.16-7.16,45.36,45.36,0,1,1,90.73,0,7.16,7.16,0,0,0,7.16,7.16v-7.16a52.58,52.58,0,0,0-52.53-52.52Zm0,0"/><path class="cls-52" d="M507,398.06a7.16,7.16,0,1,1-7.16-7.16,7.16,7.16,0,0,1,7.16,7.16Zm0,0"/><path class="cls-53" d="M499.89,390.9a7.3,7.3,0,0,0-1.19.12,7.14,7.14,0,0,1,0,14.09,7.65,7.65,0,0,0,1.19.12,7.16,7.16,0,1,0,0-14.33Zm0,0"/><rect class="cls-57" x="416.32" y="364.64" width="167.13" height="9.55"/><rect class="cls-57" x="416.32" y="445.81" width="167.13" height="9.55"/><rect class="cls-58" x="447.36" y="350.31" width="14.32" height="2.39"/><rect class="cls-58" x="538.09" y="350.31" width="14.32" height="2.39"/></g><g id="camino_bloqueado" data-name="camino bloqueado"><path class="cls-59" d="M518.57,146.4c22.24-47.15,37.8-93.6,42.2-140.77"/><path class="cls-59" d="M995.8,725.36c-320.06,37.88-818.47,96-713.77-155.29,14.4-34.57,30.53-67.68,47.57-99.6"/></g></g></svg>