<svg xmlns="http://www.w3.org/2000/svg" width="1000" height="1000" viewBox="0 0 1000 1000"><defs><style>.cls-1{isolation:isolate;}.cls-2{fill:#7a664b;}.cls-3{fill:#86755e;}.cls-4{fill:#776346;}.cls-5{fill:#7f6d54;}.cls-6{fill:#918370;}.cls-7{fill:#a98f00;}.cls-8{fill:#b2c700;}.cls-9{fill:#94ac00;}.cls-10{fill:#8c7400;}.cls-11{fill:#77b09f;}.cls-12{fill:#5fa28e;}.cls-13{fill:#559c86;}.cls-14{fill:#70ac9a;}.cls-15{fill:#ffeca8;}.cls-16{fill:#b7a953;}.cls-17{fill:#fae594;}.cls-18,.cls-19{fill:#6a7273;}.cls-18{mix-blend-mode:multiply;}.cls-20{fill:#b4bcca;}.cls-21{fill:#99a4b7;}.cls-22{fill:#e6e6e6;}.cls-23{fill:#ffd464;}.cls-24{fill:#e6bf5a;}.cls-25{fill:#cc803d;}.cls-26{fill:#b37035;}.cls-27{fill:#f5f5f5;}.cls-28{fill:#fff1cc;}.cls-29{fill:#ccc;}.cls-30{fill:none;stroke:#fff;stroke-linecap:round;stroke-miterlimit:10;stroke-width:21.63px;stroke-dasharray:6.18 55.63;}</style></defs><title>L3_block</title><g class="cls-1"><g id="plano1"><polygon class="cls-2" points="874.77 459.09 878.41 426.29 831.03 309.66 736.27 193.03 630.58 167.52 773.93 456.66 874.77 459.09"/><path class="cls-3" d="M816.46,455.44l-10.93-58.31-27.75-83.25a18.35,18.35,0,0,0-4.59-7.33L629,165.83a10.34,10.34,0,0,0-12.59-1.44L529.75,217a13.72,13.72,0,0,0-6.24,14.85l52.4,223.56Z"/><path class="cls-4" d="M747.21,455.44H674.32L648.81,327.88,690.28,303a62.39,62.39,0,0,1,7.91,15.23Z"/><path class="cls-5" d="M690.28,303l-41.48,24.89L575.8,234l15.67-13.23a4.09,4.09,0,0,1,5.32,0l82.91,70.63A63.51,63.51,0,0,1,690.28,303Z"/><polygon class="cls-6" points="788.51 352.18 786.08 403.2 810.38 422.64 812.81 391.05 788.51 352.18"/><path class="cls-7" d="M572.46,402.67l-42.18-50.4L525,346a39.83,39.83,0,0,0-5.55-5.37,40.24,40.24,0,0,0-6.47-4.22c-1.12-.58-2.4-1.18-3.62-1.78l-3.7-1.79L476.11,318.5l-118.3-57.3,1.29-2.71L478,314.5l29.73,14,3.72,1.75c1.25.59,2.45,1.14,3.77,1.8a45.36,45.36,0,0,1,13.62,10.63l5.36,6.26,42.73,49.94Z"/><path class="cls-8" d="M377,208.83s-18.54,23.59-18.54,52.24C358.42,261.06,377,259.38,377,208.83Z"/><path class="cls-8" d="M345.42,206.44s-2.38,29.91,13.48,53.77C358.89,260.21,373.4,248.55,345.42,206.44Z"/><path class="cls-8" d="M307.58,244s24.42,17.43,53,16.11C360.62,260.11,358.08,241.67,307.58,244Z"/><path class="cls-8" d="M316.47,291.53s28.79-8.45,45.42-31.77C361.88,259.76,345.81,250.37,316.47,291.53Z"/><path class="cls-8" d="M346.63,312.25S364.34,288,363.35,259.4C363.35,259.4,344.88,261.73,346.63,312.25Z"/><path class="cls-9" d="M359.67,211.26s-8.5,27.94-1.21,48.59C358.46,259.85,374.25,250.13,359.67,211.26Z"/><path class="cls-9" d="M324.64,228.81s16,24.42,36.56,32C361.2,260.84,363.84,242.49,324.64,228.81Z"/><path class="cls-9" d="M336.15,298.53S358.21,279.4,363,258C363,258,344.49,257.86,336.15,298.53Z"/><path class="cls-10" d="M559,379.25,469.72,246.51l-22.33-33.18-11.17-16.59-5.58-8.3-2.79-4.15-.7-1c-.25-.38-.49-.75-.72-1.14a25.48,25.48,0,0,1-1.25-2.39,24.89,24.89,0,0,1-1.68-5.11,25.48,25.48,0,0,1-.41-2.66c-.09-.92-.13-1.69-.2-2.54l-.74-10-1.48-19.94-3-39.89,3-.23L424,139.24l1.64,19.93.82,10c.07.81.13,1.71.21,2.45a21.88,21.88,0,0,0,.37,2.27,21.27,21.27,0,0,0,1.47,4.35,21.85,21.85,0,0,0,1.08,2c.2.33.41.65.62,1l.7,1,2.82,4.13,5.65,8.25,11.3,16.5,22.59,33,90.38,132Z"/><path class="cls-8" d="M472.65,104.35s-26.66-14-53.56-4.18C419.09,100.17,425.17,121.7,472.65,104.35Z"/><path class="cls-8" d="M465.93,69.21s-28.91,8-45.88,31.11C420.05,100.32,436,109.94,465.93,69.21Z"/><path class="cls-8" d="M417.66,46.57s-8,28.92,3.07,55.34C420.74,101.91,437.19,93.2,417.66,46.57Z"/><path class="cls-8" d="M376.08,71.22S393.89,95.36,421.51,103C421.51,103,424.81,84.66,376.08,71.22Z"/><path class="cls-8" d="M376.68,104.35s19.44,15.79,45.66-.12C422.34,104.23,423.53,85.37,376.68,104.35Z"/><path class="cls-9" d="M466.3,84.25s-29.16,1.6-46.06,15.54C420.24,99.79,434.79,111.28,466.3,84.25Z"/><path class="cls-9" d="M437.79,57.37S420.36,80.8,420.25,102.7C420.25,102.7,438.4,98.88,437.79,57.37Z"/><path class="cls-9" d="M376.25,92.11s25.55,14.16,47.27,11.35C423.52,103.46,417.32,86,376.25,92.11Z"/><path class="cls-8" d="M419.2,99.49s-19.44,9.72-18.22,21.87C401,121.36,425.27,118.93,419.2,99.49Z"/><path class="cls-6" d="M674.32,455.44h-98.4L547.38,262.72a7.36,7.36,0,0,1,2.51-6.74L575.8,234l73,93.85Z"/><path class="cls-11" d="M559.71,455.43s-25.57,2.45-29.93-13.87S542.84,425,549.1,432s14.69,22.31,14.69,22.31Z"/><path class="cls-12" d="M586,428.37s3.77-72.19,25.29-72.8,27,17.47,24.16,34.12S586,428.37,586,428.37Z"/><path class="cls-13" d="M572,327c9.81-12.7,29.56,7,23.93,29.56a194.68,194.68,0,0,0-5.63,42.23S548,358,572,327Z"/><path class="cls-11" d="M566.34,455.12a105.57,105.57,0,0,1-16.89-42.23c-4.22-25.34,16.89-38,29.56-33.79s14.08,46.46-3.52,76Z"/><path class="cls-14" d="M574.64,454.95s20.43-54.33,37.65-43.84,17.43,33.18,2.64,38.57a184,184,0,0,1-30.66,7.8Z"/><path class="cls-15" d="M655.32,459.38s34.66-6.5,52-15.16,34.66-21.66,58.48-17.33,58.48,30.32,75.81,39Z"/><path class="cls-16" d="M486.38,692.84S482.73,558,491.24,531.27,498.53,598.08,486.38,692.84Z"/><path class="cls-16" d="M486.38,692.84S451.15,513,460.87,502.11,486.38,692.84,486.38,692.84Z"/><path class="cls-6" d="M313.87,692.84,299.29,353.9,208.6,441.1a11.35,11.35,0,0,0-3.4,9.5L211,499.83a16.73,16.73,0,0,1-3.76,12.67l-27.8,33.36a11.35,11.35,0,0,0-2,10.85l6.91,20.73a16.73,16.73,0,0,1-.52,11.94L138.93,692.84Z"/><polygon class="cls-6" points="353.96 583.5 386.76 412.21 361.25 423.14 288.36 565.28 353.96 583.5"/><polygon class="cls-2" points="386.76 412.21 404.98 434.08 532.54 692.84 332.09 692.84 386.76 412.21"/><path class="cls-2" d="M356.51,415.56l-29.92-47.87a10.75,10.75,0,0,0-4.88-4.18l-22.42-9.61,6.07,178.58,51.81-101.37A15.78,15.78,0,0,0,356.51,415.56Z"/><path class="cls-6" d="M609,587.48l-16.15,48.44-41.4,56.93H513.7l-12.14-25.33a7.18,7.18,0,0,1,.62-7.29l46.47-66.4a7.7,7.7,0,0,1,5.79-3.24l52.81-3.32A4.53,4.53,0,0,1,609,587.48Z"/><path class="cls-5" d="M655.84,686.57a5.7,5.7,0,0,1-5.65,6.27h-11.3l-48-51L609,587.48a5.25,5.25,0,0,1,1.53.84L647,618.16a6.74,6.74,0,0,1,2.48,4.59Z"/><polygon class="cls-4" points="638.89 692.84 551.42 692.84 592.82 635.91 590.86 641.82 638.89 692.84"/><path class="cls-3" d="M379.47,670.06v22.78H262.85L231.21,601.4a5.35,5.35,0,0,1,1.42-5.72l71-65.93a3.63,3.63,0,0,1,5.36.51l21.25,28.86a3.87,3.87,0,0,0,1.86,1.38v45.92a6.8,6.8,0,0,0,1.68,4.52l41.55,47.93A17.2,17.2,0,0,1,379.47,670.06Z"/><path class="cls-5" d="M435.49,667.73l-14.1,25.11H379.47V670.06a17.2,17.2,0,0,0-4.15-11.19l-41.55-47.93a6.8,6.8,0,0,1-1.68-4.52V560.51a3.93,3.93,0,0,0,2.88,0l20.34-7.91a6.72,6.72,0,0,1,7.91,2.48l71.94,104.78A7.4,7.4,0,0,1,435.49,667.73Z"/><path class="cls-6" d="M660.76,680.56l3.5,12.28H626.68L622.53,686a5.57,5.57,0,0,1,1.2-7.22l36.59-30.5a5.24,5.24,0,0,1,6.78.07l2.3,2L660.87,676A7.48,7.48,0,0,0,660.76,680.56Z"/><path class="cls-5" d="M691.23,676l-5.61,16.87H664.26l-3.5-12.28a7.48,7.48,0,0,1,.11-4.56l8.53-25.62,19.53,17.13A7.88,7.88,0,0,1,691.23,676Z"/><path class="cls-16" d="M486.38,692.84s25.51-147,43.73-145.78C544.3,548,486.38,692.84,486.38,692.84Z"/><path class="cls-16" d="M486.38,692.84s36.45-71.68,54.67-97.19,21.87-14.58,3.64,18.22S486.38,692.84,486.38,692.84Z"/><path class="cls-16" d="M486.38,692.84s48.59-58.31,81.4-68S550.77,647.89,486.38,692.84Z"/><path class="cls-16" d="M486.38,692.84s41.31-18.22,71.68-24.3S581.14,677,486.38,692.84Z"/><path class="cls-17" d="M280.6,693.3s-60.65-6.5-75.81-19.49-65-13-80.14-2.17S103,699.8,103,699.8Z"/></g><g id="bloqueados"><path class="cls-18" d="M736.27,193,630.82,167.58,629,165.83a10.34,10.34,0,0,0-12.59-1.44L529.75,217a13.72,13.72,0,0,0-6.24,14.85L554,362.14l-80.8-118-22.59-33-11.3-16.5-5.65-8.25-2.82-4.13-.7-1c-.21-.32-.42-.64-.62-1a21.85,21.85,0,0,1-1.08-2,21.27,21.27,0,0,1-1.47-4.35,21.88,21.88,0,0,1-.37-2.27c-.08-.74-.14-1.64-.21-2.45l-.82-10L424,139.24l-2.82-34.32.69-.4c4.9,5.21,17.92,11.85,50.81-.17a78.53,78.53,0,0,0-25-7.2,96.6,96.6,0,0,0,18.61-12.9,109.08,109.08,0,0,0-14.91,2.15,147.32,147.32,0,0,0,14.54-17.19A101.07,101.07,0,0,0,434.1,85.95c2.29-6.62,3.88-15.81,3.69-28.58a113.54,113.54,0,0,0-11.13,19.48c-1-7.67-3.67-17.56-9-30.28,0,0-6.27,22.76,0,46.34-5-6.37-16.23-14.69-41.62-21.69a100.47,100.47,0,0,0,20.8,19.73,100.45,100.45,0,0,0-20.62,1.16A111.34,111.34,0,0,0,392,98.92c-4.43,1.3-9.5,3.07-15.32,5.42a38,38,0,0,0,28,6.52c-2.44,3.11-4.09,6.68-3.71,10.48,0,0,13-1.32,17.62-9.67l2.06,27.81,1.48,19.94.74,10c.07.85.11,1.62.2,2.54a25.48,25.48,0,0,0,.41,2.66,24.89,24.89,0,0,0,1.68,5.11,25.48,25.48,0,0,0,1.25,2.39c.23.39.47.77.72,1.14l.7,1,2.79,4.15,5.58,8.3,11.17,16.59,22.33,33.18L555,373.22l-20.78-24.29-5.36-6.26A45.36,45.36,0,0,0,515.24,332c-1.32-.67-2.53-1.21-3.77-1.8l-3.72-1.75L478,314.5l-114.65-54c0-.37,0-.73,0-1.1a4.73,4.73,0,0,0-.71.17l.12-.48c5.48-3.93,14.19-15.62,14.19-50.27a99.13,99.13,0,0,0-12,21.39,102.69,102.69,0,0,0-5.31-19,109.07,109.07,0,0,0-3.1,14.75,147.31,147.31,0,0,0-11.16-19.56,101.07,101.07,0,0,0,4.8,35.63c-5.43-4.42-13.53-9.06-25.57-13.27a113.55,113.55,0,0,0,14.47,17.13c-7.56-1.66-17.76-2.57-31.52-1.93,0,0,19.22,13.7,43.54,15.88-7.69,2.48-19.37,10.2-34.66,31.64a100.46,100.46,0,0,0,25.65-12.75,100.75,100.75,0,0,0-6,19.75,111.15,111.15,0,0,0,11.73-12.35,137.6,137.6,0,0,0-1.25,26.07s15.88-21.74,16.72-48.37L476.11,318.5l29.57,14.32,3.7,1.79c1.22.6,2.51,1.2,3.62,1.78a40.24,40.24,0,0,1,6.47,4.22A39.83,39.83,0,0,1,525,346l5.26,6.28,27.45,32.8c-6.24,5.82-10.37,15.26-8.28,27.82a105.57,105.57,0,0,0,16.89,42.23h8.94l.59.15,0,.17h.6l7.75,2s4.28-.65,10.45-2H673.2c-10.06,2.47-17.88,3.93-17.88,3.93l186.28,6.5c-3.85-1.93-8.56-4.71-13.82-7.92l47,1.13,3.64-32.8L831,309.66Z"/><path class="cls-19" d="M559.71,455.43l4.08-1.09S555.36,439.11,549.1,432s-23.67-6.8-19.32,9.52S559.71,455.43,559.71,455.43Z"/><path class="cls-18" d="M276.68,692.84H685.61L691.23,676a7.88,7.88,0,0,0-2.3-8.46L669.4,650.38l-2.3-2a5.24,5.24,0,0,0-6.78-.07l-7.67,6.39-3.19-31.94a6.74,6.74,0,0,0-2.48-4.59L610.5,588.31a5.25,5.25,0,0,0-1.53-.84l-18.11,54.34,2-5.9L609,587.48a4.53,4.53,0,0,0-1.71-.22l-51.84,3.26c3.94-12.7-1.67-12.65-14.37,5.14-8.23,11.52-20.17,32.46-30.8,52L506.51,640c15.16-41.5,32-92.41,23.61-93-9.69-.65-21.43,40.59-30.31,79.36l-5.67-11.51c4.3-60.36,3.19-102.76-2.89-83.64-3.34,10.51-4.81,37.74-5.36,66.92L475.5,577.13c-4.8-42.75-10.32-79.88-14.64-75-3,3.39-1.71,23,1.53,48.43L405,434.08l-18.22-21.87-25.51,10.93-3.92,7.64a15.78,15.78,0,0,0-.82-15.22l-29.92-47.87a10.75,10.75,0,0,0-4.88-4.18l-22.42-9.61L208.6,441.1a11.35,11.35,0,0,0-3.4,9.5L211,499.83a16.73,16.73,0,0,1-3.76,12.67l-27.8,33.36a11.35,11.35,0,0,0-2,10.85l6.91,20.73a16.73,16.73,0,0,1-.52,11.94l-32.45,74.89c-11.23,1-21.2,3.48-26.67,7.38C109.49,682.47,103,699.8,103,699.8l177.61-6.5S279.16,693.15,276.68,692.84Z"/><path class="cls-20" d="M652.8,371.8A152.8,152.8,0,1,1,500,219,152.8,152.8,0,0,1,652.8,371.8Zm0,0"/><path class="cls-21" d="M623.31,462a11.85,11.85,0,0,0-1.73-3.28,13.37,13.37,0,0,0-2.42-6.43,15.13,15.13,0,0,0-2.79-7,15.66,15.66,0,0,0-2.08-4.63,13.05,13.05,0,0,0-2.28-5.5,14.59,14.59,0,0,0-2.46-6.51,12.53,12.53,0,0,0-2.3-5.53,14,14,0,0,0-2.44-6.47,11.93,11.93,0,0,0-2.32-5.59,13.36,13.36,0,0,0-2.41-6.42,14.88,14.88,0,0,0-2.46-6.49,13,13,0,0,0-2.56-5.93,13,13,0,0,0-2.14-4.68,14.49,14.49,0,0,0-2.46-6.5,12.41,12.41,0,0,0-2.31-5.56,13.85,13.85,0,0,0-2.43-6.45,12,12,0,0,0-2.95-6.37,14.41,14.41,0,0,0-11.07-9.75l-.27-.59a51.66,51.66,0,0,0-2.39-6.11,51.72,51.72,0,0,0-2.39-6.12,52.14,52.14,0,0,0-2.39-6.11,52.37,52.37,0,0,0-4.05-9.42c-.23-.54-.48-1.06-.72-1.59a51.66,51.66,0,0,0-2.39-6.11,51.77,51.77,0,0,0-2.39-6.12,52.19,52.19,0,0,0-2.39-6.11,52.38,52.38,0,0,0-7.22-14.44,52.51,52.51,0,0,0-97.75,26.68V352.7H430.65A14.37,14.37,0,0,0,416.32,367v88.4A13.11,13.11,0,0,0,418.8,463a14.78,14.78,0,0,0,2.45,6.47,12.83,12.83,0,0,0,2.31,5.6,14.15,14.15,0,0,0,2.42,6.43,12.3,12.3,0,0,0,2.57,6,12.49,12.49,0,0,0,2.16,4.72,13.76,13.76,0,0,0,2.42,6.43,11.86,11.86,0,0,0,2.35,5.64,13.13,13.13,0,0,0,2.4,6.4c0,.29.1.58.16.87A152.75,152.75,0,0,0,623.31,462Zm0,0"/><path class="cls-22" d="M583.45,453a14.37,14.37,0,0,1-14.32,14.32H430.65A14.37,14.37,0,0,1,416.32,453V367a14.37,14.37,0,0,1,14.33-14.32H569.12A14.37,14.37,0,0,1,583.45,367Zm0,0"/><path class="cls-23" d="M583.45,453a14.37,14.37,0,0,1-14.32,14.32H430.65A14.37,14.37,0,0,1,416.32,453V367a14.37,14.37,0,0,1,14.33-14.32H569.12A14.37,14.37,0,0,1,583.45,367Zm0,0"/><path class="cls-24" d="M569.12,352.7h-9.55A14.37,14.37,0,0,1,573.9,367v86a14.37,14.37,0,0,1-14.32,14.32h9.55A14.37,14.37,0,0,0,583.45,453V367a14.37,14.37,0,0,0-14.32-14.32Zm0,0"/><path class="cls-22" d="M461.69,352.7V316.89a38.2,38.2,0,0,1,76.4,0V352.7h14.33V316.89a52.53,52.53,0,0,0-105.05,0V352.7Zm0,0"/><path class="cls-25" d="M519,398.06a19.1,19.1,0,1,0-31,14.9V429.1a11.94,11.94,0,0,0,23.88,0V413a19.05,19.05,0,0,0,7.16-14.9Zm0,0"/><path class="cls-26" d="M492.73,429.1V413a19.08,19.08,0,0,1,9.55-33.83,19.5,19.5,0,0,0-2.39-.16,19.09,19.09,0,0,0-11.94,34V429.1A11.94,11.94,0,0,0,499.89,441a11.69,11.69,0,0,0,2.39-.25,11.93,11.93,0,0,1-9.55-11.69Zm0,0"/><path class="cls-27" d="M499.89,264.36a52.58,52.58,0,0,0-52.52,52.52v7.16a7.16,7.16,0,0,0,7.16-7.16,45.36,45.36,0,1,1,90.73,0,7.16,7.16,0,0,0,7.16,7.16v-7.16a52.58,52.58,0,0,0-52.53-52.52Zm0,0"/><path class="cls-23" d="M507,398.06a7.16,7.16,0,1,1-7.16-7.16,7.16,7.16,0,0,1,7.16,7.16Zm0,0"/><path class="cls-24" d="M499.89,390.9a7.3,7.3,0,0,0-1.19.12,7.14,7.14,0,0,1,0,14.09,7.65,7.65,0,0,0,1.19.12,7.16,7.16,0,1,0,0-14.33Zm0,0"/><rect class="cls-28" x="416.32" y="364.64" width="167.13" height="9.55"/><rect class="cls-28" x="416.32" y="445.81" width="167.13" height="9.55"/><rect class="cls-29" x="447.36" y="350.31" width="14.32" height="2.39"/><rect class="cls-29" x="538.09" y="350.31" width="14.32" height="2.39"/></g><g id="camino_bloqueado" data-name="camino bloqueado"><path class="cls-30" d="M316.79,685.84c-28.53,9.8-58,14-88.32,11C190.17,693,104.41,703.24-.83,715.7"/><path class="cls-30" d="M603.07,15.33c32.82,145,57.18,290,10.31,368.08-24.13,40.22-53,84.73-85.74,127.31"/></g></g></svg>