<svg xmlns="http://www.w3.org/2000/svg" width="1000" height="1000" viewBox="0 0 1000 1000"><defs><style>.cls-1,.cls-10,.cls-11,.cls-12{fill:none;}.cls-1{stroke:#ffce23;stroke-linejoin:round;stroke-width:29px;}.cls-2{fill:#c9ba2c;}.cls-3{fill:#cbd925;}.cls-4{fill:#cca877;}.cls-5{fill:#a17f53;}.cls-6{fill:#91a634;}.cls-7{fill:#abba32;}.cls-8{fill:#87912e;}.cls-9{fill:#d6c62f;}.cls-10{stroke:#362d02;opacity:0.5;}.cls-10,.cls-11,.cls-12{stroke-linecap:round;stroke-miterlimit:10;}.cls-10,.cls-11{stroke-width:28px;}.cls-11{stroke:#aa53f2;}.cls-12{stroke:#fff;stroke-width:21.59px;stroke-dasharray:6.17 55.52;}</style></defs><title>L4_current</title><g id="outline"><path class="cls-1" d="M957.32,591.65c.53-5.78-13.66-12.61-13.66-12.61s17.34-.53,17.34-3.68-21-3.68-21-3.68,17.34-4.2,16.82-10-14.71-6.83-14.71-6.83c4.2,0,11-7.88,3.15-11s-11.56,2.63-11.56,2.63a14.89,14.89,0,0,0-11.72-5,9.59,9.59,0,0,0,4.88-5s-3.68-2.63,11-3.15,1.05-5.78,1.05-5.78,14.71.53,15.77-6.31-21.55-8.41-21.55-8.41,8.93-3.68,5.26-8.93-23.12-2.63-23.12-2.63c-2.63-11.56-19.44.53-19.44.53a11,11,0,0,0-5.45,2.77l-.79-7.93-2.26-11.45c4.35-3.25,10.6-8.32,10.6-10.71,0-3.68-7.88-6.31-7.88-6.31-.23-1.59-3-1.12-6.08-.07l-4.62-23.48-5.52-5.52.79-15-9.46-7.88-3.94-16.55,6.31-5.52-12.61-34.68-16.55-29.17-10.24,10.25L825,337l-2.39-2.73-8.67-.79L795,262.51l-18.13-50.45-9.46-14.19-11-15.77H746.14L736.68,164l-10.24-4.73-8.33-1.19-2.7-.38-21.28,26.8v11l-3.94,7.88-8.67,6.31-8.67.79-6.31-4.73,1.58-18.92,2.36-22.07-26.8-26L631,135.61l-7.88-6.31V123l-3.94-3.94-16.55-1.58-5.52-6.31-17.68-10.48-3.6-2.13-8.67,8.67-9.46,7.88-18.13,33.11v6.31l-3.15,12.61-9.46.79-5.52-.79-3.15,5.52.79,11,.49,8.77-.48,2.26v3.62L512,202.61l-7.88-13.4,3.94-3.94-20.5-23.65-15-18.13h-6.31l-7.88,11-7.88-2.36-7.88,1.58-8.67,11-10.25,3.94v17.34l-12.61,45.72-7.88,15-2.36,11-4.73,22.07L389.85,298l-3.94.79-8.67,15-9.46,39.41-3.94,17.34,7.09,12.61L367,402l-4.73,7.88-3.94,19.71,1.58,15.77,7.09,13.4-6.31,23.64-18.76,25.64a29,29,0,0,0-12.07,7.9l-1.58-5.26-4.2,1.58s13.14-31.53,13.66-34.68l-1.05-10.51s-8.41,5.26-9.46,8.41c0,0,7.36-26.8,6.31-35.74,0,0-17.34,35.74-27.85,46.25,0,0-3.68-14.71-5.78-17.34,0,0-4.2,13.66-5.26,18.92l-5.78-14.71-7.36-10.51-3.15,10s-4.73-5.26-6.31-5.26c0,0-1.58,10.51-1.05,13.66l-10.51-23.12-8.93-8.93-.53,9.46L250,496.53s-7.36-5.26-9.46-11.56l-2.63,6.83,7.36,19.44,2.1,7.36s-9.46-2.1-11.56,1.58c0,0,7.88,7.88,6.31,15.24,0,0-8.93-2.63-13.66-1.05,0,0,9.46,11,23.12,15.24L250,542.78,258.9,548l12.09-4.2,7.88,1.58,3.15-9.46,9.37,16.18c.94,5.32,3.19,17.59,4.82,21.66a25.87,25.87,0,0,0-8.41.53s7.36,10.51,12.61,14.71c0,0-5.78,2.63-7.88,5.78,0,0,13.66,3.15,18.39,3.15h81.46l29.43-11s-24.7-3.15-32.06,0a36,36,0,0,0,5.5-2.8H556.37c.78,1.81,1.72,3.79,2.69,5.73a10,10,0,0,0-4.29,7.58s-13.37-6.08-22.07,2.63c-1.58,1.58-20.5,1.05-20.5,13.14H632.78c-.41,2-.13,4.56,1.35,7.88H750.27s10,2.63,10-3.68-15.24-2.1-22.07-1.58c0,0,3.15-2.63,0-4.2S726.62,610,726.62,610s12.09-3.15,11.56-5.78-10,.53-10,.53a45,45,0,0,0,7.61-4.62c44.21.19,79.63.42,79.63.42a25.62,25.62,0,0,0,4.23-6.31H926.84s43.62,5.26,43.09,0S957.32,591.65,957.32,591.65ZM294.51,551.33c1-4.73,2.84-11.83,4.85-14.85,0,0,1.42,3.11,2.79,6.68a109.29,109.29,0,0,0-1.22,13.29A60.41,60.41,0,0,0,294.51,551.33ZM652,601.64l-.19-.11c.29-.49.6-1,.93-1.62h1C652.66,600.93,652,601.64,652,601.64Z"/></g><g id="plano1"><path class="cls-2" d="M333,531.74s13.66-17.87,14.19-24.7c0,0-8.93,0-17.34,8.93l-1.58-5.26-4.2,1.58s13.14-31.53,13.66-34.68l-1.05-10.51s-8.41,5.26-9.46,8.41c0,0,7.36-26.8,6.31-35.74,0,0-17.34,35.74-27.85,46.25,0,0-3.68-14.71-5.78-17.34,0,0-4.2,13.66-5.26,18.92l-5.78-14.71-7.36-10.51-3.15,10s-4.73-5.26-6.31-5.26c0,0-1.58,10.51-1.05,13.66l-10.51-23.12-8.93-8.93-.53,9.46L250,496.53s-7.36-5.26-9.46-11.56l-2.63,6.83,7.36,19.44,2.1,7.36s-9.46-2.1-11.56,1.58c0,0,7.88,7.88,6.31,15.24,0,0-8.93-2.63-13.66-1.05,0,0,9.46,11,23.12,15.24L250,542.78,258.9,548l12.09-4.2,7.88,1.58,3.15-9.46,11.56,20s2.63-14.71,5.78-19.44c0,0,5.78,12.61,5.26,16.29l6.31-7.88-.69,5.35,10.68-8.5s-1.58,7.36-3.15,9.46Z"/><polygon class="cls-3" points="898.27 584.12 333.88 584.12 309.44 571.51 310.23 550.23 337.03 514.76 360.68 482.44 366.99 458.8 359.89 445.39 358.32 429.63 362.26 409.92 366.99 402.04 370.93 383.12 363.83 370.51 367.78 353.17 377.24 313.75 385.91 298.78 389.85 297.99 396.15 279.86 400.88 257.79 403.25 246.75 411.13 231.78 423.74 186.06 423.74 168.71 433.99 164.77 442.66 153.74 450.54 152.16 458.42 154.53 466.31 143.49 472.61 143.49 487.59 161.62 508.09 185.27 504.14 189.21 512.03 202.61 519.91 197.88 519.12 183.69 518.33 172.66 521.48 167.14 527 167.93 536.46 167.14 539.61 154.53 539.61 148.22 557.74 115.11 567.2 107.23 575.88 98.56 579.47 100.69 597.16 111.17 602.68 117.48 619.23 119.06 623.17 123 623.17 129.3 631.05 135.61 643.66 138.76 670.46 164.77 668.1 186.84 666.52 205.76 672.83 210.49 681.5 209.7 690.17 203.4 694.11 195.51 694.11 184.48 715.4 157.68 718.1 158.06 726.43 159.25 736.68 163.98 746.13 182.11 756.38 182.11 767.42 197.88 776.88 212.07 795.01 262.51 813.93 333.46 822.6 334.25 824.99 336.98 828.12 340.56 838.36 330.31 854.91 359.48 867.53 394.15 861.22 399.67 865.16 416.23 874.62 424.11 873.83 439.09 879.35 444.61 889.6 496.63 898.27 584.12"/><polygon class="cls-4" points="618.46 584.12 333.88 584.12 309.44 571.51 310.23 550.23 337.03 514.76 360.68 482.44 366.99 458.8 359.89 445.39 358.32 429.63 362.26 409.92 366.99 402.04 370.93 383.12 363.83 370.51 367.78 353.17 377.24 313.75 385.91 298.78 389.85 297.99 396.15 279.86 400.88 257.79 403.25 246.75 411.13 231.78 423.74 186.06 423.74 175.18 436.35 191.57 445.02 205.76 444.24 228.62 452.12 256.21 478.13 265.67 473.4 271.19 496.26 279.86 495.47 286.16 504.14 305.87 516.76 316.91 531.73 302.72 539.61 313.75 538.04 331.88 533.31 346.86 548.28 364.2 567.99 404.4 564.05 428.84 575.09 458.8 575.09 480.07 584.55 510.03 594.79 517.91 605.04 547.08 616.08 562.06 618.46 584.12"/><polygon class="cls-4" points="521.49 183.69 519.12 194.73 519.12 207.34 523.85 208.92 535.67 223.1 541.19 240.45 564.84 245.96 559.32 235.72 557.74 223.1 551.44 209.7 542.77 204.19 539.62 193.94 530.94 191.57 527.79 186.06 521.49 183.69"/><polygon class="cls-5" points="553.01 476.92 548.28 488.75 551.44 502.15 561.69 513.18 560.9 523.43 559.32 537.62 561.69 543.14 573.51 539.98 577.45 552.6 582.97 572.3 558.53 575.45 552.23 549.44 545.92 551.02 542.77 535.25 541.19 513.97 540.4 498.2 541.19 491.9 546.71 476.13 553.01 476.92"/><polygon class="cls-4" points="568.78 115.11 566.41 123.79 571.14 128.52 571.93 133.25 563.26 145.07 562.47 150.59 558.53 159.25 555.38 154.53 552.23 163.19 545.13 167.93 536.46 167.14 539.61 154.53 539.61 148.22 557.74 115.11 567.2 107.23 575.88 98.56 579.47 100.69 574.3 106.44 568.78 115.11"/><polygon class="cls-4" points="721.7 166.35 720.13 182.9 709.09 186.84 700.42 197.88 700.42 204.97 688.6 215.22 681.5 209.7 690.17 203.4 694.11 195.51 694.11 184.48 715.4 157.68 718.1 158.06 717.76 162.41 721.7 166.35"/><polygon class="cls-4" points="841.51 396.52 847.03 406.77 841.51 413.86 824.97 409.92 818.66 375.24 816.29 352.38 813.93 333.46 822.6 334.25 824.99 336.98 825.75 346.86 828.91 358.69 833.63 357.11 842.3 377.6 847.03 394.15 841.51 396.52"/><polygon class="cls-5" points="440.3 236.5 438.72 245.96 443.45 255.42 446.6 264.88 440.3 268.04 441.08 277.49 430.84 323.21 430.84 333.46 422.17 333.46 424.53 348.44 432.41 342.13 437.93 324.79 444.24 319.27 463.94 263.31 455.27 257.79 445.81 248.33 440.3 236.5"/><polygon class="cls-5" points="520.61 318.9 510.1 311.55 504.14 305.87 501.17 308.39 492.23 327.84 486.98 331.52 483.82 323.63 482.77 315.23 472.26 319.95 475.94 320.48 480.67 337.3 491.71 335.72 501.17 343.08 506.42 352.01 515.36 348.86 508 345.71 505.37 338.87 513.78 329.94 520.61 318.9"/><polygon class="cls-5" points="531.12 354.11 504.32 429.26 486.45 469.73 480.14 481.29 472.26 486.02 468.58 483.92 464.38 489.7 436 537 440.2 536.47 468.58 489.18 473.84 492.33 482.25 484.97 494.86 473.94 508.52 454.49 513.25 448.71 515.88 448.71 521.13 437.67 530.07 439.78 522.19 452.39 511.68 479.72 494.33 504.94 482.25 522.28 486.45 541.2 479.62 547.51 461.75 553.29 458.07 551.19 447.04 554.34 438.1 567.48 435.47 581.14 439.68 573.26 450.19 560.65 463.33 556.97 474.89 552.24 489.6 548.03 490.65 541.73 492.23 535.42 503.27 516.5 509.05 512.82 523.76 484.97 539.53 460.27 551.62 438.2 564.23 424.54 570.01 418.75 571.59 395.11 551.62 360.95 531.12 354.11"/><polygon class="cls-5" points="438.63 423.48 447.04 399.31 451.24 383.54 457.55 391.43 462.28 398.78 455.97 413.5 450.71 415.08 447.04 418.23 444.41 428.74 441.78 432.94 438.63 423.48"/><polygon class="cls-5" points="439.68 387.22 445.99 382.49 449.14 367.78 445.99 356.22 439.15 355.17 441.25 365.15 439.68 387.22"/><path class="cls-6" d="M564.75,600.59s-15.77-27.85-8.41-23.12c0,0,5.78-8.93,11.56-4.2,0,0-.53-7.88,4.2-10s8.93,2.1,8.93,7.36c0,0,2.1-6.83,7.88-4.73,0,0-3.15-8.41,2.1-15.77s11.56-2.1,11.56-2.1,10-7.88,12.09,2.1c0,0,0-10,5.78-11s5.26,3.15,5.26,3.15-1.58-10,4.2-12.61,6.31,1.58,6.31,1.58-1.05-10,6.31-12.09a12.68,12.68,0,0,1,12.09,2.63s-1.05-7.88,3.15-9.46,8.41,2.63,8.41,2.63-3.68-18.39,6.31-23.12,20-2.63,19.44,13.14c0,0,26.8,18.92,25.75,39.94-.44,8.83,68-.42,88.81,14.71,28.74,20.87,8.93,41,8.93,41S564.75,599,564.75,600.59Z"/><path class="cls-7" d="M679.32,518.08s9.46-17.34,17.34-12.61c0,0,3.68-12.09,9.46-13.14s-6.83-13.66.53-18.92,13.14,0,13.14,0-6.31-11-3.68-16.29,5.26-.53,5.26-.53-2.63-13.66,5.26-14.71,8.93,1.58,8.93,1.58.53-13.14,8.41-16.29,6.83,6.83,6.83,6.83,15.24-2.1,16.82,1.58-2.63,8.93-2.63,8.93,13.66-3.68,15.24.53-8.93,11.56-10,15.77c0,0,14.19-2.1,14.71,2.1s-6.31,15.24-10,14.71c0,0,13.66-2.63,13.66,1.58s-17.87,13.66-17.87,13.66-17.87,10.51-17.34,14.71,7.88,3.15,7.88,4.73-11,6.31-11,6.31-1.05,4.2-9.46,8.93-4.73,4.73-4.73,4.73,7.36-2.1,7.88,3.15-14.19,13.14-14.19,13.14,9.46-4.2,17.87-2.63,11-1.05,11-1.05-5.78-5.78-5.26-8.93,7.36-5.26,13.14-3.68c0,0-3.68-9.46.53-15.77s11-3.15,11-3.15,7.88-8.41,11.56-4.73a11.08,11.08,0,0,1,3.15,8.41s3.15-10,6.31-10.51c0,0,.53-10.51,4.2-12.61S810.7,495,810.7,495a9.75,9.75,0,0,1,7.88-4.2c5.26,0,12.09,2.1,12.09,2.1s-4.73-18.39,3.68-24.7,9.46,2.1,9.46,2.1,20-17.34,27.85-16.29,2.1,8.41,2.1,8.41,8.41,4.73,1.58,9.46c0,0,14.19-7.36,14.71-3.68,0,0,7.88,2.63,7.88,6.31s-14.71,13.66-14.71,13.66,1.58,6.83-5.26,8.41l-6.83,1.58a13.59,13.59,0,0,1-6.31,7.88S884.28,502.84,888,507c0,0,3.68-4.73,7.88-5.26,0,0,16.82-12.09,19.44-.53,0,0,19.44-2.63,23.12,2.63s-5.26,8.93-5.26,8.93,22.6,1.58,21.55,8.41-15.77,6.31-15.77,6.31,13.66,5.26-1.05,5.78-11,3.15-11,3.15-2.1,6.83-13.66,6.83c0,0,12.61-5.78,20.5,3.15,0,0,3.68-5.78,11.56-2.63s1.05,11-3.15,11c0,0,14.19,1.05,14.71,6.83s-16.82,10-16.82,10,21,.53,21,3.68S943.66,579,943.66,579s14.19,6.83,13.66,12.61c0,0,12.09-2.63,12.61,2.63s-43.09,0-43.09,0H788.1s16.82-6.83,10.51-13.66-22.07-1.05-22.07-1.05,3.15-11-3.68-7.88-15.24,11.56-14.19,10,5.78-12.09-1.05-11a31.41,31.41,0,0,0-11.56,4.2s2.63-8.41-1.05-9.46-2.1.53-2.1.53,1.05-11.56-12.09-5.78-18.39,6.31-18.39,6.31,7.88-6.31,3.15-14.71-11.56-.53-11.56-.53,7.36-13.14-1.05-9.46a82.21,82.21,0,0,0-14.71,8.41s13.14-10,8.41-13.14-15.77-1.05-15.77-1.05S706.12,516,679.32,518.08Z"/><path class="cls-8" d="M634.12,621.08H750.27s10,2.63,10-3.68-15.24-2.1-22.07-1.58c0,0,3.15-2.63,0-4.2S726.62,610,726.62,610s12.09-3.15,11.56-5.78-10,.53-10,.53,13.66-6.31,12.61-12.61-15.24,1.05-15.24,1.05,10.51-7.36,5.78-10-12.61,0-16.82,3.15c0,0,1.05-11-5.78-11S693,588,693,588s-9.46-6.31-23.65,10c0,0,.53-5.26-3.68-5.78S652,601.64,652,601.64s-5.78-3.68-8.93,4.73C643.06,606.37,627.82,606.89,634.12,621.08Z"/><path class="cls-8" d="M512.2,613.2H651.47s16.29-6.31,10.51-10-11.56.53-11.56.53,12.09-17.87.53-15.77-7.88,4.73-7.88,4.73,5.78-8.93,2.63-11c0,0,8.41-11.56,2.1-12.61s-12.09,6.31-12.09,6.31S632,567,624.14,571.68a48.73,48.73,0,0,0-12.09,10s6.83-11-2.1-8.41a36,36,0,0,0-14.19,7.88,6.76,6.76,0,0,0-6.31-1.58s2.63-8.41-8.93.53-7.88,11.56-7.88,11.56-4.2-5.78-11-3.15a10.1,10.1,0,0,0-6.83,8.93s-13.37-6.08-22.07,2.63C531.12,601.64,512.2,601.11,512.2,613.2Z"/><path class="cls-9" d="M310.92,598h81.46l29.43-11s-24.7-3.15-32.06,0c0,0,9.46-3.68,10-7.88l-10.51,3.68s8.41-8.93,10.51-17.34c0,0-10,1.05-14.19,5.78,0,0,2.1-7.36,2.1-11.56,0,0-5.26,2.63-7.88,5.78,0,0,16.29-31,17.87-51,0,0-13.14,27.33-28.9,35.21,0,0,4.2-8.93,3.15-13.66,0,0-10,9.46-14.19,11,0,0,4.2-20.5,5.26-24.17S364,505.47,364,505.47s-12.09,22.07-15.24,27.33l-8.93,5.78s-1.05-11.56-2.1-15.77c0,0-15.77,20.5-17.87,25.75,0,0-2.63-13.66-5.26-16.82,0,0-1.05,11.56,0,14.71,0,0-7.36-17.34-10-18.39,0,0-3.68,19.44-3.68,28.38,0,0-6.83-6.31-10-6.83,0,0,3.15,18.92,5.26,24.17a25.87,25.87,0,0,0-8.41.53s7.36,10.51,12.61,14.71c0,0-5.78,2.63-7.88,5.78C292.53,594.81,306.19,598,310.92,598Z"/></g><g id="camino_actual" data-name="camino actual"><path class="cls-10" d="M564,574.83c-21.14,38-26.61,86.5-22.27,144.33,5.69,75.86,23,157.58,47.45,263"/><path class="cls-11" d="M577,567.83c-21.14,38-26.61,86.5-22.27,144.33,5.69,75.86,23,157.58,47.45,263"/><path class="cls-12" d="M993.7,486.58c-104-11.41-127.76-15.1-191.7-7.58"/></g></svg>