<svg xmlns="http://www.w3.org/2000/svg" width="1000" height="1000" viewBox="0 0 1000 1000"><defs><style>.cls-1,.cls-44,.cls-46,.cls-47,.cls-48,.cls-49,.cls-50{fill:none;}.cls-1{stroke:#ffce23;stroke-linejoin:round;stroke-width:29px;}.cls-2{fill:#d09a00;}.cls-3{fill:#ce7f00;}.cls-4{fill:#67bb00;}.cls-5{fill:#5aa100;}.cls-6{fill:#00a853;}.cls-7{fill:#d09569;}.cls-8{fill:#00a18e;}.cls-9{fill:#a8d8a4;}.cls-10{fill:#8ab289;}.cls-11{fill:#9ccd96;}.cls-12{fill:#86a977;}.cls-13{fill:#bee5c4;}.cls-14{fill:#82a97b;}.cls-15{fill:#add5ae;}.cls-16{fill:#6d8a5e;}.cls-17{fill:#779f6d;}.cls-18{fill:#85aa87;}.cls-19{fill:#16d5bd;}.cls-20{fill:#b7f2eb;}.cls-21{fill:#7a664b;}.cls-22{fill:#97c392;}.cls-23{fill:#87a677;}.cls-24{fill:#bce6c2;}.cls-25{fill:#8baa79;}.cls-26{fill:#bde4c3;}.cls-27{fill:#bce2c6;}.cls-28{fill:#81a474;}.cls-29{fill:#94c08f;}.cls-30{fill:#86a471;}.cls-31{fill:#a8d9a2;}.cls-32{fill:#d6fdd9;}.cls-33{fill:#99c594;}.cls-34{fill:#88ac76;}.cls-35{fill:#bae1be;}.cls-36{fill:#90be88;}.cls-37{fill:#80a771;}.cls-38{fill:#a0cc9b;}.cls-39{fill:#c0e7c3;}.cls-40{fill:#8ab18e;}.cls-41{fill:#6d8a5c;}.cls-42{fill:#9ac09a;}.cls-43{fill:#64e3d3;}.cls-44,.cls-46,.cls-47{stroke:#00b3b7;}.cls-44,.cls-46,.cls-47,.cls-48,.cls-49,.cls-50{stroke-miterlimit:10;}.cls-44{stroke-width:2px;}.cls-45{fill:#00b3b7;}.cls-46{stroke-width:1.01px;}.cls-47{stroke-width:1.6px;}.cls-48{stroke:#362d02;opacity:0.5;}.cls-48,.cls-49,.cls-50{stroke-linecap:round;}.cls-48,.cls-49{stroke-width:28px;}.cls-49{stroke:#aa53f2;}.cls-50{stroke:#fff;stroke-width:21.5px;stroke-dasharray:6.14 55.27;}</style></defs><title>L5_current</title><g id="outline"><path class="cls-1" d="M893.89,644.38c3-7.38-3-22.13-3-22.13-8.85,3-16.23,17.7-16.23,17.7a56.1,56.1,0,0,0-4-19.33l36-73.2-21.6-5.4L919,447.44l-15.79-21-35.08-21L851,407.52,861.13,379l-7-43.85-64.9-17.54-68.9,6.26L694.48,307.1l-34.62-17.31c11.86-9.5,14.44-23.91,14.44-23.91-14.91-.88-24.56,10.52-24.56,10.52,8.77-16.66,5.26-30.7,5.26-30.7-28.07,19.3-23.68,36-23.68,36s-5.17,12.44,3.21,15.4l-32.18,9.72L602,258.86l-85.52-21L471.83,278l-33-17.78-34.21,2.63-36.84,31.57-17.1,36.84-1.17,68.86L348,401l-36.84-5.26-18.42,38.15v17.1l14.61,7.69-23.82,51.95,10.7,51.57-18.59.62-25,64.47,13.16,30.26L308,658.73l.6,1h72.8l-.06-.24,178.1-.64-.38-.88h26.69l0-1.11h0v1.1h64.9l-1.07-5.81,1.07,2.3H831.45l77.18,1.75c10.33-8.85,7.38-28,7.38-28C899.79,628.15,893.89,644.38,893.89,644.38Z"/></g><g id="plano1"><path class="cls-2" d="M782.16,358.48,727.77,376a192.23,192.23,0,0,0-4.58-22.89v0c-1.16-4.6-2.6-9.74-4.39-15.26-1.47-4.63-3.21-9.55-5.21-14.63-1.82-4.66-3.87-9.47-6.18-14.34-2.42-5.16-5.13-10.39-8.13-15.6v0c-2.18-3.76-4.5-7.5-7-11.24-3.05-4.53-6.34-9-9.89-13.37-2.21-2.68-4.5-5.34-6.92-7.92q-4.3-4.66-9.08-9-4.07-3.75-8.53-7.21c-2.34-1.84-4.76-3.6-7.26-5.32,0,0,8.66-19.08,22.55-15.84l.24.05c2.24.55,6.45,3.11,11.95,7.16,4,3,8.71,6.76,13.84,11.18,3,2.55,6.08,5.32,9.26,8.26,4.37,4,8.89,8.37,13.5,13,3.6,3.6,7.24,7.39,10.81,11.29,4.37,4.71,8.68,9.6,12.84,14.58,3.82,4.55,7.47,9.18,10.92,13.84,3.87,5.24,7.45,10.47,10.63,15.68a134.2,134.2,0,0,1,7.63,14C779.19,341.62,781.87,350.49,782.16,358.48Z"/><path class="cls-3" d="M774.77,332.33l-51.57,20.76c-1.16-4.6-2.6-9.74-4.39-15.26l48.34-19.47A134.2,134.2,0,0,1,774.77,332.33Z"/><path class="cls-3" d="M756.51,302.68,713.59,323.2c-1.82-4.66-3.87-9.47-6.18-14.34l38.18-20C749.4,293.39,753.06,298,756.51,302.68Z"/><path class="cls-3" d="M732.75,274.26l-33.47,19c-2.18-3.76-4.5-7.5-7-11.24l29.65-19C725.54,266.58,729.17,270.36,732.75,274.26Z"/><path class="cls-3" d="M708.43,250l-26,18.63c-2.21-2.68-4.5-5.34-6.92-7.92l23.71-19C702.15,244.29,705.25,247.05,708.43,250Z"/><path class="cls-3" d="M685.33,230.55l-18.94,21.16q-4.07-3.75-8.53-7.21l15.29-21.16.24.05C675.62,223.95,679.83,226.5,685.33,230.55Z"/><path class="cls-4" d="M588.32,264.63s13.16,34.21,39.47,14.47,7.89-27.63,7.89-27.63,18.42,7.89,22.37-1.32,0-15.79,0-15.79,25-1.32,27.63-18.42-9.21-23.68-9.21-23.68,17.1-9.21,15.79-19.73a75.74,75.74,0,0,0-3.95-17.1s13.16-1.32,11.84-10.52-21-19.73-27.63-9.21c0,0,23.68-34.21-7.89-50s-48.68,21-48.68,21-17.1-28.94-55.26-11.84-25,39.47-25,39.47-27.63-11.84-32.89,17.1S513.33,191,513.33,191s-32.89,7.89-18.42,43.42,35.52,22.37,35.52,22.37-3.95,15.79,9.21,18.42,14.47-10.52,14.47-10.52,3.95,25,23.68,21S588.32,264.63,588.32,264.63Z"/><circle class="cls-5" cx="560.69" cy="223.84" r="11.84"/><circle class="cls-5" cx="621.21" cy="231.74" r="5.26"/><circle class="cls-5" cx="613.31" cy="143.59" r="18.42"/><circle class="cls-5" cx="547.53" cy="165.96" r="7.89"/><circle class="cls-5" cx="569.9" cy="110.7" r="5.26"/><circle class="cls-5" cx="675.15" cy="155.43" r="10.52"/><path class="cls-6" d="M162.54,291.75S181,310.17,177,347C177,347,148.06,322,162.54,291.75Z"/><path class="cls-6" d="M191.48,298.33s-19.73,14.47-3.95,50C187.53,348.33,213.84,327.28,191.48,298.33Z"/><path class="cls-6" d="M216.48,316.75s-17.1,13.16-17.1,34.21C199.37,351,227,344.38,216.48,316.75Z"/><path class="cls-6" d="M242.79,349.64s-18.42,0-17.1,17.1C225.69,366.74,245.42,377.27,242.79,349.64Z"/><path class="cls-6" d="M233.58,333.85s-26.31,7.89-26.31,22.37C207.27,356.22,233.58,353.59,233.58,333.85Z"/><path class="cls-7" d="M317.78,464.1s-22.37-40.78-59.2-76.31-56.57-46-88.15-42.1c0,0,46,2.63,76.31,48.68S302,491.73,302,491.73Z"/><path class="cls-6" d="M246.74,394.37s-26.31-7.89-32.89,28.94C213.84,423.32,233.58,425.95,246.74,394.37Z"/><path class="cls-6" d="M177,347s-28.94-9.21-60.52,22.37C116.49,369.38,140.17,385.16,177,347Z"/><path class="cls-6" d="M199.37,351s-19.73,6.58-17.1,48.68c0,0,25-5.26,25-43.42Z"/><path class="cls-6" d="M225.69,366.74s-26.31,3.95-32.89,50c0,0,25,1.32,35.52-44.73Z"/><path class="cls-6" d="M187.53,348.33S157.27,347,152,399.63C152,399.63,186.22,391.74,187.53,348.33Z"/><path class="cls-6" d="M255.94,406.21S244.1,401,240.16,419.37C240.16,419.37,257.26,424.63,255.94,406.21Z"/><path class="cls-6" d="M170.43,345.69s-36.84,2.63-42.1-39.47C128.33,306.23,166.48,311.49,170.43,345.69Z"/><path class="cls-8" d="M261.21,607.5s-3.95-13.16-13.16-15.79v11.84s-7.89-9.21-23.68-7.89c0,0,1.32,13.16,7.89,21,0,0-19.73-9.21-31.57-1.32,0,0,5.26,9.21,14.47,13.16l-11.84,6.58s13.16,7.89,18.42,5.26c0,0-13.16,9.21-17.1,14.47h59.2S271.73,623.29,261.21,607.5Z"/><polygon class="cls-9" points="463.81 285.18 516.44 237.81 601.95 258.86 602.39 310.61 463.81 306.23 463.81 285.18"/><polygon class="cls-10" points="526.96 265.44 492.76 300.96 600.64 303.59 595.37 287.81 526.96 265.44"/><polygon class="cls-11" points="473.02 278.6 478.28 408.84 349.35 408.84 350.67 331.22 367.77 294.38 404.61 262.81 438.81 260.18 473.02 278.6"/><polygon class="cls-12" points="416.45 344.38 395.4 298.33 404.61 262.81 438.81 260.18 473.02 278.6 473.02 323.33 416.45 344.38"/><polygon class="cls-13" points="350.67 331.22 395.4 298.33 404.61 262.81 367.77 294.38 350.67 331.22"/><polygon class="cls-11" points="317.78 464.1 292.78 450.94 292.78 433.84 311.2 395.69 348.04 400.95 383.56 379.9 419.08 399.63 416.45 462.78 317.78 464.1"/><polygon class="cls-14" points="323.04 450.94 311.2 395.69 348.04 400.95 359.88 447 323.04 450.94"/><polygon class="cls-14" points="383.56 398.32 366.46 441.73 416.45 462.78 417.76 410.16 383.56 398.32"/><polygon class="cls-15" points="383.56 379.9 383.56 398.32 417.76 410.16 419.08 399.63 383.56 379.9"/><polygon class="cls-11" points="283.57 510.58 315.15 441.73 380.93 431.21 417.76 453.57 411.19 569.35 300.68 593.03 283.57 510.58"/><polygon class="cls-16" points="384.88 500.94 380.93 431.21 417.76 453.57 413.82 531.2 384.88 500.94"/><polygon class="cls-17" points="334.88 508.83 384.88 500.94 386.19 521.99 371.72 541.72 363.82 591.72 337.51 586.45 334.88 508.83"/><polygon class="cls-18" points="413.82 531.2 411.19 569.35 363.82 591.72 371.72 541.72 386.19 521.99 384.88 500.94 413.82 531.2"/><polygon class="cls-11" points="263.84 657.5 250.68 627.24 275.68 562.77 315.15 561.46 348.04 583.82 342.56 659.69 263.84 657.5"/><polygon class="cls-17" points="291.47 632.17 315.15 561.46 348.04 583.82 342.56 659.69 308.57 659.69 291.47 632.17"/><path class="cls-19" d="M399.79,580.75l10.52-140.33V334.89a47.57,47.57,0,0,1,47.08-47.56l123.08-1.27,5.26,371.88H401.54Z"/><path class="cls-20" d="M315.59,659.69s-21-17.54-7-37.71,30.7-7,30.7-7-13.16-5.26-6.14-18.42,11.4-2.63,11.4-2.63-13.16-15.79-.88-25.44,21.93-2.63,22.8,6.14c0,0,4.39-28.94,35.08-24.56s34.21,40.35,22.8,58.76a13.43,13.43,0,0,1,10.52,12.28s-4.39-13.16,11.4-20.17,22.8,7.89,22.8,7.89,0-10.52,16.66-20.17,27.19,10.52,27.19,10.52-.88-18.42,14-14.91l32.45,74.55Z"/><path class="cls-8" d="M602.39,310.61s-12.28-18.42-33.33-2.63c0,0,15.79,19.3,29.82,9.65Z"/><path class="cls-8" d="M631.33,281.67s-4.39-16.66,23.68-36c0,0,3.51,14-5.26,30.7,0,0,9.65-11.4,24.56-10.52,0,0-4.39,24.56-28.07,30.7S631.33,281.67,631.33,281.67Z"/><polygon class="cls-21" points="792.72 654.43 650.63 654.43 603.27 552.68 610.28 493.04 710.27 412.35 815.52 461.47 836.57 577.24 792.72 654.43"/><polygon class="cls-9" points="573.45 449.19 541.87 412.35 566.43 317.63 659.4 289.56 729.57 329.91 666.42 429.89 573.45 449.19"/><polygon class="cls-22" points="589.23 350.96 541.87 412.35 573.45 449.19 666.42 429.89 708.52 364.99 589.23 350.96"/><polygon class="cls-23" points="659.4 289.56 669.93 359.73 708.52 364.99 729.57 329.91 694.48 307.1 659.4 289.56"/><polygon class="cls-24" points="566.43 317.63 589.23 350.96 540.12 405.34 566.43 317.63"/><polygon class="cls-9" points="541.87 654.43 508.54 542.16 564.68 479.01 603.27 482.52 617.3 496.55 634.84 654.43 541.87 654.43"/><polygon class="cls-25" points="571.69 528.13 603.27 482.52 617.3 496.55 638.35 633.38 612.04 598.29 571.69 528.13"/><polygon class="cls-26" points="508.54 542.16 571.69 528.13 603.27 482.52 564.68 479.01 508.54 542.16"/><polygon class="cls-22" points="555.03 511.46 548.89 486.9 577.83 422 630.46 409.72 677.82 385.16 698.87 443.93 692.73 495.68 602.39 536.02 555.03 511.46"/><polygon class="cls-27" points="599.76 440.42 630.46 409.72 577.83 422 599.76 440.42"/><polygon class="cls-28" points="692.73 495.68 622.56 415.86 630.46 409.72 677.82 385.16 698.87 443.93 692.73 495.68"/><polygon class="cls-29" points="654.14 329.91 698.87 443.93 766.4 461.47 841.83 433.4 861.13 379.02 854.11 335.17 789.21 317.63 654.14 329.91"/><polygon class="cls-30" points="766.4 350.96 766.4 461.47 841.83 433.4 861.13 379.02 815.52 342.19 766.4 350.96"/><polygon class="cls-31" points="854.11 335.17 766.4 350.96 654.14 329.91 789.21 317.63 854.11 335.17"/><polygon class="cls-32" points="861.13 379.02 854.11 335.17 815.52 342.19 861.13 379.02"/><polygon class="cls-33" points="792.72 545.67 789.21 473.75 771.67 417.62 868.14 405.34 919.02 447.44 876.92 564.96 792.72 545.67"/><polygon class="cls-34" points="880.42 435.16 919.02 447.44 876.92 564.96 855.87 559.7 875.16 500.06 880.42 435.16"/><polygon class="cls-35" points="771.67 417.62 857.62 428.14 919.02 447.44 903.23 426.38 868.14 405.34 771.67 417.62"/><polygon class="cls-36" points="792.72 654.43 820.78 554.44 857.62 535.14 906.74 547.42 854.11 654.43 792.72 654.43"/><polygon class="cls-37" points="868.14 559.7 906.74 547.42 854.11 654.43 831.31 654.43 868.14 559.7"/><polygon class="cls-9" points="857.62 535.14 820.78 554.44 868.14 559.7 906.74 547.42 857.62 535.14"/><path class="cls-8" d="M568.18,656.18s-17.54-5.26-11.4-27.19c0,0,10.52,2.63,14.91,12.28,0,0-4.39-11.4,2.63-18.42,0,0,15.79,1.75,17.54,34.21Z"/><polygon class="cls-38" points="585.73 657.93 585.73 600.05 633.09 584.26 638.35 591.28 650.63 657.93 585.73 657.93"/><polygon class="cls-25" points="622.56 607.06 638.35 591.28 650.63 657.93 634.84 654.43 622.56 607.06"/><polygon class="cls-39" points="622.56 607.06 585.73 600.05 633.09 584.26 638.35 591.28 622.56 607.06"/><polygon class="cls-40" points="381.37 659.69 368.21 604.64 344.53 593.91 303.75 626.8 308.57 659.69 381.37 659.69"/><polygon class="cls-41" points="344.09 618.03 368.21 604.64 381.37 659.69 334.88 659.69 344.09 618.03"/><polygon class="cls-42" points="344.53 593.91 344.09 618.03 368.21 604.64 344.53 593.91"/><path class="cls-43" d="M378.3,529.88s-5.26-22.37-15.79-17.1S378.3,529.88,378.3,529.88Z"/><path class="cls-43" d="M332.25,532.51s-19.73-9.21-18.42,3.95S332.25,532.51,332.25,532.51Z"/><path class="cls-43" d="M505.91,512.78s2.63-26.31,13.16-22.37S517.75,510.15,505.91,512.78Z"/><circle class="cls-43" cx="484.86" cy="564.09" r="5.26"/><circle class="cls-43" cx="428.29" cy="532.51" r="3.95"/><circle class="cls-43" cx="399.35" cy="593.03" r="5.26"/><path class="cls-4" d="M822.1,654.21s3.93-29,17.21-32L848.16,637s5.9-28,16.23-29.5c0,0,10.33,16.23,10.33,32.45,0,0,7.38-14.75,16.23-17.7,0,0,5.9,14.75,3,22.13,0,0,5.9-16.23,22.13-16.23,0,0,3,19.18-7.38,28Z"/><path class="cls-8" d="M850.6,540.41s-21,7.89-26.31-6.58,33.33,1.32,33.33,1.32-26.75-13.16-21.49-25,25,18.42,25,18.42-9.21-30.26,2.63-34.21,2.63,38.15,2.63,38.15,19.73-22.37,23.68-14.47-18.42,19.73-18.42,19.73Z"/><line class="cls-44" x1="442.76" y1="386.48" x2="441.45" y2="474.62"/><path class="cls-45" d="M535.86,358.87q0,11-.1,22c-.1,7.35-.15,14.69-.3,22L535,425c-.12,7.35-.3,14.69-.5,22l-2,0c0-7.35.05-14.69.15-22l.25-22c.07-7.35.24-14.69.36-22s.33-14.69.56-22Z"/><path class="cls-45" d="M465.44,356.19l.51-17.06.25-8.53.13-4.27c0-1.4.1-2.88.24-4.36a23.62,23.62,0,0,1,16.14-19.53,24.33,24.33,0,0,1,4.34-1,34.91,34.91,0,0,1,4.38-.2v2a32.83,32.83,0,0,0-4.14.19,22.34,22.34,0,0,0-4,.88,21.62,21.62,0,0,0-14.77,17.87c-.12,1.35-.19,2.72-.22,4.16l-.13,4.27-.25,8.53-.51,17.07Z"/><path class="cls-45" d="M532.13,341.67l.84-13.41.21-3.35.12-1.73a12.63,12.63,0,0,1,.2-1.75,23,23,0,0,1,2.1-6.75,22.76,22.76,0,0,1,4-5.81,21.88,21.88,0,0,1,5.5-4.39,24.4,24.4,0,0,1,13.45-3.19v2c-.56,0-1.13,0-1.67,0l-1.6.09a15.88,15.88,0,0,0-1.59.22,10.05,10.05,0,0,0-1.57.32,20.4,20.4,0,0,0-5.9,2.43,19.64,19.64,0,0,0-4.91,4,21.29,21.29,0,0,0-5.3,11.37,10.87,10.87,0,0,0-.15,1.59l-.09,1.62-.16,3.37L535,341.82Z"/><polygon class="cls-45" points="501.45 337.82 500.74 366.1 500.13 394.39 498.53 394.35 499.25 366.07 499.85 337.78 501.45 337.82"/><line class="cls-46" x1="454.6" y1="556.19" x2="453.29" y2="578.56"/><line class="cls-47" x1="475.65" y1="453.57" x2="474.34" y2="510.15"/></g><g id="camino_actual" data-name="camino actual"><path class="cls-48" d="M253.81,508.77c-80.28-8.42-163-15.54-241.37-23.72"/><path class="cls-49" d="M266.81,501.77c-80.28-8.42-163-15.54-241.37-23.72"/><path class="cls-50" d="M548.23,981.55C596.61,916.23,635.72,871.11,693,786c60.56-90,36.2-149.22-37.32-190"/></g></svg>