<svg xmlns="http://www.w3.org/2000/svg" width="1000" height="1000" viewBox="0 0 1000 1000"><defs><style>.cls-1{fill:#25c4a6;}.cls-2{fill:#2eb772;}.cls-3{fill:#7ea26f;}.cls-4{fill:#718e65;}.cls-5{fill:#31c37c;}.cls-6{fill:#32c77c;}.cls-7{fill:#67815c;}.cls-8{fill:#2db470;}.cls-9{fill:#84aa73;}.cls-10{fill:#8bd7b5;}.cls-11{fill:#2eb973;}.cls-12{fill:#7b9a6e;}.cls-13{fill:#4f4f98;}.cls-14{fill:#47c789;}.cls-15{fill:#2fbc75;}.cls-16{fill:#80a571;}.cls-17,.cls-18{fill:none;stroke-linecap:round;stroke-miterlimit:10;stroke-width:28px;}.cls-17{stroke:#362d02;opacity:0.5;}.cls-18{stroke:#aa53f2;}</style></defs><title>L6</title><g id="plano1"><ellipse class="cls-1" cx="721.24" cy="533.85" rx="206.69" ry="25.82"/><ellipse class="cls-2" cx="625.12" cy="701.88" rx="97.09" ry="3.25" transform="translate(-33.05 30.9) rotate(-2.76)"/><ellipse class="cls-2" cx="484.14" cy="688.97" rx="99.98" ry="7" transform="translate(-32.6 24.1) rotate(-2.76)"/><path class="cls-3" d="M555.1,527.43H895.85s14-44,10.36-56.93l-46.38-14.6L918,143.47,831.42,72,779.29,82.34,729.85,54.91l-68.93,45.87,1,69.86L620.17,188.1l-2.73-1.36a12.68,12.68,0,0,0-15.36,3.15l-4.23,5-28.69,12.29a29.15,29.15,0,0,0-17.61,28.56L560,375.37l-10.7,7.49a18.06,18.06,0,0,0-7.6,16.67Z"/><path class="cls-4" d="M758.35,240l-94.11-31.61a2.6,2.6,0,0,1-1.77-2.42l-.58-35.31L620.17,188.1l-2.73-1.36a12.68,12.68,0,0,0-15.35,3.15l-4.23,5-28.69,12.29a29.15,29.15,0,0,0-17.61,28.56L560,375.37l11.24,152.07H717l44-283.17A3.9,3.9,0,0,0,758.35,240Z"/><path class="cls-3" d="M557.77,219.73a3,3,0,0,0-3.31,1.55,29,29,0,0,0-2.91,14.47L560,375.37l11.24,152.07H699.34l.38-140.61,4.23-8.47-6.35-5.82,10.06-16.41-2.54-97.34A10.22,10.22,0,0,0,697,248.56Z"/><path class="cls-5" d="M831.07,71.59,779.29,82.34l-50-26.88-68.35,45.32,0,1.33,55.73-11.94a34.47,34.47,0,0,1,25,4.19l125.75,75.87,17-17,32.29-2.94,1.26-6.78Z"/><path class="cls-4" d="M879,144.46l-18.88,23.37-6.29,47.65L817,205.59,796.32,360.71,811.6,530.22h84.24s14-45.43,10.36-58.32l-46.38-15.3L918,143.82Z"/><path class="cls-3" d="M610.1,387.15,560,375.37l-10.7,7.49a18.05,18.05,0,0,0-7.6,16.67L555.1,527.43h63.17l-.61-135.24C617.88,392.19,615.54,388.33,610.1,387.15Z"/><path class="cls-6" d="M559.31,214.22a29.08,29.08,0,0,0-7.76,21.52L554,276.68c2,3.89,4.7,6.53,8.34,6.71,12.89.63,14.28-11,14.4-14.52,0,6.56.43,43.42,14.9,45.11,15.89,1.85,12.72-28.35,12.72-28.35s4.5,33.12,25.62,36.21c18.11,0,23.29-19.22,23.29-19.22s5.91,25.87,28.83,27.72,27.72-25.87,25.5-36.22l-.27-35a15.77,15.77,0,0,0-12.42-15.29L562.37,215Z"/><path class="cls-5" d="M758.35,240l-94.11-31.61a2.6,2.6,0,0,1-1.77-2.42l-.58-35.31L620.17,188.1l-2.73-1.36a12.68,12.68,0,0,0-15.36,3.15l-4.23,5-28.69,12.29a29.06,29.06,0,0,0-14.58,13.92,3,3,0,0,1,3.18-1.37l43.52,9,35.51,7.35L697,248.56c3.53.73,8.74,11.62,9.94,14.84,0,0-.29-9.13,17.7-11.12,9.25-1,36.34-8.08,36.34-8.08A3.89,3.89,0,0,0,758.35,240Z"/><polygon class="cls-7" points="710.39 238.66 722.25 247.44 726.06 251.91 723.57 288.27 734.98 250.95 729.71 244.37 710.39 238.66"/><polygon class="cls-7" points="853.85 215.48 820.58 220.6 796.48 358.64 817 205.59 853.85 215.48"/><polygon class="cls-7" points="871.32 193.19 876.56 208.93 870.73 229.93 870.73 229.93 871.71 251.39 858.37 267.86 874.86 252.12 874.81 232.26 881.81 210.1 871.32 193.19"/><path class="cls-7" d="M850.7,488.25l56.11-11.51a20.9,20.9,0,0,0-.6-5.38l-46.14-15Z"/><polygon class="cls-8" points="807.07 103.12 832.38 72.67 831.07 71.59 779.29 82.34 778.9 82.1 807.07 103.12"/><path class="cls-8" d="M733,55.77s74.51,39.54,79.87,44.29S825.44,111,832.89,117c14.87,12,30.67,22.89,30.67,22.89s-16.71-9.42-32.68-20.14c-8-5.32-15.87-10.87-21.68-15.19s-80.12-49-80.12-49Z"/><path class="cls-8" d="M653.84,239.45s10.95,1.5,21.83,3.3c2.72.44,5.47.76,8,1.24a65.71,65.71,0,0,1,6.83,1.84,47.43,47.43,0,0,1,6.5,2.56l-.07.33a47.42,47.42,0,0,1-7-.23,65.71,65.71,0,0,1-7-1c-2.52-.57-5.17-1.36-7.84-2-10.7-2.67-21.35-5.64-21.35-5.64Z"/><path class="cls-8" d="M557.8,219.56s.84-.09,2.28-.1,3.51-.07,5.93.11,5.26.39,8.26.8c1.49.23,3.05.38,4.6.7l4.72.88c3.14.71,6.28,1.41,9.19,2.26s5.58,1.83,7.89,2.57,4.17,1.71,5.5,2.22,2.05,1,2.05,1l-.07.33-25.25-5.05-25.18-5.39Z"/><path class="cls-8" d="M625,227.58a13.48,13.48,0,0,1,1.17,2.66,25.29,25.29,0,0,1,.88,12,13.38,13.38,0,0,1-.78,2.8,13.37,13.37,0,0,1-1.18-2.66,25.29,25.29,0,0,1-.87-12A13.48,13.48,0,0,1,625,227.58Z"/><path class="cls-8" d="M633,227.58a13.48,13.48,0,0,1,1.17,2.66,25.29,25.29,0,0,1,.88,12,13.38,13.38,0,0,1-.78,2.8,13.37,13.37,0,0,1-1.18-2.66,25.29,25.29,0,0,1-.87-12A13.48,13.48,0,0,1,633,227.58Z"/><polygon class="cls-7" points="734.11 416.45 735.96 375.83 729.72 358.13 735.86 340.37 728.99 328.27 725.54 318.48 733.02 325.96 735.25 333.2 739.31 340.6 733.88 357.02 740.68 374.81 734.11 416.45"/><path class="cls-9" d="M597.34,398.83l0-.53,16.61-10.13-20.7-5.65-29.16-6.28a9.51,9.51,0,0,0-7.45,1.5l-7.3,5.11a18,18,0,0,0-7.13,10.43Z"/><polygon class="cls-8" points="662.47 205.94 661.89 170.64 631.27 183.13 662.47 205.94"/><path class="cls-6" d="M559.78,417.95c-.7,2.8-3,17.25,5.36,17.72s14-6.76,10.49-28.21c0,0-1.17-4.9,2.8-1.87s10.72,3.73,11-1.4.11-11.46-8.3-12.57c-11.88-1.57-18.41-.29-27.54-11.73l-4.24,3a18.05,18.05,0,0,0-7.6,16.67L544.8,429a13.31,13.31,0,0,0,9.62-9.41C556.05,412.82,560.48,415.15,559.78,417.95Z"/><path class="cls-5" d="M546.55,385.3a17.89,17.89,0,0,0-1.6,2l-.23.32a18.28,18.28,0,0,0-2.53,5.71h0l15,1.51,8.71.88,5.4.54,17.88,1.8c-.5-1.89-4.12-6.38-8.32-6.85-25.83-2.94-16.24-19.21-27.31-11.27l-4.24,3a17.72,17.72,0,0,0-2.28,1.93C546.87,385,546.71,385.13,546.55,385.3Z"/><path class="cls-4" d="M616.31,395.45c0-.26-2.28-7.35-2.38-7.27L594.46,398.8l16.16,129.82,7.64.52Z"/><path class="cls-6" d="M613.93,388.17l-7.32-2c-14.16,2.37-9.29,12.41-9.29,12.41l.7,16.16c1,7.15,2.95,13.61,7,14.15,7.24.95,5.58-10.38,3.87-14.88s2.48-3.87,2.48-3.87C621.12,413.38,615.49,389.18,613.93,388.17Z"/><polygon class="cls-10" points="597.34 398.83 597.32 398.3 597.34 398.83 597.34 398.83"/><path class="cls-11" d="M606.61,386.18c-14.16,2.37-9.29,13-9.29,13v.86h0l0-1.15,16.61-10.44Z"/><polygon class="cls-12" points="699.72 386.82 666.52 526.9 699.34 527.43 699.72 386.82"/><path class="cls-4" d="M555.1,530.22H885.19c-7-4.34-14.87-3.59-23.41-4.5-17.89-2.15-51.21-7.12-51.21-7.12l-43.11,1.49-48.62-4-19.48,2.25-31.23,1.69-50-.58s-11.93,3.4-62,4.57c-.5,0-.93,1.51-1.4,1.57Z"/><path class="cls-3" d="M421.35,692.48l204-10.68L594,596.24a13.15,13.15,0,0,0-9.38-8.28l-53.78-12.41-34.71,40.14a4.72,4.72,0,0,1-6.08.91l-42.35-27.18L409.95,676A11.76,11.76,0,0,0,421.35,692.48Z"/><path class="cls-4" d="M512,597.29l-7-3.36-11.23,0H480.5l-1.85-1.67a6.71,6.71,0,0,0-4.5-1.73l-26-.48,46,29.17C493.84,619.11,512,597.29,512,597.29Z"/><path class="cls-7" d="M860.15,167.83a72.28,72.28,0,0,1,2.35-7.76c.24-.61.35-1.33.85-1.73a12.82,12.82,0,0,0,1.23-1.42l2.36-2.92,9.44-11.69,1-1.23,1.59,0,19.51-.39c3.25-.07,6.5-.11,9.75-.21.81-.27,1.63.2,2.45.44l2.46.83c1.64.6,3.28,1.24,4.92,2-1.61.78-3.22,1.48-4.84,2.15l-2.42.93c-.81.27-1.61.78-2.43.54-3.25,0-6.5.12-9.76.18l-19.51.39,2.58-1.27-9.44,11.69-2.36,2.92a12.84,12.84,0,0,0-1.13,1.5c-.29.57-1,.83-1.51,1.19A72.28,72.28,0,0,1,860.15,167.83Z"/><ellipse class="cls-2" cx="696.64" cy="666.98" rx="11.39" ry="3.29"/><path class="cls-4" d="M622.9,663.41l14.89-16.92-21.45,6.16-7,0h-8.27l-1.16-.87a4.7,4.7,0,0,0-2.81-.9l-16.23-.25L607,664.39C608.23,665,622,664.32,622.9,663.41Z"/><path class="cls-3" d="M555.41,704.07l136-5.91-19.63-44.41a7.66,7.66,0,0,0-5.69-4.17l-29-5.55c-2.88-.55-2.12,5-4.05,6.86l-22.27,13a3.38,3.38,0,0,1-3.79.47l-25.82-13.77a.65.65,0,0,0-.85.22l-26.74,51C553,702.95,554,704.13,555.41,704.07Z"/><path class="cls-13" d="M769.3,551.06c-2.2-1.26-16.47,2-25.34,13.39-6.93,8.91-10.27,18.46-9,24.11-8.7-2-26.47,6.21-24.09,14.16a20.5,20.5,0,0,1,19.44,12.75c5.31,12.3,12.12-12,9.5-22.07,5.77,1,15.12-4.79,22.68-14.49C771.41,567.52,771,552,769.3,551.06Z"/><circle class="cls-14" cx="755.46" cy="563.64" r="2"/><path class="cls-13" d="M899.1,705.75c.46-2.23-6.36-13.52-18.6-17.89-9.57-3.42-18.69-3.58-23.15-.85-.72-8-12.78-20.89-18.91-16.61A18.47,18.47,0,0,1,833,690.63c-9,8,13.65,7,21.56,1.89.79,5.21,8.36,11.58,18.79,15.3C885.61,712.2,898.75,707.45,899.1,705.75Z"/><circle class="cls-14" cx="884.44" cy="697.46" r="1.8" transform="translate(-174 312.26) rotate(-18.26)"/><path class="cls-13" d="M810.95,596.25c.87-.93,8.23-1.45,14.17,2.73,4.65,3.27,7.66,7.38,7.85,10.3,3.89-2.26,13.66-.89,13.68,3.28a10.33,10.33,0,0,0-7.49,9c-.75,6.71-7.6-4-7.82-9.24-2.64,1.32-8-.09-13.05-3.65C812.35,604.49,810.28,597,810.95,596.25Z"/><circle class="cls-14" cx="819.47" cy="600.28" r="1.01" transform="translate(-139.41 264.99) rotate(-16.95)"/><path class="cls-15" d="M696.66,676.75a1,1,0,1,1,0-2,37.56,37.56,0,0,0,4.19-.23,1,1,0,1,1,.23,2,39.57,39.57,0,0,1-4.42.25Zm-4.3-.23h-.11c-5.4-.61-10-2.31-12.53-4.69a1,1,0,0,1,1.38-1.48c2.21,2.05,6.47,3.61,11.37,4.16a1,1,0,0,1-.11,2Zm20.54-4.47a1,1,0,0,1-.69-1.75,4.19,4.19,0,0,0,1.55-3,1.06,1.06,0,0,1,1-1.07,1,1,0,0,1,1,1h-1l1,0a6.2,6.2,0,0,1-2.19,4.55A1,1,0,0,1,712.89,672.05Zm-34.41-3.71a1,1,0,0,1-1-1v-.06a6.16,6.16,0,0,1,2.14-4.43,1,1,0,1,1,1.39,1.46,4.16,4.16,0,0,0-1.51,3A1,1,0,0,1,678.49,668.34Zm34.31-3.85a1,1,0,0,1-.68-.26c-2.24-2-6.5-3.59-11.39-4.13a1,1,0,0,1-.9-1.12,1,1,0,0,1,1.11-.89c5.39.6,10,2.29,12.54,4.64a1,1,0,0,1-.68,1.76Zm-20.57-4.37a1,1,0,0,1-.12-2,39.11,39.11,0,0,1,4.42-.25h0a1,1,0,1,1,0,2,36.59,36.59,0,0,0-4.19.24Z"/><path class="cls-15" d="M752.68,774.48a1.62,1.62,0,0,1,0-3.24c2.49,0,5-.1,7.38-.29a1.64,1.64,0,0,1,1.74,1.48,1.62,1.62,0,0,1-1.48,1.74C757.82,774.38,755.25,774.48,752.68,774.48Zm-7.5-.29H745c-9.36-.75-17.51-2.89-22.36-5.88a1.62,1.62,0,1,1,1.7-2.76c4.44,2.73,12.06,4.7,20.93,5.41a1.62,1.62,0,0,1-.13,3.24Zm36.65-5.68a1.62,1.62,0,0,1-.86-3c1.61-1,3.53-2.58,3.53-4.38a1.69,1.69,0,0,1,1.56-1.69h.06a1.56,1.56,0,0,1,1.61,1.44c0,.07,0,.29,0,.37,0,1.71-.88,4.42-5.06,7A1.62,1.62,0,0,1,781.82,768.5Zm-62.65-5.72a1.59,1.59,0,0,1-1.62-1.58h0c0-1.87.87-4.57,5-7.16a1.62,1.62,0,0,1,1.72,2.75c-1.59,1-3.48,2.56-3.48,4.34A1.65,1.65,0,0,1,719.17,762.78Zm62.52-5.87a1.62,1.62,0,0,1-.85-.24c-4.46-2.72-12.09-4.68-20.94-5.38a1.62,1.62,0,0,1,.25-3.23c9.34.74,17.5,2.87,22.37,5.84a1.62,1.62,0,0,1-.85,3ZM745,751.32a1.62,1.62,0,0,1-.13-3.23c2.48-.2,5.05-.31,7.63-.31h0a1.62,1.62,0,0,1,0,3.24c-2.5,0-5,.1-7.38.3Z"/><path class="cls-15" d="M754.87,744.23h-.13a1.71,1.71,0,0,1-1.58-1.82s.09-1.24.45-3.36a1.74,1.74,0,0,1,2-1.4,1.71,1.71,0,0,1,1.39,2c-.32,1.89-.41,3-.41,3A1.71,1.71,0,0,1,754.87,744.23Z"/><path class="cls-15" d="M759.47,726.54a1.7,1.7,0,0,1-1.58-2.35c.62-1.52,1.32-3.1,2.11-4.71a1.7,1.7,0,1,1,3.05,1.5c-.75,1.53-1.42,3-2,4.49A1.7,1.7,0,0,1,759.47,726.54Zm4.45-9a1.7,1.7,0,0,1-1.47-2.57,65.29,65.29,0,0,1,9.35-12.33,1.7,1.7,0,1,1,2.45,2.37,61.94,61.94,0,0,0-8.87,11.69A1.7,1.7,0,0,1,763.92,717.51Z"/><path class="cls-15" d="M776.69,702a1.7,1.7,0,0,1-1.12-3c1.27-1.11,2.62-2.2,4-3.24a1.7,1.7,0,1,1,2,2.74q-2,1.49-3.81,3.07A1.69,1.69,0,0,1,776.69,702Zm17-10.6a1.7,1.7,0,0,1-.67-3.27q2.32-1,4.82-1.85a1.7,1.7,0,0,1,1.1,3.22q-2.38.82-4.59,1.76A1.68,1.68,0,0,1,793.72,691.42Zm9.51-3.27a1.7,1.7,0,0,1-.45-3.35,91.35,91.35,0,0,1,15.14-2.7,1.7,1.7,0,1,1,.33,3.39,88,88,0,0,0-14.57,2.6A1.66,1.66,0,0,1,803.24,688.15Z"/><path class="cls-15" d="M823.18,684.23c-.91,0-1.66-.26-1.7-1.17a1.51,1.51,0,0,1,1.62-1.56c1.08,0,2.18,0,3.29,0a1.67,1.67,0,0,1,1.73,1.73c0,.94-.73,1.3-1.67,1.31s-2.14-.32-3.19-.32Z"/><path class="cls-15" d="M692.67,653.51A1.71,1.71,0,0,1,691,652s0-.5,0-1.41a35.59,35.59,0,0,1,.46-5.47,1.7,1.7,0,0,1,3.37.53,32,32,0,0,0-.42,4.94c0,.68,0,1.07,0,1.11a1.7,1.7,0,0,1-1.54,1.84Zm7.54-24.38a1.7,1.7,0,0,1-1.42-2.64,54.81,54.81,0,0,1,4-5.33,1.7,1.7,0,1,1,2.59,2.21,51.44,51.44,0,0,0-3.77,5A1.7,1.7,0,0,1,700.21,629.12Zm8.37-9.85a1.7,1.7,0,0,1-1.16-2.95,69.79,69.79,0,0,1,8.58-6.82,1.7,1.7,0,0,1,1.91,2.82,66.36,66.36,0,0,0-8.16,6.49A1.7,1.7,0,0,1,708.58,619.28Z"/><ellipse class="cls-2" cx="754.13" cy="760.62" rx="17.29" ry="4.71"/><path class="cls-15" d="M835.37,647.22a.76.76,0,0,1,0-1.52c1.19,0,2.35-.05,3.47-.14a.76.76,0,1,1,.12,1.52c-1.15.09-2.36.14-3.58.14Zm-3.53-.14h-.06c-4.39-.35-8.22-1.35-10.5-2.75a.76.76,0,1,1,.79-1.3c2.09,1.28,5.67,2.2,9.83,2.53a.76.76,0,0,1-.06,1.52ZM849,644.4a.76.76,0,0,1-.4-1.41c.76-.47,1.66-1.21,1.66-2.06a.82.82,0,0,1,.73-.83.74.74,0,0,1,.79.64s0,.17,0,.19c0,.85-.41,2.13-2.38,3.35A.76.76,0,0,1,849,644.4Zm-29.44-2.67a.73.73,0,0,1-.76-.73v-.07c0-.84.4-2.1,2.32-3.31a.76.76,0,1,1,.81,1.28c-.73.46-1.6,1.19-1.6,2A.79.79,0,0,1,819.61,641.74Zm29.33-2.81a.77.77,0,0,1-.39-.11c-2.11-1.27-5.69-2.18-9.84-2.5a.76.76,0,1,1,.12-1.52c4.37.34,8.2,1.33,10.51,2.72a.76.76,0,0,1-.39,1.41Zm-17.22-2.59a.76.76,0,0,1-.06-1.52c1.15-.09,2.36-.14,3.59-.15h0a.76.76,0,1,1,0,1.52c-1.19,0-2.36.05-3.47.15Z"/><ellipse class="cls-2" cx="836.04" cy="640.71" rx="8.12" ry="2.21"/><path class="cls-16" d="M558.82,355.78a21.78,21.78,0,1,0-2.52-41.55Z"/><path class="cls-6" d="M660.94,102.11l0-1.33.82,59.13c6-2.55,12.91-9.15,16-25.58,0,0,4.54-5,4.54,1.36s-6.82,42.72,13.63,40.9,15.45-35.9,15.45-35.9-.91-3.64,3.18-1.36,0,19.54,15.45,12.72,6.36-33.63,8.18-35.45,5.91,2.73,5.91,12.27,18.18,7.27,15.45-7.27c-1.2-6.38-2.92-13.37-4.47-19.21l-18.1-10.92A20.41,20.41,0,0,0,722.11,89Z"/><path class="cls-8" d="M660.94,102.11s2.29-.89,5.77-2,8.18-2.3,12.92-3.33,9.53-1.82,13.15-2.26,6.08-.55,6.08-.55-2.29.9-5.77,2-8.18,2.3-12.92,3.32-9.53,1.81-13.15,2.26S660.94,102.11,660.94,102.11Z"/><path class="cls-8" d="M716.67,90.16a14.12,14.12,0,0,1,1.7-.64,24,24,0,0,1,4.72-1,26.6,26.6,0,0,1,6.86.17A27.57,27.57,0,0,1,737.49,91C740,92,742.07,93.79,744.12,95l5.54,3.7c3.25,2.15,5.38,3.66,5.38,3.66s-2.32-1.18-5.74-3.05l-5.86-3.18a38.32,38.32,0,0,0-6.82-3.1,49.67,49.67,0,0,0-13.49-2.76c-1.9-.12-3.51-.15-4.65-.16S716.67,90.16,716.67,90.16Z"/><polygon class="cls-12" points="600.16 448.42 577.62 481.16 573.64 484.62 577.73 500.42 572.4 504.44 582.23 512.95 580.97 523.26 609.34 520.87 600.16 448.42"/><polyline class="cls-7" points="575.19 527.25 576.36 514.1 572.4 504.44 577.23 498.08 573.64 484.62 577.62 481.16 574.61 484.95 578.69 499.44 577.73 500.42 576.33 506.31 582.23 512.95 582.87 527.45"/><path class="cls-6" d="M578.13,618.74c6.91,5.46,15.27,15.94,25.79,4.63l-10-27.32a12.78,12.78,0,0,0-9.12-8l-32.21-7.43c1.77,2.57,2.69,5,1,6.28-4.4,3.3-18.69,13.19-9.16,29.32S571.17,613.24,578.13,618.74Z"/></g><g id="camino_desbloqueado" data-name="camino desbloqueado"><path class="cls-17" d="M430,577.58c-23.85-32.8-38.54-67.58-41.57-103.91C370.75,262,429.66,143.77,518.87,20.41"/><path class="cls-17" d="M977.74,844.21C820.91,815.14,660.06,758.38,546,683"/><path class="cls-18" d="M443,570.58c-23.85-32.8-38.54-67.58-41.57-103.91C383.75,255,442.66,136.77,531.87,13.41"/><path class="cls-18" d="M990.74,837.21C833.91,808.14,673.06,751.38,559,676"/></g></svg>