<svg xmlns="http://www.w3.org/2000/svg" width="1000" height="1000" viewBox="0 0 1000 1000"><defs><style>.cls-1{fill:#50e6d3;}.cls-2{fill:#86f2d5;}.cls-3{fill:#9eaaab;}.cls-4{fill:#acb8ba;}.cls-5{fill:#bac8c9;}.cls-6,.cls-7{fill:#6a7273;}.cls-6{opacity:0.47;}.cls-8{fill:#8cc40b;}.cls-9{fill:#80b50b;}.cls-10{fill:#91cd0c;}.cls-11{fill:#84ba0b;}.cls-12{fill:#cd7a1c;}.cls-13{fill:#c0de47;}.cls-14{fill:#61c701;}.cls-15{fill:#d09c13;}.cls-16{fill:#cc7b22;}.cls-17{fill:#5cbd01;}.cls-18{fill:#5ac100;}.cls-19{fill:#66c600;}.cls-20{fill:#8fd200;}.cls-21,.cls-22{fill:none;stroke-linecap:round;stroke-miterlimit:10;stroke-width:28px;}.cls-21{stroke:#362d02;opacity:0.5;}.cls-22{stroke:#aa53f2;}</style></defs><title>L7</title><g id="plano1"><polygon class="cls-1" points="109 566 165 553 220 551 293 579 301 608 208 642 182 626 128 632 101 613 126 591 119 583 109 566"/><polygon class="cls-2" points="132 575 170 563 220 562 254 575 282 586 290 601 251 611 204 624 175 613 143 615 122 608 131 594 132 575"/><polygon class="cls-1" points="331.95 614.53 273.77 645.41 260.71 665.59 299.89 708.34 375.88 745.14 512.43 760.58 654.91 736.83 728.53 702.4 754.65 650.16 726.15 582.48 681.03 564.66 527.87 563.48 331.95 614.53"/><polygon class="cls-2" points="327.2 629.97 284.45 651.34 296.33 679.84 387.75 733.27 542.11 736.83 620.48 734.46 702.41 695.28 736.84 651.34 719.03 588.41 677 574.02 405.57 597.91 327.2 629.97"/><path class="cls-3" d="M724.37,650.75,695.88,681,567.64,722l-197.7-23.15-64.12-42.75a4.13,4.13,0,0,1,0-.46,275.37,275.37,0,0,1,7-47.84c5.49-22.65,15.21-46.52,32.17-55,35.62-17.81,94.4-37.4,94.4-37.4L573,517.17l85.49,46.73L677,574l29.57,16.17Z"/><path class="cls-4" d="M660.26,609.79l-48.09,32.06L483.93,672.12,459,659.65l-55.21-8.91-35.62,21.37L329,640.06l-16.14-32.27c5.49-22.65,15.21-46.52,32.17-55,35.62-17.81,94.4-37.4,94.4-37.4L573,517.17l85.49,46.73Z"/><polygon class="cls-5" points="355.7 549.23 410.91 520.73 553.39 511.83 619.29 542.11 578.33 590.19 444.75 609.78 336.11 600.88 320.08 575.95 355.7 549.23"/><path class="cls-6" d="M637.1,618.69c3.56,12.47,21.37,12.47,21.37,12.47s1.19-10.69-1.19-14.25S637.1,618.69,637.1,618.69Z"/><path class="cls-6" d="M517.18,625.22s-7.12,7.12-4.75,10.69,11.87,4.75,11.87,4.75-3.56-7.12-2.37-11.87S517.18,625.22,517.18,625.22Z"/><path class="cls-6" d="M417.44,615.72l7.12,11.87a92.07,92.07,0,0,0,1.19-10.69C425.75,613.35,417.44,615.72,417.44,615.72Z"/><path class="cls-6" d="M463.75,542.11c-5.72,2.86,4.75,9.5,4.75,9.5s5.09.15,5.51-5.86S468.5,539.73,463.75,542.11Z"/><path class="cls-6" d="M402,557.54c-3.83,1.91,3.56,14.25,7.12,15.44s11.87-7.12,9.5-11.87S404.38,556.35,402,557.54Z"/><path class="cls-6" d="M350.95,596.72c-5.87,1.47-10.69,14.25,2.37,15.44s15.44-8.31,14.25-13.06S355.7,595.54,350.95,596.72Z"/><path class="cls-6" d="M565.86,564.67c-1,3.43,13.06,11.87,13.06,11.87s7.12-20.19,3.56-21.37S568.24,556.35,565.86,564.67Z"/><path class="cls-6" d="M498.18,571.79c-3.83,7.66,20.46,14.3,19.13,6S501.74,564.67,498.18,571.79Z"/><polygon class="cls-6" points="526.68 534.98 537.36 538.54 538.55 529.04 526.68 534.98"/><polygon class="cls-6" points="430.5 523.11 418.63 526.67 425.75 531.42 430.5 523.11"/><polygon class="cls-6" points="373.51 555.17 365.19 564.66 373.51 567.04 373.51 555.17"/><polygon class="cls-7" points="694.1 626.41 695.28 639.47 701.22 627.6 694.1 626.41"/><path class="cls-7" d="M724.37,650.75,695.88,681,567.64,722l-197.7-23.15-64.12-42.75a4.13,4.13,0,0,1,0-.46c2-5.73,5-10.37,9.47-6.66,7.12,5.95,13,20.2,21.37,15.42s15.42-8.3,19,3.56,17.81,21.37,24.93,16.64S397.27,675.08,402,681s15.42,11.86,19,11.86,11.9-4.74,23.76-2.35,17.81,17.81,32.06,9.48,19-28.5,29.67-23.72,13.07,21.37,24.93,21.37,20.2-10.69,33.27-7.12,33.23,14.25,43.92,4.74,11.86-20.2,34.45-19S675.11,681,678.67,668s-4.77-13,14.25-14.25,21.37,4.77,19-15.42-32.06-24.93-27.32-35.62c4.1-9.19-5-22.73-7.59-28.64l29.57,16.17Z"/><circle class="cls-7" cx="373.51" cy="658.47" r="2.37"/><ellipse class="cls-7" cx="405.57" cy="671.53" rx="4.75" ry="5.94"/><circle class="cls-7" cx="396.07" cy="647.78" r="3.56"/><ellipse class="cls-7" cx="460.18" cy="670.34" rx="3.56" ry="4.75"/><ellipse class="cls-7" cx="485.12" cy="652.53" rx="4.75" ry="5.94"/><ellipse class="cls-7" cx="530.24" cy="681.03" rx="2.37" ry="1.19"/><circle class="cls-7" cx="550.42" cy="666.78" r="2.37"/><ellipse class="cls-7" cx="563.49" cy="646.59" rx="5.94" ry="4.75"/><ellipse class="cls-7" cx="581.3" cy="672.72" rx="4.75" ry="3.56"/><ellipse class="cls-7" cx="613.36" cy="670.34" rx="4.75" ry="3.56"/><ellipse class="cls-7" cx="659.66" cy="663.22" rx="4.75" ry="3.56"/><circle class="cls-7" cx="638.29" cy="643.03" r="2.37"/><circle class="cls-7" cx="609.79" cy="651.34" r="2.37"/><circle class="cls-7" cx="659.66" cy="577.73" r="4.75" transform="translate(-154.48 903.44) rotate(-63.02)"/><ellipse class="cls-6" cx="613.36" cy="587.23" rx="4.75" ry="5.94"/><path class="cls-8" d="M562.71,516.6l14-1.56a3.25,3.25,0,0,1,3.28,1.79c2.08,4.21,7.07,13.65,11.26,16.09,3.85,2.25,6.26,7.91,7.34,11a1.4,1.4,0,0,0,2.31.52l39.82-39.27a1.53,1.53,0,0,0,.28-1.81l-3.22-6.06a.41.41,0,0,1,.62-.5c1.81,1.51,4.7,3.41,7,2.67,3.27-1,20-21.18,24-26.06a2,2,0,0,0,.19-2.25L666.77,466l4.37,2.34a2,2,0,0,0,2.58-.62c2.7-3.94,10.18-14.73,13.45-18.52,2.93-3.39,7.09-9.14,9.16-12a.77.77,0,0,0-.85-1.18L650.4,448.81s-59.73,9.78-84.81,46.34Z"/><path class="cls-9" d="M544.33,531.28l9.88-.51s34.68-41,127-86.38C681.32,443.95,588.78,478.19,544.33,531.28Z"/><path class="cls-10" d="M562.31,500.33l-23.77,9.41a1,1,0,0,1-1.09-1.47c10-12.21,17.85-42.84,118-103.93a.88.88,0,0,1,1.34.86,215.57,215.57,0,0,1-16.65,54.05,2.43,2.43,0,0,1-2.59,1.36l-9.22-1.54,6,4.52a2.39,2.39,0,0,1,.62,3.13c-3.93,6.59-17.08,29-18,35.23a.2.2,0,0,1-.32.13l-15.34-10.82a.21.21,0,0,0-.3.3l12.4,16.84a.2.2,0,0,1,0,.19c-.48,1.24-5.37,13.63-8.05,14.84s-33.06-21.36-35-23.71S562.31,500.33,562.31,500.33Z"/><path class="cls-11" d="M544.58,531l10.19-.56S577,481.53,653.42,412.73C653.39,412.27,572.88,467.81,544.58,531Z"/><path class="cls-12" d="M307.62,250.09l16,52.86s5.58,20.74,24.73,30.32,94.14,17.55,107.7,78.18l16.75-43.88s-40.69-43.08-94.94-47.87c-34.4-3-33.51-40.69-56.8-83.44Z"/><path class="cls-13" d="M243.28,469l-.54.33a38.66,38.66,0,0,1-3.14-4.44A24.69,24.69,0,0,1,243.28,469Z"/><path class="cls-13" d="M243.28,469l-.54.33a38.66,38.66,0,0,1-3.14-4.44A24.69,24.69,0,0,1,243.28,469Z"/><path class="cls-14" d="M252.56,370.49s9.35-1.7,9.35-13.18c0-9.06-5.55-10.17-7.89-10.24a13.2,13.2,0,0,0,6.74-14.33c-1.59-7-8.95-11.39-16.42-9.7-.35.08-.68.18-1,.28a35.59,35.59,0,0,0-61.64-33,13.87,13.87,0,0,0-26.17,5c-2.18-4-7.55-9.48-20.28-6.08-10.28,2.74-13.9,11-15.08,18a25.66,25.66,0,0,0-30.54,39.14c-3.72-.56-8.84-.06-9.64,6.58-1.28,10.63,14.45,11.48,14.45,11.48l.24.28A20,20,0,0,0,126.52,389c.88,4.45,3.5,9.17,10.83,8.71,0,0-7.65,17.43,8.5,27.21,6.27,4,17.64,2.78,22.22-1.12a5.72,5.72,0,0,0,2.43,2.82c-2.55,7.23,7.46,21.87,29.87,2.22,0,0,13.13,17.26,36.27-1.25,13.88-10.28,8.74-26.73,8.74-26.73s3.75,1.43,7.21-2.9c2.91-3.16.31-6.71-2.64-6.9,3.13-.64,9.5-2.79,9.29-9.55C259,372.53,252.56,370.49,252.56,370.49Z"/><path class="cls-15" d="M158.18,589.43h53.57S175,566,200.38,428.83C230,417,241,387.54,240.18,375.69s-9.41-6.63-8.78.29-2.2,20.6-29.89,39.48c-11-8.18-25.48-24.62-25.48-24.62s-4.72-5.07-9.44.27.94,9.42.94,9.42l12,9.74s11.33,9.45,5,22S152.65,525.66,158.18,589.43Z"/><path class="cls-16" d="M157.42,571.57h43.08a95.05,95.05,0,0,1-6-20.93L158,552.1C157.57,558.71,157.37,566.47,157.42,571.57Z"/><path class="cls-16" d="M159.9,533.31h32.21c-.48-7.65-.73-13.87-.67-21.69l-28.59,1.55C161.73,519.68,160.73,525.66,159.9,533.31Z"/><path class="cls-16" d="M166.86,492.5h25.3c.46-7.65,1.16-15.26,2.13-23.56l-22.06,1.24C170.42,477,168.59,484.85,166.86,492.5Z"/><path class="cls-16" d="M176.13,456.79h19.8c.86-7.65,1.86-12.89,3-19.54l-16.66.92C180.61,442.55,178.46,449.14,176.13,456.79Z"/><path class="cls-16" d="M240.18,375.69c-.85-11.86-9.41-6.63-8.78.29s-2.2,20.6-29.89,39.48l-.23-.18-.9,13.55C230,417,241,387.54,240.18,375.69Z"/><path class="cls-17" d="M187.19,359.72a17.73,17.73,0,0,0-9,2.45,17.78,17.78,0,0,0-24.44,3.32,12.33,12.33,0,0,0-18.21,14.79,8.87,8.87,0,1,0,.7,17.72,9.24,9.24,0,0,0,9.27-7.53,15,15,0,0,0,29.63,2.37q.8-.37,1.55-.81a17.85,17.85,0,1,0,10.48-32.31Z"/><path class="cls-17" d="M244.11,358.7a7.48,7.48,0,0,0-5.11-.8,10.62,10.62,0,0,0-3.51-3.33A11.29,11.29,0,0,0,220.15,359a11.72,11.72,0,0,0-1.53,5.44A7.19,7.19,0,0,0,216,367c-2.19,3.79-.53,8.85,3.71,11.29,3.92,2.26,8.64,1.47,11.06-1.66a7,7,0,0,0,2,1.77c4.23,2.44,10.22,0,13.36-5.43S248.34,361.14,244.11,358.7Z"/><path class="cls-18" d="M268,579.69a14.87,14.87,0,0,0-14.87-14.87c-.35,0-.69,0-1,.05,0-.49.08-1,.08-1.48a23.65,23.65,0,0,0-47.28-1.21,17.6,17.6,0,0,0-21.47,25.48c.09,2.15.29,3.59.29,3.59l79.93-1A14.82,14.82,0,0,0,268,579.69Z"/><path class="cls-19" d="M422.83,248.09l16.68-2.74S515.77,180.88,510,121.18c-.77-7.89-56.7,55.21-56.7,55.21s-14.55-93.75-24.73-85-12.36,87.26-12.36,87.26-80-36.34-79.25-28c1.2,13.85,50.17,54.21,50.17,54.21s-58.52-6.13-60.16,0C323.85,216.43,422.83,248.09,422.83,248.09Z"/><path class="cls-20" d="M422.73,248.42l16.72-2.91s103-35.22,105.75-45c1.26-4.5-44.64-6.32-44.64-6.32s28.36-8.47,42.24-36.83c2.88-5.88-72.29,23.28-72.29,23.28s17.32-88.75,10-85.6c-12.09,5.18-48.49,85.6-48.49,85.6s-66.08-71.47-68.16-64c-4.65,16.62,30.36,78.3,30.36,78.3s-81.25-32.58-80.7-26.37c.82,9.13,63.24,45.13,65.58,49.35,2.12,3.81-63.52-.5-66.38,4.19-2.62,4.28,45.18,21.63,61.52,24C388.66,248.13,422.73,248.42,422.73,248.42Z"/><path class="cls-12" d="M486.37,410.2c-11.85-37.09-13.41-42.08-13.56-42.62h0s0-.11,0,0a179,179,0,0,0-32.55-25.63c-16.43-10.22-38-20.08-62.38-22.23-34.4-3-33.51-40.69-56.8-83.44l-13.44,13.83,16,52.86s5.58,20.74,24.73,30.32c16.17,8.09,72.17,15,97.36,53.53l23.77,195.16,74.91-7.23S500.12,453.23,486.37,410.2Z"/><path class="cls-18" d="M459.59,588.51h28.06L474,545.74a1.35,1.35,0,0,0-2.54-.05l-6.63,16.87a1.22,1.22,0,0,1-2.12.28L445.33,539.2a.5.5,0,0,0-.89.38C445.89,547.76,451.64,577.67,459.59,588.51Z"/><path class="cls-18" d="M545.37,577.75s-28.12.14-28.06,0c16.56-35.4,26.9-49.76,26.9-49.76a1.35,1.35,0,0,1,2.54-.05,124.1,124.1,0,0,1-7.7,30.12c-.36.89,1.55,1.05,2.12.28l37.3-31.41a.5.5,0,0,1,.89.38C577.93,535.49,553.32,566.92,545.37,577.75Z"/><path class="cls-20" d="M253.52,136.21s-11.32,45.12,26.19,96.7l30.47,24.83,7-10S324.08,176.2,253.52,136.21Z"/><path class="cls-19" d="M301.81,265.29,315.24,255s37-92.76,3.79-142.72c-4.39-6.6-28.75,86-28.75,86s-70.14-78.11-75-65.64S252,224.89,252,224.89s-61.88-21.53-60.17-13.29C196.5,234.27,250,243.95,250,243.95s-54.52,22.12-53.09,28.3C199.58,283.91,301.81,265.29,301.81,265.29Z"/><path class="cls-20" d="M301.89,265.62l13.39-10.43s74.34-79.54,72.15-89.44c-1-4.56-42.36,15.42-42.36,15.42s21-20.81,20-52.37c-.23-6.54-52.84,54.55-52.84,54.55s-26.46-86.46-31.47-80.23c-8.23,10.25-2.53,98.35-2.53,98.35s-95.74-44.44-95-36.76c3.13,31.26,68.33,67.13,68.33,67.13s-87,9.47-83.61,14.69c5,7.67,77,10.08,81.08,12.7,3.66,2.37-56.29,29.44-56.61,34.92-.29,5,50-2.16,65.56-7.79C271.68,281.4,301.89,265.62,301.89,265.62Z"/><ellipse class="cls-7" cx="323.64" cy="640.66" rx="3.56" ry="4.75"/></g><g id="camino_desbloqueado" data-name="camino desbloqueado"><path class="cls-21" d="M476.68,744.82C448.47,861.69,241.91,889.4,14.79,856"/><path class="cls-21" d="M454,25c-1.06,81.55,6.48,170.87,15,260.32"/><path class="cls-22" d="M489.68,737.82C461.47,854.69,254.91,882.4,27.79,849"/><path class="cls-22" d="M467,18c-1.06,81.55,6.48,170.87,15,260.32"/></g></svg>