<svg xmlns="http://www.w3.org/2000/svg" width="500" height="500" viewBox="0 0 500 500"><defs><style>.cls-1{fill:#d1aa27;}.cls-2{fill:#4f6485;}.cls-3{fill:#fbda00;}.cls-4{fill:#2f3b4f;}.cls-5{fill:#f9fbff;opacity:0.28;}</style></defs><title>lab_grabacion</title><g id="UI"><rect class="cls-1" x="136.97" y="176.15" width="211.18" height="268.25" rx="79.92" ry="79.92" transform="translate(70.54 -44.01) rotate(12.12)"/><polygon class="cls-2" points="346.84 218.83 299.41 208.65 341.92 51.4 372.62 57.99 346.84 218.83"/><path class="cls-3" d="M363.17,251.52l-22.76,106a79.92,79.92,0,0,1-94.9,61.35l-50.22-10.78c-1.17-.25-2.34-.53-3.49-.87a79.86,79.86,0,0,1-57.86-94l22.76-106a79.92,79.92,0,0,1,94.9-61.35l50.22,10.78a80,80,0,0,1,61.35,94.9Z"/><rect class="cls-2" x="177.93" y="182.52" width="160.8" height="108.56" rx="37.41" ry="37.41" transform="translate(55.47 -48.95) rotate(12.12)"/><rect class="cls-4" x="188.45" y="195.52" width="139.77" height="82.55" rx="31.86" ry="31.86" transform="translate(55.47 -48.95) rotate(12.12)"/><circle class="cls-1" cx="189.53" cy="306.91" r="7.37" transform="translate(-150.33 427.79) rotate(-77.88)"/><circle class="cls-1" cx="183.19" cy="336.44" r="7.37" transform="translate(-184.21 444.92) rotate(-77.88)"/><circle class="cls-1" cx="176.85" cy="365.97" r="7.37" transform="translate(-218.1 462.05) rotate(-77.88)"/><circle class="cls-1" cx="215.8" cy="312.55" r="7.37" transform="translate(-135.09 457.93) rotate(-77.88)"/><circle class="cls-1" cx="209.46" cy="342.08" r="7.37" transform="matrix(0.21, -0.98, 0.98, 0.21, -168.97, 475.06)"/><circle class="cls-1" cx="203.12" cy="371.61" r="7.37" transform="translate(-202.85 492.2) rotate(-77.88)"/><circle class="cls-1" cx="242.07" cy="318.2" r="7.37" transform="translate(-119.85 488.08) rotate(-77.88)"/><circle class="cls-1" cx="235.73" cy="347.72" r="7.37" transform="translate(-153.73 505.21) rotate(-77.88)"/><circle class="cls-1" cx="229.39" cy="377.25" r="7.37" transform="translate(-187.61 522.34) rotate(-77.88)"/><circle class="cls-1" cx="268.35" cy="323.84" r="7.37" transform="translate(-104.61 518.22) rotate(-77.88)"/><circle class="cls-1" cx="262.01" cy="353.37" r="7.37" transform="translate(-138.49 535.36) rotate(-77.88)"/><circle class="cls-1" cx="255.67" cy="382.9" r="7.37" transform="translate(-172.37 552.49) rotate(-77.88)"/><circle class="cls-1" cx="294.62" cy="329.48" r="7.37" transform="translate(-89.36 548.37) rotate(-77.88)"/><circle class="cls-1" cx="288.28" cy="359.01" r="7.37" transform="translate(-123.24 565.5) rotate(-77.88)"/><circle class="cls-1" cx="281.94" cy="388.54" r="7.37" transform="translate(-157.12 582.63) rotate(-77.88)"/><path class="cls-2" d="M354.33,255h0A16.63,16.63,0,0,1,371,271.64v25.71A16.63,16.63,0,0,1,354.33,314h0a0,0,0,0,1,0,0V255A0,0,0,0,1,354.33,255Z" transform="translate(67.8 -69.79) rotate(12.12)"/><path class="cls-2" d="M343.14,318.63h4.38a13.5,13.5,0,0,1,13.5,13.5v9.13a13.5,13.5,0,0,1-13.5,13.5h-4.38a0,0,0,0,1,0,0V318.63A0,0,0,0,1,343.14,318.63Z" transform="translate(78.53 -66.41) rotate(12.12)"/><path class="cls-5" d="M363.17,251.52l-8,37.17L191.79,407.25A79.81,79.81,0,0,1,134.2,348L351.44,190.34A79.6,79.6,0,0,1,363.17,251.52Z"/></g></svg>