<svg xmlns="http://www.w3.org/2000/svg" width="500" height="500" viewBox="0 0 500 500"><defs><style>.cls-1{fill:#ff6361;}.cls-2{fill:#ffb547;}.cls-3,.cls-8{opacity:0.15;}.cls-3{isolation:isolate;}.cls-4{fill:#99daea;}.cls-5{fill:#333e48;}.cls-6{fill:#d1d3d3;}.cls-7{fill:#c3c6c8;}</style></defs><title>mensajería</title><g id="UI"><path class="cls-1" d="M112,243.39h55.81a4.25,4.25,0,0,0,4.17-3.43l11.9-60.09a9.62,9.62,0,0,1,9.44-7.75H393.05a9.62,9.62,0,0,1,9.6,9l8.59,139.65H88.75l13.79-69.66A9.62,9.62,0,0,1,112,243.39Z"/><path class="cls-2" d="M96.51,281.58H113.2a5.44,5.44,0,0,1,5.44,5.44v11.74a5.43,5.43,0,0,1-5.44,5.44H92Z"/><path class="cls-3" d="M235.41,301.1h42.53a5.54,5.54,0,0,0,5-3.26,56.38,56.38,0,0,1,13.27-18.38,5.54,5.54,0,0,0,1.79-4.07v-78a5.54,5.54,0,0,0-11.08,0V273a67.3,67.3,0,0,0-12.5,17H235.41a5.54,5.54,0,0,0,0,11.08Z"/><path class="cls-4" d="M267.08,233.31H203.74a4.07,4.07,0,0,1-4-4.86l5.74-29a4.07,4.07,0,0,1,4-3.28h57.6a4.07,4.07,0,0,1,4.07,4.07v29A4.07,4.07,0,0,1,267.08,233.31Z"/><path class="cls-4" d="M317.94,233.31h58.25a4.07,4.07,0,0,0,4.06-4.32l-1.78-29a4.07,4.07,0,0,0-4.06-3.82H317.94a4.07,4.07,0,0,0-4.07,4.07v29A4.07,4.07,0,0,0,317.94,233.31Z"/><path class="cls-5" d="M364.23,255.46h15.54a5.54,5.54,0,1,0,0-11.08H364.23a5.54,5.54,0,0,0,0,11.08Z"/><path class="cls-5" d="M252.93,255.46h15.54a5.54,5.54,0,0,0,0-11.08H252.93a5.54,5.54,0,1,0,0,11.08Z"/><path class="cls-5" d="M197.51,247.78h20.94a3.92,3.92,0,0,0,3.92-3.92V233.73a3.92,3.92,0,0,0-3.92-3.92H197.51a3.92,3.92,0,0,0-3.92,3.92v10.13A3.92,3.92,0,0,0,197.51,247.78Z"/><path class="cls-5" d="M208.93,154.21H377.57a5.54,5.54,0,1,0,0-11.08H208.93a5.54,5.54,0,0,0,0,11.08Z"/><rect class="cls-5" x="358.69" y="148.67" width="11.08" height="23.45"/><rect class="cls-5" x="216.74" y="148.67" width="11.08" height="23.45"/><path class="cls-3" d="M286.82,320.8a44.29,44.29,0,0,1,88.59,0Z"/><path class="cls-3" d="M93.19,298.35H380.48A10.58,10.58,0,0,0,391,287.11l-7.08-115h9.09a9.62,9.62,0,0,1,9.6,9l8.59,139.65H88.75Z"/><circle class="cls-5" cx="331.12" cy="320.8" r="36.07"/><path class="cls-3" d="M324.36,352.81A36.06,36.06,0,0,0,346.21,288a36.06,36.06,0,1,1-36.93,61.45A35.91,35.91,0,0,0,324.36,352.81Z"/><circle class="cls-6" cx="331.12" cy="320.8" r="15.61"/><path class="cls-7" d="M388.65,329.3h28.12a5.13,5.13,0,0,0,5.13-5.13V309.32a5.13,5.13,0,0,0-5.13-5.13H388.65a5.13,5.13,0,0,0-5.13,5.13v14.86A5.13,5.13,0,0,0,388.65,329.3Z"/><path class="cls-3" d="M410.13,323.77a5.13,5.13,0,0,0,5.13-5.13V304.19h1.52a5.13,5.13,0,0,1,5.13,5.13v14.86a5.13,5.13,0,0,1-5.13,5.13H388.65a5.13,5.13,0,0,1-5.13-5.13v-.4Z"/><path class="cls-7" d="M117.78,329.3H83.23a5.13,5.13,0,0,1-5.13-5.13V309.32a5.13,5.13,0,0,1,5.13-5.13h34.55a5.13,5.13,0,0,1,5.13,5.13v14.86A5.13,5.13,0,0,1,117.78,329.3Z"/><g class="cls-8"><path d="M111.13,323.77a5.13,5.13,0,0,0,5.13-5.13V304.19h1.52a5.13,5.13,0,0,1,5.13,5.13v14.86a5.13,5.13,0,0,1-5.13,5.13H83.23a5.13,5.13,0,0,1-5.13-5.13v-.4Z"/></g><path class="cls-3" d="M141.89,320.8a44.29,44.29,0,1,1,88.59,0Z"/><circle class="cls-5" cx="186.19" cy="320.8" r="36.07"/><circle class="cls-6" cx="186.19" cy="320.8" r="15.61"/><path class="cls-3" d="M179.44,352.81A36.06,36.06,0,0,0,201.28,288a36.06,36.06,0,1,1-36.93,61.45A35.91,35.91,0,0,0,179.44,352.81Z"/></g></svg>