<svg xmlns="http://www.w3.org/2000/svg" width="500" height="500" viewBox="0 0 500 500"><defs><style>.cls-1{fill:#fff;stroke:#fff;stroke-miterlimit:10;stroke-width:22.85px;}.cls-2{fill:#f06c8c;}.cls-3{fill:#ed4a86;}.cls-4{fill:#599a1f;}.cls-5{fill:#8fc25c;}.cls-6{fill:#65b323;}.cls-7{fill:#bed990;}.cls-8{fill:#f59f3f;}.cls-9{fill:#f2821c;}.cls-10{fill:#019f9f;}.cls-11{fill:#38c7c2;}.cls-12{fill:#00b5b8;}.cls-13{fill:#68dec8;}</style></defs><title>repositorio</title><g id="UI"><path class="cls-1" d="M439.43,268.63a3.9,3.9,0,0,0-5.45.78l-7.91,10.54-73.85-147.7,13.6-13.6a3.9,3.9,0,0,0-5.51-5.51L347.48,126l-12.83-12.83a3.9,3.9,0,0,0-5.51,5.51l8.93,8.93H294.55l8.93-8.93a3.9,3.9,0,1,0-5.51-5.51L285.14,126l-12.83-12.83a3.9,3.9,0,0,0-5.51,5.51l13.6,13.6L225.81,241.44,219.6,229l13.6-13.6a3.9,3.9,0,0,0-5.51-5.51l-12.83,12.83L202,209.92a3.9,3.9,0,0,0-5.51,5.51l8.93,8.93H161.92l8.93-8.93a3.9,3.9,0,0,0-5.51-5.51l-12.83,12.83-12.83-12.83a3.9,3.9,0,0,0-5.51,5.51l13.6,13.6L73.93,376.72,66,366.18a3.9,3.9,0,1,0-6.23,4.68l11.69,15.59s.08.05.11.09a3.85,3.85,0,0,0,1.23,1l.19.08a3.91,3.91,0,0,0,.5.2l.06,0a3.89,3.89,0,0,0,1,.14H292.78a3.86,3.86,0,0,0,1.58-.36l.19-.08a3.86,3.86,0,0,0,1.23-1s.08-.05.11-.09l11.69-15.59a3.9,3.9,0,0,0-6.23-4.68l-7.91,10.54-42.75-85.5H425.41a3.86,3.86,0,0,0,1.58-.36l.19-.08a3.85,3.85,0,0,0,1.23-1s.08-.05.11-.09l11.69-15.58A3.9,3.9,0,0,0,439.43,268.63Z"/><path class="cls-2" d="M207.22,291.22a3.89,3.89,0,0,1-3.12-1.56l-11.69-15.58a3.9,3.9,0,1,1,6.23-4.68L210.33,285a3.9,3.9,0,0,1-3.11,6.23Z"/><path class="cls-2" d="M425.4,291.22a3.9,3.9,0,0,1-3.11-6.23L434,269.4a3.9,3.9,0,0,1,6.23,4.68l-11.69,15.58A3.89,3.89,0,0,1,425.4,291.22Z"/><path class="cls-3" d="M285.14,135.37a3.88,3.88,0,0,1-2.76-1.14L266.8,118.65a3.9,3.9,0,1,1,5.51-5.51l15.58,15.58a3.9,3.9,0,0,1-2.75,6.65Z"/><path class="cls-3" d="M285.14,135.37a3.9,3.9,0,0,1-2.76-6.65L298,113.14a3.9,3.9,0,0,1,5.51,5.51L287.9,134.23A3.88,3.88,0,0,1,285.14,135.37Z"/><path class="cls-3" d="M347.48,135.37a3.9,3.9,0,0,1-2.76-6.65l15.58-15.58a3.9,3.9,0,1,1,5.51,5.51l-15.58,15.58A3.88,3.88,0,0,1,347.48,135.37Z"/><path class="cls-3" d="M347.48,135.37a3.88,3.88,0,0,1-2.76-1.14l-15.58-15.58a3.9,3.9,0,1,1,5.51-5.51l15.58,15.58a3.9,3.9,0,0,1-2.76,6.65Z"/><path class="cls-4" d="M366.55,285.58,288.63,129.74a3.9,3.9,0,0,0-7,0L203.73,285.58a3.9,3.9,0,0,0,3.48,5.64H363.07a3.9,3.9,0,0,0,3.49-5.64Z"/><path class="cls-5" d="M281.66,129.74,203.73,285.58a3.93,3.93,0,0,0,3.48,5.64h35.07A3.9,3.9,0,0,0,245.8,289l39.34-83.5V127.58A3.9,3.9,0,0,0,281.66,129.74Z"/><path class="cls-5" d="M428.89,285.58,351,129.74a3.9,3.9,0,0,0-3.48-2.15H285.14a3.9,3.9,0,0,0-3.48,5.64l77.92,155.85a3.9,3.9,0,0,0,3.48,2.15h62.34a3.9,3.9,0,0,0,3.49-5.64Z"/><path class="cls-6" d="M366.55,285.58,288.63,129.74a3.89,3.89,0,0,0-3.48-2.15V291.22h77.92A3.93,3.93,0,0,0,366.55,285.58Z"/><path class="cls-7" d="M239.53,290.08A3.94,3.94,0,0,0,245.8,289l39.34-83.5-58.76,66.25a3.9,3.9,0,0,0,.16,5.34Z"/><path class="cls-8" d="M74.6,374.29a3.89,3.89,0,0,1-3.12-1.56L59.79,357.15A3.9,3.9,0,1,1,66,352.48l11.69,15.58a3.9,3.9,0,0,1-3.11,6.23Z"/><path class="cls-8" d="M292.78,374.29a3.9,3.9,0,0,1-3.11-6.23l11.69-15.58a3.9,3.9,0,0,1,6.23,4.68L295.9,372.74A3.89,3.89,0,0,1,292.78,374.29Z"/><path class="cls-9" d="M152.52,218.44a3.88,3.88,0,0,1-2.76-1.14l-15.58-15.58a3.9,3.9,0,1,1,5.51-5.51l15.58,15.58a3.9,3.9,0,0,1-2.75,6.65Z"/><path class="cls-9" d="M152.52,218.44a3.9,3.9,0,0,1-2.76-6.65l15.58-15.58a3.9,3.9,0,0,1,5.51,5.51L155.27,217.3A3.88,3.88,0,0,1,152.52,218.44Z"/><path class="cls-9" d="M214.86,218.44a3.9,3.9,0,0,1-2.76-6.65l15.58-15.58a3.9,3.9,0,1,1,5.51,5.51L217.61,217.3A3.88,3.88,0,0,1,214.86,218.44Z"/><path class="cls-9" d="M214.86,218.44a3.88,3.88,0,0,1-2.76-1.14l-15.58-15.58a3.9,3.9,0,0,1,5.51-5.51l15.58,15.58a3.9,3.9,0,0,1-2.76,6.65Z"/><path class="cls-10" d="M233.93,368.66,156,212.81a3.9,3.9,0,0,0-7,0L71.11,368.66a3.9,3.9,0,0,0,3.48,5.64H230.44a3.9,3.9,0,0,0,3.49-5.64Z"/><path class="cls-11" d="M149,212.81,71.11,368.66a3.93,3.93,0,0,0,3.48,5.64h35.07a3.9,3.9,0,0,0,3.51-2.22l39.34-83.5V210.65A3.9,3.9,0,0,0,149,212.81Z"/><path class="cls-11" d="M296.27,368.66,218.34,212.81a3.9,3.9,0,0,0-3.48-2.15H152.52a3.9,3.9,0,0,0-3.48,5.64L227,372.14a3.9,3.9,0,0,0,3.48,2.15h62.34a3.9,3.9,0,0,0,3.49-5.64Z"/><path class="cls-12" d="M233.93,368.66,156,212.81a3.89,3.89,0,0,0-3.48-2.15V374.29h77.92A3.93,3.93,0,0,0,233.93,368.66Z"/><path class="cls-13" d="M237.82,290.73l-15.58-31.17a3.9,3.9,0,0,0-3.48-2.15H203.16a3.93,3.93,0,0,0-3.48,5.64l15.58,31.17a3.9,3.9,0,0,0,3.48,2.15h15.58A3.93,3.93,0,0,0,237.82,290.73Z"/><path class="cls-13" d="M106.91,373.15a3.94,3.94,0,0,0,6.27-1.07l39.34-83.5L93.76,354.82a3.9,3.9,0,0,0,.16,5.34Z"/></g></svg>