<svg xmlns="http://www.w3.org/2000/svg" xmlns:xlink="http://www.w3.org/1999/xlink" width="1000" height="472" viewBox="0 0 1000 472"><defs><style>.cls-1{fill:#8a5300;}.cls-2{fill:#82ba00;}.cls-3{fill:#8bc700;}.cls-4{fill:url(#linear-gradient);}.cls-5{opacity:0.15;}</style><linearGradient id="linear-gradient" x1="134.95" y1="215.64" x2="872.27" y2="215.64" gradientUnits="userSpaceOnUse"><stop offset="0" stop-color="#a1d300"/><stop offset="1" stop-color="#b7e015"/></linearGradient></defs><title>base-pasto</title><g id="outline"><polygon class="cls-1" points="246.53 171.88 126.2 224.39 54 259.4 69.31 335.97 266.23 434.43 815.38 381.92 940.09 355.66 909.46 248.46 830.7 226.58 246.53 171.88"/><polygon class="cls-2" points="152.46 230.95 93.38 283.46 165.58 377.54 576.9 381.92 874.46 340.35 887.58 257.21 872.27 217.83 152.46 230.95"/><polygon class="cls-3" points="194.02 191.57 106.51 270.34 148.08 349.1 561.59 364.42 830.7 333.78 876.64 265.96 872.27 217.83 194.02 191.57"/><polygon class="cls-4" points="134.95 257.21 222.47 165.32 379.99 112.81 620.66 117.18 817.57 165.32 872.27 217.83 867.89 246.27 808.82 303.15 172.15 318.47 134.95 257.21"/><path class="cls-5" d="M602,109c-.48.32-1,.32-1.53.61a11.52,11.52,0,0,0-1.29,1.08c-1.15,1,.68,2.8,1.64,1.64a11.58,11.58,0,0,0,1.08-1.29c.29-.48.29-1,.61-1.53A.38.38,0,0,0,602,109Z"/><path class="cls-5" d="M346.7,214.72c-3-.58-5.24-1.24-7.55-3.33a2.54,2.54,0,0,0-4.19,1.11c-.91,2.28-.06,4.35.71,6.53a7.2,7.2,0,0,1,.32,1.11c-1.47.26-3.06,3.2-.89,4.52a3.4,3.4,0,0,0,4.84-1.91,6.93,6.93,0,0,0,.39-3.71,4.73,4.73,0,0,0-.15-.62,8.85,8.85,0,0,0,7-.13A2,2,0,0,0,346.7,214.72Z"/><path class="cls-5" d="M456.3,196.59a5.47,5.47,0,0,0-6.09-2.48,19,19,0,0,0-6.08,3.31,9.82,9.82,0,0,0-7.19,2.46c-.26.22-.5.47-.74.71-.24,0-.47,0-.71,0-3.18.24-6.49,3.28-5.18,6.81a13.89,13.89,0,0,0,2.22,3.83,9.43,9.43,0,0,0,6.68,8.26,10.64,10.64,0,0,0,7.53-.36,10.11,10.11,0,0,0,5.68-4.78C457.64,210.39,459.94,202.84,456.3,196.59Z"/><path class="cls-5" d="M492.52,142.88c-3.6-3.37-10.68-5.77-14.65-1.66-.22.12-.45.21-.66.35a11.9,11.9,0,0,0-4.31,14.05c3.65,8.94,18.3,10.05,22.77,1.24C498.08,152.09,496.27,146.39,492.52,142.88Zm-7.41,10.5a4.05,4.05,0,0,1-1.61.47c-2.07-.57-4.23-3.49-2.73-5.05a2.15,2.15,0,0,1,1.42-.63l.68.4a2.09,2.09,0,0,0,1.7.21,4.58,4.58,0,0,1,1.43,1.27,4.07,4.07,0,0,1-.05,2.66A3.32,3.32,0,0,1,485.11,153.37Z"/><path class="cls-5" d="M522.19,145a2.05,2.05,0,0,0-2.93,1.6v0a6.84,6.84,0,0,0-1.91,4.86,9.88,9.88,0,0,0-1.34.41,4.18,4.18,0,0,0-2.63,2.57l-.06,0a4,4,0,0,0-.62,4.79c3.61,5.93,12.07,5.79,15.93.26a3.76,3.76,0,0,0,.09-3.79,3.3,3.3,0,0,0,1.89-2C532.58,148.73,527,143.87,522.19,145Z"/><path class="cls-5" d="M655.41,222.34a17.71,17.71,0,0,0-7.46-3.69,10.89,10.89,0,0,0-10.28-5.31c-7.09.56-12,6.83-15.48,12.4a4.32,4.32,0,0,0-.62,2.58,14.49,14.49,0,0,0-.36,2.38,17.5,17.5,0,0,0,0,2.1,13,13,0,0,0-.22,6.6,3.45,3.45,0,0,0,3.28,2.49h0a13.9,13.9,0,0,0,13.47,5.4,17.36,17.36,0,0,0,2.4-.31C649.76,245,667.28,232.54,655.41,222.34Z"/><path class="cls-5" d="M722.82,215.38a6.4,6.4,0,0,0-3-.06,7.5,7.5,0,0,0-7.17,2.11,10.74,10.74,0,0,0-3.67,2.33c-3.64,3.65-3.12,9.35.51,12.79a8.66,8.66,0,0,0,8.86,1.91c4.52-.27,9.23-3.5,10.5-8.17A8.69,8.69,0,0,0,722.82,215.38Z"/><path class="cls-5" d="M698.83,185.41c-5.77-2.36-12.61,2.1-14.45,7.69a12.84,12.84,0,0,0-1.9,7.77c.31,3.66,1.85,5.54,5.65,5.4a13.85,13.85,0,0,0,8.52-3.62,15.33,15.33,0,0,0,4.83-8.1C702.12,191.58,702.13,186.75,698.83,185.41Z"/><path class="cls-5" d="M388.55,273.14a16.67,16.67,0,0,1-5.6,2c-.92.15-1.86.15-2.78.26q-.79.06-1.57.19l-.83.31-.34-.07a3.31,3.31,0,0,1,.27-1.67c.6-1.39,2-2.64,3.59-2.36s2.81-1.91,1.19-2.81c-5.93-3.28-12.59,3.58-11,9.64a5.42,5.42,0,0,0,3.85,4.06,12.8,12.8,0,0,0,1.55.19,4.26,4.26,0,0,0,1.71,1,11,11,0,0,0,2,.19A15.63,15.63,0,0,0,392.28,278C394.3,275.37,391.82,271.29,388.55,273.14Z"/><path class="cls-5" d="M671.88,307.37a31.22,31.22,0,0,1-4.83-.08c-1.47-.13-2.71-.75-4.2-.61a17,17,0,0,0-3.37.76,8.74,8.74,0,0,0-4.47-1.24,4.82,4.82,0,0,0-4.7,4.7,8.62,8.62,0,0,0,.25,2.86s0,.08,0,.13c-.36,4.23,3.6,6.61,7.28,6.28a9.75,9.75,0,0,0,5.93-.76,4.57,4.57,0,0,0,2.22-4.57c.9-.67,1.56-1.53,2.5-2.26a19.66,19.66,0,0,1,4.16-2.39C674,309.56,673.32,307.28,671.88,307.37Z"/><path class="cls-5" d="M381.63,142.76c-8.35-1.27-17.49,2.07-21.35,9.93A17.82,17.82,0,0,0,359,165.25s0,.09,0,.13c-1.84,7.74,5.84,16.83,13.22,17.78l.07,0a11.75,11.75,0,0,0,12.6-4.34C401.34,172.26,400.76,145.67,381.63,142.76Z"/><path class="cls-5" d="M758.29,174.92l0-.13-.09-.63a5,5,0,0,0-.52-1.2,7.62,7.62,0,0,0-3.24-2.9,8.13,8.13,0,0,0-5.09-.76c-1.85.35-4.16,1.58-4.44,3.65s.72,4.44,3,4.76a2.64,2.64,0,0,0,1.81,2.07,19.93,19.93,0,0,0,5.43.42,3.36,3.36,0,0,0,3.2-2.44A8.45,8.45,0,0,0,758.29,174.92Z"/><path class="cls-5" d="M308.17,289.82a3.22,3.22,0,0,0-2.3-2.19c.92-1-.54-2.84-1.77-2a12,12,0,0,0-2.84,2.66c-2.06.66-4,1.53-6.07,2.37a2.65,2.65,0,0,0-1.86,2.85,2.56,2.56,0,0,0,2.55,2.25l2.86-.37a1.87,1.87,0,0,0,.84,1.21,5.22,5.22,0,0,0,6.1-.51,5.43,5.43,0,0,0,1.94-2.73s0-.05,0-.09.19-.29.34-.55A3.46,3.46,0,0,0,308.17,289.82Z"/><path class="cls-5" d="M809.92,236.68c-1.42-4.31-6.41-6.63-10.73-5.56s-7.72,6-4.21,9.86a3.53,3.53,0,0,0,4.25.55c.52-.35,1.7-1.46,1.79-1.5,1.19-.54.32.24.33.22-.33,1.7-1.68,2.39-3.39,2.58a22.57,22.57,0,0,0-8.44-.82l-.26,0v0c-.36,0-.73.05-1.09.1-3.42.48-4,6-1,7.44,5,2.37,12.15,3,17.09.13C808.7,247.12,811.59,241.74,809.92,236.68Z"/><path class="cls-5" d="M822.49,209.12l-4.84,9c-.7,1.3,1.15,2.93,2.15,1.66l1.68-2.15a1.92,1.92,0,0,0,2.85.25c1-.87,1.14-2,1.43-3.24s.6-2.51.83-3.78C827,208.49,823.76,206.75,822.49,209.12Z"/><path class="cls-5" d="M547.22,228.57a2.8,2.8,0,0,0-4.1-1.82,6.7,6.7,0,0,0-.94,10.16c-.07.39-.11.79-.21,1.16a1,1,0,0,0,1.57.91c.24-.26.47-.52.69-.78,4.25,1.33,8.35-4.72,8.2-8.52C552.29,226.46,548.46,226.24,547.22,228.57Z"/><path class="cls-5" d="M820.74,205c-.59-1.58-3.2-2.44-4.06-.53a9.81,9.81,0,0,0-.56,2.28,4.19,4.19,0,0,0-1.63.73,4.23,4.23,0,0,0-1.25,5.5,2,2,0,0,0,2.72.71,10,10,0,0,0,3.64-3.5C820.46,208.81,821.36,206.66,820.74,205Z"/><path class="cls-5" d="M202.17,262.5c-1,1.6-1.62,3-3.36,4l-.27.12a7.21,7.21,0,0,1-1,.26,65,65,0,0,1,7-10.21c2.55-2.94-1.68-7.25-4.31-4.31-1.26,1.41-2.53,2.81-3.78,4.23a7.06,7.06,0,0,0-3.63,4.64,2.72,2.72,0,0,0,0,1.43,33.71,33.71,0,0,0-4,10.41c-.45,2.43,2.76,4.06,4.14,1.75l.16-.28c6.35,1.48,14.92-2.12,16.35-8.94A4,4,0,0,0,202.17,262.5Z"/><path class="cls-5" d="M237.4,233c-2.65-1.84-4.59-3.71-7.92-4.13a35.43,35.43,0,0,0-10.48.34c-2.59.44-2.82,3.72-1.42,5.37a14.2,14.2,0,0,0,15.43,4,3.22,3.22,0,0,0,2.22-3.85,12.09,12.09,0,0,1,1.7.06C237.94,234.85,238.07,233.46,237.4,233Z"/><path class="cls-5" d="M243.24,260.3a11.09,11.09,0,0,0-.55-1.29,3.45,3.45,0,0,0-.66-.87,6.43,6.43,0,0,0-4.28-3.66,7.89,7.89,0,0,0-6.83,1.43,10.08,10.08,0,0,0-3.07,1,9,9,0,0,0-5,6.69c-2.2,4-2.8,8.94-2.81,13.46a2.4,2.4,0,0,0,2.38,2.38,22.83,22.83,0,0,0,3.32-.43,3.08,3.08,0,0,0,3.43,1.59c5.85-1.14,11.87-3.08,14.57-8.92C245.43,268,245.43,263.53,243.24,260.3Z"/></g></svg>