<svg id="Layer_2" data-name="Layer 2" xmlns="http://www.w3.org/2000/svg" width="600" height="589" viewBox="0 0 600 589"><defs><style>.cls-1{fill:#3392ff;}.cls-2,.cls-7{fill:none;stroke-miterlimit:10;stroke-width:4.35px;}.cls-2{stroke:#2a78d1;}.cls-3{fill:#1875de;}.cls-4{fill:#ffe43c;}.cls-5{fill:#6c88a7;}.cls-6{fill:#d0d9e3;}.cls-7{stroke:#6c88a7;}</style></defs><title>buena</title><polygon class="cls-1" points="307.9 333.74 280.27 451.81 262.1 529.49 214.85 465.35 139.63 491.76 212.06 304.15 221.87 307.16 280.94 325.44 293.08 329.17 307.9 333.74"/><polyline class="cls-2" points="225.77 296.74 221.87 307.16 160.86 470.14 219.7 449.53 256.75 499.73 272.58 425.51 293.08 329.17"/><line class="cls-2" x1="295.42" y1="318.2" x2="294.98" y2="320.2"/><polygon class="cls-3" points="190.77 359.32 197.37 372.6 343.51 359.32 368.58 330.06 197.24 343.99 190.77 359.32"/><polygon class="cls-3" points="307.9 333.74 280.27 451.81 272.58 425.51 246.89 338.03 280.94 325.44 294.98 320.2 293.08 329.17 307.9 333.74"/><polygon class="cls-1" points="440.37 486.49 363.83 464.33 320.19 531 263.58 338.06 357.63 303.22 440.37 486.49"/><polyline class="cls-2" points="338.31 298.49 417.97 466.11 358.07 448.77 323.92 500.94 269.93 323.82"/><polygon class="cls-4" points="148.95 152.15 215.07 81.63 300.29 66.94 400.19 103.67 439.86 174.19 429.58 266.75 360.52 350.5 223.88 359.32 140.14 253.53 148.95 152.15"/><polygon class="cls-5" points="148.95 152.15 215.07 81.63 300.29 66.94 400.19 103.67 439.86 174.19 429.58 266.75 360.52 350.5 223.88 359.32 140.14 253.53 148.95 152.15"/><polygon class="cls-6" points="153.86 146.25 217.68 78.18 299.93 64 396.36 99.45 434.65 167.52 424.72 256.86 358.07 337.69 226.19 346.2 145.35 244.1 153.86 146.25"/><polygon class="cls-7" points="179.38 157.28 231.23 101.97 298.07 90.45 376.42 119.25 407.54 174.56 399.47 247.16 345.31 312.84 238.15 319.76 172.46 236.79 179.38 157.28"/></svg>