<svg id="Layer_2" data-name="Layer 2" xmlns="http://www.w3.org/2000/svg" width="600" height="589" viewBox="0 0 600 589"><defs><style>.cls-1{fill:#3392ff;}.cls-2,.cls-7{fill:none;stroke-miterlimit:10;stroke-width:4.35px;}.cls-2{stroke:#2a78d1;}.cls-3{fill:#1875de;}.cls-4{fill:#ffe43c;}.cls-5{fill:#cd690e;}.cls-6{fill:#d98c46;}.cls-7{stroke:#cd690e;}</style></defs><title>buena_block</title><polygon class="cls-1" points="294.9 330.74 267.27 448.81 249.1 526.49 201.85 462.35 126.63 488.76 199.06 301.15 208.87 304.16 267.94 322.44 280.08 326.17 294.9 330.74"/><polyline class="cls-2" points="212.77 293.74 208.87 304.16 147.86 467.14 206.7 446.53 243.75 496.73 259.58 422.51 280.08 326.17"/><line class="cls-2" x1="282.42" y1="315.2" x2="281.98" y2="317.2"/><polygon class="cls-3" points="177.77 356.32 184.37 369.6 330.51 356.32 355.58 327.06 184.24 340.99 177.77 356.32"/><polygon class="cls-3" points="294.9 330.74 267.27 448.81 259.58 422.51 233.89 335.03 267.94 322.44 281.98 317.2 280.08 326.17 294.9 330.74"/><polygon class="cls-1" points="427.37 483.49 350.83 461.33 307.19 528 250.58 335.06 344.63 300.22 427.37 483.49"/><polyline class="cls-2" points="325.31 295.49 404.97 463.11 345.07 445.77 310.92 497.94 256.93 320.82"/><polygon class="cls-4" points="135.95 149.15 202.07 78.63 287.29 63.94 387.19 100.67 426.86 171.19 416.58 263.75 347.52 347.5 210.88 356.32 127.14 250.53 135.95 149.15"/><polygon class="cls-5" points="135.95 149.15 202.07 78.63 287.29 63.94 387.19 100.67 426.86 171.19 416.58 263.75 347.52 347.5 210.88 356.32 127.14 250.53 135.95 149.15"/><polygon class="cls-6" points="140.86 143.25 204.68 75.18 286.93 61 383.36 96.45 421.65 164.52 411.72 253.86 345.07 334.69 213.19 343.2 132.35 241.1 140.86 143.25"/><polygon class="cls-7" points="166.38 154.28 218.23 98.97 285.07 87.45 363.42 116.25 394.54 171.56 386.47 244.16 332.31 309.84 225.15 316.76 159.46 233.79 166.38 154.28"/></svg>