<?xml version="1.0" encoding="utf-8"?>
<!-- Generator: Adobe Illustrator 18.0.0, SVG Export Plug-In . SVG Version: 6.00 Build 0)  -->
<!DOCTYPE svg PUBLIC "-//W3C//DTD SVG 1.1//EN" "http://www.w3.org/Graphics/SVG/1.1/DTD/svg11.dtd">
<svg version="1.1" id="Layer_1" xmlns="http://www.w3.org/2000/svg" xmlns:xlink="http://www.w3.org/1999/xlink" x="0px" y="0px"
	 viewBox="0 0 500 500" enable-background="new 0 0 500 500" xml:space="preserve">
<g>
	<g>
		<path fill="#B1DBDC" d="M202.5,330c-5-3.8-12.5-2.5-16.3,2.5c-18.8,25-47.5,40-80,40h-30c-6.2,0-11.2,5-11.2,11.2S70,395,76.2,395
			h31.3c20,0,38.8-5,55-13.8s31.2-21.2,42.5-35C208.8,341.2,207.5,333.8,202.5,330L202.5,330z"/>
		<path fill="#B1DBDC" d="M235,168.8c2.5,1.2,5,2.5,7.5,2.5c3.7,0,6.2-1.2,8.8-5c18.8-25,47.5-38.7,78.8-38.7h66.2l-35,35
			c-5,5-5,11.2,0,16.2c2.5,2.5,5,3.8,7.5,3.8c2.5,0,6.2-1.2,7.5-3.8l55-55c5-5,5-11.2,0-16.2l-55-55c-5-5-11.2-5-16.2,0
			s-5,11.2,0,16.2l35,35h-66.3c-37.5,0-73.7,17.5-97.5,47.5C230,157.5,230,165,235,168.8L235,168.8z"/>
		<path fill="#B1DBDC" d="M377.5,320c-5-5-11.2-5-16.2,0c-5,5-5,11.2,0,16.2l35,35H330c-55,0-100-45-100-100v-43.8
			C230,160,175,105,107.5,105H76.2C70,105,65,110,65,116.2s5,11.2,11.2,11.2h31.3c55,0,100,45,100,100v43.8
			c0,67.5,55,122.5,122.5,122.5h66.2l-35,35c-5,5-5,11.3,0,16.2c2.5,2.5,5,3.8,7.5,3.8c2.5,0,6.2-1.2,7.5-3.8l55-55
			c5-5,5-11.2,0-16.2L377.5,320z"/>
	</g>
</g>
</svg>
