<?xml version="1.0" encoding="utf-8"?>
<!-- Generator: Adobe Illustrator 18.0.0, SVG Export Plug-In . SVG Version: 6.00 Build 0)  -->
<!DOCTYPE svg PUBLIC "-//W3C//DTD SVG 1.1//EN" "http://www.w3.org/Graphics/SVG/1.1/DTD/svg11.dtd">
<svg version="1.1" id="Layer_1" xmlns="http://www.w3.org/2000/svg" xmlns:xlink="http://www.w3.org/1999/xlink" x="0px" y="0px"
	 viewBox="0 0 500 500" enable-background="new 0 0 500 500" xml:space="preserve">
<g>
	<rect x="137.5" y="112.5" fill="#B1DBDC" width="62.5" height="25"/>
	<path fill="#B1DBDC" d="M396.2,37.5H87.5C80,37.5,75,40,75,46.2v401.2c0,6.2,5,12.5,12.5,12.5l311.2,1.2c6.3,0,13.8-5,13.8-12.5
		V46.2C412.5,40,403.8,37.5,396.2,37.5z M262.5,75h100v37.5h-100V75z M262.5,137.5H325v25h-62.5V137.5z M112.5,75h125v87.5h-125V75z
		 M150,388.8h-25v-25h25V388.8z M150,337.5h-25V300h25V337.5z M150,275h-25v-37.5h25V275z M362.5,387.5H175v-25h187.5V387.5z
		 M362.5,337.5H175V300h187.5V337.5z M362.5,275H175v-37.5h187.5V275z"/>
</g>
</svg>
