<?xml version="1.0" encoding="utf-8"?>
<!-- Generator: Adobe Illustrator 18.0.0, SVG Export Plug-In . SVG Version: 6.00 Build 0)  -->
<!DOCTYPE svg PUBLIC "-//W3C//DTD SVG 1.1//EN" "http://www.w3.org/Graphics/SVG/1.1/DTD/svg11.dtd">
<svg version="1.1" id="Layer_1" xmlns="http://www.w3.org/2000/svg" xmlns:xlink="http://www.w3.org/1999/xlink" x="0px" y="0px"
	 viewBox="0 0 500 500" enable-background="new 0 0 500 500" xml:space="preserve">
<path fill="#B1DBDC" d="M408.8,25H96.2C88.8,25,75,45,75,51.2v405c0,6.2,10,12.5,16.2,12.5l311.2,1.2c6.2,0,10-5,10-12.5V51.2
	C412.5,45,416.2,25,408.8,25z M142.5,400h-11.2c-6.2,0-10-6.2-10-12.5s5-12.5,10-12.5h11.2c6.2,0,10,6.2,10,12.5
	S147.5,400,142.5,400z M142.5,350h-11.2c-6.2,0-10-6.2-10-12.5s5-12.5,10-12.5h11.2c6.2,0,10,6.2,10,12.5S147.5,350,142.5,350z
	 M375,400H186.2c-6.2,0-10-6.2-10-12.5s5-12.5,10-12.5H375c6.2,0,10,6.2,10,12.5S381.2,400,375,400z M375,350H186.2
	c-6.2,0-10-6.2-10-12.5s5-12.5,10-12.5H375c6.2,0,10,6.2,10,12.5S381.2,350,375,350z M383.8,141.2l-51.2,56.2
	c-5,6.2-13.8,6.2-20,2.5l-33.8-22.5L205,273.8c-2.5,3.8-6.2,5-10,6.2h-1.3c-3.8,0-7.5-1.2-10-3.8L127.5,230c-7.5-5-8.7-15-2.5-21.2
	c5-6.2,15-7.5,21.2-2.5l43.8,36.2l72.5-95c5-6.2,13.8-7.5,21.2-3.8l35,23.8l42.5-46.2c6.2-6.2,15-6.2,21.2-1.2
	C388.8,125,388.8,135,383.8,141.2z"/>
</svg>
