<svg id="Layer_1" data-name="Layer 1" xmlns="http://www.w3.org/2000/svg" width="600" height="589" viewBox="0 0 600 589"><defs><style>.cls-1{fill:#212121;}.cls-2{fill:#e05500;}.cls-10,.cls-3,.cls-4{fill:none;stroke:#000;stroke-miterlimit:10;}.cls-3{stroke-width:2px;}.cls-10,.cls-4{stroke-linecap:round;}.cls-4{stroke-width:3px;}.cls-5{fill:#fff;}.cls-6{fill:#333;}.cls-7{fill:#171717;}.cls-8{fill:#234191;}.cls-9{fill:#3d5fba;}.cls-10{stroke-width:3.16px;}</style></defs><title>premio_L8_descubierto</title><path class="cls-1" d="M257.23,256.5s-71.06-146.06-77.75-177-17.57,20.91,4.18,103.73c0,0-8.37,9.2-1.67,23.42s23.78,93.44,41.83,108.75S257.23,256.5,257.23,256.5Z"/><path class="cls-2" d="M188.33,128.33l60.58,146.08s-16.49,32.25-23.31,18-21-57.33-21-57.33V223.38l-10-14.22V193.27l2.51-9.2-8.5-31.57-5.22-6.29,2.54-4.95-5.2-19.59,4.16,5Z"/><path class="cls-3" d="M229.49,274.46S204,284,189.67,261"/><path class="cls-3" d="M287,272.07s8.87,4.42,20.51-4.58c10.11-7.82,9.16-14.29,9.16-14.29"/><path class="cls-4" d="M228.6,464.55c-11.67,9.12-33.19,37.27-35.07,46.5"/><path class="cls-4" d="M331.07,517.43c-11.3-32.82-38.66-59.08-38.66-59.08"/><path d="M195.7,505.58s-7.36-8.22-14.13-7.5-7.29,4.77-1.88,6.74c7.8,2.85,10.67,9,14.41,7.62C195.83,511.82,195.7,505.58,195.7,505.58Z"/><path d="M330.62,517.34a1.19,1.19,0,0,0,1.81.73c3.44-2.25,11.24-6.24,12.08-8.94.39-1.25,1.94-4.39-4.08-3.15-3.22.66-9.64,4.45-10.94,6.49Z"/><path class="cls-1" d="M287.55,349.15c20.61-70.93,184-290.88,188.76-269.31,5.75,25.88-11.5,74.28-11.5,74.28s44.57,86.74-31.15,167.26c0,0,35.46,40.26,34.51,89.62s.48,83.87-27.8,68.53-130.89-61.32-144.79-99.66Z"/><path class="cls-2" d="M441,291.7l7.88-37.8L462.45,234l-3.1-50.63-10.56-19.11L457.06,146s4.27-13.05,1.86-34c-.78-6.82-12.94,15.72-60.2,81.13s-97.39,149.16-97.39,149.16l-.88,27.45s39.82,39.55,82.17,59.95c15.86,7.63,62.79,31.84,62.79,31.84s13.71,0,9.29-10.17c-1-2.39,1.16-18.85,1.16-18.85l-9.26-24.85-2.28-21.35,1.43-16.18-9.89-16.57S425.07,327.61,417.11,320Z"/><polygon class="cls-1" points="422.71 171.86 416.94 170.23 409.94 217.54 391.06 265.19 305.83 354.86 308.94 359.01 395.55 269.26 415.43 217.72 422.71 171.86"/><polygon class="cls-1" points="406.09 169.34 433.24 178.99 451.63 177.33 458.97 170.85 455.31 167.22 436.83 172.87 415.66 164.4 406.09 169.34"/><polygon class="cls-1" points="462.4 135.26 453.91 148.1 445.54 152.06 427.06 150.92 421.67 158.48 443.69 155.18 459.18 153.26 462.4 135.26"/><polygon class="cls-1" points="462.94 191.67 439.04 202.93 406.17 235.45 408.95 227.21 437.25 197.53 463.54 186.05 462.94 191.67"/><polygon class="cls-1" points="461.5 241 418.95 253.41 390.81 272.68 391.06 265.19 419.13 247.26 466.15 232.96 461.5 241"/><path class="cls-5" d="M437.41,329.79a8.3,8.3,0,0,1-2.82.84c-1.13,0,0,3.1,1.55,2.67S439.8,330.5,437.41,329.79Z"/><path class="cls-5" d="M206.85,257.91a8.3,8.3,0,0,1-2.82.84c-1.13,0,0,3.1,1.55,2.67S209.25,258.62,206.85,257.91Z"/><path class="cls-1" d="M432.66,335.2s-6,8-26.16,14.62-99.74,4.73-106,13.48l-.54-7.67,65.75-13.12,59-29.05S431.31,329.51,432.66,335.2Z"/><path class="cls-1" d="M369,349.32l20.34,5.59L408.88,375l-1.77,3.26-6.52,2.13-78.92,3.83-4.74-6.14,83.78-1.31a2.72,2.72,0,0,0,2.42-2.71h0l-17.85-15.48L369,349.32Z"/><polygon class="cls-1" points="396.1 362.62 417.1 353.32 438.44 351.6 440.16 356.39 417.79 356.08 397.82 366.06 396.1 362.62"/><polygon class="cls-1" points="359 382 391 398 428 457 432.13 455.62 395.08 395.47 366.76 379.78 359 382"/><polygon class="cls-1" points="405.91 374.36 429.33 383.33 450.67 409.33 450.67 414 426.67 386.96 404.06 377.69 405.91 374.36"/><path class="cls-6" d="M223.28,341c-19.86,24.35-43.25,48.69-28.51,86.17,6.71,17.82,6.89-1.16,6.89-1.16s9.31,42.88,28.82,46.39c7.38-.88-7.38-22.14-7.38-22.14s35.63,42.23,50.61,29.52c5.8-4.92-10.19-15.82-10.19-15.82s39.15,17,37.15,2c0,0,6.33-7.33,4.33-14.33,0,0,4.33-11.33-3-27.67,0,0,10,8.33,11-13.33,0,0,.76,8,4.24,4.2a10.81,10.81,0,0,0,3.18-7.53s1.16,6.08,4.34.29.72-47-19.11-66.58C284.24,319.92,243.15,316.68,223.28,341Z"/><line class="cls-4" x1="194.67" y1="392.67" x2="161.33" y2="400.67"/><path d="M162.35,402.14s-2.56,2.56-9.64-6.29-5.29-10.77,1.57-8.85C159.2,388.37,167.46,400.76,162.35,402.14Z"/><path class="cls-6" d="M282.15,431.82s-20.34,15-6.78,37.29,66.36,38.26,76.53,17.92-.48-55.22-13.08-51.34a12.15,12.15,0,0,0-9.91,10.62s-2.32-2.58-3.87-2.07c0,0-2.64-10-11.1-14.72C313.93,429.53,307.44,414.74,282.15,431.82Z"/><path class="cls-7" d="M351.42,445.56C356,456,352.51,468,349.67,470.65s-7.2-3.49-7.2-3.49,3.05,7.64-1.53,9.82c-9.82,5.45-10.91-18.11-10.91-14.62s-1.75,9.6-4.8,8.29c-4-2-3.83-11-3.2-17-1,3.58-3.07,7.62-7.71,8.1-7,.71-14.17-14-19-23.21-2,1.06-.94,1-3.22,2.51,0,0-28.11,8.77-16.71,28.11,13.25,22.47,66.36,38.26,76.53,17.92,6.4-12.8,4.55-31.35-.84-42.38C351.15,444.92,351.27,445.23,351.42,445.56Z"/><path class="cls-7" d="M328.9,446.31s8.61,5.32,15.4,22.45c6.95,17.52-10.56,27.2-10.56,27.2s14.33-11.73,9.12-27.67C337.94,453.22,328.9,446.31,328.9,446.31Z"/><path class="cls-7" d="M325,444.25s7.5,9.34,3.79,25.71-32.39,17.28-32.39,17.28,32-.86,33.93-19.42C332,451.5,325,444.25,325,444.25Z"/><path class="cls-7" d="M313.93,429.53s13.85,8.3,5.52,31.82C310,488,282.91,478.07,282.91,478.07s29.2,11.56,38.06-16.69C328.55,437.19,313.93,429.53,313.93,429.53Z"/><path class="cls-6" d="M298,305c0,26.78-30.25,57-40.79,57.39-14.13.54-40.79-30.61-40.79-57.39s16.45-48.31,40.79-48.49C281.84,256.32,298,278.21,298,305Z"/><path d="M95.41,235.83c2.37,1.62-.82,10.73-7.43,20.14-10.22,14.53-13.65,15.9-16,14.28s-2.1-6.62,7.43-20.14C86,240.71,93,234.21,95.41,235.83Z"/><ellipse cx="190.1" cy="259.82" rx="1.85" ry="3.05" transform="translate(-36.51 31.14) rotate(-8.55)"/><ellipse cx="316.72" cy="253.2" rx="2.62" ry="2.73"/><path class="cls-7" d="M257.23,362.38c-13.8.53-38.59-29.18-39.74-55.52q-.05,1.27-.05,2.55c0,26.78,25.66,57.93,39.79,57.39,10.55-.4,39.79-30.61,39.79-57.39,0-.88,0-1.76-.06-2.63C295.71,333.11,267.54,362,257.23,362.38Z"/><ellipse class="cls-8" cx="226.9" cy="303.5" rx="14.66" ry="26.58" transform="translate(-81.9 83.87) rotate(-17.8)"/><ellipse class="cls-8" cx="275.75" cy="303.19" rx="31.11" ry="19.43" transform="matrix(0.32, -0.95, 0.95, 0.32, -99.34, 468.32)"/><path class="cls-7" d="M263.52,464s39.15,17,37.15,2c0,0,6.33-7.33,4.33-14.33,0,0,4.33-11.33-3-27.67,0,0,10,8.33,11-13.33,0,0,.76,8,4.24,4.2a10.81,10.81,0,0,0,3.18-7.53s1.16,6.08,4.34.29.72-47-19.11-66.58c-1-1-2-1.87-3-2.75-2.3,8,17.78,42.62-2.17,31.41-4.85-2.73,2,31.55-.29,40.82s-13.32-16.21-15.05-17.08,9.55,43.13.87,49.21S268,427.89,268,427.89c-4.63,28.37-29.24,8.39-29.24,8.39,0,10.71-4.34,2.61-4.34,2.61-3.18,5.79-5.21-8.39-6.95-4.34s-5.21-8.11-5.21-8.11c-2.61,3.18-9.55-14.18-9.55-14.18-13,2.95-13.09-25.62-12.14-41.44-9.72,15.94-14.71,33.77-5.82,56.38,6.71,17.82,6.89-1.16,6.89-1.16s9.31,42.88,28.82,46.39c7.38-.88-7.38-22.14-7.38-22.14s35.63,42.23,50.61,29.52C279.51,474.89,263.52,464,263.52,464Z"/><path class="cls-9" d="M292.83,298.88c-3.38,11.81-14.58,20-22.73,17.67s-12-13.8-8.63-25.61,14.58-20,22.73-17.67S296.22,287.07,292.83,298.88Z"/><path class="cls-9" d="M238.13,292.6c4.18,10.49,1.15,22.54-5.57,25.21s-15.55-3.66-19.73-14.15-1.15-22.54,5.57-25.21S233.95,282.11,238.13,292.6Z"/><ellipse class="cls-5" cx="287.76" cy="287.75" rx="7.61" ry="13.11" transform="translate(-29.93 33.43) rotate(-6.32)"/><path class="cls-5" d="M286.21,306.21a4.39,4.39,0,0,1-1.4,3.69c-1.12.87-3.44.62-4.12-2.5s.06-4.19,1.58-4.52S285.9,303,286.21,306.21Z"/><ellipse class="cls-5" cx="230.16" cy="290.25" rx="5.05" ry="9.39" transform="translate(-102.61 127.52) rotate(-25.53)"/><path class="cls-5" d="M458.82,389.26a2.73,2.73,0,0,0-2.43,3.23c.3,3,1.21,4.71,4.24,3.47S464.28,389.26,458.82,389.26Z"/><path class="cls-5" d="M432,461.83s-.66-5.25-4-4.83-1.11,5.13.36,5.88S431.5,465.37,432,461.83Z"/><path class="cls-5" d="M434.71,467.75s3.17-3.17,5.2-.68-.68,3.17.45,5-1.81.68-2.71,1.81S432.45,472,434.71,467.75Z"/><path class="cls-5" d="M352.49,420.79s-1.28.77,0,2,2.94,2.77,2.94,4.68,3.07-2,2-2.2S357,417.54,352.49,420.79Z"/><path class="cls-5" d="M433.5,311s-2.9-.44-2.2-1.67,2.37-1.14,2.46-1.93,3.17-.09,2.2,1.14S435.87,310.82,433.5,311Z"/><path class="cls-5" d="M397.14,442.71a4.82,4.82,0,0,1-3.14,3.51c-2.59.74-3.51-2.31-2.22-3.14s1.39-2.68,3.74-2.11A2.45,2.45,0,0,1,397.14,442.71Z"/><path class="cls-5" d="M449.78,376.78s-1,2.38-.81,2.8,2.44,2.52,3.73,1.26,1.3-4.34,1.3-4.34Z"/><path class="cls-5" d="M441.66,339.79s-3.48-.85-3.48,1.06.7,6.15,2.32,6.15,4.64-1.48,4.41-3.6S444,339.37,441.66,339.79Z"/><path class="cls-5" d="M447.56,279s-3.85,5.93-1.48,7.7,4.45-.59,5.93-.59S454.37,278.16,447.56,279Z"/><path class="cls-5" d="M444,296s0,2.13-2.71,3.3,3.49,5.43,4.65,3.49S449.24,296.39,444,296Z"/><path class="cls-5" d="M453.38,410.39s1.54,4,3.53,3.34,2.84-3.56,2-4.41S455.26,403,453.5,404,454.16,408.51,453.38,410.39Z"/><path class="cls-5" d="M451,356.39s-6.34,2-4.87,4.66,4.39-.58,6.34,1.46S455.42,357.55,451,356.39Z"/><path class="cls-5" d="M211.61,277.72s-4.8,1.54-3.69,3.53,3.32-.44,4.8,1.1S214.93,278.6,211.61,277.72Z"/><path class="cls-5" d="M460,441.11s-4.62,1.52-1.76,5.65,5.06-.65,5.28-3.26S462.4,438.29,460,441.11Z"/><path class="cls-5" d="M403.54,455.09c.84,2.69,3.34,1.67,5.29,3.48,1.61,1.5,0-5.15-2.65-6.82C405.28,451.18,402,450.22,403.54,455.09Z"/><path class="cls-5" d="M462.5,417.39s.3,2.89-1.22,4.41,3.5,4.26,4.11,2.43,2.13-5.78.61-6.24S463.87,415.26,462.5,417.39Z"/><path class="cls-5" d="M422.9,321.66s-.66,6.3,2.72,5.68,1.56-4.37,4.14-6.8-5.1-4-5.57-1.81A5.94,5.94,0,0,1,422.9,321.66Z"/><path class="cls-5" d="M470.51,86.4s-4.9,4.05-5.89,6.36-7.26,9.76-6.43,10S476.15,81.48,470.51,86.4Z"/><path class="cls-5" d="M445.59,117.9a5.62,5.62,0,0,0,4-3.52c1.19-3.06.63-5.42,3.94-8.7s-1.11-3.94-2-2S442.68,117.64,445.59,117.9Z"/><path class="cls-5" d="M369.34,425.63s-2.05.21-1.44,1.64,2.77,2.46,3.49.82S371,426,369.34,425.63Z"/><path class="cls-5" d="M379.29,436.55s-6.18-.66-6.1,1.48.32,5,2.38,4.68,3.89-1,3.81-2.54S380.39,436.74,379.29,436.55Z"/><path class="cls-5" d="M454,469.5c-2.55,1.37-3.24,1.54-2.78,3.39s2.47,2.16,4.47,3.39,4.16-3.7,2.93-3.7S456,468.42,454,469.5Z"/><path class="cls-5" d="M461,265.48s1.85,2.66,1,3.57-5.08,4.37-4.93.55A4.3,4.3,0,0,1,461,265.48Z"/><path class="cls-5" d="M471.94,208s1.45,5.72-.41,6.81-4.9-.86-4.39-1.81S469.63,205.35,471.94,208Z"/><path class="cls-5" d="M469.11,191.67s-5.56-.8-6.27-2.68,3.48-5.28,4.69-3.8S472.13,190.85,469.11,191.67Z"/><path class="cls-5" d="M465.11,150.16c-.95.65-3.54-.69-4.74.12s-4-1.52-1.44-3.73,6.3-1.73,6.39-.08S465.85,149.65,465.11,150.16Z"/><path class="cls-5" d="M470.18,110.58S468.51,115,469,117.2s-3.5.66-3.08-.08S467.8,108.87,470.18,110.58Z"/><path class="cls-5" d="M473.95,95.37s-.58,4.73-2.16,4.09-3.19-2.18-.55-4.93S473.95,95.37,473.95,95.37Z"/><path class="cls-5" d="M462.23,240.45s4.74,1.63,3.52,4.35-4.12,1.88-5.09-.51S462.23,240.45,462.23,240.45Z"/><path class="cls-5" d="M459.69,253.94c-.71-2.8-1.43-3.39-3.35-2s-1.09,4.19-1.49,5.82S460.36,256.6,459.69,253.94Z"/><path class="cls-5" d="M470.63,229.11a2.34,2.34,0,0,0,.35,2.3c.86,1.39.31,3.11-.54,2.85s-4.23-3.22-3.39-4.09S468.9,226.33,470.63,229.11Z"/><path class="cls-5" d="M435.89,131.3a3.51,3.51,0,0,0-.7,2.61c.34,1.26-1.13,3.6-2,3.7s-3.38-1.84-2-3.31S435.22,128.78,435.89,131.3Z"/><path class="cls-5" d="M464.69,198.06a8.3,8.3,0,0,0,1.45,2.56c.81.78-2.14,2.23-3,.86S462.48,196.91,464.69,198.06Z"/><path class="cls-5" d="M465.61,162.76a8.3,8.3,0,0,0,1.45,2.56c.81.78-2.14,2.23-3,.86S463.4,161.61,465.61,162.76Z"/><path class="cls-5" d="M469.45,174.18a8.3,8.3,0,0,0,1.45,2.56c.81.78-2.14,2.23-3,.86S467.24,173,469.45,174.18Z"/><path class="cls-5" d="M460.11,161.14s-2.9,2.68-2.31,3.25-1.8,3.06-2.47,2.41-4.89-1.5-4-2.45,6.23-7,7.42-5.87S461,160.19,460.11,161.14Z"/><path class="cls-5" d="M463.73,132.57s.93,1.67-.55,2.4-2-1.55-1.34-2.46S463.41,131.68,463.73,132.57Z"/><path class="cls-5" d="M433.39,126.4s.93,1.67-.55,2.4-2-1.55-1.34-2.46S433.07,125.51,433.39,126.4Z"/><path class="cls-5" d="M467,121.93s-1,.62-.43,3.1-1.64,2.52-2.46,1.54-1.07-3.76.2-4.68S466.61,120.54,467,121.93Z"/><path class="cls-5" d="M468.67,101.85s.87,3.37-1.1,4.4a34,34,0,0,0-6,4.2C460.11,111.78,464.23,103.83,468.67,101.85Z"/><line class="cls-4" x1="367.57" y1="416.66" x2="311.18" y2="383.42"/><path d="M358.88,412.66c-3.09-9.78,7.07-19.48,11.07-16.48,2.06,1.54-1.09,21.51-1.09,21.51S359.47,414.54,358.88,412.66Z"/><polygon class="cls-1" points="182.39 147.56 190.81 152.18 200.49 151.76 199.64 148.82 192.07 147.98 182.39 144.19 182.39 147.56"/><polygon class="cls-1" points="180.14 134.76 186.74 138.43 193.1 136.72 193.1 133.54 186.01 135.74 179.66 131.34 180.14 134.76"/><path class="cls-1" d="M195.32,151.54l15.41,50.06,5.15,37.07a4.37,4.37,0,0,0,.14.64L237.69,262l5.37-2.69L220.78,238l-6.23-37.4L197.94,150Z"/><polygon class="cls-1" points="195.55 185.08 199.68 195.57 210.74 201.59 210.84 197.51 201.78 192.63 197.04 184.06 195.55 185.08"/><polygon class="cls-1" points="194.53 209.16 205.18 215.49 215.19 225.5 214.81 227.19 204.8 217.94 193.66 211.14 194.53 209.16"/><path class="cls-10" d="M245.58,266.86s-50.43-36.91-87.35-41.33-57.71-4.42-77.73,26.26"/><path class="cls-5" d="M185.38,121c0,1.3-1.38,2.91.69,3.37,1,.22,2.23-1.34,1.93-2.49S185.27,118,185.38,121Z"/><path class="cls-5" d="M182.27,151.82c-.62-1.13-3.68-2-3.13-.5.36,1,1,2.14,1.91,2.18A1.4,1.4,0,0,0,182.27,151.82Z"/><path class="cls-5" d="M181.41,138.69c-.62-1.13-1.15,0-2.66.49-2.4.83.53,2.51,1.43,2.55S181.66,139.15,181.41,138.69Z"/><path class="cls-5" d="M187.44,186.08s-1.28.77,0,2,2.94,2.77,2.94,4.68,3.07-2,2-2.2S191.94,182.84,187.44,186.08Z"/><path class="cls-5" d="M186.3,162s-3.08-.47-2.34-1.78,2.52-1.21,2.62-2.06,3.36-.09,2.34,1.21S188.83,161.79,186.3,162Z"/><path class="cls-5" d="M182.49,167.94a6.48,6.48,0,0,0-.51,1.75c.1.26,1.52,1.58,2.33.79a4.64,4.64,0,0,0,.81-2.72Z"/><path class="cls-5" d="M189.69,173.2s-1,3.27-.81,3.85,2.43,3.46,3.72,1.73,0-1.55-.17-3.08C192.07,172,189.69,173.2,189.69,173.2Z"/><path class="cls-5" d="M191.13,210.16s-2.74-.67-2.74.83.55,4.83,1.82,4.83,3.65-1.17,3.47-2.83S193,209.83,191.13,210.16Z"/><path class="cls-5" d="M200.79,245.52s-3.85,5.93-1.48,7.7,4.45-.59,5.93-.59S207.61,244.63,200.79,245.52Z"/><path class="cls-5" d="M196.86,224.91s0,2.13-2.71,3.3,3.49,5.43,4.65,3.49S202.1,225.3,196.86,224.91Z"/><path class="cls-5" d="M184.07,198.33a3.87,3.87,0,0,1-.76,2.76c-1,1,2.19,2.66,2.57,1.52s1.33-3.61.38-3.9S184.93,197,184.07,198.33Z"/><path class="cls-5" d="M209.4,267.73a3.87,3.87,0,0,1-.76,2.76c-1,1,2.19,2.66,2.57,1.52s1.33-3.61.38-3.9S210.26,266.4,209.4,267.73Z"/><path class="cls-5" d="M174.72,105.89s-1.86.49-1.47,1.57,1.27,1.76,3.82,3.42,5.09,6.46,4.89,3.72-3.33-5.48-4-7.73S175.7,104.52,174.72,105.89Z"/><path class="cls-5" d="M177.07,124.24s-4,0-3.34,2.05,2.81.68,4.48,2.13,2.13-3.42.76-3.57A3.71,3.71,0,0,1,177.07,124.24Z"/><path class="cls-5" d="M183.32,106s-.11,3.2,1.25,4.33,3.32,6,4.23,5.74S183.2,102.27,183.32,106Z"/><path class="cls-5" d="M177.15,84.93a5.62,5.62,0,0,0-.33,5.33c1.33,3,3.41,4.26,3.41,8.93s3.58,2,2.81,0S179.38,83,177.15,84.93Z"/><path class="cls-5" d="M190.48,118.17s-.13,7.9,1.21,11.95,2.89,2.54,2.89,2.54S192.27,113.42,190.48,118.17Z"/><path class="cls-5" d="M176.41,96.79s-1.66.12-1.54,1.3,2,1.78,2.49,1.18S176.05,98,176.41,96.79Z"/><path class="cls-10" d="M270,265s17-48.5-18-82-86-56-109.1-42"/><path d="M151.75,138c.87,1.89-3.38,5.69-9.48,8.49-9.32,4.27-11.75,3.53-12.62,1.64s-.53-3.9,9.48-8.49C145.23,136.83,150.88,136.09,151.75,138Z"/><ellipse class="cls-7" cx="244.37" cy="327.4" rx="3.59" ry="2.77"/><path class="cls-4" d="M244.94,379.61c-.41-2,.14-5.85,3.13-6.4s1.91,8.3-2.45,10.07-6.67-11.57-5.85-20.42,10.83-35.86,20.09-19.72c16.94,30.43-6.35,55-12.17,59.54s-18.79,9-23.29-18.52,17.47-53.46,17.47-53.46,2.72-2.7,2.72-3.73"/></svg>