<svg id="Layer_2" data-name="Layer 2" xmlns="http://www.w3.org/2000/svg" width="600" height="589" viewBox="0 0 600 589"><defs><style>.cls-1{fill:#38667d;}</style></defs><title>premio_leccion_6_3_block</title><path class="cls-1" d="M509.61,431.56c2.06-15.82,60.53-118.31-51.59-252.44S229.65,51.18,229.65,51.18C207.64,19.54,176,39.48,176,39.48c-19.95-2.06-49.53-11.69-91.49,13.07s-44,81.17-36.46,99.74c6.5,16,6.4,24.29,6.24,26.32a28,28,0,0,0,11.64,48.65c20.38,99.5,96.64,82.53,117.74,76.06h0l.9-.28.13,0,.76-.24.16-.05.66-.22.17-.06.56-.19.17-.06.48-.16.1,0,.6-.21.16-.06.22-.07.1,0,.17-.05h0c7.59,1.05,14.38,1.87,20.5,2.48l4.27.4q5.19.46,9.72.72c4.15.24,7.91.36,11.37.38,2.59,0,5,0,7.29-.12l2.23-.11c1.46-.08,2.85-.18,4.2-.3s2.79-.28,4.11-.44c1.69-.21,3.31-.46,4.87-.72l2-.35,1.65-.32c1.54-.31,3-.64,4.5-1l1.86-.44,1.56-.38,4.39-1.11,3.87-1,.82-.2a111.62,111.62,0,0,0,30.53,45.08q1,.93,2.14,1.84c16,13.37,38.72,24.37,70.93,26.83h0l1.3.1.43,0,.81,0h1.63l.59,0,.46,0,.53-.06.89-.13.33-.06.5-.12.27-.07.47-.15.21-.07.45-.18.15-.07.44-.23,0,0c4.42-2.6,1.06-9-8.07-16.08-11.05-8.6-24.73-39.33-23.85-61h.21a111,111,0,0,1,31.81,6.3q4,1.46,7.75,3.21t7.19,3.74a92.21,92.21,0,0,1,9.78,6.52q3.07,2.34,5.88,4.87A101.76,101.76,0,0,1,434.68,333q1.12,1.46,2.19,2.95c2.14,3,4.11,6,5.94,9.15s3.51,6.29,5.06,9.49a159,159,0,0,1,8.46,21.53c.44,1.41.87,2.81,1.27,4.2.84,2.91,1.58,5.78,2.25,8.59.3,1.27.6,2.53.87,3.78.84,3.84,1.53,7.54,2.1,11.06l.14.89c1.13,7.07,1.77,13.37,2.14,18.4l0,.28c.55,7.67.45,12.36.45,12.36h0c-58,4.82-84.78,103.82-88.48,116.58S380,563,380,563c21.93-26.09,63-30.29,90.86-57a54.11,54.11,0,0,0,9.81-13c6.56-11.87,12.91-16,12.91-16-3.7,10.29-.41,33.33,17.28,35s17.7,24.69,29.22,23.46,8.64-20.16,6.17-42.39C548.71,429.22,509.61,431.56,509.61,431.56Z"/><path class="cls-1" d="M172.83,444a5.44,5.44,0,0,0,4.59.55,13,13,0,0,0,4-2.18,12.87,12.87,0,0,1-4.08,1.81,4.87,4.87,0,0,1-4.07-.8,7.59,7.59,0,0,1-2.32-3.52,15,15,0,0,1-.83-4.23l-1.5.11a16.29,16.29,0,0,0,1.29,4.54A8.49,8.49,0,0,0,172.83,444Z"/></svg>