<svg id="Layer_1" data-name="Layer 1" xmlns="http://www.w3.org/2000/svg" width="600" height="589" viewBox="0 0 600 589"><defs><style>.cls-1{fill:#d1bc9f;}.cls-2{fill:#c0a78e;}.cls-3{fill:#917f6a;}.cls-4{fill:#3b3b39;}.cls-5{fill:#1d1d1b;}.cls-6{fill:#f3eee8;}.cls-7{fill:#dfdad4;}.cls-8{fill:#fff;}.cls-9{fill:#f6f4f1;}.cls-10{fill:#d3d3d3;}.cls-11{fill:#dcc7aa;}.cls-12{fill:#595957;}</style></defs><title>premio_L4_descubierto</title><path class="cls-1" d="M382.45,438.34s30.92,36.48,35.43,69.48,8.86,36,21,36.56c0,0,.29,3.62,6.66,1.19s15.17-9.26,13.43-45.28a34.38,34.38,0,0,1,3.47,6.48c.8,2.52,9.26-28.14-3.94-57a75.19,75.19,0,0,1,7.31,13c2.33,5.75,2.07-39.41-11.83-80.05a139.74,139.74,0,0,1,11,13.78c.8,1.22,1.37-4.17-4.75-18.64-7.46-17.65-14.27-54.19-8.7-64.27C451.57,313.62,372,386.57,382.45,438.34Z"/><path class="cls-2" d="M435.37,482c-4.41.93-4.62.46-2.54-8.57,6.72-24.55-1.39-29.18-6.95-31s-4.4-26.4-8.8-34.51c-3.94-7.26-26.08,28-30.65,35.45,8.49,11.09,28,38.83,31.47,64.49,2.78,20.35,5.51,29.3,10,33.3C431.57,529.62,439.38,481.15,435.37,482Z"/><path class="cls-2" d="M394.27,451.19s30-29.41,47.94-104c0,0-56.13,88.36-54.19,94.61A19.33,19.33,0,0,0,394.27,451.19Z"/><path class="cls-1" d="M253.57,347.2s-6.48,49.56-13,66.24-8.8,42-7.18,41.11,5.33-5.67,5.33-5.67-.81,33.93,5.79,37.63c1.16,0,6.25-7.41,6.25-7.41s15.29,35.32,35.09,52c8,12.51,16.68,36.13,38.21,38.91,16-1.39,12.42-3.73,12.07-7.9,0,0,10.16,1.65,9.81-4.6s2.08-15.63-12.51-42.73c0,0-8-52.11-17-70.17S253.57,347.2,253.57,347.2Z"/><path class="cls-2" d="M183.3,266.55s-29.43-29.71-24.57-95.36c0,0,5.56,30.86,6.6,32.45s-1-41.76,20.5-97.38c10.77-35.47-20.5-84.45-40.65-92.44,0,0,51.76-2.78,89.63,63.57l.35.35s1.39-11.81-3.82-18.41c0,0,29.18,13.9,1.39,85.11-10.77,21.19-41.94,70.35-35.78,107.87Z"/><path class="cls-3" d="M190.4,259.14l-3.53-7.36c-12.51-27.33,1.94-81.06,1.94-81.06,3.79,2.37,3.27,10.19,3.27,10.19,1.32,1.44,5.91-9.56,6.25-31.61.65-41-5-57.75-10.75-66.1a57.73,57.73,0,0,1-1.76,23.06c-21.54,55.62-19.45,99-20.5,97.38s-6.6-32.45-6.6-32.45c-4.86,65.66,24.57,95.36,24.57,95.36Z"/><path class="cls-1" d="M188.07,254.29c-3.06,7.22-6.1,9.43-9.79,12.26s-21.29,27.61-15,54.71c0,0-18.76,5.56-18.06,16.68s4.17,56.28,22.93,66.7c6.25-1.39,18.95-16.68,26.84-11.12s31.9,23.62,49.77,11.12c0,0,34.32,65.77,79.48,57.44,28.95-6.95,39.74-11.9,50.4-23.25,0,0-.79,6.91-14.79,22.75a.79.79,0,0,0,.57,1.32c6-.1,27.43-4,53.68-50.62,25.12-44.61,39.6-90.09,37.29-108.16s-72.26-82.91-184.58-79.21c0,0-46.34-4.24-68.39,13.8,0,0,14.37-2.92,16.45-.31,0,0-14.24,2.43-17.2,7.47,0,0-2.42-2.43-2.68-4.69S189.1,246.72,188.07,254.29Z"/><path class="cls-4" d="M193.47,388.66s19.73,11.46,25,18.06c3.46,4.35,10.57,10.46,8.72,16-1,2.86-6.46,5.86-11.6,7.76-15.41,5.68-10-7.1-11.22-10.47,0,0-1.26,14.29-8.21,14.06s-32.89-13.66-27.79-25.24S181.31,394.45,193.47,388.66Z"/><path class="cls-2" d="M302.2,304.59c-12.29,0-59.29,50.49-64.38,54.19s-13.9-19.45-15.75-21.77-6,1.85-6,1.85c-10.65,0-11.81-15.52-14.59-25.24s-9.73,5.56-16.06,5.56c-12.58-11.12,0-59.75,0-59.75h0a26.76,26.76,0,0,1-7.1,7.12c-3.69,2.83-21.29,27.61-15,54.71,0,0,1.27,13.13,4.44,18.41,2.46,4.09-21.78-15.56-22.52-10.77-4.15,27,4.19,65.31,22.95,75.73,6.25-1.39,18.95-16.68,26.84-11.12s31.9,23.62,49.77,11.12a166.26,166.26,0,0,0,22.81,31.84c8.13,8.8,26.64,10.54,37.92,15.4,8.45,3.64,14.65,4.17,17.24,10.44,25.54-6.13,42.94-12.43,51.92-23.5-6.78,1.39-20.38.81-12.42-4.77,16.21-11.35-8.5,0-17.22,0-9,0,17.68-19.46,29-38.91,4.18-7.17-17.15,7.64-30.8,13.9s-15.65,1.22-8.57-3c14.36-8.57,1.16-6.72,1.16-6.72s27.67-22.38,35-28.95c10.46-9.42,49.56-49.79,49.56-49.79S314.49,304.59,302.2,304.59Z"/><path class="cls-5" d="M195.55,396.13s11.29,8,8.87,25.36"/><path class="cls-3" d="M323,525.65s14.07,15.46,13.11,36.45a16.5,16.5,0,0,0,3.81.17c.5-.11,1.14-21.15-15.27-37.25C323.71,524,322.18,524.8,323,525.65Z"/><path class="cls-2" d="M346,557.49l-.15-2.71c-.14-1.71-.44-4.15-1-7.05s-1.27-6.25-2.19-9.82a104.65,104.65,0,0,0-3.5-11,49.2,49.2,0,0,0-5-10.26c-1.07-1.38-2.23-2.85-3.28-4.11a25.11,25.11,0,0,0-3.39-3.24,52.27,52.27,0,0,0-5.88-4L319.31,504s.91.37,2.47,1.12a42.59,42.59,0,0,1,6.23,3.59,26,26,0,0,1,3.67,3.18c1.18,1.29,2.31,2.55,3.52,4.1a50.09,50.09,0,0,1,5.27,10.47,96.43,96.43,0,0,1,5.16,21.15,57.42,57.42,0,0,1,.46,7.17C346.06,556.51,346,557.49,346,557.49Z"/><path class="cls-3" d="M243,405.72s-2.56-29.16,5.9-42.54c.37-.59,6.36-6.33,6.84-5.44C263,371.11,243,405.72,243,405.72Z"/><path class="cls-2" d="M328.14,546.41c.93-9.23-4.17-10.68-13-11.15s-5.1-10.19-6.48-27.11-7.41-5.31-12.51-.22-6.73-81.52-6.73-81.52l6.78-14.93c-18.65-28.89-16.08-65.59-32.94-61.38-14.54,3.63-16.21,46.67-22.7,63.34s-8.8,42-7.18,41.11,5.33-5.67,5.33-5.67-.81,33.93,5.79,37.63c1.16,0,6.25-7.41,6.25-7.41s15.29,35.32,35.09,52c8,12.51,16.68,36.13,38.21,38.91,16-1.39,11.52-2.35,12.07-7.9C336.16,562.1,327.47,553.15,328.14,546.41Z"/><path class="cls-3" d="M439.4,545.46a2.73,2.73,0,0,0,1.76.86c1.22-6.09,1.05-25.21,1.05-26.52,0-4-1.54-3.82-1.51,2.72,0,5.86-1.79,21.86-1.79,21.86Z"/><path class="cls-6" d="M289.7,326.82c0,2.08-3.47,18.76-3.47,25.71l5.56,1.39s3.47,27.79,5.56,32.66l4.17-5.56,10.89,35.2,8.34,13-4.28,15.4,7.3-3.82.69,6.25s29.88-.69,47.25-17.37l4.17,3.47s16-11.12,20.84-18.76l2.78,4.17s9.26-5.56,10.19-9.73l3.71,7.41s22.23-45.63,24.32-62.3h4.17l6.25-46.55-91.25,15.29-59.52-4.86Z"/><path class="cls-7" d="M370.77,370.37c-7.31,6.56-35,28.93-35,28.93s13.2-1.83-1.14,6.73c-7.09,4.22-5.09,9.25,8.56,3s35-21.07,30.79-13.9C362.65,414.59,336,434,345,434c8.7,0,33.43-11.34,17.2,0-2.39,1.7-2.83,2.92-2.06,3.78-16.54,8.75-35.68,9.2-35.68,9.2l-.69-6.25-7.31,3.84,4.31-15.42-8.34-13L301.51,381l-4.17,5.56c-2.08-4.86-5.56-32.66-5.56-32.66l-5.56-1.39c0-6.95,3.47-23.62,3.47-25.71l7.64-9,59.53,4.86,36.41-6.11c15.67,2.31,27,4,27,4S381.22,360.95,370.77,370.37Z"/><path class="cls-1" d="M417.31,151.5c-.46,12.73,18,43.45,18,43.45h0c-.7-1.56-1.08-2.45-1.08-2.45,35.26-24.78,50.45-56.24,48.44-54.89-5.13,3.47-17,7.53-17.87,7.41,7.87-1.16,27.23-15.75,27.21-19.34,0-1.22-9.84,2.66-15.4,5.67-2.18,1.18,10.65-8.11,13.78-10.77s-40-3.24-50.14-2.55-36.36,17.6-36.36,17.6S417.77,138.77,417.31,151.5Z"/><path class="cls-2" d="M492,125.68c0-1.22-9.84,2.66-15.4,5.67-2.55,2.17-3,4.63-11.35,9.73s-15.75,7.41-31.73,11.58c-7.71,2-12.92-.08-16.26-2.78a15.8,15.8,0,0,1,.05,1.62c-.46,12.73,18,43.45,18,43.45-.7-1.56-1.08-2.45-1.08-2.45,35.26-24.78,50.45-56.24,48.44-54.89-5.13,3.47-17,7.53-17.87,7.41C472.66,143.86,492,129.27,492,125.68Z"/><path class="cls-1" d="M450.2,245.53l1.4.23c19.46,8.22,19,5,19,5-16.83-16.24-31.32-46.95-35.28-55.79h0s-15-33.26-15-45.53c0-14.87-16.44-13.78-16.44-13.78-6.95-2.55-23.1-2.32-23.1-2.32-.58-4.17,4-9.55,4-9.55-4.75-.81-7.18,6.43-7.18,6.43-.69-3.82,1.56-9.55,1.56-9.55-2.61-.35-4.86,4.52-4.86,4.52-6.95-1-10.25-.17-10.25-.17-7.82-8.51-14.94-7.82-13.2-7.47s5.56,9.38,5.56,9.38a75.91,75.91,0,0,0-9.9,1c-10.77-8.86-27.1-4.86-20-4.17a14.71,14.71,0,0,1,10.42,5.56c-19.63-.17-28.66,8.51-45,8.51s-34.74-20.32-51.59-27.1-46.73,1.74-40.65,2.78,22.58,22.23,22.58,22.23c-5.38.17-6.77-2.08-7.3-1.22-3,14.76,15.29,22.23,13,23.22s-11.06,0-11.06,0c14.36,30.11,49.1,38.91,49.1,38.91-5.56,6-21.35,66.93-21.35,66.93s8.49-3.47,12.62-6.25-34,69.13-26.36,63.57c.62-.45,1.27-.89,1.93-1.31A80.52,80.52,0,0,1,250,311.88c-9.81,8.68-17.09,29-17.09,29,6.45-13.73,62.68-12.67,62.68-12.67,5.21-11.12,18.76-27.44,18.76-27.44-8,9-10.42,28.14-10.42,28.14,9.38-.35,62.18,14.94,75.73,11.46s40.65-32.08,76.08-26.75c30.86,4.64,25.36-2.61,25.36-2.61-9-2.26-17.72-12.68-17.72-12.68,16.68,7.3,21.54,4.82,19.11,3.47-5-2.78-9-9.38-9-9.38s13.55,4.17,11.81,1C478.34,271.24,450.2,245.53,450.2,245.53Z"/><path class="cls-5" d="M413.75,186.48c2,9.51,1.33,17.42-5.72,17.42-10.67,0-7.75-7.92-9.83-17.42-2.89-13.24-5-16,5.68-16C409.35,170.49,411.51,175.94,413.75,186.48Z"/><ellipse class="cls-8" cx="404.21" cy="178.83" rx="3.71" ry="6.36" transform="translate(-36.67 147.32) rotate(-19.78)"/><path class="cls-2" d="M379.67,340.37c13.55-3.47,40.65-32.08,76.08-26.75,30.86,4.64,25.36-2.61,25.36-2.61-4.86-1.22-9.61-4.79-13-7.84-8.64-1-21.31-.64-31.84-2.23-14.94-2.26-25.53-15.81-25.53-15.81s-1.22,5.56-6.6,16.85-29.36,16.85-42.56,18.27-21.19-24.69-26.4-29.38-17.37,1.56-28.14,5.21-16.33,10.6-23.45,16-9.21-.87-9.21-.87C257,327,287.85,271.24,286.57,271c-7.76-1.27-16.79,14.94-16.79,14.94-3.36-3.71,0-19.39,0-19.39s-9.26,1.91,1.85-24.26a107.28,107.28,0,0,0,7.87-50.7c1.85-7.85,37.06-15.65,37.06-15.65s-22.7,4.51-27.11-5.45,14.14-28.95,8.93-26.63c-26.52,26.87-47.13,8.8-60.56,2.78a145.39,145.39,0,0,1-19.87-11.38c-1.89-.55-2.6-1.28-2.94-.72-3,14.76,15.29,22.23,13,23.22s-11.06,0-11.06,0c14.36,30.11,49.1,38.91,49.1,38.91-5.56,6-21.35,66.93-21.35,66.93s8.49-3.47,12.62-6.25-34,69.13-26.36,63.57c.62-.45,1.27-.89,1.93-1.31A80.52,80.52,0,0,1,250,311.88c-9.81,8.68-17.09,29-17.09,29,6.45-13.73,62.68-12.67,62.68-12.67,5.21-11.12,18.76-27.44,18.76-27.44-8,9-10.42,28.14-10.42,28.14C313.32,328.56,366.13,343.84,379.67,340.37Z"/><path class="cls-5" d="M335.21,187.4c1.13,13.69,5.39,21.31-19.11,26.4-16,3.33-21.77,1.09-24.94-9.6-4-13.62,2.48-23.52,16.61-27.95C334.13,168,334.49,178.73,335.21,187.4Z"/><ellipse class="cls-8" cx="328.49" cy="191.59" rx="3.71" ry="7.2"/><path class="cls-8" d="M321.66,187.34c1.74-6.67,1.55-11.08.38-14a56.93,56.93,0,0,0-14.28,2.9c-1.09.34-2.13.73-3.13,1.14a19.76,19.76,0,0,0-1,6c0,6.3,1.92,16.23,8.81,15.4C318.18,198.05,320.07,193.44,321.66,187.34Z"/><path class="cls-9" d="M336.34,293.47s7.55,29.18,20.52,29.18S406,312,408.74,304.59s6.48-31.5,9.73-34.74,7.36-31.5,5.76-36.13-17.81-13.43-20.35-32-16.61-28.26-17.45-34.28-25.86-11.58-34.66-6-15.11,11.12-15.43,28.72-5,26.06-12.83,34.34-22.23,18.47-16.21,31S320.45,289.3,336.34,293.47Z"/><path class="cls-7" d="M330.46,259.43c-12.1-34.84,33.58-34.84,22.7-64.48-2.23-6.07-.4-13.5-2.72-19-1.78-4.23,14.93-20,5.25-16.77-1.77.58-8.14,5.17-8.14,5.17-6.53,4.9-10.94,11.21-11.21,25.84-.32,17.6-5,26.06-12.83,34.34s-22.23,18.47-16.21,31,13.15,33.81,29,38c0,0,5.13,19.81,14.2,26.78,3.42-2.43,6.3-6.54,7.52-13.35C362,284.67,338.43,282.38,330.46,259.43Z"/><path class="cls-10" d="M408.74,304.59c1.75-4.67,3.64-15,5.78-23.55l-.68-.07s-1.62,4.63-5.33,13.66-8.34,12.74-30.34,20.15-33.37-1.16-33.37-1.16h0c3.21,5,7.26,9,12.06,9C369.83,322.65,406,312,408.74,304.59Z"/><path class="cls-10" d="M408.61,304.54c1.48-6.08,2.37-12.3,3.62-18.47.62-3.09,1.29-6.17,2.11-9.24a39.73,39.73,0,0,1,1.47-4.6,12.52,12.52,0,0,1,1.13-2.33c.25-.37.74-.93.8-1.07a3.39,3.39,0,0,0,.47-.76,46.89,46.89,0,0,0,2.88-8.68c.77-3,1.44-6.09,1.91-9.19a91.12,91.12,0,0,0,1-9.34,36,36,0,0,0,0-4.65,10.66,10.66,0,0,0-.35-2.15,7.52,7.52,0,0,0-.46-.88l-.69-.85c-2.06-2.21-4.57-4.18-6.8-6.43a54.22,54.22,0,0,1-6.32-7.23,37.87,37.87,0,0,1-7.15-17.89,46.78,46.78,0,0,0-6.42-17c-1.59-2.65-3.32-5.24-5.13-7.81-.9-1.29-1.79-2.6-2.6-4a11.3,11.3,0,0,1-1.76-4.46l.28,0c.91,3,3.27,5.18,5.2,7.62a94.08,94.08,0,0,1,5.85,7.49,44.73,44.73,0,0,1,7.51,17.7l.84,4.53c.44,1.44.77,2.91,1.35,4.3a35.27,35.27,0,0,0,4.18,8,63.89,63.89,0,0,0,5.76,7.2c2.1,2.3,4.34,4.46,6.4,7l.72,1a8.12,8.12,0,0,1,.54,1.25,11.53,11.53,0,0,1,.25,2.51c0,1.61-.11,3.19-.21,4.77-.25,3.15-.67,6.27-1,9.4s-.79,6.25-1.29,9.38a44.91,44.91,0,0,1-2.33,9.39,5.63,5.63,0,0,1-.74,1.25c-.38.51-.37.58-.57.85a14.62,14.62,0,0,0-.86,1.93c-.54,1.39-1,2.89-1.4,4.37-.85,3-1.6,6-2.38,9.06-1.63,6-3,12.24-5.46,18.09Z"/><polygon class="cls-11" points="341.11 178.13 355.68 159.17 373.07 160.07 386.29 167.5 390.64 175.94 380.02 175.35 377.24 182.3 380.02 193.42 397.39 204.54 380.72 210.79 349.45 210.79 364.74 196.89 363.35 185.08 359.87 178.13 341.11 178.13"/><path class="cls-12" d="M377.69,287.71s-10.48,9.83-17.65,9.8c-4.47,0-16-4.39-23.71-4l-1.13-1.13s19.58,1.45,30-10.45c13.41-15.29,8.08-47.18,8.08-47.18l8.87.81s-5.28,37.79,4.25,43c5.82,3.18,23.34,4.83,28.1,2.5l-.63,1.32A108.78,108.78,0,0,0,398.2,287C393.47,288.76,384.64,291.71,377.69,287.71Z"/><path class="cls-4" d="M375.39,201.29c-10.94-.11-25.42,1.84-26.81,13.42s5.5,24.29,12.91,24.18c13.05-.19,23.16-4.25,28.72-4.71s8.67-10.2,7.87-25C397.53,198.88,385.13,201.39,375.39,201.29Z"/><path class="cls-5" d="M398.2,213.8c-.1,0-19.36,7-16.69,17.14a8.75,8.75,0,0,0,2.52,4.43,45.3,45.3,0,0,1,6.18-1.19C395.17,233.77,398.17,226,398.2,213.8Z"/><path class="cls-5" d="M362,220c-3.91-2.35-9.18-.67-13.31,1.45,1.23,9.28,6.86,17.54,12.84,17.45,1.38,0,2.71-.1,4-.2C369.27,231.43,367.33,223.23,362,220Z"/><path class="cls-3" d="M225.78,136.45s-6.25-2-10.77-1.91c0,0,2,13.49,8.92,21.37,0,0-3.24-.93-6.95,1.85,0,0,10.65,27.79,44.93,38l-17.18,67.86,3.75,1.62s3.71-3.24,5.1-2.78-18.53,47.71-20.84,52.8-2.78,7.87.46,6.48,10.65-7.41,11.58-6-13,22.7-13,22.7S229,343,231.8,343s13.9-8.8,28.26-9.26,28.26-1.39,32.89-2.78,8.34-8.34,8.34-8.34-1.39,6,.93,6.95,24.09,6,36.59,9.73,13-4.63,13-4.63-1.39.46-3.71,1.39-10.19-4.63-18.06-5.56-22.7-3.71-22.7-3.71-3.24-3.71-.46-6.95a88,88,0,0,1,6.95-6.95s-3.71.46-3.71-1.39,3.71-12,7.41-12-2.32-4.63-8.34,5.1-12,20.38-25.94,21.77-36.13,3.71-43.54,7.41c0,0,6.48-9.73,7.41-12s6-10.19,6-10.19-5.1-3.71-16.21,3.24c0,0,10.19-24.55,13-31.5s9.26-26.4,13-27.33-5.1-3.24-5.1-3.24l-4.17,1.85,6.95-19.45-1.39-3.71s10.19-37.06,10.19-38.91-10.65-.46-26.4-12-20.38-19.92-20.38-19.92l8.34-2.32.93-2.32-6-4.17-4.63-11.58Z"/><polygon class="cls-3" points="341.11 178.13 349.45 167.94 351.3 172.58 358.71 162.39 364.27 169.8 369.83 178.13 369.83 168.87 371.68 163.31 381.88 169.8 381.88 166.09 392.99 171.65 379.1 158.68 371.68 150.34 377.24 150.34 367.98 140.15 361.49 134.59 356.86 135.52 351.81 142.46 349.45 145.71 356.86 145.71 349.45 154.05 357.79 153.12 347.55 164.34 341.11 178.13"/><path class="cls-3" d="M269.32,192.49l8.8-9.73h-7.41s9.26-7.41,13.9-13l-3.71-4.63s8.34-1.85,13-7.41l-4.63-1.85s11.12-5.56,13.9-10.19l-2.75,6.87-1,2.4,7.41-1.85s-6.48,7.41-13,11.12l5.56,1.85-10,4.4s5.8,2.78,10.67,1.39l-6.25,4.17,14.59-2.78-17.37,8.34-3.47-4.17-6.25,6.95,4.17.69Z"/><path class="cls-3" d="M276.5,200.37l-6.25,12.51,4.86-1.39-9,12.51,6.95-3.47-2.08,6.95,6.95-3.47s-6.25,6.95-8.34,13.2l15.29-10.42-2.78,8.34,10.42-3.47-.69,4.17,18.76-8.34-17.37.69,3.47-4.17-6.25.69-.69-5.56-6.25,3.47V217l-5.56,3.47,4.86-13.2h-4.86Z"/></svg>