<svg id="Layer_1" data-name="Layer 1" xmlns="http://www.w3.org/2000/svg" width="600" height="589" viewBox="0 0 600 589"><defs><style>.cls-1{fill:#c49b8a;}.cls-2{fill:#b58f7e;}.cls-3{fill:#917366;}.cls-4{fill:#fff;}.cls-5{fill:#a38173;}</style></defs><title>premio_leccion_3_2</title><path class="cls-1" d="M498.53,422c10.5,77.34-7.09,132.62-187.86,129.58-120.93-2-162.48-63.27-162.48-141.32S202.27,252.95,292,252.95c46.74,0,97.8,23.62,137.57,57.84,8.78,7.55,23.39,16.07,30.9,24.52,3.9,4.38-14.63-3-10.36.86C476,359.48,495.14,397,498.53,422Z"/><path class="cls-2" d="M438.44,537.79c-78.62-2.77-179.1-20.54-196.92-91.24-20.66-82,56.94-149.27,107.22-183.2-18.94-6.63-38.17-10.4-56.73-10.4-89.74,0-143.83,79.28-143.83,157.33S189.74,549.57,310.67,551.6C368.49,552.57,409.59,547.57,438.44,537.79Z"/><path class="cls-3" d="M334.62,550.6s5.2,9.35,23.91,8.32,19.6-11.49,19.6-11.49-14.68-18.7-23-18.24S334.62,550.6,334.62,550.6Z"/><path class="cls-2" d="M378.13,547.43a69,69,0,0,0,14.55-1.7,88.47,88.47,0,0,0,13.95-4.28,89.52,89.52,0,0,0,24.75-15.09,104.77,104.77,0,0,0,10.29-10.29,113.84,113.84,0,0,0,8.78-11.65,153.88,153.88,0,0,0,13.6-26,121.5,121.5,0,0,1-12.29,26.79,95.67,95.67,0,0,1-19.08,22.62,90.52,90.52,0,0,1-12.09,8.65,80.66,80.66,0,0,1-13.41,6.37A71,71,0,0,1,378.13,547.43Z"/><path class="cls-1" d="M263.33,538.65c-79-66.37-79.51-229.35-25.48-274.2-62.18,15.29-89.66,101.12-89.66,145.82,0,69.79,33.28,126.11,126.78,138.7C271.49,545.7,267.63,542.27,263.33,538.65Z"/><path class="cls-3" d="M227,548.34s10.7,11.39,29.4,10.35S276,547.2,276,547.2s-20.17-20.73-28.52-20.27S227,548.34,227,548.34Z"/><path class="cls-2" d="M215.57,140.84s13.26,29.92,27.78,25.29l-25.7,18.24Z"/><path class="cls-2" d="M321.7,130.06s-12.44,25.29-26.53,28.19l38.55,9.95Z"/><path class="cls-1" d="M392,249.18c.73-51.52-51.78-98.68-110.29-98.68S174.29,212.9,175.74,256.44c1.95,58.48,47.43,105.94,105.94,105.94S391.15,307.69,392,249.18Z"/><path class="cls-2" d="M238.93,256.44c-1.2-36,32-84.77,76.51-100.67a112.71,112.71,0,0,0-33.76-5.27c-58.51,0-107.39,62.4-105.94,105.94,1.95,58.48,47.43,105.94,105.94,105.94a97.14,97.14,0,0,0,30.83-5.12C270.36,343.52,240.5,303.57,238.93,256.44Z"/><path class="cls-1" d="M215.16,247.79c-16.36-25,27-54.84,6.66-73.89-22.22,18.28-35.47,35.16-42.76,59.54,1.64,21.66,2.52,33,12.89,40C202.62,280.76,230.91,271.84,215.16,247.79Z"/><path class="cls-1" d="M346.88,177s-13.54-12.18,25.72-48c29.78-25.72,27.07-53.46,14.89-79.18S373.95,22.65,361.77,30.1s-46.7,30.45-55.49,53.46,23,54.82,16.24,84.59A46.17,46.17,0,0,0,346.88,177Z"/><path class="cls-1" d="M225.43,178.53c-3.5-3-7.31-9.52-6.16-23.75,2-25,9.69-54.51-15.34-76.31s-50-39.85-68.64-16.55c-9.69,12.11-25.84,91.25-18.17,104.17,5,8.48,14.94,21,54.1,20.59,14.71.23,23.61,4.92,28.5,8.83C203.29,198.36,228.09,180.8,225.43,178.53Z"/><path class="cls-3" d="M315.17,268.66c4.11-4.76,11-13.52,12.86-20.81a1.9,1.9,0,0,0-1.27-2.25c-5-1.69-20.74-5.65-33.3,5.91a2,2,0,0,0,0,2.85c2.94,2.91,9.82,9.67,15.12,14.63A4.58,4.58,0,0,0,315.17,268.66Z"/><path d="M375.28,232.26c.16,9-3.63,27.81-13.92,27-7.66-.63-13.75-12.08-13.92-27-.09-8.1,5.74-25.77,13.33-27C370,203.83,374.92,212.54,375.28,232.26Z"/><ellipse class="cls-4" cx="357.69" cy="224.69" rx="3.45" ry="9.25"/><ellipse class="cls-4" cx="367.04" cy="231.43" rx="3.37" ry="7.64"/><path class="cls-3" d="M308.57,269l-2,18.79-15.28,14.67,3.06,3.06L308.36,293l6.11,8.86,3.36-2.44-6.11-11,3.45-19.75S313.06,271.91,308.57,269Z"/><path class="cls-5" d="M205.71,179.2s0-54.7-11.34-74.72-42.7-46.7-45.36-34-16.54,74.73,2.67,87.39C181,177.2,205,169.19,205.71,179.2Z"/><path class="cls-2" d="M362.54,29.63c-10.38,17.1-25.22,42-32.49,51-11.34,14,13.08,70.58,1.74,81.25a24.15,24.15,0,0,0-5.64,8.71A46,46,0,0,0,346.88,177s-13.54-12.18,25.72-48c29.78-25.72,27.07-53.46,14.89-79.18C375.57,24.58,374,22.75,362.54,29.63Z"/><path class="cls-5" d="M334.46,157.18s-4.56-44.65-8.19-60.52c-5.34-23.35,41.54-45.55,40.88-52.22s31.07,45.88-1.33,68.71C336.46,133.83,338.47,140.5,334.46,157.18Z"/><path d="M265.35,235.4c7.62,16.69-14.73,29.39-31.56,29.39s-31.2-8.41-31.2-22.13,14.37-34.1,31.2-34.1S259.65,222.91,265.35,235.4Z"/><ellipse class="cls-4" cx="235.24" cy="223.14" rx="8.53" ry="11.49"/><ellipse class="cls-4" cx="248.9" cy="234.5" rx="4.29" ry="7.93" transform="matrix(0.97, -0.26, 0.26, 0.97, -51.97, 71.96)"/><path class="cls-2" d="M386.78,280.76a111.07,111.07,0,0,1-5.79,17,119.64,119.64,0,0,1-8.3,15.94,87.83,87.83,0,0,1-11.07,14.16,71.45,71.45,0,0,1-6.73,6,57.52,57.52,0,0,1-7.57,4.81,66,66,0,0,0,13.74-11.32c2-2.2,3.95-4.44,5.73-6.82s3.47-4.83,5-7.35a130.56,130.56,0,0,0,8.44-15.71q1.87-4.06,3.49-8.23T386.78,280.76Z"/><path class="cls-2" d="M191.27,298.6a25.24,25.24,0,0,0-2.18,5.36l-.4,1.42-.32,1.45c-.24,1-.34,2-.5,2.93a50,50,0,0,0,0,11.94l.4,3c.17,1,.4,2,.6,3,.35,2,1,3.89,1.53,5.84s1.35,3.8,2,5.71l2.44,5.55-2.67-5.45c-.75-1.88-1.59-3.73-2.26-5.64s-1.35-3.83-1.79-5.82c-.24-1-.52-2-.73-3l-.53-3a51.21,51.21,0,0,1-.47-12.24c.12-1,.18-2.05.39-3.06L187,305l.36-1.51a26.64,26.64,0,0,1,2.16-5.94Z"/></svg>