<svg id="Layer_2" data-name="Layer 2" xmlns="http://www.w3.org/2000/svg" width="600" height="589" viewBox="0 0 600 589"><defs><style>.cls-1{fill:#38667d;}</style></defs><title>premio_leccion_7_3_block</title><path class="cls-1" d="M572.58,480.38c1.38-.08,2.65-.2,3.81-.36h.08a24.12,24.12,0,0,0,3.09-.63l.06,0c5.71-1.63,6.31-5.16-1-11.68-19.11-17-34.48-12.88-54-51.1-7.06-12.46-15-18.69-15-18.69a41.89,41.89,0,0,0-6.34-1.9c4.59-2.82,6.88-5.12,6.14-6.33h0a4.29,4.29,0,0,0,.55-.05,43.71,43.71,0,0,0,9.24,1.79,6.34,6.34,0,0,0,1.43,0c5.43-.15,5.86-3.29,3-7.58l-.29-.41a9.58,9.58,0,0,0,.23-2.17c0-7.16-27.53-43.34-43.91-46.19-3.77-3.39-6.21-2.24-7.3-1.3a.58.58,0,0,0-.54.22l-.21.25-.78-1.74c.27-4.87-4.36-11.43-9.31-17.08-3.72-5.43-6.91-8.37-9.51-9.87l-.45-.44c-2.71-2.71-5.38-2.51-7.5-1.25,0-.54,0-1.05,0-1.54l.11-.18a.72.72,0,0,0-.15-.87c0-.35-.07-.69-.13-1,1.56-.29,3.64-1.19,2.7-4-1.35-4.06-42.71-63-82.81-75.14a2.69,2.69,0,0,0-3,1c-.56-.11-.87-.15-.87-.15-.8-.73-1.6-1.43-2.39-2.12,0-.25-.08-.49-.1-.74a.75.75,0,0,0-1-.64s0,0,0-.06a.69.69,0,0,0-1.19-.49q-3.07-2.59-6-4.84l.07-.05c.73-.56,0-1.81-.73-1.25l-.15.1a.62.62,0,0,0-.61-.11l-.23.07-.65-.47a.43.43,0,0,0,0-.57c-1.95-1.95-21.65-21-49.58-18.05a19.7,19.7,0,0,0-3.06.4,32.57,32.57,0,0,0-3.24-3.55,12.32,12.32,0,0,0-4.51-4.75c-3.5-2.14-16-7.28-27.23-6.25a42.53,42.53,0,0,0-4.33.2c-.72-.36-1.42-.69-2.12-1,.46-.16.92-.31,1.39-.45,0,0-32.19-16.2-43.16,14.27,0,.06,0,.12-.05.18-.67,1.36-1,2.22-1,2.22a255.83,255.83,0,0,0-22.67-49.46c-6.42-11.07-14.1-22.3-22.9-31.7l-.21-.31,0,.06q-1.12-1.18-2.26-2.32l-.22-.24c1.55-2.16,3.84-5.76,4.31-8.74.72-4.59,3.62-10.87,2.17-14.25s-12-22.7-21.86-22.22c-7.05.34-20.44,11-25,16.52-2.28-.93-4.6-1.78-7-2.53-13.77-12.32-15.94-6.52-36.22,4.35-12.39,6.64-21.25,10.31-26,20.08-.61-.49-1.93-.79-4.59-.52-5.25.54-21.61,10.32-22.88,21.37,0,0,.36,6.34-1.27,8.87s-2.17,5.07-1.09,7.61-4.47,5.13-1.57,13.83c1.84,5.51,20.54,13.8,27.85,14.38l.16,5.48,0-.08c.46,8,1.92,13.93,6.12,19.1a32.56,32.56,0,0,0,5.11,4.48h0l.11.08c.58.44,1.2.89,1.85,1.36l.46.34.81.58.58.41.85.59.63.44.9.61.67.46.94.63.71.48,1,.65.77.51,1,.66.78.51,1.08.7.72.46,1.21.78.49.31,4.75,3,.73.46,1.26.79.89.55,1.3.81.87.54,1.36.84.86.53,1.38.85.89.54,1.42.86.84.51,1.5.91.79.48,1.55.94.72.43,5.94,3.56.38.22,1.68,1,.77.45,1.56.93.9.53,1.52.9.94.55,1.54.91.89.52,1.53.9,1,.57,1.53.9.8.47,1.64,1,.7.41,1.76,1,.19.11,6.18,3.58.65.37,1.51.87.86.49,1.44.83.9.52,1.4.81.86.49,1.48.85.75.43,1.45.83.72.41,1.47.84.64.37,1.48.85.38.22,7.15,4.07.23.13,1.53.87.27.15,1.32.75.48.27,1.24.7.44.25,1.09.61.59.33,1,.54.48.27,8.43,4.73h0l2.16,1.21a3.29,3.29,0,0,0-.15.41,2.21,2.21,0,0,0-1.34,1.06,3,3,0,0,0-.19,2,17,17,0,0,0,2.47,5.18,105.69,105.69,0,0,0,6.81,9.12,22.34,22.34,0,0,0-3.41-.15,8.64,8.64,0,0,0-4.48,1.31,4.24,4.24,0,0,0-1.52,2,4.65,4.65,0,0,0-.15,2.44,12.34,12.34,0,0,0,1.87,4.08,29.53,29.53,0,0,0,2.3,3l.29.53c-1.61.56-8.91,2.55-26.59,0-9.84-1.41-17.93-.61-23.85,2.32a11.85,11.85,0,0,0-5.23,2.92,15.44,15.44,0,0,0-3.56,5.75c-.16.32-.3.64-.45,1l-.05.13q-.4,1-.72,2l-.08.26c-.2.68-.38,1.38-.52,2.1l0,.26c-.14.75-.26,1.52-.35,2.33h0q-1,2.09-1.86,4.05t-1.7,3.82q-.81,1.85-1.54,3.59t-1.39,3.38q-.65,1.64-1.23,3.18a72,72,0,0,0-4.3,15.59,33.62,33.62,0,0,0-.3,4.17q0,1,.06,1.95t.19,1.87q.13.92.32,1.81c.08.36.17.72.26,1.08.14.52.29,1,.46,1.55q.14.43.3.86.32.86.7,1.7a42.89,42.89,0,0,0,4.67,7.7c3.69,5,8.77,10.57,15,17.94A90.27,90.27,0,0,1,130,400.24c.67,1.12,1.29,2.21,1.88,3.28q.58,1.07,1.12,2.11c.54,1,1,2.06,1.52,3.06q.48,1,.94,2c.76,1.63,1.48,3.21,2.19,4.76q.43.93.87,1.84c.44.91.88,1.81,1.34,2.69s.94,1.76,1.44,2.63l.51.87c.7,1.15,1.45,2.29,2.28,3.42q.62.85,1.31,1.69a45.45,45.45,0,0,0,4.79,5q.93.84,1.95,1.68t2.15,1.68l1.16.84c2,1.41,4.19,2.83,6.69,4.27l1.53.87c3.66,2,7.9,4.11,12.85,6.27h0l3,1.31.61.28,2.7,1.24.48.23,2.3,1.1.45.22,2.35,1.17.62.31,2.19,1.13.35.19,1.78,1,.65.35,1.79,1,.68.39,1.23.71.77.45,1.32.79.8.48.84.52,1.3.82.5.32C220,473.9,220,479,233,475c6.46-2.91-.32-10.33-22.28-47.78-19.37-25.83-1-39.38-10.33-69.08C194.06,338,188.16,331,186.12,327.88a61.23,61.23,0,0,1,7-5.5l.55.59a117.81,117.81,0,0,0,18.66,16.75l.52.4A107,107,0,0,0,241,354.83c1.18,2.69,4.89,9.59,14.74,18.45l.59.52a90.75,90.75,0,0,0,19.39,14.05,68.83,68.83,0,0,0,18.83,7.57,98,98,0,0,0,12.68,2.64c.39.36.87.79,1.45,1.29,3.53,4.29,14.76,14.81,41.25,17.26,10.76,21.55,20,40.37,25.22,51.13a53.21,53.21,0,0,0,13,16.91c8.47,7.34,21.73,18.52,31.74,25.5,2.77,1.93,5.1,3.55,7.1,4.89,9.67,6.49,11.69,6.49,17.72,2.48,7.24-4.83-4.83-15.94-4.83-15.94-10.26-10.09-16.71-16.79-22.29-24.12a38.94,38.94,0,0,0,13.86-1.1c17.14-4.29-14-46.14-21.37-55.73,3.69-.09,7.76-.31,12.27-.7,6.11-.53,20.15-1.18,30.62-5q4-1,7.91-2a178.93,178.93,0,0,0,17.5,31.41l1.07,1.5c6.9,9.49,15.49,18.8,25.51,24.74a52.18,52.18,0,0,0,4.85,2.55,44.71,44.71,0,0,0,6.79,2.49,39.61,39.61,0,0,0,7.15,1.28l2.11.25.69.08,1.65.19.54.06,2.05.23.15,0,2.18.24.46.05,1.73.19.51.06,2,.21.17,0,2.16.23.31,0,1.8.18.43,0,2,.19h.06l2.15.2H547l1.9.17.33,0,1.85.16h.13l4,.3h.21l1.79.12h.11q1.91.12,3.72.2h.13l1.69.07h.09q1.77.06,3.42.08H568c1.58,0,3.07,0,4.45-.12ZM44.38,105.08a7.57,7.57,0,0,0-.79.55A7.48,7.48,0,0,1,44.38,105.08ZM22.66,151.52l0,0c.32,5.23,21,12.83,26,14.62v.13C38.37,163.89,21.28,154.5,22.66,151.52Zm139-41.6-.17-.17a17.48,17.48,0,0,0,1.5-2.67,16.79,16.79,0,0,0,1.47-6.19c0,.08,0,.15,0,.23A19.07,19.07,0,0,1,161.65,109.92Z"/></svg>