<svg id="Layer_2" data-name="Layer 2" xmlns="http://www.w3.org/2000/svg" width="600" height="589" viewBox="0 0 600 589"><defs><style>.cls-1{fill:#38667d;}</style></defs><title>premio_leccion_8_1_block</title><path class="cls-1" d="M562.57,203c-10.82-5.07-40.39-14.86-101.9-10.74-82.78,7.12-104.22,20.55-109.32,25.29a33.28,33.28,0,0,0-14.86-9.68,18.34,18.34,0,0,0-8.76-.16,33.07,33.07,0,0,0,8.75-11.12,239.86,239.86,0,0,1,27.1-19.22c24.6-15.06,64-33.25,117.54-39.87a2.57,2.57,0,0,0-.56,1.67c.2,3.68,8.85,6.2,19.33,5.64s18.81-4,18.62-7.67-8.85-5.2-19.33-4.64a67.42,67.42,0,0,0-8.24.92c-59.36,5.51-102.63,25.28-129.05,41.47a245.63,245.63,0,0,0-23.47,16.3,27.15,27.15,0,0,0,.76-5,4.91,4.91,0,0,0,1.3-3.39c0-2.52-1.73-4.56-3.87-4.56s-3.87,2-3.87,4.56,1.66,4.45,3.72,4.54a37.38,37.38,0,0,1-2.92,7.73,164,164,0,0,0-17,16A23.09,23.09,0,0,0,299,227.47C246.73,122.9,172.67,82.41,158.45,89.7c-15.75,8.08,31.73,73.58,52.71,101.17A359.32,359.32,0,0,0,148,159.67c-113.33-42-145.33-12-126,15.33s46.67,59.33,70,69.33c0,0-28.67,40.67,80.67,104,0,0-97.33,100-56.67,155.33,20.07,27.31,78.51-11.87,133.16-59.24.77,11.45,16.14,21,24,23.73,10.37,3.55,23.74-1.09,23.46-2.73,0,0,20.19,1.36,32.74-11.73,0,0,22.92-3.82,33-23.46a48.84,48.84,0,0,0,21.44-19.62h0a3.59,3.59,0,0,0,.38.22l.14.07a3.74,3.74,0,0,0,.56.2h0a4.31,4.31,0,0,0,.58.1l.19,0h.71a6.85,6.85,0,0,0,.76-.09l.19,0,.67-.16.25-.07c.3-.09.61-.2.93-.33a15.64,15.64,0,0,0,1.5-.7l.31-.17c.46-.26.92-.54,1.35-.83l.22-.16q.59-.41,1.14-.87l.23-.19q.6-.51,1.15-1.07l.26-.27c.35-.36.68-.72,1-1.1l.09-.11c.34-.4.67-.82,1-1.24l.24-.33c.3-.42.6-.83.88-1.26l.15-.24q.37-.57.71-1.15l.18-.31q.37-.65.71-1.3l.17-.33q.3-.59.58-1.18l.09-.18c.2-.44.4-.87.58-1.29l.13-.31c.18-.42.35-.84.51-1.25l0-.12c.15-.39.29-.77.43-1.15l.07-.2q.21-.59.39-1.13l0-.12c.25-.77.45-1.45.61-2h0l-.07.3,0,.2-.06.29-.05.26-.06.29-.07.39-.06.35-.07.44,0,.25-.06.42,0,.25-.06.48,0,.2q0,.35-.07.7v.13q0,.29,0,.59v.22q0,.26,0,.52c0,.07,0,.14,0,.21s0,.43,0,.65c0,0,0,0,0,.07q0,.36,0,.72c0,.05,0,.1,0,.15s0,.37,0,.55l0,.2q0,.26.06.52l0,.17a10.44,10.44,0,0,0,.28,1.3l0,.16q.07.23.15.45l.07.17q.09.22.2.43l.06.12a5.41,5.41,0,0,0,.3.51l.05.07a4.71,4.71,0,0,0,.3.38l.12.13.29.28.13.11a4,4,0,0,0,.39.28l.08.05a4.06,4.06,0,0,0,.53.26l.15.05.44.14.21,0,.47.07.21,0a6.39,6.39,0,0,0,.73,0c7.06-.26,16.57-14.32,17.22-36l10.88,2.18.2,0a1,1,0,0,0,1-.81,1,1,0,0,0,0-.31h.09s-.54,0-.61-7.54a14.09,14.09,0,0,0-3.89-9.83,1.23,1.23,0,0,0-2,.27c-2.54,6.66-.3,12.8.85,15.27l-6.51-1.3a86.94,86.94,0,0,0-1.67-17c-.13-.64-.28-1.28-.44-1.93l-.12-.45q-.24-.9-.52-1.81l0-.13c-2.76-8.77-8.66-18.15-16.32-27.08l12.65-1.67a1.5,1.5,0,0,0,1.25-1.08h.55s-.67.08-2-10.87c-.89-7.3-4.28-11.54-6.44-13.55a1.44,1.44,0,0,0-2.38.78,33.6,33.6,0,0,0,3.76,22.4l-9.78,1.3a150.71,150.71,0,0,0-14.35-13.82,18,18,0,0,0,1.23-6.31c.18-10.7-8-22.46-14.85-30.46q0-1.73-.17-3.51a3.45,3.45,0,0,0,2.45-.62l-.07.06a5.74,5.74,0,0,0,2.46-2.69,10.77,10.77,0,0,0,.93-3.5,23.16,23.16,0,0,0-.48-7.11,45.76,45.76,0,0,0-14-24.08c-.19-.17-.39-.33-.59-.49a50.41,50.41,0,0,0,12-2.46c1.44,1.11,4.42,1.32,6.67.38,2.76-1.14,5.53-2.56,2.61-5.42-2.35-2.3-3.62-2.42-6.38-1.28a5.93,5.93,0,0,0-3.74,3.89,53.92,53.92,0,0,1-14.85,2.3q-.79-.44-1.62-.81a10.81,10.81,0,0,0-3.44-.88,5.59,5.59,0,0,0-2.86.52c.43-.25.22-.21-.53.28h0l-.05,0-.66-.15c2-1.7,6.56-4.75,16.31-8.21,13.58-4.83,40.35-11.5,90.71-15.83,40.88-2.74,67.2.91,82.12,4.46a2.37,2.37,0,0,0-.61.81c-1.45,3.38,5.19,9.48,14.84,13.61s18.64,4.74,20.09,1.35S571.94,207.06,562.57,203ZM376,269.21v0ZM344.69,394.53l-.21.14-.25.17L344,395l-.32.23-.3.22-.37.27-.36.27-.39.3-.74.6c-2.69,2.26-6.1,5.8-7.5,10.13,0,0-20.19,11.46-24.83,21.28,0,0-14.19-4.91-21.55-.27a33.89,33.89,0,0,0-16-3.67c15.15-13.93,29.51-27.86,42.08-40.42,8.33,5.81,16.47,6.63,18.51,3.36a7,7,0,0,0,.46-.88c0-.09.07-.18.11-.27s.16-.43.22-.65.06-.2.08-.3a7.14,7.14,0,0,0,.13-.71c0-.07,0-.15,0-.22a7.85,7.85,0,0,0,0-1s0,0,0-.07a9,9,0,0,0-.07-.91c0-.08,0-.15,0-.23q-.06-.39-.15-.78l0-.21c-.08-.32-.17-.64-.28-1h0q-.18-.52-.4-1h0l3.25,4,.11.13,2.26,2.75.14.16,1,1.23.17.2,2.3,2.76.26.3.92,1.09.26.31,1.15,1.35.12.14.69.81,0,0ZM371.7,281l0-.07Zm4.14,9.48c-.09.22-.18.31-.29.35q-1.68-1.11-3.36-2.15a11.5,11.5,0,0,1-.5-4.66,23.55,23.55,0,0,0,1.64-2.75C375.63,284.94,376.5,288.9,375.84,290.45ZM375,274.07l-.1.31Zm-.88,2.49,0,0Zm13.35,23c-3.06-2.48-6.2-4.84-9.36-7a4,4,0,0,0,.52-.89c1.34-3.17-.45-9.08-3.9-13.67a30.31,30.31,0,0,0,1.54-8.46c6,7.41,12,17.11,11.89,25.71A15.45,15.45,0,0,1,387.44,299.53Z"/></svg>