<svg id="Layer_2" data-name="Layer 2" xmlns="http://www.w3.org/2000/svg" width="600" height="589" viewBox="0 0 600 589"><defs><style>.cls-1{fill:#38667d;}</style></defs><title>premio_leccion_1_4_block</title><path class="cls-1" d="M25,123a81,81,0,0,0,4.59,24.59q.54,1.55,1.16,3.12c5.79,14.64,16.85,30.39,37,41.87a37.28,37.28,0,0,0,6.53,3.07,22,22,0,0,0,2.8.77,14.21,14.21,0,0,0,4.77.21A10.65,10.65,0,0,0,86,195.13c4.89-3,7.33-9.61,9.85-15.22v0l.33-.73.24-.52.22-.47.33-.71.11-.24c.29-.64.59-1.32.89-2l.08-.2.36-.9.11-.29q.17-.45.33-.91l.1-.28c.14-.39.27-.79.4-1.2h0q.2-.65.38-1.32l0-.16q.15-.57.28-1.15l.07-.32q.11-.53.2-1.07l.05-.32q.1-.64.17-1.29v-.12q.08-.74.11-1.5s0-.08,0-.11q0-.67,0-1.34c0-.12,0-.24,0-.36q0-.58-.07-1.16c0-.13,0-.26,0-.39q-.07-.63-.18-1.27c0-.07,0-.13,0-.2h0c-1-5.38-4.12-11.12-11.42-16.53l-6.78-4.27s2.74-3.84,23.17,4.21c16.45,6.48,38.33,16.21,46.23,19.75-.62.9-1.23,1.8-1.86,2.73l1.79-1.64c-2.75,4.51-5.42,9.27-8,14.31-11.55,22.75-18.58,41.26-22.42,56.37l-.15-.29-.14.54c-5.45,21.65-4.91,38.69,1.61,50.67a34.11,34.11,0,0,0,8.49,10.2l14.14,62s12.16,22.89,19.43,20.87l3.64-2.42-1.62-5.25s3.64,8.48,14.14,5.66c6.73-1.81,6.46-4,3.64-20.6-2.13-12.49-9.78-47-13.41-63.26,10.5-7.37,23.29-18.88,39-34.94a1.77,1.77,0,0,1,1.51-.12,5.17,5.17,0,0,1,2.34,1.75,71,71,0,0,1,3.56,6.55c.12.3.24.6.36.92l.12.33.07-.08q.31.67.59,1.33a115.06,115.06,0,0,1,3.45,12.88q0,.62.07,1.23c-1.66,4.39-19.56,51.38-28.37,61.29l9.24,52s9.4,17.88,15,19.64a24.22,24.22,0,0,0,22-3.47s5.78-2.31-1.16-22l-6.93-25.4,35.2-16.53a112,112,0,0,0,13.63,7.49L282,356l.93.53q1.64.92,3.31,1.79l.59.3q1.38.71,2.79,1.39l1.14.54q1.16.55,2.33,1.07l1.24.54q1.21.52,2.43,1l1.11.45,1.94.73c.76,7,3,27.41,4,38.94.76,8.35,4.07,18.2,6.64,24.84-.24,3.57-1.38,6.85-1.94,10.19-.16.65-.31,1.23-.43,1.68-.85,3,.85,13.23,15.37,21.77l2.71,1.58a80.85,80.85,0,0,0,9.17,5.1c2.85,1.5,5.59,2.85,8.18,4H300.64l-7.53,14.18L332,507h89.15l85.38-16.84-15.12-4.54a18.59,18.59,0,0,1-2.62-4.38c-3.32-10.68-7.72-24.69-1.92-71.54,0,0,9.39-43.54,7.7-60.46-3.21-32-8.16-54.47-8.9-63.41,13.06-.57,24.95-2.55,25.3-6.11.8-8-3.11-14.7,12.81-34.61l.71-.9c15.62-20.45,28.76-68.38,28.76-68.38L540.8,142.36A416.48,416.48,0,0,0,574,96.26s-4-8.76-34.7,4.78c0,0-16.57.78-24.74,7-10.59-4.13-27.15-8-52.83-9.35-21.51-1.1-37.18-2.59-49.39-2.47L400.37,85.91l-11-18.61a9.87,9.87,0,0,0-4.82-4.13L374,59a4.57,4.57,0,0,0-4.29.48L359,69.45a74.44,74.44,0,0,0-10.41,38l15.54,19.43-.07.11-.5.84-.17.3q-.27.47-.53,1l-.08.15q-.3.57-.59,1.16l-.13.28q-.22.46-.43.93l-.17.39-.21.5c-.08.15-.17.29-.25.44l.2-.33h0l-.2.33a36,36,0,0,0-2.82,7.54c-1.86-.87-6.39-3.09-12.67-6.84l1.32.69s-3.72-2.58-9.27-5.69A227.25,227.25,0,0,1,309.88,107c-15.64-14.26-54.07-21.37-93.16-3.79h0c-9.67,4.35-22.41,10.56-38.09,26.07q-1.36,1.31-2.71,2.68C160.47,123.61,84.5,84.39,45.52,95.83l0,0L45,96l-.68.21c-.65.21-1.29.44-1.92.68l-.51.21q-.77.31-1.51.66l-.57.26q-.9.44-1.77.92l-.47.28q-.72.42-1.41.88l-.43.28q-.83.57-1.61,1.19l-.41.34q-.68.56-1.32,1.16l-.28.26c-.49.48-1,1-1.42,1.49l-.34.4c-.42.49-.83,1-1.21,1.52l-.14.18c-.42.58-.82,1.19-1.2,1.81l-.28.46c-.38.64-.75,1.3-1.09,2h0c-.76,1.54-1.42,5.39-1.4,10.71Q25,122.42,25,123ZM360.77,133.8l0-.09Zm-.45,1.29.07-.21Zm-.7,2.4,0,.15.07-.25Zm-.4,1.67.1-.43Zm-.3,1.46.09-.47Zm11.83,331.85a11.37,11.37,0,0,0,3.82-8.89c0-11.38,11.93-17.54-8.3-37.58,2.33-5.2,8.87-18,14.66-29.46,4.51-2.09,17.08-7.95,28.27-13.71h0l.09-.06c2.52-1.3,5-2.59,7.23-3.83,1.88,3.61,4.74,9.15,7.88,15.47,5.94,12.83,13,29.09,16.37,36.74l0,.07c.48,1.44.91,3,1.29,4.71q.23,1,.43,2.07t.4,2.17c1.38,8.09,2.05,17.8,3,26.63l.05.51c.12,1.78.24,3.5.38,5.15Zm163.42-348-1.61-4.35s0-.09-.14-.25l.39.25Z"/><polygon class="cls-1" points="189.38 457.11 142 458.39 97.17 473.75 112.54 489.12 194.5 489.12 262.37 478.88 280.3 467.35 264.93 459.67 189.38 457.11"/></svg>