<svg id="Layer_2" data-name="Layer 2" xmlns="http://www.w3.org/2000/svg" width="600" height="589" viewBox="0 0 600 589"><defs><style>.cls-1{fill:#38667d;}</style></defs><title>premio_leccion_2_4_block</title><path class="cls-1" d="M557.25,250l-30.72-9.37s10.15-3.91,7.29-5.47S496.06,232,489,223.43c-6.39-7.81-71.25-76.67-103.36-95.82.3-.7.58-1.43.83-2.21q.24-.72.45-1.48c.43-1.52.79-3.13,1.1-4.79.51-2.77.86-5.67,1.1-8.47q.08-.89.14-1.77c.47-6.55.37-12.25.37-13.91h0l-5.16,3.1s0-.64,0-1.75h0C384.4,90.87,382.78,74,367.63,64a70.92,70.92,0,0,0-37.16-11.55L319.6,55.17s23.79,6.8,12.91,6.12S301.93,64,293.78,69.44c-7.91,5.28-29.9,11.83-35.55,29-12.93,3.66-38.88,19.34-77.84,80.56,0,0-77.07,86.79-83.32,124.29,0,0-1.49,2.49-3,5.37l-.33.62-.13.24-.31.6-.07.14-.32.62-.11.22-.33.67,0,.09-.28.59-.09.19-.29.64,0,.1-.23.54-.07.16-.23.58,0,.1-.17.47,0,.12c-.05.17-.1.33-.14.48l0,.09q0,.19-.08.36l0,.09a2.59,2.59,0,0,0,0,.34s0,0,0,.06a1.08,1.08,0,0,0,0,.23v0a.45.45,0,0,0,.1.18l0,0a.35.35,0,0,0,.15.07h0a.75.75,0,0,0,.26,0l.07,0a2,2,0,0,0,.31-.12l0,0a4.82,4.82,0,0,0,.43-.26l.12-.08.51-.37,0,0,.64-.52.17-.15.76-.68s-53.78,63.79-67,70.88c10.16-2.3,45.22-10.91,64.2-34.77,6.93-8.37,13.35-18.77,18.14-26.28h0c2.75-4.31,5-7.68,6.44-9.16h0l.27-.26,0,0,.23-.19,0,0,.2-.14,0,0,.19-.09h0l.18,0h0a.54.54,0,0,1,.57.38l0,0a1.68,1.68,0,0,1,.07.2l0,.09c0,.07,0,.14,0,.22l0,.12c0,.08,0,.16,0,.25s0,.1,0,.15,0,.18,0,.28,0,.12,0,.18,0,.21,0,.32,0,.13,0,.21,0,.24,0,.37,0,.14,0,.22,0,.29,0,.45l0,.21c0,.23-.05.47-.08.73-1.15,9.19-2.52,16.33-2.44,19.94,0,.23,0,.44,0,.64a5.8,5.8,0,0,0,.1.7l.05.2a2.57,2.57,0,0,0,.12.36,1.47,1.47,0,0,0,.23.38l0,0c.43.45,1.14.37,2.19-.34,2.27-1.51,11.05-20.17,19.74-39.56l1.74-3.88,2-4.46,2.73-6.19.72-1.63c1.23-2.81,2.43-5.54,3.55-8.12l1.43-3.3c4.4-10.15,7.44-17.31,7.44-17.31s7.4-8.78,16-18.66l2.9-3.33,1-1.12,2-2.23,1.95-2.21,1-1.09,1.06-1.19,1.69-1.89,2.91-3.21,1.66-1.81c2-2.13,3.76-4,5.25-5.52,2.78-2.79,4.54-4.25,4.61-3.53.29,3.24,8.4,35.56,15.7,43.06-3.46,15.54-10.18,43.37-18.31,65.66h0A154.8,154.8,0,0,1,188,340.08c-16.14,29.68-26,90.61-13.54,73.95,5.27-7,10.63-18.49,15.15-27.81h0c1.74-3.59,3.36-6.86,4.79-9.43l0,0,.44-.78,0-.06.43-.73,0,0c.45-.74.88-1.4,1.28-2h0l.38-.5.06-.07.31-.37.07-.08.29-.3.07-.07.3-.26,0,0a2.19,2.19,0,0,1,.64-.36h0a1.1,1.1,0,0,1,.26-.05h.06l.2,0,.07,0,.18.08.07,0,.17.15.06.07a2,2,0,0,1,.18.25l0,.05a3.44,3.44,0,0,1,.19.41l0,.05c.05.13.1.28.15.44l0,.18c0,.13.07.26.1.41l.05.24c0,.14.06.29.08.45l0,.29c0,.16,0,.34.07.52l0,.31c0,.2,0,.41.06.63s0,.19,0,.3c0,.33,0,.67.06,1,1,21.35,2.6,31.77,12.5,1,8.3-25.78,28.33-95.52,34.56-117.33a35.61,35.61,0,0,0,4-.36q.64-.1,1.25-.22a21.79,21.79,0,0,0,2.36-.61,16.2,16.2,0,0,0,2.12-.84,79.67,79.67,0,0,0,7-4.09l1.83-1.17c3.16-2,6.81-4.51,10.75-7.24,8.55-5.94,18.42-13.12,27.43-20l9.54.29,10.52-6.83q.24.88.46,1.79a83.74,83.74,0,0,1,1.55,8.44,116.63,116.63,0,0,1,1,13.57c.06,3.43,0,7.11-.19,11.1h0a.82.82,0,0,0,0,.08.85.85,0,0,0,.47.73h.06a.8.8,0,0,0,.88-.17l.77-.76.13-.13.9-.91.15-.16c.68-.7,1.45-1.5,2.29-2.39l.16-.17,1.29-1.4.21-.23,1.43-1.59,0-.05,1.48-1.69.21-.24,1.55-1.82.13-.15h0c13.38-16,33.23-45.1,35.8-79.83a11.86,11.86,0,0,1,3.06.83l.08,0c.27.11.53.24.8.38l.17.08c.31.16.62.34.92.53,18.23,11.46,47.91,34.89,47.91,34.89s41.14,55.2,53.12,59.37-20.83-42.7-20.83-42.7,35.41,29.68,43.74,30.2,70.3,20.31,75,20.31S589,260.92,557.25,250Z"/><path class="cls-1" d="M25.55,386.6a4.86,4.86,0,0,0,1.76-.64C24.47,386.6,23.57,386.75,25.55,386.6Z"/></svg>