<svg id="Layer_2" data-name="Layer 2" xmlns="http://www.w3.org/2000/svg" width="600" height="589" viewBox="0 0 600 589"><defs><style>.cls-1{fill:#38667d;}</style></defs><title>premio_leccion_2_1_block</title><path class="cls-1" d="M438.18,254.62l-.16-.07h0l-24.63-11.73a4.16,4.16,0,0,0-2.28-.37l-.22,0h-.2l-7.94,1a5.63,5.63,0,0,0-2.56,1l-19.45,13.65-27.18-7.45-4.63,2.54c.91-7.85,1.71-15.66,2.36-22.64a12.74,12.74,0,0,0,1.62-3c1.26-5.22,1.75-12.46,1.81-19.51a3.81,3.81,0,0,0,.88-1.12c1.26-18-7.7-48.73-13-65-.58-3-1.09-5.44-1.47-7.07-2.28-9.74-9.44-8.26-9.44-8.26l-5.84.35a138,138,0,0,0,12.27-37.2l8.6-2.82a10,10,0,0,0,3.45-1.8A9.78,9.78,0,0,0,352,83.27a9.43,9.43,0,0,0,1.6-3.53l.27-1.18.09-.38.2-.85.12-.48.2-.8.14-.54.19-.77.16-.64.19-.72.17-.64.2-.76.18-.66.2-.75.18-.69.21-.79.18-.66.21-.78.2-.73.21-.78.21-.76.19-.69.22-.79.4-1.46.17-.6.19-.69.26-.93.16-.59.24-.88.17-.62.23-.85.17-.63.22-.8.17-.64.21-.78.16-.61.21-.78.16-.6.19-.73.16-.61.18-.7.15-.59.17-.67.14-.57.16-.66.12-.52.15-.63.11-.51.13-.58.11-.49.11-.54.09-.46.09-.5.08-.43.08-.46.06-.39c0-.15,0-.28.06-.42s0-.24,0-.35,0-.25,0-.37,0-.21,0-.31,0-.22,0-.32,0-.19,0-.27,0,0,0-.06,0,0,0,0,0-.26,0-.37h0c-.51-4.43-8.9-10.73-14.45-14.44a18.06,18.06,0,0,0-10.13-3.06,466.14,466.14,0,0,0-64.8,4.46c-13.37,1.86-24.4,4.2-27,5.72a3.2,3.2,0,0,0-.69.43c-19.26,12.31-65.41,84.18-65.41,84.18h0c.53-.71,3.65-1.95,7.34-3.22l.93-.32c6-2,13-4,13-4L178.87,144h0l14.34,3.08c.1,2.33.24,5.56.46,9.44-8.07-4.57-13,1.59-13,16.06,0,10.4-.27,28.94-.45,39.8a28.56,28.56,0,0,0,4.58,16c6.11,9.44,16.42,24.79,20.06,26.81,2.89,1.61,13,8.64,22.78,15-.57,1.19-1.07,2.34-1.49,3.43-10.31,1-20.9,1.1-23.84,1.1-5.26,0-9.21,21.48-9.21,21.48l.5.55c1.7,1.87,3.67,4.17,5.55,6.42l1.12,1.34c3.49,4.21,6.42,7.92,6.42,7.92h0s4.86-1.06,12.2-2.58l2.24-.46,4.31-.87,2.29-.46,6.58-1.29,1.37-.26c1.8,3.87,3.39,6.61,4.37,6.85.09.11.2.1.34,0l.05,0a8,8,0,0,0,1.47-3c.55-1.4,1.18-3.21,1.88-5.28l1.5-.27c3.19-.58,6.39-1.14,9.53-1.67l.5-.08c11.68-2,22.41-3.38,28.1-3.24,1.37-.16,2.81-.27,4.33-.33a5,5,0,0,0,2,1.44h0s7.86,87.79,10.28,118.51c.83,10.45,6.09,4.59,7.4,14.42s2,100.84,6.55,102.8c3.24,1.39,5.5,2.13,7.47,7.52h0a39.42,39.42,0,0,1,1.18,3.94l0,.2q.11.45.22.93l.08.33.2.89.09.41.19,1,.08.41c.09.46.18.94.27,1.43q.19,1.07.4,2.11c1,4.85,2.13,9.18,3.22,12.74a6.66,6.66,0,0,0,1.26,2.33,6.51,6.51,0,0,0,.58.61,6.76,6.76,0,0,0,4.52,1.77,6.65,6.65,0,0,0,4.69-1.89l10.2-9.82s2,.65-.65-15.72c-2-12.64-10.29-76.82-13.65-106.91.71-6,2.61-52.25,5.14-53.52s-2-29.47-9.17-77.27c0,0,.79-3.63,3.47,1.74s16.33,31,18.77,29.5c1.6-1-.16-19-1.56-31.2l21.42-9.66a36.36,36.36,0,0,0,6.36,6,60.27,60.27,0,0,0,7.74,4.89,91.93,91.93,0,0,0,9.68,4.45l1.54.6a111.86,111.86,0,0,0,13.69,4.23h0c.07-.13,25.34-45.86,29.81-54.8l.08-.16A6.71,6.71,0,0,0,438.18,254.62Z"/></svg>