<svg id="Layer_1" data-name="Layer 1" xmlns="http://www.w3.org/2000/svg" width="600" height="589" viewBox="0 0 600 589"><defs><style>.cls-1{fill:#e4dfc8;}.cls-2{fill:#d7cfad;}.cls-3{fill:#ddcf94;}.cls-4{fill:#d1c282;}.cls-5{fill:#c1a865;}.cls-6{fill:#aba27c;}.cls-7{fill:#ebe0aa;}.cls-8{fill:#e0d8b5;}.cls-9{fill:#d95551;}.cls-10{fill:#a33633;}.cls-11{fill:#913431;}.cls-12{fill:#c4ba8e;}.cls-13{fill:#faf8ec;}.cls-14{fill:#fff;}.cls-15{fill:#232622;}.cls-16{fill:#8f8767;}</style></defs><title>premio7-1</title><path class="cls-1" d="M352,428.61l18.3,16.63s8.87,8.32,23.29,4.44c17.19-2.22,40.48-.55,39.37-10s-9.43-3.33-21.62-18.3l-10-12.75Z"/><path class="cls-2" d="M430.8,444.23c-2-1.82-5.48-3.75-11.47-5.37-14-3.79-24.82-20.79-27.95-26.18L352,428.61l18.3,16.63s8.87,8.32,23.29,4.44C407.25,447.92,424.74,448.6,430.8,444.23Z"/><path class="cls-2" d="M226.69,414.75s3.33,6.65-.55,16.08-.55,18.85,15,21.62,20,4.44,23.84-12.75l2.22-8.32Z"/><path class="cls-1" d="M156.82,373.72s54.89,57.11,138.62,66.54c71.53,4.44,89.27-27.72,158-41.59,3.88,1.11-81-69.31-179.1-69.87S156.82,373.72,156.82,373.72Z"/><path class="cls-3" d="M440,383.5c-4.83,0-24-10.17-28.67-3.83-16.25,6.24-34.87,24.67-48.83,27.83-26.5,6-48.5-1.5-80.5.17-39,2-97.8-26.25-120.2-41.56-13.44-1.5-5,7.61-5,7.61s54.89,57.11,138.62,66.54c71.53,4.44,79.64-24.2,155.39-38.74C454.91,401,457.85,394.93,440,383.5Z"/><path class="cls-4" d="M427.62,382.9c-7.64,2.17-16.9,5.76-33.62,16.1-27.5,17-27.5,18.5-106,24.5-75.45-9.32-118.87-40.32-133.71-55.06-.67,2,2.53,5.28,2.53,5.28s54.89,57.11,138.62,66.54c71.53,4.44,116.88-35.42,136.51-50C439.59,384.64,431.16,383.55,427.62,382.9Z"/><path class="cls-5" d="M283.86,407.87l.89.2s4.6,11.94,5.29,15.24c.5,2.38,3.35,16.54,3.35,16.54l-.87,0s-4.18-13.52-5.67-16.55C286.35,422.25,283.86,407.87,283.86,407.87Z"/><path class="cls-6" d="M415.43,379s-6.64,5.59-12.58,1c-10.16-7.77-47.69-25.13-67.69-25.82s-115.49-10.34-126.18,0-48.15,14.06-49.18,13.72,46.42-19.24,50.9-21,104.85-3.2,118.79-1.94,51.53,14.73,66.68,24.7S415.43,379,415.43,379Z"/><path class="cls-7" d="M154.6,369.28s-6.71.76-5.93-4.19,37.8-39.88,50.83-42.75c.78-2.61,62.49-40.34,105-12.84,7,0,39.5,9.5,46,15.5,6.5-4,59,17,79,38.5,9-2,27.38,17,27.38,19.23,3.32.6,10.86,11.91,5.43,16s-6.18.9-12.82-4.52S438,383.25,421.75,381.75s-40.5-21.75-55.25-27.5-36-5-37-9.25c0,0-6.25,1.75-11.25-.25S254.82,338.67,216.5,347C193.5,352,189.71,360.06,154.6,369.28Z"/><path class="cls-1" d="M178.78,348.64a26.35,26.35,0,0,0-3.14,16.94s6.28,11.92,17.78,10S206,364.33,206,364.33Z"/><path class="cls-4" d="M407,413a362.7,362.7,0,0,1,43.87-11.48c1.42-.39,4.42-1.52,2.42-4.27-1.68-1-3.77-3.58-5.48-4.91C439.61,386,436.46,398.94,407,413Z"/><path class="cls-5" d="M451.78,396.12c1,.73,2.49,1.9,2.3,3.3-.17,1.25-1.6,1.93-2.66,2.27-1.59.52-3.29.83-4.92,1.23-2.36.57-4.7,1.18-7,1.8-5.65,1.49-11.26,3.2-16.8,5.05-4.9,1.64-9.83,3.2-14.69,5-7.62,2.76-15.11,5.84-22.57,9-12.14,5.19-24.27,10.52-37.09,13.86a155.1,155.1,0,0,1-39.78,4.59c-3.83,0-7.65-.18-11.48-.36-2.25-.11-4.46-.45-6.69-.74a203,203,0,0,1-28.78-5.92,245.37,245.37,0,0,1-37.34-13.81,267.56,267.56,0,0,1-34.69-19.52,193.79,193.79,0,0,1-26.36-21.37c-2.25-2.14-4.43-4.33-6.52-6.62h0a7.33,7.33,0,0,1-2.23-3.05c-.4-1.45.8-2,2-2.16-1,.19-2.26.68-1.91,2a7,7,0,0,0,2.38,2.95c2.15,1.93,4.3,3.85,6.53,5.69,4.49,3.73,9.15,7.27,13.91,10.66,9.62,6.84,19.51,13.4,29.76,19.26A238.36,238.36,0,0,0,273,434.95c7.49,1.68,15,2.81,22.64,3.81h0a210.3,210.3,0,0,0,31-.36c14.8-1.46,28.92-5.51,42.67-11.08,11.51-4.66,22.8-9.81,34.41-14.22a183.8,183.8,0,0,1,21.44-6.8c7.92-1.95,15.92-3.55,24-4.85,1.43-.23,3.06-.31,4.2-1.31,1.38-1.32-.51-3.15-1.51-4C452.46,396.62,452.42,396.68,451.78,396.12Z"/><path class="cls-5" d="M433.39,384.4s4.38.87,1.05,3.9S394.52,420.76,378,423.83c0,0,39.41-22.74,48.77-32,3.82-3.26,4.79-4.72,4.7-5.17C431.14,385.06,432.3,384.58,433.39,384.4Z"/><path class="cls-5" d="M411.39,379.81c-7.13,3.31-13.55,7.85-19.92,12.41-7.24,5.18-14.44,10.75-22.57,14.46A45.53,45.53,0,0,1,356.12,410a96.52,96.52,0,0,1-14.4.83c-9.61-.1-19.16-1.34-28.74-2a196,196,0,0,0-27-.2,110,110,0,0,1-18.76-.2c-18.94-1.94-37.57-7.68-55.13-14.86-16-6.54-31.76-14.34-46-24.18-1-.71-2-1.46-3-2.19.13-.4.34-.14.59,0L166,368.6q2.2,1.29,4.43,2.53c3.68,2,7.42,4,11.19,5.82,8.06,4,16.3,7.67,24.63,11.05,17.33,7,35.3,13.39,53.75,16.74A126,126,0,0,0,283.74,407c7.39-.07,14.74.06,22.12.52,9.5.58,19,1.53,28.52,1.57a117.57,117.57,0,0,0,27.84-2.85,46.2,46.2,0,0,0,12.56-5.59c3.95-2.34,7.77-4.86,11.6-7.39,6.86-4.53,13.79-9.16,21.39-12.37.75-.32,1.52-.62,2.29-.89C410.36,379.84,411.34,379.23,411.39,379.81Z"/><path class="cls-8" d="M227.89,297.78l2.55,2.38L228.57,306l-3.75,6.3-1.87.51S227,297.95,227.89,297.78Z"/><path class="cls-9" d="M210.82,348.42l-6.5-7.6a1.69,1.69,0,0,1,.35-2.51c2.76-1.83,8.37-5.36,10.61-5.36,3,0,8.91.26,8.91.26l1.31,12.58Z"/><path class="cls-10" d="M213.29,348.07s-2.46-4.9-5.34-6.73,3.67-5.5,7.86-5.5,6.55.26,7.86-1.31,0,11.53,0,11.53Z"/><path class="cls-11" d="M211.67,338.48s-1.28,2.44,1.78,5.48,2,3.65,2,3.65l6.59-1.16s1.62-5.89.58-7.62S216.74,338.17,211.67,338.48Z"/><path class="cls-9" d="M203.11,319.4s-2.1,7.69-.34,10.85c2,3.65,5.9-.17,7.63-.52s9.89-5.55,14.05-4.68-2.08-15.44-2.08-15.44S205.33,317.24,203.11,319.4Z"/><path class="cls-10" d="M204.9,318.15s-1.78,6.37-.56,8.28,5,1.56,8.33.52S225,322.44,225,320.53,219.6,311,219.6,311Z"/><path class="cls-11" d="M206.16,317.51s-1.16,5.48.53,6.75,3.37,2.11,4.64,1.69,6.12-4.43,8.86-4.64,2.21-4.75.42-5.48-1-4.84-1-4.84Z"/><path class="cls-9" d="M198.63,322.75a11.29,11.29,0,0,1,0,6.29c-1,2.94.07,5.45.77,5.59s-5.38,4-7.76,4-6.64-8.25-6.64-8.25S196.54,321.22,198.63,322.75Z"/><path class="cls-10" d="M196.68,322.89a20.44,20.44,0,0,1-.14,6.64c-.7,3.15,2.45,4.68,1.33,5.38s-6.22,4-7.69,2.24-4.26-6.87-3-8.25C188.64,327.3,194.79,323.38,196.68,322.89Z"/><path class="cls-11" d="M188.08,328s-1,2.8.35,3.91,1.75,3.7,2.94,3.63,4.26-2.17,4.26-2.17-.77-3.91-.07-5.52a24.64,24.64,0,0,0,1.12-5A40.74,40.74,0,0,0,188.08,328Z"/><path class="cls-1" d="M57.63,187.29c.15-4.92,2.2-19.77,11-14.55s23.89,32.13,60.41,50.8,29.11,34.32,32.13,59.59c1.65,9.89,6,8.24,14.28,25.26s12.25,27.52,24.6,34.39,10.55,28.22-4.28,28.49-14-15.65-15.38-20c-8-5.49-29.36-40.89-77.16-60.41C83.72,282.85,56.75,215.6,57.63,187.29Z"/><path class="cls-2" d="M192.3,351.51c-30.36-24.38-20.4-54.24-70.67-73.15C81.6,263.29,66.51,198.66,62,173c-3.32,3.14-4.29,11-4.39,14.3-.88,28.31,26.09,95.56,45.58,103.52,47.8,19.52,69.2,54.92,77.16,60.41,1.37,4.39.55,20.32,15.38,20a15.81,15.81,0,0,0,3.49-.45C201.86,364.83,200.48,358.08,192.3,351.51Z"/><path class="cls-12" d="M210.31,359.38a25.91,25.91,0,0,0-2.5-8.13,28.36,28.36,0,0,0-4.2-6.8,15.73,15.73,0,0,0-5.83-4.35c-1.05-.42-2.16-.73-3.24-1.08-3.45-2.57-6.15-6.24-8.46-9.81,2.12,4,4.89,8.22,8.59,11a34.66,34.66,0,0,1,4.92,4.81c2.83,3.06,3.58,7.81,3.58,7.81.57-3.44-1.36-9.18-4.51-10.58,3.76,1.68,6.38,6.45,8,9.8,1.94,4.05,3.34,8.79,2.64,13.31-.68,5.8-5.12,10.92-10.29,13.35,5.57-2.14,10.32-7.19,11.25-13.2a18.59,18.59,0,0,0,.07-6.08C210.26,358.88,210.46,360.39,210.31,359.38Z"/><path class="cls-12" d="M176.9,352.45s-2.82,10.41,1.89,16.05a20.6,20.6,0,0,0,10.51,6.85s-6.51,2.28-12.68-6.4C172.12,362.63,176.9,352.45,176.9,352.45Z"/><path class="cls-9" d="M170.21,342.4s7.67,4.71,4.82,7.56-13.69,9.75-15.11,9.86-1.53-3.29-2.41-4.49l-.88-1.2Z"/><path class="cls-10" d="M169.55,343.05a8,8,0,0,1,2.52,2.63c.66,1.42-.22,4.38-.22,4.38s-10.08,8.54-10.73,7.89a38.28,38.28,0,0,1-2.63-4.27l-1.86.44Z"/><path class="cls-11" d="M160.13,351l.77,3.4a8,8,0,0,0,3.29.22c1.31-.33,6.46-5.91,6.46-5.91s-1.2-5.37-2.63-4.6S160.13,351,160.13,351Z"/><path class="cls-9" d="M155.75,355.21a41.33,41.33,0,0,1,1.42,5.23c.26,1.41-4.82,8.13-6.35,8.13s-3.29-3.5-2.08-5.48S155.75,355.21,155.75,355.21Z"/><path class="cls-10" d="M154.76,356.2a16.06,16.06,0,0,1,1.4,3.39c.1,1.05-.74,3.51-1.51,3.95s-3.88,5-4.93,3.29a7.52,7.52,0,0,1-1-3.72Z"/><path class="cls-11" d="M153.56,357.51s2.52,2.3,1.2,4.05a10.33,10.33,0,0,1-3.4,2.74s-2.08,0-1.64-1.53l.44-1.53Z"/><path class="cls-13" d="M199.51,322.34a1.43,1.43,0,0,1,.67,1.32c-.15.81.41,2,0,3.14s-1.36,4.08-.55,4.67a6.66,6.66,0,0,1,1.86,3.35c.07.81-1.34,2.21-3,3.31a7.4,7.4,0,0,1-3.32,1.22l2.53.74s5.05-3.1,5.28-3.91,2.28-1.62,3.17-1.62,4.05-1.62,5.23-2.58,9.43-2.14,9.43-2.14l.22-2.28s-9.58,2.14-10.68,3.31a12,12,0,0,1-4.86,2.36c-.52,0-2.28.88-2.95-.07s-1.92-.88-1.84-3.17.66-5.67.59-6.19a22.56,22.56,0,0,0-.88-2.5Z"/><path class="cls-9" d="M170.49,364.46s-.49-6.82-1.53-6.12-7.71,3.16-8.84,3.59-3,1.93-3,3.15-2.77,3.89-1.68,3.73S165.43,367.17,170.49,364.46Z"/><path class="cls-10" d="M169.27,364.81s.09-4.36-1.48-4.1-4.36,1.66-5.49,1.66-4.45,1-4.45,3-2.18,3.35-1.35,3.33S168,366.29,169.27,364.81Z"/><path class="cls-11" d="M157.76,368.39s1.48-3.84,2.62-3.84,3.84.09,4.71-.87,3.23-1.83,3.23.26-.76,1.76-1.31,2C164.48,367.08,157.76,368.39,157.76,368.39Z"/><path class="cls-13" d="M177.26,348.42c-1.44,2.43-2.49,3.93-3,4.16a7.65,7.65,0,0,0-2.39,1.67A26.33,26.33,0,0,1,169.6,356c-.84.19-1.64.95-3.09,1.75a32.43,32.43,0,0,1-6.9,2.8l-.19.08a4.23,4.23,0,0,1-1.15-1.25,3.48,3.48,0,0,0-.62-2.58,4.35,4.35,0,0,1-.82-1.88l-.63.62a3,3,0,0,0,.77,1.79c.31.31.37.71.4,1.42l0,.84.09.14a7,7,0,0,0,1.12,1.37,11.58,11.58,0,0,0-3.12,3.89c-.18.32-2.2,2.63-3.57,4.16l1.14.11c1-1.17,3.11-3.39,3.32-3.82.83-1.66,2.42-3.63,3.56-3.93a30.8,30.8,0,0,0,6.83-3,16.53,16.53,0,0,1,1.85-.69l.37-.44A2.55,2.55,0,0,0,170,357a.65.65,0,0,1,.24,0,1.59,1.59,0,0,1,1,.66,1.66,1.66,0,0,1,.06,1.28,16.3,16.3,0,0,0-.21,5.31l1-.1a20.85,20.85,0,0,1,.22-5,2.61,2.61,0,0,0-.16-2,2.3,2.3,0,0,0-1-.91c.45-.34.94-.75,1.5-1.21a12.23,12.23,0,0,1,1.93-1.45c.89-.16,1.94-1.77,3.48-4.37Z"/><path class="cls-9" d="M311.5,326.5s6.25,4,10.75,6.25,6.5,5,6.5,6.75.25,6.25-1.75,6.25-17.25,1.5-19-1.75S308,325.75,311.5,326.5Z"/><path class="cls-10" d="M312.58,328.43s8.1,6.57,8.33,6.57,5,2.06,5,3.59.31,7.11.31,7.11l-7.41.46s-5.66-14-7.18-14.9S312.58,328.43,312.58,328.43Z"/><path class="cls-11" d="M311.9,331.77l3.36.17,4.89,4.51s3.59,3.52,3.67,6.27-.76,3.06-.76,3.06l-4.2.38L312,335.38Z"/><path class="cls-9" d="M306.94,316.85l25.81,13.93s10.79-3,11.61-3.14,5.46-4,5.46-4-17.06-11.46-36.87-12.84C310.83,310.68,306.94,316.85,306.94,316.85Z"/><path class="cls-10" d="M311.31,315.89l21.44,11.88s11.33-1.09,11.33-2.59,1.73-4,1.73-4-16.38-9.38-29.31-10C316.5,311.25,312.27,312.21,311.31,315.89Z"/><path class="cls-11" d="M318.41,311.52l-2.59,3,1.09,2.59s17.2,8.06,17.75,8.06,7.24-1.09,7.24-1.64a20.21,20.21,0,0,1,1.84-3.49S325,311.39,318.41,311.52Z"/><path class="cls-12" d="M297,379.5c-14.47,8.64-30.77,8.78-44.57,3.79a10.12,10.12,0,0,0-.94.94s20.72,5.57,31.07,13.8,36.38-18.59,35.84-38.5a6.19,6.19,0,0,0-.45-2.27C315.18,364.41,309,372.32,297,379.5Z"/><path class="cls-1" d="M275,263.5S230.5,261,222,320s39,81,75,59.5,18.1-48.63,16.12-46.41a9.1,9.1,0,0,1-1.68-4.43c-.06-.67,3.64-11.71.72-39.57C311.48,280.1,302.86,266.77,275,263.5Z"/><path class="cls-14" d="M279.9,313.34s5.33-11,12.49-10.17,12.73,13.62,12.73,13.62-8.38,8.81-16.73,6.37C282,321.31,279.9,313.34,279.9,313.34Z"/><path class="cls-2" d="M227.24,339.71s11.56-9.1,23.76-3.64c15.69,7,29.73-.12,37.8-1.76a20,20,0,0,1,14.2,2.54,48.48,48.48,0,0,0-22.42,4.93c-11.51,5.68-15.85,7.62-30.5,1.49S227.24,339.71,227.24,339.71Z"/><path class="cls-2" d="M279.9,313.34s5.06,25.7,24.67,14.9c0,0,3.6-4.34-2.55-.36C301.22,328.4,289.43,334.57,279.9,313.34Z"/><path class="cls-15" d="M300,312c0,3.4-3.85,6.16-8.6,6.16s-8.6-2.76-8.6-6.16,3.85-8.82,8.6-8.82S300,308.59,300,312Z"/><path class="cls-2" d="M280.6,309.23s3.57-12.09,13-10.17,14.19,11.73,14.19,11.73.85-.28.57-1c-1.23-3.31-6.65-12.25-15.89-12.68S280.6,309.23,280.6,309.23Z"/><path class="cls-2" d="M230.36,307.21s2.42-10.87,10.17-10c9.2.3,6.68,14.22,6.68,14.22s-.1-12-7.4-12.39C234.91,298.77,230.36,307.21,230.36,307.21Z"/><path class="cls-16" d="M302.67,335.83c-3.87.93-8.66,0-19.75,4.21-1.34.51-2.57,1.22-3.82,1.83-7,3.43-13.58,6.68-23.14,3-11.69-6.85-24.79-5.79-25.9-6.17-1.94-.67-2.85.37-2.82,1s.82,1.59,3.24.74c2.62-.92,15,.84,25.09,5.4a23.92,23.92,0,0,0,8.59,1.69c5.72,0,10.45-2.33,15.38-4.75a34,34,0,0,1,3.79-1.82c16.17-5.62,18-2.89,18.92-2.54,3,1.08,3.86-.19,3.91-1S304.75,335.34,302.67,335.83Z"/><path class="cls-2" d="M251.6,321.74s-.67,2.38.63,3.68c2.27,2.27,3.66-3.68,3.66-3.68S253.88,318,251.6,321.74Z"/><path class="cls-2" d="M266.12,321.72s-.9,3.57.53,4.33c2.75,1.46,3.82-3.72,3.82-3.72S268.41,317.94,266.12,321.72Z"/><path class="cls-6" d="M255.89,321.74a2.29,2.29,0,0,1-2.15,2.41c-1.19,0-2.14-2-2.15-2.41s2.22-3.16,3.4-3.16S255.89,320.41,255.89,321.74Z"/><path class="cls-6" d="M270.47,322.32c-.07.69-1,2.41-2.15,2.41a2.29,2.29,0,0,1-2.15-2.41c0-1.33,0-3.37,1.19-3.37S270.51,321.89,270.47,322.32Z"/><path class="cls-2" d="M319.47,351.88c-17.72-16.17-10.67,26-60,19.07-33.06-4.63-38.33-30.76-37.6-49.83-7.74,58.15,39.38,79.74,75.15,58.38C312.15,370.45,318,360.25,319.47,351.88Z"/><path class="cls-12" d="M320,345.61c.11-7.69-7.52-14.78-8.16-15.51,1.06-6.28,1.77-12.91,1.09-19.28a113.48,113.48,0,0,1-2.43,19.43,75.46,75.46,0,0,1-2.45,17.32,48.93,48.93,0,0,1-6.91,15.59c4-4.09,6.55-9.81,8.22-15.22a50.65,50.65,0,0,0,2.51-16.18c.54,1.12.88,1,1.1,2.24,1,4.77.51,9.88-.17,14.66-.53,3.75-1.28,7.45-2,11.16a43.84,43.84,0,0,0,3.5-11.55c.86-5,1.61-9.4-.42-14.16,3.77,5.06,5.17,9.53,4.62,15.87a41.8,41.8,0,0,1-5.37,16.23,28.46,28.46,0,0,0,6.87-20.6C319.93,344.44,320,346.78,320,345.61Z"/><path class="cls-15" d="M300,312c0,3.4-3.85,6.16-8.6,6.16s-8.6-2.76-8.6-6.16,3.85-8.82,8.6-8.82S300,308.59,300,312Z"/><path d="M291.44,303.17c-4,0-7.36,3.84-8.32,7.09,1.79,3.06,7,4.92,8.33,4.92,2.38,0,6.77-2.58,7.9-6.05C298,306.19,295,303.17,291.44,303.17Z"/><circle class="cls-14" cx="290.48" cy="308.27" r="2.44"/><path class="cls-2" d="M229.57,311.14s-.53,2.5,4.32,6.21c4.35,3.33,9,1.63,10.25.42C244.14,317.77,234.29,318,229.57,311.14Z"/><path class="cls-14" d="M229.45,311.48s15.14,16,17.79-.87a3.15,3.15,0,0,0,0-1.38C245.76,296.71,236.72,298.52,229.45,311.48Z"/><path class="cls-15" d="M247.5,309.76c.09,2.41-3.45,5.2-7.27,5.2s-7.72-2.92-8.07-5.95c-.26-2.24,4.44-8.45,9.31-8.31C245.49,300.81,247.4,306.71,247.5,309.76Z"/><path d="M247.4,308.61c-.43-3-2.57-7.91-5.92-7.91-1.87,0-3.88,1-6,2.71a6,6,0,0,0-.08,2.26,6.63,6.63,0,0,0,4.13,5.47C242,311.93,246.21,310.71,247.4,308.61Z"/><circle class="cls-14" cx="241.63" cy="304.72" r="2.44"/><path class="cls-2" d="M227.82,314.46s0,10,5.6,11.34,11.66-4.18,13.79-14.39c0,0-3.58,13.19-12.71,12.16C228.29,322.9,227.82,314.46,227.82,314.46Z"/><polygon class="cls-8" points="259.25 309.72 268.1 310.09 271.42 301.6 263.49 296.25 256.29 300.31 259.25 309.72"/><path class="cls-8" d="M255.37,298.1s8.12-4.24,9-3.69,7.2,5.17,7.2,5.17l3.14-10.89s-7.38-5.54-9-5-11.26,2.58-11.07,4.24S255.37,298.1,255.37,298.1Z"/><polygon class="cls-8" points="269.76 310.64 273.45 313.96 278.07 312.3 279.91 303.82 275.67 301.42 272.71 302.34 269.76 310.64"/><path class="cls-8" d="M273.08,299.94s3.51.37,4.06.37,3.32,1.85,3.32,1.85l5.72-9.23-5.54-4.8-4.43.55Z"/><polygon class="cls-8" points="276.04 287.21 281.02 286.47 287.29 291.45 291.72 287.02 287.75 277.87 278.62 271.34 276.04 287.21"/><path class="cls-8" d="M253.89,285.36s11.07-3.69,12.36-3.69,8.12,4.24,8.12,4.24l2.77-14.58s-12.92-2.4-14.58-1.29-9.6,5-9.41,6.46S253.89,285.36,253.89,285.36Z"/><path class="cls-8" d="M257.11,310.08,254.38,301l-6.06,2.73s1.51,6.66,1.51,7.88,4.62.66,4.62.66Z"/><path class="cls-8" d="M248.84,301.35s5.11-1.36,5.11-3.24-1.19-9.71-2.21-9.71-6.63.65-7.49,1.7c-1.53,1.87-1,2.72-1,2.72Z"/><polygon class="cls-8" points="252.42 286.03 242.54 288.92 239.13 284.49 243.73 279.04 250.71 277.34 252.42 286.03"/><path class="cls-8" d="M243.57,276.19l8-1.41,11.58-7L263,265S246.31,270.28,243.57,276.19Z"/><path class="cls-8" d="M264.34,264.74l.17,3.41L278.3,270l5.79-4.77s-7.75-1.83-10.39-1.87C271.34,263.33,264.34,264.74,264.34,264.74Z"/><path class="cls-8" d="M242.2,276.32l.34,2-4.77,6-6.47,6.47A66.44,66.44,0,0,1,242.2,276.32Z"/><polygon class="cls-8" points="237.77 286.2 241.86 290.62 240.15 293.52 232.32 298.8 229.76 296.75 232.49 290.8 237.77 286.2"/><path class="cls-8" d="M285.89,265.48l-4.85,5,8.56,6.5L292.7,285H299l3.29-12.09S291.36,267.35,285.89,265.48Z"/><polygon class="cls-8" points="293.27 287.09 289.99 292.05 292.59 294.36 302.12 296.09 304.15 290.31 298.61 286.91 293.27 287.09"/><path class="cls-8" d="M303.36,274.25l-2.82,11.47,3.94,3.28H309l2.6-2.8A18.79,18.79,0,0,0,303.36,274.25Z"/><polygon class="cls-8" points="305.37 290.83 303.42 296.52 308.75 299.55 312.49 299.01 312.15 289.09 309.29 291.18 305.37 290.83"/><polygon class="cls-8" points="308.94 300.41 311.25 305.06 312.03 312.36 312.95 310.83 312.85 304.17 313.03 300.08 308.94 300.41"/><path class="cls-9" d="M331.89,345.78s3.32-3.82,2.16-7a32.85,32.85,0,0,0-1.83-4.32s8.13.17,12.45,2c3,1.28,13.61,4.48,16.26,5.14s1.83,3.32,1.49,5-6.31,5-6.31,5a24,24,0,0,0-7.8-2.82C342.71,347.67,334.81,347.37,331.89,345.78Z"/><path class="cls-10" d="M337.2,336.48a86.64,86.64,0,0,0,9.46,3.15c2.66.5,14.61,3.49,14.44,4.32s-5.31,3.32-5.31,4.32a5.7,5.7,0,0,1-1.16,2.49s-8.3-3.15-15.6-3.49c0,0-5.48-.17-5.48-1.33s3.32-4.15,3.49-5.14S335.88,336.65,337.2,336.48Z"/><path class="cls-11" d="M335.88,347.1s9.46.66,11,1.16,5.14,2,5.64,1.33,4.15-5.14,1.83-5.64-7.63-2-10.29-2.82-4.32-.5-5.64,1.83S336.71,347.1,335.88,347.1Z"/><path class="cls-9" d="M352.39,324.19s-1.06,5.39-5.13,5.71c-2.09.16-8.61,2.66-8.61,2.66a102,102,0,0,0,13,4.26c5.81,1.33,14.11,6,14.77,4.15S375,329.85,375,329.85,361,324,352.39,324.19Z"/><path class="cls-10" d="M354.07,324.17A57.41,57.41,0,0,0,351,329.9c-.31,1.1-9.24,2.82-6.58,3.6s14.24,2.7,16,3.64,5,1.64,6.25.24a37,37,0,0,0,6-8.37S366.32,325.5,354.07,324.17Z"/><path class="cls-11" d="M355.45,324.41s-2.25,7.21-3.19,7.52-3.29.94-2.19,1.1,12.57,2.07,12.57,3,4.68.31,4.34-2.85c-.25-2.37,5.45-4.08,3.95-4.77A48.64,48.64,0,0,0,355.45,324.41Z"/><path class="cls-9" d="M383.34,361.2s27.06,15.84,28,15.1,3.29-5.83,1.94-8.37-26.61-15.25-26.61-15.25S382.14,358.51,383.34,361.2Z"/><path class="cls-10" d="M383.34,361.2s2.24-6.28,3.74-5.83,23.62,11.66,23.62,14.8.6,4.78-2.09,4.78S383.34,361.2,383.34,361.2Z"/><path class="cls-11" d="M385.28,362.1s1.2-4.63,1.64-4.33,13.9,7.62,15.1,7.62,7.17,3.74,6.13,6.88-6-.3-6-.3Z"/><path class="cls-1" d="M341.57,391c-7.14-8.79-10-33.65,4.94-31.85,6.86.82,19.5-28,61-65.35,28.32-25.5,40.64-10.16,96.11-57.67,25.61-21.93,47.51-35.15,48.6-28.28,1.06,6.6,1.83,6.26-1.92,15.1-7.69,18.12-53.55,86.5-53.55,86.5s-14.83,25.81-53,28-71.94,24.33-71.12,43.11c.55,12.63-4.95,17.63-10.16,18.67C355.57,400.65,344.69,394.88,341.57,391Z"/><path class="cls-2" d="M550.26,223c3.75-8.84,3-8.51,1.92-15.1a2,2,0,0,0-2-1.79c-10,16.43-45.51,71.3-87.72,98.38-17.92,15.09-54.39,3.77-80.18,42.45-14.78,22.64-34.27,18.86-30.18,38,1.75,8.23,4.61,12.41,7.3,14.49a12.25,12.25,0,0,0,3.08-.17c5.21-1,10.71-6,10.16-18.67-.82-18.78,33-40.91,71.12-43.11s53-28,53-28S542.57,241.11,550.26,223Z"/><path class="cls-12" d="M350.66,357.58s-9.67-4.35-15.7,4.54c0,0,.86-5.63,7.78-6.83a12.59,12.59,0,0,1,8.63,1.44C352.12,357.19,350.66,357.58,350.66,357.58Z"/><path class="cls-12" d="M407,345.75s-23.39,9.93-30.57,23.37c-2.38,4.45-4.72,10.23-3.83,15.89.8,6.06-5.46,14.32-10.15,14.26,0,0,9.67-5.32,8.07-20.48a50.78,50.78,0,0,1,5.78-12.16C385.78,352.31,407,345.75,407,345.75Z"/><path class="cls-12" d="M357.43,394s9.25,4.79,14-15.31l-.62-.93S366.52,395.87,357.43,394Z"/><path class="cls-9" d="M395.15,352.08s19.13,13.75,22,13.75,12.26-3.89,12.26-4.48-20-16.44-23.32-16.74S394.7,350.59,395.15,352.08Z"/><path class="cls-10" d="M397.45,353.46l4.57-4.81s6-1.94,6.43-1.64,10.61,9.87,14.05,11.81-2.84,1.79-3.89,2.24-1,4.82-2.39,4.63C412.93,365.24,400,356.45,397.45,353.46Z"/><path class="cls-11" d="M398.73,354.62s5.23-4.33,6.43-3.89,4-2.09,8.07,2.84,6.28,4.93,3.14,6.73a3.47,3.47,0,0,0-1.49,4.78S405.16,361.05,398.73,354.62Z"/><path class="cls-9" d="M416.25,376.33s25.78,5,29.26,8.92,11.57-.84,11.15-3.9S439.57,360,431.35,363.78,411.67,372.47,416.25,376.33Z"/><path class="cls-10" d="M416.25,376.33s21,3.44,28.4,8.29c0,0,2.47-.69,4.86-1.15,3.74-.72,5-2.68,3.83-4.73-.72-1.22-16.23-13.55-19.94-12.53S417.12,371,416.25,376.33Z"/><path class="cls-11" d="M418.44,376.82s20.58,4.47,24.41,6.65c0,0,1.94.75,3.1-2.16.51-1.28,7.35-.88,4.94-3-3.2-2.81-17.38-10.95-20.19-8.4C423.81,376.18,421.51,372.22,418.44,376.82Z"/><path class="cls-9" d="M445.44,388.73s9.37,6.64,10.93,9c1.73,2.6,10.15.13,7.16-7.29s-6.38-9.5-7.29-5.07S444.4,386.26,445.44,388.73Z"/><path class="cls-10" d="M456.37,397.71s6.38-.26,6.25-3.77-3.38-9-5.47-5.73-9,0-9,1.3S456.11,396.93,456.37,397.71Z"/><path class="cls-11" d="M451,392.89s5.2,4.16,5.33,4.81,4.94-3,4.29-4.81S460,389,457,391.07s-5.6-2.08-6.38-.39S451,392.89,451,392.89Z"/><polygon class="cls-2" points="421.3 317.54 412.53 312.92 419 301.84 425 299.07 434.23 301.38 435.61 315.23 421.3 317.54"/><polygon class="cls-2" points="438.84 315.23 436.91 301.75 443.28 296.76 451.88 296.21 456.04 300.64 453.26 309.24 438.84 315.23"/><polygon class="cls-2" points="424.99 297.04 434.96 299.26 441.62 294.54 443 284.01 432.67 278.3 422.75 282.86 424.99 297.04"/><polygon class="cls-2" points="456.04 309.79 458.25 299.53 465.46 292.05 472.94 292.6 476.83 295.65 456.04 309.79"/><polygon class="cls-2" points="443.75 294.23 452.25 293.55 456.54 296.82 465 290.11 466.29 279.57 454.65 277.63 446.61 282.62 443.75 294.23"/><polygon class="cls-2" points="435.64 276.92 443.84 280.96 452.71 276.25 454.46 269.39 435.64 276.92"/><polygon class="cls-2" points="459.09 267.22 456.04 274.31 467.12 277.36 476.27 272.37 477.38 262.11 470.73 260.72 459.09 267.22"/><polygon class="cls-2" points="478.77 293.71 474.89 290.94 467.4 290.66 468.23 279.85 476.55 274.86 488.47 274.31 490.69 281.51 478.77 293.71"/><path class="cls-2" d="M420.15,284.33,422.44,296l-4.16,2.29-7.69,12.88L400,309.47l-.21-7.9S413.71,287.44,420.15,284.33Z"/><polygon class="cls-2" points="417.66 319.44 411.01 315.29 403.32 320.89 401.45 327.34 417.66 319.44"/><polygon class="cls-2" points="397.71 302.61 398.34 311.75 408.73 313 401.45 317.99 391.48 320.48 390.44 310.09 397.71 302.61"/><polygon class="cls-2" points="397.3 331.91 400.41 321.1 390.02 323.18 382.96 331.91 388.99 342.71 397.3 331.91"/><polygon class="cls-2" points="387.12 313 388.36 322.56 381.92 329.83 373.01 329.72 387.12 313"/><polygon class="cls-2" points="380.68 332.95 385.04 338.97 386.49 346.87 370.5 359.75 367.79 348.32 375.27 342.09 380.68 332.95"/><polygon class="cls-2" points="371.69 331.41 379.39 331.85 373.4 340.01 366.55 345.83 361.1 343.95 371.69 331.41"/><polygon class="cls-2" points="360.19 345.8 365.01 347.67 363.67 353.03 355.37 359.99 350.65 357.58 360.19 345.8"/><polygon class="cls-2" points="368.49 361.86 366.88 350.62 364.47 355.17 356.71 361.86 355.91 365.34 360.19 367.22 368.49 361.86"/><polygon class="cls-2" points="348.48 359.36 353.38 361.35 352.32 364.39 348.48 365.58 345.7 362.67 348.48 359.36"/><polygon class="cls-2" points="352.58 367.04 355.8 366.37 358.94 368.38 353.67 373.66 350.33 371.94 350.6 368.5 352.58 367.04"/><polygon class="cls-2" points="339.67 361.39 342.58 361.92 342.32 365.36 339.8 366.02 338.22 363.38 339.67 361.39"/><polygon class="cls-2" points="345.45 385.33 346.91 383.48 349.55 384.14 350.21 387.58 346.38 388.64 344.79 386.92 345.45 385.33"/><polygon class="cls-2" points="336.25 372.75 337.82 370.26 340.77 370.71 341.29 373.12 339.38 375.4 337.22 374.54 336.25 372.75"/><polygon class="cls-2" points="341.99 379.32 342.83 377.99 344.41 378.22 344.69 379.51 343.67 380.73 342.51 380.27 341.99 379.32"/><polygon class="cls-2" points="349.96 373.66 347.94 377.02 348.5 380.61 352.1 381.51 353.67 375.23 349.96 373.66"/><path class="cls-12" d="M336.5,375.56c-5.29-10.83,2.94-16.85,7.76-16.43,6.63.58,8.82-4.75,11.57-8.22,1.4-1.77,6.87-8.71,9.53-12.34,1.38-1.88,2.78-3.75,4.3-5.52a19.53,19.53,0,0,1,3.36-3.34c-2.45,2.35-4.24,5.5-6.07,8.32-2.46,3.79-5.54,7.35-8.18,11s-7,11.92-12.8,11.52C336.81,359.94,335,370,336.5,375.56Z"/><polygon class="cls-2" points="343.23 366.93 343 372 345.93 372.31 348.62 370.63 347.16 367.94 343.23 366.93"/><polygon class="cls-2" points="82.39 237.93 87.41 231.49 99.22 237.22 99.57 242.94 92.77 248.31 87.05 246.88 82.39 237.93"/><polygon class="cls-2" points="88.9 228.79 99.36 235.19 109.53 236.35 116.79 229.96 109.53 220.37 96.46 219.5 88.9 228.79"/><polygon class="cls-2" points="101.35 205.4 96.46 209.04 97.33 217.18 109.24 218.34 111.26 213.08 101.35 205.4"/><path class="cls-2" d="M112,219l6.69,9.66,11.15,2.48,3.47-5.45S116.71,217,114,214.57Z"/><polygon class="cls-2" points="130.09 233.4 119.44 231.17 112.75 238.36 116.46 246.54 127.37 249.76 137.03 243.07 130.09 233.4"/><polygon class="cls-2" points="101.59 237.86 110.02 239.1 113.24 246.78 106.8 255.71 94.9 251 102.34 245.54 101.59 237.86"/><polygon class="cls-2" points="80.78 234.64 85.24 229.19 81.77 221.01 77.06 219.77 75.82 223.24 80.78 234.64"/><polygon class="cls-2" points="83.26 219.03 86.97 226.96 94.41 217.54 93.66 209.61 85.49 208.37 83.26 219.03"/><path class="cls-2" d="M87,205.15l8.18,2.23,4.46-3.47S89.95,195.49,89.2,194l-5,1.49Z"/><polygon class="cls-2" points="73.79 220.99 75.81 218.02 81.15 218.97 84 207.93 76.17 204.01 72.01 206.5 70.7 210.42 73.79 220.99"/><polygon class="cls-2" points="75 192.71 75.69 201.75 83.53 205.55 85.19 204.49 82.62 194.92 75 192.71"/><polygon class="cls-2" points="70.94 174.4 68.98 175.87 74.15 190.71 82.1 192.73 84.24 193.8 88.4 192.97 70.94 174.4"/><polygon class="cls-2" points="68.98 205.98 71.07 204.5 74.88 203.15 72.91 192.09 67.14 176.12 64.43 177.35 62.34 176.86 68.98 205.98"/><path class="cls-2" d="M63.2,172.8l.12,2.46,1.11.49,4.67-1.47-2-2.21a6.84,6.84,0,0,0-2.33-.61C64.29,171.56,63.2,172.8,63.2,172.8Z"/><polygon class="cls-2" points="91 252.17 93.67 251.67 106.67 257.67 110.67 265.5 107.73 272.66 97.83 263.17 91 252.17"/><polygon class="cls-2" points="108 256.33 112 264.67 123.83 269.17 131.83 262.5 126.83 251.83 115.33 248.67 108 256.33"/><polygon class="cls-2" points="129.33 251.67 138.83 244.67 148.83 255.33 149.83 268 144.5 272.17 134 262 129.33 251.67"/><path class="cls-2" d="M131,232.17l7.83,10.67,10-1.33-1.5-6s-11.33-9-12.33-8.67S131,232.17,131,232.17Z"/><path class="cls-2" d="M141,244.5l8,9.33,4.67,3.5,4-6.5s-3.83-10.67-7.83-12.67l.78,5.06Z"/><path class="cls-2" d="M150.67,257.33l.83,10.33,3.17,4.67,5.5-2.33s-.83-14-1.5-15.67l-3.83,5.5Z"/><polygon class="cls-2" points="110.15 273.54 112.14 267.59 122.28 270.68 127.57 274.42 125.37 277.29 124.93 281.92 110.15 273.54"/><polygon class="cls-2" points="125.81 270.23 133.09 264.5 142.57 273.1 145.44 282.58 137.28 283.69 126.91 278.61 130.44 274.42 125.81 270.23"/><polygon class="cls-2" points="160.21 272.66 154.48 275.31 150.73 269.35 145.22 274.2 149.41 284.79 160.65 288.1 161.75 285.67 160.21 272.66"/><polygon class="cls-2" points="138.82 286.11 146.32 285.01 153.6 290.3 156.9 296.92 152.93 300.22 138.82 286.11"/><polygon class="cls-2" points="154.04 288.54 159.11 297.8 167.93 302.87 171.02 300 162.42 288.32 159.99 289.86 154.04 288.54"/><polygon class="cls-2" points="155.65 301.26 158.28 299.29 167.04 304.55 169.88 311.99 165.28 315.5 155.65 301.26"/><polygon class="cls-2" points="172.29 302.36 169.23 304.99 172.07 312.21 175.36 315.06 177.55 312.43 172.29 302.36"/><polygon class="cls-2" points="166.16 317.69 170.98 313.96 176.89 319.88 178.64 327.54 173.83 330.61 166.16 317.69"/><polygon class="cls-2" points="177.77 313.96 176.02 316.59 178.86 319.66 180.4 331.05 185.87 333.89 186.07 329.21 177.77 313.96"/><polygon class="cls-2" points="175.36 332.8 178.64 329.51 179.3 332.8 186.53 336.74 189.38 342.65 187.62 349 175.36 332.8"/><polygon class="cls-2" points="187.56 332.21 187.73 335.83 191.22 341.86 197.88 343.29 192.49 338.37 187.56 332.21"/><polygon class="cls-2" points="190.58 342.83 189.5 347.33 194.42 350.83 197.17 347.83 196.67 344.17 190.58 342.83"/><polygon class="cls-2" points="199.5 348.92 197.17 350.25 197.75 353 200.58 355.17 203.25 354.08 202 350.33 199.5 348.92"/><polygon class="cls-2" points="204.25 360.67 202.58 362.75 203.5 365.25 206.42 365.17 207.33 362.33 204.25 360.67"/><polygon class="cls-2" points="206.83 355.83 205.75 358.08 207.25 360 209.42 359.75 208.25 355.92 206.83 355.83"/><polygon class="cls-2" points="196.46 357.04 200.31 356.93 202.72 358.9 201.95 360.66 199.43 359.89 196.46 357.04"/><path class="cls-14" d="M349.88,324.48a19.44,19.44,0,0,1-10.3,5.68h0a.41.41,0,0,0-.29,0l-.32.13a26.26,26.26,0,0,0-7.95,2.76.58.58,0,0,0-.43.07c-1.18-.93-1.91-2.27-3.15-3.13a6.33,6.33,0,0,0-1.12-.6c-1.7-1-3.82-1.23-5.59-1.93-1.33-.53-2.34-1.68-3.59-2.41a13.39,13.39,0,0,0-4.27-1.53c-.63-.12-.9.84-.27,1l.13,0a.41.41,0,0,0,.24.26c2.85,1.31,5,3.48,8,4.18a35.13,35.13,0,0,1,4.12,1,7.55,7.55,0,0,1,2.27,2.16,13.92,13.92,0,0,1,2.47,3,7.32,7.32,0,0,1,.63,2.84c0,.16-.05.32-.08.48a7.64,7.64,0,0,0,0,1.51,13.21,13.21,0,0,1-1.49,4.27.51.51,0,0,0,.64.71.46.46,0,0,0,.73.07c1.4-1.47,1.11-3.06,1.1-4.94,0-.06,0-.11,0-.17,0-.36.07-.73.07-1.1.19-1.66.62-3.1.17-4.79a21,21,0,0,1,3.67-.92,3,3,0,0,0,1.84-1l2-.83c1-.24,2-.48,3-.79a18.92,18.92,0,0,0,8.5-5.35C351,324.72,350.32,324,349.88,324.48Z"/><path class="cls-14" d="M445.09,388.66l0,0c-2.53-2.48-7.71-4.65-11-5.87-1.93-.71-4-.82-5.89-1.77s-2.75-1.91-5-1.5a5.19,5.19,0,0,1-2.69-.18c-.42,0-.84,0-1.26,0a.38.38,0,0,0-.22-.24l-.12-.05h0a27.26,27.26,0,0,0-4.22-1.5,2.18,2.18,0,0,1-.4-1,.54.54,0,0,0-.17-.34c.08-.4.2-.81.29-1.19.18-.71.37-1.51.62-2.28a.49.49,0,0,0,.1-.2c0-.06,0-.11,0-.17a8.51,8.51,0,0,1,.87-1.87c1.48-2.24,3.64-1.61,5.65-2.85a29.84,29.84,0,0,1,7.05-3.47.63.63,0,0,0,.12-1.11.46.46,0,0,0-.34.14h0a22.85,22.85,0,0,0-5.51,2.32h0a2.66,2.66,0,0,0-1.58.67c-1.18.5-2.37,1.06-3.59,1.45a4,4,0,0,1-1.64-.46,7.31,7.31,0,0,0-1.06-.73,2.38,2.38,0,0,0-.27-.37,7.24,7.24,0,0,0-2.36-1.28,37.61,37.61,0,0,1-7.42-4.36.49.49,0,0,0-.08-.08,8.09,8.09,0,0,0-1.9-1,4.11,4.11,0,0,0-.5-.13,5.91,5.91,0,0,1-.75-.44,24.63,24.63,0,0,1-2.7-2.55,8.12,8.12,0,0,0-2-1.52,4.7,4.7,0,0,0-1.35-.36c-.77-.54-2.13-1.4-2.91-.67a.5.5,0,0,0-.31.6h0a.52.52,0,0,0,.07.16.49.49,0,0,0,.33.26,6.78,6.78,0,0,0,2.31.51c1.17.76,2.53,1.81,2.77,2,.81.61,1.33,1.77,2.29,2a2.65,2.65,0,0,0,1.52.88,6.93,6.93,0,0,1,.71.18,32,32,0,0,1,3.33,2.14,24.32,24.32,0,0,0,6.37,3.38c1.64.64,2.15,1.45,3.06,2.83a2.11,2.11,0,0,1,.13.25,3.24,3.24,0,0,0-.83,1.22,20.78,20.78,0,0,0-.36,2.2.5.5,0,0,0,0,.18,25.92,25.92,0,0,0-1.18,4.8,11.16,11.16,0,0,0-2.09,0l-.13,0c-1.88-.66-3.73-1.42-5.57-2.2a.51.51,0,0,0-.13-.13c-2.78-1.82-5.8-3.21-8.72-4.77a.46.46,0,0,0-.34-.5,4.09,4.09,0,0,1-1.51-1,6.33,6.33,0,0,1-1.4-.54,4.25,4.25,0,0,1-1.42-1.25c-.33-.1-.66-.21-1-.33-.51-.38-1-.75-1.57-1.1s-1.4-.84-2.12-1.22a5.73,5.73,0,0,0-1.44-.73c-1-.51-2.1-1-3.13-1.5-.58-.28-1.08.58-.5.86.84.41,1.7.81,2.56,1.22a.4.4,0,0,0,.32.25,3.43,3.43,0,0,1,.49.13c.42.2.82.42,1.23.63.84.58,1.61,1.34,2.47,1.84a7.55,7.55,0,0,0,1.35.59c.93.68,1.85,1.37,2.84,2,3.5,2.13,7.28,3.71,10.75,5.89a.44.44,0,0,0,.25.31,39.54,39.54,0,0,0,3.93,1.75.48.48,0,0,0,.09.08c5.37,3.19,12.16,3.68,18.2,4.53,3.3.47,6.57,1.95,9.66,3.15a21.7,21.7,0,0,1,4.66,2.2c1.23.86,2.23,1.93,3.53,2.71a.47.47,0,0,0,.68-.21.48.48,0,0,0,.5-.72C445.31,389,445.2,388.82,445.09,388.66Z"/></svg>