<svg id="Layer_1" data-name="Layer 1" xmlns="http://www.w3.org/2000/svg" width="600" height="589" viewBox="0 0 600 589"><defs><style>.cls-1{fill:#f59fc2;}.cls-2{fill:#ed7eab;}.cls-3{fill:#f5d3e1;}.cls-4{fill:#f5bfd5;}.cls-5{fill:#ed5191;}.cls-6{fill:#fff;}.cls-7{fill:none;stroke:#ed5191;stroke-miterlimit:10;stroke-width:2px;}</style></defs><title>premio5-2</title><path class="cls-1" d="M177.62,248.82s-15.39-22.9-63.82-38.29S64.7,221.61,71,228.17c8.63,9,76.21,27.41,79.59,39.8Z"/><path class="cls-1" d="M142.7,275.48s-29.28-25.9-94.61-30.79c-30.41-.75-22.9,21-21.4,27s6,12,20.27,14.64,72.83,17.65,76.21,21.4Z"/><path class="cls-1" d="M123.18,315.27S44,293.5,40.21,316s22.53,30,46.18,29.28,42.42-.75,42.42-.75Z"/><path class="cls-2" d="M122,232.76c-27-7.17-42.38-15.09-50.78-20.88C66.59,217.37,68,225,71,228.17c8.63,9,76.21,27.41,79.59,39.8l12.79-9.06C156.3,249.12,143.87,238.56,122,232.76Z"/><path class="cls-2" d="M134.19,289.55C118.08,278.62,65.62,266.17,43,262.39c-11-1.84-14.51-6.73-15-11.57-5.67,6.72-2.26,17-1.3,20.9,1.5,6,6,12,20.27,14.64s72.83,17.65,76.21,21.4Z"/><path class="cls-2" d="M124.42,321.71c-19.67,5.73-58.45,4.38-74.05,1.19-6.63-1.36-9.28-4.37-10-7.64-.06.25-.13.5-.17.76-3.75,22.53,22.53,30,46.18,29.28s42.42-.75,42.42-.75Z"/><path class="cls-1" d="M267.35,226.52s0-39.64,43.54-87.72c27.89-29.34,42.71-19.63,56.35-9.23s-3.07,15.73-17.37,30S301.14,210.93,305,233.67Z"/><path class="cls-1" d="M308.81,232s23.15-46.3,87.28-85.76c29.22-17.46,46.67-2.66,51.23,11.76s-6.83,22-23.53,31.12-81.21,49.33-84.62,60.72Z"/><path class="cls-1" d="M345.24,254a232.85,232.85,0,0,1,64.51-33.77c31.12-10.25,40.77-8.14,46.67,6.45,6.45,15.94,3.79,19.73-38.71,26.56-47.32,7.61-63,24.29-63,24.29Z"/><path class="cls-2" d="M354.72,277.56s15.67-16.68,63-24.29c42.5-6.83,45.16-10.63,38.71-26.56a34.76,34.76,0,0,0-1.8-3.82c-33.14,6.83-87.8,28.4-107.29,36.32Z"/><path class="cls-2" d="M410.89,139.75c17.52,15.39,19.5,23.64,4.56,30-31.65,13.34-79,49.13-100.34,65.95l24.05,14.13c3.42-11.38,67.93-51.61,84.62-60.72s28.08-16.7,23.53-31.12C443.59,146.24,431.24,134.21,410.89,139.75Z"/><path class="cls-2" d="M305,233.67c-3.9-22.74,30.54-59.78,44.84-74.08s31-19.63,17.37-30c-10.32-7.86-21.31-15.32-38.11-5.81,11.06,4.57,15.86,11.6,4.83,21.74-40.75,37.46-49.07,66.3-53,83.6Z"/><path class="cls-3" d="M175.44,381.62l-4.42,27s-31.4-3.1-31.84,19.9l43.34.44s7.08,1.33,8.85-8.85,7.52-30.52,7.52-30.52Z"/><path class="cls-1" d="M335.11,368.35l-.88,19.46s-22.11-5.31-20.34,13.71c0,0,25.21,9.29,31.4,1.33l2.65-33.17Z"/><path class="cls-1" d="M171,408.6l-.8-.06c.68,5.65-.7,8.77-12.84,11.09-8.29,1.58-12.32-.25-14.27-2.58a18,18,0,0,0-3.93,11.46l43.34.44s7.08,1.33,8.85-8.85,7.52-30.52,7.52-30.52l-23.44-8Z"/><path class="cls-3" d="M360.93,270.71c13.65,58.48-21.44,113.07-89,123.46-67.92,10.45-136.85-6.88-150.16-53.3s13-91.38,94.27-113.05C303.74,204.43,352.58,234.95,360.93,270.71Z"/><path class="cls-3" d="M357.89,294.59s25.92-28.08,116.29-10.44c73.09,14.4,92.53-33.12,95.77-40.68s3.6-10.44,6.84-8.64-.89,13.93-2.52,19.08c-4.32,13.68-4.68,34.56-39.6,54.73S488.23,356.16,413,373.08s-97.21-5-97.21-5S352.85,346.44,357.89,294.59Z"/><path class="cls-4" d="M534.67,308.63c34.92-20.16,35.28-41,39.6-54.73,1.16-3.68,3.59-10.9,3.71-15.4-4.76,16.24-22.5,52.58-87.64,70.13,0,0-4,20.79-23.88,22.11s-68.55-3.1-109.68-10.17a25.81,25.81,0,0,0-4.51-.36c-11.83,33.44-36.5,47.82-36.5,47.82s22,22,97.21,5S499.75,328.8,534.67,308.63Z"/><path class="cls-4" d="M348,246.63c-.86,27.14-4.23,87-100.48,106.69-73.17,15-111.76-13.11-129-32.77a82.32,82.32,0,0,0,3.25,20.33c13.31,46.42,82.24,63.74,150.16,53.3,67.58-10.4,102.67-65,89-123.46A54.27,54.27,0,0,0,348,246.63Z"/><path class="cls-3" d="M454.38,311.52s-2.16,1.8-.36,5,10.93,23.79,49.1,22.35c7.56-.72,8.32,2.21,8.7,10.88,1.09,25,2.83,50.49,16.68,51.12,13.43.61,41.46,3.14,31-6.22-7.2-5.4-18.72-6.12-18.72-6.12s-9.36-54-9.72-60.49-.72-7.92-19.44-13.68S469.86,296.39,454.38,311.52Z"/><path class="cls-3" d="M368,303.23s-16.2,17.64-2.52,34.56c10.08,10.08,31,15.48,32.4,14.4s1.08,4.68,6.84,8.64l-4,50s-1.44,6.12,6.12,8.28,37.44,10.08,45,5S440.34,413,440.34,413s7.56-57.25,3.6-73.45c0,0,.72-5-15.48-14.29C413.35,316.68,393.54,279.83,368,303.23Z"/><ellipse class="cls-5" cx="139.71" cy="328.28" rx="3.93" ry="1.89" transform="translate(-145.42 113.84) rotate(-30)"/><path class="cls-4" d="M519.8,341.44c.73-10.15-2.9-14.86-14.5-17.76-8.84-2.21-38.32-8-51.84-10.63a4.46,4.46,0,0,0,.57,3.51c1.8,3.24,10.93,23.79,49.1,22.35,7.56-.72,8.32,2.21,8.7,10.88,1,24,2.69,48.31,15,50.89C527.38,383.13,519.27,348.84,519.8,341.44Z"/><path class="cls-4" d="M424,376.75c3.1-21.67-4.87-41.13-27.86-50a106.28,106.28,0,0,1-31.36-19.17c-3.89,6.28-8.86,18.41.67,30.19,10.08,10.08,31,15.48,32.4,14.4s1.08,4.68,6.84,8.64l-4,50s-1.44,6.12,6.12,8.28c2.39.68,7,1.94,12.43,3.18C420.48,408.2,422.24,389.1,424,376.75Z"/><path d="M304.11,258.09c1.23,8-12.69,13.4-17.29,13.06-13.15-1-34.63-8.62-33.94-18.18.58-8.09,12.14-10.18,26-8.2C295.37,247.15,303.43,253.65,304.11,258.09Z"/><path d="M137.06,305.33c3.14,6.35,15.8,3.22,18.92.67,8.91-7.3,24-33.53,19.87-37.57-5.07-5-13-.7-21.85,7.65C143.37,286.07,135.32,301.81,137.06,305.33Z"/><ellipse class="cls-6" cx="279.45" cy="249.56" rx="4.07" ry="9.64" transform="translate(-17.29 478.29) rotate(-79.39)"/><ellipse class="cls-6" cx="156.18" cy="284.06" rx="9.64" ry="4.07" transform="translate(-163.94 233) rotate(-52.14)"/><path class="cls-4" d="M143.11,326.32s3.61-9.42,25.23-10.69,48.84,3.82,99.82-24.16c19.07-10.17,39.42-6.36,39.42-6.36S280.24,295.92,262.44,308,223,330.89,172.79,323.26C172.79,323.26,149,317.93,143.11,326.32Z"/><path class="cls-7" d="M137.41,330.32s9.73-13.27,42.9-7.08,62.36,0,100-26.54c23.88-14.6,37.15-10.17,37.15-10.17"/></svg>