<svg id="Layer_1" data-name="Layer 1" xmlns="http://www.w3.org/2000/svg" width="600" height="589" viewBox="0 0 600 589"><defs><style>.cls-1{fill:#c4ba8e;}.cls-2{fill:#d7cfad;}.cls-3{fill:#232622;}.cls-4{fill:#e4dfc8;}.cls-5{fill:#fff;}.cls-6{fill:#ddcf94;}.cls-7{fill:#ebe0aa;}.cls-8{fill:#d1c282;}.cls-9{fill:#82af75;}.cls-10{fill:#8f8767;}.cls-11{fill:#c1a865;}.cls-12{fill:#aba27c;}.cls-13{fill:#d95551;}.cls-14{fill:#a33633;}.cls-15{fill:#913431;}</style></defs><title>premio_leccion_7_3</title><path class="cls-1" d="M173.44,294.73s-6.61,3.07-26.95.16-33.25,3.55-34.87,19c-20.66,44.55-13.88,46.49,9.68,74.25s10,41.32,55.2,61S215.26,480.52,233,475c6.46-2.91-.32-10.33-22.27-47.78-19.37-25.83-1-39.38-10.33-69.08s-17.76-31-14.2-32.93,10.65-7.1,10.65-7.1Z"/><path class="cls-2" d="M121.32,388.19c23.57,27.76,10,41.32,55.2,61,36.37,15.85,39.3,26.46,48.31,27.14-10.92-14.77-26-35.16-33.79-45.52-13-17.36-15.19-56.41-23.87-81.37-7-20.17,14.09-25.14,22.43-26.31.88-.57,1.78-1.18,2.64-1.77l-8.46-10.31c-28.24,1.6-48.49-6-63.58-12.44-4.87,3.29-7.84,8.39-8.56,15.29C91,358.49,97.75,360.43,121.32,388.19Z"/><path class="cls-1" d="M190.6,319.13s-21.69,18.69-38.31,22.38c0,0,6.6,2.94,20.44-6.06,0,0,3.94,9.38-11.29,16.54,0,0,7.13.94,16.4-14.38,5.32-8.8,15.27-15.25,15.27-15.25Z"/><path class="cls-1" d="M114.29,327.48s-5.76-18.47,3.12-27.34,33.1,1,43.41-.72c0,0-7.67,5.52-22.54,1.44s-21.62-.3-21.8,6.8C116.29,315,114.29,327.48,114.29,327.48Z"/><path class="cls-3" d="M50,121.89a17.16,17.16,0,0,0-12.8-5.82A16.84,16.84,0,0,0,29.38,118c-1.82,2.41-2.92,4.9-2.52,7.27,1.25,7.53-2.93,9.2-2.51,12.55.36,2.86,2.23,3.9-.11,9.11a17,17,0,0,0,25.32.66C49.43,139.34,49.47,130,50,121.89Z"/><path class="cls-4" d="M50.28,168.78s2-1.87-.34-2.29c-10.14-1.81-28.72-11.87-27.29-15,2.49-5.4,3-8.86,2.51-10.66h0c-.15-.54-.33-1-.49-1.59q-.07-.22-.13-.45l-.06-.23a7.39,7.39,0,0,1-.14-.75c-.42-3.35,3.76-5,2.51-12.55S39.41,109,43.59,105.63s8.53,0,8.53,0,2.94-3.66-4.47-2.9c-5.25.54-21.61,10.32-22.88,21.37,0,0,.36,6.34-1.27,8.87s-2.17,5.07-1.09,7.61-4.47,5.13-1.57,13.83c2,6,23.79,15.21,29.44,14.37"/><path class="cls-5" d="M52.79,105.21s-5-2.93-9.2.42-18,12.13-16.73,19.66-2.93,9.2-2.51,12.55,1.78,4.29-1.57,12.84c-2.31,5.9,27,15.82,27,15.82S47.36,117.34,52.79,105.21Z"/><path class="cls-3" d="M43.59,105.63c-4.18,3.35-18,12.13-16.73,19.66s-2.93,9.2-2.51,12.55a19.84,19.84,0,0,0,.82,3c4.7-27.3,18.28-27.11,25.34-25,.51-4.58,1.24-8.35,2.28-10.68C52.79,105.21,47.77,102.28,43.59,105.63Z"/><path d="M25.17,140.86c0-.06-.09-.13-.06-.18-1.25,2.25-1.78,3.12-.87,6.26a17,17,0,0,0,25.32.66c-.13-8.26-.09-17.65.44-25.71a17.27,17.27,0,0,0-10.85-5.7C33.5,118.58,27.87,125.18,25.17,140.86Z"/><path class="cls-5" d="M40.89,122.58c3,.53,4.09-1.06,7.72,1.21a1.1,1.1,0,0,0,1.27,0c.15-2.8.36-5.48.63-7.92-3.31-1-5.92-1.94-10.52.55C39.47,119.13,38.94,122.23,40.89,122.58Z"/><path class="cls-2" d="M408.57,418.66s-14.09-11-28.62-.44,22.9,52.84,22.9,52.84,9.25,10.13,28.62,5.28S408.57,418.66,408.57,418.66Z"/><path class="cls-4" d="M170.59,264s-3.28,6.56,7.65,17.13c2.19,2.91-12.39.73-8.38,7.29s25.51,52.1,70.69,65.22c0,0,4.37,14.57,31.7,32.06,17.49,11.66,33.89,11.3,33.89,11.3s25.51,27,64.13,16.4c4.74-2.91,5.83,10.57,52.1,6.56s90-25.51,87.08-30.24-47.27-41.33-66.11-50.75-92-110.12-138.38-121S239,208.51,210.06,194c0,0-29-94.18-95.63-115.19-13.77-12.32-15.94-6.52-36.22,4.35S47,96.94,48.5,131.72s-2.9,50,6.52,61.58S170.59,264,170.59,264Z"/><path class="cls-6" d="M306.91,267.27c1.68,9.52-42.24,38.36-82.56,38.92-23.48.33-41.2-10.8-54.49-17.82,8.4,14.71,33.15,54.32,70.69,65.22,0,0,4.37,14.57,31.7,32.06,17.49,11.66,33.89,11.3,33.89,11.3s25.51,27,64.13,16.4c4.74-2.91,5.83,10.57,52.1,6.56,7.69-.67,27.94-1.52,37.84-8.72,6.65-4.84,12.18-19.46,42.31-16.72-23.77-2.16-57.23-21-89.68-49.7C352.33,291.27,305.94,261.78,306.91,267.27Z"/><path class="cls-7" d="M210.06,194s11.59-31.88,44.92-15.21c0,0,25.77-3,39.31,14.35,0,0,26.39-6.6,65.62,28.82,0,0,29.65,3.88,55.9,39.58,26,35.42,29.17,33.33,28.12,43.75,0,0,10.42-10.07,27.78,29.17,0,0,4.28-6.61,12.63,6.4,6.63,9.33,34.62,36.1,39.29,43s.74,10.8-18.66,4.17S454.87,364,447.75,346.77c0,0-8.1,1.72-17.68-12s-19.64-17.92-28.73-22.59-33.39-25.29-33.64-29.47c0,0-5.5,6.61-46.07-25.63s-44.19-33.33-50.35-44.92c-25.72,2.54-37.67-6.52-42-8.33C221.9,200.74,210.78,201.63,210.06,194Z"/><path class="cls-8" d="M367.23,306.64c-36.64-28.82-61-43.37-60.32-39.37,1.68,9.52-42.24,38.36-82.56,38.92-23.48.33-41.2-10.8-54.49-17.82,8.4,14.71,33.15,54.32,70.69,65.22,0,0,4.37,14.57,31.7,32.06,17.49,11.66,33.89,11.3,33.89,11.3s25.51,27,64.13,16.4c3.24-2,4.78,3.68,20.22,6.18C385.83,411.08,359.45,360.12,367.23,306.64Z"/><path class="cls-9" d="M170.59,264s10,15.45,25.19,5.84c0,0,3.73-1.87-4-.53S180.08,270.12,170.59,264Z"/><path class="cls-10" d="M62.09,184.58a8.3,8.3,0,0,1-1.67-4.74,16.08,16.08,0,0,1,.62-5.07A27.28,27.28,0,0,1,62.94,170a25.84,25.84,0,0,0,1.89-4.62A85.46,85.46,0,0,0,67,155.57c.6-3.32,1.16-6.66,1.92-10a37.11,37.11,0,0,1,3.39-9.75,14.33,14.33,0,0,1,3.35-4.18,9.79,9.79,0,0,1,5-2.18,67.44,67.44,0,0,0,9.82-1.8,26.69,26.69,0,0,0,4.57-1.73,48.54,48.54,0,0,0,4.31-2.46c1.44-.88,2.85-1.78,4.38-2.63a14.06,14.06,0,0,1,5.08-1.82,9.07,9.07,0,0,1,5.44,1.07,18.81,18.81,0,0,1,4.2,3.25c1.24,1.22,2.35,2.52,3.46,3.82.54.65,1.09,1.33,1.62,1.94s1.08,1.24,1.67,1.82a44.24,44.24,0,0,0,7.75,6.19A65,65,0,0,0,151.42,145a20.36,20.36,0,0,1,4.79,1.95,17.23,17.23,0,0,1,4,3.2,15.66,15.66,0,0,1,2.81,4.27,14.15,14.15,0,0,1,.8,2.42,7.43,7.43,0,0,1,.21,2.52,7.36,7.36,0,0,0-.36-2.49,13.93,13.93,0,0,0-.93-2.33,15.36,15.36,0,0,0-2.92-4,17.48,17.48,0,0,0-8.66-4.56,65.84,65.84,0,0,1-19-7.47,40.77,40.77,0,0,1-8.16-6.28c-.62-.6-1.21-1.24-1.77-1.9s-1.1-1.29-1.65-1.93c-1.1-1.26-2.19-2.53-3.38-3.66a17.06,17.06,0,0,0-3.8-2.9,7.15,7.15,0,0,0-4.33-.83c-3,.41-5.75,2.53-8.66,4.26A50.38,50.38,0,0,1,96,127.7a28.64,28.64,0,0,1-4.91,1.81,69.14,69.14,0,0,1-10.11,1.76A8,8,0,0,0,76.8,133a12.61,12.61,0,0,0-3,3.65A39.57,39.57,0,0,0,70.42,146c-.84,3.24-1.48,6.55-2.17,9.86a83.21,83.21,0,0,1-2.5,9.88,23.9,23.9,0,0,1-1,2.39c-.34.79-.81,1.55-1.19,2.27a26.64,26.64,0,0,0-2.05,4.56,15.81,15.81,0,0,0-.82,4.91A8.15,8.15,0,0,0,62.09,184.58Z"/><path class="cls-2" d="M275,283c5.18,1.15,2.11-26.87,2.11-26.87s-11.32-16.89-29.67-22.7c-13-9.18-8.12-19.45-13.43-6.89s-8.3,13.17-11.2,14.62-21.25-15-22.7-29.46-54.58-49.75-83.56-64.24-37.19,23.18-43,42c-2.26,7.36-7.7,9-13.48,8.35C83.6,215.55,170.59,264,170.59,264s-3.28,6.56,7.65,17.13c1.46,1.94,16.57,15.61,51.32,13.76C251.25,293.7,265.09,280.74,275,283Z"/><path class="cls-11" d="M307.38,397.51s21.88,38.47,122.55,7.64c0,0-47.15,14-79.1,8.77S307.38,397.51,307.38,397.51Z"/><path class="cls-2" d="M128.5,113.59s2.09,13.27,14,15.8,17.14-1.94,24-13.56l-2.24-3.28s-6.09,14-18.76,12.48A21.4,21.4,0,0,1,128.5,113.59Z"/><path class="cls-3" d="M125.79,103.78c-2.08-4.46-7.75-15.72,2.71-24.5s18.82-18.4,31-2.93,5.44,11.71,5,24.26-13.87,20.32-24.74,17S128.32,109.22,125.79,103.78Z"/><path class="cls-5" d="M128.5,79.28c-5.8,4.87-6.45,10.25-5.88,14.08,5.61-12.41,16.24-18.42,23-17,8.51,1.77,14.09,6.93,20.56,15.34,1.06-3.43,1-5.49-6.75-15.34C147.32,60.88,139,70.5,128.5,79.28Z"/><path d="M164.46,100.61A26.75,26.75,0,0,1,166,92.28a19.73,19.73,0,1,0-32.51,21,24,24,0,0,0,6.71,3.2C151.08,119.85,164,113.16,164.46,100.61Z"/><path class="cls-5" d="M157.43,91.49c2.7-2.14-4-7-6.81-4.93-2.17,1.59-4.35,2.21-4.35,5.65a6.23,6.23,0,0,0,6.23,6.23C155.95,98.44,153.23,94.82,157.43,91.49Z"/><path class="cls-12" d="M95.87,94.6c-.35.47-6.06-1.05-6.06-1.05s-2.73-5.4-2-6c.45-.38,3,.52,4.91,1.88S96.27,94.07,95.87,94.6Z"/><path class="cls-12" d="M70.94,107.68c.59,0,3.09-5.31,3.09-5.31s-2.37-5.56-3.27-5.4c-.58.1-1.52,2.61-1.72,5S70.27,107.64,70.94,107.68Z"/><path class="cls-10" d="M203.81,190.53s.69,1.84,1.74,4.34c1.72,4.1,4.2,9.32,5.75,12.18,3.37,6.18,7.92,22,3.43,28.77,0,0,8-9-1.61-32.11Z"/><path class="cls-10" d="M226,239.34s2.89-14.45-12.85-35.65l-9.31-13.17s15.92,7.33,21.36,29.63C229.38,237.45,226,239.34,226,239.34Z"/><path class="cls-10" d="M161.39,109.67C192.08,140,210.06,194,210.06,194l2.19,5.54-8.44-9a438.13,438.13,0,0,0-18.14-45.43C178,128.56,161.39,109.67,161.39,109.67Z"/><path class="cls-11" d="M240.55,353.6S266,405.42,335,398.46c0,0-33.18,2.41-60.48-15S240.55,353.6,240.55,353.6Z"/><path class="cls-11" d="M169,286.72s39.19,79.39,141.38,74.79c0,0-56.39,9-97.59-21.4C181.43,317,169,286.72,169,286.72Z"/><path class="cls-4" d="M439.9,501.57s12.07,11.11,4.83,15.94-8.69,3.86-24.63-7.24c-10-7-23.27-18.16-31.74-25.5a53.21,53.21,0,0,1-13-16.91c-17.67-36.26-80.44-164-95.33-179.28-8.69-14-1.45-31.88-1.45-31.88s-10.14-10.63,0-16.42,25.12-2.41,37.19,12.07S340.89,275,342.34,291s9.18,58.44,33.81,112.05C412.37,471.62,410.44,472.59,439.9,501.57Z"/><path class="cls-2" d="M357.85,389.63c-11.59-50.71-62.31-97.81-68.83-102.15s-9.18,1-9.18,1c14.9,15.31,77.66,143,95.33,179.28a53.2,53.2,0,0,0,13,16.91c8.47,7.34,21.73,18.52,31.74,25.5,10.5,7.32,14.72,10.24,18.44,10C422.95,505.25,368.31,435.37,357.85,389.63Z"/><path class="cls-2" d="M281.82,291a34.23,34.23,0,0,1-8.45-22.56c.13-9.66,6.29-17.1,15-20.59-3,2.41-5.85,4.77-8.06,7.93a23.49,23.49,0,0,0-4.08,12.86C276,276.32,278.62,284.18,281.82,291Z"/><path class="cls-2" d="M283.52,237.83a12.48,12.48,0,0,0-7.79,9.86c-.68,4.51.53,8.91.86,13.38-2.78-4.16-4.45-9.25-3.64-14.27S278.2,237.2,283.52,237.83Z"/><path class="cls-2" d="M302.25,251.35a97.71,97.71,0,0,1,24.82,12.27c4.73,3.21,9.52,7,12.69,11.82S343,286.37,343.42,292c.33,4.14.58,8.3.55,12.46-.62-3.21-1.21-6.44-1.78-9.66-.48-2.69-1-5.39-1.44-8.08s-.81-5.56-2.18-8c-2.74-4.89-7.45-8.65-11.87-11.94s-9.33-6.42-14.16-9.36Q307.44,254.3,302.25,251.35Z"/><path class="cls-2" d="M289.76,237.48c6.66.11,13.29,2.68,18.93,6.05,6.38,3.82,13,11,14.24,18.33,0,0-4.22-1.6-4.52-2.62-1-3.42-6.72-11.06-9.61-13.11C301.82,241.17,295.88,240,289.76,237.48Z"/><path class="cls-2" d="M176.48,291.89s-10.44-3.51-6.78-7.57c1.79-2,11-4,15.54-1.2,3.16,1.92,8.89,4.73,6.58,6.34-2.8,2-12.84-5.91-15.15-3.35C173.37,289.78,176.48,291.89,176.48,291.89Z"/><path class="cls-4" d="M509.65,397.89S478.91,385,460.21,411.19c0,0,24.51,62.32,63.56,65.64,39.05,4.57,73.95,7.89,54.84-9.14s-34.48-12.88-54-51.1C517.54,404.13,509.65,397.89,509.65,397.89Z"/><path class="cls-2" d="M581.25,478.79c-38.29-7.15-69.08-61-84.25-75.85-8.37-8.22-19-5.79-28.09-.75a40.87,40.87,0,0,0-8.69,9s24.51,62.32,63.56,65.64C549.46,479.83,573.34,482.3,581.25,478.79Z"/><path class="cls-4" d="M123.19,85.1s17.26-19.61,25.53-16.29c7.2,2.89,17.39,14.64,17.39,20.29s-1.52,4-1.67,12c-.1,5.65-4.13,10.86-4.13,10.86s5.05-6.08,5.78-10.66,3.62-10.87,2.17-14.25-12-22.7-21.86-22.22c-7.11.35-20.68,11.15-25.12,16.66C119.54,83.66,122.61,84.54,123.19,85.1Z"/><path class="cls-13" d="M459.61,350.23a5.36,5.36,0,0,0,.65,7.51c9.64,8.17,35.39,28.24,57,29.41,0,0,6.26,1.47,6.26-5.89s-29.09-45.39-45.26-46.36C473.29,334.6,464.39,344.44,459.61,350.23Z"/><path class="cls-14" d="M467.9,362.23a133.24,133.24,0,0,0,31.32,20.11c17.8,7.91,17.15-3.63,17.15-5.61s-8.21-10.72-10.85-17.32S479.61,337,476,341.9s-11.71,1.87-13.36,8.46S467.9,362.23,467.9,362.23Z"/><path class="cls-15" d="M471.53,361.9S462,352.34,466.25,351s9.56-6.59,15.5-4.95,14.84,16.82,24.73,23.74,2.31,14.51-2.64,14.51S470.54,367.83,471.53,361.9Z"/><path class="cls-13" d="M392.28,264.75c-1.77.69-2.76,5.25-2.6,7.14.51,5.78,8.79,15.14,12.66,19.47,4.83,5.42,22.39,18.5,22.39,18.5s20.12-4.54,15.58-9.41-24-26.29-33.75-30.18S395.85,263.36,392.28,264.75Z"/><path class="cls-14" d="M423.86,304.9s-29.06-26.33-29.06-29.68v-6.57s7.06.42,12.37,3.78,30.17,25.43,29.34,28.22S425.46,308.32,423.86,304.9Z"/><path class="cls-15" d="M402.15,277.45a24,24,0,0,0,7.54,14.25c6.71,5.87,15.09,19.28,22.63,12.85s-.56-5.87-7.26-12.85S406.34,272.42,402.15,277.45Z"/><path class="cls-13" d="M412.19,317.91c4.35,0,12-5,9.23-6.65s-33.25-30.17-34.09-33.53S384,265.44,377,264.6s-16.21,2-14.25,8.1A41.34,41.34,0,0,0,375,290.58C380.91,295.61,406.44,317.91,412.19,317.91Z"/><path class="cls-14" d="M374.49,269.91s-7.26-2.79-7.26,3.07,5.59,7,7.54,12.57,31,28.5,35.76,27.38,7.26-1.68,3.35-5.31-26.82-24-28.78-28.22S381.75,266.83,374.49,269.91Z"/><path class="cls-15" d="M375.59,272.46s-6-2.64-5.41,1.11,6,7.63,6,9.85,27.2,31.36,32.33,30,9.3-1.67,6.8-4.16-21.93-14.71-26.92-23.73S381.7,277,381,273.15,375.59,272.46,375.59,272.46Z"/><path class="cls-13" d="M363.81,221.08a2.66,2.66,0,0,0-3,4c7.33,10.81,29.34,34.62,31.62,35.13,10.92,2.47,39.11,24.31,50,40.16,0,0,5.64.17,4.2-4.16C445.26,292.16,403.91,233.17,363.81,221.08Z"/><path class="cls-14" d="M361.31,226.21S387.92,259.13,392,260.4s21,8.35,36.29,24.53,13.65,13,14,10.45-23-32.34-32.86-40.61c-3.47-2.92-37.58-30.16-41.12-30.16A19.12,19.12,0,0,0,361.31,226.21Z"/><path class="cls-15" d="M392,260.4S361.57,229,362.41,227.45s4.73-1.85,10.13,2.37,29.44,18.9,33.66,24.46,27.63,28.81,28.64,33-9.55-4.4-15.45-9.79S392,260.4,392,260.4Z"/><path class="cls-13" d="M329.6,225.17c-.88,5-1,8,13,17.39,13,8.69,11.35,17.24,18.84,18.84,6.6,1.41,25.92.85,25.67-.9s-33.37-30.63-34.36-41.12S330.78,218.4,329.6,225.17Z"/><path class="cls-14" d="M336.93,218.53s-8.78,5.2-4.43,13.89c1.4,2.8,13.43,6.34,16.93,13.09s12,14.24,17.49,14.24,15.24-.5,11.49-4.5-25.49-28.23-27.07-33C348.44,213.58,336.93,218.53,336.93,218.53Z"/><path class="cls-15" d="M336.63,222.17s-4.69,4.89-2.93,8.8,11.53,6.26,13.88,11.14,13.29,16.81,16.62,16.81,13.94.93,14.08-1.37-32.45-32.65-31.67-36.36S336.63,222.17,336.63,222.17Z"/><path class="cls-13" d="M349.86,274.1s13.46-5.91,9.44-9.14c-9.42-7.58-28.67-27-36.73-35.17a.89.89,0,0,0-1.45,1c3,6.74,7.4,18.8,3.66,23.58C324.78,254.34,344.84,274.4,349.86,274.1Z"/><path class="cls-14" d="M329,254.77c2.2,5.58,12.44,15.16,17.88,16s11.16-3.29,9.58-5.29S328,237.75,325.7,234.6s-1.57-.72.57,5.15S327.6,251.22,329,254.77Z"/><path class="cls-15" d="M329.28,238.32s-.43,2.57-.86,6.44,3,14.3,8.87,16.45,8.87,7.15,13.3,3.15l1.57-2.72Z"/><path class="cls-13" d="M294.29,193.16s10,23.48,20.58,25.5,34.08-5.83,32.06-7.85S323.83,188.39,294.29,193.16Z"/><path class="cls-14" d="M298.72,195.79s11.88,22.65,18.83,19.06,14.8-5.38,20.63-4.48-6.28-11-16.37-11.21S309,193.55,298.72,195.79Z"/><path class="cls-15" d="M301.41,198.93s6.73,15.25,14.35,15.92,9.87-4.48,19.28-4.48c0,0-5.83-7.62-13-7.4s-11.66-6.73-16.14-5.38Z"/><path class="cls-13" d="M239.34,204.78a3.49,3.49,0,0,0,3.4,3.5l16.64.44a8,8,0,0,0,7.79-2.37c4.92-5.3,15.22-14.19,25.52-9.17,0,0,.77-8.09-6.16-12.32C279.8,180.74,239.66,165.43,239.34,204.78Z"/><path class="cls-14" d="M256.19,182.47s-14.31,2.68-14.76,22.81c0,0,21.48,2.21,23-.39,4.87-8.52,13-13.13,21-12a1.78,1.78,0,0,0,1.65-2.9,23.61,23.61,0,0,0-15.45-8.24C260.08,180.42,256.19,182.47,256.19,182.47Z"/><path class="cls-13" d="M298.45,207.06s-10.14-13-20.29-5.8c-10.87,7.76,2,23.55,9,27.71s31.59,14.31,33,20.1,7.24-4.35-1.45-17.39A186.47,186.47,0,0,0,298.45,207.06Z"/><path class="cls-14" d="M287.58,229.52c-7-4.1-18.77-22.86-4.35-24.63,13-1.6,13,13,20.29,17.39C318,231,325.61,252.33,320,248,309.31,239.66,289.26,230.5,287.58,229.52Z"/><path class="cls-15" d="M287.58,229.52s-15.94-13-5.8-18.84,13,13,18.84,15.94S315.11,236.77,318,244C320.23,249.56,287.58,229.52,287.58,229.52Z"/><path class="cls-13" d="M254.25,177.36s-32.19-16.2-43.16,14.27c-3.21,8.92,12.73,6,17.08,8.92s8.05,5.76,8.69,0C238.31,187.5,244.11,180.26,254.25,177.36Z"/><path class="cls-14" d="M214.11,188.94s-4.5,8.06,3.36,8.95c10.71,1.21,11.24,2.95,14.76,4.7,4.64,2.3,1.68-7.76,7.54-16.53s13-8.69,2.08-11.2C232.58,172.73,220.33,174.44,214.11,188.94Z"/><path class="cls-15" d="M226.75,199.68s-18.12.53-13.42-8.72,14.16-15.76,25-13.6c7.24,1.45,0,10.14-1.45,14.49S235.48,207.51,226.75,199.68Z"/><path class="cls-15" d="M241.21,204.89s22.39,3.87,24.24-1,6.81-9.49,12-12.08c5.8-2.9-3.41-7.39-15.94-5.8S244.11,189,241.21,204.89Z"/><path class="cls-13" d="M439.72,309.21c.89-3,6.28-9.66,11.83-4.11s25.84,24.39,17.15,31.64-26.08-15.94-27.53-18.84S439.1,311.33,439.72,309.21Z"/><path class="cls-13" d="M419.44,323.7s-2.9-2.9,4.35-7.24,11.59-2.9,14.49,2.9c2,4.1,18.84,15.94,20.29,21.73s-7.45,6.31-12.56,6C441.73,346.9,424.08,335.74,419.44,323.7Z"/><path class="cls-14" d="M429.58,336.5s-15.46-11.83-5.55-15.94,11.35.24,12.8,3.14,20.29,11.59,18.84,17.39S445.52,348.34,439,344A56.46,56.46,0,0,1,429.58,336.5Z"/><path class="cls-15" d="M431,338.19s10.14,9.18,16.66,6-10.87-10.38-12.32-14.73-8.69-8.69-11.59-3.62S431,338.19,431,338.19Z"/><path class="cls-14" d="M448.42,324.91s-11.59-12.8-4.35-17.15,8.69,1.45,13,5.8S473,329.5,468.7,333.85,457.11,333.36,448.42,324.91Z"/><path class="cls-15" d="M445.28,308c-.87.87-2.66,8.45,4.59,15.7s15.94,13,17.39,8.69-8.69-11.59-13-17.39S447.93,305.35,445.28,308Z"/><path class="cls-2" d="M48.86,174.28s8.33-17.21,5.43-24.45c0,0-1.09,14.85-5.61,18.29Z"/><path class="cls-2" d="M279.61,287.3l5.07-13.58s12-.72,11.59.36,6.52,9.06,6.52,9.06L293,291.83Z"/><polygon class="cls-2" points="296.27 294.36 305.33 284.94 316.56 283.13 324.17 294 317.28 301.61 302.43 303.42 296.27 294.36"/><polygon class="cls-2" points="297.36 270.09 304.97 281.32 316.2 280.6 324.89 271.9 314.02 261.76 303.16 262.49 297.36 270.09"/><polygon class="cls-2" points="319.46 280.96 325.62 291.83 342.19 294.78 338.65 277.34 331.77 269.73 319.46 280.96"/><polygon class="cls-2" points="307.32 305.68 318.55 303.87 323.08 310.3 324.89 316.1 319.09 318.63 307.32 305.68"/><polygon class="cls-2" points="327.06 294.73 321.27 302.33 326.34 308.85 327.43 315.37 338.2 313.65 343.73 305.95 342.64 298.71 327.06 294.73"/><polygon class="cls-2" points="321.63 321.17 335.94 317.18 342.28 325.88 338.11 332.4 325.62 330.95 321.63 321.17"/><polygon class="cls-2" points="345.18 311.75 338.56 315.92 344.45 324.43 348.8 326.96 345.18 311.75"/><polygon class="cls-2" points="344.18 329.95 339.29 336.02 341.28 350.33 352.96 341.18 350.61 333.49 344.18 329.95"/><polygon class="cls-2" points="354.59 368.08 350.25 375.69 353.14 382.93 360.03 383.29 364.01 374.78 361.84 369.71 354.59 368.08"/><polygon class="cls-2" points="364.92 377.5 362.02 385.65 365.64 395.07 372.71 395.79 364.92 377.5"/><polygon class="cls-2" points="343 354.5 352.33 345.62 355.86 350.87 358.22 358.21 352.33 361.47 346.17 359.3 343 354.5"/><polygon class="cls-2" points="330.14 334.39 336.12 335.84 338.11 345.8 330.14 334.39"/><polygon class="cls-2" points="346.26 360.83 351.88 363.37 353.51 367.72 350.61 371.7 346.26 360.83"/><polygon class="cls-2" points="358.58 359.75 353.33 363.19 354.77 366.63 361.66 368.44 358.58 359.75"/><polygon class="cls-2" points="356.4 384.92 360.39 385.47 363.29 395.25 360.57 401.04 356.4 384.92"/><polygon class="cls-2" points="360.39 403.04 364.74 396.88 372.89 397.24 376.33 404.67 372.71 409.74 364.38 411.37 360.39 403.04"/><polygon class="cls-2" points="365.46 412.45 371.44 412.09 374.34 418.79 371.08 425.13 365.46 412.45"/><polygon class="cls-2" points="377.78 406.12 373.07 412.27 375.6 418.43 384.66 419.34 377.78 406.12"/><polygon class="cls-2" points="372.1 426.16 375.6 420.06 380.74 420.67 382.55 426.94 379.83 429.66 374.03 430.02 372.1 426.16"/><polygon class="cls-2" points="385.57 421.06 382.19 420.73 384.66 427.03 386.83 427.94 389.19 427.94 385.57 421.06"/><polygon class="cls-2" points="375.06 432.2 380.86 431.65 388.28 437.81 388.34 442.46 380.07 441.13 375.06 432.2"/><polygon class="cls-2" points="384.48 429.12 383.39 430.93 388.95 436 393.63 436.45 390.09 429.84 386.65 429.12 384.48 429.12"/><polygon class="cls-2" points="380.92 442.34 388.34 443.61 388.34 451.21 386.08 451.58 380.92 442.34"/><polygon class="cls-2" points="390.09 437.99 390.21 451.33 396.89 454.56 402.5 451.39 397.43 437.45 390.09 437.99"/><polygon class="cls-2" points="386.38 453.02 388.95 452.54 396.01 455.92 397.34 460.93 396.13 463.11 393.08 463.08 386.38 453.02"/><polygon class="cls-2" points="402.89 453.27 398.12 455.92 398.97 460.33 403.44 462.44 406.03 459.82 402.89 453.27"/><polygon class="cls-2" points="394.08 464.35 396.55 464.62 399.33 468.9 398.43 470.87 394.08 464.35"/><polygon class="cls-2" points="398.7 462.56 397.88 464.07 400.51 467.79 403.68 467.15 403.13 464.56 398.7 462.56"/><polygon class="cls-2" points="407.03 460.36 404.49 464.35 405.25 469.02 408.3 471.77 413.19 470.5 410.02 464.62 407.03 460.36"/><polygon class="cls-2" points="399.69 472.1 400.66 469.21 403.98 468.6 404.13 469.51 407.39 472.5 406.67 475.76 402.41 476.21 399.69 472.1"/><polygon class="cls-2" points="409.05 473.55 408.39 476.45 410.8 480.38 415.45 479.89 417.08 476.93 413.76 472.1 409.05 473.55"/><polygon class="cls-2" points="403.41 477.39 406.67 476.84 410.29 482.1 409.29 485.63 403.41 477.39"/><polygon class="cls-2" points="411.71 482.49 411.16 484.9 413.28 487.92 416.39 487.23 417.26 483.76 415.15 481.82 411.71 482.49"/><polygon class="cls-2" points="417.71 477.66 416.42 480.68 418.65 483.03 421.13 482.97 421.07 481.82 417.71 477.66"/><polygon class="cls-2" points="418.65 484.54 417.5 487.98 419.62 490.15 422.39 489.73 423.3 486.89 421.49 484.66 418.65 484.54"/><polygon class="cls-2" points="285.29 260.43 287.1 269.25 294.82 269.49 298.81 262.24 293.74 257.05 285.29 260.43"/><path class="cls-2" d="M295.19,250.17l-.69,3a2,2,0,0,0,1.25,2.33l2.22.83,1.67-1.67a2.31,2.31,0,0,0,.64-2.06l-.5-2.67Z"/><path class="cls-2" d="M295.07,242.56s-1.21,1.33-.85,1.81,1.45,1.09,1.93.72,1.81-.85,1.57-1.33-1.21-1.45-1.57-1.45A5,5,0,0,0,295.07,242.56Z"/><path class="cls-4" d="M277,264.18l2.29-1.21,1.87,1.2a1.23,1.23,0,0,1,.3,1.8l-1,1.23h-2.9Z"/><path class="cls-2" d="M285.17,254.4l-.28,1.9a.94.94,0,0,0,1.21,1l2-.61,1.69-2-2-1.55Z"/><polygon class="cls-2" points="305.51 253.07 303.7 255.78 305.69 257.96 308.77 256.87 309.13 253.97 305.51 253.07"/><path class="cls-2" d="M305.51,243.29l-3.08,1.09.18,2.72,3.62.36s1.45-1.45,1.27-2.54S305.51,243.29,305.51,243.29Z"/><path class="cls-2" d="M278.16,265c.54,0,2.72.91,2.72,1.63s-1.45,3.08-2,3.08-2.35-2-2.35-2l-.18-2.9Z"/><polygon class="cls-2" points="276.17 272.45 281.06 273.35 278.34 284.76 276.17 272.45"/><path class="cls-2" d="M282.51,243.92s-.36,2,0,2.08a6.92,6.92,0,0,0,1.9-.54s.63-1.54.36-1.81a6.86,6.86,0,0,0-1.36-.72Z"/><polygon class="cls-2" points="288.94 240.66 287.94 242.47 289.21 243.56 290.93 242.83 291.29 241.02 288.94 240.66"/><path class="cls-10" d="M178.82,282.41a99.57,99.57,0,0,1-7.44-9.84,17,17,0,0,1-2.47-5.18,3,3,0,0,1,.19-2,2.39,2.39,0,0,1,1.93-1.18,8.46,8.46,0,0,1,3.1.5,106.68,106.68,0,0,1,10.27,3.53,24,24,0,0,0,4.86,1.53,13.49,13.49,0,0,0,5.16-.21l.12.26a9.53,9.53,0,0,1-5.38,2,17.19,17.19,0,0,1-5.71-.82c-3.6-1-6.73-2.8-10.09-4.08a6.91,6.91,0,0,0-2.19-.59.91.91,0,0,0-.34.05c-.07,0-.11.36-.07.7a15.89,15.89,0,0,0,1.86,4.73C174.29,275,179,281,182.44,283Z"/><path class="cls-10" d="M173.2,294.82a27.14,27.14,0,0,1-2.7-3.43,12.33,12.33,0,0,1-1.87-4.08,4.65,4.65,0,0,1,.15-2.44,4.24,4.24,0,0,1,1.52-2,8.64,8.64,0,0,1,4.48-1.31,27.73,27.73,0,0,1,8.74,1.28,80.24,80.24,0,0,1,8.06,3.34c-1.42-.32-2.8-.73-4.2-1.1s-2.75-.87-4.14-1.15a34.23,34.23,0,0,0-8.39-.93,7.53,7.53,0,0,0-3.76,1A2.92,2.92,0,0,0,170,285.3a3.84,3.84,0,0,0-.23,1.82,13.41,13.41,0,0,0,1.37,3.91A42.88,42.88,0,0,0,173.2,294.82Z"/><path class="cls-5" d="M524.49,385.58a.73.73,0,0,0-1.14-.15L520.44,389l-2.54-.27a.64.64,0,0,0-.35.06l-6.37-1.07a3.86,3.86,0,0,0-2.63-.63.69.69,0,0,0-.43.18c-.84-.28-1.65-.55-2.4-.76-3.75-1.05-7.14-1.84-10.36-4.06a34.06,34.06,0,0,0-6.6-3.29q-9.25-5.62-18.19-11.72a36,36,0,0,0-7.5-6.06l-1.11-.65a6.8,6.8,0,0,0-1.55-2c-.88-.75-1.78-1.48-2.68-2.22-1.67-2.06-2.1-4-.14-6.26.86-1,1.83-1.88,2.66-2.91,1.89-1,2.83-3,4.19-4.7,1.94-.43,3.3-2,4.65-3.44l0,0,3-2.13a.69.69,0,0,0,.28-.44c.76-.38,2.1-1.08,2.43-2,.58-.16.9-1,.22-1.28a2.47,2.47,0,0,0-2.65.36.59.59,0,0,0-.62.21c-2.23,2.62-4.7,5.4-8,6-1,0-2.06,0-3.09,0a.69.69,0,0,0-.69.61.66.66,0,0,0-.08.35c.08,1.53.34,2.82-.9,4-.7.67-1.61,1.1-2.35,1.73a6.68,6.68,0,0,0-1.75,2.18h0a.58.58,0,0,0-.46.35l-.07.17h0a4.33,4.33,0,0,0-.24,3.42,9.91,9.91,0,0,0,4.8,8,.64.64,0,0,0,.19.41,58.08,58.08,0,0,0,12,8.86.67.67,0,0,0,.4.08,28.41,28.41,0,0,0,4,3l4.11,2.91a21.56,21.56,0,0,0,3.73,2.42q1.11.71,2.28,1.33a51.57,51.57,0,0,0,5,2.13c1.69,1,3.39,2,5.09,3a.72.72,0,0,0,.16.35c2,2.29,6.2,2.84,9,3.52,1.18.29,4.1,1.21,5.65.61a23.65,23.65,0,0,0,4.81,1.11,25.16,25.16,0,0,0,3.88.81,8,8,0,0,0,4.84-1.71A3.3,3.3,0,0,0,524.49,385.58Z"/><path class="cls-5" d="M443.07,301.26c-1.67,1.77-3.42,3.45-5.2,5.09-2.66,1.54-5.74,2.53-8.52,3.89l-.62.31a15.1,15.1,0,0,0-4.8,1.78l-.17.16a7.18,7.18,0,0,0-.63.65,18.11,18.11,0,0,1-1.58,1.94,12.59,12.59,0,0,1-4.61,2.84,4.48,4.48,0,0,1-1.75.31,1.32,1.32,0,0,0-.33.48.76.76,0,0,0,.11.88,8.86,8.86,0,0,0,2.31,1.51.73.73,0,0,0,1.06-.82,3.88,3.88,0,0,0-.15-.45.7.7,0,0,0,.12-.09,28.12,28.12,0,0,1,3.44-3.19q.72-.51,1.42-1.06,1-.73,2.12-1.4l0,0c1.57-.72,5.28-2.43,8.12-2.57a.73.73,0,0,0,.29.18c.92.3,1.45,1.48,2,2.17s1.36,1.33,2,2.05c.15.17.26.37.4.55l.45.86a7.13,7.13,0,0,1,1,1.35,17.43,17.43,0,0,1,.79,1.79l.13.24c.29.32.58.63.85,1a7.37,7.37,0,0,1,.89,1.1.63.63,0,0,0,.37-.81c-.1-.24-.21-.48-.31-.72s-.2-.25-.27-.39a36.68,36.68,0,0,1-2.05-4.7,4,4,0,0,1-.19-.51l-.52-1.23a8.74,8.74,0,0,1-.3-.9c-.07-.25-.08-.5-.12-.74a7.73,7.73,0,0,1-.36-2.39c0-1.37.81-2.29,1.45-3.46a.69.69,0,0,0,0-.13l.11-.08a10.66,10.66,0,0,1,3.37-3.28,13.77,13.77,0,0,0,.8-1.28C444.59,301.43,443.65,300.65,443.07,301.26Z"/><path class="cls-5" d="M299.4,205.25l-2.55-3.45a.67.67,0,0,0,.06-.77c-3.26-5.81-12.73-6.12-18.27-3.79a19.27,19.27,0,0,0-8,6.58,5.77,5.77,0,0,0-.52,1.13c-1.44,1.75-5.11,5.38-3.37,7.54,1.19,1.47,2.88.45,3.63-.87s.62-3.16.87-4.74A15.25,15.25,0,0,1,277.1,201a16.7,16.7,0,0,1,17.54.58c.12.18.27.33.38.53a.7.7,0,0,0,.48.33l2.64,3.59C298.69,206.73,300,206,299.4,205.25Z"/><path class="cls-5" d="M392.93,280.31c-.56-.67-1.32-1.16-1.92-1.78-.11-.36-.24-.71-.35-1.06a6,6,0,0,1-2.56-5.65,14.33,14.33,0,0,1,.28-1.92h0c0-.07,0-.13.07-.2a11.45,11.45,0,0,1,2-4.36,7.58,7.58,0,0,1-1.18-1.61,6.63,6.63,0,0,1-2.63-.16l-.06,0-.31,0a7.54,7.54,0,0,1-2.77-.25,7.74,7.74,0,0,1-1.4-.58,88.54,88.54,0,0,1-9.62.3,7.17,7.17,0,0,1-1.8-.26l-.24,0a14.09,14.09,0,0,0-5.77,1.09,9.83,9.83,0,0,0-2,1.49,67.52,67.52,0,0,1-6.22-5c-1.86-1.81-2.69-4.27-4.4-6.2-1.09-3.45-5.11-5.93-8.25-8.13-1.94-1.79-3.89-3.57-5.77-5.37a.71.71,0,0,0-.75-.14q-4.38-4-8.4-8.46a.74.74,0,0,0,0-.66,24.18,24.18,0,0,0-1.61-3,5.46,5.46,0,0,1,.75-6.08c1.38-1.64,4.49-2.71,6.37-3.63,1.58-.78,3.2-1.49,4.82-2.18,3.66-.61,7.3-1.3,10.19-3.49.73-.56,0-1.81-.73-1.25l-.15.1a.62.62,0,0,0-.61-.11c-3.12,1-6.34,2.08-9.49,3.37a45.23,45.23,0,0,0-5.4,1.09c-3.24.94-6.42,2.78-9.7,3.75a22.52,22.52,0,0,1-2.5,0,.69.69,0,0,0-1.13-.11c-1.91-.19-3.82-.53-5.7-.91a.75.75,0,0,0-.65,1.29.6.6,0,0,0,0,1c1.88,1.47,2.49,3.83,5,4.37,1.9.41,3.62,0,5.3,1a.62.62,0,0,0,.23.16,5,5,0,0,1,.5.36,9.35,9.35,0,0,1,1.76,2.11,20.24,20.24,0,0,0,1.3,2.5.7.7,0,0,0,0,.91,135,135,0,0,0,10.7,10.62,54.49,54.49,0,0,0,13,12.39.62.62,0,0,0,.34.11c1.26,1.71,2,3.7,3.54,5.23a63.21,63.21,0,0,0,6.59,5.36,56.39,56.39,0,0,0-5,7.15c-1.58.83-3.15,1.68-3,3.76a2.8,2.8,0,0,0,1.3,2.17c.4,1.33,2.09,2.1,3.8,2.63a2,2,0,0,0,1.73.48c.58.15,1.1.28,1.49.41a.63.63,0,0,0,.67-.17,3.21,3.21,0,0,1,.75.65c.67.67,1.61-.32,1-1a13,13,0,0,1-2.39-3.59,21.93,21.93,0,0,0-.89-2.37,10.09,10.09,0,0,1-.36-4.6,4.3,4.3,0,0,0,.44-1.5.58.58,0,0,0-.14-.44c2.3-3.07,4.45-5.37,8.89-5.67,3.56-.25,9.71-1.47,12.36,1.07h0l.06,0a12.89,12.89,0,0,1,5.2,7.9c.22,1,.36,1.92.49,2.9.23.47.44.94.69,1.4a7.25,7.25,0,0,0,.3.78,4.75,4.75,0,0,0,.77,1.06l.19.33a.69.69,0,0,0,.49.32,14.14,14.14,0,0,1,2,1.87c.33.41.63.83,1,1.25a6.73,6.73,0,0,1,3.23,3.08c.41.76.87,1.48,1.33,2.2a8.08,8.08,0,0,1,1.24.65l.18-.41C397.1,285.95,395.18,283,392.93,280.31Z"/><path class="cls-5" d="M393.14,261.95c-2-1.65-4.09-3.27-6.1-5-.15-.3-.31-.58-.46-.84a27,27,0,0,0-3.21-4.33,31.35,31.35,0,0,0-5.14-4.34,21.82,21.82,0,0,0-4.33-4.46,43.93,43.93,0,0,1-10.41-10.78c-1.43-2.09-3.08-4.41-4.48-6.83a21.54,21.54,0,0,1-1.61-6.27.75.75,0,0,0-1-.64s0,0,0-.06c.06-.88-1.24-.92-1.42-.12a.71.71,0,0,0-.18.62c0,.17.09.34.13.51.07,6.23,4.45,10.91,7.82,16a.71.71,0,0,0,.91.25,58.15,58.15,0,0,0,8.06,8.78c2,1.7,4.08,3.15,6.09,4.66.63.94,1.23,1.9,1.95,2.77a46.82,46.82,0,0,0,6.09,6c1.4,2.65,2.68,5.49,6,5.81a.59.59,0,0,0,.68-.57C393.18,263.15,393.71,262.42,393.14,261.95Z"/></svg>