<svg id="Layer_2" data-name="Layer 2" xmlns="http://www.w3.org/2000/svg" width="600" height="589" viewBox="0 0 600 589"><defs><style>.cls-1{fill:#38667d;}</style></defs><title>premio6-1_block</title><path class="cls-1" d="M564.78,170.78q.57-2.57,1-5.07c4.83-5.69,8.84-16.59,4.28-31.48a34.5,34.5,0,0,0-8.7-14.85,97.37,97.37,0,0,0-24.74-37.13s-6-36.21-65.72-49c-45.81-9.78-80.16,12.44-93.65,23.3l.21-.28a72.09,72.09,0,0,0-6.56,5.85C303.19,87,238.87,152,238.87,152c-40.91-40.91-66.39-23.47-66.39-23.47C198,181.51,187.9,213,187.9,213c-67.73,95.23-65.83,239.49-65.83,239.49s-18,12-52.86,35.46C22.05,524.55,17,544.89,17.94,553.46a4,4,0,0,0,5.52,3.21c2-.87,4.72-2,7.9-3.27h0l2.55-1,0,0,2.59-1,.32-.12c1.75-.65,3.59-1.31,5.49-2l.44-.15,2.8-.94.43-.14,2.72-.87.3-.1,2.88-.87.62-.18q1.46-.42,2.93-.82l.3-.08,2.73-.71.58-.14q1.43-.35,2.86-.67l.6-.13c.92-.2,1.83-.39,2.74-.56l.24,0c1-.18,1.89-.34,2.83-.48l.63-.1c.93-.14,1.84-.26,2.74-.37l.4,0q1.25-.13,2.45-.22l.47,0q1.3-.08,2.55-.09h.53c.85,0,1.69,0,2.5.06h0c5.08.37,9.72.52,14,.48l2.58,0q2.33-.06,4.49-.2l2.34-.17,2.12-.21q3.12-.34,5.85-.83l1.78-.34q1.74-.36,3.33-.78t3-.89q1.44-.47,2.73-1c.57-.23,1.11-.46,1.63-.7s1.33-.62,1.94-.94a28.81,28.81,0,0,0,4.7-3.06,23.13,23.13,0,0,0,2.14-2l.61-.67a19.7,19.7,0,0,0,2-2.68q.21-.33.39-.67a18.11,18.11,0,0,0,1.21-2.62q.12-.32.22-.63a17.79,17.79,0,0,0,.88-5.42,13.07,13.07,0,0,0-.25-2.82,41.69,41.69,0,0,0,5.09,5.08q.66.55,1.33,1.06a37.94,37.94,0,0,0,17.44,7.24l1.56.22q1.56.2,3.15.3l1.59.09q1.6.07,3.22.05l1.63,0c3.26-.09,6.57-.37,9.92-.76,2.23-.26,4.47-.57,6.73-.91L195,527c5.08-.79,10.17-1.6,15.19-2.12a81.88,81.88,0,0,1,16.24-.3c.57.06,1.15.12,1.72.19q1.46.19,2.9.46l.57.11a41.14,41.14,0,0,1,7.25,2.16,13.38,13.38,0,0,0,3.7-1.21,8.15,8.15,0,0,0,.92-.56A5.72,5.72,0,0,0,246,521a13.47,13.47,0,0,0-1.32-5.55c-8.42-19.38-54.32-54.6-57.28-56.86.23-.53.45-1,.65-1.51a229.93,229.93,0,0,1,25-34.57l.55-.63q3-3.39,6-6.69l.28-.3c18.24-19.47,39.41-36.45,61.28-51.08l5.55-.61c26.68-3,38.27-16.07,43.24-28,12.73-6.59,25.13-12.4,36.75-17.46,15.35,9.29,47,30.76,55.78,54.27,11.68,31.39,22.24,14.5,23.36,10.95,2.45-7.74,8.28-55.09-8.77-91.06,2.37-.69,3.64-1,3.64-1h0c1.67-.4,3.3-.81,4.92-1.22l1.45-.37,3.58-.94,1.37-.37c1.55-.42,3.09-.84,4.59-1.27l.58-.17,3.91-1.14,1.39-.42,3.17-1,1.23-.39q2.06-.66,4.07-1.32l.93-.31,3.09-1.06,1.38-.49,2.71-1,1.2-.44,3.53-1.34,1.17-.46,2.39-1,1.4-.57,2.21-.93,1.22-.52,3-1.33,1.36-.62,1.76-.82,1.45-.69,1.65-.81,2-1,1.85-.95,1.48-.78,1.22-.66,1.5-.82,1-.58q1.45-.82,2.84-1.65l.73-.43,1.54-.94.75-.47,1.53-1,.36-.24q1.67-1.09,3.23-2.17l.21-.15,1.53-1.09.38-.27c29.58-21.5,29.45-42.18,29.16-45.84a65.83,65.83,0,0,0,12.06-6.86h-1.59C573.87,191.83,564.78,170.78,564.78,170.78Z"/></svg>