<svg id="Layer_1" data-name="Layer 1" xmlns="http://www.w3.org/2000/svg" width="600" height="589" viewBox="0 0 600 589"><defs><style>.cls-1{fill:#417994;}.cls-2{fill:#549abc;}.cls-3{fill:#488bab;}.cls-4{fill:#fff;}.cls-5{fill:#38667d;}.cls-6{fill:#9bc4d8;}</style></defs><title>premio_leccion_6_2</title><path class="cls-1" d="M182.35,225.84s-9.92-19.34,15.86-70.9c0,0-46.42,6.52-60.95-33.85-2.15-9.42.54-7.27,7.27-4s13.72,11,39.56.81c13.46-5.11,18.3,6.46,18.3,6.46s-1.59-14.5,31.49-18.88C245.14,104,242.49,88,246.8,88s14.26,33.64-29.87,62.17c0,0-5.65,16.15.54,31.76C217.47,181.92,187.34,202,182.35,225.84Z"/><path class="cls-2" d="M435.41,269.93s24.43,12,82,.83S572.9,267,572.9,267s12.84,9.11-58.39,25.26-75,36.44-75,36.44Z"/><path class="cls-3" d="M441.79,275.57s30,63.74-37.5,107.24-128.23,37.5-201.72-27c0,0-55.49,24-88.49,20.25s-82.49-8.25-80.24-26.25,42-1.5,70.49-11.25,69-24.75,72-24c0,0-48-102.74,76.49-160.48,0,0,9-57,14.25-58.49s10.5,46.91,10.5,46.91,48.79-22.89,94.19,5.63c32.65,21,34.53,54.41,34.53,54.41s21,1.13,29.27,16.89c7.35,14,3.4,23.3,8.27,31a16.54,16.54,0,0,1,2.38,10.36A39.33,39.33,0,0,1,441.79,275.57Z"/><path class="cls-2" d="M446.2,260.79a16.54,16.54,0,0,0-2.38-10.36c-4.87-7.69-.92-17-8.27-31-8.26-15.76-29.27-16.89-29.27-16.89s-1.88-33.4-34.52-54.41c-29.68-18.64-60.8-15.32-78.8-10.78-89.65,27.55-82.79,95.49-82.79,95.49-20.62-5.62-26.24,22-26.71,38.43s14.06,51.08,35.62,42.65,13.69,36.07,34.81,78.51c51.92,27.86,99.22,23.35,150.4-9.63,67.49-43.49,37.5-107.24,37.5-107.24A39.33,39.33,0,0,0,446.2,260.79Z"/><path class="cls-3" d="M223.92,184.65a87.09,87.09,0,0,0-12,28.46c3.75,23.85,13.76,60.44,40.4,80.19,41.71,30.93,72.17-6.09,55.77-29.53C292.18,241,232.44,247.88,223.92,184.65Z"/><path class="cls-1" d="M345.61,408.13c-97.95-.47-112-71.24-107.32-64.67s38.43,20.62,58.58,8.9,29.06-12.65,29.06-12.65c1.27-7.11-8.54-7.85-17.17-5.24-9.51,2.88-18.52,9.51-31.47,8.88-30.49-1.49-36.19-9.73-39-21.92s-8-10.78-24.84-7.5-20.62,29.52-32.34,30c-72.64,30-55.77,4.22-97,15.47-18,4.9-30.84,5-39.67,3.55,16,7.56,46.78,10.53,69.65,13.12,33,3.75,88.49-20.25,88.49-20.25,51.84,45.49,97.33,61.87,143.33,52.32Z"/><path class="cls-3" d="M310.14,370.73a54.83,54.83,0,0,0,18.75,1c16.25-1.67,20-17.16,29.59-11.67,6.88,4,6.46,9.58.63,15.21-4.83,4.66-22.29,19-55,11.67-11-1.46-11-11.88-6.88-15.21S307,370.55,310.14,370.73Z"/><path class="cls-3" d="M568.7,274.78c-14.41-3.5-75.45,14.52-95.72,14.8-31.19.42-28.22,17.61-40.1,19.94-13,2.56-18.56,13.9-15.28,17.19,6.32,6.32,6.19,18.86-6.82,34.48-6.13,7.35-4.59,13.55-1.24,18.05,26.85-19.18,36.25-41.7,38.38-60.84,9.06-7.3,27.83-17.32,66.59-26.11C547,284.93,562,279,568.7,274.78Z"/><path d="M443.5,245.92c-2.31,10.54-10.85,21.93-18.67,20.48s-11-14.33-8.49-27.93,8.41-22.71,16.23-21.27S446.11,234,443.5,245.92Z"/><path class="cls-4" d="M434.58,235.14c-.85,6.1-3.15,11.53-5.67,11.53s-5.48-5-5.48-11.16,4.17-13.46,6.88-11.16C434.39,227.83,435.51,228.45,434.58,235.14Z"/><path class="cls-4" d="M441.46,244.81c-.26,4.3-2.07,6.88-3.25,6.88s-2.14-3.5-2.14-7.81,1-7.58,2.14-7.81C442.07,235.3,441.65,241.53,441.46,244.81Z"/><path class="cls-1" d="M211.11,251.13a20.87,20.87,0,0,1-.18-4.48,21.36,21.36,0,0,1,.72-4.45,20,20,0,0,1,.75-2.15,12.48,12.48,0,0,1,1.13-2,7.14,7.14,0,0,1,3.53-2.78,9.18,9.18,0,0,0-2.87,3.2,16.8,16.8,0,0,0-1.57,4,37.15,37.15,0,0,0-.91,4.27C211.48,248.19,211.27,249.65,211.11,251.13Z"/><path class="cls-1" d="M220,255.59a12.51,12.51,0,0,1-.32-2.82,18.57,18.57,0,0,1,.18-2.83,12.89,12.89,0,0,1,1.9-5.33l-.49,2.75c-.14.91-.3,1.81-.42,2.72C220.6,251.91,220.39,253.73,220,255.59Z"/><path class="cls-1" d="M306.72,379.56a101.47,101.47,0,0,0,14,.14,80.83,80.83,0,0,0,13.69-1.92,55.58,55.58,0,0,0,6.63-1.9c1.1-.35,2.16-.79,3.23-1.2s2.12-.9,3.14-1.42a55.94,55.94,0,0,0,11.61-7.6,39.07,39.07,0,0,1-10.89,9,49,49,0,0,1-13.27,5.09,61.56,61.56,0,0,1-14.1,1.53A56.28,56.28,0,0,1,306.72,379.56Z"/><path class="cls-5" d="M210.69,222.74a90.56,90.56,0,0,1,2.47-13.51l.95-3.31c.3-1.11.73-2.17,1.09-3.26s.72-2.18,1.17-3.24l1.33-3.18A91,91,0,0,1,232.35,173a105,105,0,0,1,20.73-18.05l5.84-3.65c2-1.12,4.06-2.14,6.08-3.21l3.06-1.56,3.17-1.34,6.33-2.66-6.22,2.9-3.11,1.44-3,1.66c-2,1.11-4,2.17-6,3.32l-5.73,3.74a107.77,107.77,0,0,0-20.41,18.07,92.86,92.86,0,0,0-14.71,22.91A97.65,97.65,0,0,0,210.69,222.74Z"/><path class="cls-5" d="M38.58,359.71S83.2,381,131.78,373.09s60.29-26.88,70.9-25.28c4.16.62,13.3,14.7,30.68,27,24,17,61.11,33.2,98.22,30,0,0,42.11-3.68,76.35-32.72,27.76-23.55,25-14.63,18.1-5.7s-54.78,41.4-94.45,45.36-95.93-7.44-129-56c0,0-51.59,28.64-101,23.23C67.58,375.32,39.57,364.66,38.58,359.71Z"/><path class="cls-5" d="M443.82,250.43s8.23,7.39.94,25.14c0,0,11,13.49-.15,58.85,0,0,5.21-39.41-5.21-50.57a37.78,37.78,0,0,1-9.67,8.92c-5.95,3.72,2.23-5.95,6.69-12.64s10.41-15.62,4.46-25.28Z"/><path class="cls-6" d="M365.49,154.44c5.82.25,12.3,4.5,15.2,9.49s-.72,13.49-4.34,9-8-11.49-16.65-12S353.91,153.94,365.49,154.44Z"/><path class="cls-6" d="M386.61,178.25c-2.4,1.2-3.72,8.18.74,13.39s5.95-4.46,5.21-7.44S389.59,176.76,386.61,178.25Z"/><path class="cls-3" d="M406.28,202.55s-1.08,18.09-7,34.45-12.64,24.54-17.85,26.77,5.95-14.87,10.41-26,.74-30.49,3.72-38.67S406.62,190.41,406.28,202.55Z"/><path class="cls-6" d="M417.1,212.09c-2.72-1.21-5.58,3.35-4.83,8.18S420.45,213.57,417.1,212.09Z"/><path class="cls-1" d="M200,231.79s-19.34,17.1-11.9,46.11,15.2,33.38,31,36l-12.43,10.83s-19.67-7.31-24.34-42.33S194.75,233.28,200,231.79Z"/><ellipse cx="199.52" cy="277.95" rx="17.78" ry="22.28" transform="translate(-63.58 59.22) rotate(-14.59)"/><ellipse class="cls-4" cx="192.89" cy="268.24" rx="5.54" ry="6.33"/><ellipse class="cls-4" cx="207.12" cy="276.8" rx="4.61" ry="6.99"/><path class="cls-5" d="M219,340.37c2,1.74,4,2,5.45,1s4.46-2,9.42,1.49,13.88,7.93,20.82,10.91,21.32,5.45,29.25,5,12.39.5,20.82,2,27.76-.5,34.21-2c5.71-1.32,21.15-4.58,30.12-10.83a12.3,12.3,0,0,1,7-2.22,28.62,28.62,0,0,0,17.45-6.29c10.91-8.43,18.84-15.37,29.75-24.29,0,0,3.47-3,5.95-3s8.92-1.49,6.94-4-5.7-3.1-11.28,2.48-13.39,10.78-19,16-20.08,12.27-28.63,11.16-32.72-4.83-46.85-1.86-35.32,17.1-48.34,18.22-32.35-4.46-40.9-9.67-14.13-10-17.48-9.3S217.3,338.88,219,340.37Z"/></svg>