<svg id="Layer_2" data-name="Layer 2" xmlns="http://www.w3.org/2000/svg" width="600" height="589" viewBox="0 0 600 589"><defs><style>.cls-1{opacity:0.87;}.cls-2{fill:#1e354a;}</style></defs><title>premio_L5_silueta</title><g class="cls-1"><path class="cls-2" d="M486.92,101.89c-41.24,13.1-69.44,30.79-83.08,40.61a142.9,142.9,0,0,0-16-9.6c7.73-8.3,21.31-20.71,37.64-26.29,19.25-6.58,42.68-18.87,53.47-32q.67-.82,1.28-1.65c2.83-3.85,4.53-7.76,4.68-11.6q0-.62,0-1.24c0-.09,0-.17,0-.26,0-.33,0-.65,0-1,0-.06,0-.13,0-.19,0-.35,0-.69-.06-1v-.13c0-.36-.06-.72-.11-1.07V56.4q-.07-.56-.17-1.12h0c-1.8-10.15-10.65-16.53-39.5-1.34-29.13,15.34-71.69,52.38-87.92,66.93-1.18-.34-2.36-.66-3.56-1a195.23,195.23,0,0,0-49.5-6.26c-25.85,0-50.09,4.88-71,13.41-1.18-4.28-5.47-11.24-17-22.44C193,82,166.69,30.33,136.84,21.29h0q-1.55-.47-3.11-.78h0q-.77-.15-1.55-.27h-.08c-.49-.07-1-.13-1.48-.18l-.23,0c-.45,0-.89-.07-1.34-.09h-.44c-.38,0-.76,0-1.14,0l-.75,0-.85,0q-.81.06-1.62.17a18.91,18.91,0,0,0-4.31,1.05,11.81,11.81,0,0,0-2.2,1.11,9.5,9.5,0,0,0-.91.67,8.41,8.41,0,0,0-1.15,1.2,8.31,8.31,0,0,0-1.36,2.45c-6.34,17.87,39.78,65.81,51.13,76.59,6.75,6.42,17.56,16.21,27.27,24.4l1.81,1.52c2.39,2,4.69,3.86,6.82,5.54l1.56,1.22c1.53,1.18,3,2.23,4.24,3.14l1.15.79q-4.19,2.69-8.07,5.62C183.24,134.2,131.85,98,89.12,45.83c-11.8-16.61-21.88-19.5-30.84-15h0a24.8,24.8,0,0,0-3.55,2.21l-.1.07A35.37,35.37,0,0,0,51.26,36l-.18.17q-.74.72-1.47,1.49l-.18.19q-.79.84-1.56,1.75l-.22.26q-.64.76-1.28,1.56L46,41.9c-.49.62-1,1.25-1.45,1.9h0a8.23,8.23,0,0,0-1.31,2.85q-.11.41-.18.85a21.09,21.09,0,0,0,.51,8.24l.11.47A47.16,47.16,0,0,0,45.53,62q.21.55.45,1.12.95,2.31,2.17,4.77l.52,1q.51,1,1.07,2a111.78,111.78,0,0,0,6.09,9.81l.71,1q2.08,2.95,4.45,6l.57.72c13.72,17.21,34.59,35.71,61.33,49.24,20.63,10.44,35.33,17.47,45.7,22.2l1.33.6,2.51,1.13c2,.9,3.83,1.7,5.47,2.41l1,.41,1.07.46a91.43,91.43,0,0,0-9.81,14.94c-26.2-11.14-100.59-36.08-100.59-36.08S58.39,138,49.44,145.32h0q-.54.44-1.08,1h0c-.35.34-.7.7-1,1.08l-.05.06c-.33.37-.65.76-1,1.17l-.12.16c-.29.39-.58.79-.86,1.22l-.21.34c-.25.39-.49.78-.73,1.21-.11.2-.21.42-.32.62-.19.36-.39.72-.57,1.1s-.3.67-.45,1-.27.58-.4.9q-.41,1-.79,2.1a15.55,15.55,0,0,0-.07,9.89q.17.54.37,1.08a24,24,0,0,0,2.15,4.27,34.58,34.58,0,0,0,3.1,4.17c.45.52.92,1,1.4,1.55s1,1,1.47,1.5l1.05,1q1.07,1,2.23,2c1.93,1.62,4,3.2,6.22,4.73q1.32.92,2.7,1.81l1.39.89c14.94,9.37,33.68,16.46,44.83,19.16,16.67,4,38.64,7.71,52.61,7.31a74.61,74.61,0,0,0,5.54,26.58c-37.41,4.49-64.79,16.64-70.73,22.58-13.37,13.37-10.93,47.86-10.93,47.86s-5.4-1.66-19.94,1.25-18.69,13.29-14.54,23.68A5.57,5.57,0,0,0,53,341.12c.17.11.35.22.54.32l.42.22.65.28.6.23.77.25.55.15.72.17.54.11c.39.07.79.14,1.2.19l.64.08.81.08.67.06,1.35.08.7,0,.91,0h1.82l1.12,0,1,0,.86,0,1-.06,1-.07,1.43-.12.91-.09,1-.1.92-.1,1.61-.19,1-.13.92-.12,1-.14,1-.14,1.66-.25.82-.13,1.1-.18.74-.12,2.08-.36.5-.09,1.23-.22.48-.09,4.06-.76h.06c2.93-.56,5.67-1.12,8.07-1.59l.25,0,1.11-.22.4-.08.12,0,1.07-.21.11,0,.26,0,1.28-.24h0l.93-.2a15.75,15.75,0,0,0,2.61-.82l.43-.19a7.62,7.62,0,0,0,3.72-3.34h0a6.42,6.42,0,0,0,.36-.85h0c1-2.79-.07-5.86-.81-7.51h0c-.13-.3-.26-.55-.36-.75h0l-.12-.23,0,0-.07-.12,0,0,0,0h0v0c.13-.86.27-1.69.42-2.51,0-.27.1-.53.15-.8.11-.56.22-1.12.33-1.66l.19-.88q.17-.77.35-1.52l.21-.84c.13-.53.28-1,.42-1.57.06-.22.12-.45.18-.67.21-.72.42-1.44.65-2.13l.08-.23q.3-.92.62-1.81l.24-.65c.17-.45.34-.89.51-1.32l.29-.7q.26-.62.52-1.21l.29-.65c.2-.44.41-.86.61-1.28l.23-.48q.43-.86.89-1.68l.17-.29q.38-.67.77-1.31l.32-.52c.22-.34.43-.68.65-1l.36-.53.67-1,.35-.48c.26-.35.53-.7.8-1l.24-.31q.53-.65,1.08-1.27l.24-.26c.29-.32.58-.63.87-.94l.38-.39.77-.75.41-.39.8-.71.39-.34,1-.8.22-.17q.61-.47,1.23-.92l.3-.21.95-.64.43-.28.86-.53.45-.27.89-.5.41-.22,1.15-.59.15-.08q.66-.32,1.33-.61l.36-.15,1-.41.46-.18.91-.34.47-.16,1-.32.41-.13q1.36-.42,2.74-.75l.39-.09,1-.22.48-.1.93-.18.47-.09,1-.16.38-.06,1.39-.19h0l1.34-.15.42,0,1-.08.47,0,.92-.06.45,0,1,0h.35l1.35,0h1.75l.9,0h.46l.87,0,.44,0,1,.05.3,0,1.26.09.23,0,1,.08.4,0,.83.08.41,0,.82.09.37,0,.93.11.23,0,1.13.15.26,0,.84.12.37.05.7.1.39.06.68.1.33.05.92.14h0c3.49.56,6.27,1.07,8,1.15h.44c1.5,72.24,16.48,98.61,24.6,108.59l0,0,.31.38.09.11.27.31.12.15.23.27.16.18.2.22.17.19.17.19.21.23.12.13.32.34C115.52,412.06,140,477.69,140,477.69c-5-.42-28.25-1.66-29.08,8.72-.32,4,1.71,7.27,5.16,9.65l.17.12q.46.31,1,.6l.13.08a22.18,22.18,0,0,0,2.43,1.2l.21.09,1.11.43.24.09q1.35.47,2.8.83l.27.06,1.2.26.36.07,1.31.22.19,0q.77.11,1.55.19l.3,0,1.26.1.46,0,1.21.05h.39c.53,0,1.06,0,1.6,0h.25l1.35-.05.5,0,1.17-.09.48,0c.54-.06,1.08-.12,1.61-.2h0l1-.13.26,0,1-.12.33,0,.7-.09c15.4-1.85,41.41-3.73,27.62-20.34a29.18,29.18,0,0,1-5.22-11.09h0a25.31,25.31,0,0,1-.45-2.73v-.07c0-.35-.06-.7-.08-1,0-.14,0-.29,0-.43,0-.32,0-.65,0-1,0-.17,0-.33,0-.5,0-.32,0-.63,0-.95s0-.34,0-.51,0-.63.08-.94,0-.34.06-.51.08-.63.13-.94c0-.16.06-.32.08-.48.06-.32.12-.65.19-1,0-.13.06-.26.09-.38a30.73,30.73,0,0,1,1.53-4.79l.16-.39c.13-.31.28-.63.42-.94l.22-.47c.14-.3.29-.6.45-.9l.26-.49.48-.88.28-.49.52-.88.29-.46c.19-.3.38-.59.58-.89l.27-.4c.22-.32.43-.63.66-.94h0q.87-1.2,1.84-2.36l.1-.13.75-.87.37-.42.72-.79.45-.48.73-.75.49-.5.74-.73.52-.5.77-.71.54-.48.8-.7.54-.46.85-.71.42-.34q.91-.73,1.86-1.44l.54-.4.86-.61.68-.48.84-.57.73-.49.85-.55.76-.48.86-.53.8-.48.86-.5.84-.47.85-.48.9-.48.82-.44,1.14-.57,1.15-.56,1.19-.56.8-.36,1-.46.84-.36,1-.42.85-.34,1-.4.86-.32,1-.38.85-.3,1.1-.37.81-.27,1.21-.38.71-.22,1.78-.5.32-.09,1.77-.46.7-.17,1.27-.29.8-.17,1.19-.24.82-.16,1.17-.21.83-.14,1.18-.18.82-.12,1.21-.15.78-.09,1.34-.13.65-.06,2-.14h0l2-.08h.64l1.35,0h.76l1.22,0,.8,0,1.17.06.81.05,1.17.09.79.07,1.2.13.75.09,1.3.19.63.1q1,.16,1.9.35A83.8,83.8,0,0,1,287,438.87l.09.09q2.27,2.27,4.36,4.69l.61.71q2.85,3.34,5.39,6.91.59.83,1.17,1.67,1.27,1.85,2.46,3.75.7,1.11,1.37,2.24,1,1.69,2,3.4.76,1.37,1.48,2.75a153.23,153.23,0,0,1,10,24.25q.69,2.16,1.33,4.31,1.17,4,2.14,7.86.58,2.33,1.1,4.63c1.45,6.4,2.53,12.58,3.34,18.3q.33,2.34.6,4.58l.08.62q.27,2.27.49,4.42c1.07,10.53,1.22,18.59,1.21,22.24,0,1.39,0,2.14,0,2.14h0a2.51,2.51,0,0,0,.45,0h.11l.35,0,.11,0,.36-.09.09,0,.39-.16.06,0,.44-.25h0c9.16-5.83,21.88-50.38,16.83-82.11-5.5-34.6,3.93-75.49,3.93-75.49.66-.33,1.32-.64,2-.95l.63-.28,1.35-.59.72-.3,1.28-.51.72-.27,1.35-.48.62-.22q.95-.32,1.89-.6l.06,0c.65-.2,1.3-.38,1.95-.55l.59-.15,1.36-.33.69-.15,1.27-.27.68-.13,1.34-.23.58-.1c.62-.1,1.25-.18,1.87-.26h0c.64-.08,1.28-.14,1.92-.2l.5,0,1.39-.1.62,0,1.28-.05.62,0h1.86q1.87,0,3.7.14l.41,0,1.41.12.55.06,1.28.14.56.07,1.32.19.47.07q1.79.28,3.55.65l.33.07,1.4.31.49.12,1.24.31.5.13,1.28.35.41.12,1.64.5h0l1.7.55.26.09,1.35.48.44.16,1.17.44.46.18,1.18.47.39.16,1.5.63h0l1.57.7.25.12,1.24.58.43.21,1,.51.45.23,1.05.54.39.2,1.26.67.14.07,1.39.77.3.17,1,.6.44.26.88.53.46.28.86.53.43.27.94.6.3.19,1.18.77.4.27.77.52.49.34.65.45.51.36.59.42.51.36.59.43.47.34.94.7.56.43.41.32.58.45.35.27.59.47.29.23.6.48.18.15c1,.81,1.93,1.59,2.78,2.33l.05,0,.64.56h0c2.43,2.12,4.19,3.83,5.2,4.83h0l.35.35c5.5,5.5,11.8-.79,22.8-12.58l1-1.08.45-.48.74-.78.75-.79.41-.44.63-.67.42-.45.63-.68.4-.44.66-.72.36-.4,1-1.11h0l1-1.12.33-.39.63-.75.37-.45.57-.7.38-.47.54-.69.37-.48.52-.71.34-.47.53-.76.29-.42q.37-.55.72-1.1l.06-.1q.36-.58.7-1.16l.23-.41c.15-.26.29-.53.43-.79l.24-.47L481,391l.23-.5.31-.72.2-.5c.09-.24.18-.49.27-.73l.17-.49c.09-.26.16-.53.24-.79s.09-.29.12-.43q.14-.56.25-1.12l0-.12c.07-.4.13-.8.18-1.2,0-.14,0-.28,0-.42s0-.54.06-.81,0-.33,0-.49,0-.5,0-.75,0-.34,0-.52,0-.49-.07-.73,0-.35-.07-.52-.09-.5-.14-.75-.07-.33-.11-.5-.15-.54-.23-.81-.08-.29-.14-.44q-.19-.56-.44-1.13a20.17,20.17,0,0,0-3.53-5.42c-12.58-14.15-33,14.15-33,14.15-34.6-34.6-84.93-22.8-84.93-22.8,0-10.41,4.13-22.88-4-40.84v0q-.56-1.23-1.19-2.49l0,0q-.63-1.25-1.34-2.54l0-.07q-.71-1.28-1.51-2.6l0-.07q-.8-1.32-1.69-2.68l0-.06,0,0c37.31-9.09,67.64-28.84,83.78-54.14A39.33,39.33,0,0,1,446.08,260a29.48,29.48,0,0,1,2.77,1.42,26,26,0,0,1,7.42,6.44q.83,1.06,1.54,2.18t1.3,2.29a36,36,0,0,1,3.41,11.18q.19,1.28.3,2.56t.17,2.55q.05,1.27.05,2.52a75.75,75.75,0,0,1-3.14,20.84q1.5.51,3,1l1,.29,2,.6,1.13.32,1.76.49,1.17.31,1.69.43,1.15.28,1.67.38,1.11.24,1.7.34,1,.2,2,.34.69.12q1.29.21,2.54.37l.87.11,1.63.2,1.06.1,1.37.13,1.11.08,1.24.08,1.12.05,1.16,0,1.11,0h2.18l1,0,1.1,0,.68-.05q1.25-.09,2.43-.23L502,318l1.13-.17.66-.11,1.07-.21.62-.13,1-.25.55-.15,1-.29.46-.15,1-.35.32-.13a16.78,16.78,0,0,0,4.06-2.25l.1-.07c.25-.19.47-.4.69-.6l.18-.16c.21-.2.4-.41.58-.61l.17-.2q.26-.32.49-.65l.13-.2c.15-.23.28-.46.4-.7l.08-.17a7.72,7.72,0,0,0,.33-.79h0a8.35,8.35,0,0,0,.25-4.44c-2.7-13.51-33.09-10.13-33.09-10.13s-.68-29-9.46-45.93c-6.11-11.75-21.36-15.32-30.08-16.41a73.1,73.1,0,0,0,1-30.39c5.9-.15,14.78-.36,24.64-.58l3.81-.08,13.73-.27,2,0,9.68-.16,1.88,0,5.47-.07,8.37-.07c6.24,0,11.27,0,14.18.13a33.56,33.56,0,0,0,6.47-.27,19.58,19.58,0,0,0,3.14-.73,14.74,14.74,0,0,0,1.8-.72,11.83,11.83,0,0,0,3-2,11.21,11.21,0,0,0,1.17-1.27q.27-.34.51-.7a12.9,12.9,0,0,0,.89-1.54q.2-.41.38-.84a17.16,17.16,0,0,0,.63-1.81,37,37,0,0,0,1-11.73s0,0,0-.08h0c-.74-14.77-20.93-11.41-20.93-11.41l-93.15,5.34a95.18,95.18,0,0,0-6.89-9.48l2.1-1.21,2.69-1.51a164.12,164.12,0,0,1,35.27-14.6c5.84-1.66,11.8-3,18.12-4.31q2.49-.5,5.07-1c2.94-.55,6-1.08,9.1-1.62,9.09-1.55,17.51-2.54,25.15-3.78,3.19-.52,6.25-1.07,9.16-1.73,2.27-.51,4.46-1.09,6.55-1.76.89-.28,1.75-.59,2.61-.91a41.21,41.21,0,0,0,9.23-4.71c.85-.59,1.67-1.21,2.47-1.88.62-.52,1.23-1.06,1.82-1.64A37.44,37.44,0,0,0,565.26,110h0C572.49,91.68,559.18,78.93,486.92,101.89Z"/></g></svg>