<svg id="Layer_2" data-name="Layer 2" xmlns="http://www.w3.org/2000/svg" width="600" height="589" viewBox="0 0 600 589"><defs><style>.cls-1{fill:#38667d;}</style></defs><title>premio7-1_block</title><path class="cls-1" d="M552.56,210.06c-.11-.64-.24-1.36-.37-2.18a2.38,2.38,0,0,0-.21-.66c0-.06-.06-.1-.09-.16a1.79,1.79,0,0,0-.29-.37l-.13-.12a2,2,0,0,0-.48-.28l-.08,0a3.09,3.09,0,0,0-.76-.17h0c-6.13-.63-25,11.64-46.56,30.08-13.65,11.69-24.69,19.57-34,25.2L460,266.69c-1.94,1-3.79,1.89-5.58,2.71h0l-18.82,7.53h0a89.88,89.88,0,0,0-16.31,7.84,31.36,31.36,0,0,0-3,2,90.38,90.38,0,0,0-8.86,7.08c-3.44,3.1-6.67,6.14-9.73,9.11l0-.33-7.27,7.48v.13q-1.67,1.72-3.26,3.4l-.08-.63-8.54,10.13c-1.83,2.09-3.55,4.12-5.19,6.07l-1.4-.52a46.26,46.26,0,0,0-8.6-2.89,51.92,51.92,0,0,0-5.54-1.1c-.77-.13-1.54-.24-2.28-.32l-1.49-.18,0,.05c-.57,0-1.12,0-1.66,0,0,0,0,.13-.08.34a4.54,4.54,0,0,0-1.59.36.49.49,0,0,0-.83-.41h0l-.56-.41.5-.4s-1.47-1-4-2.41l0-.05s-.77-.44-2.09-1.13l0,0-.53-.24c-5-2.56-16.23-7.81-25.85-8.51-1.35-.19-2.71-.35-4.09-.45a184.31,184.31,0,0,0-1.11-21.76,18,18,0,0,0-1-4.64,19.22,19.22,0,0,0-5-8,29.92,29.92,0,0,0-3.92-3.5v-.05l-.26-.13a46.59,46.59,0,0,0-15.89-7.21l-.25-.09,0,0a78.58,78.58,0,0,0-9.36-1.81,21.92,21.92,0,0,0-2.8-.32,27.51,27.51,0,0,0-3.78.38,48.38,48.38,0,0,0-5.52,1h-.07l-1.33.34V265s-.53.17-1.4.47a49.67,49.67,0,0,0-10.47,4.47,28.27,28.27,0,0,0-5.42,3.6q-1.75,1.34-3.48,2.92l0-.14c-1.07,1-2.08,2.09-3,3.19a60.67,60.67,0,0,0-11.36,18.32c-.67.65-2.57,7-3.79,11.16l-1.62.66,0-.06-2.61,1.19c-2.57,1.13-5,2.26-7.11,3.35-2.85,1.38-5.7,2.82-7.59,3.93l-.17.08v0a10.92,10.92,0,0,0-1.78,1.23l0,.14c-1.11.72-2,1.33-2.58,1.81l0,0-.23.25a2.58,2.58,0,0,0-.73.78c-.34.08-.71.19-1.09.3-.86-.3-2.66.48-4.67,1.64l-.91.53a35.82,35.82,0,0,0-4.76,3.18l0,.07c-.71.52-1.33,1-1.83,1.36l-.05-.08-.16-.26-5.23-9.59c-1.07-2.17-2.17-4.48-3.35-6.94l.11-.13-2.17-4.16c-1-2-1.86-3.69-2.71-5.2l-.37-.72,0,0c-.47-.82-.93-1.57-1.37-2.27l.11-.1-1.81-2.46c-.67-1-1.3-1.8-1.89-2.56l-4.06-5.51a15.86,15.86,0,0,1-1.54-3.73l0-.07-1.33-11.17c-.36-6.34-.42-12.07-1.3-17.45a15.25,15.25,0,0,0-.47-2.72l0,.06c-.27-1.2-.59-2.37-1-3.54v0l-.24-.63a32.33,32.33,0,0,0-1.79-4.16c-1.41-3-3.4-6.41-5.47-7.69-.86-.93-1.79-1.85-2.82-2.78l0-.07-.59-.46a65,65,0,0,0-6.81-5.18c-2.27-1.65-4.32-3-4.86-3l-1.81-1,0-.08s-9.7-5.07-15.48-8.56q-1.58-1-3.09-2a9.24,9.24,0,0,1-.76-.6l0,.07A159.93,159.93,0,0,1,88.32,193l.08,0-7.69-8.18c-3.79-4.21-6.84-7.7-9.39-10l-.37-.4,0,0a16.59,16.59,0,0,0-2.28-1.7,8.26,8.26,0,0,0-2-.88,4.55,4.55,0,0,0-1.79-.4,1.45,1.45,0,0,0-.49.28c-3.3.68-5.05,5.16-5.92,9.37v0c-.14.68-.26,1.35-.36,2v0q-.07.44-.12.86l0,.13c-.07.58-.13,1.13-.17,1.64V186q0,.28,0,.55v.18c0,.21,0,.42,0,.6a54.56,54.56,0,0,0,.15,5.74c.15,2,.41,4.23.75,6.51s.78,4.67,1.3,7.13a216.51,216.51,0,0,0,9.67,31.91l.79,2c9.35,23.75,22.25,45.84,32.91,50.19A167.78,167.78,0,0,1,159,328.5c4.83,4.84,8.82,9.32,12.1,13q-1.47,1.27-2.9,2.56a.58.58,0,0,0-.18.05c-1.42.77-7.89,6.9-7.89,6.9v0l-3.51,3,.43.59-.23.24h0l-.63.62v0l-.24.25c-.13-.39-.21-.63-.21-.63l-1,1v0l-.31.35c-1.16,1.22-2.88,3-4.17,4.55l-.12.14v0a17.33,17.33,0,0,0-1.42,1.85,3.8,3.8,0,0,0-.08,3.22c.23,1.82,1.74,2.56,3.2,2.84l0,0,.33,0a10.48,10.48,0,0,0,2.06.1,3.61,3.61,0,0,0,.19.8,1.78,1.78,0,0,0,.05.71,7.33,7.33,0,0,0,2.23,3.05h0c2.09,2.29,4.28,4.49,6.52,6.62a193.8,193.8,0,0,0,26.36,21.37,267.55,267.55,0,0,0,34.69,19.52c1.24.58,2.48,1.13,3.73,1.69a24.23,24.23,0,0,1-1.84,7.77c-3.88,9.43-.55,18.85,15,21.62s20,4.44,23.84-12.75l.9-3.38a200,200,0,0,0,24.52,4.78c2.23.29,4.44.63,6.69.74,3.83.19,7.65.35,11.48.36a155.1,155.1,0,0,0,39.78-4.59c3.44-.9,6.83-1.94,10.19-3.09l11.8,10.72a23.46,23.46,0,0,0,11.5,5.13,26.77,26.77,0,0,0,7.88.1c.83-.11,1.69-.26,2.57-.46q.66-.15,1.34-.33l1.5-.18.45,0,1.11-.12.47,0,1.23-.12.31,0c12.64-1.13,26.82-1.06,32.15-4.91h0A4.63,4.63,0,0,0,433,439.7c-1.11-9.43-9.43-3.33-21.62-18.3l-4.81-6.14,1.44-.54c4.86-1.76,9.79-3.31,14.69-5,5.54-1.86,11.15-3.56,16.8-5.05,2.35-.62,4.69-1.23,7-1.8,1.63-.39,3.33-.71,4.92-1.23,1.06-.34,2.5-1,2.66-2.27a2,2,0,0,0-.17-1.06c0-.08,0-.16,0-.25,3,2.71,4.49,3.53,8.39.6a5.24,5.24,0,0,0,1.85-5.1,7.78,7.78,0,0,0-.63-3.2c-2.06-5.1-4.3-7.67-5.79-7.35a2.85,2.85,0,0,0-.85-.34,1.76,1.76,0,0,0-.27-.71,1.93,1.93,0,0,0,0-.68c-.4-3-15.89-20-24.37-17.88a7.54,7.54,0,0,0-2.79,0l-.27-.28a.43.43,0,0,0-.12-.13l-.92-1c.73-.37,1.19-.66,1.19-.79,0-.52-15.09-12.52-21.22-15.88a113.13,113.13,0,0,1,35.56-8c38.17-2.2,53-28,53-28s45.86-68.37,53.55-86.5a56.92,56.92,0,0,0,2.32-6.09,13,13,0,0,0,.36-1.59,9.64,9.64,0,0,0,0-2.77C552.87,211.81,552.73,211,552.56,210.06Zm-398,160.5a10,10,0,0,0,1.12,1.83,4.3,4.3,0,0,1-1.11-1.76S154.59,370.58,154.59,370.56Z"/></svg>