<svg id="Layer_1" data-name="Layer 1" xmlns="http://www.w3.org/2000/svg" width="600" height="589" viewBox="0 0 600 589"><defs><style>.cls-1{fill:#333;}.cls-2{fill:#171717;}.cls-3{fill:#212121;}.cls-4{fill:#e05500;}.cls-5{fill:#fff;}.cls-6,.cls-7{fill:none;stroke:#000;stroke-linecap:round;stroke-miterlimit:10;}.cls-6{stroke-width:3px;}.cls-7{stroke-width:2.02px;}.cls-8{fill:#234191;}.cls-9{fill:#3d5fba;}</style></defs><title>premio_leccion_8_1</title><ellipse cx="336.61" cy="182.82" rx="3.87" ry="4.56"/><path d="M316.73,211.68a37.76,37.76,0,0,0,19.88-24.86l2.49-4.14s3,19.33-21,31.21Z"/><path class="cls-1" d="M345.19,394.22S336.46,399.4,334,407c0,0-20.19,11.46-24.83,21.28,0,0-14.19-4.91-21.55-.27,0,0-19.76-11-34,5s9.2,31.56,19.57,35.11,23.74-1.09,23.46-2.73c0,0,20.19,1.36,32.74-11.73,0,0,22.92-3.82,33-23.46,0,0,26.19-10.91,26.74-39.56C389.11,390.67,376.56,373.21,345.19,394.22Z"/><path class="cls-2" d="M362.37,430.23s26.19-10.91,26.74-39.56c0,0-12.55-17.46-43.93,3.55a31.51,31.51,0,0,0-3.72,2.72c.06.19.11.37.17.56,8.46,24-4.91,34.1-4.91,34.1-19.37,21.83-28.1,11.19-28.1,11.19-20.46,17.73-30.56.82-30.56.82-9.8,7.35-18.6-3-23.64-11.44-.28.29-.56.57-.84.88-14.27,16,9.2,31.56,19.57,35.11s23.74-1.09,23.46-2.73c0,0,20.19,1.36,32.74-11.73C329.36,453.7,352.28,449.88,362.37,430.23Z"/><path class="cls-3" d="M220.59,203.06S138.43,100,158.45,89.7c16.71-8.57,116.14,48.86,165.64,198.85C324.09,288.56,237.09,231.56,220.59,203.06Z"/><path class="cls-4" d="M254,167.7c-60-54-77.25-66.81-76.28-60,3,20.87,10.12,30.42,10.12,30.42L205.73,156l10.42,19.39,10.87,27,18.61,25.77s-3.42,4.5,12.68,11.95c15.4,7.12,22.34,10.54,41.14,20.14C328.83,275.28,262.59,175.42,254,167.7Z"/><polygon class="cls-3" points="224.89 147.22 230.18 144.4 247.09 189.14 295.59 258.13 271.73 234.78 241.76 190.48 224.89 147.22"/><polygon class="cls-3" points="242.45 149.7 216.12 156.43 202.15 161.67 191.45 159.99 192.29 154.18 211.31 151.21 230.19 138.43 242.45 149.7"/><polygon class="cls-3" points="178.32 119.91 189.35 130.65 198.37 132.74 216.18 127.69 218.86 132.76 200.84 135.39 185.29 136.81 178.32 119.91"/><polygon class="cls-3" points="204.73 177.13 215.55 181.06 254.59 205.83 250.12 198.37 216.15 175.39 198.56 171.8 204.73 177.13"/><polygon class="cls-3" points="211.35 219.22 245.93 226.1 279.31 243.99 275.49 230.5 244.44 220.13 205.09 212.35 211.35 219.22"/><path class="cls-5" d="M300.19,390.57s-6.18-.66-6.1,1.48.32,5,2.38,4.68,3.89-1,3.81-2.54S301.29,390.76,300.19,390.57Z"/><path class="cls-3" d="M344,309S261.33,201.67,148,159.67,2.67,147.67,22,175s46.67,59.33,70,69.33c0,0-28.67,40.67,80.67,104,0,0-97.33,100-56.67,155.33,41.2,56.06,244-168,244-168Z"/><path class="cls-4" d="M332.88,317.48l2.53,20.21S196.49,480.81,162.81,485c0,0-33.68,10.1-25.26-16.84,0,0-.84-3.37-8.42,7.58s-5.89-38.73,14.31-53,15.15-34.52,15.15-34.52,36.2-41.25,40.41-50.52-7.58-16.84-7.58-16.84l-31.15-21-35.36-21.89,2.53-19.36L88.73,220.66l-21-41.25L49.15,160.88l32,4,28.63,18.73,21.89.84L167,197.08S267.21,241.71,332.88,317.48Z"/><polygon class="cls-3" points="183.86 315.8 254.58 319.16 332.88 317.48 337.94 323.37 259.64 325.9 193.97 342.74 183.86 315.8"/><polygon class="cls-3" points="55.89 172.67 79.46 172.67 96.3 160.88 103.04 167.62 81.99 178.56 56.73 179.4 55.89 172.67"/><polygon class="cls-3" points="66.83 192.03 105.56 182.77 112.3 169.3 131.66 184.46 105.56 190.35 75.25 207.19 66.83 192.03"/><polygon class="cls-3" points="87.04 198.77 94.62 203.82 128.3 202.98 153.55 192.87 179.65 196.24 186.39 206.34 137.56 211.4 106.41 218.97 94.62 218.97 84.52 230.76 66.83 205.5 87.04 198.77"/><polygon class="cls-3" points="143.45 208.03 178.81 240.86 236.9 277.07 332.88 317.48 321.94 320 232.69 282.96 174.6 246.76 137.56 211.4 143.45 208.03"/><polygon class="cls-3" points="172.92 240.02 147.66 245.92 115.67 260.23 119.03 270.33 150.19 254.34 187.23 248.44 172.92 240.02"/><polygon class="cls-3" points="169.55 309.06 204.91 283.8 232.69 282.96 220.91 273.7 204.07 276.23 172.92 298.96 135.87 285.49 169.55 309.06"/><path class="cls-3" d="M259.64,325.9l-10.1,13.47s-10.1,34.52-3.37,35.36,95.14-34.52,95.14-34.52l2.53-5.89s-94.3,40.41-94.3,32.84,10.1-30.31,10.1-30.31l7.58-12.63Z"/><polygon class="cls-3" points="249.53 339.37 177.97 359.57 170.39 365.47 252.06 346.11 249.53 339.37"/><polygon class="cls-3" points="249.53 367.15 137.56 421.88 132.5 431.98 250.23 371.43 249.53 367.15"/><polygon class="cls-3" points="261 370 167 476 161 493 153 491 159.4 475.82 256.14 371.59 261 370"/><polygon class="cls-3" points="282.45 360.73 279.16 375.52 233.15 418.24 215.33 454.33 242 433 239.02 420.59 283.01 377.04 285.97 359.88 282.45 360.73"/><polygon class="cls-3" points="278 379.67 292 367.67 314.67 366.33 311.33 372.33 294 372.33 278 379.67"/><path class="cls-5" d="M101.53,152c1.47,1.29,1.75,4.49,4.37,2.71,1.24-.84.83-3.8-.73-4.65S98.14,149,101.53,152Z"/><path class="cls-5" d="M36.47,171c-2.56-.67-8.15,2.68-5.14,4,2,.83,4.61,1.49,5.93.23S37.5,171.32,36.47,171Z"/><path class="cls-5" d="M51.61,169.38c-2-.52-1.29,1.3-2.33,3.59-1.66,3.66,3.46,2.11,4.49,1.13S52.4,169.59,51.61,169.38Z"/><path class="cls-5" d="M96.56,268.5a3.1,3.1,0,0,0,.77,4.5c2.69,2.06,4.82,2.66,6.16-.8S100.8,264,96.56,268.5Z"/><path class="cls-5" d="M171.33,355.67s-.25-1.45,2.85-4.23,5.19,2,5.06,5.72c-.1,2.78-3.56,8.77-7,2.89C170.69,357.42,171.33,355.67,171.33,355.67Z"/><path class="cls-5" d="M118.67,259.67s-4.84-3.54-7.08-.46,3.36,4.9,5.12,4.27S121.2,262.83,118.67,259.67Z"/><path class="cls-5" d="M106.67,295s-.15-5.07,3.48-4.81,2.08,3,4.45,3.49-.85,2-.62,3.64S108.45,300.2,106.67,295Z"/><path class="cls-5" d="M83.69,216.25s-.12,1.68,1.89,1.33,4.48-.93,6.25.31.1-4.18-.7-3.33S83.61,210,83.69,216.25Z"/><path class="cls-5" d="M49.82,191.87s-4.28,3.35-5,.84,1.47-4.65.52-5.77,3.9-4.37,4.33-1.51S52.6,188.45,49.82,191.87Z"/><path class="cls-5" d="M156.88,303.69a5.46,5.46,0,0,1,.45,5.31c-1.4,2.71-4.63,1.1-4.31-.61s-1.13-3.22,1.16-4.72A2.77,2.77,0,0,1,156.88,303.69Z"/><path class="cls-5" d="M161.39,365.83s2.5,3.52.61,7.17-6.25,1.48-5.82-.83-1.52-4.35,1.57-6.37A3.74,3.74,0,0,1,161.39,365.83Z"/><path class="cls-5" d="M92,253.67s1.21,2.65,1.68,2.85,4,0,3.94-2.1S95,250,95,250Z"/><path class="cls-5" d="M55.33,207.67s2.6,4.48,3.41,4.91,6.36.92,5.8-2.31-1.73-1.6-3.58-3C56.45,203.75,55.33,207.67,55.33,207.67Z"/><path class="cls-5" d="M103.07,241.51s-3.4,2.21-1.83,3.69,5.6,4.2,6.86,2.86,2.38-5,.46-6.43S104.52,239.26,103.07,241.51Z"/><path class="cls-5" d="M79.54,228.91s1.89,7.78,5.2,7.2,3-4.12,4.11-5.34S84.1,222.61,79.54,228.91Z"/><path class="cls-5" d="M69.39,193.54s1.76,1.66.61,4.8,7.18,1.34,6.49-1.12S73.78,189.53,69.39,193.54Z"/><path class="cls-5" d="M182.37,334.85s-1.83,1.59-4.85.14-2,7,.49,6.59S186,339.62,182.37,334.85Z"/><path class="cls-5" d="M117.33,280.33s4.52,1.86,5.49-.32-.72-5.11-2.07-5.09-8-1.86-8.59.34S116.4,278.23,117.33,280.33Z"/><path class="cls-5" d="M133.16,290.79s-3.24,6.8.05,7.63,2.93-4.07,6.12-4.09S137.53,288.08,133.16,290.79Z"/><path class="cls-5" d="M134,312s-2.34,5,3.28,5.84,3.39-4.67,1.42-6.88S133.52,307.86,134,312Z"/><path class="cls-5" d="M134.38,401.47s-5,2.35-1.19,6.59,5.6-1.43,5.48-4.39S136.71,398,134.38,401.47Z"/><path class="cls-5" d="M177,324.65c2.87,1.39,4-1.45,7-1.65,2.49-.17-4.24-4-7.68-3.12C175.16,320.18,171.82,322.13,177,324.65Z"/><path class="cls-5" d="M68,219.24s2.62,2,2.69,4.43,6.22.43,5.19-1.49-3.11-6.24-4.66-5.34S67.29,216.46,68,219.24Z"/><path class="cls-5" d="M45.2,154.25s-1.71,3.14.25,4,4,.53,9.49-.79,15.21,1.35,11.26-1.87-11.64-2.49-15.56-4.43S44.59,151.18,45.2,154.25Z"/><path class="cls-5" d="M30.83,158.09s-4.92,5.22-1.45,7,4.41-2.86,8.4-3.27-1.87-7.07-3.77-5.45A6.73,6.73,0,0,1,30.83,158.09Z"/><path class="cls-5" d="M149.16,394.82c2,1.85,3,1.8,3.8.7.36-.51,2.73-4.71,2.29-5.83-.5-1.29-3.57,1.3-4.58,1.31C147,391,147.35,393.12,149.16,394.82Z"/><path class="cls-5" d="M194.67,473s-.59,5.24,2.23,4.71,3.06-2.33,2.7-4.7S196.62,468.21,194.67,473Z"/><path class="cls-5" d="M226.2,452.54s-.5,4.46,1.9,4,2.61-2,2.3-4S227.86,448.42,226.2,452.54Z"/><path class="cls-5" d="M130,430.82s.16-3.22,3.08-1,1.61-4.75-1.75-6.81-8.13,2.09-7,3.19S124.4,432.31,130,430.82Z"/><path class="cls-5" d="M113.33,445.67a7.22,7.22,0,0,1-.16,4.77c-1,2.39,3.1,4,5,1a3.77,3.77,0,0,0-1-5.5c-.84-.52-2.71-5.39-4.31-4.29S113.33,445.67,113.33,445.67Z"/><path class="cls-5" d="M67.21,146.88s4.28,4.32,7.62,3.91,12.58,3.19,13.44,1.64S61.85,142.14,67.21,146.88Z"/><path class="cls-5" d="M88.67,158.12A8.17,8.17,0,0,0,94,163.8c4.51,1.58,7.91.64,12.85,5.3s5.67-1.81,2.84-2.94S88.9,153.89,88.67,158.12Z"/><path class="cls-5" d="M112.86,461.78s-.39,4.82,2.84,5.79,8,.07,8.3-3.23S114.54,459.94,112.86,461.78Z"/><path class="cls-5" d="M261.09,419s0,4.38,1.67,3.28,4.57-2.5,4.44-4S263.62,415.64,261.09,419Z"/><path class="cls-5" d="M213.09,462.55s-4.81,6.07-1.54,8.66,4,.3,3.52-2.53S215.62,460.9,213.09,462.55Z"/><path class="cls-5" d="M181.67,486.94s-3.42,3.27-.92,4.6,5.77-1,5.35-3.5S183.89,484.59,181.67,486.94Z"/><path class="cls-5" d="M116.37,162.07s5,7.61,9.63,9.6,5.91-1.55,5.91-1.55S115.86,155.16,116.37,162.07Z"/><path class="cls-5" d="M231.09,440s2.41,5.29,3.77,2.87,3.87-5.92,2.89-7.63S232.1,434.34,231.09,440Z"/><path class="cls-5" d="M161,493s2.4,3.38,3.8,1.9,1.39-5.94-.15-5.18S157.2,491.1,161,493Z"/><path class="cls-5" d="M142.6,497s-1.43,1.85.24,2.46,4.18-.37,3.39-2.24S144.21,496,142.6,497Z"/><path class="cls-5" d="M114.1,480.55s-3.42,3.17-2.51,4,4.8,2.82,6-.07S116.12,478.4,114.1,480.55Z"/><path class="cls-5" d="M126.92,487.7s-5.35,4.57-3.52,6.17,4.36,3.62,5.7,1.68,2.17-4,.87-5.11S127.93,486.94,126.92,487.7Z"/><path class="cls-5" d="M155.44,326.29c-.85,3.17-1.25,3.87.64,4.92s3.7-.36,6.27-1,.19-6.31-.77-5.29S156.11,323.8,155.44,326.29Z"/><path class="cls-5" d="M253.34,439.8s.78-3.88,1.94-4.24.15-2-1.69-2.52-4.31.31-4,2S251.22,441.93,253.34,439.8Z"/><path class="cls-5" d="M139.56,161.57s-1.94,3.11-.9,4.1,6,4.66,5.61.34S139.56,161.57,139.56,161.57Z"/><path class="cls-5" d="M118.56,180.43s-1.79,2.19-.18,3.43,4.55-.42,4.37-1.7S119.62,182.25,118.56,180.43Z"/><path class="cls-5" d="M279.09,410s-2.05.21-1.44,1.64,2.77,2.46,3.49.82S280.73,410.46,279.09,410Z"/><path class="cls-5" d="M212.4,186.39s1.78,5.63,3.94,5.57,3.71-3.31,2.78-3.85S212.95,182.88,212.4,186.39Z"/><path class="cls-5" d="M204.8,175.39s4.31-3.61,3.92-5.58-5.74-2.66-6-.77S201.81,176.28,204.8,175.39Z"/><path class="cls-5" d="M174.79,132c1.15.06,2.65-2.45,4.09-2.4s2.6-3.4-.75-3.93-6.27,1.84-5.47,3.29S173.89,131.95,174.79,132Z"/><path class="cls-5" d="M164.65,100.43s3.75,2.89,4.49,5,3.33-1.29,2.57-1.69S165.77,97.72,164.65,100.43Z"/><path class="cls-5" d="M156.6,99.72s3,3.72,4,2.34,1.56-3.53-2.13-4.48S156.6,99.72,156.6,99.72Z"/><path class="cls-5" d="M212.41,177.92a8.3,8.3,0,0,1,.12,2.94c-.28,1.09,3,.77,3-.83S213.68,175.77,212.41,177.92Z"/><path class="cls-5" d="M180.54,142a8.3,8.3,0,0,1,.12,2.94c-.28,1.09,3,.77,3-.83S181.82,139.83,180.54,142Z"/><path class="cls-5" d="M197.51,164a8.3,8.3,0,0,1,.12,2.94c-.28,1.09,3,.77,3-.83S198.79,161.87,197.51,164Z"/><path class="cls-5" d="M189.75,150.8s3.26,2.23,2.76,2.88,2.22,2.76,2.8,2,4.62-2.2,3.58-3-7.19-6-8.19-4.72S188.71,150,189.75,150.8Z"/><path class="cls-5" d="M166.44,114.35s.09,1.91,1.73,1.75.9-2.38-.15-2.8S166.24,113.43,166.44,114.35Z"/><path class="cls-5" d="M172.76,112.58s1.16,0,2,2.4,2.72,1.28,2.9,0-1.07-3.76-2.64-3.88S172.39,111.18,172.76,112.58Z"/><path class="cls-5" d="M165.88,92.16s1,3.32,3.26,3.16a34,34,0,0,1,7.3.42C178.39,96.1,170.7,91.51,165.88,92.16Z"/><line class="cls-6" x1="326" y1="311" x2="266.5" y2="301.5"/><path d="M276.22,293.94c-2.36,12.87-4.7,9.56-7.81,9s-5.81,1.82-3.45-11.05,6.79-22.85,9.9-22.28S278.58,281.07,276.22,293.94Z"/><line class="cls-6" x1="274.79" y1="375.51" x2="331.76" y2="364.02"/><path d="M273,375.77l9.47-2.56a26.29,26.29,0,0,1-5.63-14.34c-.53-8.69-12.55-7.17-10.24.77A111.8,111.8,0,0,0,273,375.77Z"/><path class="cls-1" d="M336,276.5s-34-4.95-42,48.79,33.17,70,38.15,62-9-19.57-9-19.57,36.49,47.1,42.13,46.11,3-10,3-10,12.61,7,13.93-8.29c0,0-4.64,19.57,7,14.93S404.5,388,404.5,388s-5,16.92,4,16.59,21.89-22.89,15.59-55.07S363.37,273.82,336,276.5Z"/><path class="cls-2" d="M361,364.77a31.75,31.75,0,0,0,.72,5.6A12.94,12.94,0,0,0,361,364.77Z"/><path class="cls-2" d="M421.35,340.83c4.35,39.38-13.87,18-13.87,18,0,26.87-33.84-11.61-33.84-11.61s9.62,29.85-1.33,32.51c-6.76,1.64-9.47-4.44-10.55-9.32a28.43,28.43,0,0,1-2.71,10.32c-4.64,10.28-40.47-37.48-40.47-37.48,1,11.28-10.61,10.95-16.25-12.61-3.72-15.55.51-30.52,3.81-38.89-5.25,7.27-9.78,17.93-12.1,33.59-8,53.74,33.17,70,38.15,62,1.58-2.52,1.25-5.42.07-8.19,11.19,13.87,29.27,35.4,33.1,34.72,5.64-1,3-10,3-10s10.38,5.74,13.29-4.62c-.69,5.42-.74,14.59,7.6,11.25,9.24-3.7,13.43-15.78,14.76-20.57-1,4.46-2.57,14.86,4.48,14.6,9-.33,21.89-22.89,15.59-55.07A44.87,44.87,0,0,0,421.35,340.83Z"/><path d="M414.78,315.34s-7.14-10.42-4.51-23.64a1.44,1.44,0,0,1,2.38-.78c2.16,2,5.55,6.25,6.44,13.55,1.33,10.95,2,10.87,2,10.87Z"/><line class="cls-6" x1="402.14" y1="317.18" x2="419.08" y2="314.94"/><path d="M432.84,369s-4.74-7.79-1.45-16.43a1.23,1.23,0,0,1,2-.27,14.09,14.09,0,0,1,3.89,9.83c.06,7.53.61,7.54.61,7.54Z"/><line class="cls-7" x1="423.07" y1="367.01" x2="436.77" y2="369.75"/><path d="M518.51,137.1c.2,3.68-8.14,7.11-18.62,7.67s-19.13-2-19.33-5.64,8.14-6.11,18.62-6.67S518.31,133.43,518.51,137.1Z"/><path d="M577.33,215.45c-1.45,3.38-10.44,2.78-20.09-1.36S541,203.87,542.4,200.49s10-1.88,19.65,2.25S578.78,212.07,577.33,215.45Z"/><ellipse class="cls-1" cx="336.99" cy="250.76" rx="32.07" ry="46.29" transform="translate(-80.65 295.73) rotate(-42.8)"/><ellipse class="cls-8" cx="339.34" cy="237.35" rx="20.84" ry="32.15" transform="translate(-72.8 197.01) rotate(-29.38)"/><ellipse class="cls-8" cx="366.47" cy="239.92" rx="10.49" ry="23.73" transform="translate(-70.86 215.38) rotate(-30)"/><path d="M351.19,219.92s9.32,6.63,28.22.25l-.74-2.45s-15.21,5.4-28.22.49Z"/><path d="M388,215.35c2.92,2.86.15,4.27-2.61,5.42s-6.62.57-7.38-1.28.85-4.27,3.61-5.42S385.68,213,388,215.35Z"/><path class="cls-6" d="M351.19,219.92S361,202.3,460.8,193.72C541,188.35,566.72,207,566.72,207"/><ellipse class="cls-9" cx="338.75" cy="228.88" rx="16.23" ry="24.72" transform="translate(-66.17 285.23) rotate(-41.97)"/><ellipse class="cls-5" cx="338.28" cy="227.32" rx="8.46" ry="13.85" transform="translate(-69.2 219.28) rotate(-32.77)"/><path class="cls-5" d="M346.61,246.22c.52,1.08-.23,2.54-1.08,3.59a3.45,3.45,0,0,1-2.72,1.26c-1.36,0-3.24-.22-3.73-1.24-.79-1.65.25-3.79,2.33-4.79S345.82,244.57,346.61,246.22Z"/><ellipse class="cls-9" cx="365.6" cy="232.84" rx="7.49" ry="16.94" transform="translate(-65.79 275.03) rotate(-38.08)"/><path class="cls-5" d="M372.62,246.44c.27.57-.12,1.34-.57,1.89a1.81,1.81,0,0,1-1.43.66c-.71,0-1.7-.12-2-.65a2.25,2.25,0,0,1,4-1.9Z"/><ellipse class="cls-5" cx="368.74" cy="235.74" rx="4.31" ry="8.94" transform="translate(-68.91 237.11) rotate(-32.77)"/><path class="cls-2" d="M368.44,284.73c-13,12-37.61,6.58-55-12.17-9.85-10.64-15.25-23.28-15.71-34.42-.5,11.83,5,25.83,15.71,37.45,17.37,18.76,42,24.21,55,12.17,5.62-5.21,8.14-12.83,7.79-21.33C375.93,273.69,373.39,280.15,368.44,284.73Z"/><path class="cls-2" d="M404,390.64s6.88-16.67,3.73-31-13.56-26.33-13.56-26.33,12.4,10.88,14.84,26.45C411.42,375.18,404,390.64,404,390.64Z"/><path class="cls-2" d="M383.5,410.33s2.33-49.83-16-71c0,0,11.77,6.76,15.5,33.5C386.83,400.33,383.5,410.33,383.5,410.33Z"/><path class="cls-2" d="M287.62,428.05s-10.16,10.08-9.72,20.36C277.9,448.41,275.27,436.54,287.62,428.05Z"/><path class="cls-2" d="M309.17,428.32s-2.21,10.9,1.29,18.55C310.46,446.88,304.83,442.12,309.17,428.32Z"/><path class="cls-2" d="M334,407s1.37,19.07,10.77,20.38C344.77,427.43,333.5,428.62,334,407Z"/><path class="cls-6" d="M366,256.33s38.36,34.18,17.33,51.67c-19.66,16.35-42.58-28.39-26.33-34.67,16-6.17,25,19,18.33,19s-5-9.67-5-9.67"/><path class="cls-1" d="M323.56,209.33c4.09-2.32,8.29-2.61,12.93-1.5,18.38,5.46,30,29.58,26.61,47.25-.89,4.69-3.88,8-8,10.28,3.75-2.64,6.74-5.94,6.88-10.57.49-16.89-8.75-39.56-25.82-45.87C331.72,207.62,327.76,207.5,323.56,209.33Z"/><path class="cls-6" d="M317,212.94s59.73-71.83,186.41-79"/><path class="cls-1" d="M354.6,219.37a5.44,5.44,0,0,1,3.39-.8,10.82,10.82,0,0,1,3.44.88,22.88,22.88,0,0,1,5.92,3.88,45.76,45.76,0,0,1,14,24.08,23.16,23.16,0,0,1,.48,7.11,10.76,10.76,0,0,1-.93,3.5,5.74,5.74,0,0,1-2.46,2.69l.07-.06c-.78.74-2.31.67-3.23.56a14.12,14.12,0,0,1-3.05-.77c1.28.29,4.76,1.21,5.84-.18l0,0,.06,0a5.35,5.35,0,0,0,2-2.53,10.41,10.41,0,0,0,.66-3.25c.62-10.64-6.79-23.11-14.2-30.29a24.52,24.52,0,0,0-5.46-4.09,10.31,10.31,0,0,0-3.2-1.12,5.63,5.63,0,0,0-3.35.44C355.58,218.73,355.66,218.85,354.6,219.37Z"/></svg>