<svg id="Layer_1" data-name="Layer 1" xmlns="http://www.w3.org/2000/svg" width="600" height="589" viewBox="0 0 600 589"><defs><style>.cls-1{fill:#7a553a;}.cls-2{fill:#6b4227;}.cls-3{fill:#5c3921;}.cls-4{fill:#f39200;}.cls-5{fill:#db8400;}.cls-6{fill:#d11713;}.cls-7{fill:#bf1611;}.cls-8{fill:#e21914;}.cls-9{fill:#edead9;}.cls-10,.cls-12{fill:none;stroke:#ccc9bb;stroke-miterlimit:10;}.cls-10{stroke-width:0.32px;}.cls-11{fill:#f2a700;}.cls-12{stroke-width:0.75px;}.cls-13{fill:#1d1d1b;}.cls-14{fill:#ccc9bb;}.cls-15{fill:#437fc3;}.cls-16{opacity:0.1;}</style></defs><title>premio2-2</title><polygon class="cls-1" points="246.32 429.81 354.86 365.45 321.42 325.06 256.86 362.38 246.32 429.81"/><path class="cls-2" d="M288.43,394.55h0c3.75-2.55,3.28-7.55-1.06-11.12L256.5,358a8.84,8.84,0,0,0-3.14-1.64h0a6.75,6.75,0,0,0-5.55.54L224.11,373l-6.72,9c-.66.89-.32,2.16.83,3.08,1.69,1.35,3.68,3.5,2.85,5.68-1.37,3.58-4.76,12.82-2.5,17.1,1.37,2.62,27.76,22,27.76,22S279,400.84,288.43,394.55Z"/><path class="cls-3" d="M317.61,375c-5.68-1.26-6.94,11.36-8.83,12s-14.47-4.55-20.92,2.42S277.78,403,267.69,407.43c-6.64,2.9-15.39,13.4-20.66,17.85l-.71,4.53,81.74-48.47C324.46,378.47,320.32,375.56,317.61,375Z"/><path class="cls-4" d="M273.59,351s-14.43-10.36-18.13-9.25-33.3,8.14-34,14.43-.85,21.55-.85,21.55S235.11,367.3,241,367.3s12.21-8.14,15.17-7.4,12.58,10,12.58,10,18.87,25.9,18.87,29.23-3.33,14.8-3.33,14.8,8.51.74,15.54-15.54c4.44-7.4,0-7.77-.37-21.09l-8.88-10.73,10.73-9.25-18.5-19.61Z"/><path class="cls-5" d="M290.61,366.56l10.73-9.25-16.82-22.47-9.73,21.22s-16.12-7-19.78-7c-2.89,0-20.78,1.5-29.4,9.79-.62,6.34-4.95,18.81-4.95,18.81S235.11,367.3,241,367.3s12.21-8.14,15.17-7.4,12.58,10,12.58,10,18.87,25.9,18.87,29.23-3.33,14.8-3.33,14.8,8.51.74,15.54-15.54c4.44-7.4,0-7.77-.37-21.09Z"/><path class="cls-6" d="M277.43,136.84c-.2-6.84-8.42-24.52-13.83-37.08-3.6-8.36-7.6-25.25-7.77-25.53-8.75-14.84-5.26-40.37-5.26-40.37s18.83-13.69,50.27-7.06,35.09,16.9,35.09,16.9,7.7,27.17,8.34,33.37,18,22.89,19.9,27.6-10.27,44.68-11,49.12S365.49,177,368,186.1s-1.73,16.28,9.37,37,18.5,42.43,16.28,51.07-6.41-1.73-6.41-1.73c-2.22.25,5.71,75.09,10.12,84.58s2.37,12.2.68,12.71,5.76,21.69,6.78,26.61-7.12.51-7.12.51c1.19,4.41,9.49,23.73,7.46,24.58s-12-7.93-12-7.93l12.79,26.93a3.64,3.64,0,0,1-5.25,4.62c-80.26-51-117-100.17-127.92-115.4C261.32,313.76,252,265.39,252,265.39L248.43,268a2.44,2.44,0,0,1-3.66-.95c-1.74-4-2.09-11.66-2.61-37.24-.64-31.78,12.4-66.11,12.4-66.11,8.26-5.09,25.74,4.13,25.74,4.13S277.71,146.54,277.43,136.84Z"/><path class="cls-7" d="M393.14,413.5s9.94,8.78,12,7.93-6.27-20.17-7.46-24.58c0,0,8.14,4.41,7.12-.51s-8.47-26.1-6.78-26.61,3.73-3.22-.68-12.71c-2.61-5.63-6.47-34.25-8.71-56.66a32,32,0,0,0-8.32,9.83c-2.47,4.93,0,21.22-15.3-10.85s-23.68-37.5-23.68-37.5l9.87,67.59Z"/><path class="cls-7" d="M394.27,408.17c-4.42-9.18-19.8-52.93-29.87-98.65-10.86-49.32-36.7-103.43-47.06-122.18-5.86-10.6-17.15-17.95-30.6-26.12.12,1,14.67,22,26.07,34.27,29.87,32.13,59,186.18,95.44,252.21.57,1,1.25-2.37.75-3.44Z"/><path class="cls-8" d="M329.1,378.77,322.81,520.5s-4.07,8.14-.74,16.65,4.07,36.26,11.84,28.49,11.47-11.47,12.21-6.66,4.81,15.17,7.77-1.11,3-157.27,3-157.27Z"/><path class="cls-8" d="M369.43,409.85l-1.83,132.28a3.36,3.36,0,0,1-1.37,2.67l-3.14,2.3a.59.59,0,0,1-.95-.52c.66-7.8.79-44.78-2.78-38.18-4.15,7.66,3-55.25-9.91-72.65l3.33-35.89Z"/><path class="cls-6" d="M329.1,378.77,322.81,520.5s-4.07,8.14-.74,16.65a36.63,36.63,0,0,1,1.5,5.65c3.08-4.84,6.2-13.2,8.12-19,3.7-11.1,11.84,11.84,11.84,11.84l3.35-142.91Z"/><path class="cls-8" d="M306.38,56.59c2.86,4.86,23.66,15,36,11.38-2.48-10.2-6.47-24.28-6.47-24.28s-3.64-10.27-35.09-16.9-50.27,7.06-50.27,7.06-.44,3.21-.61,8a4.26,4.26,0,0,1,5.21,2.3c3.26,5.62,0-2.37,4.74,0s5.92,4.44,17.47,3.85S303.42,51.56,306.38,56.59Z"/><path class="cls-9" d="M340.53,79.88c-.62-2.87-4-6.47-3.64-8.83,1.71-10.09-4.66-8.93-4.66-8.93s-15-.69-15.91-.69,1.84-3.23,1.84-3.23-7.38-.46-9.22-.46-5.76,5.3-5.76,7.84-6,10.73-7.38,16.14c-1.67,6.72,1.61,9.45,5.53,26.75,0,0,15.19,10.35,25.85-1.07S343,91.22,340.53,79.88Z"/><path class="cls-10" d="M332.46,67.87c-3.11-1.59-6.72-2.94-8.12-1-2.37,3.23-15.39,11.54-16,14.78-.37,2.07-.75,17.89,4.62,19.23,2.89.72,3.29,3.39,4.58,4.68s4.5-5.72,8.52-6.57c2.81-.6,7.87-7.09,9.94-10.51l.91-1.91s0-.07,0-.1C337,85.26,337.58,74.78,332.46,67.87Z"/><path class="cls-7" d="M364.17,104.67a19.49,19.49,0,0,0-2.52-3.8c-.33,4.51-1.24,9.46-3.55,10.36-4.43,1.72-9.84,5.66-11.07,3.94s3.2-10.09-3-18.7a46.83,46.83,0,0,0-4.44-5.36c-2.08-2.15-4.33,7.13-9.74,12.54s-14.09,7.13-13.31,8.62c2.18,4.21,4.84,8,9,7.58,7.14-.74,9.11-3.94,13.78-.49s4.68,11.81-1.23,9.84-1.72,2-.74,3.2,1.48,7.87-7.87,4.43-9.6,9.84-15.26,9.35c-2.43-.21-4.27-3.47-5.58-7.11a4.42,4.42,0,0,1-1.73.71c-10.06,1.78-5.33-2.37-9.77-2.37-12.26,2.55-18.78-6.78-20.35-9.4l-1.55,0a34.4,34.4,0,0,1,2.13,8.87c.28,9.7,2.87,31,2.87,31s-1.85-1-4.62-2.11l6.71,11.5s22.57,12.07,28.35,18.9c0,0-2.62-30.45-7.35-35.7s8.92,12.07,30.45,6.82c7.83-1.91,14.41-7.93,19.61-14.81C355.47,144.11,366,109.06,364.17,104.67Z"/><path class="cls-11" d="M314.18,88.63c1.26,6.29,5.92,8.43,9.68,5.93C330,90.47,334,83.86,333,80.1c-.84-3.14,1.16-9.25-3.18-8.53C320.34,73.15,313.74,86.46,314.18,88.63Z"/><path class="cls-12" d="M313.88,88.79c1.3,6.49,6.11,8.7,10,6.11,6.32-4.21,10.43-11,9.39-14.91-.87-3.23,1.19-9.54-3.28-8.79C320.24,72.82,313.43,86.55,313.88,88.79Z"/><path class="cls-13" d="M328.42,84c-2.2,3.15-5.77,5-7.67,3.52S320,83,321.95,80c3-4.52,5.77-3.34,6.61-2.82C329.9,78.06,329.9,81.85,328.42,84Z"/><path class="cls-10" d="M326,108.46s11.63-9.39,11.78-11.93,1.19-14.31,1.19-14.31-3.58-15.95-5.52-16.55-6-3.28-8.94-1.64c-1.57.87-5.22.15-7.16-.6s-4.62-1.94-9.69,2.24-5.22,6-5.22,8.2-3.13,16.4,1.19,20.57S312.24,113.38,326,108.46Z"/><path class="cls-14" d="M316.79,112.67c3.51-.36,11.86-5.16,15.09-8.62,6.32-6.77,6-7.85,8-12.69-4.31-4.52-7.62-6-7.62-6s-3,16.49-12.55,14.77-10.83-1-7.38,3.94C313.8,106.22,315.16,109.59,316.79,112.67Z"/><path class="cls-7" d="M308.7,139.06a4.42,4.42,0,0,1-1.73.71c-10.06,1.78-5.33-2.37-9.77-2.37-12.26,2.55-18.78-6.78-20.35-9.4l-1.55,0a34.4,34.4,0,0,1,2.13,8.87c.28,9.7,2.87,31,2.87,31s-1.85-1-4.62-2.11l6.71,11.5s22.57,12.07,28.35,18.9c0,0-2.62-30.45-7.35-35.7S310,142.7,308.7,139.06Z"/><path class="cls-8" d="M391.64,406.89c-4.42-9.18-15.54-52.55-29.6-97.2s-35.52-94.24-45.89-113c-5.86-10.6-22.59-22.29-36-30.47.12,1,.19,1.57.19,1.57s-17.48-9.22-25.75-4.13c0,0-13,34.33-12.4,66.11.49,24.38,1,32.69,2.59,36.26a2.65,2.65,0,0,0,3.67,1.25l3.6-1.91s9.76,48.4,21.2,64.29c11.29,15.68,49.52,67.21,134.6,119.85a1.19,1.19,0,0,0,1.71-1.52Z"/><path class="cls-7" d="M281.87,142.59a110.61,110.61,0,0,0,16.61,14.2c6,4.1,12.47,7.64,19.48,9.51a34.9,34.9,0,0,0,10.7,1.18,29.17,29.17,0,0,0,10.42-2.54,30.09,30.09,0,0,0,15-15,28.42,28.42,0,0,1-14.68,15.82,29.54,29.54,0,0,1-10.74,2.72,34.65,34.65,0,0,1-11-1.26,61.66,61.66,0,0,1-19.62-9.86A97.55,97.55,0,0,1,281.87,142.59Z"/><path class="cls-15" d="M316.11,373.47c2.1-.32.29-11-.43-13a34.38,34.38,0,0,1-1.49-5s8.61,17.78,12.74,25.2c1.59,2.86,11.55,7.82,17.24,7.19,3.33-.37-2.5-28.2-3.36-30.92,1,2.37,12.35,33.37,14.05,36.42,10.82,19.42,36.95,21,37.26,20.9,3.19-1.4-4.13-22.08-11.34-41.51-3.25-8.76-18.07-65.41-23.76-75.61-12.23-22-55.62-66.92-88.6-36.74-7.68,7-10.62,22.42-10.15,38.15a230,230,0,0,0,11.94,35.12c1.71,3.88,3.79,10.37,6.63,12.46,1,.77,6,1.34,5.73.22a65.93,65.93,0,0,0-4.72-13.7s3.54,12.26,15.32,28.55C299.53,370,301.37,375.73,316.11,373.47Z"/><path class="cls-8" d="M311.66,285.58c.11-3.07-1.19-26.36-1.19-26.36l10.61,35.36c1,2.86,10,11.46,12.77,13,5.71,3.18,14.63,7.72,18.76,7.58,1.29,0,5.61-6.55,8.21-11.2-9.87-44.12-34.75-89.28-44.68-107.25-5.86-10.6-22.59-22.29-36-30.47.12,1,.19,1.57.19,1.57s-17.48-9.22-25.75-4.13c0,0-13,34.33-12.4,66.11.52,26.06.82,32.93,2.67,37.15a2.44,2.44,0,0,0,3.67,1l3.32-2.4c.49-3.19.82-6,.82-6s6.38,13.62,9,18c.27.45,11.16,8.6,12.85,8,3.19-1.18,4.36-20.41,4.36-20.41l8.63,23c.66,2.57,3.82,6.21,5.76,7.94,5.26,4.7,9.68,6.29,12.4,5.24C309.38,299.79,311.55,288.74,311.66,285.58Z"/><path class="cls-7" d="M328.49,391.77S363,420.39,369.3,424.06L369,434.37S355,418.77,328.49,391.77Z"/><path class="cls-15" d="M316.11,373.47c2.1-.32.29-11-.43-13a34.38,34.38,0,0,1-1.49-5s8.61,17.78,12.74,25.2c1.59,2.86,11.55,7.82,17.24,7.19,3.33-.37-2.5-28.2-3.36-30.92,1,2.37,12.35,33.37,14.05,36.42,10.82,19.42,36.95,21,37.26,20.9,3.19-1.4-4.13-22.08-11.34-41.51-3.25-8.76-18.07-65.41-23.76-75.61-12.23-22-55.62-66.92-88.6-36.74-7.68,7-10.62,22.42-10.15,38.15a230,230,0,0,0,11.94,35.12c1.71,3.88,3.79,10.37,6.63,12.46,1,.77,6,1.34,5.73.22a65.93,65.93,0,0,0-4.72-13.7s3.54,12.26,15.32,28.55C299.53,370,301.37,375.73,316.11,373.47Z"/><path class="cls-11" d="M248.67,263.92c1.25,6.42,3.81,18.06,7.09,26.32,2.4,6,6.42,13,8.28,14.51,1.49,1.21,8.58,8.39,10.43,6.82,1.36-1.16-8.27-29.17-8.27-29.17s14.58,33.22,17.15,36.76c12.62,17.44,23.19,20,21.77,10.94-.34-2.2-2.94-21.72-2.94-21.72s9.89,25.55,14.54,31.18c1.81,2.19,10.05,9.7,15.88,9.51,4.56-.15,3.16-26.43,2.51-27.08,0,0,7.34,21.41,9.24,24.82,1.48,2.67,12.49,4.73,15.42,4.44,3.53-.35,7.74-16.42,7.37-20-2.33-22.83-16.16-59.68-24.31-77.61-10.87-23.91-47.3-84.17-83-55C247.06,209.16,244.27,241.32,248.67,263.92Z"/><path class="cls-8" d="M311.66,285.58c.11-3.07-1.19-26.36-1.19-26.36l10.61,35.36c1,2.86,10,11.46,12.77,13,5.71,3.18,14.63,7.72,18.76,7.58,1.29,0,5.61-6.55,8.21-11.2-9.87-44.12-34.75-89.28-44.68-107.25-5.86-10.6-22.59-22.29-36-30.47.12,1,.19,1.57.19,1.57s-17.48-9.22-25.75-4.13c0,0-13,34.33-12.4,66.11.52,26.06.82,32.93,2.67,37.15a2.44,2.44,0,0,0,3.67,1l3.32-2.4c.49-3.19.82-6,.82-6s6.38,13.62,9,18c.27.45,11.16,8.6,12.85,8,3.19-1.18,4.36-20.41,4.36-20.41l8.63,23c.66,2.57,3.82,6.21,5.76,7.94,5.26,4.7,9.68,6.29,12.4,5.24C309.38,299.79,311.55,288.74,311.66,285.58Z"/><g class="cls-16"><path class="cls-13" d="M244.84,266.94a2.44,2.44,0,0,0,3.67,1l.78-.56c.19,1.23.4,2.44.63,3.63,1.25,6.42,3.81,18.06,7.09,26.32.65,1.63,1.41,3.32,2.22,5a235.42,235.42,0,0,0,11,31.45c1.71,3.88,3.79,10.37,6.63,12.46,1,.77,6,1.34,5.73.22-.46-2.08-1-4-1.59-5.78a123.22,123.22,0,0,0,12.19,20.63c4.94,6.84,7.15,11.81,14.86,12.6,2.18.22.54-.59,1.29.16,9.34,9.34,30.35,27.82,42.15,36.53,10.13,7.49,12.85,10.52,17.75,13.36,1.32.77,33.14,22.39,38.32,24.66-11.55-8.4-48.78-47.8-62.3-61.9-22.7-23.68-33.54-58.77-42.66-76.91-34.54-45.39-18-63.22-21.48-74.56-12.33-38-.81-67.38-.81-67.38s-17.48-9.22-25.75-4.13c0,0-13,34.33-12.4,66.11C242.69,255.85,243,262.72,244.84,266.94Z"/></g><path class="cls-10" d="M340.53,79.88c-.62-2.87-4-6.47-3.64-8.83,1.71-10.09-4.66-8.93-4.66-8.93s-15-.69-15.91-.69,1.84-3.23,1.84-3.23-7.38-.46-9.22-.46-5.76,5.3-5.76,7.84-6,10.73-7.38,16.14c-1.67,6.72,1.61,9.45,5.53,26.75,0,0,15.19,10.35,25.85-1.07S343,91.22,340.53,79.88Z"/><path class="cls-13" d="M276.48,127.34s6.51,13,20.72,10.06c4.44,0-.3,4.14,9.77,2.37s7-37-8.63-48.41c0,0-3.81-2.8-5.58,4S288,107.8,282.1,114.91,276.48,127.34,276.48,127.34Z"/><path class="cls-9" d="M289.37,62.18s1-8.26-10-7.92-18.94,2.41-19.63,5.85-17.9,45.11,4.82,84.7c8.25,12.54,5-8.89,17.54-24.06,9.29-11.23,16.22-20.94,15.25-26.48S295.1,63.49,289.37,62.18Z"/><path class="cls-13" d="M291.13,59.75a15.77,15.77,0,0,0-3.19,11.65c1,6.79-1.25,6.79.14,10.26s5,12.2,10.26,9.7.28-12.48,1.53-14.28-3.6-4.58-2.91-6.52.89-2.49-2.08-5.82C293.77,63.5,293.63,58.92,291.13,59.75Z"/><path class="cls-14" d="M261.42,95.84c-.6-6.34,3.78-30.27,5.68-40.18-4.25,1-6.95,2.51-7.34,4.45-.69,3.44-17.9,45.11,4.82,84.7,5.06,7.7,5.8,2.59,8.5-6C269.37,133,262.14,103.45,261.42,95.84Z"/></svg>