<svg id="Layer_2" data-name="Layer 2" xmlns="http://www.w3.org/2000/svg" width="600" height="589" viewBox="0 0 600 589"><defs><style>.cls-1{fill:#38667d;}</style></defs><title>premio4-1_block</title><path class="cls-1" d="M123.44,385.14l.69,1.63q.7,1.63,1.43,3.24c1.45,3.22,3,6.37,4.59,9.38q.8,1.5,1.63,3t1.68,2.85a80.59,80.59,0,0,0,5.34,7.76l-22.45-9h0s2.41,2.37,6.55,6.21l.91.84c1.47,1.35,3.11,2.86,4.93,4.49q1.81,1.63,3.83,3.41t4.22,3.68l1.48,1.28,3.08,2.62,3.21,2.69,1.65,1.36c6.11,5,12.8,10.25,19.7,15.23q2.82,2,5.69,4t5.74,3.82l1.92,1.23c2.56,1.62,5.11,3.16,7.65,4.6q1.9,1.08,3.79,2.09c2.47,1.32,4.92,2.53,7.33,3.61-2.35,10.54-4.41,20.23-4.41,21.83,0,3.72,5.21-3.72,5.21-3.72s6,35,8.19,39.45,5.21,1.49,5.21,1.49,15.63,17.12,23.07,17.12l-.69-2.39a37.63,37.63,0,0,0,3.82,1.28l-.54,1.14c-.39.85.59,1.77,4.46,1.42,17.49-1.59,18.21-1.53,40.82-4.11a2.19,2.19,0,0,0,.69-.21c7.76-.89,16.13-1.89,24.38-2.88-.34,1.45-.69,2.89-1.05,4.29-1.45,5.6-3.06,10.7-4.13,13.58-.71,1.94-1.34,5.56,5.81,4.67l7.6-1,1.22-.14h0v0L335.8,557l0-.22c9.8-.87,7.75-6,7.23-8-.39-1.48-3.8-11.44-5.41-16.73,13.16-1.62,22.4-2.79,22.4-2.79l11.32,2.66A97.3,97.3,0,0,1,369.58,546c-2.84,12.39,13.42,4.4,17.93,4.11,6.72-.4,14.54.78,14.78-2.43s-4.58-5.35-9.24-17.16l2.65-.59-.09.14s3.85-.66,4.58-.31c2.95,1.41,11,4.9,17.28,4.46,7.82-.56,23.51-7.84,10.45-17.51-9.11-6.74-14.5-1.54-18.26,1.2,3.72-5.71,6.66-13.36,5.22-22.44l5.94,2.47-11.72-34.61,6.7,5-11.24-56.18c1.6-6.09,2.68-9.69,2.68-9.69l5.09,3s5-65.54,19.38-123c5.16-20.68,8.4-25,8.4-25s-2.81.42-2.48-.83a44.93,44.93,0,0,1,2.65-5.93l.08-.15,2.25-7.74h0l17.78-2.66-2.82-4.2c3.69-1.64,14.91-2.05,19.79-1.92a.82.82,0,0,0,.57-1.42l-6.82-6.23a40.54,40.54,0,0,1,9.46,3,.81.81,0,0,0,1.1-1c-2.52-6.91-16.54-25.55-16.54-25.55l7.09.79-22.06-39.66,9.72,1.84c-8.14-8.41-20.75-44.65-20.75-44.65.37-.27.77-.61,1.2-1l.1-.08h0c9.09-7.87,30.49-35.45,30.49-35.45l-2.36-2.1,5.25-5.78-4.47-1.58L484,64.52l-9.19-3.41,22.06-12.87s-15.12,1-27,.89c-60.29-.56-63.66,12.51-63.66,12.51-28.37-10-95.09-7.62-95.09-7.62S299.69,35.17,295.78,30.7s1.12,13.4,1.12,13.4S247.77,24,244.42,24c-2.73,0,4.19,28.21,7.44,39.83h0l.2.73,0,.09.16.57,0,.15.14.48,0,.14.16.53v0l.16.52,0,.06.12.37,0,.12.08.25,0,.12.07.2,0,.1.06.16,0,.07.07.15c1.12,2.23-8.93,0-8.93,0,10,19.54,27.91,38,27.91,38l-26.3,91,7.75-6.46-9.86,48.24L255,221.06l-11.72,44.1,17.72-5h0l-5.28,32.35c-2.41,12.76-5.32,25.31-8,29.27l10.61-6,.22,1c-15.2,27.94-38.69,74-51,112.89h0c-.34,1.07-.66,2.13-1,3.19-15.31-14.24-36.59-37.17-42.71-59.43l-.9,11.67s-23.35-86.2-10.78-123.92c0,0-23.34,15.85-33.88,78.06l-.07.4q-.23,1.36-.45,2.76l-.11.69q-.25,1.63-.5,3.3l0,.1L113.66,342l-6.29-8h0S113.15,360.59,123.44,385.14Z"/></svg>