<svg id="Layer_2" data-name="Layer 2" xmlns="http://www.w3.org/2000/svg" width="600" height="589" viewBox="0 0 600 589"><defs><style>.cls-1{fill:#38667d;}</style></defs><title>premio_leccion_3_3_block</title><path class="cls-1" d="M477.48,481.48c-7.54-90.49-99.28-220.56-99.28-220.56C382,240.18,382,212.54,382,212.54h0c11.21-12.14,20.71-29.21,28.07-45.11l1.11-.49a8.43,8.43,0,0,1-.38-1.1c5-11,9-21.39,11.77-29l.48-.47.28-.27.79-.81.33-.34.72-.8.34-.39c.24-.28.47-.56.7-.85l.3-.37c.32-.41.62-.82.91-1.23,2.78-4,12.83-25.16-30.93-19.62l0,0c-10.19-1.69-23.22-10.89-34.94-18.39l-2.7-1.71a99.16,99.16,0,0,0-10.74-6,14.57,14.57,0,0,0-2.35-.82l-.88-.21q-.9-.2-1.89-.33l-1-.12q-1-.11-2.13-.16l-1.12,0q-1.13,0-2.33,0c-2,0-4.1.16-6.28.37-2.53.24-5.16.58-7.83,1C321.28,81,320,75,318.3,66.93h0l-.43-2.06c-5.66-27-39-22-59.7-21.37-8.24.25-11,11-11.38,23.88a183,183,0,0,0-25.07-27c-33.3-29.53-84.83-12.57-86.09,8.8h0c.79,19.24,4.09,35.36,9.14,48q.38,1,.77,1.88a74.44,74.44,0,0,0,8,14.53q1,1.37,2,2.64a49.15,49.15,0,0,0,4.27,4.63q1.1,1,2.24,2a37.83,37.83,0,0,0,4.21,3,33.63,33.63,0,0,0,3.44,1.86,29.62,29.62,0,0,0,10.76,2.77c.47,0,.94,0,1.41.05q1.32,0,2.65-.09a31.86,31.86,0,0,0,6.7-1.27,36.5,36.5,0,0,0,4.06-1.49q2.71-1.18,5.22-2.11t4.81-1.64a65.69,65.69,0,0,1,10.33-2.34c1.17-.16,2.28-.27,3.34-.35.6,0,1.18-.07,1.75-.09,10.36-.3,14.77,3.38,14.77,3.38s-.37.3-1,.94c-2.34,2.34-8.26,9.21-12.5,22.07a86.42,86.42,0,0,0-2.69,10.32q-.53,2.69-.94,5.64c0,.31-.09.63-.13.95a134.91,134.91,0,0,0,.31,34.23v.07c.3,2.06.55,4.12.78,6.17.09.78.16,1.57.24,2.35q.18,1.87.32,3.74c.07,1,.15,2,.21,2.93.1,1.69.17,3.38.23,5.07v0c2.35,69.42-32,137.56-19.4,223.44,13.64,66.17,30.62,93.08,55.55,104.27a34.93,34.93,0,0,0-4.16,8.15s11.74,12.5,32.28,11.36c16.43-.91,20.34-8.43,21.25-11.4,3.94.11,8,.19,12.23.26h.58l5.18.09h0l6.54.13,1,0,3.42.09h.52l3.87.12h0a325.3,325.3,0,0,0,36.82-.8,26.91,26.91,0,0,0-1.1,2.73s11.74,12.5,32.28,11.36,21.52-12.61,21.52-12.61A27.2,27.2,0,0,0,423,546.15C457.71,535.05,480.1,514.08,477.48,481.48Z"/></svg>