<svg id="Layer_2" data-name="Layer 2" xmlns="http://www.w3.org/2000/svg" width="600" height="589" viewBox="0 0 600 589"><defs><style>.cls-1{fill:#38667d;}</style></defs><title>premio_leccion_6_2_block</title><path class="cls-1" d="M572.9,267s2.07-7.45-55.49,3.73c-36.45,7.08-59.6,4.86-71.69,2.28,5.54-15.91-1.89-22.61-1.9-22.61h0a15,15,0,0,1-1-1.9c.27-.87.51-1.74.69-2.61,2.36-10.77-2.1-24.4-8.77-27.95-8.75-14.37-28.45-15.43-28.45-15.43a15.06,15.06,0,0,0-1-6.6,75.75,75.75,0,0,0-18.19-35,78.23,78.23,0,0,0-15.31-12.83c-.84-.53-1.68-1-2.52-1.52l-.77-.44-1.83-1-.8-.43q-1.06-.57-2.13-1.1l-.41-.21q-1.26-.62-2.52-1.19l-.71-.32-1.85-.8-.83-.34-1.93-.76-.61-.24q-1.25-.47-2.49-.89l-.61-.2-1.91-.61-.83-.25-1.81-.52-.72-.2q-1.23-.33-2.45-.62l-.43-.1-2-.46-.79-.16-1.75-.34-.76-.14c-.78-.14-1.56-.26-2.33-.38h-.08c-.8-.12-1.6-.22-2.4-.32l-.72-.08-1.72-.18-.74-.07-2-.16-.35,0-2.33-.13-.58,0-1.76-.05h-2.93l-2.26,0h-.33l-1.89.07-.54,0-1.79.11-.39,0q-2.18.16-4.28.39l-.37,0-1.8.22-.27,0q-2.09.28-4.07.61l-.11,0-1.86.33-.12,0a102.92,102.92,0,0,0-22.68,6.74s-5.25-48.41-10.5-46.91-14.25,58.49-14.25,58.49a199.24,199.24,0,0,0-37.14,22,52.2,52.2,0,0,1,1.26-25.94C261.06,121.64,251.1,88,246.8,88s-1.65,16-12.91,17.45c-33.09,4.38-31.49,18.88-31.49,18.88s-4.84-11.57-18.3-6.46c-25.84,10.23-32.83,2.42-39.56-.81s-9.42-5.38-7.27,4c14.53,40.37,60.95,33.85,60.95,33.85-15.5,31-18.09,50.33-17.7,60.84-27.22,49.49-4.19,98.78-4.19,98.78-3-.75-43.49,14.25-72,24s-68.24-6.75-70.49,11.25c-.51,4.1,1.66,7.49,5.7,10.34l-1-.44c1,5,29,15.62,63,19.34,49.44,5.41,101-23.23,101-23.23,33.08,48.51,89.35,59.92,129,56S419.09,375.32,426,366.4a36.78,36.78,0,0,0,3.85-5.87l.43-.54c.36-.45.73-.9,1.08-1.35l.42-.55q1.89-2.46,3.52-4.94l.34-.52c.3-.47.6-.94.89-1.41l.42-.68q.42-.69.81-1.37l.4-.7q.39-.69.77-1.38l.35-.66c.25-.48.5-1,.74-1.43l.24-.48q1.31-2.65,2.38-5.28l.08-.19c.21-.52.41-1,.6-1.55l.19-.51c.18-.49.36-1,.53-1.47l.19-.56q.25-.74.48-1.47c-.07.6-.11.94-.11.94.2-.8.37-1.58.56-2.36l.17-.61.08-.3q1-3.62,1.66-7.15l0-.17q.15-.82.28-1.63l0-.28q.13-.81.23-1.61l0-.23q.11-.84.21-1.67l.85-.67.12-.09.78-.59.19-.14.77-.56.24-.17.78-.54.27-.19.82-.54.29-.19.87-.56.3-.19.94-.58.29-.17,1.1-.65.19-.11q2-1.16,4.33-2.36l.38-.19,1.18-.59.54-.26,1.1-.53.62-.29,1.09-.51.69-.31,1.1-.49.74-.33,1.13-.49.78-.33,1.18-.49.81-.33,1.25-.5.81-.32,1.37-.53.79-.3,1.62-.6.62-.23,2.32-.83.47-.16,1.94-.67.9-.3,1.59-.53,1.07-.34,1.53-.48,1.15-.36,1.53-.47,1.23-.37,1.57-.46,1.27-.37,1.62-.46,1.32-.37,1.67-.45,1.37-.37,1.76-.46,1.37-.35,1.88-.47,1.35-.34,2.12-.51,1.21-.29,3.15-.73.28-.06.45-.1,2.67-.61,1.17-.27,1.86-.44,1.3-.31,1.61-.39,1.3-.32,1.53-.38,1.27-.32,1.43-.36,1.24-.32,1.38-.36,1.19-.31,1.33-.35,1.13-.3,1.3-.35,1.07-.3,1.27-.36,1-.28,1.3-.38.87-.25,2-.6.87-.27,1.11-.34.94-.3,1-.3.92-.3.88-.29.9-.3.81-.27.88-.3.75-.26.85-.3.69-.25.83-.3.64-.24.81-.31.56-.22.81-.31.44-.18c1.44-.58,2.76-1.14,3.94-1.68l.26-.12.73-.34.28-.13.67-.33.27-.14.63-.32.25-.13.6-.32.22-.12.57-.32.18-.1.56-.33.11-.07C576.87,269.85,572.9,267,572.9,267ZM72.06,370.58c9.6,1.7,19.94,3,29.67,4.08A176.9,176.9,0,0,1,72.06,370.58Z"/></svg>