<svg id="Layer_1" data-name="Layer 1" xmlns="http://www.w3.org/2000/svg" width="600" height="589" viewBox="0 0 600 589"><defs><style>.cls-1{fill:#e4dfc8;}.cls-2{fill:#c4ba8e;}.cls-3{fill:#ebe0aa;}.cls-4{fill:#d7cfad;}.cls-5{fill:#8f8767;}.cls-6{fill:#aba27c;}.cls-7{fill:#ddcf94;}.cls-8{fill:#82af75;}.cls-9{fill:#d95551;}.cls-10{fill:#fff;}.cls-11{fill:#333;}.cls-12{fill:#232622;}.cls-13{fill:#faf8ec;}.cls-14{fill:#a33633;}.cls-15{fill:#913431;}.cls-16{fill:#e0d8b5;}.cls-17{fill:#d1c282;}.cls-18{fill:#c1a865;}</style></defs><title>premio_L7_descubierto</title><path class="cls-1" d="M260.49,441.54s16.62,8.31,36.47,32.78c8.77,12,6.93,20.78-.46,47.09-2,8.89-.86,20.26-8.9,21.1a4.93,4.93,0,0,1-5.07-3.31c-4-11.18-19.49-50.76-42.36-68.11Z"/><path class="cls-2" d="M180.19,489.42s.18,28.77,12.91,45a1.32,1.32,0,0,0,2.37-.76c.23-9.7.13-40.09,4.56-42.75Z"/><path class="cls-3" d="M306.4,263.62S275.51,201.83,241,200.94s-80.34,90.52-103.88,117.31c-29.1,33.13-23.21,109.29,4.1,151.38,3.9,6,27.74,17.06,22.84-1.34-1.79-6.72-7.14-10.94-11.72-27.35-10.64-38.16-16.24-99.34,21.49-133.88,52.83-48.36,37.61-64.48,61.79-69.4C267.72,231.13,306.4,263.62,306.4,263.62Z"/><path class="cls-4" d="M257.67,445.64l-17.49,25.44c22.87,17.35,38.33,56.93,42.36,68.11a4.93,4.93,0,0,0,5.07,3.31,6.31,6.31,0,0,0,4.15-2c-3.23-7.07-8-18.19-3-34.49C295.78,483.13,270.58,457.12,257.67,445.64Z"/><path class="cls-5" d="M234.76,229.84a35.7,35.7,0,0,1,8.67-1.32,13.37,13.37,0,0,1,8.8-2.38c5.88-7.71,9.81-8.27,9.81-8.27q-.19-1-.38-2c-5.13-3.52-14.74-6.86-27.37,3.31C215,234.73,205.1,243.2,207.45,255a2.51,2.51,0,0,0,.36.9C214.89,244.5,223.75,233,234.76,229.84Z"/><path class="cls-6" d="M212.16,288.41c21.66-21.19,41-16.48,59.33-15.54s27.31-6.59,38.61,3.77c3.54,3.24,7.63,7.09,11.59,10.84-4.27-14.12-16.69-44.82-44.11-46.21,0,0-20.66-17.71-42.82-11.42s-35.63,46.71-43.41,51.2c-2.71,1.57-12.12,7.65-22.49,19.3C183.06,302.73,193.95,306.22,212.16,288.41Z"/><path class="cls-7" d="M138,431s28.34,62.37,38.92,62.37,51.69,5.14,94-48.67c21.46-25.39,24.79-34.46,26-42.32a35.55,35.55,0,0,0,13-27.81S321.4,354,322.31,333.76c0,0,11.79-9.37,5.14-27.51,0,0,3.33-4.84-3.93-11.79,0,0-.55-2.75-1.83-7-4-3.75-8-7.6-11.59-10.84-11.3-10.36-20.25-2.83-38.61-3.77s-37.67-5.65-59.33,15.54c-18.21,17.82-29.1,14.33-43.31,11.92C149.47,322.1,126.72,363.34,138,431Z"/><path class="cls-8" d="M249.53,260.78s5.4,9.7,20.69,5.74c0,0-10,5.33-14.56,2.76A13.12,13.12,0,0,1,249.53,260.78Z"/><path class="cls-9" d="M116.36,368.25s3.61,7.93,9.38,11.54,5.77-6.49,7.21-9.38,5.77-11.54,2.16-16.59-8-19.64-8-19.64S117.08,350.94,116.36,368.25Z"/><path class="cls-9" d="M140.88,309.83s9.38.72,11.54,2.89-3.61,5.77-7.21,15.87-5.77,17.31-9.38,13-7.21-14.43-7.21-14.43Z"/><path class="cls-9" d="M157.11,284.41s8.66.27,11.36,6.76-4.33,8.38-5.41,9.74-2.43,7.3-4.6,7.3-2.16,1.62-11.9-3Z"/><path class="cls-9" d="M116.81,383.13s5.41,6.49,8.66,7.84,5.68,1.35,6,5.41-.81,9.2-.81,11.63,2.43,8.93,2.7,12.71,1.89,7.3-2.16,6.49a18.31,18.31,0,0,1-8.66-3.79C120.05,421.53,116.81,383.13,116.81,383.13Z"/><path class="cls-9" d="M218.78,209.48s14.06-12.71,27-8.66c0,0,3,3.52,1.89,7.3s-7,1.89-8.66,2.16-1.35,4.06-5.68,4.06S225.27,209.48,218.78,209.48Z"/><path class="cls-9" d="M212.55,214.62s11.36,1.62,11.63,3.52-1.35,7-8.11,9.47-5.41,9.2-10.28,16.5-13-1.35-13.52-6.22C192.27,237.88,201.74,223.55,212.55,214.62Z"/><path class="cls-9" d="M124.11,430s3.56,2.76,6.53,2.76,4.55-.18,5.91,4.15.54,8.11,3.79,11.9,6.76,9.74,4.87,11.63-4.6,3.79-11.63.81S124.11,430,124.11,430Z"/><path class="cls-1" d="M240.47,255.15c2.14,7.67,12.92,21.38,29.75,11.38,0,0,8.64,5,26.38-5s48.66-31.83,52.75-41.84,10-34.11,15.46-39.11.93-12.28,2.29-14.1c.53-.71,2.33-5.75,2.36-12,0-3-2-6.4-2.83-9.67-1-4.11-1.18-5.08-3.45-7.46-3.82-4-9.76-7.23-18.84-8.65C315,113,320.9,106,277.56,121.11c-17.5,6.08-23.26,57.65-15.53,96.76,0,0-3.93.56-9.81,8.27C252.22,226.14,231.66,223.56,240.47,255.15Z"/><path class="cls-4" d="M349.44,219.45A13.44,13.44,0,0,0,345,211c-7.93-6.49-21.64-.72-21.64-.72-41.7,21.66-58.59-17.66-64.42-38.61a192.61,192.61,0,0,0,3.1,46.17s1.73,8.76-.62,12.81c-4.53,7.82,7.82,19.14,14.06,23.15,1.36.87-12.53.89-19.51-13.76-2-4.11-9.64-4.29-8,6,.32,2.06-2.25-2.89-5.45-2.09-3.63.91-3.14,3.88-3.43,5,.35,1.9.81,3.93,1.43,6.16,2.14,7.67,12.92,21.38,29.75,11.38,0,0,8.64,5,26.38-5s48.66-31.83,52.75-41.84Z"/><path class="cls-6" d="M276.48,186s-2.58,1.29-.43,2.79,7.42,5.09,28.27-5.66,22.49,1,36.67-1.59c5.8-.64,7-5,16.19-3,4.21-.25,2.58-3.45,1.59-3s-1.86,1.73-7.3,1.24-9.65,5.82-23.39,1.11-21.16,2.35-36.25,8.54S281.52,185.9,276.48,186Z"/><path class="cls-4" d="M270,173.83s1.48,7.83,14.42,7.73,17.11-12.22,17.11-12.22-.51-.41-1.63,1.12S296,179,284.82,178.91,270.47,172.83,270,173.83Z"/><path class="cls-10" d="M305,153.05c0,9.84-8.08,20.28-16.81,20.28s-20.87-4.65-20.86-14.49c0-8.87,13.4-23.75,23-23.75C302.29,135.1,305,143.21,305,153.05Z"/><path class="cls-4" d="M267.75,145.4s-.67,1.47.53,1.07,11.8-15.87,19.37-15.15c6,.57,12.94,5.53,13.47,4.73s-9.57-7.45-14.28-6.94C276.3,130.24,267.75,145.4,267.75,145.4Z"/><path class="cls-10" d="M368.89,154.58c0,9.26-3,13.25-9.33,13.25s-11.5-7.51-11.5-16.77,4.66-17.23,10.82-15.69a9.11,9.11,0,0,1,6.36,7.76C365.84,147,368.89,150.58,368.89,154.58Z"/><path class="cls-11" d="M365.64,149.44c.81,3.25,4.33,13-6,13-3.73,0-7.84-5.48-7.84-11.9s.05-11.36,3.79-11.36S364.08,143.21,365.64,149.44Z"/><path d="M364.56,149c0,4.85-1.7,8.79-3.79,8.79S357,153.89,357,149s.47-8,2.56-8S364.56,144.18,364.56,149Z"/><path class="cls-10" d="M359.52,142.14a5.35,5.35,0,0,0,1.64,6c3,2.71,2.9.95,2.4-1.22S362.17,142.14,359.52,142.14Z"/><path class="cls-12" d="M299.49,147.4c0,6.58-6.05,11.92-13.52,11.92s-13.23-6-13.23-12.59c0-.92,8.14-11.21,17.56-11.61C297.77,134.79,299.49,140.82,299.49,147.4Z"/><path class="cls-6" d="M260.23,257.86s13.66,19.75,41.76.89c0,0-15.11,13.22-30.65,8.86C262.43,265.11,260.23,257.86,260.23,257.86Z"/><path class="cls-13" d="M123.7,426.94a7.92,7.92,0,0,1,2.16,1.62c.41.68,1.22-.81,2.16-.14a7.68,7.68,0,0,0,5.27,1.49c2.43-.27,3.11-1.89,2.84-3.38s-1.76-5.27-1.49-6.76a42.08,42.08,0,0,0,.27-5.41,6.81,6.81,0,0,1,.68-2S137.54,429.51,138,431l4.24,9.6s-1.22.54-1.49,0-.81-2.84-1.49-3.11,0-2.3-.81-3.38-1.22-3.38-2.43-3.11-3.38-.41-5.41-.27-2.7-1.35-3.52-.68-1.35-.54-2.84-1.08Z"/><path class="cls-13" d="M118.55,377l-.11,2.28s2.39,3,3.15,3,6.64.87,7.51,3.37,3.81-1.31,4-.87,1.52,1.63,1.09,2.94-.87,4.24-.54,4.68.44,6.09,1.2,5.66c0,0,.54-14.14.76-16.75s1.2-10,1.2-10a12.08,12.08,0,0,0-1.52,2.72c0,.54-.44,5-1,5.55s-.22,2.83-.54,3.15-2.5,2-3.26,1.09-6.42-3-8.27-2.5C122.25,381.39,119.09,379.54,118.55,377Z"/><path class="cls-13" d="M128.69,331l-1,1.88s.75.23.75.71a2.54,2.54,0,0,0,.9,2.47,8.73,8.73,0,0,1,2.28,3.37c.24.81,1.85,4.84,2.75,5.36s2.83,4.6,3.78,6c1.32,2,1.2,3.49.4,6.43s-.71,5.36-1.33,6.35.09,3.6.09,3.6l3.37-14.27L145,339.84s-2.24,1.37-2.33,3-2.37,2.29-1.81,3.79-.64,4.81-.78,4.14c-.24-1.14-4.14-6.9-4.85-7.13s-2.33-3.67-2.38-4.82c0-.91-2.09-3.4-2.7-3.7-1.08-.52-.43-2.94-1.09-2.94S128.69,331,128.69,331Z"/><path class="cls-13" d="M145.79,306.93l-.89,1.25s2.07-.09,2.66.45a3.46,3.46,0,0,0,2.6,1.26,2.37,2.37,0,0,1,2.51,1.2c.69,1,3.17.75,3.5,1.35s1.11,1.08.9,2.16S154.84,317,154.9,318s-1.8,1.92-1.8,2.6a5.43,5.43,0,0,0,.21,1.38l6.2-9.85,3.77-5.09s-1.41-.15-1.62.51a6.3,6.3,0,0,1-2.16,2.69c-.84.42-.54,2.3-1.59,1.77s-.84-.84-1.89-.84a4.25,4.25,0,0,1-3.29-1.59c-.75-1.08-2.6,0-3.32-.66s-2.36-1.2-2.81-1.62A1.27,1.27,0,0,0,145.79,306.93Z"/><path class="cls-14" d="M121.95,422.53s6.8,2.89,9.92,2.89c1.62,0-2.79-14.46-2.53-16.82s.77-11.42-1.34-14.46c-1.45-2.1-8.53-3.8-9.05-4.71a20.19,20.19,0,0,0-1.78-2.36l2.93,26.57Z"/><path class="cls-15" d="M117.45,389.74s.42,2.95,1.21,3.21,8.15,1.06,8.27,4c.29,7.27.43,10.57.29,12-.2,2.16,2.51,13,1.57,13.95-.62.62-7.32-2.21-7.63-3.77C119.44,410.48,117.31,391.71,117.45,389.74Z"/><path class="cls-14" d="M124.48,339.29l5.17,8.12S134,358,133.9,358.71s-3.48,8.79-3.48,11.2-2.51,8.89-3.67,8-7.23-9.16-7.23-9.16-2.82-5.52-2.62-7A112.19,112.19,0,0,1,124.48,339.29Z"/><path class="cls-15" d="M118.65,354.08,123,342.51s3.51,6,3.76,9.61c.18,2.49,5.62,3.06,4.63,7.27-.21.89-3.19,9-3.09,10.53s-1.19,3.4-2.44,3.28c-2.3-.23-2.53-5.35-4.6-5.49-1.92-.13-4.07-7.64-4.07-7.64Z"/><path class="cls-2" d="M242.5,473.1s20.36-17.6,26.65-26.31c0,0-3.93,16.31-22,30.39Z"/><path class="cls-6" d="M238.22,244a16.06,16.06,0,0,1,1.18-12.93c2.69-4.54,7.86-6.07,12.83-4.94-4.36.86-8.42,1.93-10.92,6C239.14,235.58,238.5,240,238.22,244Z"/><path class="cls-6" d="M246.1,240.07c-.81-4.91,1.32-10.35,4.18-14.24a21.91,21.91,0,0,1,11.76-8c-3.72,2.92-7.45,5.58-10.21,9.52A36,36,0,0,0,246.1,240.07Z"/><path class="cls-6" d="M243.78,261.42a28.92,28.92,0,0,0,12.4,6.36,22.12,22.12,0,0,0,6.9.14c2.42-.24,4.42-1.39,6.8-1.83,0,.06,1.09.52,1.12.58-4.49,2.4-10.07,4.33-15.27,3.22a19.59,19.59,0,0,1-12.13-8.35Z"/><path class="cls-6" d="M260.54,207.38c.77,4.1,1.69,8.15,2.38,12.29a23.65,23.65,0,0,1,.49,6.36,10.18,10.18,0,0,1-2.48,5.91l-.13-.08a17.34,17.34,0,0,0,1.11-5.93,60.28,60.28,0,0,0-.18-6.1c-.19-2.06-.45-4.13-.7-6.2s-.44-4.15-.63-6.23Z"/><path class="cls-4" d="M345.88,140.26c-.21.41-2,1.8-.91-2.1s2.78-6.37,4-6.37,7.39.6,8.57,1.26c.69.39,2.74,1.78,2.74,1.78s-10-1.93-11-1.37S346.66,138.75,345.88,140.26Z"/><path class="cls-16" d="M320.74,148.63l-4.6,6.22s-6-.81-6.49,0-.27-8.11-1.62-8.66,8.66-7.57,9.47-5.14S320.74,148.63,320.74,148.63Z"/><path class="cls-16" d="M307.36,143.78a45.34,45.34,0,0,0,7.18-4.68c1.12-1-1.4-3.43-3.54-6.42-1.62-2.27-7.7-.13-8.17,1C301.5,136.75,307.36,143.78,307.36,143.78Z"/><polygon class="cls-16" points="318.6 139.88 322.5 148.93 334.37 149.71 333.59 141.12 326.1 137.53 318.6 139.88"/><path class="cls-16" d="M311.84,130.51,318.2,138a26.46,26.46,0,0,0,7.29-2c2.17-.93,7.16,3,7.16,3s-2-7.18-3-9.68c0,0-8.2-3.69-10.55-2.94C316.19,127.25,311.84,130.51,311.84,130.51Z"/><polygon class="cls-16" points="335.22 149.75 339.04 153.57 344.3 151.2 342.85 141.99 338.84 140.44 334.56 141.2 335.22 149.75"/><polygon class="cls-16" points="330.88 128.83 334.43 139.49 339 139.66 342.59 140.67 344.04 131.48 336.4 127.91 330.88 128.83"/><path class="cls-6" d="M333.88,162c-.33.28-4.24-1.77-4.24-1.77s-1.1-4.38-.49-4.69c.39-.2,2.08.87,3.26,2.18S334.26,161.7,333.88,162Z"/><path class="cls-6" d="M321.66,163c.38.21,3.82-2.55,3.82-2.55s.23-4.51-.42-4.7c-.42-.12-1.87,1.25-2.78,2.77S321.23,162.77,321.66,163Z"/><path class="cls-16" d="M300.89,132.3l8.63-2.42-4.94-7.26s-9.39,0-9.79.79a37.57,37.57,0,0,0-1.28,5.29Z"/><path class="cls-14" d="M129.69,325.64s7,15.21,7.86,14.54,11-22,11.82-24.3-9.6-4.43-9.6-4.43Z"/><path class="cls-15" d="M130.59,324.38l3.32,7.63s1.83,4.7,3.2,4.53c3.46-.44,3.85-10.15,6.28-12.45,1.76-1.67,3.27-5.47,2.46-7.47-.42-1-3.22-1.1-4.31-1.41a26.61,26.61,0,0,1-3.31-1.6Z"/><path class="cls-16" d="M310.75,129.27s7.29-5.12,8.69-4.81,9.31,3.26,9.31,3.26-6.36-8.85-8.54-9.16-7-2.64-9.16-.93c-2.54,2-4.81,3.1-4.5,4.35S310.75,129.27,310.75,129.27Z"/><path class="cls-16" d="M303.93,121.66s-9.62-.31-10.4,1.09-.93,5.28-.93,5.28-6.82-1.7-10.54-2.85c-1.26-.39-1.61-4.58-.78-5.06a30.93,30.93,0,0,1,6.44-2.44s8.62-2.83,9.4-2.83S303.93,121.66,303.93,121.66Z"/><path class="cls-16" d="M305,120l-5.2-5.63s4.15-.86,6.05-1.16a40.16,40.16,0,0,1,7.21-.35,29.88,29.88,0,0,1,5.64,1.33l.88,2.71s-6.58-1.31-8.69-.78C309.2,116.51,305,120,305,120Z"/><path class="cls-16" d="M322.18,118.08l8,9.13,5.54-.68,8.07,4-.19-2s-21.67-13.7-23-13.6l.39,2.14Z"/><path class="cls-14" d="M147.17,304.13s10.81,3.16,11,2.11,1.49-7.12,4-7.65,7.3-6.42,2.2-9.49-7.91-3.25-7.91-3.25Z"/><path class="cls-15" d="M148.22,302.37s8.62,3.08,8.7,1.85,1.41-6.51,4-7.38,4.84-6.07,2.29-6.51-4.31-3.25-5.36-3.08a10.52,10.52,0,0,0-2.81,1.32Z"/><path class="cls-14" d="M209.82,217.25s12.73-.09,11.94,2-14,9.92-14,12.26-2.32,11.65-5.78,12.86-8.85-5.46-7.92-8.24C194.6,234.61,196.18,230.37,209.82,217.25Z"/><path class="cls-15" d="M207.79,219.1s2.78-1.3,4.81.74-6.48,6.85-7.22,8.52-2.57,11.26-4.63,11.48c-5.18.56-5.55-6.11-5.55-6.11S202.23,223.73,207.79,219.1Z"/><path class="cls-14" d="M220.75,207.81s10.18,3,11.67,3.52,3.33-5.74,5.18-5.37,3.24,2.41,5.6,2.09,2.62-7.22,2.62-7.22-6.24-2-14.41.93S220.75,207.81,220.75,207.81Z"/><path class="cls-15" d="M223.1,205.85s7.54,3.66,8.39,2.25,1.48-3.59,2.82-3.59,4.72-.78,5.5.07,5.57-.42,4.51-2.61a3.23,3.23,0,0,0-3.31-1.83A29.73,29.73,0,0,0,223.1,205.85Z"/><path class="cls-9" d="M161.32,278s6.69,9.86,11.2,8.28c1.64-.58,3.53-6.45,6.82-7.43s11.44-10.59,10.71-12.05-14.73-12.17-15.82-10.22S161.32,278,161.32,278Z"/><path class="cls-14" d="M164,273.47s-.26,4.86.59,5.71,7.06,6.21,9,3.77,5.23-7.55,9.13-9.13,4.75-7.55,3.41-7.67-12.9-7.79-12.9-7.79Z"/><path class="cls-15" d="M165,271.87s1.22,4.21,2.61,5.71,5.49,3.77,8.7-1,5.43-6,6.32-7.26-5.54-3-7-6.32-2.83-3.82-2.83-3.82Z"/><path class="cls-1" d="M214.15,284.09c4.58-2.82,5.69-5.33,8.77-7.86,6.56-5.38,14.06-14.73,5.6-20.5-11.9-8.11-15.69.54-26.51-11.36S136,180,104.1,135.65,46.76,44.77,39.18,48s5.41,31.92,2.7,54.64,20.56,125,82.22,150.38c29.75,13,32.46,4.33,47.06,20,4.61,4.95,11.82,7.74,18,8.95.89.17-1.77,2.81.62,3.74C206.18,292,210.59,286.28,214.15,284.09Z"/><path class="cls-4" d="M130.06,203.8C86.11,176.27,51.88,95.49,36.79,54.47c.22,10.42,7.14,31,5.1,48.17C39.18,125.37,57.51,224.17,124.11,253c29.78,12.91,32.46,4.33,47.06,20,10.53,11.31,28.94,10.25,38.39,8.77.39-.06.77-.14,1.15-.22C218.22,268.32,190.93,241.94,130.06,203.8Z"/><path class="cls-6" d="M209.9,249.9c-3.3-.4-6.33-3.9-6.33-3.9s5.83,10.37,16.25,13c3.17.81,4,3.4,4,1.94S215.83,250.61,209.9,249.9Z"/><path class="cls-6" d="M196.2,286.64c-5-.59-6.27-3.9-5.9-3.79,7.3,2.22,19.75,0,20.24-.87.8-1.46-1.53-.8-5.32-.51-1,.07-4.66.3-14.46-.72-11.9-1.25-23.67-11.23-25.94-13.91,8.24,9.72,16,14.24,23.78,15.36.64.09-3.85,6.5,7.08,7.92,5.09.66,13.74-.87,16.88-4.87C211.18,287,199.33,287,196.2,286.64Z"/><path class="cls-4" d="M144.15,184.15l-4.84.45-11.42,6.76-6.49-4.87s0-10,2.25-12c2-1.81,10.73-1,10.73-1Z"/><path class="cls-4" d="M133,171.63l-11.46.38-9.74-7.45s.76-6.11,2.86-6.68,8.4,1.91,8.4,1.91Z"/><polygon class="cls-4" points="110.86 166.09 120.59 173.35 118.88 185.95 108.13 185.11 100.16 175.83 110.86 166.09"/><polygon class="cls-4" points="98.06 172.97 109.9 163.8 112 155.78 106.84 148.91 98.63 149.86 90.37 162.91 98.06 172.97"/><polygon class="cls-4" points="108.42 142.14 108.42 148.63 113.34 154.45 120.59 157.5 108.42 142.14"/><polygon class="cls-4" points="88.7 159.98 98.06 147.38 95.58 136.69 85.84 133.44 77.51 143.51 88.7 159.98"/><polygon class="cls-4" points="99.59 146.62 106.65 146.04 107.23 139.74 101.5 131.72 97.3 136.31 99.59 146.62"/><polygon class="cls-4" points="85.27 130.96 95.77 134.4 99.78 129.81 91.38 118.16 81.45 117.02 85.27 130.96"/><polygon class="cls-4" points="76.1 140.31 83.74 131.72 78.97 117.59 70.94 117.02 67.89 125.99 76.1 140.31"/><polygon class="cls-4" points="90.11 115.83 77 115.4 70.56 106.38 72.5 99.72 80.66 101.44 90.11 115.83"/><polygon class="cls-4" points="65.84 121.41 69.7 114.11 74.43 113.9 68.84 105.52 61.76 103.59 59.18 108.31 65.84 121.41"/><polygon class="cls-4" points="110.22 187.29 120.74 188.63 129.47 195.12 130.14 199.82 124.54 200.72 110.22 187.29"/><polygon class="cls-4" points="129.9 193.11 139.24 186.67 146.33 186.35 156.54 197.54 146.92 199.01 132.15 199.17 129.9 193.11"/><polygon class="cls-4" points="126.78 201.83 137.07 200.72 146.25 200.49 151.97 209.65 148.04 211.68 141.78 211.23 126.78 201.83"/><polygon class="cls-4" points="157.72 198.89 147.69 200.36 153.29 209.21 158.31 210.68 162.87 207.88 163.02 204.05 157.72 198.89"/><polygon class="cls-4" points="153.44 210.83 145.92 213.92 156.83 221.29 161.4 216.72 158.45 212.45 153.44 210.83"/><polygon class="cls-4" points="165.82 207.59 159.63 211.56 163.02 217.61 166.71 219.52 172.16 217.6 171.93 213.39 165.82 207.59"/><polygon class="cls-4" points="158.6 222.47 161.99 218.79 168.33 221.15 170.29 227.65 167.3 228.96 158.6 222.47"/><polygon class="cls-4" points="175.4 217.31 169.59 220.87 172.16 227.78 180.27 228.37 180.91 222.89 175.4 217.31"/><polygon class="cls-4" points="172.31 229.1 169.13 230.68 181 238.98 186.16 236.18 181.89 229.99 172.31 229.1"/><polygon class="cls-4" points="182.78 224.76 182.45 228.58 188.52 236.99 192.27 237.88 192.31 234.48 182.78 224.76"/><polygon class="cls-4" points="182 239.89 187.1 237.14 192.11 238.61 196.04 243.03 194.28 245.88 188.38 245.09 182 239.89"/><polygon class="cls-4" points="193.49 235.37 193.1 238.71 196.83 242.93 200.07 244.11 200.66 242.84 193.49 235.37"/><polygon class="cls-4" points="197.51 244.57 201.55 246.03 202.03 249.09 197.03 250.55 194.77 247.16 197.51 244.57"/><polygon class="cls-4" points="203.48 247.96 202.68 250.38 206.39 252.32 206.55 250.38 203.97 246.03 203.48 247.96"/><polygon class="cls-4" points="201.83 250.26 204.13 252 206.16 252.84 204.61 256.03 201.22 255.87 198.22 251.63 201.83 250.26"/><polygon class="cls-4" points="207.59 251.25 206.06 255.08 208.25 256.95 211.87 256.67 211.7 254.97 207.59 251.25"/><polygon class="cls-4" points="205.77 256.46 204.18 257.84 205.99 259.85 209.91 259.21 209.59 257.63 207.57 257.73 205.77 256.46"/><polygon class="cls-4" points="205.14 262.08 209.27 261.02 211.92 263.77 210.75 266.84 208.21 266.31 205.14 262.08"/><polygon class="cls-4" points="212.98 259.32 212.02 261.76 214.35 263.88 216.26 263.03 215.73 260.06 212.98 259.32"/><polygon class="cls-4" points="213.23 265.53 212.07 269.02 213.47 271.81 217.42 271.35 217.35 265.88 213.23 265.53"/><polygon class="cls-4" points="218.78 260.06 218.78 262.23 221.15 262.74 222.08 260.88 219.81 259.03 218.78 260.06"/><polygon class="cls-4" points="222.02 266.55 222.02 269.8 225.34 269.49 225.8 266.69 223.48 265.06 222.02 266.55"/><polygon class="cls-4" points="219.22 274.73 218.57 276.87 219.86 278.45 222.04 276.6 221.13 274.77 219.22 274.73"/><polygon class="cls-4" points="213.86 273.52 212.78 275 213.84 276.29 216.61 276.29 215.68 273.68 213.86 273.52"/><polygon class="cls-4" points="69.93 102.41 70.5 97.78 78.79 98.96 60.32 70.78 55.78 76.36 55.9 80.63 61.27 93.04 69.93 102.41"/><polygon class="cls-4" points="57.48 105.59 60.32 100.62 66.24 101.56 59.14 93.99 53.13 78.67 47.77 78.12 47.06 81.2 57.48 105.59"/><path class="cls-17" d="M230.29,344.13C180,345.75,161,315.34,154.55,320.2c-3.18,5.27-10,16.24-7,19.63,63.4,34.9,125.47,11.73,153.1,4a56.6,56.6,0,0,0,26.43-16.51,23.34,23.34,0,0,0,2.35-10.12C309.38,333.63,277.63,342.62,230.29,344.13Z"/><path class="cls-18" d="M322.31,333.76c-11.65,10.9-28.67,15.67-77.87,23.44-60.6,9.57-96.74-17-96.74-17s-1.77-2.59,2.19-3.67,4.33,4,21.28,10.46,39.67,12.26,73.57,7.57,56.62-11.54,64.19-15.87S328,325.25,328,325.25,324.87,331.37,322.31,333.76Z"/><path class="cls-17" d="M314.72,359c-12,13-49.15,22.27-103,25.51s-73.12-14.38-74.11-15.09c-.31-.22-2.55,9.53-.52,12.58,3.87,5.81,18.65,10.87,27.3,12.25,69.51,11.09,137.13-14.61,145.51-19.65,0,0,4.71-9.79,8.11-19.4C318,355.17,315.46,358.16,314.72,359Z"/><path class="cls-18" d="M309.92,374.57s-.89,7.88-73.45,19.83S138.4,384,138.4,384s-4-2.44,1.76-4.25,8.29,10.46,34.62,13,46.88.72,62.75-2.16,36.78-5.77,49-9,22-7.93,26-12.62Z"/><path class="cls-17" d="M180.3,413.14C156.56,409.7,140.54,400,135,396.26a206.07,206.07,0,0,0,1.89,27.35,11.15,11.15,0,0,0,5.49,3.49c14.58,4.08,54.58,16,95.18,3.3,33.68-10.58,53.18-20.35,66.69-36.25a35.79,35.79,0,0,0,4-8.56C294.24,393.21,241.37,419.18,180.3,413.14Z"/><path class="cls-18" d="M296.92,402.38c-20.88,17.81-54.07,28.17-54.07,28.17-74.68,19.14-105.87-6.7-105.87-6.7s-1.14-2.58.3-4,19.47,13,49.77,14.43,68.88-7.93,96.65-24.88c0,0,5.41-3.61,6.49-6.85s5-4.33,6.49-3.61S296.92,402.38,296.92,402.38Z"/><path class="cls-17" d="M169.75,462.16c24.61,15.45,73.74,3.7,101.18-17.46,14.72-17.41,20.9-27.15,23.73-34.08-4.72,5.06-19.08,24.17-59.65,36.07C184.15,461.61,138,431,138,431s3.63,8,8.77,18.24A249.65,249.65,0,0,1,169.75,462.16Z"/><path class="cls-18" d="M276.66,438c-47.06,52.47-109.81,24.34-109.81,24.34s-7.21-7.57-1.44-7.57,27.41,18,63.47,7.93,55.54-34.62,55.54-34.62Z"/><path class="cls-17" d="M193.11,476.1c-21.48-1.79-28.34-11.64-28.34-11.64l-1.33,14.82c5.28,8.18,10.21,14.09,13.47,14.09,10.58,0,51.69,5.14,94-48.67,1-1.24,2-2.43,3-3.59C249.22,464.05,209.71,477.48,193.11,476.1Z"/><path class="cls-17" d="M323.52,294.46s-.55-2.75-1.83-7c-2.79-2.64-5.64-5.33-8.32-7.82a3.06,3.06,0,0,0-.61,1.61c-1.19,8.65-12.83,9.55-48.63,17.31-22.44,4.86-45.58.47-59.73-3.49-9.13,6.69-16.46,7.72-23.86,7.06,8.16,12.16,46,13.74,46,13.74,61.86,5.42,92.77-7.48,101.66-12.13C328.34,301.66,327.63,298.4,323.52,294.46Z"/><path class="cls-18" d="M327.43,306.32c-22.47,12-89.66,13.29-117.62,9.79s-31.61-11.69-31.61-11.69-.9-5.77,4.51-.72,31.37,15.51,89.44,10.1,54.46-16.33,55.55-13.29A7.17,7.17,0,0,1,327.43,306.32Z"/><path class="cls-1" d="M320.57,275.19s-10.41-7.54-13.64-2.51,5,19,9.69,19,5.74,6.1,13.64,1.08S367.6,281.65,407.09,282s62.47-23.7,91.91-42.72C523.43,223.5,560.46,224,573.39,215a3.76,3.76,0,0,0-2.24-6.84c-9.87.2-29.47.65-52.52,1.5-37,1.36-82.81,3.74-111.54,7.71-54,7.46-38.06,21.9-62.47,39.49C327.39,268.73,327.75,273,320.57,275.19Z"/><path class="cls-4" d="M431.55,233.38c-44.68-1.84-49.77,24.52-82.22,35.34-18.77,6.26-21.26,18.27-21,25.14a17.59,17.59,0,0,0,1.93-1.08c7.9-5,37.34-11.13,76.83-10.77s62.47-23.7,91.91-42.72C523.43,223.5,560.46,224,573.39,215a4,4,0,0,0,.41-.34C541.94,213.69,474.2,235.13,431.55,233.38Z"/><path class="cls-6" d="M320.9,275.39l-.61-.47c-2.51-1.94-5.39-3.94-8.58-4.49a5.81,5.81,0,0,0-2.86.14,3.8,3.8,0,0,0-2.09,1.79,6,6,0,0,0-.66,2.26,11.21,11.21,0,0,0,.56,4.73,18,18,0,0,1,.15-4.62,5.66,5.66,0,0,1,.75-1.9,3,3,0,0,1,1.63-1.28c2.93-.94,6.66,1.38,9,2.83.59.36.73,1.35,1.3,1.74Z"/><path class="cls-6" d="M315.1,284.52a7.17,7.17,0,0,1-.31-1.41,6.77,6.77,0,0,1,.1-2.24,6.56,6.56,0,0,1,1.22-2.62,12,12,0,0,1,5.85-3.71,11.4,11.4,0,0,0,3.13-1.9c1-.8,2-1.68,3-2.57,1.93-1.79,3.84-3.62,5.71-5.25s3.71-3,5.31-4.2c3.22-2.31,5.49-3.65,5.49-3.65s-2.24,1.41-5.38,3.8c-1.57,1.2-3.36,2.66-5.17,4.33s-3.66,3.56-5.55,5.41c-.95.92-1.91,1.84-2.92,2.68a18.52,18.52,0,0,1-1.57,1.19,8.33,8.33,0,0,1-1.75.93,11.1,11.1,0,0,0-5.35,3.51,5.58,5.58,0,0,0-1,4.16,6.12,6.12,0,0,0,.29,1.2C316.73,284.87,315.93,286.1,315.1,284.52Z"/><path class="cls-16" d="M280,120.3l-.68,4.78s-5.87,2.32-7,4.23-2.87-1.09-2.87-1.09,2.92-4.59,4.37-5.6S280,120.3,280,120.3Z"/><path class="cls-16" d="M269,129.17s.85,2.44,1.83,2.07c0,0-5.6,6.83-6.09,7.19S267.08,131.36,269,129.17Z"/><path class="cls-14" d="M124.62,433.94a19.65,19.65,0,0,0,7.91.13c5.45-.82,2.89,15.7,2.89,15.7s-6.82,3.39-8.67.88S124.62,433.94,124.62,433.94Z"/><path class="cls-15" d="M125.24,444.86l-.5-8.54s5,.35,6.61-.15,2.39-.13,2.39,1.76-3.09,7.69-2.09,8.32-.13,3.39-2.89,2.64S125.37,446.87,125.24,444.86Z"/><path class="cls-1" d="M152.61,446.15s-15.84-12.47-25.07,12c-12.93,31.39-29.55,58.17-12,72s29.55,30.93,42,21.7c4.62-3.69-5.54-46.17,3.23-68.79.35-1,2.36,5.31,7.07.46C175.35,475.81,169.23,459.08,152.61,446.15Z"/><path class="cls-4" d="M160.77,483.09c.29-.81,1.37,4.27,5.89,2-1-12.2-8-31.43-23.62-34.66-20.92-4.33,11.54,32.46-7.93,44.72-16.24,10.22,6.13,32.79,4.39,55.23,6.33,4.29,12.13,5.83,18,1.45C162.16,548.18,152,505.71,160.77,483.09Z"/><path class="cls-2" d="M112.21,526.21a14.07,14.07,0,0,0,2.27,2.63c.83.81,1.69,1.6,2.56,2.37,1.73,1.55,3.51,3.06,5.29,4.55,3.59,3,7.22,5.88,10.85,8.79l5.48,4.32,1.37,1.06a16.21,16.21,0,0,0,1.39.92,19.19,19.19,0,0,0,3,1.45,15.15,15.15,0,0,0,6.5,1,12.93,12.93,0,0,0,6.11-2.15l.35-.23-.27.18c-.09.06.05-.06.12-.26a4.59,4.59,0,0,0,.22-.69,14,14,0,0,0,.26-1.63c.12-1.13.17-2.28.19-3.44,0-2.32,0-4.66-.1-7-.18-4.68-.51-9.36-.84-14.05l-1-14.08a61.84,61.84,0,0,1,.49-14.27,68.22,68.22,0,0,1,1.49-7c.62-2.29,1.35-4.54,2-6.78a40.2,40.2,0,0,0,1.57-6.74,14.57,14.57,0,0,0-.69-6.68,15.74,15.74,0,0,0-1.48-3.07l-1.88-3a41.05,41.05,0,0,0-4.08-5.67,21.06,21.06,0,0,0-5.33-4.44,16.54,16.54,0,0,0-6.64-2.1,16.24,16.24,0,0,1,6.81,1.78,21.57,21.57,0,0,1,5.64,4.32,41.83,41.83,0,0,1,4.39,5.59l2,2.93a16.83,16.83,0,0,1,1.66,3.23,15.82,15.82,0,0,1,.93,7.21,41.5,41.5,0,0,1-1.44,7,109.83,109.83,0,0,0-3.25,13.61,60,60,0,0,0-.35,13.88L159,523.88c.32,4.7.59,9.4.73,14.13.07,2.36.11,4.73,0,7.11,0,1.19-.1,2.39-.24,3.6a15.7,15.7,0,0,1-.32,1.85,6.24,6.24,0,0,1-.32,1,2.23,2.23,0,0,1-.93,1.11l.08,0a14.67,14.67,0,0,1-7,2.37,16.23,16.23,0,0,1-7.18-1.25,20.68,20.68,0,0,1-3.23-1.64,17.55,17.55,0,0,1-1.5-1l-1.36-1.11-5.38-4.47q-5.37-4.49-10.55-9.18c-1.73-1.57-3.44-3.15-5.11-4.78q-1.26-1.22-2.44-2.51A14.15,14.15,0,0,1,112.21,526.21Z"/><path class="cls-2" d="M159.28,464.22a6.91,6.91,0,0,1,1.27,2.11c.16.37.32.75.5,1.1s.38.74.53,1.13a16.61,16.61,0,0,1,1.2,4.87,24.41,24.41,0,0,1-.06,5,27.41,27.41,0,0,1-1.05,5l.05-.38a1.72,1.72,0,0,0,.72.88,3.4,3.4,0,0,0,1.44.56,3.86,3.86,0,0,0,3-.88,8,8,0,0,0,2.12-2.84,15.25,15.25,0,0,0,1.25-3.56,16.63,16.63,0,0,0-.18-7.6,23.84,23.84,0,0,0-3.19-7.21,19,19,0,0,1,4.29,6.88,16.18,16.18,0,0,1,.8,8.26,16.37,16.37,0,0,1-1.24,4,9.92,9.92,0,0,1-2.62,3.55,5.63,5.63,0,0,1-4.51,1.28,5.34,5.34,0,0,1-2.25-.92,4.12,4.12,0,0,1-.93-.9,2.68,2.68,0,0,1-.56-1.43V483l.07-.19a27.07,27.07,0,0,0,1.18-4.55,25.68,25.68,0,0,0,.43-4.72,18.15,18.15,0,0,0-.61-4.7c-.1-.39-.23-.76-.36-1.14s-.25-.8-.36-1.19A7.41,7.41,0,0,0,159.28,464.22Z"/><path class="cls-10" d="M287.45,137.38s-4.53.79-3.91,4.15c.69,3.71,2.43.63,5.14,1.58,3.15,1.11,2.37,4.36,4.25,3.19s3.09-5.21.71-7.26S287.45,137.38,287.45,137.38Z"/><path class="cls-10" d="M290.73,148.07c-.69,1.19-3.22.39-4.36,0-.66-.25-2.43-2.3-1.75-3.49s3.1-1.07,4.33-.46S291.42,146.88,290.73,148.07Z"/><path class="cls-13" d="M217.84,210.93l-2.09,1.93a14.67,14.67,0,0,1,3.21.48,17.89,17.89,0,0,0,5,1,4.44,4.44,0,0,1,3.67,3.7c.48,2.57,3.05,2.73,1.45,4s-5.14,2.57-5.95,4.66-3.54,4.18-3.54,4.18-1,1.31-.29,1,8.29-7,8.29-7,8.81-8.2,13.52-10.21a14.7,14.7,0,0,1,3.14-1.22c.7,0,.57-2.66-2-.52-.53.45-2.12.48-3.8,1.3-1.11.55-2.31,3.07-3.82,3.45-1.77.45-3.79,3.22-4.15,2.14s-1.53-2.52-2-3.57-3.77-3.06-5-2.79c-.91.21-2.93-1.35-3.67-1.46A2.61,2.61,0,0,1,217.84,210.93Z"/><path class="cls-13" d="M162.2,282.63l-.67,1.16s2.5.06,2.92.89,2.9,3.42,4.44,3.63c.94.13,2.48,2.67,3.41,2.67s1.65,1.44,1.44,2.16-4,3.3-4.43,4.63-2.57,2.88-2.57,3.71-.82,1.85-.51,1.85,8.86-10.3,11-11.54,5.15-4.33,6.69-5.25-.93-1.13-.93-1.13l-3.3,2.68s-3.26,3.3-4.19,3.7c-1.15.5-1.65-1.43-3-2s-2.57-2.53-3.77-2.51c-.62,0-3.26-2.37-3.7-3.21C164.41,282.78,162.2,282.63,162.2,282.63Z"/><polygon class="cls-4" points="384.67 247.08 378.9 242.39 384.67 234.46 392.96 233.01 394.4 240.95 384.67 247.08"/><polygon class="cls-4" points="396.93 239.51 395.67 232.12 399.49 228.59 403.61 227.71 409.79 230.95 408.61 235.95 396.93 239.51"/><polygon class="cls-4" points="383.9 231.53 393.61 230.36 402.14 225.36 401.26 220.65 398.02 218.89 385.67 221.83 382.43 226.53 383.9 231.53"/><polygon class="cls-4" points="403.02 218 404.2 225.65 410.38 228.3 416.26 227.71 418.03 221.53 415.53 216.23 403.02 218"/><polygon class="cls-4" points="410.08 235.29 411.17 230.02 416.8 229.12 420.07 230.21 419.34 233.47 410.08 235.29"/><polygon class="cls-4" points="416.98 216.23 419.15 219.58 425.72 221.44 430.86 220.44 431.69 216.95 429.15 214.96 416.98 216.23"/><polygon class="cls-4" points="419.43 221.16 417.53 227.12 422.07 229.66 426.79 228.94 424.58 223.16 419.43 221.16"/><polygon class="cls-4" points="426.95 222.98 428.89 229.17 432.5 233.94 441.49 234.37 442.86 225.38 431.86 221.58 426.95 222.98"/><polygon class="cls-4" points="421.52 230.93 419.34 233.47 430.42 233.84 427.33 230.21 421.52 230.93"/><polygon class="cls-4" points="431.33 214.77 433.22 216.74 432.43 219.87 444 222.3 445.97 217.68 445.97 213.54 431.33 214.77"/><polygon class="cls-4" points="444.04 226.94 442.76 233.29 450.03 232.93 456.2 232.2 457.65 227.85 452.02 225.12 444.04 226.94"/><polygon class="cls-4" points="447.17 213.54 447.65 217.35 443.99 225.63 451.47 223.56 457.51 226.58 460.06 221.33 460.22 213.54 456.88 212.58 447.17 213.54"/><polygon class="cls-4" points="461.65 212.42 461.17 221.01 467.06 222.29 472.79 218.94 472.47 214.49 467.38 212.1 461.65 212.42"/><polygon class="cls-4" points="460.99 222.98 458.94 227.22 457.51 232.31 469.92 230.88 470.14 227.62 466.53 223.5 460.99 222.98"/><polygon class="cls-4" points="468.81 223.08 473.75 219.76 479.29 222.72 477.4 226.42 472.31 226.74 468.81 223.08"/><polygon class="cls-4" points="470.27 212.02 474.01 213.83 474.39 218.21 480.43 220.72 485 216.3 485.88 210.99 470.27 212.02"/><polygon class="cls-4" points="471.74 228.08 471.15 230.59 478.96 229.26 477.34 227.5 471.74 228.08"/><polygon class="cls-4" points="481.1 221.69 478.37 227.2 479.99 228.97 487.8 227.94 488.19 223.37 481.1 221.69"/><polygon class="cls-4" points="483.23 220.28 486.47 216.74 487.21 210.99 501.5 210.26 499.58 214.96 499.73 219.83 491.19 222.49 483.23 220.28"/><polygon class="cls-4" points="489.42 228.53 489.71 223.22 491.78 223.81 500.18 221.01 503.42 223.22 502.38 225.87 489.42 228.53"/><polygon class="cls-4" points="501.06 219.98 504.45 222.78 504.21 225.14 517.38 223.22 517.38 217.48 508.69 216.92 501.06 219.98"/><polygon class="cls-4" points="503.27 210.26 501.08 215.25 501.47 218.6 508.43 215.56 517.71 216.3 519.77 212.61 516.38 209.67 503.27 210.26"/><polygon class="cls-4" points="519.33 222.63 518.59 217.33 520.95 213.35 533.44 213.31 536.85 215.41 536.85 218.95 519.33 222.63"/><polygon class="cls-4" points="531.85 209.37 537.16 214.09 545.11 213.06 548.36 208.63 531.85 209.37"/><polygon class="cls-4" points="537.83 218.6 538.01 215.02 545.24 214.04 549.3 214.99 553.08 216.79 553.08 216.79 537.83 218.6"/><polygon class="cls-4" points="549.83 208.63 546.59 212.91 549.68 213.35 553.29 214.6 567.99 213.7 567.73 210.74 563.35 208.41 549.83 208.63"/><polygon class="cls-4" points="565.67 208.28 568.77 210.22 568.89 212.41 570.7 213.83 572.89 213.96 573.28 209.82 571.15 208.17 565.67 208.28"/><path class="cls-4" d="M382.11,222.8l-1.71,4.47,1.69,6-5.19,9.52H364.83l-2.95-5.56S367.51,226.76,382.11,222.8Z"/><polygon class="cls-4" points="382.74 249.28 376.9 245.11 364.8 244.9 360.01 253.87 363.34 262.21 374.19 257.21 382.74 249.28"/><path class="cls-4" d="M360.84,239.06l2.09,4.59-5.21,9.8-7.51,4-1.46-3.34S354.58,249.28,360.84,239.06Z"/><polygon class="cls-4" points="362.09 264.51 358.75 255.12 348.95 259.71 344.99 264.93 349.32 268.72 362.09 264.51"/><polygon class="cls-4" points="336.86 263.05 339.57 266.18 343.53 264.51 348.33 258.25 347.08 254.71 336.86 263.05"/><polygon class="cls-4" points="347.28 269.1 343.53 265.97 336.65 268.26 334.35 272.43 335.19 277.02 347.28 269.1"/><polygon class="cls-4" points="335.61 263.67 337.27 266.18 335.19 267.64 332.48 273.27 327.47 271.39 335.61 263.67"/><polygon class="cls-4" points="334.15 277.71 333.23 274.81 329.88 273.59 327.44 276.33 328.2 279.84 332.01 280.9 334.15 277.71"/><polygon class="cls-4" points="331.85 281.93 328.39 280.79 325.88 282.76 325.88 284.89 328.36 287.22 330.66 286.81 331.85 281.93"/><polygon class="cls-4" points="321.42 277.48 322.85 280.96 320 283.65 317.78 282.07 318.35 278.8 321.42 277.48"/><polygon class="cls-4" points="313.29 272.85 316.63 273.89 317.25 275.77 315.81 277.24 312.4 276.27 313.29 272.85"/><polygon class="cls-4" points="310.74 273.05 310.74 275.21 308.25 276.63 306.8 274.75 307.55 272.85 310.74 273.05"/><polygon class="cls-4" points="308 279.56 310.69 277.86 313.37 279.65 312.76 282.25 309.83 283.59 308.12 281.76 308 279.56"/><polygon class="cls-4" points="313.37 288.52 315.45 290.18 316.96 289.65 317.78 287.3 315.75 286.03 313.97 286.03 313.37 288.52"/><path class="cls-4" d="M321.69,287.48,320,292.75a6.45,6.45,0,0,0,3.5,1.71,12.21,12.21,0,0,0,4.81-.6l-.41-2.93-3-3.64Z"/><polygon class="cls-4" points="322.18 275.11 322.86 277.37 324.8 277.37 326.7 274.94 325.53 273.19 322.18 275.11"/><polygon class="cls-4" points="520.94 211.9 518.63 209.68 530.61 209.32 533.57 212.15 530.61 212.28 520.94 211.9"/><path class="cls-16" d="M344.34,128.73l.2,2s2.78-1,8.33.13Z"/></svg>