<svg id="Layer_2" data-name="Layer 2" xmlns="http://www.w3.org/2000/svg" width="600" height="589" viewBox="0 0 600 589"><defs><style>.cls-1{opacity:0.87;}.cls-2{fill:#1e354a;}</style></defs><title>premio_L3_silueta</title><g class="cls-1"><path class="cls-2" d="M498.53,422c-3.39-25-22.52-62.53-48.41-85.84-4.27-3.84,14.26,3.52,10.36-.86-7.51-8.44-22.12-17-30.9-24.52a268.46,268.46,0,0,0-42.86-30.14A108,108,0,0,0,392,249.18c.44-31.41-18.91-61.2-47.34-79.67.11-3.18,1.19-7.49,4.35-13.12l.51-.89q.92-1.57,2.06-3.28c4.24-6.32,10.86-14,21-23.32,12.1-10.45,18.83-21.23,21.75-32.08q.34-1.25.61-2.5a51.74,51.74,0,0,0,1-7.52q.08-1.25.11-2.51c0-.87,0-1.75,0-2.62q-.07-2.45-.34-4.89t-.75-5q-.47-2.49-1.12-5a98.92,98.92,0,0,0-6.39-17.13C375.3,24,373.95,22.65,361.77,30.1s-46.7,30.45-55.49,53.46c-5.64,14.74,5.39,33.09,12.26,52.2-3,5-7.9,12.24-13.69,17.21a112.44,112.44,0,0,0-14.45-2.11h-.09q-2-.16-4-.24l-.72,0c-1.31,0-2.62-.08-3.94-.08-17.18,0-33.53,5.39-48,14.09-5.64-3.34-10.56-10.21-13.84-15.71,2.46-23.66,7.19-50.3-15.9-70.41-25-21.8-50-39.85-68.64-16.55-9.69,12.11-25.84,91.25-18.17,104.17,5,8.48,14.94,21,54.1,20.59,14.36.23,23.18,4.7,28.14,8.56q-2.63,3.36-5,6.83A101.06,101.06,0,0,0,181,227.64l-.35,1-.2.58a75.74,75.74,0,0,0-4.68,27.26,115.54,115.54,0,0,0,1.67,16.13q.69,3.94,1.65,7.79.32,1.28.67,2.55.69,2.54,1.5,5A111.94,111.94,0,0,0,185.93,300l.12.26a163.31,163.31,0,0,0-18.9,31.3q-2.3,4.47-4.32,9.09-.84,1.92-1.64,3.86-.56,1.35-1.09,2.72-.83,2.13-1.6,4.27-.44,1.21-.85,2.43a174.14,174.14,0,0,0-9.43,54q0,1.14,0,2.24v.12q0,1.7,0,3.39c0,.4,0,.79,0,1.19,0,.75,0,1.5.06,2.25,0,.47,0,.95.05,1.42,0,.66.05,1.33.09,2s.05,1,.08,1.53.07,1.23.11,1.84.07,1.07.11,1.6.09,1.15.14,1.73.1,1.11.15,1.67.1,1.08.16,1.61.12,1.16.18,1.74.11,1,.17,1.45.15,1.26.23,1.88c0,.35.1.69.14,1q.56,4.07,1.31,8.05l0,.23c.16.86.34,1.71.51,2.56l.11.54q.26,1.25.55,2.49l.13.55q.29,1.26.61,2.51l.11.45q.33,1.31.69,2.61l.06.22c10.24,37,34.66,66.59,79,82.35-3.55,4.78-6.1,9.13-6.1,9.13s10.7,11.39,29.4,10.35c13.69-.76,17.84-6.55,19.08-9.61a307.25,307.25,0,0,0,35.19,2.52l4.92.07H317l3.55,0h6.19l4.77,0H332l3.35,0c2,2.4,8.33,8.11,23.16,7.28,13.36-.74,17.63-6.28,19-9.39C495.83,538.68,507.56,488.5,498.53,422Z"/></g></svg>