<svg id="Layer_1" data-name="Layer 1" xmlns="http://www.w3.org/2000/svg" width="600" height="589" viewBox="0 0 600 589"><defs><style>.cls-1{fill:#f59fc2;}.cls-2{fill:#ed7eab;}.cls-3{fill:#fff;}.cls-4{fill:#f5d3e1;}.cls-5{fill:#f5bfd5;}.cls-6{fill:#ed5191;}.cls-7{fill:none;stroke:#ed5191;stroke-miterlimit:10;stroke-width:2px;}</style></defs><title>premio5-3</title><path class="cls-1" d="M414.62,75.68s-15.44-18.3,16-20.59,74.93,41.75,80.07,122.4l.57,23.45L477,184.35s-5.72-31.46,4.58-23.45S416.91,96.84,414.62,75.68Z"/><path class="cls-1" d="M487.83,120.86c-3.09-7.68,8.58-26.88,31.46-1.72s12.58,78.36-1.72,89.8l-21.16-12.58S513.57,184.92,487.83,120.86Z"/><path class="cls-2" d="M481.54,160.9c-10.3-8-4.58,23.45-4.58,23.45l34.32,16.59-.49-20.11c-21-12.69-63.52-94.77-73.86-113.29-3.43-6.15-4.05-10-3.35-12.52q-1.49,0-3,.08c-31.46,2.29-16,20.59-16,20.59C416.91,96.84,491.84,168.9,481.54,160.9Z"/><ellipse cx="512.54" cy="196.53" rx="14.26" ry="26.84" transform="translate(120.28 580.54) rotate(-65.37)"/><ellipse class="cls-3" cx="520.5" cy="194.5" rx="4.47" ry="9.14" transform="translate(78.4 531.09) rotate(-57.77)"/><path class="cls-2" d="M430.64,55.08A41.12,41.12,0,0,1,450,58.71l2.27,1c.75.36,1.47.78,2.2,1.17,1.49.75,2.86,1.69,4.29,2.56a76.8,76.8,0,0,1,7.94,6c10.07,8.75,18,19.72,24.27,31.41a163.06,163.06,0,0,1,14,37.22,196.14,196.14,0,0,1,3.79,19.54l.65,4.93.5,4.95.24,2.47.17,2.48.33,5-.46-4.95-.23-2.47-.31-2.47-.62-4.93-.77-4.91a197.64,197.64,0,0,0-4.05-19.42,166.32,166.32,0,0,0-14.15-36.94c-6.17-11.66-14-22.52-23.9-31.31A76.1,76.1,0,0,0,458.45,64c-1.4-.87-2.75-1.83-4.21-2.59-.72-.39-1.43-.82-2.17-1.19l-2.23-1.07A40.87,40.87,0,0,0,430.64,55.08Z"/><path class="cls-1" d="M306.52,251.84s-72.64,33.75-104.67-2.29C190.42,236.39,321.39,195.21,330,204.94Z"/><path class="cls-1" d="M337.41,211.23s-97.93,15.35-148.14-2.29c-42.32-14.87-10.87-60.63,73.21-45.18,64.37,11.82,81.79,32,81.79,32Z"/><path class="cls-1" d="M394.6,171.19s-18.87-8.58-34.32-6.29c0,0-4-16-77.79-37.18-53.19-14.87-58.91-2.29-63.49,9.15s10.87,28,70.92,36.61c29.17,3.43,61.2,29.17,61.2,29.17Z"/><path class="cls-2" d="M306.52,251.84,317.46,230c-17.25,5.78-41.76,9.62-73.61,16.16-26.44,5.42-32.75-.89-33.08-7.68-7.52,4.43-11.28,8.37-8.91,11.1C233.89,285.58,306.52,251.84,306.52,251.84Z"/><path class="cls-2" d="M332,186.7c-13.88,21.21-100.67,5.07-133.31.83-15.16-2-17.29-9.07-15.07-16.3-18.6,11.53-17.94,29.42,5.65,37.71,50.21,17.64,148.14,2.29,148.14,2.29l6.86-15.44S341,192,332,186.7Z"/><path class="cls-2" d="M361.48,164.75c-7.6,5.24-23.19,9.78-52.43-3.06-36.2-15.9-74.73-21.87-90.4-23.76-3.24,11.38,13,27.23,71.28,35.55,29.17,3.43,61.2,29.17,61.2,29.17l43.47-31.46S376.69,163.05,361.48,164.75Z"/><path class="cls-4" d="M219.59,287.3s-42.81,4.3-88.65-49.19c-30.89-36-16-56.62-32.6-57.77-8.07-.56-17.16,100.66,52,159C150.38,339.35,192.7,291.87,219.59,287.3Z"/><path class="cls-5" d="M132.81,286.23c-28.27-45.77-30.42-86-29.5-104.5a10.68,10.68,0,0,0-5-1.39c-8.07-.56-17.16,100.66,52,159a338.37,338.37,0,0,1,27.45-26.88C160,311.18,143.74,303.93,132.81,286.23Z"/><path class="cls-1" d="M237.32,398.26s44,15.44,75.5,20.59,37.18,16,25.74,43.47c-4.91,11.77,19.51,44.54,36.61,33.75,10.87-6.86-7.44-34.32-7.44-34.32s30.31-36.61.57-59.48S286.51,365.08,237.32,398.26Z"/><path class="cls-1" d="M378.59,396.54,390,452s3.43,18.3,24.59,16,37.75-4,31.46-21.16c-4-10.3-21.16-12-21.16-12S410,392,410,384Z"/><path class="cls-4" d="M356.28,181.49c24-13.15,61.21-40.68,127-7.78S603.15,243.25,573.63,293s-185.31,126.4-274.23,14.8C262.48,246.12,321.48,200.55,356.28,181.49Z"/><path class="cls-4" d="M495.27,333.06c-3.43-31.46-14.87-45.18-28-42.9s-7.44,35.46-7.44,35.46L387.17,362.8s-20,13.61-38.78,0c29.69-17.15,52.81-34.09,53.65-39.45,1.72-10.87-27.45-32-27.45-32S201.86,249,160.1,309.61c-14.91,21.65-16,41.05-8.43,56.7l-21.88,34.24s-1.72,6.29-14.3-4-32-21.16-32-21.16S61.73,347.93,41.14,380s5.15,37.75,5.15,37.75,17.73.57,22.88-16c0,0,45.76,34.32,58.34,40.61s17.16,13.73,38.89-13.16A347.22,347.22,0,0,0,189,398.28,112.14,112.14,0,0,0,253.33,404c11.26-2.4,24.21-6.83,37.68-12.44a168.08,168.08,0,0,1,24.66,15.3c28.6,21.16,89.23-8,116.68-19.45S498.7,364.51,495.27,333.06Z"/><path class="cls-6" d="M329.83,235.76c-3.24-1.21-5.28-3.74-4.57-5.66s3.92-2.5,7.16-1.29,4.5,5.29,4.57,5.66C337,234.59,333.07,237,329.83,235.76Z"/><path class="cls-6" d="M544.45,229.79c3.91-.18,7.17,1.33,7.26,3.38s-3,3.85-6.92,4-7-3.06-7.26-3.38C537.46,233.73,540.53,230,544.45,229.79Z"/><path class="cls-5" d="M471.82,322.76c-130.5,18-163.21-62.17-171-93.91-14.39,21.46-19.83,48.21-1.42,79,88.91,111.6,244.7,35,274.23-14.8a56.33,56.33,0,0,0,8-22.15C564.86,289,531.57,314.27,471.82,322.76Z"/><path class="cls-5" d="M453,361.49c-16,9.25-85.75,41.33-112.27,33.93S269.75,330,269.75,330c-4.94,13-6.17,21-50.58,22.21-43.87,0-60.37-16.8-66.58-29.45-7.43,16.36-6.89,31.12-.92,43.51l-.87,1.37c7.63,12.88,18.41,17.88,18.41,17.88s-2.47,5.55-26.53,29c-11.62,11.32-27.39,12.7-40.62,11.12,10.41,7.35,20.49,14.16,25.44,16.64,12.58,6.29,17.16,13.73,38.89-13.16A347.22,347.22,0,0,0,189,398.28,112.14,112.14,0,0,0,253.33,404c11.26-2.4,24.21-6.83,37.68-12.44a168.08,168.08,0,0,1,24.66,15.3c28.6,21.16,89.23-8,116.68-19.45,18.6-7.75,42.43-15.51,54.81-29.48C479.49,347.89,466.23,353.84,453,361.49Z"/><path class="cls-7" d="M328.39,231.31s51.75,20.54,103.5,9.09,75.25-20.17,108.78-6.28l6-1.62"/><path class="cls-6" d="M526.09,234.75c.13,1.32-12.74,5.5-28.73,7s-29.07-.12-29.19-1.45,12.74-5.5,28.73-7S526,233.42,526.09,234.75Z"/><ellipse cx="390.93" cy="190.36" rx="26.84" ry="14.26" transform="translate(-39.9 249.06) rotate(-33.72)"/><ellipse class="cls-3" cx="393.37" cy="182.52" rx="9.14" ry="4.47" transform="translate(-40.18 191.86) rotate(-26.13)"/></svg>