<svg id="Layer_1" data-name="Layer 1" xmlns="http://www.w3.org/2000/svg" width="600" height="589" viewBox="0 0 600 589"><defs><style>.cls-1{fill:#212121;}.cls-11,.cls-2,.cls-9{fill:none;stroke-miterlimit:10;}.cls-2,.cls-9{stroke:#000;}.cls-2{stroke-linecap:round;stroke-width:3px;}.cls-3{fill:#333;}.cls-4{fill:#171717;}.cls-5{fill:#e05500;}.cls-6{fill:#1c1c1c;}.cls-7{fill:#234191;}.cls-8{fill:#3d5fba;}.cls-9{stroke-width:2px;}.cls-10{fill:#fff;}.cls-11{stroke:#1c1c1c;}</style></defs><title>premio_leccion_8_3</title><path d="M410,410s17.52-2.88,21.45-7.18-3.68-7.82-4.79-4.51c-1,3,1.75,3.31,1.75,3.31s-6.81,4.6-20.34,7.36Z"/><path class="cls-1" d="M348.13,417.47s76.62-78.72,101-239.18c6.57-78.82.94-95.71-7.51-78.82s-31.15,49.35-46.92,57.24c-26.27,13.14-92,93.83-92,150.13S348.13,417.47,348.13,417.47Z"/><polyline class="cls-2" points="309.69 466.75 303.1 469.77 308.58 502.67"/><path class="cls-3" d="M309.58,416s-70.14,32.45-60.4,61.15c4.74,13,25.71,9,27.71-6,0,0,11-.75,18.22-14.73,0,0,21-8,26.46-19.72,0,0,3-18.22-12-20.72"/><path class="cls-4" d="M280.31,432.48s-18.07,17.9-14.14,30.35c2.27,7.19,6.9,8.64,10.92,8.32,0,0-7.06-.65-9.64-9C264.25,451.76,278.07,435.32,280.31,432.48Z"/><path class="cls-4" d="M295.1,456.44s-10.34,1.67-11.73-12.73c-1.5-15.48,15-21.72,15-21.72l-.15-.16s-12.75,7.31-12.75,21.79,9.66,12.81,9.66,12.81"/><path class="cls-4" d="M276.88,471.16s11-.75,18.22-14.73c0,0,21-8,26.46-19.72a27,27,0,0,0-.61-10.33c-6.33,2.55-15.84,12.68-22.21,14.86-9.5,3.25-14.25,19.5-21,19.5s-17,7.25-17,7.25c-9.8,5.22-10.2-2-9.18-7.95-3.13,5.66-4.31,11.45-2.4,17.1C253.92,490.13,274.89,486.14,276.88,471.16Z"/><path class="cls-5" d="M328.6,413.58a16.88,16.88,0,0,0,18-18.09C341,320.4,318.76,77.43,263,54.67c-10.37-4-11.22,38.94-11.25,51.47a16.75,16.75,0,0,1-1.3,6.44c-7.79,18.61-46.8,117.93-24.29,190.33,0,0-108.56,6.86-155.22,60a16.87,16.87,0,0,0,3.8,25.44c25.08,15.58,84.82,41.28,193.2,27.74C297.53,412.9,316.55,412.74,328.6,413.58Z"/><path class="cls-3" d="M380.46,410.35a53.92,53.92,0,0,0-43.69-7.74c-25.48,6.37-55.52,33.22-35,33.67,0,0-11.83,14.56-4.55,17.29s12.74-6.83,12.74-6.83-12.29,14.56-3.64,15.47a44.42,44.42,0,0,0,27-5.47s-2.5,4.25-30.15,10c-12.29,2.73-2.28,15.47,15.93,10.92,0,0-2.84,7.73,9.33,7.73s19.79-1.82,25.13-6.6c0,0-10.23,6.37-3.53,6.6s26.84-10.8,31.38-25.47S390.08,421.53,380.46,410.35Z"/><path class="cls-6" d="M311.5,478.75s.61-.08,1.67-.25,2.56-.48,4.34-.9,3.85-1,6-1.7c1.1-.33,2.21-.74,3.34-1.14s2.26-.87,3.39-1.32,2.24-1,3.34-1.45l3.18-1.53,2.92-1.54c.94-.47,1.77-1,2.57-1.47s1.54-.86,2.16-1.28l1.63-1,1.44-.89-1.32,1.05-1.54,1.19c-.58.48-1.3.93-2.06,1.45s-1.58,1.1-2.51,1.62-1.86,1.14-2.88,1.68-2.08,1.1-3.18,1.63-2.22,1-3.37,1.49-2.29.93-3.45,1.3-2.29.77-3.4,1.08-2.2.58-3.23.83-2,.43-2.93.58c-1.82.33-3.36.45-4.43.54S311.5,478.75,311.5,478.75Z"/><path class="cls-4" d="M351.75,457.75c-5.5-.25-.25-7.75-.25-7.75s-28.25,7-30.75,2.75,10.5-13.75-7.25-6.5-11.77-10-11.77-10-11.83,14.56-4.55,17.29c4.25,1.6,7.89-1,10.17-3.44-3.05,4.36-7,11.46-1.07,12.09,7.22.76,19.73-1.43,27-5.47-4.47,2.94-10.79,6.7-30.15,10-12.29,2.73-2.28,15.47,15.93,10.92,0,0-2.84,7.73,9.33,7.73,9.76,0,16.59-1.18,21.67-4.11-2.18,1.81-3.93,4-.07,4.11,6.71.23,26.84-10.8,31.38-25.47a119.89,119.89,0,0,0,3.85-16.42C375.75,442.31,356.24,458,351.75,457.75Z"/><path class="cls-4" d="M301.73,436.29c-20.48-.46,9.56-27.3,35-33.67,0,0-29.6,12.21-39.64,27.35-.66,2.14-.34,4.91,4.6,6.32"/><path class="cls-4" d="M296,445.75s2.5-8.25,13.5-16.25C309.5,429.5,296.85,434.38,296,445.75Z"/><ellipse class="cls-3" cx="396.54" cy="434.43" rx="34.04" ry="26.9"/><path class="cls-4" d="M430.57,434.43a22.14,22.14,0,0,0-2.94-10.94c-3.47,11.68-11.65,21.64-29.3,22.18-27.67.84-33.12-11.83-33.4-21.23a22,22,0,0,0-2.43,10c0,14.86,15.24,26.9,34,26.9S430.57,449.29,430.57,434.43Z"/><circle cx="374.73" cy="403.77" r="4.24"/><path d="M373.73,405.77s8,7.24,15,7.49,10-2.25,10-2.25l-1.75-2.75s-10.73,5.49-20.22-2.5Z"/><ellipse class="cls-7" cx="418.67" cy="424.27" rx="9.52" ry="17.72" transform="translate(-140.08 216.7) rotate(-25)"/><ellipse class="cls-8" cx="420.21" cy="421.66" rx="7.19" ry="13.39" transform="translate(-138.83 217.1) rotate(-25)"/><path class="cls-2" d="M416.67,437.67s17.23,20.68,9,37.54a27.47,27.47,0,0,1-11.53,12.5,2.55,2.55,0,0,1-2.44,0c-3.1-1.72-10.93-7.05-8.29-15.92,3.27-11,11-7.2,11.29-2.78s-3.11,6.87-3.93,5.24.65-6.05,2.13-6.87"/><path d="M280.79,501.78s.74,4.65-.37,5-12.84,1.12-15.07-.19,9.49-7.63,10.24-7.44S280.79,501.78,280.79,501.78Z"/><path d="M316.52,503.64s-15.45,8.19-19.35-.19c-1.49-6,11.35-3.16,11.35-3.16l6.14.74Z"/><path d="M354.48,501.78s-3.16,3.16-.37,4.65,17.68-.93,16.19-3.54-12.84-5.21-12.84-3.54S354.48,501.78,354.48,501.78Z"/><path class="cls-9" d="M396.54,407.52S438,322,539,319.5"/><path class="cls-9" d="M389.5,407.5s-5-62.5,78-121"/><path d="M464.83,287s14.4-11.33,19.13-9,2.4,6.57-4.39,8.93c-8.79,3.05-11.44,4.85-13.4,3.35C463.64,288.36,464.83,287,464.83,287Z"/><path d="M536.77,319.47a3.92,3.92,0,0,0,4.31,2.67,23.83,23.83,0,0,0,6.19-1.88c4.13-1.85,10.54.14,9.45-5-1.36-6.45-19.18,3.53-19,4.23Z"/><ellipse class="cls-10" cx="423.06" cy="432.05" rx="2.69" ry="2.64" transform="matrix(0.97, -0.26, 0.26, 0.97, -97.14, 123.76)"/><path class="cls-11" d="M395.33,407.83s-16.83.5-10,23.67c3.17,10.17,19.5,15.17,25.5,11.5s8.33-8.5,6-18A22.91,22.91,0,0,0,395.33,407.83Z"/><polyline class="cls-2" points="280.42 504.8 279.21 468.52 299.77 463.02"/><line class="cls-2" x1="354.47" y1="486.15" x2="355.94" y2="504.5"/><path class="cls-1" d="M263,54.67c-12.13-4.72-11.24,54.84-11.24,54.84S205.9,212.24,223.1,291.3c0,0-113.31,19-156.87,77.45a11.09,11.09,0,0,0,2.51,15.68c20.61,14.54,89.88,64.15,208.12,49.46,3.53-.44,31.61-16,41.94-18.12,25.36-5.29,31-12.29,31-12.29S329,81.62,263,54.67ZM309.43,408s-156,32-205.43-30c0,0-5.33-8,6.67-16,3.23-2.15-4.68,2.7-3-2,6.67-18.67,23.1-13.56,36.67-18,8.88-2.9,17.33-15.33,17.33-15.33l48.67-1.33s20.4-7.36,28.18-10.13a11.94,11.94,0,0,0,7.82-13.2c-1.25-7.58-.39-27.53,2.64-38h8s-13-34.24-12-39.33c1.4-7.08,12.67-26,12.67-26s-1.58-15.57.57-21.55a160.34,160.34,0,0,1,8-17.76c1.84-3.66,7.79-2.84,9.71-6.85L273,139l4.65-37.69s10,10.67,17.33,36c2.63,9.1,41.33,202,38,252Z"/><polygon class="cls-1" points="310.37 205.98 284.61 174.82 273.67 164.67 265 146.67 275.95 152.5 287.12 168.18 307 179.33 310.37 205.98"/><polygon class="cls-1" points="283.37 170.52 289.37 170.52 285.43 225.48 291 275.33 333 389.33 332.33 398 285.67 277.33 280.1 224.14 283.37 170.52"/><polygon class="cls-1" points="252.51 205.26 268.75 211.9 276.44 222.12 283.95 230.75 280.94 218.96 271.4 205.38 254.28 195.71 252.51 205.26"/><polygon class="cls-1" points="248.97 264 271.97 273.5 293.5 294.5 292 289.05 277.56 269.03 247.04 255.9 248.97 264"/><path class="cls-1" d="M226.15,302.91s1.36,10.6,16.35,27.21S331.1,386.61,332.33,398l4.44-6.82-53.25-46.5L244.65,287S230.32,298.34,226.15,302.91Z"/><path class="cls-1" d="M222.69,359l3.75-4.82S137,336.55,120.39,342.44C120.39,342.44,214.12,353.15,222.69,359Z"/><polygon class="cls-1" points="228.05 363.33 119.31 373.51 91.46 389.04 95.21 392.25 126.81 378.57 235.54 365.47 228.05 363.33"/><polygon class="cls-1" points="250.01 346.05 250.01 344.05 210.37 322.09 200.73 322.62 250.01 346.05"/><path class="cls-1" d="M268.57,345.28l-21-1.89-25.39,12,.51,3.68,5.36,4.28L309.43,408l6.59-4.09-86.82-44a2.72,2.72,0,0,1-1.32-3.38h0L250,348.27l18.54-3Z"/><polygon class="cls-1" points="153.47 410.56 174.9 392.59 230.51 390.09 256.56 375.56 260.07 377.06 232.02 394.6 176.41 397.6 156.98 413.07 153.47 410.56"/><polygon class="cls-1" points="240.03 386.58 253.06 392.09 263.61 414.99 254.43 415.62 249.05 393.6 239.83 387.89 240.03 386.58"/><polygon class="cls-1" points="268.3 139.9 277.11 141.71 296.2 159.25 303 163 282.19 137.63 273.96 124.94 268.3 139.9"/><polygon class="cls-1" points="274.91 108.64 277.88 116.7 283.37 125.23 296.64 133.76 296.64 137.16 282.1 128.62 273.87 115.36 274.91 108.64"/><polygon class="cls-1" points="285.71 108.21 288.52 130.23 286.18 147.56 296.95 175.2 307 179.33 295.55 129.29 285.71 108.21"/><path class="cls-10" d="M302.46,131.39c0,1.3-1.38,2.91.69,3.37,1,.22,2.23-1.34,1.93-2.49S302.35,128.36,302.46,131.39Z"/><path class="cls-10" d="M263.54,72.76c-.62-1.13-3.68-2-3.13-.5.36,1,1,2.14,1.91,2.18A1.4,1.4,0,0,0,263.54,72.76Z"/><path class="cls-10" d="M273,88c-.62-1.13-1.15,0-2.66.49-2.4.83.53,2.51,1.43,2.55S273.25,88.46,273,88Z"/><path class="cls-10" d="M94.9,217.53s-3.3,1.67-2.92,3.35,1,2.39,2.29,2.07,1.2-2.6,2-3.27C97.69,218.57,96.42,217,94.9,217.53Z"/><path class="cls-10" d="M231.91,196.38a2.73,2.73,0,0,0-2.43,3.23c.3,3,1.21,4.71,4.24,3.47S237.37,196.38,231.91,196.38Z"/><path class="cls-10" d="M194.76,304.24s.78-1,4.45-.74,1.83,4.58-.61,6.72c-1.85,1.62-7.79,3-6.11-2.75C193.24,304.89,194.76,304.24,194.76,304.24Z"/><path class="cls-10" d="M241.67,216s-.66-5.25-4-4.83-1.11,5.13.36,5.88S241.17,219.54,241.67,216Z"/><path class="cls-10" d="M227,242.33s3.17-3.17,5.2-.68-.68,3.17.45,5-1.81.68-2.71,1.81S224.74,246.63,227,242.33Z"/><path class="cls-10" d="M257.34,146.81s-1.28.77,0,2,2.94,2.77,2.94,4.68,3.07-2,2-2.2S261.84,143.57,257.34,146.81Z"/><path class="cls-10" d="M260.93,87.23s-2.9-.44-2.2-1.67,2.37-1.14,2.46-1.93,3.17-.09,2.2,1.14S263.31,87.05,260.93,87.23Z"/><path class="cls-10" d="M231,297.2a4.82,4.82,0,0,1-3.14,3.51c-2.59.74-3.51-2.31-2.22-3.14s1.39-2.68,3.74-2.11A2.45,2.45,0,0,1,231,297.2Z"/><path class="cls-10" d="M178,315.48s-.75,3.74-4.24,4.74-4.74-3.12-3-4.24,1.87-3.62,5-2.85A3.3,3.3,0,0,1,178,315.48Z"/><path class="cls-10" d="M236.74,172.6s-1,2.38-.81,2.8,2.44,2.52,3.73,1.26,1.3-4.34,1.3-4.34Z"/><path class="cls-10" d="M264.12,104.46s-1.3,4.39-1.09,5.16,3.26,4.65,5,2.32,0-2.08-.22-4.14C267.32,102.8,264.12,104.46,264.12,104.46Z"/><path class="cls-10" d="M247,185.33s-3.48-.85-3.48,1.06.7,6.15,2.32,6.15,4.64-1.48,4.41-3.6S249.32,184.91,247,185.33Z"/><path class="cls-10" d="M251.06,157s-3.85,5.93-1.48,7.7,4.45-.59,5.93-.59S257.87,156.16,251.06,157Z"/><path class="cls-10" d="M265.67,121.77s0,2.13-2.71,3.3,3.49,5.43,4.65,3.49S270.91,122.15,265.67,121.77Z"/><path class="cls-10" d="M217.35,304.59s0,2.14-2.72,3.31,3.5,5.45,4.67,3.5S222.61,305,217.35,304.59Z"/><path class="cls-10" d="M232.35,229.33s1.54,4,3.53,3.34,2.84-3.56,2-4.41-3.66-6.28-5.42-5.31S233.13,227.45,232.35,229.33Z"/><path class="cls-10" d="M240.4,254s-6.34,2-4.87,4.66,4.39-.58,6.34,1.46S244.78,255.15,240.4,254Z"/><path class="cls-10" d="M234.81,272.94s-4.62,1.52-1.76,5.65,5.06-.65,5.28-3.26S237.23,270.12,234.81,272.94Z"/><path class="cls-10" d="M143.67,331.38s-4.53-1.78-5,3.23,4.31,2.73,6.14.86S147.34,330.75,143.67,331.38Z"/><path class="cls-10" d="M241.86,302.7c.84,2.69,3.34,1.67,5.29,3.48,1.61,1.5,0-5.15-2.65-6.82C243.61,298.79,240.33,297.82,241.86,302.7Z"/><path class="cls-10" d="M252.7,132s.3,2.89-1.22,4.41,3.5,4.26,4.11,2.43,2.13-5.78.61-6.24S254.07,129.84,252.7,132Z"/><path class="cls-10" d="M281.59,92.95s-1.86.49-1.47,1.57,1.27,1.76,3.82,3.42,5.09,6.46,4.89,3.72-3.33-5.48-4-7.73S282.57,91.58,281.59,92.95Z"/><path class="cls-10" d="M273.26,74.67s-6.34,0-5.36,3.29,4.51,1.1,7.19,3.41,3.41-5.48,1.22-5.73A5.94,5.94,0,0,1,273.26,74.67Z"/><path class="cls-10" d="M149.43,319.66c0,2.38.67,3,1.85,2.87.55-.08,4.68-1.1,5.14-2.06s-3-1.5-3.62-2.15C150.59,316,149.43,317.47,149.43,319.66Z"/><path class="cls-10" d="M199.08,425.64s-3.72,2.79-1.68,4.28,3.35.56,4.65-1.12S203.37,424,199.08,425.64Z"/><path class="cls-10" d="M129.12,407.27s-3.17,2.38-1.43,3.65,2.85.48,4-1S132.77,405.85,129.12,407.27Z"/><path class="cls-10" d="M113.7,339.25s2.17-1.85,2.52,1.37,4-1.84,3.31-5.25-6.27-4-6.27-2.54S109.34,336.55,113.7,339.25Z"/><path class="cls-10" d="M100.45,350.86a6.38,6.38,0,0,1-3.17,2.79c-2.15.8-.7,4.42,2.38,3.79a3.33,3.33,0,0,0,2.92-4c-.18-.85,1.82-5,.14-5.37S100.45,350.86,100.45,350.86Z"/><path class="cls-10" d="M84.33,381.25s-6.35,2.12-6.2-.45.3-3.78,2.57-3.63S85.69,379.28,84.33,381.25Z"/><path class="cls-10" d="M99.09,390.09s-4.35.87-3,3,3.7,3.91,5.44,2.17S102.37,390.58,99.09,390.09Z"/><path class="cls-10" d="M293.31,109.74s-.11,3.2,1.25,4.33,3.32,6,4.23,5.74S293.19,106,293.31,109.74Z"/><path class="cls-10" d="M289.67,115a5.62,5.62,0,0,0-.33,5.33c1.33,3,3.41,4.26,3.41,8.93s3.58,2,2.81,0S291.89,113.12,289.67,115Z"/><path class="cls-10" d="M91.67,368s-3.33,2.67-2,5.33,4.82,5.21,7.11,3.38S93.87,368,91.67,368Z"/><path class="cls-10" d="M114.09,394.32c1.21-3.34,3,.66,5.25,1.31s-.33,6.57-3.61,5.58S112.78,397.93,114.09,394.32Z"/><path class="cls-10" d="M139.11,402.4s-2.85,2.63-1.09,3.06,4.37,1.42,5.25.44S142.83,402,139.11,402.4Z"/><path class="cls-10" d="M188.38,416.2s-6.82.59-6.5,4.26,2.24,2.76,3.76.73S191,416.82,188.38,416.2Z"/><path class="cls-10" d="M221.85,419.78s-4.17-.22-3.51,2.2,4.17,3.07,5.49,1.32S224.71,419.78,221.85,419.78Z"/><path class="cls-10" d="M295,137.09s-1.86,7.83-.33,12,4.58,2.86,4.58,2.86S299.13,132.57,295,137.09Z"/><polygon class="cls-1" points="176.5 393.5 131.32 402.33 152.21 412.14 166.5 404.75 176.5 393.5"/><path class="cls-10" d="M159.26,417.16s-1.94,4.75.44,4.16,6.15-1.1,6.65-2.76S163.54,414.35,159.26,417.16Z"/><path class="cls-10" d="M232.68,430.87s-.72,3.59,1.08,3.59,4.66-2.71,3.23-3.23S231.6,427.28,232.68,430.87Z"/><path class="cls-10" d="M263.53,429.91s-2.05.21-1.44,1.64,2.77,2.46,3.49.82S265.18,430.32,263.53,429.91Z"/><path class="cls-10" d="M250.68,420.11s-4.11-.27-4.11.82,1.1,4.79,3.7,3.83S253.28,420.11,250.68,420.11Z"/><path class="cls-10" d="M279.29,416.7s-6.18-.66-6.1,1.48.32,5,2.38,4.68,3.89-1,3.81-2.54S280.4,416.89,279.29,416.7Z"/><path class="cls-10" d="M296.81,418a3.88,3.88,0,0,1-2.72,0c-1-.51-2.09,1.39-1.33,1.84s3.48,1.27,4-.32S297.18,417.89,296.81,418Z"/><path class="cls-10" d="M84.49,359.13s-1.95-1.74-3.08,0-1.13,3.79,1.54,3.79S84.69,362,84.49,359.13Z"/><path class="cls-10" d="M234.6,307.76c-2.55,1.37-3.24,1.54-2.78,3.39s2.47,2.16,4.47,3.39,4.16-3.7,2.93-3.7S236.6,306.68,234.6,307.76Z"/><path class="cls-10" d="M143.51,415.88s3-1.85,3.9-1.32,1.39-1.12.6-2.61-2.81-2.58-3.71-1.4S140.85,415.81,143.51,415.88Z"/><path class="cls-5" d="M346.63,395.49S401,316,419,237.33,444,130.09,438.33,134c-17.33,12-22.67,22.67-22.67,22.67l-8,24-21.33,4.67-28,26.67-6,23.33s-9.22,10.94-8.67,28.67c.53,17,6.83,39.55,6.67,60.67C350.07,357.66,352.25,389.21,346.63,395.49Z"/><polygon class="cls-1" points="424.1 193.87 429 197.33 396.57 232.49 372.3 276.4 340.72 393.71 335.17 400.4 366.8 274.95 392.98 228.32 424.1 193.87"/><polygon class="cls-1" points="437.7 221.32 411.94 190.15 401 180 392.33 162 403.28 167.83 414.45 183.51 434.33 194.67 437.7 221.32"/><polygon class="cls-1" points="427.67 140 423 154.67 425.18 163.67 437.67 177.33 434.33 182 423.91 167.06 415.68 153.8 427.67 140"/><polygon class="cls-1" points="386.33 185.33 389.67 200.67 385 246.67 389.67 239.33 395 198.67 390.33 181.33 386.33 185.33"/><polygon class="cls-1" points="353.67 214 363 248 365.67 282 372.3 276.4 367.67 244 357 205.33 353.67 214"/><path class="cls-10" d="M336.94,229.84s-3.18.64-3.18,1.91.64,6.67,3.18,3.81A4.3,4.3,0,0,0,336.94,229.84Z"/><path class="cls-10" d="M367.72,185.77s-5,3.12-4.42,5.2,4.12,2.77,4.42,1.73S371.25,185.42,367.72,185.77Z"/><path class="cls-10" d="M381.1,175.92s4.57,3.27,6.38,2.41,1.15-6.22-.75-6S379.49,173.24,381.1,175.92Z"/><path class="cls-10" d="M412.73,148.74c.23,1.12,3,2,3.34,3.36s3.94,1.67,3.62-1.7-3.35-5.61-4.55-4.48S412.55,147.86,412.73,148.74Z"/><path class="cls-10" d="M436.48,116.68s-1.87,4.35-3.73,5.6,2.07,2.9,2.28,2.07S439.39,117.09,436.48,116.68Z"/><path class="cls-10" d="M444.3,103.1s-2.86,3.81-1.27,4.45,3.81.64,3.81-3.18S444.3,103.1,444.3,103.1Z"/><path class="cls-10" d="M352.28,215.88s-4.55-2.11-5.55.7,1.67,4.21,4,3.16S352.28,215.88,352.28,215.88Z"/><path class="cls-10" d="M344.77,227.36c2.45-1.53,3.38-1.45,3.8.87s-2.11,3.77-3,5.23S342.45,228.81,344.77,227.36Z"/><path class="cls-10" d="M359.36,201.27s-.26,1-1.85,1.42-2.38,2-1.58,2.43,5.28.61,5.28-.61S362.53,200.46,359.36,201.27Z"/><path class="cls-10" d="M379.87,183.58a8.3,8.3,0,0,1-2.82.84c-1.13,0,0,3.1,1.55,2.67S382.26,184.29,379.87,183.58Z"/><path class="cls-10" d="M403.65,157.48a8.3,8.3,0,0,1-2.82.84c-1.13,0,0,3.1,1.55,2.67S406,158.19,403.65,157.48Z"/><path class="cls-10" d="M393,163.06a8.3,8.3,0,0,1-2.82.84c-1.13,0,0,3.1,1.55,2.67S395.36,163.77,393,163.06Z"/><path class="cls-10" d="M400.15,168.83s.23,3.94-.59,3.94-.82,3.45.12,3.45,4.57,2.3,4.57,1,.35-9.37-1.29-9.37S400.15,167.51,400.15,168.83Z"/><path class="cls-10" d="M425.91,137s-1.83.56-1.27,2.11,2.53.28,2.67-.84S426.76,136.58,425.91,137Z"/><path class="cls-10" d="M437,127.86s.28,1.13-1.83,2.53-.56,3,.7,2.82,3.38-2,3.1-3.52S438.3,127.15,437,127.86Z"/><path class="cls-10" d="M443.62,111.43s-3,1.83-2.25,3.94a34,34,0,0,1,1.41,7.18C442.92,124.52,445.46,115.93,443.62,111.43Z"/><path class="cls-10" d="M294,153.2s-1.66.12-1.54,1.3,2,1.78,2.49,1.18S293.68,154.38,294,153.2Z"/><path class="cls-8" d="M395.33,407.83s-16.83.5-10,23.67c3.17,10.17,19.5,15.17,25.5,11.5s8.33-8.5,6-18A22.91,22.91,0,0,0,395.33,407.83Z"/><path class="cls-7" d="M416.83,425a22,22,0,0,0-3.66-7.79c3.31,5.9,3.52,11.55-1.68,16-4.82,4.12-13.68,1.25-18-6.19-3.43-5.9-5.07-15.09-.52-18.79-4.37,1.15-12.84,5.67-7.65,23.27,3.17,10.17,19.5,15.17,25.5,11.5S419.17,434.5,416.83,425Z"/><ellipse class="cls-10" cx="396.88" cy="416.02" rx="6.46" ry="4.61"/><ellipse class="cls-10" cx="398.87" cy="430.83" rx="3.85" ry="3" transform="translate(-97.64 117.48) rotate(-14.95)"/><path class="cls-10" d="M423.49,414.06c-3.18.29-5.64,2.22-5.64,4.57,0,2.55,2.89,4.61,6.46,4.61a8.23,8.23,0,0,0,3.85-.92c-.27-.69-.55-1.39-.88-2.09A31,31,0,0,0,423.49,414.06Z"/><path class="cls-3" d="M411.18,408.21a6.86,6.86,0,0,1,4-.48,10.3,10.3,0,0,1,2.68,1c8.35,4,14.48,17.19,12.21,26.19a10.28,10.28,0,0,1-1,2.68,7,7,0,0,1-2.94,2.75C436.5,432.5,423.79,405.42,411.18,408.21Z"/></svg>