<svg id="Layer_2" data-name="Layer 2" xmlns="http://www.w3.org/2000/svg" width="600" height="589" viewBox="0 0 600 589"><defs><style>.cls-1{opacity:0.87;}.cls-2{fill:#1e354a;}</style></defs><title>premio_L1_silueta</title><g class="cls-1"><path class="cls-2" d="M191.06,223.63c-15.71,17.52-76.53,89.29-73.53,146.94C119.91,416.23,152.81,455,173,474.63c5,34.89,9.25,63,9.25,63a37.41,37.41,0,0,0,3.42,5.41l-14.13,26h0L188.76,568l0,0,.8-.05,11.14-10.81,1.36,10.08h0l56-.19c0,.35.77-22.32.77-22.32s21.91-.15,34.14-.66l-.05-.38.84,0-.45-7.17,6.93,8.62,33.21.28a2.17,2.17,0,0,0,2-3c-3.26-8.07-12-29.77-13.38-32.7C335,480.39,344.7,455.15,352,433.41l.07.06.18.16.1.09.24.19.09.07.31.24h0c.41.31.92.66,1.54,1h0l.56.35.13.08.59.34.19.11.63.35.23.12.7.37.24.12.78.39.24.12.89.42.18.08c1.82.85,4,1.77,6.65,2.74l.23.09,1.39.5.42.15,1.41.48.52.18,1.46.48.61.2,1.53.48.66.2,1.64.49.64.19,1.81.52.46.13c5.12,1.42,11.12,2.88,18.2,4.35,40,8.27,66.17-29.64,99.25-26.19s37-14.54,36.07-25.77c-1.53-18.41-20-27.9-49.62-18.25s-27.79,25-70,33.06c-33.72,6.42-51.52-9.71-51.52-9.71h0l-.54,1.58c13.13-46.49,13.66-72.52,13.66-86.59,0-2.27,1.44-6,3.88-10.8l2-3.85c1.57-2.91,3.39-6.13,5.39-9.62,20.72-2.72,48.41-7,48.43-7h0a5.87,5.87,0,0,0,4.88-4.28c.68-1.59.79-3.7-.41-6.43-.49-1.12-.95-2.17-1.36-3.17l-.89-3.27a6.11,6.11,0,0,1,2.2-6.47l2.46-1.87,2-1,.61-1,7.09-5.39c1.66-1.18,2.59-2,2.59-2h0L455.5,250l17.6-13.39h0l3.44-2.62a2.51,2.51,0,0,0,.86-2.82l-1.4-4.09h0l-21.46-65c.37-1.69.73-3.52,1.06-5.53a24.33,24.33,0,0,0-3.46-16.85,99.81,99.81,0,0,1,2-19.82c.08-.38.14-.75.2-1.1v-.09c1.62-10.66-6.37-12.06-23.41-24.43a128.92,128.92,0,0,0-28.95-15.57l.67-.42a140.23,140.23,0,0,1,25.11,13.54c1.28.87.5-3.2,1.33-4.81,2.44-4.8,7.29-12.43,10.34-17.58a8.52,8.52,0,0,0-1.22-10.29c-9.08-9.36-33.35-28.55-63.88-1.24l-.25.23q-.88.79-1.77,1.64l-.32.3q-2,1.9-4,4.07l-.54.59q-.74.82-1.49,1.67l-.57.65c-.47.55-.94,1.11-1.42,1.68a206.52,206.52,0,0,0-42.89-2.31s-11-25.68-33.36-42.83a13.68,13.68,0,0,0-9.38-2.79,79.7,79.7,0,0,0-27,6.64c.93-1,1.51-1.55,1.51-1.55s-12.23,4.59-14.52,6.11-9.17,19.11-9.17,38.22.76,33.63,2.29,36.69c1.24,2.48,17.58,12,23.69,15.51A261.33,261.33,0,0,0,232,150.18C215.37,172.48,201.75,198.33,191.06,223.63Z"/></g></svg>