<svg id="Layer_1" data-name="Layer 1" xmlns="http://www.w3.org/2000/svg" width="600" height="589" viewBox="0 0 600 589"><defs><style>.cls-1{fill:#917f6a;}.cls-2{fill:#d1bc9f;}.cls-3{fill:#c0a78e;}.cls-4{fill:#3b3b39;}.cls-5{fill:#1d1d1b;}.cls-6{fill:#157100;}.cls-7{fill:#f6f4f1;}.cls-8{fill:#675f51;}.cls-9{fill:#fff;}</style></defs><title>premio_leccion_4_4</title><path class="cls-1" d="M198.49,445l.37.37c2.4,2.42,15.63,16.29,15.63,28.38v16.46a57.75,57.75,0,0,0,2.28-8.93s3.5,16.81,1.93,20.83c0,0,3.5-6.13,3.15-9.63-.19-1.91,1,5.41,2.07,12.54.91,5.93,1.78,11.73,1.78,12,0,.53,3.85,4.9,15.93,1.4s13.13-8.93,11.55-11-9.45-7.18-10.33-16.46S242,463.4,242,463.4s24.68-16.46,28.19-25.56,21.53-49.37,23.46-55S219.78,405.38,198.49,445Z"/><path class="cls-2" d="M177.37,333.51s-63,48.7-69.33,74.24c0,0,7-7.72,10.57-7.9,0,0-7.42,23.52-4.27,44.23l4.27-16s3.08,22.58,4.66,27.31-22.06,48.84-21,63c0,0,13.39-11.55,23.5-13.66s11.16-13.48,21.14-20.66,22.58-19.26,20.48-33.44S156.36,362.4,177.37,333.51Z"/><path class="cls-3" d="M146.91,430.27c-6.9,2.38-9.84-11.33-9.84-11.33s1.36,12.53-4.87,11.2c-7.35-1.58-13.58-30.29-13.58-30.29s-7.42,23.52-4.27,44.23l4.27-16s3.08,22.58,4.66,27.31-22.06,48.84-21,63c0,0,13.39-11.55,23.5-13.66s11.16-13.48,21.14-20.66,22.58-19.26,20.48-33.44c-.67-4.51-2-15.09-2.89-28.33l-9-3.21S155,427.49,146.91,430.27Z"/><path class="cls-2" d="M445.9,211.74a114.09,114.09,0,0,0-21.68,22.5s-10.5,18.55-34,66.18c-20.29,51.83-22.39,44.47-22.39,44.47,7.35-20.67,4.2-30.46,1.05-22.06C351,376.74,299.57,389,299.57,389c-23.82,7-54.28,16.45-78.44,53.91-21.16,32.81-36.66,42-40.19,43.76a.09.09,0,0,1-.11-.15c4.43-3.82,12.65-17,12.65-17s-14.71,4.2-24.52,11.91-9.45,18.91-12.6,33.95,6.3,18.57,7.71,24.16-41,15.76-38.17,2.1-.36-39.92,0-49.7,30.46-36.76,30.46-36.76c-5.25-36.43,5.25-66.53,2.46-65.48s-6,19.6-6,19.6c-3.49-14.37,1-34.58,5.76-49.75,3.7-11.81,7.5-20.52,7.71-21-3.42,1.32-6.55,6-6.55,6-1.3-6.83,18.91-29.66,34.94-41.49s59.6-62.5,59.87-64.85-7.35,4.2-12.33,7.6c-3.32-11.45,25.76-30.84,27.48-32-.95.27-10.59,3.13-13.57,3.42-3.15.32-2.1-10.29,28.89-22a74,74,0,0,0,14.54-7.33c19.18-12.46,24.85-29.26,24.85-29.26l112.39,36.74Z"/><path class="cls-1" d="M333.18,441.48s4.54-.75,18.2-3.2,25.21-2.71,24.51-12.34-5.25-27.84,2.45-58.3S405.66,291,401.81,265.05l-65.12,91s-.27,57-4.82,62.24S333.65,430,333.18,441.48Z"/><path class="cls-3" d="M422,238.23c-7.45,1.54-53.48,66.74-73.78,92.3s-25.21,6.65-29.79,8.75A31.15,31.15,0,0,1,287,333.51c7,14.18,15.06,20,15.06,20-4.9,2.72-4.2,13.39-18.91,23.54s-32.91-4.2-32.91-4.2c-.35,7-6.65,11.2-9.1,7.35s-30.81,32.56-39.21,31.51-4.9.35-18.56,6.3-15.7-18.21-15.7-18.21c-7.65,9.45-3.72-7.35-3.72-11.17-1.46-1.83-3.17.42-4.84,4.39-1.23,8.76-6.83,33.48-2.7,62.1,0,0-30.11,27-30.46,36.76s2.8,36.06,0,49.72,39.56,3.5,38.16-2.1-10.85-9.1-7.7-24.16,2.8-26.26,12.6-34,24.51-11.9,24.51-11.9-7.33,12.15-12.7,17a.11.11,0,0,0,.12.19c3.46-1.73,19-10.85,40.24-43.78C245.3,405.46,275.76,396,299.57,389c0,0,51.47-12.25,69.33-66.18,3.15-8.4,6.3,1.4-1.05,22.06,0,0,2.1,7.35,22.41-44.47,17.34-35.2,27.59-54.5,31.77-62.19Z"/><path class="cls-3" d="M340.56,366.94c-.32,6-3.88,46.22-5.63,54.62s4.55,14.71,5.6,17.86-27.31,6-31.16,6.65-4.55-9.8-9.22-9.8-5.14-3.85-.93-15.76,1.33-40.68,1.33-40.68,33.39-13.24,40-21.29Z"/><path class="cls-4" d="M259.3,548.48s20-50.58,21-70c0,0,14.71-11.45,21-27.52,5.51-6.3,107.67-21.85,114-25s29.94,22.69,39.92,25c4.73,2.83-8.4,22.79,4.2,31.19s15.76,12.6,17.33,22.06,8.4,38.34,8.4,38.34l-158.61,8.93Z"/><path class="cls-5" d="M485.14,542.54s-6.83-28.89-8.4-38.34S472,490.54,459.4,482.14s.53-28.36-4.2-31.19c-.17,0-.35-.1-.52-.15-4.47,7.52-13.87,17.32-32.66,17.65-7,.12-26.69,13.7-22,24.2,0,0,15.76,1.58,16.81,5.78s20.28,5.25,12,23.63c0,0-15.58,16.09-9.35,20a4.35,4.35,0,0,1,2.28,4.09Z"/><path class="cls-5" d="M350.69,498.45s-33.26,11-41,12.4-2.15,12.6,8.73,11.9,8.84,6.37,22.11,0,48.58-17.13,47.38-24.34S372.22,492.11,350.69,498.45Z"/><path class="cls-5" d="M357,480.46a32.22,32.22,0,0,0,16.21-3.37c1.7-.79,3.39-1.62,5.07-2.47l5-2.55c1.68-.84,3.34-1.72,5-2.66a32.7,32.7,0,0,0,4.64-3.13,6.77,6.77,0,0,0,1.75-2,1.12,1.12,0,0,0,0-1,1.35,1.35,0,0,0-1.05-.35,17.82,17.82,0,0,0-5.38,1.31c-1.76.66-3.5,1.39-5.24,2.13s-3.47,1.53-5.28,2.18c-.45.16-.91.32-1.4.46a5.5,5.5,0,0,1-1.67.28,1.37,1.37,0,0,1-.82-.29,1.11,1.11,0,0,1-.39-.62,1.25,1.25,0,0,1,0-.55,2.46,2.46,0,0,1,.55-1,7.88,7.88,0,0,1,1.21-1.07,48.53,48.53,0,0,1,4.95-3c1.67-.92,3.33-1.82,5-2.69s3.34-1.76,5-2.65c.81-.45,1.62-.92,2.37-1.41a12.52,12.52,0,0,0,1.06-.76,3.15,3.15,0,0,0,.64-.63l1.07,1.26c-1.64.25-3.32.61-5,1s-3.3.82-4.92,1.31a35.49,35.49,0,0,0-9.27,4.18l-.13-.16a24.1,24.1,0,0,1,4.24-3,42.4,42.4,0,0,1,4.72-2.23,51.59,51.59,0,0,1,4.93-1.71c1.67-.5,3.34-.92,5.08-1.27l1.73-.35-.66,1.61a3.82,3.82,0,0,1-1.17,1.52,12.57,12.57,0,0,1-1.21.93c-.82.56-1.64,1.06-2.47,1.55-1.65,1-3.35,1.84-5,2.72a110.73,110.73,0,0,0-9.86,5.31,6.86,6.86,0,0,0-.95.77c-.12.12-.17.23-.18.19a.5.5,0,0,0,0-.2.71.71,0,0,0-.21-.33c-.19-.13-.2-.08-.15-.08a4.3,4.3,0,0,0,1.12-.16c.43-.1.88-.23,1.32-.36,1.77-.56,3.57-1.17,5.36-1.78s3.59-1.23,5.41-1.78c.91-.27,1.83-.55,2.76-.76a11.85,11.85,0,0,1,2.89-.41,2,2,0,0,1,1.52.59,1.7,1.7,0,0,1,.06,1.66,8.31,8.31,0,0,1-1.83,2.33,40.82,40.82,0,0,1-4.5,3.57,76.1,76.1,0,0,1-9.83,5.83c-1.71.84-3.43,1.64-5.18,2.41a29.94,29.94,0,0,1-5.49,1.87,26.4,26.4,0,0,1-11.45.16Z"/><path class="cls-6" d="M340.56,568.27s-7.38-10-5.11-37.81c0-21.53-.44-25.21,13.7,29.41,1.53-3.94,4.44-8.38,12-15,5.15-4.46-2.61,6.56,1.59,23.37Z"/><path class="cls-6" d="M370.32,434.67s-7.55-15.27-5.81-21.16c8.75-43.42,7.7-31.35,14.41,12.76,1.53-3.94,4.44-8.38,12-15,5.15-4.46-2.61,6.56,1.59,23.37Z"/><path class="cls-6" d="M372.22,434.56s-3.92-5.86-8.23-19.13c-2.48-10.48-5.6-9.63-1.59,16.86-1.2-1.74-3.12-3.57-7.58-5.9-3-1.58,2,2.89,1.91,11.56Z"/><path class="cls-6" d="M466.23,546.43s23.13-50.25,40.45-53.07c-.53,8.73-24.69,31.62-14.19,52.74Z"/><path class="cls-6" d="M256,549.35s-5.67-6.77-20.38-12,18.38,0,23.63,3.65-7.22-13.52-11-14.75c-1.05-.34,13-1.14,21,9.14.33.42-.27-9.9-7.42-12.51,0,0,15.17-.46,17.4,26.51Z"/><path class="cls-1" d="M321.28,237.39l-3.15,15.06-7-4.2-7,27.31-2.79-7.71-2.1,14.71-9.1-4.2c0,9.1-10.5,26.62-10.5,26.62l-7-4.2c-.69,7-12.6,25.21-12.6,25.21l-7-3.51v14c-2.79-4.92-11.2-5.61-11.2-5.61.69,4.89-1.41,18.91-1.41,18.91l-4.89-13.3c1.39,2.79-6.3,14.71-6.3,14.71.69-7-3.51-14.71-3.51-14.71,1.41,8.4-19.6,33.61-19.6,33.61l-4.2-12.6-22.67,32c-.8-2.65-1.32-17.6-1.32-17.6-3.68,1.85-6.83,11.55-6.83,11.55A16.22,16.22,0,0,1,170,372.64l-7.88,1.55,4.47-6-9.73,2.1,8.13-15-6.41,4.26c3.7-11.81,7.5-20.52,7.71-21-3.42,1.32-6.55,6-6.55,6-1.3-6.83,18.91-29.66,34.94-41.49s59.6-62.5,59.87-64.85-7.35,4.2-12.33,7.6c-3.32-11.45,25.76-30.84,27.48-32-.95.27-10.59,3.13-13.57,3.42-3.15.32-2.1-10.29,28.89-22a74,74,0,0,0,14.54-7.33Z"/><polygon class="cls-7" points="305.52 183.82 276.11 191.7 288.71 196.43 273.48 219.01 281.36 215.34 266.13 241.6 275.58 239.5 268.23 258.4 282.94 242.12 282.94 252.63 293.44 243.17 297.12 256.83 313.4 237.92 316.55 243.17 321.28 237.39 321.28 245.27 337.56 240.54 337.03 247.37 349.11 238.97 305.52 183.82"/><polygon class="cls-1" points="324.81 161.26 305.52 183.82 300.62 194.33 309.02 191.53 292.92 218.14 300.62 217.44 290.11 235.64 310.16 220.33 310.16 236.13 331.81 227.35 327.42 241.4 353.46 239.35 372.44 224.58 324.81 161.26"/><polygon class="cls-1" points="305.52 183.82 301.04 181.76 321.75 165.29 305.52 183.82"/><polygon class="cls-7" points="206.78 300.42 200.48 314.07 208.36 309.35 205.73 328.78 209.41 325.1 209.93 336.66 217.29 313.55 212.56 314.07 219.39 293.59 213.61 300.42 211.51 287.81 199.96 298.84 198.38 306.72 206.78 300.42"/><polygon class="cls-7" points="239.34 256.83 228.32 269.43 230.42 282.04 235.14 270.48 233.57 288.34 237.77 282.04 235.14 303.57 240.4 296.74 241.45 303.04 246.7 273.63 241.97 279.41 243.55 265.23 238.82 268.38 239.34 256.83"/><polygon class="cls-1" points="366.27 119.34 373.9 114.17 380.43 112.54 377.3 115.53 385.74 114.44 379.61 118 384.24 118.94 377.3 121.66 374.31 118.8 366.27 119.34"/><path class="cls-7" d="M413.78,226.44l-19.78,5s-47.4,59.9-34.11,58.25c2.34-.29,4.68-.69,4.68-.69l-3.65,4.17,5.47-1.3s-16.58,22-22.05,26.94c-2,1.8,10.32-2.93,10.32-2.93l-10.32,15.9,5.45,1.88-11.46,11.27,5.07-.75a46.77,46.77,0,0,0-2.84,14.35,15.15,15.15,0,0,0,1.36,6.41,99.34,99.34,0,0,0,27-42.11c3.15-8.4,6.3,1.39-1.05,22.06,0,0,2.1,7.35,22.39-44.47,23.47-47.63,34-66.18,34-66.18a106.58,106.58,0,0,1,8.37-10.18Z"/><path class="cls-3" d="M350.69,83s1-39.53,34.75-57.05a1.56,1.56,0,0,1,2.25,1.52c-.82,9.56-2,40.94,16.3,47.13A55.81,55.81,0,0,1,350.69,83Z"/><path class="cls-8" d="M428.36,229.61s-23,18.46-38.05,15.73c-1.56-2.81,2.81-12.82,2.81-12.82s-23.3,9.64-24.7,6.57c-1.56-3.44,11.2-23.45,11.2-23.45s-6.82,12-9.87,15.35c-3.69,4-37.94,9.77-43.2,6-1.3-.93,12.51-15.21,12.51-15.21s-22.19,8.95-25.1,6.45,5.63-17.7,5.63-17.7-14.84,6.24-15.21,3.33,23-30.08,24.3-32.44S317,191.08,317,187.81s4.39-26,7.38-29.17-5,22.81-3,22.26,13.64-9.82,10.55-3.09-20.74,32.74-17.28,30.56,11.82-8.73,10.73-3.27-7.28,19.83-4,18.56,28.74-17.28,27.83-9.82-11.1,18.92-9.1,18.92,25.1.18,35.11-16.37c4-5.28,9.64-3.27,5.09,2.91s-8.37,16.92-5.28,15.83,28.2-18,30.38-12.73-10,19.46-5.82,17.28,28.38-16.19,29.11-14.19A5.81,5.81,0,0,1,428.36,229.61Z"/><path class="cls-2" d="M368.89,74.23s-2.45-13-13.66-18.91-31.6-17.51-31.6-16.46-2,2-5.12-.07-14-6.37-15.23-6.24,12.47,13.26,14.71,37c0,0-7.09-1.31-11.82-5.38S313.4,81,308.67,101c-.53,2.49,13.83,32.26,17.68,29.1l3.15-2.28s-11.2,29.41-10.85,39.74a61,61,0,0,0,5.08-7.16s-5.06,23.52-4.9,25c.23,2.14,12.43-8.4,11.9-6s-15.06,26.44-20.83,31,11.73-3.85,12.08-2.28-8.93,18.38-2.63,17.16,28.19-10.68,26.61-7.44-17,17.94-8.93,17.07,31.24-2.06,34.92-10.12,7.45-9.66,6.75-7-6.21,11.83-6.3,17.94c0,3,30.46-13,29.24-8.58s-13.66,18.56-.7,14.71,27.22-12.69,35.36-18.47,67-34.14,70.11-36.76c1.84-1.58,1.58-7.09,3.15-7.09s3.41-.26,4.2-3.94,6-24.42,4.73-27.84-36-26.52-54.62-36c0,0,7.7-11.29-7.44-18.91S420.28,80.1,411,78.78c0,0-.92-3.68-7-4.2S380.09,73,368.89,74.23Z"/><path class="cls-3" d="M486.19,175.42s-25.73-9.45-30.46-11.55-7.35-8.1-7.35-8.1-7.35.22-13.13,2.87S429.47,160.19,422,177s-10.93,16.28-14.61,18.24-6.83-5.11-14.18-4.59-8.4-3.68-8.4-11.33-8.4-2.32-12.08-3.19,1.58-8.06-6.41-7.53S347,153.36,340.56,155.77c-3.54,1.32,6.81-27.36,6.27-42.58-.7-20.05-9.8-30.73-9.8-30.73-13.66-.53-11-18.91-21-36.24-4.63-8-9.19-11.81-12.76-13.57-.3.89,12.57,13.89,14.73,36.94,0,0-7.09-1.31-11.82-5.38S313.4,81,308.67,101c-.53,2.49,13.83,32.26,17.68,29.1l3.15-2.28s-11.2,29.41-10.85,39.74a61,61,0,0,0,5.08-7.16s-5.16,23.43-4.9,25c.44,2.7,12.59-8.36,11.9-6-1.57,5.56-20.62,27.84-22,31.11-2.06,4.76,12.94-4,13.29-2.4s-8.93,18.38-2.63,17.16,28.19-10.68,26.61-7.44-17,17.94-8.93,17.07,31.73-2.31,35.41-10.36,7-9.42,6.26-6.7-7.77,16.21-6.3,17.94,30.46-13,29.24-8.58-13.66,18.56-.7,14.71,27.22-12.69,35.36-18.47,67-34.14,70.11-36.76a2.35,2.35,0,0,0,.27-.29Z"/><path class="cls-7" d="M513.76,175.68c.79-3.68,6-24.42,4.73-27.84s-36-26.52-54.62-36c0,0-15.79-4.3-14.71-3.94,0,0-21.14,7.89-21.14,12.49s27.44,17.2,27.44,17.2-15.49,20.76-12.08,23.1,3.94,2.87,5,6.29,16.54,5.51,27.57,12.87c10.25,6.83,30.47.74,33.27-.15a.63.63,0,0,1,.34-.11C511.14,179.62,513,179.36,513.76,175.68Z"/><path class="cls-3" d="M436,113.19s5.78-10,3.41-10.77-13.66,8.93-25.73,6.83-16.81-3.41-20.48-.26-6.83,6.56-4.46,6.83-2.1,5.51,4.73,8.93,12,6.83,13.89,11.29,14.28,3.15,14.64,5.78,3.77-2.82,6.66-1.54-.26-8.7,2.36-14.74S436,113.19,436,113.19Z"/><path class="cls-5" d="M432.95,124c-2.09,6.46-3,16.91-16.26,16.21-6.78-.36-10.85-2.65-8.75-13.48,1.29-6.66,5.45-13.26,16.46-13.39C432.09,113.28,437.09,111.21,432.95,124Z"/><path class="cls-9" d="M428.54,116.4c-.19,1.15-1.05,3.73-5.09,6.9s-7.58,3.43-8.63,1.7a7,7,0,0,1,3.44-8.3C424.39,113.37,428.75,115.15,428.54,116.4Z"/><path class="cls-9" d="M430,125a3.65,3.65,0,0,1-3,3.32c-1.07,0-.87-1.48-.87-3.32a3.65,3.65,0,0,1,3-3.32C430.16,121.72,430,123.2,430,125Z"/><path class="cls-4" d="M440,189.34c-3.05.35-9,1.58-8.45,8.93,0,2.1,5.6-3.41,8.45-4.46s28.41-10.67,37.95-10.72,17-.72,23.59,0,11.14-3.32,11.85-6.13c0,0-10.2,1.26-9.14-.8s9-12.78,9.14-15.42-3.48-.12-3.48-.12-7.18,15.6-9.81,15.6-5.51-1-18.64,2.92c-2.8.84-17.47,3-25.54,6.26C447,188.93,444.08,188.87,440,189.34Z"/><path class="cls-3" d="M454,106.47s-11.31,3-17.92,6.72,17.17,1.24,21.76,2.26,35.71,15.3,35.71,15.3l5.63,14.78,11.74-11.12Z"/><path class="cls-5" d="M506.54,134.19s-9.39-1.31-8.67,5.84S504,162,512.12,160.65s10.18-4.4,9.85-21.07C522,132.75,511.46,134.46,506.54,134.19Z"/><path class="cls-3" d="M452.16,107l19,9.5.61-.36c-2.83-1.6-5.51-3.05-7.91-4.27,0,0,7.7-11.29-7.44-18.91C445.19,92.43,452.16,107,452.16,107Z"/><polygon class="cls-1" points="424.56 85.64 431.66 92.24 450.62 103.08 451.83 106.62 459.74 107.31 452.48 102.38 436.75 89.16 424.56 85.64"/><polygon class="cls-1" points="438.07 95.04 426.01 96.63 428.65 91.61 424.1 90.6 427.55 88.69 422.27 85.07 430.73 87.57 431.29 84.76 435.21 89.01 438.92 87.78 440.29 92.82 438.07 95.04"/><path class="cls-1" d="M452.55,102.72l-1.05,3.57-6.19,5.3,6.46.87-2.09,6.28,7.15-4-.17,5.93,6.93-3.4,4.5,4-.5-4.5,4.6-1.33s-8.12-4.6-8.48-4.7c-1.46-.43-6.67-6.29-6.67-6.29Z"/><path class="cls-1" d="M399.36,92.44s-9.21-2-13.41-2l2.27,3.71-9.69.62,4.12,1.65s-12.88,3.28-18.14,4.33l6.21,4-7.19,2.36,3.6,2.46a28,28,0,0,0-9.8,7.48c-.21.27,7.6-1.27,7.6-1.27s-8.53,7.55-12.05,16l7-1.93L358,135.25l3.77-1.57s-6,9.42-4.4,14l8.17-9.56L361.8,152l7.34-3.13-1.48,12,5.46-5.46,4.59,3.93,4.8-9s-7.25,1.87-7.64,1.09c-1-1.94-.26-9.72-.26-9.72l-5.35,3.33s1.29-8.85,4.2-13.13l-4.85,1.16,3.36-7.43s-4.93.94-7.25-.32a45.36,45.36,0,0,1,8-7.08s-1.48-2.34-1.15-2.44c4-1.23,3.29-1.64,3.29-1.64l-4.31-3.49a72.91,72.91,0,0,1,12.93-4.89l-7.57-2.36s12-3.72,15.69-2.67l-3.86-3.95S393,92.4,399.36,92.44Z"/><path class="cls-1" d="M385.9,154.41a51.73,51.73,0,0,1-5,7l4.64-1.56s-.46,6,.84,9.83l3.5-7.67.47,5.17A88.82,88.82,0,0,1,395.61,155l-6.13,3.94,2-8.28Z"/><path class="cls-3" d="M380.2,73.58s-21.18-1.2-30.38,12c0,0,4.4-14.39,23.58-14.79Z"/><polygon class="cls-1" points="409.45 89.97 399.4 84.09 400.74 87.84 394.73 87.11 399.88 88.83 397.45 89.32 403.05 91.97 402.07 89.22 404.01 89.46 403.29 87.79 409.45 89.97"/><path class="cls-1" d="M126.17,502.33c-.21-4.23-.36-7.85-.27-10.39.35-9.8,30.46-36.76,30.46-36.76-4.13-28.62,1.48-53.34,2.7-62.1,0,0-12,24.69-6.14,60.13,0,0-28.29,29.53-28.29,37a147.59,147.59,0,0,0,.93,15.23Z"/><path class="cls-1" d="M297.92,362.39s8,36.47-1.26,71c0,0,1.42,3.2,6.4,2.84,0,0-5.41,3.4-8.53-2.84C293.82,431.92,301.64,431.21,297.92,362.39Z"/><path class="cls-1" d="M303.06,436.19s3.14,8.52,6.31,9.89c0,0-3.68.7-6.69-9.06C302.54,436.55,303,436.3,303.06,436.19Z"/></svg>