<svg id="Layer_1" data-name="Layer 1" xmlns="http://www.w3.org/2000/svg" width="600" height="589" viewBox="0 0 600 589"><defs><style>.cls-1{fill:#bf1611;}.cls-2{fill:#e21914;}.cls-3{fill:#f39200;}.cls-4,.cls-5{fill:#edead9;}.cls-5,.cls-7{stroke:#ccc9bb;stroke-miterlimit:10;}.cls-5{stroke-width:0.5px;}.cls-6{fill:#f2a700;}.cls-7{fill:none;stroke-width:0.22px;}.cls-8{fill:#1d1d1b;}.cls-9{fill:#d11713;}.cls-10{fill:#ccc9bb;}</style></defs><title>premio2-3</title><path class="cls-1" d="M372.91,425.2s24.6-1.6,75.37,28.6a1.28,1.28,0,0,1-.62,2.39c-9.1.1-32-1-61.68-12.57C347.13,428.55,372.91,425.2,372.91,425.2Z"/><path class="cls-2" d="M280.15,383s58.27,49.9,75.35,77S395,545.43,399,563.85s11.72,7.37,11.05-7-2-26.79-2-26.79,5.36,14.07,9.38,11.05-12.39-47.55-11.05-47.55,21.43,24.45,24.78,29.8,8.71,5,5-5.36S415.78,464.38,409.42,459c0,0,18.42,16.74,18.75,13.4s-8.33-14.11-18.75-24.11C376.93,417.17,298.9,378,285.84,355.88Z"/><path class="cls-1" d="M437.42,523.41c-11.18-18.63-38.22-62-51.07-68.27-21.5-14.76-17.71-10.54-3.79,6.32,12,14.5,18.11,28.8,24.86,36.7-.84-2.86-1.29-4.65-1-4.65,1.34,0,21.43,24.45,24.78,29.8C433.79,527.49,437.59,528.19,437.42,523.41Z"/><path class="cls-1" d="M375,471.58c-18.55-38.79-89.39-97.82-89.39-97.82l-4,8s.67,1.47,1.9,4.15c12.62,11,57.39,50.91,72,74.12C372.58,487.16,395,545.43,399,563.85c1.05,4.82,2.36,7.61,3.7,8.86C417.11,545.58,392.76,508.78,375,471.58Z"/><path class="cls-2" d="M232.41,258.21l23.89,5.31s10.3-48.35,6.51-60.85c-1.33-3.41-7,11.37-7,11.37s4.74-27.85,2.65-36.94-2.84-7.77-11.75,4.17c0,0,6.82-22.92,4.93-23.3s-20.46,14-21.41,11.56,28.23-85.82,25-104c-3.22-18-4.93,1.33-18.38,15.91,0,0,7.39-27.66,10.42-39.78,5.68-20.84,2.08-20.65-3.79-9.09s-11.18,27.28-17.62,28.61c-4.17,1.14-23.68,80.51-22.92,85.25s1.7,51,1.14,53.8S232.41,258.21,232.41,258.21Z"/><path class="cls-2" d="M291.69,364.38s-15-78.3-23.89-90.68-21.68-23.89-22.56-28.75,7.08-4.87-9.29-19.91-30.14-26-30.14-26-3.49-6.59-16.27-2.91-23.83,7.56-24.8,5c0,0,2.91-3.68.39-4.65s-3.1.39-3.1.39,2.52-8.14-7.75-2.71c-3.68,2.52-7.17,1.16-10.46,4.26,0,0-2.52-2.91-9.1,3.87-3.87,4.07-6,6-6,6s.39-5-2.32-.77-7.94,20.53,2.91,37,27.25,34.68,25.59,44.64,2,12.28,8.29,12.61,12.28-1.66,14.93,5.31,6.74,43.93,19.24,58.06c7.63,8.63,34.17,27.87,49.1,32.18S292.46,378.53,291.69,364.38Z"/><path class="cls-2" d="M251.49,360.29s-28,11.86-21.56,51.39c0,0,.63,6.72,12.73.81s42.31-22.2,45.16-36.22C289.76,366.67,262.21,355.42,251.49,360.29Z"/><path class="cls-2" d="M205,361.93s-18.29,22.59-12.37,36.31,24.47-4.84,38.46-8.61C231.09,389.63,224.63,359.5,205,361.93Z"/><path class="cls-2" d="M201,292.81c2.17.72,9.64,7,11.08,4.34s1-3.61,4.58-3.61-2.89-3.13,4.82-4.1,13.25-18.79,13.25-23.61-2.89-19.75-5.06-22.88c0,0,6.82,6.82,9.34,12.73a12.24,12.24,0,0,1,.78,2.45c.65,3.4,3.23-5.35,5.44-14.05a6.14,6.14,0,0,1,.55-2.17c.24-1,.47-1.9.69-2.82,0-2.49-2-6.24-10.46-14-16.37-15-30.14-26-30.14-26s-3.49-6.59-16.27-2.91-23.83,7.56-24.8,5c0,0,2.91-3.68.39-4.65s-3.1.39-3.1.39,2.52-8.14-7.75-2.71c-3.68,2.52-7.17,1.16-10.46,4.26,0,0-2.52-2.91-9.1,3.87-3.87,4.07-6,6-6,6s.39-5-2.32-.77-7.94,20.53,2.91,37,27.25,34.68,25.59,44.64,2,12.28,8.29,12.61c3.93.21,7.73-.49,10.68.65,8.41-1.28,19.19-2.64,27.14-2.64C206.25,299.79,198.78,292.09,201,292.81Z"/><path class="cls-1" d="M204.55,283.21s.44-6.86-1.33-8.85-1.11,5.09-2.65,2.65-2.65-3.32-2.65,0-4.64-.88-8.4-2.88-11.28,2.43-15.26,2-3.76-5.31-3.76-5.31l-5.75-4s-9.31,19.13-9.84,22.34c-1.66,10,2,12.28,8.29,12.61,3.7.19,7.27-.39,10.13.48h0C196.75,297.43,204.55,283.21,204.55,283.21Z"/><path class="cls-1" d="M286,336.65c-4-18.45-9.5-41.6-14.26-54.58-10.22,2.55-.51,5.89-.51,5.89-5.12-.85-10.24,3.7-2.28,8.25s-34.42,11.09-34.42,11.09c12.8,7.68,8.82,12.52,10.81,17.64s14.79.28,23,4.84C273.35,332.53,280.83,335.07,286,336.65Z"/><path class="cls-3" d="M192.63,398.23s-5.92-3.5-8.07-3-14,1.34-16.41,3.5-17.48,16.14-13.45,16.94,12.91-2.42,12.91-2.42-7.8,11.3-4.57,11.83,3.23.81,7.53-1.88,12.37-18,23.13-14.52,16.41,5.92,16.41,2.69-2.76-5.86-5.61-6.68C198.66,403,195.46,402.41,192.63,398.23Z"/><path class="cls-3" d="M229.93,411.68s-24.11,9.71-24.11,14.52-.33,12.11-1.33,15.1,2.16,5.14,8.13,1.33,9.18-17.21,18.08-17.09c7.16.1,9.12-.33,25.55,14.76,0,0,2.16-12.44-2-14.6s-12.44-7.13-15.92-11.45C238.33,414.25,231.31,416.91,229.93,411.68Z"/><path class="cls-4" d="M158.86,239.19s-1.84-9.95,7-13.74c1.84-.23-.34-2.18,2.41-2,1.84.23,9.19-7.46,9.88-6.55s.34,3.9-.34,5.86c1.38.57,8-6.66,8.73-4.71s.34,1.26,6.55.46,9.76,0,7.81,3c0,0,5.4,2,5.63,7.46,0,0-1.72-1.26-2.3-1.15,0,0,7.52,4.58,5.86,10.66,0,0-1.33-.55-1.33,1.77s11.28,7.3,8.63,10.62c-1.22,1.33-4.64.77-4.64.77s6.75,4.2,6.19,9.62c-.11,3-4.64,2.43-4.64,2.43s4.09,4.2,1.66,8.29c-.88,2-3.87-1.33-5.64.22-1.11,1.11-2.32,9-5.75,10.95,0,0-.66-9.73-2.21-8.63,0,0-.86,3.21,0,5,0,0-1.32,0-2.84-4-.8-2.17-3-.9-2.17,2.74.28,3-5.09-4.62-10.4-3.62s-13.6,7-17.92-5.31c0,0-2.65,1.33-3.1-1.66s.52-5-4.62-12.73C159.48,252.19,158.86,239.19,158.86,239.19Z"/><path class="cls-5" d="M195.21,259.22c2.38-.69,3.81-1.32,5.65-7.78.36-1.24,1.08-9.75,1.31-12.55a2.86,2.86,0,0,0-.38-1.67c-1.37-2.37-1.59-8.77-6.41-9.32-1.16-.13-3.81-.89-5.2.47-.74.72-2.86.89-4.05.78s-2.86-.36-5,2.73-6.21,9.54-5.87,10.77.8,9.55,3.84,11.2S185.61,262,195.21,259.22Z"/><path class="cls-5" d="M189.42,229c-2,.16-3.64.57-4.45,1.84-2.06,3.25-4.36,13.41-3.31,15.36.67,1.24,4.87,5.12,8.62,6,1.62.37,5.28,2,6.65,1.88,1.11-.09,4.49-2.22,4.26-4.89-.14-1.59,1.37-7.87.91-10.4-.1-.35-1-3.62-1.19-4.15,0,0-1.73-5.06-2.44-5.45S193.6,225.48,189.42,229Z"/><path class="cls-5" d="M188.86,229.11s-2.92,3.18-2.71,9.4c0,0-1.61,6.45,3,7.58s9-2.5,9.38-4,1.82-9.32.34-11.71S192.39,226,188.86,229.11Z"/><path class="cls-6" d="M186.29,238.38c1.67,3.29,4.58,3.75,6.27,1.78,2.76-3.2,3.94-7.48,2.8-9.4-1-1.6-.79-5.3-3.08-4.23C187.31,228.87,185.72,237.25,186.29,238.38Z"/><path class="cls-7" d="M186.15,238.52c1.72,3.39,4.72,3.87,6.47,1.84,2.84-3.31,4.07-7.71,2.89-9.7-1-1.65-.81-5.46-3.17-4.36C187.2,228.7,185.56,237.35,186.15,238.52Z"/><path class="cls-8" d="M193.45,233.6c-.73,2.08-2.42,3.64-3.7,3.13s-1.13-2.36-.48-4.3c1-3,2.67-2.74,3.22-2.58C193.36,230.11,193.94,232.21,193.45,233.6Z"/><path class="cls-9" d="M178.73,218.73c1-2.6-2.93-4.77-4.34-2.71s-7.16,1.19-11.07,1.52-8,3.69-10.42,2.82-4,2.17-5.64.76-.33-7.49-2.28-3.8a9.4,9.4,0,0,1-8.14,5.32c-3,.11-3.26-7.71-6.29-8.68-1.65-.53-1.92-3.6-1.81-6.28,0-1.2-.26-3.4-2.34-.13-2.71,4.26-7.94,20.53,2.91,37,1.39,2.12,2.88,4.26,4.41,6.42l20.82-5.21,10.42-10S177.76,221.33,178.73,218.73Z"/><path class="cls-1" d="M130.55,214c-1.65-.53-1.92-3.6-1.81-6.28,0-1.2-.26-3.4-2.34-.13-2.71,4.26-7.94,20.53,2.91,37,.73,1.12,1.5,2.24,2.28,3.37l.43-.31V237.42s-3.54-8.63-1.33-8.63,2.2-9.76,1.66-13.14A3.48,3.48,0,0,0,130.55,214Z"/><path class="cls-5" d="M132,237.42s-5,22.23-4,29.2,6,45.45,19.57,56.07c0,0-3.32-26.54,16.59-38.15,8.63-6.64-.33-14.27,4-14.6s-8.63-8.63-1.66-27.87C166.5,242.07,155.56,227.47,132,237.42Z"/><path class="cls-10" d="M132,237.42s-5,22.23-4,29.2,6,45.45,19.57,56.07a50.5,50.5,0,0,1,1.49-17.48,40.59,40.59,0,0,1,2.15-6c1.36-3-3.31-31.51-2.64-34.54,2.9-13.13,8.91-25.48,9.62-28.56C152.53,233.63,143.86,232.41,132,237.42Z"/><path class="cls-8" d="M165.91,242.85s2.19,3.68,2.19,7-1.09,5-.6,7.56S166,260,166,263.06s-2.49-.6-2.19-1.09,0-3.28-.7-6.17.7-6.77-.2-8,1-.6,1.19-.9S164.61,241.06,165.91,242.85Z"/><path class="cls-9" d="M179.52,301c1.89-.31,3.77-.58,5.66-.8s3.78-.41,5.67-.61l5.67-.47,5.68-.36h.21a1.37,1.37,0,0,0,.39,0,.49.49,0,0,0-.26.24.73.73,0,0,0-.11.25.3.3,0,0,0,0,.1.06.06,0,0,0,0,0c.07.1-.45-.86-.77-1.45s-.71-1.32-1-2c-.16-.35-.32-.72-.47-1.1a5.85,5.85,0,0,1-.39-1.45,2.21,2.21,0,0,1,.08-.86,1.68,1.68,0,0,1,.61-.85,1.47,1.47,0,0,1,.51-.25,1.7,1.7,0,0,1,.47-.07,2.09,2.09,0,0,1,.87.19,3.25,3.25,0,0,1,.42.22c.49.32.66.48,1,.69.57.4,1.17.79,1.77,1.17a35.74,35.74,0,0,0,3.68,2.12,12.72,12.72,0,0,0,1.8.73l.33.07c.08,0,.11,0-.06.07s-.34.44-.3.5l.07-.59a6.32,6.32,0,0,1,.82-2.5,2.79,2.79,0,0,1,1.24-1.1,2.6,2.6,0,0,1,1.64-.1c.53.16.74.28.9.3s.18,0,.35-.13a3.2,3.2,0,0,0,.43-.82,5.45,5.45,0,0,1,.27-.57,1.49,1.49,0,0,1,.27-.35,1.1,1.1,0,0,1,.43-.24c1.32-.42,2.73-1,4.1-1.54a35.83,35.83,0,0,1-3.76,2.47l-.07,0s0,0,0,0,0,0,0,0l0,.11c0,.12-.08.28-.12.46a4.4,4.4,0,0,1-.41,1.21,1.91,1.91,0,0,1-.59.64,1.87,1.87,0,0,1-.89.28,2.81,2.81,0,0,1-.77-.09l-.18,0-.1,0-.19,0c-.51,0-.6.1-.83.53a5.07,5.07,0,0,0-.33,1.73v.51a1.77,1.77,0,0,1-.21.76,1.61,1.61,0,0,1-.63.63,2.21,2.21,0,0,1-1.13.27,4.17,4.17,0,0,1-.76-.07,10.93,10.93,0,0,1-2.36-.74,38.29,38.29,0,0,1-4.1-2c-.66-.38-1.3-.79-1.94-1.22-.3-.2-.7-.5-.84-.58l-.07,0a.71.71,0,0,0,.34.06,1.36,1.36,0,0,0,.33-.05,1.53,1.53,0,0,0,.39-.2,1.21,1.21,0,0,0,.45-.63.8.8,0,0,0,.05-.31,4.49,4.49,0,0,0,.22.66c.12.3.26.61.41.92.3.63.61,1.27.95,1.92l.51,1,.13.25.17.37a2.5,2.5,0,0,1,.15.43,2.27,2.27,0,0,1,.1.53l0,.31a3.26,3.26,0,0,1,0,.38,2.25,2.25,0,0,1-.29.77,2.41,2.41,0,0,1-1.12.9,3.89,3.89,0,0,1-1.78.21h.21l-5.69,0-5.69-.07c-1.9-.06-3.8-.1-5.7-.21S181.42,301.22,179.52,301Z"/><path class="cls-9" d="M231.09,389.63s-6.45-30.1-26.06-27.7c6.61,5.33,16.47,15.23,9.36,22.34-6.57,6.57-13.95-1.56-18.37-8.18-3.55,7.14-6.19,15.64-3.39,22.15C198.55,412,217.1,393.39,231.09,389.63Z"/><path class="cls-9" d="M278.87,376.57c-.14,0-9.44-4.6-17.52-16.07s-17-3.83-24-1.49-6.8-5.53-6.8-5.53c-7.23,0-15.94-17-18.06-20.4s-3.06,3.87-3.06,3.87c-10.62,0-14.16-14.16-15.92-26.1s-6.64-13.27-6.64-13.27l-13.52,4.68a7.21,7.21,0,0,1,4.78,4.83c2.65,7,6.74,43.93,19.24,58.06C202.49,371,217,382.6,230,390.24c0,0,4.85-20.27,13.31-22.1,0,0,14.65-.66,23.06,3.43S277.88,376.93,278.87,376.57Z"/><path class="cls-9" d="M287.86,374.67c-3.5.69-12.83,11-17.51,13-5.31,2.32-3-5.14-7-6.3s-8.63,15.92-20.24,13.44c-10-2.15-8.67-15.32-8.12-18.86-4.62,8-7.74,19.53-5.1,35.69,0,0,.63,6.72,12.73.81s42.31-22.2,45.16-36.22A5,5,0,0,0,287.86,374.67Z"/><path class="cls-1" d="M229.05,400.21a41.41,41.41,0,0,1,.24-7.5,49.92,49.92,0,0,1,1.45-7.58,44.52,44.52,0,0,1,3.19-8.27,35.44,35.44,0,0,1,2.34-3.87,34.81,34.81,0,0,1,2.72-3.44c.48-.52,1-1,1.46-1.5l1.51-1.32a31.8,31.8,0,0,1,3-2.14,26.84,26.84,0,0,1,2.69-1.52c.84-.37,1.56-.72,2.17-1l1.94-.69-1.86.87c-.59.28-1.28.68-2.08,1.11s-1.65,1-2.55,1.66a31.18,31.18,0,0,0-2.81,2.23L241,368.65c-.44.5-.93,1-1.39,1.49a33.91,33.91,0,0,0-2.59,3.38,35.16,35.16,0,0,0-2.23,3.8,43.6,43.6,0,0,0-3.25,8.05,59.19,59.19,0,0,0-1.72,7.42A55.9,55.9,0,0,0,229.05,400.21Z"/><path class="cls-1" d="M173.33,302.26c8.07,2.6,8.39,19,10,25.66,1.92,8.12,4,16.3,7.22,24,7.29,17.34,24.08,28.5,39.48,38.31-16.08-8.92-33.39-20.32-40.69-37.82-3.16-7.57-5.16-15.67-6.89-23.66C181,322.1,181.14,305,173.33,302.26Z"/><path class="cls-9" d="M263.53,322.41c3.19,0,6.33,0,9.47-.14,1.57-.06,3.13-.22,4.69-.38s3.12-.42,4.69-.69a22.2,22.2,0,0,1-4.57,1.46,31.41,31.41,0,0,1-4.77.6A32.33,32.33,0,0,1,263.53,322.41Z"/><path class="cls-9" d="M262.81,202.67c-1.33-3.41-7,11.37-7,11.37s4.74-27.85,2.65-36.94-2.84-7.77-11.75,4.17c0,0,.8-2.68,1.77-6.23-7,13.28-15.25,29.68-14.74,32.75.88,5.31,4.42,12.39,8.4,12.39a19.65,19.65,0,0,0-4.74,7c11.12,11.49,9,11.94,9,11.94l-3,8.68,12.94,15.76S266.6,215.17,262.81,202.67Z"/><path class="cls-2" d="M232.79,304.49s-16.91-19,8.1-38l40.86-64.11s37-25.36,101.45-52.84c44.73-20.43,117.3-77.14,121.17-70.45s-25.71,38-43.33,48.26c-6,3.17,2.47,2.11,4.93,2.11s2.82,3.17-7,10.57,1.06.35-4.93,8.81-55.3,45.09-51.43,44c3.63-1,27.94-8.15,31-9.06a.39.39,0,0,1,.48.25c.72,2,1.52,13-52.29,31.71-12.68,6.34,23.6-4.93,28.88-1.41S383.2,234.4,375.8,236.16c-7,1.76,5.64,3.17,14.79,2.11s12,3.17,12,3.17a79.26,79.26,0,0,1-27.12,6.34s8.45,3.87,6.69,8.45-38,34.17-71.15,33.82c0,0,4.58,3.17,16.2,1.76,4.23,0,1.41,3.93,4.58,3.87,5.93-.1,8.45,1.41,9.86,6s-35.22,6.69-45.79,4.93c0,0,14.44,8.81,14.44,16.2C310.28,322.81,246.18,322.81,232.79,304.49Z"/><path class="cls-9" d="M341.63,301.68c-1.41-4.58-3.94-6.08-9.86-6-3.17.05-.35-3.87-4.58-3.87-11.62,1.41-16.2-1.76-16.2-1.76,26.73.28,55.51-18.93,66.54-28.77-7.77,3.07-19-.05-24.15.2-5.91.29-3,2.74,4.18,3.31s-11.53,2.59-22.33,3.89,5.11,1.63,5.11,1.63c2.56,3.7-57.47,9.1-68.28,11.66s-.85,6-.85,6c-5.12-.85-10.24,3.7-2.28,8.25,7.35,4.2-28.1,10.08-33.67,11,9.23,8.3,29.84,12.19,47.13,14,15.24,1.61,27.9,1.61,27.9,1.61,0-7.4-14.44-16.2-14.44-16.2C306.41,308.37,343,306.26,341.63,301.68Z"/><path class="cls-9" d="M316.74,250.14a275.74,275.74,0,0,0,58.89-2.27l-.18-.09,1.36-.09c10.4-.95,14.16-2.2,19.24-3.78a62.68,62.68,0,0,0,6.51-2.47,6.88,6.88,0,0,0-2.58-2c-24.47,4.38-31.6,5.5-72,4.09C315.73,243.12,310,249.69,316.74,250.14Z"/><path class="cls-9" d="M410.67,214.32a6.31,6.31,0,0,0-3-.68c-5.72,4-29.13,21-56.51,22,0,0,15.88,3.22,24.67.56C384.24,233.61,416,217.84,410.67,214.32Z"/><path class="cls-9" d="M219.86,137.66c6.52-4.19-4.89,9.45.18,4.66s16.56-20.26,15.06-12S215.39,191.59,219.77,191c2-.25,6.31-10.39,10.5-21.48,0,0,0,0,0,0-.95-2.46,28.23-85.82,25-104-3.22-18-4.93,1.33-18.38,15.91,0,0,1.3-4.88,3-11.44C230.62,96,215.22,140.64,219.86,137.66Z"/><path class="cls-9" d="M381.79,215.73c53.81-18.68,53-29.67,52.29-31.71a.39.39,0,0,0-.47-.25c-14.62,10.08-43,27.72-74.78,37.51C358.83,221.28,380.11,216.57,381.79,215.73Z"/><path class="cls-9" d="M247.85,238.56c-.76-6.94-12.3-15-17.12-19.47A234.31,234.31,0,0,0,204,197.35a308.76,308.76,0,0,1,36.09,34.46c4.91,5.63,5.38,6,3,12.63q-1.91,5.39-3.79,10.8c-2-2.91-4.58-8.95-7.51-11.09-2.11-1.54-2.28-1.77-2.81.82-.23,1.12,1.35,4.38,1.65,5.41,1.47,5.08,3.28,10.74,3.29,16.09,0,8.22-7,13.32-6.95,21.8.58-7.29,5.68-10.66,7.84-17.05s-.37-14.77-2-21.13c2.4,3.65,4.92,11.45,8.67,6.81,2.32-2.87,6.52-15,6.3-18.33C247.81,238.23,247.86,238.74,247.85,238.56Zm-2.53,0c.2-.7,1.16-1.18,0,0Z"/></svg>