<svg id="Layer_2" data-name="Layer 2" xmlns="http://www.w3.org/2000/svg" width="600" height="589" viewBox="0 0 600 589"><defs><style>.cls-1{fill:#38667d;}</style></defs><title>premio_leccion_3_4_block</title><path class="cls-1" d="M568.42,307c-11.83-29.58-34.91-45-34.91-45a20.87,20.87,0,0,0-9.46,11.44,44.56,44.56,0,0,0-5.48-2,215.41,215.41,0,0,0-27.38-6.17c6.26-6.41,4.54-10.17,4.54-10.17-5.57,4.59-12.88,7.18-20,8.64-37.66-1.64-34.53,13.95-121.6-73.76-.44-.44-.87-.86-1.31-1.28,5.51-15.87,3.13-66.16-4.5-68.7,0,0-11.83-.59-14.79,16.57-1.76,10.2-3.73,25-5,35.34C272.82,148.3,217.62,221,195.18,298.26l-.41.39a95.81,95.81,0,0,0-22.55,35.46q-1.27,3.49-2.28,7.06a48.7,48.7,0,0,0-6.07,8.93,32.77,32.77,0,0,0-2.09,6.15,96,96,0,0,0-9.29,19.34c-2.37,9.47-5.92-16.57-46.74-11.83S5.16,428.85,32.38,482.09c16.47,30.58,110.68,8,140.86-65a129,129,0,0,0,26.52,42.49q2.87,3.06,5.93,5.91,1.93,1.8,3.93,3.51a119.88,119.88,0,0,0,9.77,7.54c1.78,5.66,3.7,10.94,5.28,13.19,0,0-65.08,10.06-46.74,28.4,9.47,11.24,129-4.14,142.59-2.37s16-7.1-10.65-17.16c-4.62-1.74-9-3.52-13-5.27,1.37-.23,2.74-.48,4.11-.76a108.8,108.8,0,0,0,22.64-7.39c1.54-.7,3.05-1.44,4.55-2.22l2.5.06,2.27.05,3.14,0h2.51l3.1,0,2.7,0,3.08-.08,2.87-.1,3.09-.14,3-.16,3.11-.19,3.16-.22,3.14-.25,3.28-.29,3.17-.3,3.41-.36,3.2-.36,3.55-.43,3.23-.41,3.69-.51,3.26-.47,3.84-.6,3.27-.52,4-.69,3.26-.57,4.24-.8,3.21-.62c1.5-.3,3-.62,4.55-.93l3.07-.64c1.7-.36,3.43-.75,5.16-1.14l2.63-.58q3.94-.9,8-1.89l3.88-1,1.27-.33,2.55-.68,1.46-.4,2.29-.64,1.51-.44,2.18-.64,1.52-.46,2.12-.65,1.48-.46,2.11-.68,1.41-.46,2.17-.73,1.27-.43,2.45-.87.92-.33,3.34-1.24.13,0,3.12-1.2,1-.38,2.23-.9,1.13-.47,2-.84,1.16-.5,1.91-.84,1.15-.52,1.87-.86,1.11-.52,1.88-.9,1-.49,2-1,.83-.42,2.39-1.24.38-.2,2.79-1.5h0l2.63-1.47.63-.37,2-1.14.79-.47,1.75-1.06.82-.51,1.66-1.05.81-.52,1.63-1.07.76-.51,1.65-1.13.67-.46,1.79-1.27.47-.33q3.4-2.47,6.54-5l.4-.33,1.63-1.36L527,428l1.45-1.25.57-.51,1.36-1.23.56-.51,1.33-1.25.52-.5,1.35-1.32.43-.43,1.48-1.51.25-.25q2.6-2.7,5-5.46l.31-.36,1.21-1.45.4-.49,1.07-1.34.42-.53,1-1.31.41-.55,1-1.32.39-.54,1-1.39.32-.47q.54-.79,1.06-1.58l.18-.27q1.24-1.9,2.37-3.82l.14-.25q.48-.81.94-1.62l.29-.52.74-1.36.33-.62.66-1.26.34-.68.6-1.22.34-.7.57-1.21.32-.7.54-1.24.29-.68c.19-.44.37-.88.55-1.33l.24-.58q.38-.95.74-1.89l.08-.23q.31-.83.6-1.66l.26-.76c.13-.37.26-.75.38-1.12l.29-.89.32-1,.28-.94.28-.94.27-1,.24-.9.26-1,.2-.83c.09-.36.17-.72.26-1.08l.17-.74c.09-.38.17-.77.25-1.15l.11-.57q.65-3.2,1.07-6.39l0-.33c.06-.48.12-1,.17-1.44l0-.39q.08-.72.15-1.43l0-.38q.07-.73.12-1.46l0-.31q.06-.77.1-1.53v-.18a95.84,95.84,0,0,0-5.82-38.44C566.4,314.48,570.36,311.29,568.42,307Z"/></svg>