<svg id="Layer_2" data-name="Layer 2" xmlns="http://www.w3.org/2000/svg" width="600" height="589" viewBox="0 0 600 589"><defs><style>.cls-1{fill:#38667d;}</style></defs><title>premio_leccion_5_3_block</title><path class="cls-1" d="M537.64,204.76c.23-4.7-3.27-10.29-9.2-15.08,6.62-21.15,7-52.8-9.15-70.53-11.14-12.26-19.62-14-25-11.65-1-2.21-2.1-4.4-3.24-6.56-6.28-11.69-14.2-22.67-24.27-31.41a76.79,76.79,0,0,0-7.94-6c-1.42-.86-2.8-1.8-4.29-2.56-.74-.39-1.45-.81-2.2-1.17l-2.27-1A42,42,0,0,0,432.56,55c-.64,0-1.28,0-1.92.08-2,.14-3.75.35-5.36.61q-1.21.19-2.3.43l-1.06.24c-8.57,2.1-11,6.07-11.08,9.87-.07,4.86,3.79,9.44,3.79,9.44,1,9.59,17,29.63,33.17,47.94l1.67,1.89c7.25,8.15,14.45,15.86,20.26,22l1.32,1.4,4.71,5,1,1.08,1.82,1.95c3.62,3.88,5,5.56,3,3.93l-.47-.35a6.54,6.54,0,0,0-1.28-.71,2.67,2.67,0,0,0-1.71-.18,2.45,2.45,0,0,0-1.43,1.19,5.76,5.76,0,0,0-.49,1.07c-.08.23-.15.48-.22.74l-.06.23q-.09.37-.16.76-.1.57-.17,1.2c-.06.53-.1,1.08-.13,1.65s0,1.21,0,1.84,0,1.09,0,1.65c-41-18.15-70.35-12.38-92.18-2.81l-.68-.18h0l-1.22-.32h0l-1.25-.31h0l-1.28-.29h-.06l-1.29-.27h-.07l-1.32-.25h-.07l-1.34-.23h-.07l-1.35-.2H373l-1.36-.17h-.08l-1.37-.14h-.08l-1.38-.1h-.08l-1.38-.06h-.07l-1.39,0h-.06l-1.4,0h0l-1.41.07h0c-.88.06-1.75.15-2.61.28,0,0-4-16-77.79-37.18-53.19-14.87-58.91-2.29-63.49,9.15a10.43,10.43,0,0,0-.68,2.63v.06c0,.15,0,.31,0,.46v.1c0,.15,0,.29,0,.44s0,.09,0,.13,0,.28,0,.42,0,.1,0,.15,0,.27,0,.41,0,.11,0,.17,0,.27.05.4l0,.19c0,.13,0,.26.07.39l0,.2c0,.13.06.26.09.39l.06.21.11.38.07.22.13.38.09.22.15.37.1.23.17.37.12.24.19.37.13.24.22.37.15.24.24.37.17.25.25.36.19.26.28.36.21.26.3.36.23.26.32.36.25.26.34.35.26.26.36.36.28.27.38.35.31.27.4.35.33.27.42.35.35.27.44.34.37.27.47.35.38.26.51.35.39.26.54.36.4.25,1.14.7.43.26.56.32.51.29.56.31.55.3.58.3.58.3.6.3.61.3.61.29.65.31.64.29.67.3.67.29.3.13c-25.36-1.5-44.22,3.2-55.72,10.33h0q-.86.53-1.66,1.08l-.07,0q-.78.54-1.51,1.09l-.06,0a27.6,27.6,0,0,0-7.74,8.6l0,.09q-.31.58-.58,1.17l-.07.15q-.25.57-.45,1.13l-.06.17q-.2.57-.35,1.15l0,.14c-.11.41-.19.83-.26,1.24v0a14.16,14.16,0,0,0-.11,3.9s0,.09,0,.14c0,.37.1.73.18,1.1,0,.1,0,.2.07.29.07.31.15.62.24.93l.12.36c.09.29.2.57.31.86l.16.39c.12.27.25.55.38.82l.2.39c.15.27.3.54.47.81l.23.37c.18.29.38.57.59.85l.22.31q.41.54.87,1.06l.05.06q.5.56,1.06,1.11l.26.25c.29.27.58.55.89.82l.44.37c.27.22.55.45.83.67l.54.4.86.6.61.4.91.57.66.39,1,.54.7.37,1.1.53.71.33,1.29.55.63.26c.66.26,1.34.52,2,.77a137.06,137.06,0,0,0,26.06,6l.8.11c6.56.89,13.4,1.5,20.35,1.88q4.71.26,9.47.38,3,.08,6.06.11l3.13,0h3.08l4.15,0c-20.36,6.56-40.26,14.39-51.6,21.08h0l-1.23.74-.23.14-1.09.7-.23.16-1,.69-.05,0a30.73,30.73,0,0,0-2.66,2.07l-.3.27-.51.49-.32.33-.4.44-.29.36c-.11.13-.22.27-.31.4s-.19.3-.28.45-.16.27-.23.4a4.76,4.76,0,0,0-.25.58c0,.09,0,.18-.07.27a3.32,3.32,0,0,0-.09.43c0,.09,0,.18,0,.27a2.61,2.61,0,0,0,0,.41,2.14,2.14,0,0,0,.18.67c0,.07.05.14.09.2a3.08,3.08,0,0,0,.4.59,44.72,44.72,0,0,0,10,8.38q.91.56,1.83,1.07a53.7,53.7,0,0,0,13.84,5.26q2.08.49,4.2.85t4.28.59l2.16.2q2.16.17,4.34.24l2.18,0c2.91,0,5.83-.1,8.72-.32l2.17-.19a161.65,161.65,0,0,0,33-7.06c-.07.44-.15.87-.21,1.31,0,.16,0,.31-.06.47-.09.65-.17,1.31-.24,2,0,.18,0,.35,0,.53-.06.64-.12,1.28-.16,1.93,0,.2,0,.4,0,.6,0,.63-.07,1.26-.09,1.89,0,.22,0,.44,0,.67,0,.62,0,1.23,0,1.85,0,.24,0,.48,0,.72,0,.61,0,1.21.06,1.83,0,.26,0,.52.06.77,0,.6.08,1.2.13,1.8,0,.27.06.55.09.82.06.59.12,1.18.21,1.78,0,.18.06.36.08.54-30.67-2.26-64-1.7-90.2,6.43-16.78-4.6-41.52-16.43-67.22-46.41-30.88-36-16-56.62-32.6-57.77h0c-.48,0-1,.3-1.42,1-1.37,1.9-2.64,6.61-3.37,13.38l0,.37c-.32,3-.53,6.43-.6,10.18q0,1.15,0,2.33a184.61,184.61,0,0,0,3,33.27q.28,1.55.59,3.11a192,192,0,0,0,5.92,22.61q.54,1.65,1.12,3.31c1.55,4.42,3.29,8.87,5.26,13.31q1.47,3.33,3.11,6.65,2.46,5,5.32,9.89t6.14,9.71q3.28,4.8,7,9.44a148.21,148.21,0,0,0,17.56,18.37,47.47,47.47,0,0,0,.3,19.29l0,.1q.28,1.22.62,2.41l.06.18q.32,1.1.7,2.19l.07.21c.26.72.53,1.44.82,2.15l.18.44c.3.71.61,1.41.94,2.11l-21.88,34.24s-1.72,6.29-14.3-4-32-21.16-32-21.16S61.73,347.93,41.14,380s5.15,37.75,5.15,37.75,17.73.57,22.88-16c0,0,29.53,22.15,47.67,34.12h0q1.62,1.07,3.1,2l.16.11,1.39.88.06,0,1.23.76.18.11,1.17.7.19.11,1,.57.13.08,1,.53.21.11.88.46c12.58,6.29,17.16,13.73,38.89-13.15A347.23,347.23,0,0,0,189,398.28,112.14,112.14,0,0,0,253.33,404l.78-.18c15.7,5,39.54,11.92,58.7,15.05,31.46,5.15,37.18,16,25.74,43.47-4.91,11.77,19.51,44.54,36.61,33.75,10.87-6.86-7.44-34.32-7.44-34.32s24.82-30,7.5-52.62q2.81-.78,5.62-1.65L390,452s3.43,18.3,24.59,16,37.75-4,31.46-21.16c-4-10.3-21.16-12-21.16-12s-8.18-23.6-12.41-39.06c7.59-3.15,14.37-6.13,19.84-8.41l1.59-.66.47-.19,1.15-.47.56-.23,1-.41c20.67-8.32,45.73-17.24,54.82-34.32l3.08-1.19q4.59-1.82,9-3.79,2.21-1,4.38-2t4.29-2.07l2.82-1.43q2.78-1.43,5.48-2.9,6.07-3.33,11.66-6.87l1.85-1.18,2.4-1.58,2.4-1.63,1.06-.74,2.43-1.73a137.24,137.24,0,0,0,23.67-21.22l.31-.36q1.86-2.19,3.44-4.35l.48-.66c1.06-1.48,2-2.95,2.89-4.39.52-.88,1-1.76,1.49-2.64l.42-.8c.32-.62.64-1.24.94-1.85l.41-.87q.44-.94.83-1.87l.31-.74c.34-.84.67-1.67,1-2.5l0,0c.32-.89.6-1.78.87-2.66l.1-.37q.32-1.1.59-2.2l.13-.57q.24-1,.43-2.07l.09-.49c.14-.83.27-1.66.37-2.49h0C584.53,245.88,566,224.35,537.64,204.76Zm-176,150.13a146.08,146.08,0,0,0,26.2,7.58l-.66.34s-20,13.61-38.78,0C353,360.13,357.42,357.48,361.64,354.88Z"/></svg>