<svg id="Layer_2" data-name="Layer 2" xmlns="http://www.w3.org/2000/svg" width="600" height="589" viewBox="0 0 600 589"><defs><style>.cls-1{opacity:0.87;}.cls-2{fill:#1e354a;}</style></defs><title>premio_L4_silueta</title><g class="cls-1"><path class="cls-2" d="M491.16,127.49a3.56,3.56,0,0,0,.84-1.81c0-.49-1.63-.15-3.93.64l-1.11.39-1.18.45a87.36,87.36,0,0,0-9.18,4.19h0c-2.17,1.18,10.65-8.11,13.78-10.77s-40-3.24-50.14-2.55-36.36,17.6-36.36,17.6c-6.95-2.55-23.1-2.32-23.1-2.32-.58-4.17,4-9.55,4-9.55-4.75-.81-7.18,6.43-7.18,6.43-.69-3.82,1.56-9.55,1.56-9.55-2.61-.35-4.86,4.52-4.86,4.52-6.95-1-10.25-.17-10.25-.17-7.82-8.51-14.94-7.82-13.2-7.47s5.56,9.38,5.56,9.38a75.9,75.9,0,0,0-9.9,1c-10.77-8.86-27.1-4.86-20-4.17a14.71,14.71,0,0,1,10.42,5.56c-19.63-.17-28.66,8.51-45,8.51-15.61,0-33.12-18.56-49.35-26.11,8.47-43-11.27-52.4-11.27-52.4,5.21,6.6,3.82,18.41,3.82,18.41l-.35-.35C196.94,11,145.18,13.82,145.18,13.82c16,6.35,39.07,38.63,42.43,69.42l0,0a61.67,61.67,0,0,1-.41,17.39l0,.18q-.23,1.29-.53,2.56l-.1.42c-.21.84-.43,1.68-.68,2.51a304,304,0,0,0-18.34,73.36q-.09.78-.18,1.54c-.35,3-.61,5.82-.83,8.3q-.05.62-.1,1.22c-.13,1.59-.23,3-.32,4.37-.39,5.94-.44,9-.73,8.6a1.36,1.36,0,0,1-.11-.23,52.75,52.75,0,0,1-1.36-5.51l-.26-1.21c-.26-1.25-.54-2.6-.82-4s-.57-2.89-.86-4.37c-.38-2-.76-4-1.12-5.87-.27-1.42-.52-2.78-.76-4-.39-2.1-.72-3.9-1-5.17l-.37-2a174.18,174.18,0,0,0,1.79,42.6c4.88,28.27,16.11,44.64,20.73,50.39-.95.83-1.93,1.58-3,2.37-2.08,1.59-8.55,10.13-12.71,22.12q-.35,1-.67,2c-.43,1.37-.83,2.79-1.18,4.24a56.69,56.69,0,0,0-.47,26.33s-8.77,2.6-14.09,7.8c-2.24-1-3.81-1.32-4-.16-4.15,27,4.19,65.31,22.95,75.73a12.21,12.21,0,0,0,3.5-1.63,31.48,31.48,0,0,0-3.27,5.79c-5.1,11.58,20.84,25,27.79,25.24,5.85.19,7.67-9.9,8.1-13.1l.19.54c0-.24.06-.48.08-.72.43,4.19-3.34,15,11.06,9.69,5.14-1.89,10.64-4.89,11.6-7.76,1.85-5.52-5.26-11.63-8.72-16h0l1.17.39c7.67,2.42,15.92,2.93,23.3-1.32a64.07,64.07,0,0,1-2.31,7.65c-3.5,9-5.78,20.5-6.89,29.06-.1.8-.2,1.58-.28,2.32q-.1.85-.17,1.65c-.12,1.19-.2,2.29-.26,3.26,0,.75-.07,1.43-.08,2,0,1.95.14,3,.5,2.8,1.62-.93,5.33-5.67,5.33-5.67s-.54,22.4,2.8,32.79q.19.6.4,1.14a7,7,0,0,0,2.58,3.71c.22,0,.57-.26,1-.68.16-.16.34-.35.52-.55.42-.47.89-1,1.36-1.62l.2-.25c.65-.82,1.29-1.68,1.82-2.42l.24-.33c.65-.91,1.1-1.56,1.1-1.56s10.09,23.32,24.5,41q.83,1,1.68,2c1.13,1.32,2.29,2.61,3.47,3.84a70.06,70.06,0,0,0,5.44,5.14c8,12.51,16.68,36.13,38.21,38.91,9-.78,11.52-1.43,12.1-2.85,1.15-1.29.15-2.94,0-5.06l.49.06a13.45,13.45,0,0,0,3.32.1h0c2.84-.17,6.21-1.13,6-4.77,0,0,.08-1,.12-2.71a57.4,57.4,0,0,0-.46-7.17l0-.24q-.07-.56-.15-1.16a97.39,97.39,0,0,0-5-19.76A50.09,50.09,0,0,0,335.2,516c-.65-.83-1.28-1.58-1.9-2.29-.88-5.52-5.13-31.48-10.62-51.37l.06,0c.49-.07,1-.14,1.46-.23,21.38-5.13,32.86-9.18,41.69-15.52a38.77,38.77,0,0,0,8.71-7.74s-.79,6.91-14.79,22.75a.79.79,0,0,0,.57,1.32c3.93-.06,14.49-1.76,28.68-16l.35.48.51.7.89,1.24.39.55,1.1,1.57.45.65.88,1.28.48.7,1,1.48.36.54,1.38,2.11.3.47,1.12,1.76.44.71,1,1.69.4.66q1.43,2.37,2.86,4.88l.37.67,1.06,1.91.41.76q.56,1,1.12,2.11l.27.51q.69,1.33,1.36,2.68l.24.5q.54,1.09,1.06,2.2l.38.82q.47,1,.92,2l.34.78q1.21,2.77,2.28,5.59l.3.8q.38,1,.74,2.06l.31.9q.37,1.1.72,2.21l.2.64q.43,1.42.82,2.83c.06.22.11.43.17.65q.29,1.1.55,2.2c.07.31.14.62.21.93q.22,1,.42,2c.06.29.11.58.17.87.17.94.33,1.88.45,2.82s.25,1.81.38,2.68l.08.55q.18,1.25.36,2.44l.08.49q.16,1,.33,2l.07.42c.12.72.24,1.42.36,2.1l.1.59c.12.66.24,1.31.36,1.94l.09.46q.15.76.3,1.48l.12.59q.17.82.35,1.6l.14.62q.14.6.28,1.18l.18.73q.14.55.28,1.08l.17.63c.11.41.23.8.34,1.18l.19.59.23.71.26.77.28.77.23.59.22.54q.18.44.37.86l.19.42.31.63.3.58.29.52.17.28q.26.43.52.81l.14.2.34.46.07.08q.33.42.67.79l.12.13c2.94,3.12,6.66,3.79,11.75,4,0,0,.29,3.62,6.66,1.19s15.17-9.26,13.43-45.28a34.38,34.38,0,0,1,3.47,6.48c.8,2.52,9.26-28.14-3.94-57a75.18,75.18,0,0,1,7.31,13c2.33,5.75,2.07-39.41-11.83-80.05a139.75,139.75,0,0,1,11,13.78c.8,1.22,1.37-4.17-4.75-18.64-5.67-13.42-11-37.76-10.72-53.09a105.37,105.37,0,0,0,1.7-10.5c.11-.23.21-.47.32-.68l-.29.27c0-.25,0-.49.07-.74,1.45.11,2.92.25,4.4.47,30.86,4.64,25.36-2.61,25.36-2.61a18,18,0,0,1-1.78-.55l-.11,0q-.83-.31-1.65-.69l-.16-.08q-.8-.38-1.58-.82l-.15-.08q-.8-.45-1.57-.95l-.08-.05a46.46,46.46,0,0,1-5.89-4.58h0a54.08,54.08,0,0,1-4.74-4.84c16.68,7.3,21.54,4.82,19.11,3.47-5-2.78-9-9.38-9-9.38s13.55,4.17,11.81,1c-6.95-22.23-35.09-47.94-35.09-47.94l1.4.23c19.46,8.22,19,5,19,5-16.83-16.24-31.32-46.95-35.28-55.79l-.15-.34-.79-1.8-.13-.31c35.26-24.78,50.45-56.24,48.44-54.89-.32.22-.67.44-1,.66-5.53,3.31-16,6.86-16.83,6.75C471.68,144,487.36,132.7,491.16,127.49ZM214.83,238.41s-14.24,2.43-17.2,7.47a13.71,13.71,0,0,1-1.44-1.79c-.75-26.13,13.4-56.19,25.1-78.31a72.17,72.17,0,0,0,40.62,30l-7.28,28.75c-15.28,0-41.32,2-56.25,14.23C198.38,238.72,212.75,235.8,214.83,238.41Z"/></g></svg>