<svg id="Layer_1" data-name="Layer 1" xmlns="http://www.w3.org/2000/svg" width="600" height="589" viewBox="0 0 600 589"><defs><style>.cls-1{fill:#e21914;}.cls-2{fill:#437fc3;}.cls-3{fill:#d11713;}.cls-4{fill:#bf1611;}.cls-5{fill:#7a553a;}.cls-6{fill:#6b4227;}.cls-7{fill:#5c3921;}.cls-8{fill:#f39200;}.cls-9{fill:#edead9;}.cls-10,.cls-14{fill:none;stroke:#ccc9bb;stroke-miterlimit:10;}.cls-10{stroke-width:0.32px;}.cls-11{fill:#f2a700;}.cls-12{fill:#1d1d1b;}.cls-13{fill:#c7100c;}.cls-14{stroke-width:0.42px;}.cls-15{fill:#db8400;}.cls-16{fill:#b30e0a;}.cls-17{fill:#ccc9bb;}</style></defs><title>premio_leccion_2_1</title><path class="cls-1" d="M201.32,144.28l-8.26-1.18s2.27,14.5,2.1,14.39c-8.95-6.23-14.49-.22-14.49,15.12,0,10.4-.27,28.94-.45,39.8a28.56,28.56,0,0,0,4.58,16c6.11,9.44,16.42,24.79,20.06,26.81,5.31,3,34.81,24.19,42.49,26s18.88-1.77,18.29-11.21-51.93-34.81-55.47-50.16S201.32,144.28,201.32,144.28Z"/><path class="cls-2" d="M289.71,300.84s14.72,82.07,25.77,117.06,18.46,23,18.79,21.39c.65-3.27,2.59-52.67,5.21-54s-2-29.47-9.17-77.27c0,0,.79-3.63,3.47,1.73s16.33,31,18.77,29.5-2.93-42.42-2.93-42.42-30.88-23.35-39.73-13.32A109.68,109.68,0,0,1,289.71,300.84Z"/><path class="cls-3" d="M348,545.74c-2.06-12.9-10.64-79.51-13.86-108.74a16.5,16.5,0,0,0-1.51-2.11c-10.16-11.61-19.67-125.72-21.76-152.24a6.74,6.74,0,0,0-1,.89,109.68,109.68,0,0,1-20.18,17.3s7.86,87.79,10.28,118.51c.83,10.45,6.09,4.59,7.4,14.42s2,100.84,6.55,102.8,7.2,2.62,9.82,17a131,131,0,0,0,3.63,14.85,6.7,6.7,0,0,0,11.06,2.83l10.2-9.82S350.61,562.11,348,545.74Z"/><path class="cls-1" d="M312.25,127.76l19.47-1.18s7.16-1.48,9.44,8.26c2.69,11.45,11.21,62,11.8,70.22s-8.26,102.08-14.75,99.72S294,222.76,294,213.32,312.25,127.76,312.25,127.76Z"/><path class="cls-4" d="M193.06,143.1s2.36,77.3,13.57,91.46,68.79,45.82,83.08,66.28,21.36,38.16,25.5,29.31,15.94-78.32,12.39-92.64c-16.52-66.68-6.49-110.34-13-112.7-11.16-4.06-70.81-9.44-94.41,0S193.06,143.1,193.06,143.1Z"/><path class="cls-3" d="M274.21,250.63c-1.76-.61-4.11-6.71-5.81-8.17-2.06-1.76-5.73.36-7.88-5.37-6.93-18.48-17.89-41.47-17.89-41.47l6.49,4.13c10.62,4.13,10.62-3,8.85-7.08s-5.9-48.39-5.9-48.39l-32.28-23.85c-5.39,4.24-26.73,22.67-26.73,22.67s2.36,77.3,13.57,91.46,68.79,45.82,83.08,66.28,21.36,38.16,25.5,29.31c2-4.25,5.19-20.22,8-37.29C313,281.79,287.45,255.18,274.21,250.63Z"/><path class="cls-3" d="M327.6,237.52c-14.5-58.51-8.55-99.29-11.26-110l-4.08.25S294,203.88,294,213.32c0,6.42,17.44,45.26,30.66,70.24C327.45,264,329.3,244.4,327.6,237.52Z"/><path class="cls-5" d="M193.1,296.23s3.95-21.48,9.21-21.48,35.07-.44,43.84-5.26,11.4-1.75,11.4-1.75l19.73-3.51,31.56-3.07s11.84-3.07,15.78-2.63a94.81,94.81,0,0,1,10.52,2.19l18.41-10.08,27.18,7.45,19.45-13.65a5.63,5.63,0,0,1,2.56-1l7.94-1a5.63,5.63,0,0,1,3.09.51l24.4,11.62a6.71,6.71,0,0,1,3.14,9l-.08.16c-4.48,8.95-29.81,54.8-29.81,54.8s-27.62-6.14-39-20.17L350.05,308.5s-44.28-11.4-66.64-8.77c-16.66-.44-76.72,12.71-76.72,12.71S198.36,301.92,193.1,296.23Z"/><path class="cls-6" d="M441.24,263.78h0a6.88,6.88,0,0,0-3.22-9.24l-24.63-11.73a4.16,4.16,0,0,0-2.28-.37h0a4.16,4.16,0,0,0-3.24,2.3l-10.65,21.69-2,10a2.15,2.15,0,0,0,1.22,2.38c1.34.61,3,1.81,3,4,0,3.54.09,12.62,2.45,15.57,1.44,1.8,6.18,12.17,9.65,20C413.67,314.45,437,272.33,441.24,263.78Z"/><path class="cls-7" d="M376.57,283.54l2.62,3.91s6.49-1.62,6.49,3,2.16,3.79,5.41,3.25,2.71,0,3.79,4.06,4.65-1.85,7.06.56c1.63,1.63,6.95,12.17,10.25,18.88l-.77,1.41s-27.62-6.14-39-20.17L350.05,308.5s-44.28-11.4-66.64-8.77c-16.66-.44-76.72,12.71-76.72,12.71s-8.33-10.52-13.59-16.22c0,0,.19-1,.53-2.58,14-1.36,51.61-5,60.2-6,10.62-1.18,41.3-3.54,49.57-7.08l3.19-1.79L323.78,280l-5.73-2.71s-3-2.41-3-3.92v-1.51l8.45,2.41,7.24,6.33s11.46,17.5,16.59,17.8,16.29-1.81,16.29-1.81l7.24-1.81v-2.41L367.22,290l-4.22.6-2.92-5.17a1.29,1.29,0,0,1,1-1.92l5.82-.45,3.32,1.21Z"/><path class="cls-8" d="M265.64,266.45s-5.9-13.63-9.41-14.94-15.34-3.07-15.34-3.07-18.41,25.87-15.78,32,12.71,34.63,15.34,32.88,11.08-44.58,17.1-45.59C262.23,266.94,265.64,266.45,265.64,266.45Z"/><path class="cls-8" d="M305.77,261.15s-10.52-20.6-13.59-20.6-17.1,4.82-18,10.08c-.88,2.63-.35,24.29,1.32,27.62,2.77,5.55,10.4,21.51,14.19,22.59s6.42-38.37,8.61-38.37A47.9,47.9,0,0,0,305.77,261.15Z"/><path class="cls-1" d="M202,109.61s-19.81,5.66-21.22,7.55c0,0,60-82.19,66.1-84.61,5-2,36.54-9.9,91.79-10.18a18.06,18.06,0,0,1,10.13,3.06c5.73,3.83,14.5,10.41,14.5,14.86,0,5.66-7,27.36-9.68,39.45a9.75,9.75,0,0,1-6.83,7.18L337.39,90s-8.83,55.17-42.79,63.66c0,0-23.4,1.42-25.19,1.7-5.22.82,8,8,7.07,9.9s-50.93-17-50.93-21.69c0,0,.94-10.38-2.36-14.62,0,0-.47,17.45-6.6,17S178.87,144,178.87,144Z"/><path class="cls-3" d="M317.37,78.2s8.1-4.3-23.94-53.51c-20.88,1.64-42.77,5.64-46.57,7.86-18.83,11-66.1,84.61-66.1,84.61,1.41-1.89,21.22-7.55,21.22-7.55L178.87,144s31.6,1.41,37.73,1.89,6.6-17,6.6-17c3.3,4.24,2.36,14.62,2.36,14.62,0,3.44,26.62,14.41,41.37,19.36-6.26-13.23-16-34.44-16.83-39.49-1.18-7.47,7.08-67.27,23.6-58.61S296.91,64,300.85,75C303.63,82.85,315.48,112.11,317.37,78.2Z"/><path class="cls-9" d="M283.29,105.52l3.17-6.33,2.83-10.66s2.8-5.88,5.62-11.86l7.9-6.19c-6.22-4.74-9.33-16.63-11.49-18.38-4.82-3.9-16.47-11.68-20.34-6.4S250.57,70.33,247.75,74.9s-2.11,30.26-2.46,32.73c-.27,1.87,18.92,15.52,18.65,15.13C263.94,122.76,279.07,124.52,283.29,105.52Z"/><path class="cls-10" d="M266.07,52.15c-6.27,7.71-15.86,19.16-17.92,22.51a6.93,6.93,0,0,0-.69,1.77c.72,5.33,1.6,11.52,2.2,14.55s1.7,11.16,10.81,6.28c9.57-5.12,24.22-10.4,24.85-15.14,1.58-12-.19-25.82-2.75-35-2.27-1.1-5.94-1.9-7.93-2.54C272.16,43.8,266.07,52.15,266.07,52.15Z"/><path class="cls-10" d="M283.81,47.74c-5-2.54-10.71-4.69-13-1.63-3.78,5.16-23,24.62-24,29.79-.58,3.3-3.11,28.73,1.41,31.81,3.92,2.67,9.74,3.8,11.79,5.85s7.18-9.12,13.59-10.48c4.48-1,12.54-11.31,15.85-16.75L291,83.28s0-.12,0-.16C291,81.21,287.12,58.13,283.81,47.74Z"/><path class="cls-11" d="M257.76,76.82s1.85,12.82,8.2,9.36,11.55-8.32,10.63-13.05-4.73-15.53-11.32-9.59C258.22,69.89,257.64,72.08,257.76,76.82Z"/><path class="cls-12" d="M274.16,69.66c.12,2.77-1.14,5.38-2.87,5.38s-2.41-2.23-2.56-4.8c-.23-3.93,1.85-4.44,2.56-4.51C272.43,65.62,274.08,67.8,274.16,69.66Z"/><path class="cls-12" d="M304.41,137.54s-26.39,5.28-40.47-14.78c0,0,21-6.09,17.26-17.78l5.06-7.36.55-10.75a86.87,86.87,0,0,1,7.5-10.58c2.47-2.93,12.56-8.78,12.56-8.78l4.57,25Z"/><path class="cls-13" d="M276.11,133.48h-.22S282,138,283.6,144.92a23.9,23.9,0,0,0,4.66,9.27l8.2-.75c.94-.23,3.07-.79,4-1.1.53-5,.84-10.56.26-14.32C295.42,138.42,285.4,138.37,276.11,133.48Z"/><path class="cls-14" d="M257.76,76.82s1.85,12.82,8.2,9.36,11.55-8.32,10.63-13.05-4.73-15.53-11.32-9.59C258.22,69.89,257.64,72.08,257.76,76.82Z"/><path class="cls-15" d="M305.77,261.15s-10.52-20.6-13.59-20.6c0,0,2.77,0-.09,0-6.79,1.68-8.29,32.08-8,35.12,1,5.9,3.34,14.36,6.49,24.19,4.13-7.08,5.11-32.06,7.7-37.4A30.66,30.66,0,0,0,305.77,261.15Z"/><path class="cls-15" d="M257.55,267.73c4.69-.79,8.09-1.28,8.09-1.28s-5.94-13.26-9.44-14.58a95.19,95.19,0,0,0-11.41-2.75S229.25,275.67,230,279.8c.25,1.3,5.51,26.32,10,33.54,1.68,2.7,15-48.39,17-45.42A1.72,1.72,0,0,1,257.55,267.73Z"/><path class="cls-3" d="M363.2,39.86c-3,4.54-12.63,19.91-15.38,36a6.15,6.15,0,0,1-4.6,5L334.34,83l3,7,9.36-3.07a9.75,9.75,0,0,0,6.83-7.18c2.74-12.41,10.05-34.94,9.67-39.87Z"/><path class="cls-1" d="M348,545.74c-2.06-12.9-10.64-79.51-13.86-108.74a16.5,16.5,0,0,0-1.51-2.11c-8.86-10.12-16.84-94-20.22-133.91-3.18-.37-10-1.31-10-.84,0,1.36,18.21,241.73,19,244a59.38,59.38,0,0,1,2.35,9.49,131,131,0,0,0,3.63,14.85,6.7,6.7,0,0,0,11.06,2.83l10.2-9.82S350.61,562.11,348,545.74Z"/><path class="cls-16" d="M178.87,144l14.33.51,14.33.6,7.16.31,1.79.08a3,3,0,0,0,1.54-.28,5.6,5.6,0,0,0,2.13-2.51,25.16,25.16,0,0,0,1.93-6.75,57.89,57.89,0,0,0,.69-7.07l0-1.19.72.94a10.48,10.48,0,0,1,1.65,3.54,21.86,21.86,0,0,1,.69,3.77,42.13,42.13,0,0,1,.08,7.6v0c0,.23.32.63.61.93a11.5,11.5,0,0,0,1.06.89c.76.55,1.56,1.06,2.38,1.55,1.64,1,3.34,1.85,5.06,2.7,3.43,1.71,6.93,3.29,10.45,4.82s7.08,3,10.64,4.4,7.16,2.79,10.78,4.07q-11-3.55-21.64-8c-3.55-1.47-7.09-3-10.55-4.68-1.73-.85-3.45-1.73-5.12-2.7-.83-.49-1.66-1-2.46-1.58a12.19,12.19,0,0,1-1.15-1,5,5,0,0,1-.52-.61l-.22-.38a3.66,3.66,0,0,1-.11-.5h0v0a41.37,41.37,0,0,0-.11-7.44,21,21,0,0,0-.69-3.63,10.14,10.14,0,0,0-1.5-3.25l.76-.25a58.62,58.62,0,0,1-.74,7.18,25.86,25.86,0,0,1-2,7,6.31,6.31,0,0,1-2.48,2.83,3.73,3.73,0,0,1-1.94.35l-1.79-.09-7.15-.4L193.18,145Z"/><path class="cls-9" d="M300.91,162.09a1,1,0,0,1-1.67-.91c.95-6,2.86-19.93.95-25.4-2.46-7-20.06-31-20.06-31s20.76-14.08,20.76-19.35.35-16.54.35-16.54,8.09-5.63,10.91-5.63,26.39,2.46,27.8,5.63C339.95,68.92,342.61,119.24,300.91,162.09Z"/><path class="cls-17" d="M314.74,63.46c-1.23-.11-2.17-.17-2.59-.17-2.82,0-10.91,5.63-10.91,5.63s-.35,11.26-.35,16.54c0,4.23-13.31,14.09-18.62,17.86a2.58,2.58,0,0,0-.6,3.63c4.35,6,16.49,23.08,18.51,28.84,1.92,5.47,0,19.46-.95,25.41a1,1,0,0,0,1.66.92c1.84-1.62,3.53-3.87,5.2-5.52,7.68-26.15,11.27-78.39,11.27-78.39C318.06,73,316.6,67.76,314.74,63.46Z"/><path class="cls-2" d="M352.08,209.78c-.59-8.26-9.12-58.77-11.8-70.22-2.28-9.74-9.44-8.26-9.44-8.26l-6.7.41c-2.21,4.29-21.48,43.65-9.23,89.68,13,48.78,15.34,73.17,26,70,1-.28,2-1.58,3.1-3.68C348.56,260.1,352.48,215.37,352.08,209.78Z"/><path class="cls-11" d="M310.18,180.34a74.81,74.81,0,0,0-.89,12.55c.14,3,.87,6.63,1.47,7.58.48.75,2.55,5,3.62,4.54.79-.3.8-14,.8-14s1.41,16.69,2,18.62c3,9.51,7.31,12.22,8.07,8,.19-1,2-9.92,2-9.92s.49,12.64,1.7,15.79c.47,1.23,3,5.74,5.65,6.53,2.07.62,5.5-11.06,5.31-11.44,0,0,0,10.44.31,12.22.25,1.39,4.87,3.94,6.23,4.25,1.64.38,6-6,6.4-7.62,2.48-10.31,2-28.47,1.09-37.52-1.18-12.07-8.2-43.83-28.71-36.45C317.92,156.21,311.7,169.82,310.18,180.34Z"/><path class="cls-1" d="M325.66,128.52S336.9,125,339.33,132s17.9,51.59,16.26,74.87c0,.6-5.46,5.57-6.23,5.31-1.66-.56-4.59-3.88-6.43-6.13-.89-1.08-3.29-6.19-3.3-7.59l.63-17s-2.68,10.36-3.14,11.68-2.86,5.85-4.56,5.92c-1.23,0-2.77-1.31-4.22-4.15a10.51,10.51,0,0,1-1.21-4.33l-.28-11.34s-3.1,8.21-4.54,8.25c-.76,0-4-5.17-4-5.41-.43-2.3-1.1-9.2-1.1-9.2s-2.6,6-3.25,5.93c-.81,0-2.24-6.08-2.24-6.08s.55-5,1.18-7.81C313.85,160.52,317.45,138.39,325.66,128.52Z"/></svg>