<svg id="Layer_2" data-name="Layer 2" xmlns="http://www.w3.org/2000/svg" width="600" height="589" viewBox="0 0 600 589"><defs><style>.cls-1{fill:#38667d;}</style></defs><title>premio_leccion_5_2_block</title><path class="cls-1" d="M136.67,271.07c-11.58-7.61-40.17-22.76-88.58-26.38C18.8,244,24.69,264.14,26.5,271l.19.72h0a16,16,0,0,0,2.89,6.06q.41.53.88,1a17.36,17.36,0,0,0,2.18,2l.64.47a23,23,0,0,0,3,1.76l.85.41q1.31.6,2.83,1.13,1,.35,2.13.68c1.49.43,3.12.81,4.91,1.14,7.36,1.36,26.49,6,43.76,10.7l1.56.43c7.79,2.14,15.12,4.26,20.69,6.08,2.63.86,4.87,1.64,6.59,2.32a69.72,69.72,0,0,0-1,8.19c-16.92-4.22-75.18-17.31-78.39,1.94a22.2,22.2,0,0,0,.32,9.48,19.22,19.22,0,0,0,5.13,8.7q.61.61,1.28,1.18a28.85,28.85,0,0,0,4.43,3.11,43.35,43.35,0,0,0,9,3.81,65.15,65.15,0,0,0,8.27,1.91q1.07.18,2.16.33c1.45.2,2.92.36,4.4.48a96.86,96.86,0,0,0,11.15.28l2.2-.07,4.25-.12,2.21-.06,6-.14h.09l9.07-.17h.05l3.21,0,1.58,0,7.94-.08c7.5,20.66,26.48,35.15,51.41,43.61L171,408.6h-.41l-.24,0h-.15c-3.74-.22-19.62-.59-27.1,8.5h0a16.37,16.37,0,0,0-1.44,2.07l-.14.23c-.15.26-.28.54-.42.81s-.2.4-.3.61-.22.52-.32.78-.19.51-.28.77-.16.51-.24.77-.17.62-.24.93-.11.49-.16.74-.13.77-.18,1.16c0,.21-.06.42-.09.64-.06.63-.11,1.27-.12,1.94h0l43.34.44a6.72,6.72,0,0,0,3.65-.56l.3-.15a7.2,7.2,0,0,0,1.87-1.39l.38-.42c.14-.17.29-.35.43-.54l.2-.3a10.16,10.16,0,0,0,.54-.9,12.28,12.28,0,0,0,.59-1.29,15.39,15.39,0,0,0,.5-1.52q.22-.82.39-1.78.08-.48.18-1c.25-1.35.56-2.84.91-4.41.16-.71.32-1.45.49-2.19l.34-1.47c.2-.83.4-1.68.61-2.53l.38-1.52.51-2,.13-.51.51-2,.15-.57.54-2.07.59-2.24c.35-1.3.67-2.49,1-3.54q3,.54,6.16,1l2.92.39q4.39.56,8.9.93a242.36,242.36,0,0,0,56.28-2.2c20.77-3.2,38.47-10.57,52.63-20.95a65.64,65.64,0,0,0,10.2,3.34l-.51,11.24s-22.11-5.31-20.34,13.71c0,0,25.21,9.29,31.4,1.33l1.93-24.12c2.43.27,5,.47,7.8.6l2.08.08q3.16.1,6.62.07,2.36,0,4.85-.13,2.31-.09,4.74-.25A243.3,243.3,0,0,0,403.57,375l-2.84,35.84a6,6,0,0,0-.1,1.49,6.92,6.92,0,0,0,.33,1.84,6.36,6.36,0,0,0,1.17,2.12,9.14,9.14,0,0,0,4.72,2.83l.91.26.28.08.82.23.34.09,1,.28.24.06,3,.79.25.06,1.47.37.29.07,1.7.41.1,0,2,.46h0c11.77,2.69,27.4,5.31,32.58,1.86,7.56-5-11.52-11.16-11.52-11.16s3.54-26.8,4.51-48.92c1.47-.51,2.91-1,4.31-1.55,4.25-1.58,8.21-3.2,11.93-4.86q3.34-1.49,6.43-3,2.06-1,4-2.05c3.91-2.06,7.53-4.17,10.92-6.29q1.7-1.06,3.32-2.13c2.73-1.8,5.32-3.61,7.81-5.43a92.24,92.24,0,0,0,9.55.12c5.67-.54,7.52,1,8.25,5.42a48.38,48.38,0,0,1,.46,5.46q0,.84.07,1.68l0,.57q0,.68.06,1.36l0,.93q0,.76.08,1.51l0,.74q0,.79.09,1.58l0,.67q0,.8.1,1.6l0,.64q.05.81.11,1.62l0,.6q.06.82.12,1.63l0,.56q.06.82.13,1.64l0,.52q.07.84.15,1.66l0,.46q.08.85.17,1.68l0,.4q.09.85.2,1.69l0,.35q.11.86.22,1.7l0,.3q.12.86.25,1.71l0,.23q.14.87.28,1.72l0,.16q.15.88.32,1.73l0,.08c2.2,11.18,6.15,19.06,13.77,19.41,13.43.61,41.46,3.14,31-6.22-7.2-5.4-18.72-6.12-18.72-6.12s-9.36-54-9.72-60.49c-.29-5.13-.58-7.1-10-10.56q2.11-1.53,4.3-3,1.47-1,3-2l1.53-1q1.54-1,3.15-1.93l1.62-1a114.06,114.06,0,0,0,11.55-7.58c1.3-1,2.51-2,3.67-2.93,1.82-1.52,3.5-3,5-4.56l.07-.07a62.63,62.63,0,0,0,8.44-10.36q.58-.9,1.11-1.8a58.52,58.52,0,0,0,4.26-8.76q.25-.64.48-1.27c.68-1.87,1.26-3.69,1.77-5.46.69-2.4,1.26-4.7,1.82-6.87q.27-1.05.54-2.07c.28-1,.57-2,.87-3v0l.19-.59c1.74-5.45,5.43-16.71,2.32-18.44s-3.6,1.08-6.84,8.64-22.68,55.09-95.77,40.68c-67.13-13.1-98.69-1-110.48,6.12-.05-1.08-.12-2.16-.21-3.25a110.92,110.92,0,0,0-2.18-14.58c.69-.45,1.43-.92,2.24-1.42s2-1.19,3.15-1.81a111.6,111.6,0,0,1,12.79-5.93q2.57-1,5.46-2t6.09-2q3.21-1,6.75-1.89,1.77-.46,3.63-.9c5-1.18,10.38-2.28,16.29-3.23,6.64-1.07,12.31-2.06,17.12-3,2.41-.49,4.6-1,6.59-1.46l2.3-.59,2.11-.59q1-.3,1.93-.6l1.13-.39,1.22-.45.54-.21,1.19-.51.69-.32q.67-.33,1.27-.66t1.12-.69q.52-.35,1-.71a9.85,9.85,0,0,0,1.52-1.51,7.85,7.85,0,0,0,.46-.64,7.22,7.22,0,0,0,1-2.34,8.1,8.1,0,0,0,.15-.88c0-.19,0-.38,0-.57s0-.66,0-1q0-.26,0-.53,0-.53-.14-1.09t-.23-1.14a33.33,33.33,0,0,0-1.14-3.79c-.32-.9-.69-1.85-1.1-2.85-.25-.62-.51-1.21-.78-1.79l-.18-.38c-.27-.57-.55-1.13-.85-1.66h0c-6.13-11.06-16.71-11.9-44.87-2.63-27.28,9-49.13,22.87-58.92,29.69l-.43-.53,0,0a62.24,62.24,0,0,0-5.9-6.38,130.79,130.79,0,0,1,10.45-8.86c2.25-1.75,4.68-3.57,7.22-5.43,3.45-2.51,7.12-5.1,10.9-7.7l2.43-1.66,2.79-1.89,3.52-2.35,2.47-1.63c4.48-2.95,8.94-5.82,13.21-8.51l3.33-2.09c2.73-1.71,5.36-3.33,7.83-4.84l1.46-.89c5.77-3.5,10.59-6.3,13.72-8,4-2.16,7.63-4.24,10.86-6.35q1.15-.75,2.22-1.51l1.34-1c.91-.68,1.78-1.37,2.59-2.08q.5-.43,1-.87t.91-.89l0-.05c.41-.42.8-.84,1.16-1.27a18.3,18.3,0,0,0,3.73-6.4q.17-.53.3-1.07a15.16,15.16,0,0,0,.36-2.22q0-.57.06-1.15a20,20,0,0,0-1-6.29c-.13-.41-.28-.83-.43-1.24l-.15-.39c-.11-.29-.22-.57-.34-.86l-.2-.46q-.18-.4-.37-.8l-.22-.45c-.15-.29-.3-.58-.46-.87l-.19-.35q-.33-.59-.69-1.17l-.25-.39c-.17-.26-.34-.52-.51-.78l-.35-.49-.48-.65-.4-.51-.5-.6-.42-.5-.59-.64q-.38-.41-.79-.8l-.55-.53-.58-.52-.5-.43-.64-.52-.49-.37-.7-.51-.45-.3a26.24,26.24,0,0,0-2.84-1.66l-.41-.2-.92-.42-.46-.19-1-.38-.42-.15a27.06,27.06,0,0,0-3.88-1l-.08,0c-.4-.07-.81-.14-1.22-.19l-.42-.06-1.21-.13-.46,0c-.42,0-.85-.05-1.28-.06h-.29a33.65,33.65,0,0,0-4.54.24l-.41,0c-.46.06-.92.13-1.39.21l-.57.1-1.4.28-.56.13c-.5.12-1,.23-1.5.37h0a59.53,59.53,0,0,0-14.81,6.52c-49.24,30.3-74.32,64.63-83.31,78.93q-3.49-1.1-7.22-2a64.22,64.22,0,0,1,6.68-16.55c1-1.76,2-3.53,3.11-5.3,2.2-3.53,4.63-7,7.17-10.48q1-1.29,1.93-2.56c2.59-3.39,5.27-6.67,7.91-9.79,1.32-1.56,2.64-3.07,3.93-4.53,5.18-5.84,10-10.83,13.59-14.41q1.34-1.34,2.7-2.58l1.36-1.22c1.81-1.59,3.61-3.07,5.33-4.45l1.28-1c2.52-2,4.84-3.82,6.74-5.53.63-.57,1.22-1.13,1.75-1.68a16.93,16.93,0,0,0,2-2.45,8.86,8.86,0,0,0,.84-1.61,5.68,5.68,0,0,0,.41-2.43c-.13-2.19-1.64-4.47-5.05-7.07l0,0-.81-.61-.22-.16-1.8-1.34-.11-.08q-1-.69-1.92-1.36l0,0c-12.42-8.55-26.85-13-51.44,12.83C278.14,175,270,206.37,268,219.7c-15.46.47-32.8,3-52,8.12a220,220,0,0,0-42.8,15.88c-7.43-7.64-25.15-22.28-59.43-33.18C71.16,197,65.55,215.87,69.1,225.06v0c.12.3.24.59.38.86l0,.05c.13.27.27.53.42.77l0,.05c.15.24.31.47.47.69l0,0a7.3,7.3,0,0,0,.52.61h0c1.35,1.41,4.14,3,7.9,4.85l1.16.55c1.58.74,3.3,1.5,5.15,2.28,3.69,1.57,7.85,3.23,12.23,5l10.16,4c2.87,1.12,5.76,2.26,8.62,3.4,1.71.69,3.41,1.38,5.08,2.06,9.86,4.07,18.77,8.18,24.14,12A94.76,94.76,0,0,0,136.67,271.07Z"/></svg>