<svg id="Layer_1" data-name="Layer 1" xmlns="http://www.w3.org/2000/svg" width="600" height="589" viewBox="0 0 600 589"><defs><style>.cls-1{fill:#e21914;}.cls-2{fill:#bf1611;}.cls-3{fill:#d11713;}.cls-4{fill:#edead9;}.cls-5{fill:#ccc9bb;}.cls-6{fill:none;stroke:#ccc9bb;stroke-miterlimit:10;stroke-width:0.2px;}.cls-7{fill:#f2a700;}.cls-8{fill:#1d1d1b;}</style></defs><title>premio2-4</title><path class="cls-1" d="M217.71,242.18s-13.54,68.22-29.68,97.9S162,430.69,174.49,414,200,355.7,201,377.05s2.6,31.77,12.5,1S250,254.15,250,254.15Z"/><path class="cls-2" d="M196.86,319.74c.94,4.82,2.73,7.26,5.75,5.75,14.58-7.29,11.46,0,2.08,21.35-6.66,15.17-13,28.22-15.06,39.37,6.2-12.78,10.81-21.52,11.41-9.17,1,21.35,2.6,31.77,12.5,1S250,254.15,250,254.15l-32.29-12S208.82,287,196.86,319.74Z"/><path class="cls-1" d="M267.88,97.75S238.72,87.34,180.39,179c0,0-77.07,86.79-83.32,124.29,0,0-12.5,20.83-2.78,11.8,0,0-59.71,70.82-68.74,71.52s41.66-4.86,66-35.41c15.42-18.62,28.32-47.32,26.39-31.84s-4.51,25.15.32,21.92,39.33-84.47,39.33-84.47,41.59-49.33,41.91-45.78,10,41.91,17.73,44.49,30,8.38,40.62,3.22,52.07-35.31,68.21-49.37,36.45-55.2,54.68-43.74,47.91,34.89,47.91,34.89,41.14,55.2,53.12,59.37-20.83-42.7-20.83-42.7,35.41,29.68,43.74,30.2,70.3,20.31,75,20.31S589,260.92,557.25,250l-30.72-9.37s10.15-3.91,7.29-5.47S496.06,232,489,223.43s-84.88-91.13-112-100S273.78,92.37,267.88,97.75Z"/><path class="cls-3" d="M450.49,205.2c-19.79-10.42-41.14-44.26-55.72-58.85S362.48,150,362.48,150L373,163.71a12.12,12.12,0,0,1,7.7,1.91c18.23,11.46,47.91,34.89,47.91,34.89s41.14,55.2,53.12,59.37-20.83-42.7-20.83-42.7,35.41,29.68,43.74,30.2,70.3,20.31,75,20.31c0,0-57.8-24-66.14-24S470.28,215.62,450.49,205.2Z"/><path class="cls-3" d="M244.79,139.59c-31.25,16.66-115.61,122.9-116.65,129.15-.49,2.92-18.18,22.37-34.11,39.9-2.94,5.46-6.11,12.36.26,6.45l-2.56,3c20.52-19.94,39-41.9,50.47-54.57,14.58-16.14-12.5,26-20.83,35.93-3.4,4-7.75,14.49-11.72,25.45,5.87-9.21,9.31-14.09,8.24-5.56-1.93,15.47-4.51,25.15.32,21.92s39.33-84.47,39.33-84.47,41.59-49.33,41.91-45.78,10,41.91,17.73,44.49,30,8.38,40.62,3.22,52.07-35.31,68.21-49.37c6.56-5.71,13.8-15.89,21.31-25.19l-23.39,8.53S276,122.92,244.79,139.59Z"/><path class="cls-1" d="M330.48,52.45,319.6,55.17s23.79,6.8,12.91,6.12S301.93,64,293.78,69.44s-31.26,12.23-36,30.58-17,34-17,34,.58,50.78,4,45.28a131,131,0,0,1,9.29-12.39l-1.72,30.28s-.69,3.1,7.23,4.82,21,15.14,45.77,13.42c0,0,1.72-5.16,5.85-4.82s46.8-1.72,48.86-12.73,7.57-62.28,18.93-63.66S389.66,99.45,389.66,95l-5.16,3.1S385.87,76,367.63,64A70.92,70.92,0,0,0,330.48,52.45Z"/><path class="cls-3" d="M309.73,160.77s-17.08,1.77-16.2,10c0,0-4.17-1.74-5.38-.23s-6.92,7.22-8.27,7.22-11-1.2-11.88-8.57,5-40.76-2.26-36.7S243,167.7,243,167.7l-7.82,20,33,37.46,46.17,1.39,19.79-12.85Z"/><path class="cls-2" d="M309.73,160.77s-17.08,1.77-16.2,10c0,0-4.17-1.74-5.38-.23s-3.58,5.38-8,1.74c-1-.86-10.45-.28-9.56-7.65.57-4.78-1.81-15.46,1-22.19,2-4.78,2.49-6.78,0-6.69-5.74.19-2.34-8.72-4.15-7.7C260.2,132.12,243,167.7,243,167.7l-.83,2.12c.6,6.8,1.43,11.31,2.58,9.46a131,131,0,0,1,9.29-12.39l-1.72,30.28s-.69,3.1,7.23,4.82,21,15.14,45.77,13.42c0,0,1.72-5.16,5.85-4.82a150.14,150.14,0,0,0,20.87-1.47Z"/><path class="cls-2" d="M389.66,95l-5.16,3.1s0-.65,0-1.76c-.65,4.13-1.51,9.45-2.6,15.7-2.68,15.42-13.46,25.41-13.46,25.41l3.82,4.06c2-4.22,4.2-7,6.71-7.29C390.34,132.83,389.66,99.45,389.66,95Z"/><path class="cls-4" d="M319.78,133.34s-20.83,32.81-12,51.55c8.71,18.45,22,26.81,19.9,69.75a.84.84,0,0,0,1.41.67c9.78-9.54,62.57-64.83,42.22-128.74,0,0-5.21-5.73-27.6,2.08S319.78,133.34,319.78,133.34Z"/><path class="cls-4" d="M323.69,136.26,321.85,134s-17.18-9.46-25.15-14.44S272.93,118,272.93,118l2,.62s-18.55,6.85-15.19,9.59c1.49.75,9.71-1.49,9.71-1.49s-7.72,5.1-8,9.71c0,0,5.73,1.62,9.71.75,0,0-7.59,2.12-1.74,3,0,0-5.48,4.11-1.74,5,0,0-3.74,5-.12,5,0,0-5.6,3.86-2.37,6s3.36-1.12,3.36-1.12-6.23,12.95-1.37,13.45c0,0-1.25,8,6.23,9.46S286.87,180.08,289,176s18.55-11.45,18.55-11.45Z"/><path class="cls-5" d="M319.78,133.34s-20.83,32.81-12,51.55c8.71,18.45,22,26.81,19.9,69.75a.84.84,0,0,0,1.42.67c2.05-2,6-6,10.76-11.7,2-12.53,1.58-14.4-.88-53.77C337.34,163.23,319.78,133.34,319.78,133.34Z"/><path class="cls-6" d="M280.69,132.17c-2.45,5-3.46,12.17-3,15.71.39,3-1,7.51-.31,9.09s2.33,2.17,8,1.08c6.41-1.23,10.42-9.39,10.94-12,.69-3.51,2.58-7.64,2.08-11.4-.45-3.34-4.58-7.26-7.55-10a29.6,29.6,0,0,0-4.31-.15C285.09,124.35,280.69,132.17,280.69,132.17Z"/><path class="cls-7" d="M279.55,140.86s3.06,11.12,8.29,7.35,9.28-8.64,7.93-12.72-5.91-13.2-11.07-7.21C279.19,134.69,278.92,136.69,279.55,140.86Z"/><path class="cls-8" d="M293,132.71c.6,3.58-.6,7.17-2.84,7.45s-3.5-2.5-4.11-5.81c-.94-5.06,1.68-6.06,2.59-6.27C290.07,127.75,292.58,130.31,293,132.71Z"/><path class="cls-6" d="M279.55,140.86s3.06,11.12,8.29,7.35,9.28-8.64,7.93-12.72-5.91-13.2-11.07-7.21C279.19,134.69,278.92,136.69,279.55,140.86Z"/><path class="cls-6" d="M284.39,124.47s-5.55,9.55-5.85,11.86-3.7,22.49-5.85,25.88c-1.1,1.73.31,5.08,4.47,4.31,0,0,2.31-.77,3.54.92s16.94-12.63,17.56-14.17,6.62-17.87,3.08-25.42c0,0-8.32-7.86-12.63-5.39S284.39,124.47,284.39,124.47Z"/><path class="cls-5" d="M309.67,160.78c-.59.06-15.25-.12-16.76,8.77,0,0-4-1.09-5.2.41s-3.58,5.38-8,1.74c-1-.86-10,.31-9.13-7.06.57-4.78-3.33-16.32,1-22.19,3.29-4.51,2.91-8.42.42-8.34-5.47.18-3.07-6.24-4.36-6.12-2.3,1.82-6,5.21-6.16,8.38,0,0,5.73,1.62,9.71.75,0,0-7.59,2.12-1.74,3,0,0-5.48,4.11-1.74,5,0,0-3.74,5-.12,5,0,0-5.6,3.86-2.37,6,1.37.89,2.17.83,2.66.46-1.48,3.46-4.47,11.47-.66,11.86,0,0-1.25,8,6.23,9.46S286.87,180.08,289,176s18.55-11.45,18.55-11.45Z"/><path class="cls-8" d="M310.23,165.8c3.75-3.47,4.62-2.31,9.53-4.33s5.78-7.51,6.35-14.73c.33-4.18-3.2-10.09-6.24-14.34a.41.41,0,0,1-.1-.11s-12.44,19.42-14.52,37.14C307,169.36,309.28,166.68,310.23,165.8Z"/><path class="cls-2" d="M235.78,167A146.37,146.37,0,0,1,226,184.58c-1,1.52-3.65,6.46-5.83,6.69-1.29.14-1.48-2-1.71-1.95a3.5,3.5,0,0,0-2.52,3.13c-.68,3.85-.65,14.45-5.39,16.06-2.37-3.77,4.7-12.56,1.86-13.8-1.67-.73-10.7,11.66-12.07,13.33l9.67-9.51c-1.45,3.07-3.65,15.3,2.78,10.54,4-3,4.68-11.8,5.17-16.4,5.48,5.85,18.18-25.33,19.57-29.21L235.78,167C234.66,169.33,236.92,164.77,235.78,167Z"/></svg>