<svg id="Layer_1" data-name="Layer 1" xmlns="http://www.w3.org/2000/svg" width="600" height="589" viewBox="0 0 600 589"><defs><style>.cls-1{fill:#549abc;}.cls-2{fill:#417994;}.cls-3{fill:#38667d;}.cls-4{fill:#488bab;}.cls-5{fill:#fff;}.cls-6{fill:#3f758f;}</style></defs><title>premio_L6_descubierto</title><path class="cls-1" d="M122.07,452.52S120.17,308.26,187.9,213c0,0,10.06-31.52-15.42-84.5,0,0,25.48-17.44,66.39,23.47,0,0,64.38-65,132.11-89.86,0,0,40.24-41.58,99.92-28.84s65.72,49,65.72,49,40.24,34.2,28.17,88.52c0,0,10.73,24.81-4.69,36.21l-7.38,3.35s8,51.64-112,80.47c0,0-185.76,49.62-253.49,167.65,0,0,83.15,63,51.64,69.07-31.52-12.74-74.44,18.78-100.59-12.07,0,0,7.38,30.85-57.67,26.15-17.9-1.09-46.78,10.56-57.16,15a4,4,0,0,1-5.52-3.21C17,544.89,22.05,524.55,69.21,488,104.08,464.51,122.07,452.52,122.07,452.52Z"/><path class="cls-2" d="M358.25,312.83s52.56,27.74,64.24,59.13,22.24,14.5,23.36,10.95c2.69-8.52,9.49-65-14.6-101.47Z"/><path class="cls-3" d="M334.16,204.06a12.55,12.55,0,0,1,3.16-2.08l.86-.41.89-.33.89-.33.92-.25a27,27,0,0,1,3.75-.71c.63-.07,1.27-.07,1.91-.11a14.46,14.46,0,0,1,1.91,0,47.81,47.81,0,0,1,14.91,3,86.77,86.77,0,0,1,13.71,6.65l6.51,3.87c1.11.58,2.2,1.19,3.32,1.75s2.25,1.1,3.41,1.55a56.59,56.59,0,0,0,14.37,3.93,57.44,57.44,0,0,0,7.44.49,65.09,65.09,0,0,0,7.46-.47c9.94-1.19,19.52-4.43,29-7.76,4.77-1.65,9.56-3.32,14.41-4.82a102.3,102.3,0,0,1,14.84-3.64,57.45,57.45,0,0,1,15.34-.53,59,59,0,0,1,14.85,3.79c4.76,1.78,9.36,3.86,14.15,5.32a46.88,46.88,0,0,0,7.3,1.62,25.41,25.41,0,0,0,3.71.28l1.87,0,1.87-.14a49.06,49.06,0,0,0,14.56-3.56,68,68,0,0,0,6.85-3.19,60.39,60.39,0,0,0,6.48-3.91,64.65,64.65,0,0,1-13.12,7.59A49.8,49.8,0,0,1,537,215.71l-1.91.19h-1.92a26.45,26.45,0,0,1-3.84-.22,48.05,48.05,0,0,1-7.52-1.52c-4.92-1.4-9.59-3.41-14.32-5.09a61.94,61.94,0,0,0-14.5-3.51,55.69,55.69,0,0,0-14.87.61,100.46,100.46,0,0,0-14.56,3.66c-4.8,1.52-9.55,3.22-14.32,4.89-9.55,3.28-19.28,6.52-29.48,7.68a66.88,66.88,0,0,1-7.67.44,59.18,59.18,0,0,1-7.67-.55,54.5,54.5,0,0,1-14.74-4.23c-1.19-.48-2.31-1.1-3.46-1.65s-2.24-1.23-3.36-1.84l-6.46-4A87.18,87.18,0,0,0,363,203.77a47.07,47.07,0,0,0-14.58-3.43,14.1,14.1,0,0,0-1.88,0c-.63,0-1.26,0-1.88.06A27.37,27.37,0,0,0,341,201l-.92.21-.9.29-.9.29-.87.37A12.48,12.48,0,0,0,334.16,204.06Z"/><path class="cls-4" d="M373.82,248.1c-85.37-56.63-174.23,109.77-197.76,151.58s-8.71,68-58.37,78.41c-36.63,7.71-70.89,52.4-86.34,75.31,13.25-5.25,34.82-12.65,49.25-11.78,65,4.69,57.67-26.15,57.67-26.15,26.15,30.85,69.07-.67,100.59,12.07,31.52-6-51.64-69.07-51.64-69.07,67.73-118,253.49-167.65,253.49-167.65,44.43-10.67,71.31-24.47,87.54-37.62C497.32,268.18,434.69,288.47,373.82,248.1Z"/><path class="cls-2" d="M283.79,274.14s-8.76,3.65-32.12,44.53c-16.05,21.4-41.91,22-42.2,43.81a6.31,6.31,0,0,0,6.58,6.36c11.06-.45,36.67-1.81,70.66-5.64,51.83-5.84,46.72-49.64,46.72-49.64S315.91,315.75,283.79,274.14Z"/><path class="cls-3" d="M311.74,303.48c-1.58,8.48-10.62,20.87-39.85,37C247.21,354,226.94,362.63,215,368.77a6.32,6.32,0,0,0,1.06.07c11.06-.45,36.67-1.81,70.66-5.64,51.83-5.84,46.72-49.64,46.72-49.64S325.92,314.5,311.74,303.48Z"/><path class="cls-4" d="M467.75,145.66c22.71-46.84-71.18-39.87-79.09-97.14a110.19,110.19,0,0,0-16.2,12.2c-.85,14.6.5,32.94,9.15,48.44,9.49,21.17-10.95,29.2-8,38s19,13.14,21.9-23.36C395.48,123.76,444.39,193.84,467.75,145.66Z"/><path class="cls-3" d="M157.68,480.26s15.17,1.17,31.9-27.23C189.58,453,178.3,488,157.68,480.26Z"/><ellipse cx="361.21" cy="125.36" rx="28.35" ry="21.52" transform="translate(142.46 438.95) rotate(-74.24)"/><ellipse class="cls-5" cx="358.95" cy="115.62" rx="7.2" ry="11.35"/><ellipse class="cls-5" cx="374.17" cy="128.04" rx="6.36" ry="9.92"/><path d="M545.5,111.12a2.22,2.22,0,0,0-2.59,2.64c2.65,12.74,12.43,61,20.64,54.16,5.65-4.7,11.74-16.56,6.49-33.69C564.72,116.82,551.6,112.29,545.5,111.12Z"/><ellipse class="cls-5" cx="557.75" cy="130.26" rx="3.69" ry="10.09" transform="translate(-13.68 169.3) rotate(-17.05)"/><path class="cls-3" d="M368.92,165.65a25,25,0,0,0,4.07-2.48,36,36,0,0,0,3.68-3,54.1,54.1,0,0,0,6.34-7l1.41-1.91c.46-.65.86-1.33,1.3-2,.92-1.3,1.63-2.72,2.47-4.07s1.47-2.82,2.22-4.22,1.33-2.9,2-4.33c-.5,1.52-1,3-1.6,4.53s-1.26,2.95-2,4.38-1.47,2.86-2.34,4.21c-.43.68-.84,1.37-1.3,2l-1.41,2a43,43,0,0,1-6.63,7A26.8,26.8,0,0,1,368.92,165.65Z"/><path class="cls-3" d="M356.75,84.07a43.52,43.52,0,0,1,3.48-8A63.21,63.21,0,0,1,365,68.64,60,60,0,0,1,370.74,62c1-1.05,2.15-2,3.24-3s2.3-1.82,3.45-2.71l0,0c-1.08,1-2.19,1.94-3.25,2.93s-2.14,2-3.12,3.06l-1.53,1.56-1.45,1.63q-.75.8-1.43,1.65c-.46.56-.94,1.12-1.38,1.69a62.88,62.88,0,0,0-4.86,7.26,43.4,43.4,0,0,0-3.65,7.94Z"/><path class="cls-3" d="M362.8,86.59a51.67,51.67,0,0,1,4.25-11.28,42.79,42.79,0,0,1,3-5.23,38.25,38.25,0,0,1,3.8-4.69l0,0c-1.16,1.64-2.37,3.24-3.43,4.94s-2.15,3.37-3.1,5.13a55.65,55.65,0,0,0-2.58,5.43,45.38,45.38,0,0,0-2,5.68Z"/><path class="cls-3" d="M370.37,92.13c1-1.82,2-3.6,3.13-5.33a26.44,26.44,0,0,1,1.76-2.55A14.22,14.22,0,0,1,377.43,82l0,0-3.64,5c-1.19,1.67-2.32,3.39-3.42,5.13Z"/><path class="cls-3" d="M533,101.21a27.21,27.21,0,0,0,1.83-4.53A30.55,30.55,0,0,0,536,92c.25-1.6.33-3.21.42-4.81s.1-3.22.17-4.88h.1a17.13,17.13,0,0,1,.73,4.92,20.38,20.38,0,0,1-.64,4.94,29.13,29.13,0,0,1-3.66,9.15Z"/><path class="cls-3" d="M540.15,92.22l-1.67,6.22c-.54,2.08-1.09,4.15-1.57,6.24s-1,4.18-1.37,6.28c-.22,1.05-.38,2.11-.53,3.17l-.21,1.59-.12,1.61a34.48,34.48,0,0,1,.48-6.43c.32-2.13.78-4.24,1.26-6.33s1.06-4.17,1.69-6.23S539.4,94.24,540.15,92.22Z"/><path class="cls-3" d="M552.06,175.94a25.72,25.72,0,0,0,3.71,0,16.06,16.06,0,0,0,3.62-.62,9.91,9.91,0,0,0,3.22-1.63,8.6,8.6,0,0,0,2.17-2.93,7.16,7.16,0,0,1-1.92,3.22,8.87,8.87,0,0,1-3.33,1.82,13,13,0,0,1-3.74.52A15.32,15.32,0,0,1,552.06,175.94Z"/><path class="cls-3" d="M187.9,213a126.62,126.62,0,0,1,6.34-11.15q3.43-5.42,7.33-10.54c.64-.86,1.34-1.68,2-2.51s1.35-1.67,2.07-2.46l2.13-2.41c.74-.78,1.49-1.54,2.24-2.31a54.08,54.08,0,0,1,10-8q-1.26,1-2.53,2c-.85.64-1.6,1.41-2.4,2.1s-1.57,1.43-2.32,2.19-1.53,1.48-2.22,2.28a121.66,121.66,0,0,0-8.21,9.76c-2.65,3.33-5.07,6.84-7.48,10.35-1.22,1.75-2.39,3.53-3.54,5.33S189,211.22,187.9,213Z"/><path class="cls-6" d="M335.19,329.75a10.76,10.76,0,0,0,3.35-3.86,15.21,15.21,0,0,0,1.53-4.83,27.53,27.53,0,0,0,.3-5.13l-.17-2.6c-.08-.87-.2-1.73-.26-2.62.28.84.49,1.69.74,2.54s.32,1.74.46,2.62.14,1.78.14,2.67a19,19,0,0,1-.23,2.68,13.12,13.12,0,0,1-1.85,5.06A8.67,8.67,0,0,1,335.19,329.75Z"/><path class="cls-6" d="M337.94,328.11a8.32,8.32,0,0,0,4.9-2.62,10.8,10.8,0,0,0,1.5-2.36c.21-.43.36-.89.56-1.34s.3-.93.5-1.4c0,.5,0,1,0,1.52a12.75,12.75,0,0,1-.31,1.5,7.74,7.74,0,0,1-1.47,2.74,6.39,6.39,0,0,1-2.6,1.76A5.37,5.37,0,0,1,337.94,328.11Z"/><path class="cls-3" d="M333.43,313.56s-18.93-2-40.5-28.06c0,0,17.58,26.9,40,29.83Z"/></svg>