<svg id="Layer_2" data-name="Layer 2" xmlns="http://www.w3.org/2000/svg" width="600" height="589" viewBox="0 0 600 589"><defs><style>.cls-1{fill:#38667d;}</style></defs><title>premio_leccion_8_2_block</title><path class="cls-1" d="M464.81,154.12s17.25-48.4,11.5-74.28c-4.46-20.06-146.1,168.83-182.45,252.4-.73-.41-1.47-.82-2.22-1.2a58.27,58.27,0,0,0,4.8-14.94A42.58,42.58,0,0,0,298,305a62.51,62.51,0,0,0-1.53-13.86,28.6,28.6,0,0,0-2.18-8.82,14.45,14.45,0,0,0-3.41-5.73q-.82-1.44-1.73-2.8a17.42,17.42,0,0,0,3.69.39c3.86,0,9.22-1.18,15.31-5.89,6.59-5.1,8.68-9.7,9.31-12.48a2.71,2.71,0,0,0,1.86-2.6,2.62,2.62,0,1,0-5.24,0,2.73,2.73,0,0,0,1.36,2.38c-.61,2.4-2.55,6.5-8.52,11.12-10.94,8.47-19.11,4.64-19.45,4.48l-.09.18A38.31,38.31,0,0,0,273,259.81c3.25-14,8.26-50.94-20-77.95a202.14,202.14,0,0,0-46.18-33C193.49,118.75,182,91.07,179.48,79.5c-5.32-24.62-13.29,3.15-5.39,57.22-10-2-18.8-2-25.83.25a28.18,28.18,0,0,0-9.13,2.66c-10,4.59-10.35,6.6-9.48,8.49s3.3,2.64,12.62-1.64c4.91-2.25,8.61-5.15,9.42-7.18,6.36-1.44,14.1-1.19,22.9.74a430.65,430.65,0,0,0,9.07,43.19s-8.37,9.2-1.67,23.42c2,4.26,4.94,14.33,8.55,26.77-12.07-5.17-22.82-8.35-32.11-9.46-32.34-3.87-54.14-5-73.66,19.25a86.66,86.66,0,0,0-5.38,6.9c-9.53,13.52-9.8,18.52-7.43,20.14s5.81.25,16-14.28c6.21-8.83,9.4-17.39,7.81-19.75C111,223.37,128.88,223.6,158,227.1c10.55,1.26,22.29,5.27,33.64,10.31,3.13,10.77,6.72,22.94,10.62,34.5A31,31,0,0,1,191.57,262a4,4,0,0,0,.37-2.51c-.25-1.67-1.27-2.9-2.29-2.74s-1.63,1.63-1.38,3.3a3.91,3.91,0,0,0,1.13,2.33,32.29,32.29,0,0,0,13.79,12.07c2.42,7,5,13.8,7.57,19.79A43.82,43.82,0,0,0,212.95,308a44.4,44.4,0,0,0,5.62,11.62,71.34,71.34,0,0,0,7.12,18.75c-.83.86-1.64,1.74-2.4,2.68-8.24,10.11-17.09,20.22-23.57,31.26l-.11.18q-.74,1.27-1.44,2.57l-.34.63q-.55,1-1.07,2.08l-.4.82-.58,1.23c-.17.36-.33.73-.49,1.09q-.37.84-.71,1.68-.23.57-.45,1.14c-.14.36-.28.72-.42,1.09-.23.61-.44,1.23-.64,1.85q-.17.51-.33,1-.28.88-.53,1.78c-.1.34-.19.69-.28,1s-.23.92-.34,1.38l-27.8,6.67c-1-4.2-6.06-10.58-9.5-11.54-6.86-1.92-8.65,0-1.57,8.85s9.64,6.29,9.64,6.29a2.32,2.32,0,0,0,.76-.35l27.83-6.68h0c0,.28-.09.56-.14.85-.12.76-.23,1.52-.31,2.29,0,.19,0,.39-.06.58q-.1,1-.17,2.06c0,.23,0,.47,0,.7q-.06,1.21-.06,2.45c0,.23,0,.47,0,.71,0,.86,0,1.72.08,2.59,0,.11,0,.23,0,.34.05.82.12,1.65.21,2.49,0,.2,0,.4.06.6q.16,1.34.39,2.71c0,.21.07.41.11.62.17.95.35,1.9.57,2.87l0,.14c.22.94.46,1.9.73,2.86l.16.58q.42,1.46.91,2.94l.2.59c.35,1,.73,2.07,1.14,3.13.63,1.67,1.2,3,1.72,4.09a9.35,9.35,0,0,0,2.19,3.25,1.7,1.7,0,0,0,.35.21.87.87,0,0,0,.61.05,1.1,1.1,0,0,0,.51-.36,2.89,2.89,0,0,0,.41-.69c.06-.14.12-.29.18-.44a9.9,9.9,0,0,0,.29-1c.09-.37.16-.76.22-1.16s.12-.81.16-1.21c.23-2,.25-3.86.25-3.86s6.67,30.68,20.53,42.26c-9.6,9.51-22.19,25.71-27.61,36.14-2.3-2.22-7.82-6.92-13-6.37-6.78.72-7.29,4.77-1.88,6.74,7.59,2.77,10.51,8.61,14.11,7.69a1.49,1.49,0,0,0,.3-.07h0l.07,0a1.48,1.48,0,0,0,.84-1c0-.06,0-.12,0-.18a7.56,7.56,0,0,0,.27-1c2.71-8.46,17.94-29,29.31-40.13a16.45,16.45,0,0,0,5.86,2.35c2.31-.27,2.45-2.54,1.56-5.52-.18-.6-.4-1.22-.65-1.87s-.54-1.31-.85-2a100,100,0,0,0-7.44-12.77s4.21,5,10.34,11l.85.83c2.29,2.23,4.83,4.57,7.49,6.83l1,.85c1.35,1.12,2.72,2.22,4.12,3.27l1,.78q1,.77,2.11,1.49c1.41,1,2.82,1.86,4.23,2.66q1.05.6,2.1,1.14c1,.53,2.08,1,3.1,1.41a26.75,26.75,0,0,0,3,1q1,.26,1.94.42a15.93,15.93,0,0,0,1.88.19,10.35,10.35,0,0,0,7.39-2.37c5.8-4.92-10.19-15.82-10.19-15.82s5,2.18,11.38,4.29c.16.27.3.54.47.82a37.84,37.84,0,0,0,7.76,9l-.22-.08.24.09a68.55,68.55,0,0,0,13.6,9.06h0a87.35,87.35,0,0,0,22.19,7.87,127.19,127.19,0,0,1,10.72,22.83,1.5,1.5,0,0,0,2.77.16h0c3.44-2.25,11.24-6.24,12.08-8.94.39-1.25,1.94-4.39-4.08-3.15-2.73.56-7.75,3.37-10,5.45a134,134,0,0,0-7.64-15.68c9.22,1.36,17.73.7,23.46-2.74a14.49,14.49,0,0,0,5.66-6c.37-.73.7-1.49,1-2.25.1-.24.19-.48.28-.72.21-.55.41-1.1.59-1.66.09-.27.18-.55.26-.83.17-.58.33-1.16.48-1.75.06-.24.13-.48.18-.72.19-.83.37-1.67.52-2.51,0-.07,0-.15,0-.22q.2-1.17.34-2.36c0-.26.05-.53.08-.79q.1-.93.16-1.87c0-.28,0-.55,0-.83q.05-1,.06-2c0-.2,0-.41,0-.61q0-1.34-.05-2.68c0-.05,0-.11,0-.16,0-.83-.1-1.65-.17-2.48,0-.22,0-.43-.06-.64q-.1-1-.24-2c0-.21-.06-.42-.09-.64q-.17-1.14-.37-2.26l0-.27c-.33-1.73-.73-3.4-1.19-5l-.12-.41q-.3-1-.63-2l-.13-.39c-3.17-9-8.4-15-14-13.27a12.15,12.15,0,0,0-9.91,10.62s-2.32-2.58-3.87-2.07c0,0-2.57-9.74-10.77-14.52l-.33-.2a10.59,10.59,0,0,0-5.24-4.8,5.46,5.46,0,0,0,.86-.79,8.66,8.66,0,0,0,1.31-2,19,19,0,0,0,1.38-4.43q.14-.69.26-1.46a50.59,50.59,0,0,0,.5-5.33,16.38,16.38,0,0,0,.42,2.32l.08.3a4.26,4.26,0,0,0,1.4,2.41,1.22,1.22,0,0,0,.42.16c.52.09,1.15-.17,1.91-1a12.22,12.22,0,0,0,2.74-4.62c.06-.19.11-.37.16-.55l0-.17c36.06,29.8,99,58.51,120.2,70,28.28,15.34,26.84-19.17,27.8-68.53s-34.51-89.62-34.51-89.62C509.38,240.87,464.81,154.12,464.81,154.12Zm-213.9,30c26.78,25.63,22.3,60.71,19.18,74.46a37.65,37.65,0,0,0-12.86-2.1s-26.16-53.76-48.23-103A199.78,199.78,0,0,1,250.91,184.14Z"/></svg>