<svg id="Layer_1" data-name="Layer 1" xmlns="http://www.w3.org/2000/svg" width="600" height="589" viewBox="0 0 600 589"><defs><style>.cls-1{fill:#917f6a;}.cls-2{fill:#d1bc9f;}.cls-3{fill:#c0a78e;}.cls-4{fill:#f3eee8;}.cls-5{fill:#dfdad4;}.cls-6{fill:#c8c8c8;}.cls-7{fill:#ededed;}.cls-8{fill:#3b2918;}.cls-9{fill:#1d1d1b;}.cls-10{fill:#c1114c;}.cls-11{fill:#f7f7f7;}.cls-12{fill:#e2e2e2;}.cls-13{fill:#960d3b;}.cls-14{fill:#fff;}.cls-15{fill:#f6f4f1;}.cls-16{fill:#3b3b39;}.cls-17{fill:#595957;}.cls-18{fill:#675f51;}</style></defs><title>premio_leccion_4_2</title><path class="cls-1" d="M320.92,374.74s53.74,97.5,71.5,106.61c0,0-20.8,62-15.6,66.3s20.8,17.77,25.57,10,33.37-58.07,31.63-65.87-12.57-13.43-14.3-21.23-7.8-45.94,7.37-97.5c0,0,3-76.7-36.4-59.37S304.45,354.8,320.92,374.74Z"/><path class="cls-2" d="M213.37,129.6,294,191.44l132.64-.9s21.51.9,43,23.3S561,308.87,562,367.11a99.51,99.51,0,0,0-15-28.59s3,14.34-2.88,56.37c-2,14.31,1.53,24.79,4,43,.91,6.68,10.09,17.52,12.22,19.52,2.94,2.76-7.57-2-7.57-2,10.7,29.73,28.23,61.48,34.33,64,10.75,4.48-78,0-86-69.91,0,0-4.26,9.88-1.22,18.65s-16.19-5.4-9.1-34.73,24.61-69.8,12.14-97.11c0,0-9.25,23.41-24.21,41-11.41,13.4-25.7,33.55-23.68,35.58s21.92,15.51,28.66,14.16-40.8,56.65-43.83,76.2c-2.7,12.48-35.07,1-34.39-4.38S430.71,447,435.09,447c0,0-26.64-19.89-28.32-27.65,0,0-5.73,9.78-5.73,16.19s-6.88-6.17-6-21.33c0,0-3.9,10-3.9,13.87s-4.33-16.47,2.17-29l-6.07,7.37a65.76,65.76,0,0,1,6.07-14.73c3.9-6.5,16-66.3,9.1-65.44S389,332.48,353.86,376,232.3,355.88,227.1,345.48c0,0,7.8,22.75,11.05,24.05s-52.65-28.6-56.55-87.75S187.28,130.18,213.37,129.6Z"/><path class="cls-1" d="M204.35,322.08s-11.05.65-15.6,5.85-26,44.82-30.47,52-5.11,29.78-5.11,29.78,6-6.92,7.22-9.93-7.22,20.15,4.21,48.43c0,0,0-6.62,1.8-8.72,0,0-5.11,18.35,23.76,33.39,7.52,2.11,12.93-9.63,15.94-26.17,0,0-14.07-10.62-14.16-32.44,0-.43-.2-2.88-.44-2.53-.92,1.35-3.18,3.5-4.17,2.11-1.5-2.11,1.62-14.67,1.62-14.67a81.81,81.81,0,0,0,19.88-2c14.36-3,24.61,2.44,22.59.37-4.77-4.9,1.16-5.83,7-7.94,26.33-9.43,50.05-3.25,50.05-8.78S206.95,330.21,204.35,322.08Z"/><path class="cls-3" d="M538.47,477.44s-1.73,3.9.43,12.13c0,0-34.67-58.5-20.37-96.2,0,0,4.09,11.38,5.92,18.6a1,1,0,0,0,1.78.21c3.5-6.88,11.45-32.39-15.07-95.94l-8.3,20.14c12.48,27.31-5.06,67.77-12.14,97.11s12.14,43.5,9.1,34.73,1.22-18.65,1.22-18.65C507,501,556.52,517,578,520.08,566.11,510.15,545.66,491.83,538.47,477.44Z"/><path class="cls-3" d="M437.71,331.18c-16.25-21.45-24.05-19.5-33.15-31.85s-13,2.6-29.25,15-31.42,19.07-36.95,17c-1.93-.71-.5,13.09,16.08,35.1l-.88,10,.3-.34c35.1-43.55,41.6-49,48.54-49.84s-5.2,58.94-9.1,65.44a65.77,65.77,0,0,0-6.07,14.73l6.07-7.37c-6.5,12.57-2.17,32.94-2.17,29s3.9-13.87,3.9-13.87c-.87,15.17,6,27.74,6,21.33s5.73-16.18,5.73-16.18c1.69,7.76,28.32,27.65,28.32,27.65s2.64-.78,8.44.56c1.31.3-4.9-1.69-7.77-8.28-8.83-20.21.52-70.24,11.05-82.72C446.81,356.54,454,352.63,437.71,331.18Z"/><path class="cls-4" d="M238.15,369.54c.33.13,0-.07-.73-.57A2.32,2.32,0,0,0,238.15,369.54Z"/><path class="cls-4" d="M305.1,363.69s-1.15-17.41-5-9.34c0,0-17.29-21.9-16.91-14.22,0,0,4.23,11.53-4.61,3.07s-27.66-41.11-28-50.33c-.33-8-50,2.2-65.5,8.81,10.51,37.23,40.73,59.42,50.29,65.89a.47.47,0,0,0,.65-.65c-3.68-6.26-8.88-21.44-8.88-21.44,4.1,8.21,58.79,49.59,98.93,45.29C321,376.94,313.88,363.32,305.1,363.69Z"/><path class="cls-5" d="M191.66,318.84s12.14-13,60.63-20.91c0,0-1.87-7-14-7.51-13-.59-35.88.71-53.24,11.27C185,301.69,190.19,317.07,191.66,318.84Z"/><path class="cls-6" d="M197.85,240.51a14.75,14.75,0,0,1,4.77-1.53,14.48,14.48,0,0,1,5,.17,13.1,13.1,0,0,1,4.64,2,15.07,15.07,0,0,1,2,1.57c.61.58,1.13,1.24,1.67,1.87a20.29,20.29,0,0,0-3.85-3.11,13.51,13.51,0,0,0-4.54-1.82,15.09,15.09,0,0,0-4.89-.28A18.69,18.69,0,0,0,197.85,240.51Z"/><path class="cls-2" d="M342.59,347c-21.11-30.61-84.94-32.5-79.3-10.4,0,0,1.3,42.47,34.67,72.37l-16.47,70.64s-1.73,2.6,8.23,6.93,14.3,10.83,30.77,1.73a49.35,49.35,0,0,1,16-2.17l6.5-13.87s-10-12.13-22.53-9.1c0,0,35.54-57.64,39-59.37s13-19.93,10.4-24.27c0,0-5.63,7.37-11.7,9.1,0,0,10.83-23.4,6.5-31.2,0,0-8.67,16.9-10,13.43a58.82,58.82,0,0,1-1.38-6c-.05-.21-3.38-7.62-4.6-9.69S344.25,349.41,342.59,347Z"/><path class="cls-3" d="M323.31,425.44c5.2,0,13,2,10.4-8.45s-13-54-28.6-53.3c0,0-1.15-17.41-5-9.34,0,0-17.29-21.9-16.91-14.22,0,0,4.23,11.53-4.61,3.07-3.18-3-7.64-9.22-12.08-16.3a8.92,8.92,0,0,0-3.23,9.7S264.59,379.07,298,409l-16.47,70.64s-1.73,2.6,8.23,6.93c1.6.69,3,1.44,4.42,2.17,3.77-3.09,6.7-6.13,7.72-8.67,3.9-9.75,7.8-31.2,15.6-33.15S318.1,425.44,323.31,425.44Z"/><path class="cls-2" d="M254.72,266.85s10.21,3.6,1.8-4.8c0,0,11.41,1.8,10.81,0s-8.41-9.61-13.21-12.61,19.22,3,22.82,6,2.4-9-24.62-37.24c0,0,15.62,9.61,10.81,2.4s-30-48.65-28.83-82.28c0,0,7.81-5.41,4.8-31.23l10.81-30.63s-.6-12.61-22.82-55.25c0,0-28.83,42-29.43,46.85,0,0,4.38-21.24,9.47-25.42-5.3,3.91-31.61,24.74-32.16,56.25l-17.11-.66s2-42.13,5.27-50.68c0,0-5.92,5.27-6.58,10.2,0,0-7.57-9.54-1-37.85,0,0-13.49,11.19-28,32.58l1-5.92s-15.47,9.54-17.44,43.11l-16.46,33.9s-28.3,31.6-26,37.85A40.8,40.8,0,0,1,71,173.69s-13.93,52-33.43,59.44a20.09,20.09,0,0,0,17.92-4.88s-14.32,34.11-32.85,47.58c0,0,27.67,3.32,37.06,9.95L47,297.93l44.24-1.35a17.52,17.52,0,0,1,14-7.86l-1.35,42.63a9.49,9.49,0,0,0,7.51,9.58l37.42,8a6.92,6.92,0,0,0,7-2.62l29.86-39.77c5.41-1.2,60.06-11.41,67.87-9.61l-6.61-7.21s33,5.41,33,1.8S254.72,266.85,254.72,266.85ZM154.23,330.54a6,6,0,0,1-6.63,2.67l-22.44-5.8a10.88,10.88,0,0,1-8.09-11.76l2.57-22.8c4.58.88,13.34,7,45.3-30.24,6.35-7.4,14.62-12,18.74-14.89,17.09-11.88,7.13,1.34,20.82,1.21Z"/><path class="cls-3" d="M186.91,124.74c3.5,0,4.95-10,5.2-11.64-.2,2-.88,18.63,2.58,19.43,3.75.86,2.31-40.92,2.31-44.67s9.22,4.32,9.22-5.76.86-17.29,6.34-17.29,4-15-2.31-15.85l0-2.55c-6.45,9.94-8.81,12.59-12.62,21.67,0,0,1.7-14,8.88-24.86,0-.05,0-.11-.06-.07C200.05,48,176.11,68,175,97.82c.46,3.64-.46,7.67,2,9.1,0,0,3.47-3.9,5,2.82C183.43,115.95,183.16,124.74,186.91,124.74Z"/><path class="cls-3" d="M119.64,292.86c7.92,2.9,17.82.47,41.32-25.69-8.27.44-19.08.71-21.62-.66-4.23-2.28-4.88-1.26-8.45.51,0,0-12.35-18.95-12.35-20.94s-1.49,6.34-7.57,4.61-39-20.05-39-20.05l24.63-36s7.68,1.88,7-2.64,1.1-15.24-5.3-15.57-11-14-1.73-26.33c7.68-7.48,14.13-.25,14.13-.25s2.79,7.51,1.81,10.11c-2.74,7.28-2.54,14.33-3.3,19.23-.16,1.06,8.13-2.44,9.9,3,2.82,8.59,17.31,11.16,17.31,11.16s2.81-1.81.49-5.36c-5.3-8.13-8.87-35.71-6.66-39.33,4.39-7.15-5.65-38.51,24.15-48.59H139.35s-12.82-35.29-5.77-56c-2,2.6-4,5.38-6,8.38l1-5.92s-15.47,9.54-17.44,43.11l-16.46,33.9s-28.3,31.6-26,37.85A40.8,40.8,0,0,1,71,173.69s-13.93,52-33.43,59.44a20.09,20.09,0,0,0,17.92-4.88s-14.32,34.11-32.85,47.58c0,0,6.49.78,14.25,2.34,1.13.23-8.46,1.3-5.22,1.83,6.42,1.06,15.88.63,19.18,1.73a35.2,35.2,0,0,1,8.85,4.06L47,297.93l44.24-1.35a17.52,17.52,0,0,1,14-7.86Z"/><path class="cls-7" d="M189.62,239.05a24.29,24.29,0,0,0-7.37-1.47c-4.33-.22-11.75-8.23-1.11-11.27s16.71-6.5,26.67-2,18.48,8.67,13,11.92-12.22-1.87-21.74,1.08S189.62,239.05,189.62,239.05Z"/><path class="cls-1" d="M260.91,222.7a4.9,4.9,0,0,0,2.75.32c.28-.16.12-.65-.08-1a8.49,8.49,0,0,0-.76-1.2q-1.74-2.39-3.38-4.85c-2.15-3.3-4.14-6.7-6.13-10.11a179.38,179.38,0,0,1-10.3-21.3,135.89,135.89,0,0,1-7-22.64,78.26,78.26,0,0,1-1.72-23.55q.24,3,.41,5.87c.2,1.94.54,3.87.81,5.8A104.58,104.58,0,0,0,238,161.42a191.58,191.58,0,0,0,7.46,22.12c2.88,7.25,6.2,14.32,9.65,21.33,1.75,3.49,3.54,7,5.45,10.39q1.38,2.59,2.86,5.13a9,9,0,0,1,.69,1.36,2.36,2.36,0,0,1,.19.79.81.81,0,0,1-.43.81C262.68,223.62,261.82,223,260.91,222.7Z"/><path class="cls-1" d="M256.52,262c2,.17,4.06.3,6.08.37a24.54,24.54,0,0,0,3-.08,3.4,3.4,0,0,0,1.22-.29c.05,0,0,0,0,.08s0,.07,0,.1l-.06-.11a4,4,0,0,0-.36-.53,59.7,59.7,0,0,0-8.67-8.25c-.78-.62-1.58-1.22-2.39-1.79-.41-.27-.81-.57-1.22-.82l-.64-.41L253,250l-.28-.27a1,1,0,0,1-.15-.19,1.62,1.62,0,0,1-.2-.55,1.31,1.31,0,0,1,.59-1.27,2.26,2.26,0,0,1,.52-.2,4,4,0,0,1,.62-.07c.31,0,.61,0,.88,0,.56,0,1.08.12,1.6.2,1,.16,2.05.36,3.06.57a111.32,111.32,0,0,1,11.88,3.3,27.93,27.93,0,0,1,5.87,2.65l.53.4c.08.08.13,0-.33.06a.71.71,0,0,0-.44.36s0,.11,0,0a1.8,1.8,0,0,0,0-.43,11.91,11.91,0,0,0-.74-2.6,63,63,0,0,0-5.74-10.44c-2.19-3.38-4.6-6.64-7.07-9.85s-5-6.39-7.54-9.58a139.66,139.66,0,0,1,16.25,18.29,55.2,55.2,0,0,1,6.38,10.66,12.8,12.8,0,0,1,1,3.24,4.11,4.11,0,0,1,0,1.09,2.53,2.53,0,0,1-.23.76,1.8,1.8,0,0,1-1,.86,2.15,2.15,0,0,1-1.77-.29c-.35-.23-.6-.43-.7-.5a27.1,27.1,0,0,0-5.25-2.26,118.11,118.11,0,0,0-11.56-3.35c-1-.23-1.95-.45-2.92-.63-.48-.09-1-.17-1.42-.22-.24,0-.44,0-.64,0H254a.33.33,0,0,0,.16-.08c.41-.17.5-.8.47-1a.74.74,0,0,0-.14-.37c-.07-.09,0,0,0-.05h0l.2.15.63.43c.45.29.86.61,1.28.93.82.65,1.61,1.32,2.38,2a59.26,59.26,0,0,1,8.44,9.06,4.85,4.85,0,0,1,.41.78,2.33,2.33,0,0,1,.09.24,1,1,0,0,1-.51,1.12,4.07,4.07,0,0,1-1.74.3,25.25,25.25,0,0,1-3.1-.22A60,60,0,0,1,256.52,262Z"/><path class="cls-1" d="M253.52,296.88c-2.41-2.21-4.7-4.53-7.06-6.79l-1.29-1.24,1.84.23c5.7.7,11.44,1.22,17.14,1.76,2.85.24,5.71.46,8.53.57a38.18,38.18,0,0,0,4.17,0,8.9,8.9,0,0,0,1.8-.29c.25,0,.29-.27,0,.18-.07.55,0,.15-.16,0a41.22,41.22,0,0,0-5.33-6.26l-6.09-6.07c-4.13-4-8.3-8-12.4-12,4.72,3.33,9.25,6.91,13.66,10.65,2.22,1.85,4.4,3.76,6.49,5.77a35.26,35.26,0,0,1,5.94,6.77,2.6,2.6,0,0,1,.32,2,2.45,2.45,0,0,1-1.63,1.44,9.72,9.72,0,0,1-2.45.43,40.51,40.51,0,0,1-4.46,0c-2.93-.12-5.81-.42-8.68-.79-5.75-.7-11.42-1.77-17.09-2.87l.55-1C249.42,291.8,251.53,294.29,253.52,296.88Z"/><path class="cls-3" d="M204,129.6s-3,0-.81-2.37c2.68-2.85,3.58-8.45,8-14.46s5.69-10.08,8-9.43c0,0,1.63,0,1,2.11S217,128,217.78,131.3a8.27,8.27,0,0,0,1.52,3.09c1,.9-.81,2.11-.81,2.11s-5.69.87-5.58-4.44c0,0-4.82-1.57-5.8-.43,0,0,1.08,4-2,3.78C201.58,135.19,204,129.6,204,129.6Z"/><path class="cls-8" d="M154.23,330.54a6,6,0,0,1-6.63,2.67L124.69,328a10.88,10.88,0,0,1-8.09-11.76l3-23.35c4.58.88,19.55.46,45.88-30.93,32.18-38.37,27.85-13.61,39-13Z"/><path class="cls-9" d="M165.52,261.93c34.64-36.15,27.85-13.61,39-13l-34.26,55.62S159.62,268.08,165.52,261.93Z"/><path class="cls-10" d="M165.35,260.11c-1.2,19,1.73,16-1.32,38.51a15.32,15.32,0,0,1-3.3,7.34l-17.32,22a6,6,0,0,1-6.63,2.67l-11.62-3.19a10.88,10.88,0,0,1-8.09-11.76l2.57-22.8C121.28,287.14,166.32,244.64,165.35,260.11Z"/><path class="cls-11" d="M148.11,279.91s3.64,20,10.36,17.14c2.94-1.26,5-3.86,5.2-13s-1.08-11.09.7-14.51a9.67,9.67,0,0,0,.57-7Z"/><path class="cls-12" d="M206.9,250.36c-3.06,5.73-6.21,11.4-9.38,17.06s-6.41,11.28-9.61,16.93l-9.81,16.81-5,8.36c-1.69,2.77-3.35,5.56-5.07,8.31,1.52-2.87,3.1-5.7,4.64-8.56l4.74-8.5L187,283.85c3.27-5.6,6.51-11.23,9.81-16.81S203.48,255.88,206.9,250.36Z"/><path class="cls-13" d="M145.07,283.61a26,26,0,0,0-4.79,7.71,57.38,57.38,0,0,0-3,8.61c-.43,1.46-.71,3-1.06,4.44s-.6,3-.92,4.47l-.88,4.49c-.26,1.5-.54,3-.87,4.51h-.1c0-1.53.16-3.06.28-4.6s.39-3,.59-4.57.58-3,.94-4.51.76-3,1.26-4.44a58,58,0,0,1,3.31-8.6,26.27,26.27,0,0,1,5.18-7.58Z"/><path class="cls-12" d="M162.81,291.54c-1.17,1.25-2.82,2.48-4.69,2.18-3.58-.57-4.39-19.58-4.39-19.59l-5.61,5.77s3.64,20,10.36,17.14C160.37,296.25,161.91,294.86,162.81,291.54Z"/><path class="cls-11" d="M172.32,305.91s.62-14.38,1.61-15.1,5.54-.83,6.62,2.86l-7.26,13.54Z"/><path class="cls-8" d="M169.07,297.43c-3.32,5.08-6.69,10.12-10.18,15.08s-6.93,9.94-10.49,14.84l.06-.09a8.34,8.34,0,0,1-4,3.18,8.5,8.5,0,0,1-5.11.54l.11,0c-4.5-.72-9-1.49-13.48-2.27h-.11A12,12,0,0,1,118,322a11.66,11.66,0,0,1-1-5.15c.13-1.79.37-3.23.54-4.87.4-3.18.73-6.36,1.19-9.54s.87-6.35,1.4-9.52c0,3.21-.2,6.42-.31,9.63s-.34,6.41-.51,9.61c-.07,1.56-.23,3.3-.23,4.71a10.55,10.55,0,0,0,1,4.17,9.93,9.93,0,0,0,6.42,5.22l-.11,0c4.5.72,9,1.46,13.48,2.25H140a6.9,6.9,0,0,0,6.42-2.53l.06-.09c3.65-4.83,7.4-9.6,11.15-14.36S165.18,302.08,169.07,297.43Z"/><path class="cls-11" d="M156.55,327s-7.37-12.77-2.42-20.65c2.59-2.84,10.65,7.1,10.65,7.1Z"/><path class="cls-12" d="M158.33,324c-7-8.84-4.19-17.72-4.19-17.72-4,5.17-1,14.41,2.41,20.65Z"/><path class="cls-9" d="M172.32,191.7a20.17,20.17,0,0,1-18.27,19.84c-13.84,1.45-15.72-7.31-16.42-18.25-1-15.6,5.24-28.44,14.61-24.7C160.33,171.82,172.93,175.37,172.32,191.7Z"/><path class="cls-14" d="M147.71,173.83c0-1.05-.52-4.85,2.74-3.21s13.33,5.71,11.69,8.43-2.18,7.07-7.62,7.34-8.43.3-7.89-5.71C147,176.89,147.63,176,147.71,173.83Z"/><path class="cls-9" d="M89.47,171c-7.32,0-9.79,4.32-12,16.18-1.55,8.36,5.35,12.3,12,12.3,0,0,1-19.28-.12-27.69Z"/><path class="cls-14" d="M167,189.82c1.34,3.59,1.78,6.59,1,8.36-.65,1.48-4-1.38-5.83-4.77s-3.3-7.08-1.87-7.84S165,184.41,167,189.82Z"/><path class="cls-14" d="M84.49,172.05c-.7,2.21-1.94,7.36,1,9.3,2.33,1.53,3.61,2,4.47,2.5a102,102,0,0,0-.5-12.83A10.67,10.67,0,0,0,84.49,172.05Z"/><ellipse class="cls-14" cx="82.37" cy="179.9" rx="1.2" ry="1.55"/><path class="cls-15" d="M73,256.43s2.6,8.45,4.55,11.05l3.9-1.3L86,283.73l2.6-4.55s1.3,11.7,3.9,14.3c0,0,6.49-3.91,12.67-4.23s10.66,2.09,16.55,3.81,13.68-2.18,20.83-8,28.6-29.25,34.45-33.15,12.06-13.22,22.06-14.52,6.54-9.1,6.54-9.1l-4.33-5.2s-17.81,3.9-20.17,3.25-17.09,2-21.43,1.08-20.8-5.2-20.8-5.2l-3.47-12.13,2.19-16.77-8.26-3.17-5.2-2.6-16.47,20.8-2.6,11.27,13,9.53s2.81,7.77-4.66,10.82Z"/><path class="cls-3" d="M136.85,193a2.33,2.33,0,0,1-.44.39s-7.44-1.33-12.69-5.25l.47-.6,5.2,2.6Z"/><path class="cls-3" d="M161,267.17c-23.48,26.16-33.39,28.58-41.32,25.69L107,289.24l-1.79-.52a16.66,16.66,0,0,0-9.26,3,30.63,30.63,0,0,0-3.43,1.74c-2.6-2.6-3.9-14.3-3.9-14.3L86,283.73l-4.55-17.55-3.9,1.3c-2-2.6-4.55-11.05-4.55-11.05l26.7-10.89A89.82,89.82,0,0,0,111,250.68c6.08,1.72,7.57-6.6,7.57-4.6S130.9,267,130.9,267c3.56-1.77,4.24-2.78,8.45-.49,2.52,1.35,13.23,1.09,21.48.65Z"/><path class="cls-15" d="M136.41,193.38s-7.44-1.33-12.69-5.25l.47-.6,5.2,2.6,7.46,2.86A2.33,2.33,0,0,1,136.41,193.38Z"/><path class="cls-5" d="M160.82,267.17C153.7,274.42,146.26,282,142.6,285c-7.15,5.85-15,9.75-20.83,8-5.33-1.53-9.46-3.67-14.74-3.82-.6,0-1.2,0-1.82,0a27.45,27.45,0,0,0-9.23,2.5,30.63,30.63,0,0,0-3.43,1.74c-2.6-2.6-3.9-14.3-3.9-14.3L86,283.73l-4.55-17.55-3.9,1.3c-2-2.6-4.55-11.05-4.55-11.05l26.7-10.89A89.82,89.82,0,0,0,111,250.68c6.08,1.72,7.57-6.6,7.57-4.6S130.9,267,130.9,267c3.56-1.77,4.24-2.78,8.45-.49C141.87,267.87,152.58,267.61,160.82,267.17Z"/><path class="cls-16" d="M90.38,230s25.13,3,23,11.27-3.9,22.53-14.73,21.23S75.44,260.55,73,256.43c-3-5.2-7.8-26.87,2.6-26.87S90.38,230,90.38,230Z"/><path class="cls-17" d="M90.38,230s-3.22-.32-10.7-.41c1.51,4.08,4.9,9.46,12.4,9.89,10.56-2.07,7.81,0,14.93.92a18.81,18.81,0,0,0,6.45-.44C112.8,232.71,90.38,230,90.38,230Z"/><path class="cls-17" d="M99.47,248.68c-4.42,4.42-13.17,3.67-9.89,12.81,3,.34,6.05.65,9,1,9.42,1.13,12-9.54,13.89-17.76C109,244.28,103.66,244.49,99.47,248.68Z"/><polygon class="cls-16" points="89.08 261.79 104.1 286.81 107.51 286.81 98.61 262.5 89.08 261.79"/><path class="cls-16" d="M91.26,296.58s6-10.68,14.28-10.9,16.22,6.61,16.22,7.38c0,0-14.29-4.08-16.55-3.81C99.32,289.94,91.26,296.58,91.26,296.58Z"/><path class="cls-1" d="M119.2,140.72s-3.9,18.2-5.2,22.75-9.1,15-9.1,15l5.2-1.3s-7.8,10.4-10.4,11.7L94.49,196l9.1-3.94-1.3,3.94,6.5-6.5,1.3,6.5,2.6-3.25,2.6,3.25-.65-10.4,3.25-1.3-.65-15,3.9-24.7Z"/><path class="cls-18" d="M91.26,296.58s-32.52,2.1-41,.8c0,0,5.2-7.15,7.8-8.45,0,0,0,3.9,3.25,4.55s31.2,0,31.2,0Z"/><path class="cls-18" d="M57.44,285s-24.05-6.5-29.9-5.85-4.88-3.35-4.88-3.35,5.53-2.5,8.78-4.45,0,3.9,0,3.9S54.19,278.53,57.44,285Z"/><path class="cls-18" d="M106.19,335.08s35.75,8.45,39.65,8.45,16.9-15.6,18.85-17.55,13-11.05,13-11.05l-3.25-2.6s31.2-27.3,37.05-31.2,14.3-14.3,14.3-19.5,7.15,0-2.6,12.35-36.4,31.85-49.4,51.35-14.3,24.7-16.25,26-2.51-3-8.73-2.46-20.52,1.81-27.67-.14-18.2-7.8-18.2-7.8l.65-42.25s2,19.5,2,22.75S106.19,335.08,106.19,335.08Z"/><path class="cls-18" d="M258.3,300.63s-21.45-2-25.35-1.3-37.7,7.15-48.1,11.05l6.5-9.75s28-5.85,35.1-5.85,22.1.65,24.7.65S268.7,300.63,258.3,300.63Z"/><path class="cls-18" d="M50.29,231.08s-7.85,4.74-12.7,2c0,0,18.55-13.1,29.6-44.3,0,0-5.85,28-17.55,37.05Z"/><path class="cls-1" d="M166,147.22s11.7-5.2,16.9-5.2l-3.25,3.9,13.65-.65-5.2,4.55s17.55.65,24.05,2l-5.2,4.55,3.9.65-3.25,3.25,15,3.25-10.4,3.25s16.9,3.9,21.45,11.05l-7.8,2.6L231,183l-3.9,2s8.45,3.9,9.75,9.75l-7.15-2,11.7,13-8.45.65,9.75,12.35-7.15-2,.65,4.55-13-9.75s7.15,3.25,6.5.65-7.15-9.75-7.15-9.75h7.8s-7.15-8.45-13-11.05l5.85-2-9.1-6.5s5.2-3.25,8.45-3.9c0,0-11.05-5.85-18.2-4.55l3.25-3.9-8.45-2,3.25-3.9s-3.9-5.2-11.7-3.9l5.2-5.85s-11.7-1.3-16.25,0l1.3-5.2S177,146.57,166,147.22Z"/><path class="cls-1" d="M203,167.38s-7.15-1.3-12.35,0l5.2,3.25-10.4,2,7.15,2-5.85,2.6s17.55-2.6,20.8,0l-6.5-3.9,8.45-2.6Z"/><path class="cls-1" d="M234.9,233.68S244,238.23,246,246l-7.15-2.6s5.2,8.45,5.2,14.3l-9.1-10.4.65,5.85s-5.2-7.15-9.1-7.15l9.1-3.25-7.8-11.05Z"/><polygon class="cls-15" points="296.65 190.99 342.59 190.99 352.99 218.73 338.26 226.53 340.86 236.06 327.86 234.33 336.52 249.93 326.99 243 326.99 253.4 291.45 223.93 279.32 183.19 296.65 190.99"/><path class="cls-1" d="M267.88,171.19l21.48,16.58-5.7,5s13,15.6,17.33,22.53l-5.2.87,5.2,7.8-6.07-1.73s14.73,23.4,16.47,34.67l-8.67-2.6L301,283.73l-9.53,14.73,2.6-19.07.87-22.53-8.67-8.67,9.53-3.47s-12.13-25.13-17.33-31.2l6.07-3.47Z"/><path class="cls-1" d="M316.59,191h76.27l21.67,3.47-4.33,2.6,20.8,4.33-9.53,2.6s15.6,5.2,19.07,11.27l-15.6-.87s16.47,12.13,19.07,18.2l-25.13-4.33,19.93,25.13s-19.93-16.47-24.27-17.33-11.27-1.73-11.27-1.73l12.13,13.87s-20.8-13-28.6-13.87,0,7.8,0,7.8-22.53-24.27-29.47-26.87c0,0,19.93,21.67,19.93,35.54L358.19,230l2.6,8.67L341.72,224.8s11.27,16.47,10.4,26l-8.67-6.93s1.4,37.66-.87,28.6c-1.73-6.93-1.73-38.14-18.2-46.8l7.8.87-6.93-11.27,13.87,4.33-5.2-6.93h14.73l-13-4.33,3.47-6.07-17.33-5.2,7.8-.87Z"/><polygon class="cls-15" points="358.19 196.19 370.32 199.66 359.92 202.26 372.06 209.19 352.12 203.13 353.86 197.06 346.92 191.86 365.12 192.73 358.19 196.19"/><path class="cls-15" d="M380.72,194.46l18.2,2.6-6.07,3.47a27.34,27.34,0,0,1,13,6.07l-6.93,2.6,10.4,11.27-20.8-9.53,3.47-3.47-7.8-6.93,3.47-1.73Z"/><path class="cls-1" d="M264.48,364c-1.58.38,1.3,4.88,4.55,7.8,0,0-3.9-.33-3.9.65S275.85,389,282,394.89s14.3,15,14.3,15a153,153,0,0,0-4.88,15.93c-1.63,7.15-10.73,50.38-10.73,50.38s1.63,2,2.93.65,2.28-7.15,2.28-7.15l1.63,1.63L296,437.14l1,2,5.2-24.05,5.85.65s2.6,5.85,5.2,7.15,5.2-2.6,5.2-2.6l-1-2-2,1s-7.15-6.5-6.83-8.78-2.93-.33-4.55-2a217.74,217.74,0,0,1-15-19.83c-3.9-6.18-5.2-3.58-4.23-1.3C285,387.41,271.3,362.39,264.48,364Z"/></svg>