<svg id="Layer_1" data-name="Layer 1" xmlns="http://www.w3.org/2000/svg" width="600" height="589" viewBox="0 0 600 589"><defs><style>.cls-1{fill:#c0a78e;}.cls-2{fill:#917f6a;}.cls-3{fill:#d1bc9f;}.cls-4{fill:#3b3b39;}.cls-5{fill:#d3d3d3;}.cls-6{fill:#e2e2e2;}.cls-7{fill:#f3eee8;}.cls-8{fill:#dfdad4;}.cls-9{fill:#d6d6d6;}.cls-10{fill:#604f3e;}.cls-11{fill:#1d1d1b;}.cls-12{fill:#fff;}.cls-13{fill:#f3f3f3;}.cls-14{fill:#675f51;}.cls-15{fill:#796959;}.cls-16{fill:#dcc7aa;}.cls-17{fill:#595957;}.cls-18{fill:#806f5b;}.cls-19{fill:#fdfdfd;}</style></defs><title>premio_leccion_4_1</title><path class="cls-1" d="M223.21,447.09s-49.39-37.71-59.27-73.63l-.9,11.67s-23.35-86.2-10.78-123.92c0,0-25.14,17.06-35,85.31L107.38,334s11.67,53.88,31.43,79l-22.45-9s53.88,53,90.69,64.65Z"/><path class="cls-2" d="M211.4,437.2c-12.29,1-35.79-3.06-55.74-41.4l-2.23,7.26s-26.24-53.59-22.89-97.14l-8.34,14.89c-1.87,7.64-3.56,16.16-4.94,25.71L107.38,334s11.67,53.88,31.43,79l-22.45-9s53.88,53,90.69,64.65l16.16-21.55S218.36,443.39,211.4,437.2Z"/><path class="cls-1" d="M272.89,291.4s-82.06,138.45-72.57,189.25,30.7,63.08,55.27,60.85S360,529.22,360,529.22l19,4.47,20.1-4.47s19.09-13.21,15.83-33.73l5.94,2.47-11.72-34.61,6.7,5L400.73,393S289.64,283,272.89,291.4Z"/><path class="cls-2" d="M360.49,405.31a32.74,32.74,0,0,0-10-8.76c-1.56-.85-6.22-3.87-7.26-1.46s-.79,5.46-.92,7.89c-.24,4.25-.41,8.5-.75,12.74-.61,7.52-1.1,17.58-6.33,23.58-5.83,6.69-15.06.26-19.83-4.5-8.86-8.83-15.52-20.19-22-30.8q-8.14-13.36-15.57-27.15l-.82-1.53q-12,13.53-23.79,27.33c-4.22,5-8.57,9.94-12.31,15.3-1.83,2.63-5.82,9.33-9.9,8.57-3.66-.69-1.67-6.88-3.44-9.23-2.79-3.72-7.44,1.19-9.1,3.53-1.92,2.71-6.23,7.71-10.81,8.87-6.35,20.11-9.69,38.27-7.32,51,9.49,50.8,30.7,63.08,55.27,60.85S360,529.22,360,529.22l3.25.76c4.64-5.83,5.88-16.54,7.87-23,3.41-11.11,4.83-22.85,5.19-34.44a153,153,0,0,0-3.19-37.35C370.81,424.65,367.19,413.87,360.49,405.31Z"/><path class="cls-3" d="M249,320.7l-.55.47A2.33,2.33,0,0,0,249,320.7Z"/><path class="cls-3" d="M442.62,242.9,421.79,246l-5.43,10.2L362.21,268l-27.35-15.07-46.09,13.91-7.5,2.28,12.57-13.76,5.29-5.78-1.54.42L261,260.21c-1.25,14.69-4.82,39.14-8.53,52.21-1.16,4.11-2.34,7.08-3.46,8.28l8.37-7.08,2.37-2s.22.89.65,2.5l.94.16s20.72,87.47,30.79,122.26l.07.22c2.59,8.24,4.51,14.2,4.51,14.2l0,.51,2.7,9.58c.42-.71.76-1.07.83-.74a204.28,204.28,0,0,1,3.64,22.51c.87,6.77,1.25,15.1,1.7,23.16l4-4.73c.6-1.25,1-2,1-1.25,0,1.09.09,3.19-.18,8.53-.16,3.1-1.36,7.32-2,10.18a.28.28,0,0,0,0,.13,11,11,0,0,0-.31,2.21c0,.6,2.41-1.94,2.41-1.23,0,5.52-1.56,13.17-3.35,20-1.45,5.6-3.06,10.7-4.13,13.58-.71,1.94-1.34,5.56,5.81,4.67,4.06-.51,6.7-.87,8.82-1.12,4-.45,6.19-.45,12.68-.18a37.57,37.57,0,0,0,5.38-.09c9.8-.87,7.75-6,7.23-8-.42-1.61-4.42-13.24-5.78-18-.36-1.27,2.14,1.07,1.9.27-2.08-6.81-7-13.89-7.17-14.92s4.76,2.63,4.76,2.63-3.42-25.48-2.46-35.88c.29-3.28,1.12-9.62,1.12-12.46a24.43,24.43,0,0,1,2.14,2.32s-.49-10-.4-13.4c.2-6.21,1.18-12,1.5-12.15,8.22-2.1,16-17.62,18.6-34.05L354.78,436s-.58,1.88,2.93,3.89c1.25.71,11.66,69.27,11.66,69.27S372,504,372,505.46c0,10.87-.2,31-2.39,40.57-2.84,12.39,13.42,4.4,17.93,4.11,6.72-.4,14.54.78,14.78-2.43.27-3.82-7-6.32-12.35-26.86-.56-2.17-1.85-5.76-2.1-9.2-.09-1.09,2.05,1.25,2.05,1.25s-.76-6.61-.78-7.57c-.27-23.2,4.31-59.2,4.31-59.2.4-2.34,3.39,5.34,3.39,5.34s1-10,1.59-12.88c4.26-20.88,8.84-36.09,8.84-36.09l5.09,3s5-65.54,19.38-123c5.16-20.68,8.4-25,8.4-25s-2.81.42-2.48-.83a48,48,0,0,1,2.72-6.07Z"/><path class="cls-2" d="M309.56,501.26c-1.43,2.95-3.77,9-3.86,7.35l-.13-2.61Z"/><path class="cls-2" d="M299.4,461.07c-1.16,1.92-3.13,6.3-3.13,6.3l.42-15.88Z"/><path class="cls-2" d="M292.14,436.55c-3.8-12-9-28.69-11.79-38.74-.47-1.74-4.09,4.73-4.09,4.73s-.22-10.43-.56-14.38c-1.74-19.9-12.55-63.19-15.3-74l.94.16S282.07,401.76,292.14,436.55Z"/><path class="cls-4" d="M395.62,530.1s7.38-11.66,10.6-10.82c3.9,1,9.42-11.64,21.71-2.54,13.06,9.67-2.64,17-10.45,17.51-6.27.45-14.33-3.05-17.28-4.46C399.48,529.44,395.62,530.1,395.62,530.1Z"/><path class="cls-4" d="M237.9,541.35c2.88-6.23,12.1-23.79,19.6-24.26l3.68,18.83s3.18-26.55,8.21-22.09c3.88,3.44,12,15.59,15.45,21.59a2.17,2.17,0,0,1-1.65,3.24c-22.62,2.58-23.33,2.52-40.82,4.11C238.48,543.12,237.51,542.2,237.9,541.35Z"/><path class="cls-5" d="M423.54,76.53s.9,11,15.59,44.73l1.3-1.05S429.65,98.58,423.54,76.53Z"/><path class="cls-6" d="M361.66,413.1s1.12,39.08,3.35,36.29,2.23-12.84,2.23-8.37,3.91,41.87,8.93,36.84,4.47-24,0-40.19,6.7-45.22,4.47-55.83S360,396.35,361.66,413.1Z"/><path class="cls-1" d="M355.85,417.08c0-.17,0-.25,0-.25S355.85,417,355.85,417.08Z"/><path class="cls-1" d="M373.25,383.91c-.37-7,1.29,29.75-10.69,49.5.56,9,1.37,17.32,2.44,16,2.23-2.79,2.23-12.84,2.23-8.37s3.91,41.87,8.93,36.84,4.47-24,0-40.19c-4-14.65,4.68-39.76,4.73-52.28C375.93,399.77,373.8,394.44,373.25,383.91Z"/><path class="cls-7" d="M351.56,283.19s15-1.11,22.94,6.54c5.94,5.72,65.87-39.08,65.87-39.08S397.3,326.94,383.8,375.89c-7.07,25.62-9.9,20.4-10.55,8-.4-7.6,1.6,36.13-13.93,54-1.37,1.58-5.29.82-5.06-1.26,1-8.89,2-10,1.58-19.83,0,0,0,27.3-17.52,31,0,0,8.54-51.62,8.81-68.37.26-16.08-9,6.41-9.18,3.08-1.2-21.93,3.51-56.87-3.57-47s-11.35-61-7.55-61C337.52,274.61,351.56,283.19,351.56,283.19Z"/><path class="cls-8" d="M440.37,250.65c-28.35,54.47-30.86,70.14-30.86,70.14s-9.71,19.43-25.71,55.1a277.49,277.49,0,0,1,17.68-52.82,556.14,556.14,0,0,1,28.38-55.61C433.21,261.77,436.66,256.12,440.37,250.65Z"/><path class="cls-2" d="M384.44,529c-.83,0-1.5.43-.83,4.16,1.72,9.62.45,15.56,4.54,15s-.21-3.29-1.75-9C384.91,533.72,385.8,529,384.44,529Z"/><path class="cls-9" d="M384,355.37c.18,1.69.26,3.38.33,5.07s.11,3.39.08,5.08c0,3.39-.13,6.78-.49,10.17a63.72,63.72,0,0,1-1.73,10.12,27.5,27.5,0,0,1-1.8,4.94,11.76,11.76,0,0,1-1.5,2.32,6.48,6.48,0,0,1-2.38,1.82l.27-.16a2.9,2.9,0,0,1-.56.32,1.57,1.57,0,0,1-.83,0,1.75,1.75,0,0,1-1-.69,4.51,4.51,0,0,1-.64-1.29,17.22,17.22,0,0,1-.56-2.38c-.27-1.56-.44-3.11-.58-4.67s-.2-3.1-.24-4.65-.06-3.1,0-4.65c.47,3.06,1,6.12,1.48,9.15.26,1.51.56,3,.94,4.48a15.59,15.59,0,0,0,.68,2.08,3.79,3.79,0,0,0,.42.76c0,.08.11.06-.07,0s-.19,0-.27,0-.06,0-.07,0l.27-.16a4.55,4.55,0,0,0,1.52-1.31,12,12,0,0,0,1.17-2,25.42,25.42,0,0,0,1.59-4.57,84.6,84.6,0,0,0,1.87-9.78c.44-3.31.87-6.64,1.18-10Z"/><path class="cls-9" d="M358.16,391.89s.14,1,.26,2.72.3,4.22.28,7.2-.06,6.47-.4,10.2c-.17,1.86-.35,3.79-.66,5.74s-.65,3.92-1,5.88-.95,3.9-1.54,5.8a45.22,45.22,0,0,1-2.07,5.46,31.64,31.64,0,0,1-2.63,4.81c-.48.73-1,1.4-1.5,2.06s-1.07,1.23-1.61,1.77-1.09,1-1.65,1.45-1.12.78-1.65,1.09l-1.55.78c-.49.2-1,.34-1.38.48a9.21,9.21,0,0,1-2,.43l-.7.11.68-.23a12,12,0,0,0,1.86-.72c.38-.19.82-.37,1.26-.63l1.37-.92a23.15,23.15,0,0,0,2.85-2.71c.46-.55.9-1.16,1.38-1.78s.86-1.33,1.26-2.05a43.61,43.61,0,0,0,2.21-4.73c.71-1.67,1.24-3.48,1.81-5.31s1-3.74,1.42-5.64c.85-3.82,1.44-7.7,1.93-11.35s.88-7.09,1.1-10,.46-5.42.54-7.15Z"/><path class="cls-8" d="M331.57,336.24l-.32-.82c-.2-.54-.55-1.3-.88-2.32a83,83,0,0,1-2.22-8.61c-.69-3.61-1.5-7.82-2-12.38s-1-9.44-1.28-14.32-.34-9.79-.15-14.39c0-2.3.2-4.52.39-6.62s.45-4.08.66-5.91.65-3.48.94-4.94.8-2.7,1.1-3.73.81-1.75,1-2.27l.38-.79s-.39,1.18-1,3.19c-.19,1-.47,2.3-.7,3.76s-.37,3.12-.5,4.93-.29,3.77-.29,5.86-.07,4.28,0,6.55.09,4.62.12,7,.2,4.81.29,7.24.25,4.85.45,7.23.32,4.73.55,7c.38,4.54.81,8.77,1.31,12.38l.71,4.92.69,3.76Z"/><path class="cls-1" d="M353,434.88l6.61,25.3,2.23,22.33,1.49,14.89,3-1.49s3,18.61,3,22.33c0,0,3,14.89,2.23,17.86s2-15.07,1.3-24.75-4.84-28.28-5.58-35.73S365,452.74,365,452.74l-3.35-15.63s9.86-24.56,9.86-34.24-7.44,15.63-11.17,22.33c0,0,2.23-20.84,0-26.8s-5.21,26.8-18.61,35.73L339,447.64A66.74,66.74,0,0,0,353,434.88Z"/><path class="cls-2" d="M204.79,435.62S193.62,483.26,193.62,487s5.21-3.72,5.21-3.72,6,35,8.19,39.45,5.21,1.49,5.21,1.49,15.63,17.12,23.07,17.12Z"/><path class="cls-1" d="M311.21,54s66.72-2.36,95.09,7.62c0,0,3.37-13.07,63.66-12.51,11.84.11,27-.89,27-.89L474.85,61.11,484,64.52,469.34,75.29l4.47,1.58-5.25,5.78,2.36,2.1s-23.64,30.47-31.78,36.51c0,0,12.61,36.25,20.75,44.65l-9.72-1.84,22.06,39.66-7.09-.79s14,18.63,16.54,25.55a.81.81,0,0,1-1.1,1,40.54,40.54,0,0,0-9.46-3l6.82,6.23a.82.82,0,0,1-.57,1.42c-4.88-.13-16.09.28-19.79,1.92l2.82,4.2L421.79,246l-5.43,10.21L362.21,268l-27.35-15.07-53.59,16.19,17.86-19.54-55.83,15.63L255,221.06l-10,16.19,10.61-47.45-7.26,4.47,24-87.65s-17.86-18.42-27.91-38c0,0,10,2.23,8.93,0S241.07,24,244.42,24,296.9,44.1,296.9,44.1s-5-17.86-1.12-13.4S311.21,54,311.21,54Z"/><path class="cls-10" d="M409.26,134.73s.76-.16,2-.56a34.78,34.78,0,0,0,5.17-1.93,22.54,22.54,0,0,0,6.35-4.13,12.25,12.25,0,0,0,2.43-3.29,10.2,10.2,0,0,0,1-4,12.78,12.78,0,0,0-.52-4.19l-1.19-4.26c-.76-2.78-1.39-5.4-1.91-7.65-1-4.51-1.41-7.6-1.41-7.6s1.31,2.82,2.89,7.17c.78,2.18,1.65,4.73,2.5,7.48.41,1.39.88,2.78,1.26,4.28a15,15,0,0,1,.53,4.89,12.08,12.08,0,0,1-4.38,8.47,21.36,21.36,0,0,1-7.14,3.85A29.48,29.48,0,0,1,409.26,134.73Z"/><path class="cls-2" d="M330.79,238.1s-10.93-7.65-19.13-9.84-20.22,8.74-14.76-5.47,4.92-20.22-.55-21.32,14.21-17.49,24-27.87,22.41,2.19,22.41,2.19l11-16.46S335,141.61,322,133.16c-24.19-15.71-9.29-25.14-9.29-25.14-6.56-5.47-35-42.63-41-43.72s1.09,17.49,1.09,17.49c-5.62-12-18.48-30.45-26.94-42.14,2.61,12.34,6.78,27.69,7.44,29,1.12,2.23-8.93,0-8.93,0,10,19.54,27.91,38,27.91,38l-26.3,91,7.75-6.46-9.86,48.24L255,221.06l-11.72,44.1,55.83-15.63-17.86,19.54,53.59-16.19L362.21,268l54.15-11.72L421.79,246l-59.3,12.3Z"/><path class="cls-11" d="M411.76,157l-8.75.68a7,7,0,0,1-8.17-5.61L393.1,138c1.16-6.57,8.4-11.19,16.29-13.29,7.48-2,9.56.75,11.06,4.32,1.62,3.87,2.91,11.62,2.91,16.55C423.35,149.6,417.75,156.43,411.76,157Z"/><path class="cls-12" d="M417.32,130.28c-.47-2.51-2.49-5.22-6-4.18-2.67.78-5.16,1.65-7.2,2.43l1,10a1.57,1.57,0,0,0,2.11,1.32l7.23-2.68s4-1.6,3.2-5.41Z"/><path class="cls-13" d="M418.43,136s-3.85,4.18-1.84,6.69,3.68,2.34,3.68,2.34S420.94,138.73,418.43,136Z"/><path class="cls-7" d="M341.75,72.38S364.29,97,365.5,109.91s1.21,19,1.21,19l-4.85,3.64-11.72,1.62v28.7l-20.32,35.87a29.23,29.23,0,0,0-3.09,20.81l8,35.86,30.65,12.48L417,256.76,421.79,246l8-22.93L425.33,192l7.28-1.62L407.95,160l-4.76-4.2a8.78,8.78,0,0,1-2.75-4.61l-2.57-11.14a9,9,0,0,1-.06-3.78l.41-2a4.91,4.91,0,0,0-3.16-5.59l-13-4.64,1.21-20.21s4.85-13.34,4.85-19.4l-6.47,11.32-6.06-20.62.4,18.19L360.65,76.76l8.49,16.57Z"/><path class="cls-8" d="M366.38,264.57a6.4,6.4,0,0,0,1.88-4.58c-.26-6.24-9-6.78-12.57-13-5.54-9.63-9.69-27.06-11.32-31.94-3.49-10.47,18.22-34,18.22-34s23.82,9.68,19.35,3.72c-3.43-4.57-18.3-16.21-20.84-23.82-1.53-4.58-2.62-21.36-5.33-27.57l-5.63.78v28.7l-21.8,38.49a21.52,21.52,0,0,0-2.29,15.26l8.58,38.73,29.29,11.83Z"/><path class="cls-8" d="M426.1,192.81l4.67-.29a3,3,0,0,0,1.9-4.84l-22.82-26.61c-.71-.88-5.49.33-7-1.34,0,0-6-4.38-4.53.39,4.54,14.72,12.15,3.27,10.91,18.16,0,0,5.45-1.7,6.2,2.4s4,10.54,7.31,14.17c6,6.62,4.71,19.07,5.77,19.12s3.86-3.17,3.86-4.23C432.38,202.44,426.1,192.81,426.1,192.81Z"/><path class="cls-14" d="M261,260.2c6.26-2.09,12.56-4.07,18.85-6.05s12.58-4,18.9-5.89l4.34-1.31-3,3.47c-5.78,6.67-11.65,13.26-17.49,19.88l-1.88-3,26.71-8.39,26.77-8.18.92-.28.83.48,27.36,15.69-1.49-.22c9-1.93,18.06-3.92,27.11-5.77s18.1-3.73,27.16-5.54l-.77.59,5.75-10,.21-.37.37,0c7-.81,14-1.64,21-2.34-6.89,1.38-13.81,2.63-20.72,3.9l.58-.41-5.1,10.38-.22.45-.55.14q-13.44,3.4-26.91,6.67c-9,2.22-18,4.3-27,6.44l-.77.18-.72-.4-27.5-15.44,1.74.2-26.82,8-26.88,7.8-6.51,1.89,4.63-4.88C286,261.43,292,255,298.16,248.64l1.33,2.16c-6.39,1.65-12.8,3.22-19.21,4.78S267.46,258.74,261,260.2Z"/><path class="cls-15" d="M272.34,106.62s.5-8.65,9.13-16.95A28.48,28.48,0,0,0,271,105.11Z"/><path class="cls-14" d="M328.09,225.83s1.74,18.49,3.23,25.94l32,14.86s-27.19-11.3-27.36-15.69S330.82,225.2,328.09,225.83Z"/><path class="cls-15" d="M354,132.67s-26.8.74-32-1.86-10.79-10-10.79-10l-1.12-9.3s6.7-3.72,8.56-3.72,13,.37,15.26,1.12-1.86-3.72-4.47-3.72-10.79.37-12.65.37-7.44,4.84-9.3,4.47-3-2.61-3.35-4.47-1.86.74-.74,4.09a13.09,13.09,0,0,0,4.09,5.58,48.4,48.4,0,0,0,1.49,7.07c.74,1.86,7.82,10.42,10.42,11.54S353.65,134.91,354,132.67Z"/><path class="cls-16" d="M358.86,143.84l9.68.74L379,157.24,387.89,190l40.19-1.49L408,166.91,396.08,155l-1.49-12.65,3,1.49.8-10.32s-19.41-9-23.13-5.31-16.38,7.44-16.38,7.44Z"/><path class="cls-15" d="M382.07,124.06l1.21-20.21s4.85-13.34,4.85-19.4l-6.47,11.32-6.06-20.62.4,18.19L360.65,76.76l8.49,16.57L341.75,72.38S364.29,97,365.5,109.91s1.21,19,1.21,19l-1.05.79-4.46,3-10.14,1.39.62,2.38,10.73-2,2.9-1.6,1.24,4.42,2.85-5.07,3.17,9.83,1.59-9.51,3.17,2.85v-3.49l7.29,7.61-1.27-9.83,13,6,1.63-.37.37-1.85a4,4,0,0,0-2.59-4.57Z"/><path class="cls-17" d="M400,207.6l0,8.54s4-.49,4,4.21.74,13.36-3.46,16.58-12.37,10.15-8.91,10.39,31.92-4.21,31.67-6.68-8.72-6-7.73-12.65,5.11-15.11,1.05-15.81c-2-.34,1.17-6.21,1.17-6.21Z"/><path class="cls-4" d="M392.31,186.25c6.13-1.93,18.45-4.43,30.81-1.42a3.75,3.75,0,0,1,2.8,3.72c-.08,5.88-.54,20.26-3.45,19.68-15.54-3.1-20.66.93-28.52.74-2.22-.05-4.06-11.49-5-17.22A4.92,4.92,0,0,1,392.31,186.25Z"/><path class="cls-11" d="M425.67,195.5c-1.7-.73-4.61-1.65-6.05-.21-1.6,1.6-.9,8-2.12,12.14,1.54.19,3.18.44,5,.8C424.45,207.69,425.3,201.33,425.67,195.5Z"/><path class="cls-11" d="M406.06,207.41a11.92,11.92,0,0,0,.3-2.24c.21-5.68-2.73-7.36-9.67-7.57-3.68-.11-5.28,1.78-6,3.59.3,1.38.62,2.7.94,3.86.7,2.3,1.47,3.9,2.3,3.92C398.1,209.06,401.5,208,406.06,207.41Z"/><path class="cls-17" d="M415.47,183.49a56.26,56.26,0,0,0-13.87.56c.5,1.1,2.12,3.33,7.11,2.95A8.71,8.71,0,0,0,415.47,183.49Z"/><polygon class="cls-18" points="297.83 108.11 293.04 108.8 287.41 109.6 291.88 113.32 279.96 116.3 286.66 118.53 277.73 124.48 282.2 127.46 274.01 137.14 295.6 130.44 289.64 128.95 296.34 123 290.39 123 300.81 117.79 298.57 114.81 297.83 108.11"/><polygon class="cls-18" points="262.1 166.91 288.15 159.47 284.43 157.24 306.76 153.51 300.06 151.28 310.48 146.07 288.15 146.81 291.13 151.28 270.29 157.24 273.27 159.47 262.1 166.91"/><polygon class="cls-18" points="303.78 169.15 286.66 178.82 291.13 181.06 283.69 187.75 286.66 191.48 284.43 198.92 288.9 199.66 287.41 206.36 298.57 191.48 291.13 190.73 305.27 179.57 299.32 178.82 303.78 169.15"/><path class="cls-18" d="M283.69,133.42,268.8,144.58l6.7.74-11.91,10.42,6.7,1.49-8.19,9.68,11.91-3-6.7,9.68,13.4-3s-3.72,4.47-3.72,6.7l14.14-3.72-4.47,5.21h12.65v4.47l14.89-8.19H298.57s-.74-6,2.23-8.19c0,0-8.19-.74-11.91.74l-1.49-4.47s-.74-3.72-6.7-2.23l7.44-8.19H277l11.17-14.14-6.7,1.49Z"/><path class="cls-18" d="M319.42,133.79s-2.61,4.84-4.47,7.44l1.49,1.49s-2.23,7.82-2.61,10.42,2.23-1.86,2.23-1.86l4.09,8.93s16.75,6.7,22.33,5.21,7.07-7.07,7.07-7.07l-26.42-23.82Z"/><path class="cls-11" d="M336,161.41c-8.89-1.44-17.22-4.36-17.39-12.5,0,0,1.19-20.54,13.09-21.52,18.48-1.52,18.53,5.51,18.48,11.19,0,4.37-.06,17-.06,17C350.11,160.59,347.58,163.29,336,161.41Z"/><path class="cls-19" d="M327.18,135.5c-.5,3.16,1.84,10.9,5.75,10.18,6-1.11,5.49-2.2,8.79.22s.71-8.16,2.29-7.91c3.46.55,3.36-2.61,2.54-4.18-1-1.84-7.74.72-13.56-2C329.27,130.1,327.42,133.94,327.18,135.5Z"/><path class="cls-2" d="M430.32,175.1l7.44,7.44s.74-3.72-.74-6c0,0,6.7.74,8.93,3.72,0,0-4.47-9.49-6.7-11.17l7.26,2.23-2.23-6.7,6.14,3.91s-2.79-9.49-3.91-11.17l8.37,1.67s-11.72-14.51-13.4-15.63L446,144s-6.7-15.63-10.61-16.75l3.35-1.67L431.44,115s6.7,1.12,5-1.12-10-11.72-10-11.72l2.23,6.7-2,2.93,4.84,9.36-3.91,1.67s8.93,8.37,9.49,11.17h-6.14s7.26,8.37,7.82,11.17c0,0-6.7-2.23-5-1.12s4.47,6.14,4.47,6.14l-6.14-.56s12,8.15,7.26,8.93c-3.35.56-6.7-2.23-6.7-2.23l3.35,7.82-6.14-.56,3.91,7.82Z"/><polygon class="cls-2" points="396.83 88.76 413.95 80.57 410.22 86.52 427.34 86.52 421.39 90.25 428.83 90.99 407.25 94.71 409.48 90.99 396.83 88.76"/><path class="cls-2" d="M344,88.76l-17.12-7.44,4.47,8.93H316.44l8.19,4.47-14.89,2.23s16.38-1.49,24.56,1.49V94.71h7.44l-5.21-4.47Z"/><path class="cls-2" d="M310.43,508.54c-.16,3.1-1.36,7.32-2,10.18.22-2,.54-5,.54-7.19,0-3.71,1.61-11.52,1.61-11.52C310.63,501.1,310.7,503.2,310.43,508.54Z"/><path class="cls-1" d="M317.69,557v0l-.51-3.77-11.9-3.73,1.92-9.62c1.79-6.86,3.35-14.51,3.35-20,0-.71-2.41,1.83-2.41,1.23,0,0,.13-.89.31-2.21a.28.28,0,0,1,0-.13c.6-2.86,1.81-7.08,2-10.18.27-5.34.2-7.44.18-8.53l-1,1.25-4,4.73c-.45-8.06-.83-16.39-1.7-23.16a204.28,204.28,0,0,0-3.64-22.51c-.07-.33-.4,0-.83.74l-2.7-9.58-1.09-4c-.89-2.39-2.05-6.1-3.39-10.76l-.07-.22c-10.07-34.79-30.79-122.26-30.79-122.26l-.94-.16-3-.51-5-.83.07-.38L261,260.21l37.76-11.95-1.18,1.7-3.75,5.36-7.93,11.34,2.86.13,12,.6-3.73,10.43,2.23,7.44h-5.94l1.47,8.93s10.43,17.86,8.2,17.13-7.44,0-7.44,0,7.44,11.17,8.17,13.4-4.47,3.71-4.47,3.71l11.92,8.93s-1.14,6.83-4.42,9.29a4.36,4.36,0,0,1-1.52.74c-2.75.69-4.09,8.91-4.11,16.12v.11c0,4.4.49,8.4,1.47,10a17,17,0,0,1,1.59,3.62c1.34,4.09,2,9.16,3.08,11.14v0a1.42,1.42,0,0,0,.18.31,3,3,0,0,1,.34,2.28,10.07,10.07,0,0,1-1.83,3.68s1.5,3.73,3.73,8.2c.25.47.49,1,.76,1.72,2.23,5.45,5.2,16.14,5.2,16.14l3.71-2.23,2.57,5.14,1.16,2.3,1-.74,2-1.5,2.61,4.35,1.85,3.08-3,27.56s2.23,22.33,2.23,24.56-4.47-2.23-4.47,3.71,5.2,35.73,5.2,35.73l-4.47-3,8.2,29,1.45,8,0,.22Z"/><path class="cls-14" d="M261,260.2s-7.3,52.69-13.25,61.62l10.61-6s9.68,44.66,12.65,61.78S285.92,423,285.92,423l9.68,24.56s-8.19-34.24-12.65-47.64-2.08-11.82-5.13-23-16.45-62.57-15.71-67.78l-3-.74s4.47-43.92,8.93-50.61Z"/><path class="cls-2" d="M319.71,537.33l-2,19.68-3.31.37s2.79-8.55,3.27-12C318.2,541.37,318.87,536.94,319.71,537.33Z"/></svg>