<svg id="Layer_1" data-name="Layer 1" xmlns="http://www.w3.org/2000/svg" width="600" height="589" viewBox="0 0 600 589"><defs><style>.cls-1{fill:#212121;}.cls-2{fill:#e05500;}.cls-3{fill:none;stroke:#000;stroke-linecap:round;stroke-miterlimit:10;stroke-width:3px;}.cls-4{fill:#333;}.cls-5{fill:#171717;}.cls-6{fill:#fff;}.cls-7{fill:#234191;}.cls-8{fill:#3d5fba;}</style></defs><title>premio_leccion_8_4</title><path class="cls-1" d="M187,423.44s-62.87-139.78-80-224.63S80.75,34.62,96.62,52.93s34.18,80.57,33,101.94c0,0,14.44.32,18.07,31.1,2.59,22,16.73,80.6,24.05,83s9.77-11,15.87,11S203.44,421,187,423.44Z"/><path class="cls-2" d="M183.9,402.8s-53.12-143.49-58-166.08S95.36,98.72,99,93.84s20.76,58.62,20.76,58.62,3.66,16.49,12.21,21.37,6.11,17.71,6.11,17.71l1.22,22.59,6.72,7.33,3.66,35.42,7.33,4.88,9.77,22h0A9.72,9.72,0,0,1,179.06,292l12.78,114.45Z"/><polygon class="cls-1" points="188.19 399.42 153.56 295.56 154.03 255.75 148.56 240.56 148.06 294.56 185.96 406.74 188.19 399.42"/><polygon class="cls-1" points="166.8 283.74 165.06 303.56 188.19 399.42 170.33 303 172.33 281.67 166.8 283.74"/><path class="cls-1" d="M213.21,449.08s-11-44.56,59.82-92.78c0,0,36.62-24.42,31.74,22,0,0,142.22-50.66,121.47-29.91l116.59-55.55s20.14,8.55-20.14,37.23S266.32,493.64,213.21,449.08Z"/><path class="cls-2" d="M232.39,404.87s39.52-43.19,51.37-34.31-5.92,29.61,23.19,20.72S411.56,347.87,413,355.76s15.3,4.44,31.09-3.45,70.56-38.49,67.6-33.55-78,52.8-99.18,62.17-120.7,55.38-128.79,55.76S228.89,438.19,232.39,404.87Z"/><polygon class="cls-1" points="283.41 433.71 321 381 312 385 275.67 437.06 283.41 433.71"/><polygon class="cls-1" points="279.35 437.3 330.5 406 343.5 394.5 352 372.5 356.5 369.5 347 397 378 383 451 363 442 372 378 386.67 340.67 404 275.96 440.69 279.35 437.3"/><polygon class="cls-1" points="455 343 441 359.5 437 368.5 433 368.5 436 358.5 444.5 348.5 455 343"/><polygon class="cls-1" points="424 355.5 416 375 411 376.5 420.5 357.5 424 355.5"/><polygon class="cls-1" points="378 383 413.04 355.76 416.5 356 383.25 382.75 378 383"/><polygon class="cls-1" points="277.45 430.17 273 382.33 275 366.33 269.67 369.67 267 383.67 275.67 433.42 277.45 430.17"/><path class="cls-3" d="M268.5,412.5s-27.5-80-84-70.5"/><path class="cls-3" d="M268.25,414s23.08-5,27.69-12.58"/><path class="cls-4" d="M180.6,421.27s-4.21-13-10.32-13.38c0,0,0-7.65-3.82-7.65,0,0-3.69-20.14-19.1-16.35-18.82,4.63-14.9,41.93-6.14,44.79,0,0,4.59,9.41,9.18,9.79,0,0,2.29,9.94,8.79,9.94S180.6,421.27,180.6,421.27Z"/><path class="cls-5" d="M161.25,423.8c-6.57,0-7.58-4.29-7.58-4.29-4.29,1.52-6.57-7.07-6.57-7.07A42.53,42.53,0,0,1,144.51,385c-15.25,7.74-11.81,41.87-3.29,43.72,0,0,4.59,9.41,9.18,9.79,0,0,2.29,9.94,8.79,9.94,3.45,0,9.28-7.66,14-14.84C160.78,432.7,161.25,423.8,161.25,423.8Z"/><path class="cls-5" d="M166.45,400.24a21,21,0,0,0-10.79,3,24.53,24.53,0,0,0-9.74,10.94,19,19,0,0,1,9.29-11.39C164.09,398.17,166.45,400.24,166.45,400.24Z"/><path class="cls-5" d="M152.87,421.29a34.46,34.46,0,0,1,7.51-8.53c5.6-4.79,9.9-4.88,9.9-4.88s-4.2-.36-10.53,4.52S152.87,421.29,152.87,421.29Z"/><path class="cls-5" d="M176.24,412.46s-7.46.63-12.1,9.27A12.94,12.94,0,0,1,176.24,412.46Z"/><path class="cls-4" d="M251.72,425.09s-37.09-35.94-66.53-28.68.76,10.32.76,10.32-39.38,20.65-33.65,34.41,13.38,1.15,13.38,1.15-24.4,22.92-17.83,37.31,29.55,4.8,29.55,4.8-4.55,2.78.25,5.05,20.21-7.07,20.21-7.07-24.25,9.6-17.68,30.06,34.35.76,34.35.76-7.32,6.31,2.78,5.56C225.37,518.15,330.07,470.34,251.72,425.09Z"/><path class="cls-5" d="M280.38,457.54c-8.12-3.91-17-7-25.6-7.59-28.11-2.06-40.23,13.41-27.08,22.69s-13.41,17.53-18.82,10.83,2.84-16.25,2.84-16.25-16.76,9-19.86,3.87,4.9-12.89,4.9-12.89-25,12.64-30.43,9,22.18-43.06,6.83-33.66c-10.07,6.17-9.64-4.92-8.16-13.27-8.32,6.6-15.36,14.46-12.7,20.84,3,7.11,6.44,7.18,9.1,5.58-6.68,7.37-18.34,22.39-13.55,32.88,6.57,14.4,29.55,4.8,29.55,4.8s-4.55,2.78.25,5.05c2.76,1.3,9-1.22,13.83-3.61-6.67,4.43-15.61,13.18-11.3,26.59,6.57,20.46,34.35.76,34.35.76s-7.32,6.31,2.78,5.56C223.43,518.3,285.23,490.64,280.38,457.54Z"/><path class="cls-6" d="M143.13,206.86a3.1,3.1,0,0,0,.77,4.5c2.69,2.06,4.82,2.66,6.16-.8S147.37,202.36,143.13,206.86Z"/><path class="cls-6" d="M276.24,361.23s-.15-5.07,3.48-4.81,2.08,3,4.45,3.49-.85,2-.62,3.64S278,366.43,276.24,361.23Z"/><path class="cls-6" d="M182.42,273.36a5.46,5.46,0,0,1,.45,5.31c-1.4,2.71-4.63,1.1-4.31-.61s-1.13-3.22,1.16-4.72A2.77,2.77,0,0,1,182.42,273.36Z"/><path class="cls-6" d="M157.56,236.06a5.46,5.46,0,0,1,.45,5.31c-1.4,2.71-4.63,1.1-4.31-.61s-1.13-3.22,1.16-4.72A2.77,2.77,0,0,1,157.56,236.06Z"/><path class="cls-6" d="M312.95,380.38s2.5,3.52.61,7.17-6.25,1.48-5.82-.83-1.52-4.35,1.57-6.37A3.74,3.74,0,0,1,312.95,380.38Z"/><path class="cls-6" d="M142.39,194.22s1.21,2.65,1.68,2.85,4,0,3.94-2.1-2.57-4.44-2.57-4.44Z"/><path class="cls-6" d="M111.45,106.32s1.21,2.65,1.68,2.85,4,0,3.94-2.1-2.57-4.44-2.57-4.44Z"/><path class="cls-6" d="M105.4,83.88s-3.4,2.21-1.83,3.69,5.6,4.2,6.86,2.86,2.38-5,.46-6.43S106.85,81.64,105.4,83.88Z"/><path class="cls-6" d="M372.05,365.05c2.87,1.39,4-1.45,7-1.65,2.49-.17-4.24-4-7.68-3.12C370.19,360.58,366.85,362.53,372.05,365.05Z"/><path class="cls-6" d="M324.06,380.05c2.87,1.39,4-1.45,7-1.65,2.49-.17-4.24-4-7.68-3.12C322.19,375.58,318.85,377.53,324.06,380.05Z"/><path class="cls-6" d="M407.39,351.81s2.41,5.29,3.77,2.87,3.87-5.92,2.89-7.63S408.4,346.11,407.39,351.81Z"/><path class="cls-6" d="M421.55,350.06s-1.43,1.85.24,2.46,4.18-.37,3.39-2.24S423.17,349,421.55,350.06Z"/><path class="cls-6" d="M532.34,303.62s-1.94,3.11-.9,4.1,6,4.66,5.61.34S532.34,303.62,532.34,303.62Z"/><path class="cls-6" d="M293.45,356.46s-1.94,3.11-.9,4.1,6,4.66,5.61.34S293.45,356.46,293.45,356.46Z"/><path class="cls-6" d="M130.36,161.12s-1.94,3.11-.9,4.1,6,4.66,5.61.34S130.36,161.12,130.36,161.12Z"/><path class="cls-6" d="M484.73,322.63s-1.79,2.19-.18,3.43,4.55-.42,4.37-1.7S485.78,324.45,484.73,322.63Z"/><path class="cls-6" d="M117.07,122.07s-1.79,2.19-.18,3.43,4.55-.42,4.37-1.7S118.12,123.89,117.07,122.07Z"/><path class="cls-6" d="M142,179.6s-2.05.21-1.44,1.64,2.77,2.46,3.49.82S143.65,180,142,179.6Z"/><path class="cls-6" d="M170.15,280.64s4.31-3.61,3.92-5.58-5.74-2.66-6-.77S167.15,281.54,170.15,280.64Z"/><path class="cls-6" d="M296.19,378.59c1.15.06,2.65-2.45,4.09-2.4s2.6-3.4-.75-3.93-6.27,1.84-5.47,3.29S295.29,378.55,296.19,378.59Z"/><path class="cls-6" d="M349.55,368.05a8.3,8.3,0,0,1,.12,2.94c-.28,1.09,3,.77,3-.83S350.83,365.91,349.55,368.05Z"/><path class="cls-6" d="M157.56,252.56a8.3,8.3,0,0,1,.12,2.94c-.28,1.09,3,.77,3-.83S158.84,250.42,157.56,252.56Z"/><path class="cls-6" d="M139.56,170.06a8.3,8.3,0,0,1,.12,2.94c-.28,1.09,3,.77,3-.83S140.84,167.92,139.56,170.06Z"/><path class="cls-6" d="M121.47,145.46a8.3,8.3,0,0,1,.12,2.94c-.28,1.09,3,.77,3-.83S122.75,143.32,121.47,145.46Z"/><path class="cls-6" d="M495,320.06a8.3,8.3,0,0,1,.12,2.94c-.28,1.09,3,.77,3-.83S496.32,317.91,495,320.06Z"/><path class="cls-6" d="M441,348a8.3,8.3,0,0,1,.12,2.94c-.28,1.09,3,.77,3-.83S442.23,345.81,441,348Z"/><path class="cls-6" d="M514.79,312.68s3.26,2.23,2.76,2.88,2.22,2.76,2.8,2,4.62-2.2,3.58-3-7.19-6-8.19-4.72S513.75,311.87,514.79,312.68Z"/><path class="cls-6" d="M456.79,338s1.16,0,2,2.4,2.72,1.28,2.9,0-1.07-3.76-2.64-3.88S456.42,336.61,456.79,338Z"/><path class="cls-6" d="M356.65,364.13s1.16,0,2,2.4,2.72,1.28,2.9,0-1.07-3.76-2.64-3.88S356.29,362.73,356.65,364.13Z"/><path class="cls-6" d="M337.55,374.05s1.16,0,2,2.4,2.72,1.28,2.9,0-1.07-3.76-2.64-3.88S337.19,372.65,337.55,374.05Z"/><path class="cls-6" d="M118.07,133.16s1.16,0,2,2.4,2.72,1.28,2.9,0-1.07-3.76-2.64-3.88S117.7,131.76,118.07,133.16Z"/><path class="cls-6" d="M472.29,328.89s1,3.32,3.26,3.16a34,34,0,0,1,7.3.42C484.8,332.83,477.11,328.24,472.29,328.89Z"/><path class="cls-4" d="M283.48,447.9c-5.19,17.69-26.06,28-46,21.27-17.22-5.8-30.15-26-25-43.71s23.63-26.62,43.76-20.35C270.26,409.47,288.68,430.21,283.48,447.9Z"/><path class="cls-3" d="M245,409.5s10.5-9.5-25.5-56c-20-26-26.5-33.5-46-35"/><path d="M184.5,328.41c-3.81-1-14.48-6.51-12.59-9.44s18,1.47,22.67,6.09S187.07,329.08,184.5,328.41Z"/><path d="M184.71,347.3s-11.12,1-6.51-3.36,15.53-3.36,14.27-1.26S188.28,346.46,184.71,347.3Z"/><ellipse cx="294.24" cy="401.63" rx="4.48" ry="2.75" transform="translate(-192.71 297.88) rotate(-41.75)"/><path class="cls-7" d="M256.33,451c-9.54,7.22-25.52-.14-33-9.94s-6.45-23.15,2.28-29.8,21.87-4.1,29.34,5.71S264.15,445.07,256.33,451Z"/><path class="cls-7" d="M290,431.2c-.94,11.5-7.33,20.37-14.26,19.8S264,440.64,264.92,429.14s9.52-20.45,14.26-19.8S291,419.7,290,431.2Z"/><path class="cls-3" d="M262.78,447.12s15.07,20.84,6.7,44.1c-5.38,15-17.63,21.15-25.27,16.25-5.16-3.32-4.83-20.69,8-23.21,9.33-1.83,6.39,5.47,3.61,8.25-1.81,1.81-8.51,3.09-8.25-2.32"/><path class="cls-5" d="M237.45,469.17c-17.22-5.8-30.15-26-25-43.71a30.29,30.29,0,0,1,19.9-20.59,30.43,30.43,0,0,0-22.65,21.37c-5.19,17.69,7.74,37.91,25,43.71a38.5,38.5,0,0,0,24.3.21A38.66,38.66,0,0,1,237.45,469.17Z"/><path class="cls-4" d="M212.42,442.37s-12.38.42-9,7.77,14.48,13,29.17,14.69"/><path class="cls-5" d="M232.56,464.82c-14.69-1.68-26.35-7.45-29.71-14.8-1.59-3.47.69-6.18,3.3-7.22a12.28,12.28,0,0,1,6.26-.44s-10.27,1.06-7.87,7.39,18.45,12.3,22.37,13.54l3.92,1.25"/><path class="cls-6" d="M218.34,464.42s-4.54-4.32.23-10.11l2.73-3.52s7.16,4.09,7.73,6.14S223,467.26,218.34,464.42Z"/><path class="cls-6" d="M232.5,458.21s-3.21,1.23-3.3,6.13,7.54.85,8.39-1.32S238.07,459.82,232.5,458.21Z"/><path class="cls-5" d="M211.81,447a24.14,24.14,0,0,1,5.33,1.18,31.23,31.23,0,0,1,5.19,2.22c3.67,2,6.87,4.87,10.63,6.78,1.29.65,2.58,1.05,3.84,1.68a9.06,9.06,0,0,1,1.2.72,9.92,9.92,0,0,1,2.67,3.05,8.25,8.25,0,0,1,.64,1.37,12.33,12.33,0,0,0-1-1.13,11.87,11.87,0,0,0-3-2.32,8.12,8.12,0,0,0-1-.44q-.63-.2-1.28-.35a18.48,18.48,0,0,1-2.86-1,24.58,24.58,0,0,1-2.86-1.48C223.38,453.72,218.32,449.66,211.81,447Z"/><path class="cls-8" d="M250.82,440.32c-7.47,3.82-17.6-3.21-21.57-10.89s-1.64-16.77,5.2-20.3,18.2,2.33,22.17,10S256.94,437.19,250.82,440.32Z"/><path class="cls-6" d="M253.5,422.75c0,5.91-6.73,10.15-10.7,10.7-5.54.77-12.51-4.66-12.51-10.57s5.69-12.38,11.6-12.38S253.5,416.84,253.5,422.75Z"/><path class="cls-6" d="M243.51,438.07c0,1.87-2.13,3.21-3.39,3.39a3.78,3.78,0,0,1-4-3.35,3.68,3.68,0,1,1,7.35,0Z"/><path class="cls-8" d="M289.92,427.82c.63,11.34-6.66,16.57-13.16,16s-11.14-8.58-10.37-18,8.34-17.13,12.79-16.55S289.4,418.42,289.92,427.82Z"/><path class="cls-6" d="M279.35,437.3c0,1.87-2.13,3.21-3.39,3.39a3.78,3.78,0,0,1-4-3.35,3.68,3.68,0,1,1,7.35,0Z"/><path class="cls-6" d="M288.42,419.92a11,11,0,0,0-5-1.68c-2.58,0-9.54,3.46-9.54,7.74s4.27,7.74,9.54,7.74a10.77,10.77,0,0,0,6.57-2.14c0-.13,0-.25,0-.38A26.18,26.18,0,0,0,288.42,419.92Z"/><circle cx="216.3" cy="396.09" r="3.46"/><path class="cls-3" d="M216.3,396.09s.31,5.35,8.71,7.45c4.62,1.26,4.62,2.73,4.62,2.73"/><polygon class="cls-1" points="94.4 110.2 95.59 120.96 105.15 123.35 114.71 110.2 103.96 114.98 94.4 110.2"/><polygon class="cls-1" points="118.3 124.54 118.3 132.91 108.74 140.08 97.98 134.1 100.23 130.52 107.39 133.65 118.3 124.54"/><polygon class="cls-1" points="152 304 169 312 171.91 318.97 154 311 152 304"/><polygon class="cls-1" points="169 292 150 281 149.5 284.5 169.5 297.5 169 292"/><polygon class="cls-1" points="132.06 269.06 139.33 214.13 139.56 201.56 124.56 255.56 132.06 269.06"/><polygon class="cls-1" points="107.33 180.17 140.17 210 139.33 214.13 109.57 189.56 107.33 180.17"/><polygon class="cls-1" points="132 173.83 105.07 170.06 104.83 164.17 132.33 171 132 173.83"/></svg>