<svg id="Layer_2" data-name="Layer 2" xmlns="http://www.w3.org/2000/svg" width="600" height="589" viewBox="0 0 600 589"><defs><style>.cls-1{fill:#38667d;}</style></defs><title>premio_leccion_8_4_block</title><path class="cls-1" d="M542.83,292.82,426.24,348.36c20.75-20.75-121.47,29.91-121.47,29.91,4.88-46.39-31.74-22-31.74-22a214.35,214.35,0,0,0-23.06,18l-1.08-1.48c-10.64-14.36-22.51-24.15-35.16-29.16-8.06-10.19-13.91-16.67-20.24-20.73-1.71-19.47-4-36-5.92-42.91-6.1-22-8.55-8.55-15.87-11s-21.46-61-24.05-83c-3.62-30.78-18.06-31.1-18.06-31.1,1.22-21.36-17.09-83.63-33-101.94S89.91,114,107,198.82c12.71,63.07,50.71,156.49,69.37,200.29-8,3.28-2.59,5.41,2.81,6.56l1.7,3.93c-1.35.8-2.91,1.73-4.58,2.79-1.65-2.38-3.7-4.35-6-4.5,0,0,0-7.65-3.82-7.65,0,0-3.69-20.14-19.1-16.35-10.49,2.58-13.91,15.29-13.37,26.55.29,9.17,3.19,17.36,7.24,18.24,0,0,4.59,9.41,9.18,9.79,0,0,2.29,9.94,8.79,9.94a2.8,2.8,0,0,0,.66-.09l.21-.07L159,449.53l-.4.48-.44.53-.51.63-.4.51-.77,1-.33.44-.6.79-.31.42-.87,1.21-.11.16-.77,1.12-.26.39-.67,1-.19.3q-.42.67-.82,1.36l-.13.23q-.34.58-.66,1.16l-.19.36q-.34.63-.66,1.27l-.07.13q-.35.71-.67,1.43l-.13.3q-.25.58-.48,1.16l-.13.34a28.74,28.74,0,0,0-.93,2.85l-.09.36q-.14.57-.26,1.14l-.06.3c-.09.47-.16.93-.21,1.39,0,.08,0,.15,0,.23q-.06.58-.07,1.15,0,.19,0,.38,0,.57,0,1.14c0,.07,0,.14,0,.22,0,.44.1.87.17,1.3,0,.11,0,.22.07.32q.1.5.25,1c0,.12.07.24.11.36a11.89,11.89,0,0,0,.47,1.23c6.57,14.4,29.55,4.8,29.55,4.8s-4.55,2.78.25,5.05a3.22,3.22,0,0,0,.52.19l.19,0,.4.07.25,0,.4,0h.28l.43,0,.29,0,.48-.06.29,0,.58-.11.22,0,.85-.2.08,0,.79-.23L184,489l.64-.21.29-.1.64-.23.29-.11.67-.26.25-.1.78-.32.14-.06c1.3-.55,2.58-1.15,3.77-1.74l-.82.56-.25.17-.85.62-.08.06-.81.63-.24.19-.87.73-.1.09-.78.71-.22.21c-.28.27-.57.55-.84.83l-.13.13-.73.79-.2.22q-.4.46-.79.94l-.13.17q-.33.43-.65.87l-.17.23q-.36.51-.69,1l-.13.22q-.29.47-.55,1l-.13.24q-.3.57-.56,1.15l-.11.26q-.23.52-.42,1.06l-.09.23q-.22.62-.4,1.26l-.08.29q-.15.58-.27,1.17l0,.21c-.08.45-.15.91-.2,1.37,0,.11,0,.22,0,.33,0,.43-.07.86-.08,1.31,0,.06,0,.12,0,.18,0,.49,0,1,0,1.49,0,.12,0,.24,0,.36,0,.48.09,1,.16,1.47v.11c.08.53.19,1.06.31,1.61l.1.4c.14.55.29,1.11.47,1.68,6.57,20.46,34.35.76,34.35.76s-7.32,6.31,2.78,5.56l.29,0h.08l.36-.07h0l.41-.1.11,0,.49-.14,0,0,.51-.16.14,0,.61-.2.09,0,.6-.21.16-.06.73-.27.09,0,.71-.28.17-.07.83-.34.12-.05.81-.34.15-.06.95-.41.12-.05.91-.4.15-.07,1-.47.12-.06,1-.47.12-.06,1.13-.54.13-.06,1.12-.55.07,0,1.22-.61.13-.06,1.21-.62,0,0,1.28-.67.13-.07q1.29-.69,2.63-1.42l.14-.08q1.34-.74,2.71-1.54l.12-.07.72-.42a6.06,6.06,0,0,0,1.39,1.26,12,12,0,0,0,6.58,1.89,15,15,0,0,0,4.83-.83c6.84-2.32,12.85-9.07,16.09-18.06a44.52,44.52,0,0,0,2.4-10.52q.55-.76,1.07-1.54l0-.06q.9-1.34,1.68-2.71l0-.08q.78-1.36,1.44-2.75l0-.09q.65-1.39,1.18-2.79l0-.1q.52-1.41.89-2.84l0-.11a28.67,28.67,0,0,0,.59-2.87l0-.12a26.71,26.71,0,0,0,.27-2.91v-.12a25.74,25.74,0,0,0-.07-2.95V459a25.83,25.83,0,0,0-.55-3.51,30.28,30.28,0,0,0,1.71-3.07c85.07-21.79,211.15-101.18,241-122.41C563,301.36,542.83,292.82,542.83,292.82ZM224.14,404.87l-.09-.05.11,0Zm1.65-2.67-.41-.12c-3.61-.9-5.5-2.42-6.49-3.71a3.46,3.46,0,1,0-2.84,1.15,10.18,10.18,0,0,0,1.86,2.16c-7.17-3.35-14.86-5.8-22.39-6.19,1-15,.55-34.21-.56-52.78A50.92,50.92,0,0,1,211.74,346c2,2.57,4.2,5.38,6.57,8.47,10.16,13.13,16.55,23.22,20.51,30.92A124.65,124.65,0,0,0,225.79,402.21Zm20.65-27.68q.66.89,1.31,1.79Q244.13,379.7,241,383c-4.13-7.85-10.54-17.81-20.3-30.42l-3.16-4.09Q232.89,356.29,246.44,374.53Zm-38-32.69a53.85,53.85,0,0,0-13.68-2.08c-.25-3.85-.52-7.66-.82-11.39a3.47,3.47,0,0,0,1.19-.59C199.24,331,203.38,335.58,208.46,341.83Zm45.39,165.1a10.07,10.07,0,0,1-8.82-.74,2.74,2.74,0,0,1-.39-.31q1.19-.73,2.39-1.5l.1-.06q1.43-.91,2.85-1.87l.09-.06q1.43-1,2.86-2l.07-.05q1.43-1,2.83-2.08l.07-.05q1.41-1.07,2.79-2.17l.05,0q1.39-1.12,2.74-2.28l0,0q1.36-1.17,2.66-2.38h0q2-1.82,3.77-3.73h0q.76-.81,1.49-1.63a40.59,40.59,0,0,1-1.38,4.75C265.15,498.84,259.83,504.91,253.84,506.94Z"/></svg>