<svg id="Layer_2" data-name="Layer 2" xmlns="http://www.w3.org/2000/svg" width="600" height="589" viewBox="0 0 600 589"><defs><style>.cls-1{fill:#38667d;}</style></defs><title>premio_leccion_2_2_block</title><path class="cls-1" d="M218.22,385.08c1.69,1.35,3.68,3.5,2.85,5.68-1.37,3.58-4.76,12.82-2.5,17.1,1.37,2.62,27.76,22,27.76,22L286.42,406c-.95,3.94-2.09,7.89-2.09,7.89s8.51.74,15.54-15.54l.28-.49,21.21-12.58c2.3,2.07,4.71,4.22,7.17,6.36v.11l0,0,0,0-5.71,128.7s-4.07,8.14-.74,16.65c.13.32.25.69.37,1.06l.09.31c.1.32.19.65.28,1l.07.25c.24.93.47,1.94.69,3,2.28,11.17,3.87,29.32,10.34,22.85,7.77-7.77,11.47-11.47,12.21-6.66s4.81,15.17,7.77-1.11c1.64-9,2.37-56.26,2.7-96.63,2.47,23.85-.1,52.47,2.77,47.16,3.58-6.6,3.44,30.37,2.78,38.18a.59.59,0,0,0,.95.52l3.14-2.3a3.36,3.36,0,0,0,1.37-2.67l1.58-114.65.11-3.42-.06,0v-.11c.29.17,2,1.31,4.53,3q12.56,9,26.91,18.14l.09,0q3.47,2.21,7.05,4.43a1.19,1.19,0,0,0,1.71-1.52l-.51-1.16a4.93,4.93,0,0,0,0-2.59l-10.89-26.67,1.28,1,.52.37c.69.49,1.37,1,2,1.34l.47.28c.3.18.6.33.87.46l.4.18a4.52,4.52,0,0,0,.7.24,1.28,1.28,0,0,0,.77,0,.5.5,0,0,0,.26-.37,1.69,1.69,0,0,0,0-.33c.15-2.39-2.77-10.18-5.11-16.4-.49-1.31-1-2.55-1.36-3.65-.61-1.65-1.08-3-1.3-3.83a18.47,18.47,0,0,0,4.65,1.74c1.61.27,2.92-.1,2.47-2.25-.54-2.61-2.9-9.81-4.74-16.07-.22-.74-.43-1.46-.62-2.16l-.29-1c-.19-.68-.36-1.33-.52-1.94s-.3-1.19-.42-1.73-.22-1-.29-1.46c0-.22-.07-.42-.09-.61-.12-.95-.08-1.53.18-1.61a2.34,2.34,0,0,0,.64-.3,2.41,2.41,0,0,0,.31-.25,3.28,3.28,0,0,0,.91-1.77,5.76,5.76,0,0,0,.1-.67,7.57,7.57,0,0,0,0-.78c0-.28,0-.57-.06-.89a15.36,15.36,0,0,0-.39-2.14,34.18,34.18,0,0,0-2.2-5.92c-.08-.16-.15-.35-.23-.55l-.08-.21-.16-.46-.09-.28-.16-.51-.09-.32-.16-.6-.09-.32-.2-.8-.05-.21c-.09-.35-.17-.72-.26-1.1l-.07-.32-.19-.88-.1-.47-.17-.83-.1-.51-.17-.89-.1-.51-.19-1-.08-.44q-.14-.75-.27-1.53l0-.22-.23-1.37-.1-.58-.18-1.09-.1-.65-.18-1.11-.1-.66-.18-1.18-.09-.62-.25-1.65,0-.18-.27-1.88-.09-.6-.19-1.32-.1-.73-.17-1.25-.1-.75-.17-1.26-.1-.75-.2-1.55-.06-.44-.26-2-.06-.51-.19-1.55-.09-.72-.17-1.36-.09-.77-.16-1.35-.09-.72-.18-1.56-.06-.51-.24-2.08,0-.34-.19-1.72-.08-.69-.15-1.36-.09-.8-.13-1.25-.08-.79-.14-1.31-.07-.7-.17-1.67c-1.55-15.49-2.35-28.08-1.44-28.18,0,0,4.19,10.36,6.41,1.73s-5.18-30.34-16.28-51.07-6.91-27.88-9.37-37-15.54-27.88-14.8-32.32c0-.3.16-.77.3-1.37h0c.15-.61.35-1.39.58-2.27l.09-.22-.06.13c.91-3.43,2.37-8.67,3.92-14.41l.05-.2.46-1.72.1-.36.46-1.71.09-.32.47-1.77.08-.29.51-2v-.05c.35-1.38.7-2.76,1-4.11l0-.13.44-1.82.11-.46.34-1.43.14-.6.28-1.23.14-.66.24-1.11.14-.67.21-1,.13-.65.18-.94.11-.64c.05-.29.1-.57.15-.85l.1-.6c0-.27.08-.52.11-.77s.05-.37.07-.55.06-.47.08-.7,0-.33.05-.49,0-.42,0-.62,0-.29,0-.42,0-.37,0-.54,0-.23,0-.34,0-.33,0-.48,0-.16,0-.23a2.46,2.46,0,0,0-.14-.53,6.44,6.44,0,0,0-.33-.67l-.1-.18c-.14-.25-.31-.51-.5-.79h0c-.19-.29-.41-.59-.65-.91l-.16-.22-.78-1h0c-5.35-6.84-16.85-18.77-17.37-23.8a91.27,91.27,0,0,0-2-9.45l-.2-.81-.12-.5-.2-.78-.11-.44-.29-1.14-.13-.53-.18-.72-.15-.58-.2-.77-.22-.83-.2-.78-.15-.58-.2-.74-.13-.48-.3-1.13-.14-.51-.2-.75L339,55l-.21-.78-.12-.44-.27-1-.13-.49-.18-.65-.11-.4-.27-1-.08-.31-.2-.74-.08-.29-.17-.61-.13-.45-.19-.69-.06-.23-.18-.65,0-.07-.2-.71,0-.11L336.3,45l-.08-.3-.19-.66,0-.09-.07-.26s-1-2.9-6.7-6.61c-1-.65-2.15-1.34-3.46-2q-1.31-.69-2.85-1.4a85.55,85.55,0,0,0-11.54-4.23q-2.33-.69-5-1.35t-5.58-1.28q-1.47-.31-2.91-.56-2.87-.51-5.6-.79-1.36-.15-2.68-.24a72.18,72.18,0,0,0-22.32,1.72l-1.76.45c-9.7,2.63-15,6.49-15,6.49v.2c-.29,2.3-3,26,5.26,40.11-.1.46-.21.93-.31,1.41l-.25,1.19q-.25,1.21-.48,2.48c-.31,1.7-.6,3.48-.86,5.35q-.29,2.1-.51,4.32-.07.74-.14,1.49a105.34,105.34,0,0,0-.25,14.41V105q.09,1.65.24,3.33.23,2.6.61,5.26.24,1.64.54,3.31c.13.69.26,1.38.4,2.07s.26,1.21.39,1.81q.41,1.82.91,3.65.25.92.52,1.84.54,1.84,1.18,3.69t1.38,3.71q1.47,3.72,3.37,7.44,1,1.86,2,3.72c.23.35.45.66.66,1l.13.18c.2.28.4.53.58.76l.11.13c.17.21.34.39.49.56l.08.08a6.34,6.34,0,0,0,.49.45l.12.1a3.57,3.57,0,0,0,.44.3l.08,0a2,2,0,0,0,.36.14l.09,0a1.33,1.33,0,0,0,.37,0h.1a1.24,1.24,0,0,0,.34-.09l0,0a1.63,1.63,0,0,0,.3-.2l.08-.07a2.69,2.69,0,0,0,.3-.32l.07-.09a4.69,4.69,0,0,0,.28-.41l0,0c.1-.17.2-.36.29-.56l.05-.11c.1-.21.19-.43.29-.67l0,0q.15-.38.31-.8h0c.6-1.67,1.21-3.84,2-6.3a75.27,75.27,0,0,1,3.07-8.26c.38,1.24.68,2.39.9,3.43l0,.2q.08.37.14.73l0,.27c0,.21.06.42.08.62s0,.17,0,.24c0,.27,0,.53.05.77s0,.62,0,.94c0,.65.06,1.34.1,2.06q0,.54.07,1.11c.68,10.57,2.67,26.86,2.67,26.86l-.08,0h0c-.39-.2-2.1-1.07-4.53-2.06h0a57.69,57.69,0,0,0-7.22-2.45,32.6,32.6,0,0,0-6.39-1.07l-1,0-1,0a15,15,0,0,0-2,.22,10.09,10.09,0,0,0-3.48,1.28,227.55,227.55,0,0,0-10.28,39.51q-.46,2.84-.85,5.76c-.64,4.86-1.08,9.86-1.23,14.86q-.09,3,0,6,0,2.44.1,4.67c0,2.22.09,4.29.14,6.21q0,1,0,1.87c.08,3,.16,5.68.25,8,.05,1.39.11,2.66.17,3.83s.13,2.18.2,3.13v.14c.08,1,.16,1.92.26,2.75a23.1,23.1,0,0,0,1.44,6.65,2.44,2.44,0,0,0,3.66.95l.85-.62c.19,1.23.4,2.44.63,3.63,1.25,6.42,3.81,18.06,7.09,26.32.65,1.63,1.41,3.32,2.22,5h0c1.69,6.35,3.83,12.92,6,18.84l.14.39.55,1.49.23.63.49,1.29.29.75.44,1.14.34.85.39,1,.39,1,.33.82.46,1.09.25.6.69,1.6c.21.49.43,1,.66,1.56.34.83.69,1.72,1.06,2.62l.54,1.3.44,1c1.13,2.52,2.42,4.86,3.92,6l.07,0-3.33,4.8s-14.43-10.36-18.13-9.25-33.3,8.14-34,14.43-.85,21.55-.85,21.55h0L217.39,382C216.72,382.89,217.06,384.16,218.22,385.08Z"/></svg>