<svg id="Layer_2" data-name="Layer 2" xmlns="http://www.w3.org/2000/svg" width="600" height="589" viewBox="0 0 600 589"><defs><style>.cls-1{fill:#38667d;}</style></defs><title>premio_leccion_1_2_block</title><path class="cls-1" d="M77.58,484c26.41,22.81,27,1.27,43.8,4.87a123,123,0,0,0,24.22-11.12l.65,1.57.38.92c.43,1.07.87,2.15,1.29,3.24l.19.49q.59,1.51,1.16,3.06l.3.81q.62,1.68,1.22,3.39l.3.85c.41,1.19.82,2.38,1.22,3.6l.11.34q.57,1.74,1.11,3.51l.24.78q.56,1.85,1.09,3.74l.23.83c.36,1.31.72,2.64,1.07,4l.05.22q.5,2,1,4l.19.8q.46,2,.9,4.11l.17.86c.29,1.45.58,2.91.84,4.39l0,.11c.26,1.46.51,2.95.74,4.45l.14.87q.34,2.23.64,4.52c0,.3.08.6.11.91.2,1.59.39,3.2.56,4.83h0c1.87,15.86,8.63,23.14,15.47,26.29a22.77,22.77,0,0,0,2.28.9,24,24,0,0,0,3.34.86c.72.13,1.43.23,2.12.29a26,26,0,0,0,2.91.11,24.46,24.46,0,0,0,2.48-.17l.71-.1c6-.93,23.31-1.78,21.93-28v-.2q-.07-1.17-.18-2.41l0-.31c-.08-.84-.18-1.69-.3-2.57l0-.12q-.18-1.3-.41-2.68l0-.27c-.15-.9-.33-1.83-.52-2.77l-.1-.51q-.29-1.41-.63-2.88l-.11-.48c-.25-1-.5-2.09-.79-3.18v0q-.25-1-.54-1.92l-.13-.43-.24-.75-.11-.36-.11-.34-.32-1-.29-.84q-.29-.82-.6-1.64l-.29-.78q-.41-1.07-.86-2.15l-.1-.24q-.5-1.2-1-2.4l-.35-.79q-.37-.83-.76-1.66l-.43-.92-.76-1.59-.44-.9-.94-1.89-.29-.58q-.61-1.19-1.23-2.4l-.58-1.1-.74-1.4-.69-1.3-.61-1.13-.83-1.55-.13-.25c-3.36-6.22-6.94-12.7-10.41-19.57l-.21-.42q-.65-1.3-1.3-2.62l-.22-.46c-1.48-3-2.93-6.16-4.31-9.37l-.25-.59-.5-1.2c15.65-7.14,21.45-3.85,61.08-2.63L250.65,486c.37,1.77,2.69,11.62,9.12,16.37h0q.75.65,1.55,1.24l9.3,6.89a1,1,0,0,0,1.6-1.08l-4.05-15.7a.62.62,0,0,1,1.05-.59L282.68,507l.21.19a8.42,8.42,0,0,0,7,2.3l.38-.06c.19,0,.38-.07.57-.12a8.15,8.15,0,0,0,1.06-.34c5.1-2.07,11.87-6,11.87-12.26,0-3.72-5.41-21-11.21-43.13,18.43-.42,40.5-1.31,67.15-2.93,0,0,73.22-4.8,108-40.81A95.22,95.22,0,0,0,481.12,392,105.66,105.66,0,0,0,496,354.07a119.7,119.7,0,0,0,3.13-25.45l.44-.17S513,318.4,513,278.17c0,0,3-19.2-26.75-29.22a29,29,0,0,0-10.52-1.4l-28.39,1.26c.12-.16.25-.33.34-.46l-.06,0c21.08-19.44,37.33-35.88,45.78-44.65a33.27,33.27,0,0,0,9.22-20.24c.62-7.08.53-17.09-1.69-30.25l.12,0,26.12,13.86h.09c1,0,10.33-1.43,29.7-37.57a12,12,0,0,0,.6-10l-.09-.23a24.14,24.14,0,0,0-18.27-15c-10.11-1.75-26.39-2.9-50.81-.35,0,0-18.26-13-49.06-22.65q-1.29-.73-2.66-1.39-7.1-3.41-13.36-6.16-5-2.21-9.57-4-2.27-.91-4.44-1.74a162.29,162.29,0,0,0-24.13-7.36c-2.95-17.48-12.73-48.94-44.71-42.12,0,0-3.07-1.25-6.42,8.77l0,.11c-.12.37-.24.75-.37,1.14l0,.07q-.38,1.24-.76,2.7l-.08.29q-.16.61-.31,1.26l-.07.27c-.13.52-.25,1.06-.38,1.62l0,.13c-.11.5-.22,1-.33,1.55l-.1.48q-.14.69-.28,1.41l-.09.46c-.12.63-.24,1.27-.35,1.94l0,.27q-.15.87-.3,1.78l-.11.66q-.12.79-.25,1.61l-.1.66c-.11.75-.22,1.51-.33,2.3l-.05.38q-.14,1-.27,2.08l-.11.86q-.11.9-.22,1.83L329,54c-.1.88-.2,1.77-.29,2.69l-.06.59q-.12,1.13-.23,2.31l-.11,1.12q-.09,1-.18,2c0,.39-.07.79-.1,1.19-.06.76-.13,1.53-.19,2.32q-1.43.55-2.8,1.15c-2.23,1-4.35,2-6.32,3.05-1.54.82-3,1.64-4.34,2.45l-1.29.79-1,.62q-1.12.71-2.13,1.39c-.89.6-1.71,1.17-2.44,1.7l-1.18.86c-.64.47-1.19.9-1.66,1.26l-.28.22-.74.59c-.55.45-.85.71-.85.71l-.55.39c-1.1.78-2.21,1.65-3.31,2.57q-.89.75-1.77,1.54c-1.31,1.18-2.59,2.42-3.79,3.64h0c-1.29,1.31-2.49,2.61-3.57,3.83a69.5,69.5,0,0,0-4.44,5.45h0q-2.75,3.51-5.42,7.09c-.9,1.19-1.77,2.39-2.65,3.59s-1.77,2.39-2.62,3.61c-1.72,2.43-3.45,4.85-5.14,7.3q-1.28,1.83-2.53,3.68l-2.47,3.72L262,131.12l-2.42,3.75-2.4,3.77-2.34,3.81-.49.8-1.48-.58c-.64-.24-1.39-.51-2.24-.8-1.15-.38-2.45-.79-3.9-1.16-.79-.21-1.61-.41-2.47-.59l-1.3-.27c-.88-.17-1.79-.32-2.73-.45l-1.41-.17c-6.17-.67-13-.15-18.68,3.48-.42.27-.86.57-1.31.9l-.08.05c-.44.32-.89.67-1.36,1l-.15.12c-.45.37-.92.76-1.4,1.17l-.22.19c-.46.41-.94.83-1.43,1.28l-.3.27q-.71.66-1.44,1.37l-.38.37-1.44,1.44-.46.47-1.43,1.49-.55.59L206.82,155l-.64.7-1.26,1.41-.86,1-1,1.16-1.16,1.37-.82,1-1.36,1.66-.7.86-1.51,1.9-.6.77-1.62,2.1-.52.68q-.86,1.14-1.72,2.3l-.43.58q-.9,1.23-1.8,2.49l-.34.48q-1,1.38-1.94,2.78l-.18.26h0C178,193.61,169,210.55,167.1,223.55a277.19,277.19,0,0,0-2,53.57s-.74,5.55,3,12.57c-3.4,4-8.48,10.26-14.14,17.94l-.08.11c-11.72,15.9-25.92,38-33.09,59.68q-2.37,2-4.72,4S48.84,406.29,41.64,448.3c0,0,1.87,11.41,12,22.26C58.81,476.13,59.89,468.76,77.58,484Z"/></svg>