<svg id="Layer_2" data-name="Layer 2" xmlns="http://www.w3.org/2000/svg" width="600" height="589" viewBox="0 0 600 589"><defs><style>.cls-1{fill:#38667d;}</style></defs><title>premio_leccion_8_3_block</title><path class="cls-1" d="M465.2,289.38a5.92,5.92,0,0,0,1,.91c2,1.5,4.62-.3,13.4-3.35,6.79-2.36,9.13-6.62,4.39-8.93s-19.13,9-19.13,9a1.17,1.17,0,0,0-.16.28c-41.48,29.86-60,60.59-68.22,81.27-9.11,22.89-8,38.37-7.94,39l2-.16c0-.15-1.13-15.65,7.81-38.11C406.39,349,424.56,318.81,465.2,289.38Z"/><path class="cls-1" d="M538.91,318.5c-52.46,1.32-88.61,25.31-109.71,45.22-22.86,21.57-33.47,43.15-33.57,43.37l.68.33c-.32,0-.63-.07-1-.08h0a11.64,11.64,0,0,0-2.14.32,41.33,41.33,0,0,0-9.42,1.84,17.86,17.86,0,0,1-5.92-2.85,4.26,4.26,0,1,0-7.14-1.58,55.59,55.59,0,0,0-9.78-3c22.86-30,70-104.21,88.22-223.78,6.57-78.82.94-95.71-7.51-78.82s-31.15,49.35-46.92,57.24c-15.26,7.63-43.83,38.07-65.09,73.27-13.15-78.62-33.63-157.72-64-174l-.44-.23-.84-.43c-.46-.22-.93-.43-1.39-.62a4.12,4.12,0,0,0-.52-.16l-.16,0-.35-.05h-.49l-.19,0-.3.05-.17,0-.32.11-.14.05a3.67,3.67,0,0,0-.44.24l0,0a4.39,4.39,0,0,0-.39.29l-.14.12-.27.26-.15.16-.25.28-.15.18-.24.33-.14.19-.26.41-.1.17c-.12.2-.23.41-.35.63l0,.09q-.15.29-.29.6l-.11.24-.21.49-.12.3-.19.5-.12.31-.19.54-.1.31-.2.64-.08.25q-.14.45-.27.93l0,.17-.21.8-.08.34-.16.66-.09.39-.14.66-.09.4-.14.7-.08.39-.15.81-.05.3q-.1.56-.19,1.13l0,.22-.15.94-.06.4-.12.78-.06.45-.1.76-.06.47-.1.79-.05.43-.11.94,0,.29q-.07.62-.14,1.24l0,.27q-.05.49-.1,1l0,.44-.08.82,0,.49-.07.78,0,.5-.07.81,0,.43q0,.5-.07,1l0,.26q0,.63-.09,1.26l0,.28-.06,1,0,.45,0,.79,0,.47,0,.76,0,.48,0,.76,0,.45q0,.47,0,.93v.25q0,.58,0,1.15v.37l0,.77,0,.44,0,.69v.43l0,.67v.43l0,.64v.41q0,.46,0,.91v.08q0,.5,0,1v.39c0,.19,0,.39,0,.58v.35q0,.3,0,.6v.32c0,.18,0,.35,0,.52v.35c0,.2,0,.39,0,.58v.2c0,.54,0,1.05,0,1.53v.05c0,.16,0,.32,0,.48a16.75,16.75,0,0,1-1.3,6.44l-.1.24-.17.41-.23.56-.2.49-.26.63-.21.52-.3.74-.22.54-.32.8-.24.6-.34.87-.26.66-.38,1-.25.64-.41,1.08-.26.67-.43,1.15-.26.69q-.71,1.89-1.48,4l-.19.52-.58,1.6-.3.84-.5,1.4-.32.9-.5,1.41-.35,1-.48,1.4-.37,1.09-.47,1.4-.38,1.15L239.2,143l-.39,1.19-.47,1.46-.4,1.24-.48,1.51-.39,1.25-.49,1.56-.4,1.29-.49,1.59-.4,1.33-.48,1.63-.4,1.35-.49,1.68-.4,1.38-.49,1.72-.39,1.38-.5,1.82-.37,1.35-.51,1.94-.34,1.3c-.18.7-.36,1.41-.54,2.11l-.3,1.17q-.38,1.49-.75,3l-.08.32q-.41,1.69-.82,3.4l-.22.94c-.19.82-.38,1.65-.57,2.48l-.3,1.33c-.16.71-.32,1.42-.47,2.14l-.31,1.46c-.15.69-.29,1.37-.44,2.07l-.31,1.51c-.14.68-.28,1.36-.41,2l-.31,1.58q-.2,1-.39,2l-.3,1.61q-.18,1-.37,2-.15.82-.29,1.65-.17,1-.34,2l-.28,1.68q-.16,1-.32,2-.13.85-.26,1.69-.15,1-.3,2-.12.85-.24,1.71-.14,1-.28,2-.11.85-.22,1.7-.13,1-.25,2.06-.1.85-.2,1.71-.12,1-.23,2.08c-.06.57-.12,1.13-.18,1.7s-.14,1.41-.21,2.12-.11,1.12-.16,1.67c-.06.72-.12,1.44-.18,2.16,0,.55-.09,1.09-.13,1.64-.06.74-.1,1.49-.15,2.23,0,.53-.07,1.05-.11,1.58,0,.8-.09,1.6-.13,2.4,0,.47-.05.94-.07,1.41,0,1-.08,1.95-.11,2.92,0,.3,0,.6,0,.9q-.06,1.91-.09,3.81c0,.34,0,.67,0,1,0,.93,0,1.87,0,2.8,0,.48,0,1,0,1.43,0,.79,0,1.58,0,2.37,0,.52,0,1,0,1.57,0,.75,0,1.49.06,2.23,0,.55,0,1.09.07,1.63,0,.72.06,1.44.1,2.15,0,.56.07,1.12.1,1.68s.09,1.4.14,2.1.09,1.13.14,1.7.12,1.38.18,2.06.11,1.14.17,1.71.14,1.36.22,2,.14,1.14.21,1.71.17,1.35.26,2,.16,1.13.24,1.7.2,1.34.31,2,.18,1.13.28,1.69.23,1.33.36,2,.21,1.11.32,1.67.27,1.32.4,2c.07.35.14.7.22,1.05,0,0-113.31,19-156.87,77.45a11.09,11.09,0,0,0,2.51,15.68c20.61,14.54,89.88,64.15,208.12,49.46a16,16,0,0,0,3.21-1.17l-.2.21c-12.89,8.7-26,19.85-30.21,31.25l-.08.23c-.11.3-.21.59-.3.89l-.08.28a22.16,22.16,0,0,0-.63,2.64c0,.17-.06.34-.09.51s-.06.44-.08.65,0,.4-.06.61,0,.4,0,.6,0,.51,0,.76,0,.3,0,.45c0,.39,0,.79.06,1.18,0,.14,0,.28,0,.42s.06.56.11.84,0,.3.08.45.11.57.18.85c0,.13.06.26.09.39.11.41.22.82.36,1.23a11.36,11.36,0,0,0,6,6.65,14.39,14.39,0,0,0,8.83.84,16.83,16.83,0,0,0,2.26-.63q.56-.2,1.1-.44a16.65,16.65,0,0,0,4.06-2.52q.46-.39.9-.82a15.4,15.4,0,0,0,4.5-9.08H277c.15,0,.41-.05.76-.12l1,29.68a30,30,0,0,0-3.2-1.54c-.74-.19-12.47,6.14-10.24,7.44s14,.56,15.07.19a.81.81,0,0,0,.44-.57,1.5,1.5,0,0,0,1.06-1.48l-1.15-34.57c.38-.14.77-.3,1.19-.49s.87-.4,1.32-.65l.19-.1,16.69-4.47a1.5,1.5,0,0,0-.78-2.9l-9.74,2.61a32.87,32.87,0,0,0,5.46-7.74s2.24-.86,5.44-2.41l.26,0,.21,0c.22,0,.44-.08.66-.14h0l.62-.19.19-.07.43-.17.21-.09.4-.19.2-.1.4-.23.17-.1.46-.3.08-.06c.37-.26.73-.53,1.07-.82l0,0,.45-.4.06-.06.41-.39h0l.22-.13-.14.2-.12.18-.33.49,0,.07-.37.57-.11.17-.3.49-.08.12-.35.6-.09.16-.28.5-.08.15-.32.62-.06.13-.24.52-.07.15c-.09.21-.18.41-.26.62l0,.09q-.1.27-.19.53l-.05.15c-.07.2-.13.4-.18.59v0c0,.19-.09.37-.12.55l0,.14c0,.17-.05.34-.07.5v.05a4.79,4.79,0,0,0,0,.51s0,.08,0,.13a3.64,3.64,0,0,0,0,.41V460a2.88,2.88,0,0,0,.13.44l0,.1a2.45,2.45,0,0,0,.17.33l.05.09a2.35,2.35,0,0,0,.28.35l.07.06a2.56,2.56,0,0,0,.31.25l.1.07a3.17,3.17,0,0,0,.46.24l.07,0a4.32,4.32,0,0,0,.49.16l.16,0a6,6,0,0,0,.67.11,44.42,44.42,0,0,0,27-5.47,45.06,45.06,0,0,1-5.79,3.3,121.51,121.51,0,0,1-17.57,5.22,1.5,1.5,0,0,0-.83.12l-.33.15c-1.76.4-3.62.81-5.63,1.23-7.69,1.71-6.64,7.34-.32,10.2l3.83,23c-3.52-.51-10.57-1-9.45,3.5,3.91,8.37,19.35.19,19.35.19L314.66,501l-4.93-.6L306,478.05a24.11,24.11,0,0,0,6.12.6l-.62.1a40.54,40.54,0,0,0,7.46-.85c-.34,1.22-1.6,7.53,9.39,7.53l2,0,.64,0,1.32,0,.72,0,1.2-.07.68,0,1.34-.11L337,485l1.31-.15.74-.1.84-.12.78-.13.72-.14.79-.16.62-.14q.8-.19,1.55-.4l.43-.12.8-.26.47-.16.78-.29.42-.17.77-.33.28-.13c.61-.28,1.2-.58,1.76-.91h0a14.09,14.09,0,0,0-1.46,1.38l0,0-.23.28-.06.08-.17.23-.06.1-.12.21,0,.1a1.91,1.91,0,0,0-.08.2l0,.09a1.19,1.19,0,0,0,0,.23v0a.82.82,0,0,0,0,.25l0,.06a.72.72,0,0,0,.08.16l.06.07.13.12.1.07.18.1.14.06.24.08.17,0,.34.06.18,0,.62,0a13.06,13.06,0,0,0,4-.69,1.5,1.5,0,0,0-1,1.53L354.24,502c-.68.79-2.44,3.16-.13,4.39,2.79,1.49,17.68-.93,16.19-3.54s-12.84-5.21-12.84-3.54a1.52,1.52,0,0,1-.35.94L356,486a1.5,1.5,0,0,0-1.61-1.38l-.26,0a45.26,45.26,0,0,0,11.16-5.59c1.21-.81,2.42-1.69,3.6-2.63.79-.63,1.57-1.28,2.33-2,1.14-1,2.24-2.09,3.27-3.22q1-1.13,2-2.32a28.45,28.45,0,0,0,4.92-9h0l.39-1.29a41.5,41.5,0,0,0,14.8,2.67c10.74,0,20.31-3.94,26.55-10.08,3,6.91,5,15.6,1.27,23.31a26.09,26.09,0,0,1-10.88,11.82,1,1,0,0,1-1,0c-3-1.69-9.88-6.45-7.58-14.18,1.21-4,3.22-6.31,5.4-6.08a3.18,3.18,0,0,1,1.25.43c-1.89,1.8-3.1,6.28-2.07,8.35a2.4,2.4,0,0,0,2.91,1.23c2.07-.57,4.14-3.5,3.86-7.25a6.44,6.44,0,0,0-5.63-5.74c-1.79-.19-6.21.22-8.6,8.2-3,10.08,6.13,16.06,9,17.66a4,4,0,0,0,3.88,0,29.14,29.14,0,0,0,12.17-13.17c3.55-7.31,3-16.42-1.44-26.36l-.32-.69.35-.43a24.13,24.13,0,0,0,3.86-7.23q.21-.64.38-1.3a21.59,21.59,0,0,0,.69-5.42h0c0-.48,0-1,0-1.42,0-.11,0-.23,0-.34s0-.22,0-.33c.72-8.76-5-19.95-12.61-23.63l-.43-.21c5.29-1.26,11.84-3.24,14.07-5.66,4-4.33-3.68-7.82-4.79-4.51-1,3,1.75,3.31,1.75,3.31s-4.93,3.32-14.7,6a5.86,5.86,0,0,0-2.57.57c-.1,0-.19.12-.29.17-.9.21-1.81.42-2.78.62l.55.29a41.85,41.85,0,0,0-11-1.74c1.55-3,12-22.66,32.93-42.37,20.62-19.46,55.82-42.86,106.76-44.61a3.92,3.92,0,0,0,3.75,1.58,23.83,23.83,0,0,0,6.19-1.88c4.13-1.85,10.54.14,9.45-5C555.58,309.81,542.84,316,538.91,318.5ZM413.25,469.13a4.84,4.84,0,0,1-1.18,3.78A9.12,9.12,0,0,1,413.25,469.13ZM280.14,432.7l.24-.11-.33.22Z"/><path class="cls-1" d="M94.26,223c1.27-.32,1.2-2.6,2-3.27,1.4-1.12.13-2.71-1.4-2.15,0,0-3.3,1.67-2.92,3.35S93,223.27,94.26,223Z"/></svg>