<svg id="Layer_2" data-name="Layer 2" xmlns="http://www.w3.org/2000/svg" width="600" height="589" viewBox="0 0 600 589"><defs><style>.cls-1{fill:#38667d;}</style></defs><title>premio_leccion_4_4_block</title><path class="cls-1" d="M276.11,191.7l9.16,3.44-.24.09c-31,11.7-32,22.31-28.89,22,3-.29,12.63-3.15,13.57-3.42-1.72,1.16-30.8,20.55-27.48,32,5-3.4,12.6-10,12.33-7.6-.1.9-6.49,8.8-15.24,18.9v-.27l-11,12.6,0,.1C216,283.25,202.26,297.47,194.7,303c-16,11.83-36.24,34.66-34.94,41.49,0,0,3.13-4.71,6.55-6-.1.25-1,2.43-2.41,5.94C145,360.31,112.48,389.77,108,407.75c0,0,7-7.72,10.57-7.9,0,0-.24.78-.62,2.16l-.09.32c-.39,1.43-.89,3.41-1.42,5.83l-.11.52c-.54,2.49-1.09,5.39-1.56,8.56a110,110,0,0,0-1.24,15.08,74.38,74.38,0,0,0,.78,11.78l1.48-5.58L118.62,428s.24,1.79.63,4.46l.28,1.9c.25,1.68.53,3.57.83,5.52.12.78.24,1.57.37,2.36s.25,1.58.38,2.35c.19,1.17.39,2.31.58,3.39s.38,2.11.57,3.05a40.43,40.43,0,0,0,1,4.28c1.58,4.73-22.06,48.84-21,63l.34-.29.58-.48c.71-.58,1.8-1.45,3.15-2.48l1.44-1.07.78-.56,1.67-1.16a60.61,60.61,0,0,1,11.63-6.43,25.5,25.5,0,0,1,3.64-1.13c0,.41.07.65.07.65l.13-.7.07,0c.18,0,.34-.1.51-.14.63,11.92,1.57,27.56-.38,37.07a6.42,6.42,0,0,0-.11.83c-.85,11.41,33.45,4,37.85-1.55a1.61,1.61,0,0,0,.43-1.38c-1.19-4.71-8.1-7.95-8.34-17.89a27.35,27.35,0,0,1,.63-6.26c2.71-12.93,2.84-23,9-30.48a23.27,23.27,0,0,1,3.58-3.47c9.75-7.66,24.33-11.86,24.51-11.91l-.23.37c-1,1.54-4.84,7.58-8.42,12.17a38.67,38.67,0,0,1-4,4.44.11.11,0,0,0,.12.19c.55-.27,1.4-.73,2.53-1.44l.33-.21.35-.22.61-.41.13-.09a67.38,67.38,0,0,0,5.73-4.41l.1-.09.91-.79.28-.24.78-.7.46-.42.58-.54.72-.67.32-.31,1-1,0,0a153.89,153.89,0,0,0,13.91-15.9c2.69,4.55,4.8,9.67,4.8,14.5v16.46a57.75,57.75,0,0,0,2.28-8.93s3.5,16.81,1.93,20.83c0,0,3.5-6.13,3.15-9.63-.19-1.91,1,5.41,2.07,12.54.91,5.93,1.78,11.73,1.78,12,0,.53,3.85,4.9,15.93,1.4s13.13-8.93,11.55-11-9.45-7.18-10.33-16.46S242,463.4,242,463.4s24.68-16.46,28.19-25.56c2.66-6.93,13.74-31.89,19.73-45.9,3.08-1,6.09-1.88,9-2.74.58,42.22-5,42.92-4.36,44.13,2.18,4.36,5.46,4,7.26,3.42a5,5,0,0,1,1.14,1c1.63,4.92,3.42,6.93,4.69,7.75a2.05,2.05,0,0,0,1.65.54h.1c1.64-.3,7.74-1,14.11-1.91-12,2.65-20.66,5.06-22.16,6.77-6.3,16.07-21,27.52-21,27.52-.57,10.6-6.77,30.47-12.29,46.34a12.41,12.41,0,0,0-6.16-2,10.13,10.13,0,0,1,5.24,4.6c-.51,1.45-1,2.85-1.5,4.2-8-6.35-18.23-5.72-17.33-5.43,3.81,1.23,16.28,18.43,11,14.75S221,532,235.67,537.31s20.38,12,20.38,12h22.87l47.61,2.12,9-.51c1.4,12.42,5,17.32,5,17.32h22.22a45.33,45.33,0,0,1-.59-18.81l105.43-5.93c-.9,1.84-1.39,2.91-1.39,2.91l26.26-.33c-10.5-21.12,13.66-44,14.19-52.74-8.6,1.4-18.63,14.49-26.55,27.32-1.45-6.53-2.8-12.9-3.4-16.49-1.58-9.45-4.73-13.66-17.33-22.06s.53-28.36-4.2-31.19c-10-2.31-33.61-28.15-39.92-25-1.76.88-11,2.73-23.49,5.07-2.36-14.7,3.91-23.84-.85-19.71-7.59,6.59-10.5,11-12,15-2.23-14.67-3.6-25.79-4.76-32.51a141.39,141.39,0,0,1,4.19-26.11c6.67-26.38,22.25-64.56,23.82-91.15C412.43,256.13,418.91,244,422,238.23h0c1.47-2.71,2.2-4,2.2-4q1-1.41,2-2.74l.08-.1.5-.63c1-.73,1.52-1.17,1.52-1.17a6.72,6.72,0,0,0,.4-1.11c2.84-1.79,5.4-3.51,7.53-5,8.14-5.78,67-34.14,70.11-36.76a2.35,2.35,0,0,0,.27-.29h0c.81-1,1.16-2.81,1.51-4.33,2.88-1.27,4.77-3.43,5.2-5.14a9.42,9.42,0,0,0,.36-1.27c.45-2.11,2.38-9.88,3.69-16.74,3.7-2.29,4.75-7.23,4.52-19.37,0-5.33-6.39-5.46-11.55-5.38l-38.33-18.82c-.75-.42-5.92-3.34-7.75-4.32a13.08,13.08,0,0,0,1.49-5.78,10.65,10.65,0,0,0-1-4.55,11.62,11.62,0,0,0-.88-1.59,14.06,14.06,0,0,0-2-2.39A22.55,22.55,0,0,0,456.43,93C441.28,85.35,420.28,80.1,411,78.78c0,0-.92-3.68-7-4.2-18.34-6.19-17.12-37.57-16.3-47.13a1.56,1.56,0,0,0-2.25-1.52c-14.82,7.69-23.32,19.62-28.2,30.59q-1-.63-2-1.2c-11.2-6-31.6-17.51-31.6-16.46s-2,2-5.12-.07-14-6.37-15.23-6.24c-.92.1,7.18,8.11,11.85,22.91l0,.09c.17.53.33,1.08.49,1.63l.06.2c.15.52.29,1,.42,1.58l.08.32c.13.5.24,1,.36,1.52l.1.43c.11.49.21,1,.31,1.49,0,.17.07.34.1.51.09.49.18,1,.26,1.48,0,.19.07.38.1.58.08.51.15,1,.22,1.54,0,.19.06.38.08.57q.13,1.07.24,2.17s-7.09-1.31-11.82-5.38S313.4,81,308.67,101c-.13.62.67,3,2,6,4,9.28,12.79,25.42,15.68,23.06l3.15-2.28s-2.69,7.06-5.39,15.48q-.34,1.06-.68,2.15c-.51,1.65-1,3.33-1.5,5-1.92,6.68-3.41,13.24-3.28,17.11a30.67,30.67,0,0,0,1.93-2.5c.59-.82,1.33-1.89,2.21-3.23-.21.55-.41,1.14-.62,1.78-.36.68-.77,1.41-1.22,2.19l-.38.44L301,181.76l4.28,2-.27.22Zm23.36,228A164.09,164.09,0,0,0,301,388.63l.23-.07C301.68,397.73,301.92,411.85,299.47,419.74Zm40.65,20.54,11.27-2c1.83-.33,3.62-.62,5.34-.89,0,0,0,.08,0,.12-6.07,1.14-12.12,2.3-17.87,3.45A5.55,5.55,0,0,0,340.11,440.28Zm9.05,119.58q-1.32-5.1-2.48-9.54l9.31-.52C352.13,553.85,350.27,557,349.16,559.87Zm21.32-124.92,1.25-.27H372Z"/></svg>