<svg id="Layer_2" data-name="Layer 2" xmlns="http://www.w3.org/2000/svg" width="600" height="589" viewBox="0 0 600 589"><defs><style>.cls-1{fill:#38667d;}</style></defs><title>premio_leccion_3_1_block</title><path class="cls-1" d="M546.48,314.76s-6.76-6-14.3-7.59C521.38,241.32,493.55,141,388.65,127.66a167.93,167.93,0,0,0-6.49-23.3C384.83,76.3,375.48,75,375.48,75c-71.32,11.33-101.07,47.11-113,80.11-25.74,14.94-46.67,33.32-62,49.22,1.87-3.21,3.79-6.61,5.78-10.26,22.79-41.86,4.65-67.91,1.4-90.71S202.53,71.24,183,68.45c-18.87-2.7-19.52,2.86-42.61,29.67l-.38.44L137.87,101c-.69.79-1.36,1.57-2,2.33l-.77.91-1,1.21c-20.88,25.12-20.2,36.17-23.32,66.74q-.16,1.58-.34,3.23c-.11,1-.2,2.07-.27,3.09,0,.3,0,.6-.05.9,0,.71-.08,1.42-.11,2.12,0,.31,0,.62,0,.93,0,.68,0,1.36,0,2,0,.27,0,.54,0,.81,0,.71,0,1.42,0,2.11,0,.2,0,.4,0,.6q0,1.18.12,2.33l0,.27c1.51,22.08,10.67,35.23,3.26,46.7l.16-.11a22.38,22.38,0,0,1-3.6,4.28c-7.08,6.66-14.52,17.32-20.59,27.07A163.11,163.11,0,0,0,54.5,315.44l-.15.31q-.71,1.47-1.38,3l-.22.49q-.63,1.41-1.22,2.83l-.24.56-.1.23a63.58,63.58,0,0,0-7.69,12.73c-9.3,19.2-8.61,28-.86,33.32.79,10.83,4.38,21.64,10.16,32q.64,1.14,1.31,2.28A119.24,119.24,0,0,0,69.45,423.4q2,2.16,4.14,4.26l0,0c17.37,17.14,40.49,31.25,65.34,39.41-.74,4.19-1.49,8.63-2.19,13.1l0,.26q-.39,2.52-.76,5l-.06.44q-.15,1-.29,2.06l-.07.48q-.16,1.19-.32,2.36l-.06.44q-.12,1-.24,1.89l-.08.69q-.12,1-.24,2l0,.31q-.12,1.08-.23,2.13l-.07.71q-.08.8-.16,1.59l-.06.61q-.09,1-.17,2c0,.21,0,.41,0,.62q-.06.73-.11,1.44c0,.23,0,.45,0,.68,0,.62-.08,1.23-.11,1.83,0,.13,0,.26,0,.39q0,.76-.06,1.49c0,.21,0,.42,0,.63q0,.66,0,1.3c0,.15,0,.3,0,.45,0,.54,0,1.06,0,1.57,0,.16,0,.32,0,.48q0,.57,0,1.1c0,.15,0,.31,0,.46,0,.47.06.92.1,1.35,0,.09,0,.18,0,.27q.06.52.13,1l.06.37c.05.33.11.65.18.95l0,.17c.08.34.17.65.26.94l.09.24q.12.33.26.62l.09.19a4.1,4.1,0,0,0,.39.62l.09.1a2.51,2.51,0,0,0,.37.36l.13.1a1.83,1.83,0,0,0,.52.25,82.79,82.79,0,0,0,10.06,1.92l.37,0c1,.13,2,.25,3.08.36l1.68.16a60.7,60.7,0,0,0,16.62-.54q.74-.15,1.44-.34c4.66-1.24,8-3.57,8.57-7.57a113.56,113.56,0,0,1,6.72-25.41c3-7.44,7-14.21,12-17.65a124.27,124.27,0,0,0,26.49-5.33,10.2,10.2,0,0,1,4.62,2.61,12.41,12.41,0,0,1,.85.92,21,21,0,0,1,3.62,7q.3.91.58,1.92a59.9,59.9,0,0,1,1.44,7c4.11,27.1,1.9,37.6,21.49,35.32l1-.12,1.45-.2c21.68-3.34,22.19-6.68,31-30.72l.63-1.71c.25-.69.52-1.4.81-2.13q.64-1.63,1.39-3.39c1-2.36,2.16-4.86,3.45-7.47,10.13-20.59,28.53-48,50-63a24.56,24.56,0,0,1,2.88,11.65c0,18.05,8.5,27.61,21.77,11.68,7.24-8.68,8.78-23,6.64-35.34,32.72-5.94,65.13-6.27,94-1.59,3,.49,6.09.86,9.23,1.1,2.55.19,5.13.3,7.71.29h0a78.32,78.32,0,0,0,15.08-1.42q0,.92,0,1.85,0,.74.05,1.48c.13,3.4.38,6.83.8,9.82a23.47,23.47,0,0,0,2,7.36,41.42,41.42,0,0,1,2.09,4.95c.62,1.66,1.29,3.56,2,5.58.36,1,.74,2.05,1.14,3.11l.6,1.6c.53,1.39,1.09,2.79,1.68,4.18l.5,1.17c2.48,5.69,5.46,11.07,9.09,14.15l.34.28a9.66,9.66,0,0,0,6.59,2.38h0a70,70,0,0,0,7.75-.73c1-.16,1.87-.35,2.73-.57,6.25-1.66,9.52-5.33,10.9-14.06C553.16,431,569.19,325.45,546.48,314.76Z"/></svg>