<svg id="Layer_2" data-name="Layer 2" xmlns="http://www.w3.org/2000/svg" width="600" height="589" viewBox="0 0 600 589"><defs><style>.cls-1{fill:#38667d;}</style></defs><title>premio_leccion_4_2_block</title><path class="cls-1" d="M587.1,519.47c-6.1-2.54-23.63-34.29-34.33-64,0,0,10.51,4.77,7.57,2-2.13-2-11.31-12.84-12.22-19.52-2.49-18.26-6-28.73-4-43,5.85-42,2.88-56.37,2.88-56.37a99.51,99.51,0,0,1,15,28.59c-1-58.24-70.8-130.85-92.31-153.26s-43-23.3-43-23.3l-66,.45H296.65l-7.47-3.36-21.3-16.44.13.31-33-25.33c-.09-.66-.19-1.31-.26-2q-.16-2.92-.41-5.87s7.81-5.41,4.8-31.23l10.81-30.63s-.6-12.61-22.82-55.25c0,0-8.91,13-16.93,25.36-5.22,8-7.75,11.29-10.58,17.19a22.32,22.32,0,0,0-1.86,4,131.41,131.41,0,0,1,5-17.36,48.84,48.84,0,0,1,3.84-7.15,6.11,6.11,0,0,1,.61-.59l-.65.49h0l-.25.2-.37.29-.21.17c-7.53,5.89-30.15,25.91-30.66,55.11l-17.11-.66s2-42.13,5.27-50.68c0,0-5.92,5.27-6.58,10.2,0,0-7.57-9.54-1-37.85,0,0-12.55,10.41-26.42,30.33l0,.06q-.75,1.08-1.51,2.2l1-5.92s-15.47,9.54-17.44,43.11l-16.46,33.9s-28.3,31.6-26,37.85A40.8,40.8,0,0,1,71,173.69s-5.16,19.26-13.59,36C47.69,226,37.59,233.13,37.59,233.13c2.22,1.23,5.05.91,7.49.19a20.32,20.32,0,0,0,10.43-5.07s-14.32,34.11-32.85,47.58c0,0-1,4,4.88,3.35a19.84,19.84,0,0,1,4.15.2c-.78.23-1,.45,0,.61a71.64,71.64,0,0,0,7.63.7c8.54,1.75,18.13,4.34,18.13,4.34a5.11,5.11,0,0,0-.63-.94l.6.31.42.22.66.38.33.19c.31.19.62.39.9.59L47,297.93l7.21-.22c11.78.5,37-1.13,37-1.13s8.06-6.64,14-7.33l-.63,19.82c-.49-5.37-1-10.39-1-10.39l-.65,42.25s11.05,5.85,18.2,7.8,21.45.65,27.67.14a6.89,6.89,0,0,0,2.41.07c4,.58,4.66,3.5,6.32,2.39,2-1.3,3.25-6.5,16.25-26a118.11,118.11,0,0,1,12.84-15.57l.94-.3q1,2.78,2.22,5.42a23.32,23.32,0,0,0,1.8,3.86q1.39,2.82,2.9,5.48a14.7,14.7,0,0,0-5.74,3.7c-4.55,5.2-26,44.82-30.47,52s-5.11,29.78-5.11,29.78,6-6.92,7.22-9.93-7.22,20.15,4.21,48.43c0,0,0-6.62,1.8-8.72,0,0-5.11,18.35,23.76,33.39,7.52,2.11,12.93-9.63,15.94-26.17,0,0-14.07-10.62-14.16-32.44,0-.43-.2-2.88-.44-2.53-.92,1.35-3.18,3.5-4.17,2.11-1.5-2.11,1.62-14.67,1.62-14.67a81.81,81.81,0,0,0,19.88-2c14.36-3,24.61,2.44,22.59.37-4.77-4.9,1.16-5.83,7-7.94,12.87-4.61,25.11-5.49,34.27-5.83a96.11,96.11,0,0,0,9.28,11c6.18,5.85,14.3,15,14.3,15a153,153,0,0,0-4.88,15.93c-1.63,7.15-10.73,50.38-10.73,50.38a3.76,3.76,0,0,0,1.34,1l-.58,2.49a.69.69,0,0,0-.07.17,1,1,0,0,0,0,.12c-.08.48,0,1.55,2,3.12l.39.3c.28.21.59.42.93.64q.9.58,2.13,1.22l.75.38.83.4,1.29.58,1.09.49.26.12.86.42.15.07c.71.35,1.39.71,2.06,1.07h0c7.24,3.84,12.51,7.21,26.35-.44a49.35,49.35,0,0,1,16-2.17l6.5-13.87s-10-12.13-22.53-9.1c0,0,15.47-25.09,27-42.66,16.22,26.7,35.58,56.06,44.95,60.86,0,0-20.8,62-15.6,66.3s20.8,17.77,25.57,10c3.28-5.37,17.85-30.85,26.05-48.77,5.67.28,10.41-1.12,11.37-5.57,3-19.56,50.58-77.55,43.83-76.2S457,414.94,455,412.91s12.26-22.18,23.68-35.58c15-17.55,24.2-41,24.21-41,3.12,6.83,4.36,14.48,4.36,22.57a92.59,92.59,0,0,1-.49,9.27,163.08,163.08,0,0,1-4.1,22.41q-.4,1.61-.82,3.23c-3.61,14-8.22,27.72-11.09,39.63-3.1,12.83-1.16,22.76,1.74,29.14a27.74,27.74,0,0,0,2,3.6c2,3.1,4.07,4.68,5.08,4.55.68-.08.89-.92.32-2.56a19.68,19.68,0,0,1-.93-4.15q-.1-.83-.13-1.65,0-.41,0-.81a28.45,28.45,0,0,1,.23-3.89q0-.37.1-.73.11-.72.24-1.39.06-.33.13-.66c.09-.43.19-.84.28-1.23.15-.58.3-1.12.44-1.6s.21-.68.31-1l.18-.53c.24-.67.4-1.06.4-1.06h0c.11,1,.25,1.94.39,2.9,0,.28.09.55.13.82q.18,1.09.38,2.15c0,.25.09.49.14.74q.28,1.38.59,2.73l.08.32q.29,1.2.61,2.36l.2.72q.31,1.07.64,2.11l.16.5q.42,1.29.88,2.54l.14.36q.4,1.07.84,2.12l.23.56q.47,1.11,1,2.19l.08.17q.56,1.21,1.17,2.37l.16.31q.53,1,1.08,2l.22.38q1.28,2.25,2.7,4.35l.17.24q.66,1,1.34,1.9l.14.2q1.51,2.06,3.14,4l.14.16q.8.94,1.62,1.84l0,0q1.71,1.88,3.52,3.61l.11.1q2.71,2.59,5.58,4.87l.1.08q1.93,1.53,3.91,2.92h0q1,.68,1.95,1.33l.1.07q2,1.31,4,2.5l.19.11,1.83,1.05.18.1q1.94,1.09,3.89,2.07l.42.21,1.57.77.37.18,1.83.85.52.23,1.29.56.75.32,1.09.45,1,.39,1.33.52,1.06.4.61.22,1.16.42.22.08C576.81,521.68,591.91,521.47,587.1,519.47ZM419.55,469.68c-1-5.1-3-18.42-2.33-37.51l.5.47c8,7.32,17.37,14.34,17.37,14.34C433,447,426.13,457.84,419.55,469.68Z"/></svg>