<svg id="Layer_1" data-name="Layer 1" xmlns="http://www.w3.org/2000/svg" width="600" height="589" viewBox="0 0 600 589"><defs><style>.cls-1{opacity:0.22;}.cls-2{fill:#e88b00;}.cls-3{fill:#ffbc3a;}.cls-4{fill:#f39e19;}.cls-5{fill:#f7a200;}.cls-6{fill:#ffe7b8;}.cls-7{fill:#f7d088;}.cls-8{fill:#fff;}.cls-9{fill:#9d6000;}</style></defs><title>premio1-3</title><polygon class="cls-1" points="431.16 461.88 447.41 455.92 475.93 456.77 474.65 464.44 449.07 467 431.16 461.88"/><polygon class="cls-1" points="66.55 417.11 281.48 420.94 406.85 420.94 484.89 428.62 486.17 440.13 394.06 451.65 153.55 451.65 76.79 452.93 43.53 445.25 37.13 428.62 66.55 417.11"/><path class="cls-2" d="M174.72,165c-15.86,10.57-81.16,47.76-98.94,95.35S119,345.39,126.72,357.4s24.51,56.23,24.51,56.23,3.85,20.67,27.4,14.9S193,397.78,193,397.78s-13.94-54.31-38-81.71c0,0-7.69-7.69.48-13s37,34.13,37,34.13,25.22,24.22,25.81,39.56,29.5,56,29.5,56,21.83,8.26,38.35,0l-14.16-14.16-12.39-39.53s8.26-2.36.59-46Z"/><path class="cls-3" d="M460.86,173.82s-51.92-30.09-70.8-41.3-60.77-4.13-113.87,13-68.44,2.36-83.19,10.62-61.36,21.83-70.8,79.65-8.26,89.09-20.06,106.2-28.32,75.52-23.6,106.79L111,444.62l-.59-8.85,7.67,8.85,16.52-1.77-8.26-12.39s2.95-53.69,11.8-56.64,34.81-23,51.33-57.23,19.47-24.78,19.47-24.78,27.14,51.92,90.27,42.48c44.25-4.13,33-5.9,33-5.9s67.85,48.38,80.83,69.62,16.52,59,53.1,55.46c8.26-2.36,4.13-21.24-.59-56.64s-10.62-40.71-31.86-69S433.72,174.41,460.86,173.82Z"/><path class="cls-2" d="M324,327.19S304.22,408,313.72,430.92l49.88-2.38s-6.33-14.25-11.88-15.84c0,0,9.5-47.51,22.17-56.22C373.9,356.49,338.27,318.48,324,327.19Z"/><path class="cls-4" d="M443.39,408.2l3.08-6.92-6.92-10a159.93,159.93,0,0,1-33.09-50.78c-12.31-30.78-23.08-16.93-40-50.78s-25.39-54.63-50-23.85c0,0-4.62,10.77-72.33-18.47-34.62-15.39-40.78-46.17-56.94-32.32-11.07,9.49,6.76,50.77,19.08,75.82,2.1-.94,2.69.92,2.69.92s27.14,51.92,90.27,42.48c27.1-2.53,33.39-4.17,34.2-5.07,8.86,6.38,67.67,49.16,79.67,68.79s16,53.5,45.56,55.57C451.38,446.86,444.44,433.75,443.39,408.2Z"/><path class="cls-5" d="M136.36,235.08c-9.21-4.62-6.17-15.85-5.75-26.6a99.88,99.88,0,0,0-8.4,27.29c-9.44,57.82-8.26,89.09-20.06,106.2s-28.32,75.52-23.6,106.79l24.77-3.15c-3.45-16-.79-36.63,6.8-59.71,10.87-30,21.59-2.31,33.9-39.24S187.17,272.78,136.36,235.08Z"/><path class="cls-2" d="M175.8,290.05s12.79-14.07,23-10.66,11.94,10.23,13.64,12.79,7.25,5.12,9.38,8.1,9.38,16.63,27.29,23.88,27.29,7.68,40.93,6.4,27.29-3.84,40.08-3c0,0-5.54-4.26-7.68-9s9,5.12,14.07,10.66S358.3,346.76,366,351s24.3,19.19,29.85,24.73,18.33,18.33,19.61,21.32,7.25,7.25,8.1,10.66,8.53,25.58,16.63,33.26,17.48,10.23,16.2,11.09-13.22-2.13-14.92-3.41S429.08,436.31,427.8,432s-7.68-18.33-9-21.32-15.35-22.17-18.76-25.58-24.3-21.75-31.55-26.86-30.27-20-35.39-25.58l-37.1,3s-24.3,1.71-32-.43-33.26-17.91-35.82-19.61-18.41-20.49-22-24.74-7.85-11.5-16.38-7.66S179.21,291.76,175.8,290.05Z"/><path class="cls-3" d="M420.29,180.14s48.48-10.08,101.77-12l14.88-16.32s4.32-8.16,16.32-6.72l10.56,1s7.2-1,3.36,17.28-13,54.72-13,54.72l13,14.4s6.72,5.76,3.36,13.44S556.62,268,555.66,319.83c0,0,2.4,13-13.44,26.88a8.32,8.32,0,0,0,0,11.52s3.84,3.84-8.64,7.2-37.92,4.8-37.92,4.8-20.16-4.8-55.2-39.36-15.84-29.76-57.6-63.36c-12-7.68-7.2-40.8-7.2-40.8s-25.92-9.12-30.24-27.84c-2.88-13,25-41.76,25-41.76s8.81-9.1,29.76,3.84C416.45,171,420.29,180.14,420.29,180.14Z"/><path class="cls-5" d="M358.83,217.45a69.45,69.45,0,0,0,16.81,9.25s-4.8,33.12,7.2,40.8c41.76,33.6,22.56,28.8,57.6,63.36s55.2,39.36,55.2,39.36,11.89-.67,23.41-2.17c-5.3-4.75-13-11.81-13-12.95,0-1.73,4-3.46,4-9.23,0,0-3.46,9.81-29.43,4,0,0-13.32-24.18,13-31.71,0,0,12.5-31.9,2.94-63.85,0,0,19.11-2.69,18.22-5.08S501.69,244.8,501.09,234c0,0,.3-10.45-5.67-7.47s5.85,24.29-16.25,28.47a5.38,5.38,0,0,1-2.58-.15c-9.29-2.86-18.91-6.19-23.58-7.83a6.47,6.47,0,0,1-4-4.18c-1-3.16-2-8-.59-11.27,2.31-5.19,2.89-6.35-11.54-17.31l7.5-12.12-33.47-13.27s-29.43-43.86-54.24,5.77c0,0,15-9.23,30-4.62,0,0,3,3.87-4.89,15.56-3.53,5.25.85,11.09.85,11.09S363.63,210.94,358.83,217.45Z"/><path class="cls-5" d="M357.87,171.09s-10.23,14.5-11.09,17.91-2.56,9.38.85,15.35,12.37,12.37,15.78,14.92,6.4,6,8.1,6.4,6.82,2.56,6.82,2.56-.43,6.4-9,3.84-19.61-16.2-24.3-23.45S337.19,193,357.87,171.09Z"/><path class="cls-6" d="M542.22,346.71a8.32,8.32,0,0,0,0,11.52s3.84,3.84-8.64,7.2a118.28,118.28,0,0,1-14.51,2.63c-5.3-4.75-13-11.82-13-12.95,0-1.73,4-3.46,4-9.23,0,0-3.46,9.81-29.43,4,0,0-9.65-17.52,3.69-27.38l1.63-1.06c5.55-3.56,16.2,2.28,22-.92s5.12-10.23,5.12-14.07,4.48-5.12,4.48-5.12l5.12,4.48,3.84,9,7-1.28,11.51,5.76a81.62,81.62,0,0,1,10.71,2.43C555.81,325.78,554.45,336,542.22,346.71Z"/><path class="cls-7" d="M519.06,368.06l-1.08.14-.75.09-.78.1-2.71.31-.77.09-1.54.16-3.33.32-.71.07-.64.06-.75.06-.67.06-3.17.26-.79.06-1.06.08-.49,0-.24,0-.68,0-.42,0h0l-.54,0-1.62.1h-.26l-.41,0s-20.16-4.8-55.2-39.36-15.84-29.76-57.61-63.37c-6.74-4.31-8.18-16.64-8.15-26.63,1.17-5.3,2.18-9.22,2.18-9.22L386,217.57l3.65,4.49-2.56,21.11,12.15,19.18,21.11,14.07s6.4,12.79,10.23,17.91,23,27.5,23,27.5l19.83,8.31s5.75-4.18,10.95-7.61c-13.35,9.86-3.69,27.38-3.69,27.38,26,5.77,29.43-4,29.43-4,0,5.77-4,7.5-4,9.23C506.1,356.24,513.76,363.31,519.06,368.06Z"/><path class="cls-8" d="M531,250.37l8.41,32s18.5-9.67,20.6-34.05C560,248.27,541.95,252.05,531,250.37Z"/><path class="cls-8" d="M445.71,256.86l-7.87,6.85s-3,2.54.25,6.85c2,2.58,4.5,6.53,6.2,9.29a11,11,0,0,0,5.57,4.55c4.85,1.78,13.3,4.17,17.67,4.44,15,.93,19.81-5.61,22.84-18.53l-2-13.71S476.68,261.17,445.71,256.86Z"/><path d="M464.65,258.8a21.09,21.09,0,0,0-.58,5c0,7.06,3.3,12.79,7.38,12.79s7.38-5.73,7.38-12.79a21,21,0,0,0-.65-5.26Z"/><path d="M542.29,250.69a18.25,18.25,0,0,0-.64,4.91c0,5.18,1.93,9.38,4.31,9.38s4.31-4.2,4.31-9.38a17.77,17.77,0,0,0-.79-5.41Z"/><path class="cls-9" d="M558.86,279.87s-10-.43-10,9.55,8.26,4.42,8.57.36S558.86,279.87,558.86,279.87Z"/><path class="cls-9" d="M513.37,338.44a6.83,6.83,0,0,0,7.82-.38l20-14.51s6.86,0,6.86-8.35c0-2.4-2.09-3.88-7.15-3.58s-43.22,2.68-54.85,9.84a3.51,3.51,0,0,0-.89,5.37c2.68,3.58,7.15,1.19,10.14,1.49C497.38,328.54,507.59,334.8,513.37,338.44Z"/><path class="cls-9" d="M488.71,358.57l26.54-19.28a4.78,4.78,0,0,1,4.51-.62c3.71,1.4,11.29,4.37,16.77,8.14a.22.22,0,0,1-.18.38l-16.88-3.57a2.4,2.4,0,0,0-1.77.31l-21.41,13.38a8.71,8.71,0,0,1-4.39,1.19Z"/><path class="cls-9" d="M424.34,269.91s-11.24-7.81-9.75,4.62,10.35,6.56,12.75,8.44c5.13,3.93,7.85-6.88,4-9.71A18,18,0,0,0,424.34,269.91Z"/><path class="cls-9" d="M464.62,295.64a9.24,9.24,0,0,0-2.74,2c-1.09,1-1.52.92-2.92,1.24-2.22.52-1.82,3.49-3.59,4.21-1.52.62-.54,3.15,1.09,2.84.75-.14,2.56.83,3,.86a3.8,3.8,0,0,0,2.51-1,12.32,12.32,0,0,1,4.38-2.36,8.62,8.62,0,0,0,3-1.11C473.36,299.37,468.51,294.16,464.62,295.64Z"/><path class="cls-9" d="M476.69,295.32a.61.61,0,0,0-1,.28l-.08.09c-.94,1.45-1.92,2.6-2.08,4.1,0,.39-1,.4-1.11.54a.53.53,0,0,0,0,.72l0,0,0,0,.1.07a.69.69,0,0,0,.3.2,2.37,2.37,0,0,0,2.06.13,2.93,2.93,0,0,0,.73-.38.58.58,0,0,0,.16-.12l0,0C477.4,299.71,478.09,296.88,476.69,295.32Z"/><path class="cls-9" d="M489.08,301.56c-1.43-.88-3.63,1.57-4.58,2.42a23.29,23.29,0,0,0-2.91,3.19c-.48.63-.94,1.42-1.82,1.59a1.87,1.87,0,0,1-.59,0,.63.63,0,0,0-.67-.22,4.28,4.28,0,0,0-3.25,3.61c-.14,1.1.1,2.64,1.52,2.5,1.14-.11,2.56-1.3,3.51-1.83,1.37-.75,2.74-1.49,4.1-2.27,2.1-1.21,4-2.62,4.88-5C489.66,304.57,490.33,302.34,489.08,301.56Z"/><path class="cls-9" d="M496.16,285.27a9.69,9.69,0,0,0-2-3,2.37,2.37,0,0,0-2.77-.29,18.16,18.16,0,0,0-1.74,2.17c-.79,1-1.64,2.05-2.39,3.13a8,8,0,0,0-.68,1.15,4.71,4.71,0,0,0-.57,1c-.49,1.26-.19,3,1.2,3.57a2.22,2.22,0,0,0,1.91-.21,9.53,9.53,0,0,0,1.6-1.2c.66-.53,1-1.07,1.11-.15a6.22,6.22,0,0,1-1.25,4c-3.09,3.25-.35,4.48.11,5a.65.65,0,0,0,.78.07c1.81-1,3.63-2.63,5.07-7.42C497.82,288.77,496.41,286.88,496.16,285.27Z"/><path class="cls-9" d="M455.2,294.74c-2.22-2.6-5-.78-7.7-2s-3.68-4.69-6.43-6a4.79,4.79,0,0,0-3-.36,22.31,22.31,0,0,1-2.2.5c-1.29.09-1.86-.53-2.89-1-1.76-.78-3.63-.14-4,1.91-.55,2.8,2.13,5.49,4.36,6.68a11,11,0,0,0,2.53.95,2.55,2.55,0,0,0,.69.15,14,14,0,0,0,1.53.2,11.06,11.06,0,0,0,1.44,0c1.81.43,3.88.27,5.4,1.48,2,1.62,2.72,4.56,5.5,5.23A4.79,4.79,0,0,0,455.2,294.74Z"/><path class="cls-9" d="M440.06,250s4.38.2,3.79-1.19.2-2.18-4.19-2.77-3.39-3.16-9.57-1.58-14,3-12.76,6.92,6,4.15,10.36,2.77S433.68,249.58,440.06,250Z"/><path class="cls-9" d="M466.33,219.69a3.63,3.63,0,0,0-1.45-3.82.56.56,0,0,0-.18-.45,7.52,7.52,0,0,0-6-2.31c-2.54.21-4.28,1.63-5.93,3.42-4,4.33-8.69,3.48-11.15,5.26-.52.37-1.46,1-1.51,1.72a2.1,2.1,0,0,0,.17.68,1.37,1.37,0,0,0,.47.47,1.88,1.88,0,0,1,0,2.48.65.65,0,0,0,.51,1c1.87.33,4.4-.57,7.75-3.54,2-1.81,6.06-.73,8.77-.74C461,223.84,465.42,223.58,466.33,219.69Z"/><path class="cls-9" d="M488.47,213.84a19.91,19.91,0,0,1-2.17-.47,3.93,3.93,0,0,1-2.09-2,.5.5,0,0,0-.13-.52c-1.3-1.44-4.27-1.47-6.24-1.47a6.84,6.84,0,0,0-3,.79,6.05,6.05,0,0,1-2.09.7,5.94,5.94,0,0,0-1.43.11c-1.61.73-.39,2.53.29,3.5,1.54,2.21,3.7,2,5.92,3.2,2.65,1.39,3.13,4.48,5.63,6,1.79,1.07,4.14,1.82,5.9.64C492.81,221.78,492.52,214.92,488.47,213.84Z"/><path class="cls-9" d="M489,240.81c-.53-2.79-3.06-5.89-5.14-6-3.37-.16-2.49-5.53-8.06-5.22-3.37.19-4.56,2.3-4.73,3.51-.58,4.06,7.42,3.36,6,9.42-1.21,5.31,2.67,6.4,5.31,3.13C484.43,243.12,489.69,244.68,489,240.81Z"/><path class="cls-9" d="M449.66,237.39c1.54-1.34,3.73-2.63,6.1-.62,3.82,3.24,8.09-1.82,8.71,2.73-.42,3.23-6.47,4.81-8.41,5.77a3.66,3.66,0,0,1-1.78.39c-1.68-.07-4.94-.49-5.4-2.81C448.65,239.5,448.79,238.14,449.66,237.39Z"/><path class="cls-9" d="M560.45,229c-1.5-1-2.61-2.92-4-2.89-2,0-3.65-.37-2.81,1.15,1.17,2.1,2,4.94,4.25,5.85.93.37,2.28.59,2.77-.54S561.32,229.64,560.45,229Z"/><path class="cls-9" d="M552.41,234.86c0-2.11-3.71-5.12-5.52-6.25s.25,1.8-2.88.16c-.63-.33-.28,1.06-.62,2.11-1.61,5,2,5.86,6.5,6.24A2.62,2.62,0,0,0,552.41,234.86Z"/><path class="cls-9" d="M532.48,211.69a3.33,3.33,0,0,0-2.27,1.53c-1.36,2.26,1.26,4.11,3,4.36,1.29.19,1.86-1,7.58-1.36,6.71-.37-2.63-17.81-5-9.09C535.1,209.65,534.49,211.32,532.48,211.69Z"/><path class="cls-9" d="M527.61,241.86s.8,8.86,7.22,9.42c5.78.5,4.08.3,28.66-3.22,0,0-9.23.05-13.29,1-10,2.25-13.14,0-14.89-.35a7.59,7.59,0,0,1-5.3-4.41C529.61,243.37,529.15,241.17,527.61,241.86Z"/><polygon class="cls-5" points="545.07 312.3 543.92 311.82 529.42 246.85 533.97 248.27 545.07 312.3"/><path class="cls-5" d="M493.66,318.21s12.5-31.9,2.94-63.85l.69-.1-5.84-.91s10.31,7.49,1.86,65Z"/><path class="cls-9" d="M504.77,240.91s-4,15.79-13.6,16.91c-28.69,3.33-58.76-1.35-58.76-1.35s49.6.22,55.24-1.82,11.25-7.2,11.7-8.78S502,240.09,504.77,240.91Z"/><path class="cls-9" d="M481.44,256.32s13.31.23,12.87-16.14c1.12-16.29,7.47-16,8.31-14.21s9.44,18.31-10,30A107.22,107.22,0,0,1,481.44,256.32Z"/><path class="cls-9" d="M552.27,249.19c3.12-.68-7.07.66-15.08-.64-2.66-.43-5.48-5.33-3.53-9.5,4.29-9.19-5.38-20.4-7.38-15.59-3.06,7.38-2.14,24.12,5.66,27C535.7,251.91,545.86,250.58,552.27,249.19Z"/><path class="cls-5" d="M548.81,157.49a1,1,0,0,1,.32.17C549.33,157.82,549.34,157.27,548.81,157.49Z"/><path class="cls-5" d="M537.26,181.37c-1.57-5.78,4.48-13.27,7.63-18.74,2.19-3.8,3.36-4.91,3.92-5.15-2.1-.7-6.06,5.73-5.53,4.4a8.51,8.51,0,0,0,.6-3.65.81.81,0,0,0-1.39-.53L533,167.25a.5.5,0,0,1-.83-.51s8.54-12.22,9.79-19.67a13.46,13.46,0,0,0-5,4.75l-14.88,16.32s-7.84,0-12,.82c.71,1,7.68,1.42,11.94,3.55,7.36,7,21.32,27.11,28.14,38.38,2.88,4.76-1.14,1.56,2.27,6.11,2.51,3.34,2-.43,2-.43Z"/><path class="cls-2" d="M375.64,226.7s-.29,1.53-2.42,1.53-14.39-10.78-14.39-10.78,8-2.44,11-2.44S380,217.57,380,217.57s2.56-.85,2.13-4.26-2.56-4.69.85-10.66a20.94,20.94,0,0,0,3-11.09c-3.84-2.13-19.19-1.71-22.6,0s-5.54,6.82-5.54,6.82-1.71-.85.85-7.68,14.07-18.33,18.33-18.76,17.48.43,18.33,1.71S406.9,186,406.9,186s-3.41,3.41-3.41,4.69,1.71,4.69-2.13,9S389.42,213.73,386,217.57s-4.69,6-4.69,7.68,1.71,3.84-.85,7.25-5.12,14.5-5.12,14.5"/></svg>