<svg id="Layer_1" data-name="Layer 1" xmlns="http://www.w3.org/2000/svg" width="600" height="589" viewBox="0 0 600 589"><defs><style>.cls-1{fill:#773819;}.cls-2{fill:#6e3317;}.cls-3{fill:#693216;}.cls-4{fill:#ffbc3a;}.cls-5{fill:#e88b00;}.cls-6{fill:#f7a200;}.cls-7{fill:#f39e19;}.cls-8{fill:#ffe7b8;}.cls-9{fill:#f7d088;}.cls-10{fill:#fff;}.cls-11{fill:#9d6000;}.cls-12{fill:#8c3a00;}.cls-13{fill:#debd7a;}</style></defs><title>premio_leccion_1_2</title><path class="cls-1" d="M41.64,448.3s1.87,11.41,12,22.26c5.19,5.57,6.27-1.8,24,13.48,26.41,22.81,27,1.27,43.8,4.87a133,133,0,0,0,45.09-26.2c40.81-22.81,15.6-1.2,193.24-12,0,0,73.22-4.8,108-40.81S517,286.46,465.37,276.16c-38.72-7.73-105.76-21.81-149-7.63-14.44,4.73-116.26,29.73-200.28,102.94C116.06,371.48,48.84,406.29,41.64,448.3Z"/><path class="cls-2" d="M201.12,418.52l1.47-.48c1-.3,2.37-.76,4.19-1.24s4-1.06,6.63-1.54c1.3-.24,2.68-.47,4.17-.63a25.64,25.64,0,0,1,4.74-.12,10.3,10.3,0,0,1,2.61.52,5.29,5.29,0,0,1,1.33.69,3.59,3.59,0,0,1,1.1,1.28l.06.14v0l0,.08,0,.08a.51.51,0,0,1,0,.11,2,2,0,0,1,0,.69c0,.1,0,.19-.05.29a2.06,2.06,0,0,1-.09.25c0,.08-.07.17-.1.24l-.12.2a4.87,4.87,0,0,1-1.15,1.19,14.4,14.4,0,0,1-2.54,1.46,55.26,55.26,0,0,1-11.31,3.43q-3,.62-6.11,1.06c-2.08.3-4.19.53-6.34.65a57.51,57.51,0,0,1-6.53.06,30.15,30.15,0,0,1-3.34-.35,15,15,0,0,1-3.41-.95,6.84,6.84,0,0,1-1.7-1,4.11,4.11,0,0,1-1.3-1.93,4,4,0,0,1-.16-1.21l0-.29V421c0,.06,0-.16,0-.15l.09-.39c0-.15.12-.37.19-.56a3.76,3.76,0,0,1,.23-.5,6.35,6.35,0,0,1,.53-.86,11.2,11.2,0,0,1,2.66-2.45,24.41,24.41,0,0,1,2.9-1.69,46.38,46.38,0,0,1,6-2.43c2-.68,4-1.26,5.94-1.79,3.92-1.07,7.75-1.88,11.39-2.58s7.09-1.27,10.29-1.74,6.13-.85,8.73-1.15,4.88-.53,6.75-.7,3.35-.27,4.35-.35l1.54-.1-1.52.25-4.3.73-6.67,1.18c-2.57.47-5.47,1-8.62,1.65s-6.55,1.36-10.14,2.18-7.33,1.78-11.16,2.89a70.6,70.6,0,0,0-11.38,4.26,21.9,21.9,0,0,0-2.58,1.52,8.71,8.71,0,0,0-2,1.87,3.76,3.76,0,0,0-.49.94l-.09.39s0-.14,0-.05v.2a1.39,1.39,0,0,0,.05.38,1.48,1.48,0,0,0,.5.68,4.42,4.42,0,0,0,1,.62,12.49,12.49,0,0,0,2.78.78,27.57,27.57,0,0,0,3,.34,55,55,0,0,0,6.23,0,97.25,97.25,0,0,0,12.15-1.45c2-.36,3.86-.79,5.71-1.25a39.93,39.93,0,0,0,5.26-1.69,12.64,12.64,0,0,0,2.23-1.16,3.19,3.19,0,0,0,.73-.67l.05-.07,0-.06,0-.05a.08.08,0,0,1,0,0v0a0,0,0,0,0,0,0,0,0,0,0,0,0,0s0,0,0,0l0-.08,0-.08v0l0,.07a2.52,2.52,0,0,0-1.43-1.2,8.77,8.77,0,0,0-2.19-.54,26,26,0,0,0-4.48-.12c-1.44.06-2.82.2-4.11.35-2.58.32-4.82.7-6.67,1.05s-3.29.65-4.27.87Z"/><path class="cls-2" d="M120.25,431.25l-4.52,3.3c-2.87,2.11-7,5.13-11.81,8.83-2.42,1.85-5,3.89-7.73,6.08s-5.5,4.57-8.28,7.12c-1.37,1.29-2.75,2.62-4,4a27.11,27.11,0,0,0-1.79,2.2,10.14,10.14,0,0,0-1.32,2.28,2.36,2.36,0,0,0-.2,1,.63.63,0,0,0,.2.48l.13.11.19.11h0l-.07,0,.09,0,.18.07.18.07h.09l.16,0H82a4.12,4.12,0,0,0,.58,0,10,10,0,0,0,2.6-.66,26.63,26.63,0,0,0,2.64-1.19,77.29,77.29,0,0,0,10-6.42c3.19-2.36,6.31-4.75,9.25-7.16s5.77-4.76,8.43-7,5.15-4.43,7.44-6.44l6.24-5.52,4.79-4.28,4.17-3.74-1,1.08c-.65.7-1.58,1.75-2.81,3s-2.71,2.87-4.46,4.64-3.71,3.77-5.9,5.9-4.58,4.44-7.16,6.81-5.32,4.86-8.25,7.34-6,5-9.22,7.42a79,79,0,0,1-10.36,6.72,29.21,29.21,0,0,1-2.93,1.29,12.48,12.48,0,0,1-3.3.8,6.68,6.68,0,0,1-.94,0l-.48,0-.58-.13-.28-.08-.18-.07-.18-.07-.09,0-.15-.07-.06,0-.46-.28a5.41,5.41,0,0,1-.45-.38,3.16,3.16,0,0,1-.71-1,2.44,2.44,0,0,1-.19-.6,2.4,2.4,0,0,1-.07-.59,4.85,4.85,0,0,1,.37-2,12.19,12.19,0,0,1,1.68-2.88,29.55,29.55,0,0,1,2-2.35c1.38-1.48,2.82-2.82,4.27-4.11,2.89-2.57,5.82-4.84,8.63-7s5.53-4,8.05-5.75,4.87-3.27,7-4.61,3.93-2.49,5.45-3.42,2.73-1.64,3.55-2.13Z"/><path class="cls-2" d="M128.86,383.33,116.19,392l-6.11,4.24-6.78,4.78c-2.35,1.65-4.74,3.42-7.19,5.18s-4.9,3.6-7.33,5.46-4.86,3.72-7.21,5.6-4.66,3.74-6.83,5.6-4.25,3.69-6.17,5.48-3.68,3.53-5.25,5.19-2.95,3.24-4.11,4.69a45.76,45.76,0,0,0-2.82,3.9c-.36.56-.66,1.08-.93,1.53s-.47.84-.63,1.17l-.48,1,.34-1.06c.12-.34.29-.75.48-1.25s.45-1,.75-1.65a49.41,49.41,0,0,1,6.24-9.34c1.47-1.8,3.15-3.69,5-5.6s3.86-3.88,6-5.82,4.4-3.93,6.75-5.85,4.78-3.84,7.23-5.71,5-3.67,7.44-5.42,5-3.42,7.36-5,4.77-3.1,7-4.5,4.39-2.7,6.38-3.87,3.83-2.23,5.46-3.15,3.08-1.7,4.26-2.33,2.13-1.12,2.77-1.45Z"/><path class="cls-2" d="M123.25,394.19,117.61,399l-6.49,5.44-8.43,7L81.58,429c-3.86,3.22-7.81,6.6-11.81,10-2,1.72-4,3.46-6,5.23s-4,3.58-5.76,5.45a18.5,18.5,0,0,0-1.23,1.39c-.09.11-.16.22-.22.31s-.09.19,0,0a.4.4,0,0,0,0-.07.77.77,0,0,0,0-.2,1.56,1.56,0,0,0-.06-.27,1.11,1.11,0,0,0-.19-.32,1,1,0,0,0-.28-.25,1.19,1.19,0,0,0-.21-.1l-.17,0h-.07c-.14,0,0,0,.07,0a6.48,6.48,0,0,0,.77-.28l.87-.41c.63-.28,1.16-.59,1.72-.89,2.26-1.25,4.49-2.69,6.66-4.14,4.33-2.95,8.55-6,12.56-9s7.88-6,11.52-8.78l10.23-8,21-16.66-1.42,1.31c-.93.85-2.28,2.11-4,3.68s-3.86,3.48-6.32,5.64-5.23,4.6-8.3,7.21-6.39,5.44-10,8.37-7.35,6-11.34,9.09-8.14,6.25-12.54,9.24c-2.21,1.49-4.44,3-6.86,4.32-.62.33-1.24.69-1.84,1l-.95.45a8.85,8.85,0,0,1-1.12.41,2.84,2.84,0,0,1-.92.12l-.2,0-.29-.07a1.42,1.42,0,0,1-.32-.15,1.73,1.73,0,0,1-.38-.33,1.54,1.54,0,0,1-.24-.43,1.28,1.28,0,0,1-.09-.39,2,2,0,0,1,0-.33c0-.07,0-.13,0-.2s0-.13,0-.19l0-.13a2.16,2.16,0,0,1,.1-.23,3.51,3.51,0,0,1,.19-.33,6.27,6.27,0,0,1,.36-.52,19.48,19.48,0,0,1,1.42-1.63c1.93-2,3.93-3.78,5.94-5.57s4-3.52,6.06-5.23c4-3.43,8.08-6.7,12-9.87s7.74-6.18,11.37-9,7.08-5.52,10.28-8,6.14-4.68,8.75-6.64,4.91-3.67,6.79-5.06,3.39-2.48,4.4-3.22Z"/><path class="cls-2" d="M50.62,438.36s.14-.33.43-.93.72-1.49,1.32-2.6,1.32-2.44,2.21-4,1.91-3.2,3.1-5c.58-.91,1.22-1.83,1.87-2.79s1.36-1.93,2.09-2.93c1.47-2,3-4.07,4.77-6.14s3.53-4.2,5.48-6.26c1-1,2-2.07,3-3.08l1.53-1.52L78,401.67c2.1-2,4.28-3.87,6.48-5.66,1.09-.91,2.23-1.74,3.33-2.59S90,391.8,91.11,391s2.22-1.5,3.32-2.21,2.2-1.33,3.26-2c2.15-1.24,4.21-2.35,6.16-3.27s3.78-1.69,5.38-2.4,3.07-1.15,4.26-1.55,2.14-.65,2.79-.85l1-.29-.93.43c-.61.28-1.5.7-2.64,1.2s-2.47,1.24-4,2l-2.42,1.32c-.42.24-.87.46-1.31.71l-1.35.79c-1.85,1.05-3.79,2.3-5.84,3.61-1,.69-2,1.38-3.09,2.11s-2.1,1.5-3.17,2.29-2.13,1.62-3.2,2.47l-1.59,1.3c-.54.43-1.08.86-1.61,1.32-2.12,1.8-4.26,3.66-6.31,5.61l-1.55,1.45-1.51,1.48c-1,1-2,2-3,3l-2.85,3c-.91,1-1.85,2-2.71,3L66.88,417l-1.26,1.47c-.84,1-1.63,1.94-2.42,2.87-1.54,1.9-3,3.7-4.28,5.39s-2.47,3.26-3.49,4.66-1.9,2.64-2.61,3.67-1.27,1.84-1.63,2.4Z"/><path class="cls-2" d="M104.91,482.54l.55-.33c.36-.21.89-.53,1.57-.9s1.51-.85,2.47-1.35,2-1.09,3.23-1.7c2.38-1.22,5.17-2.59,8.2-4,1.51-.7,3.08-1.41,4.69-2.11s3.24-1.39,4.88-2.09,3.3-1.34,4.93-2,3.25-1.23,4.82-1.81,3.1-1.08,4.56-1.57,2.85-.9,4.13-1.28,2.48-.67,3.54-.94,2-.43,2.77-.59,1.39-.19,1.81-.25l.64-.07-2.3.83c-.72.3-1.59.66-2.59,1.05s-2.11.92-3.34,1.42l-8.34,3.59c-1.53.66-3.11,1.33-4.71,2l-4.88,2-4.9,2c-1.62.66-3.22,1.29-4.77,1.9-3.1,1.22-6,2.32-8.51,3.23s-4.61,1.64-6.1,2.13S104.91,482.54,104.91,482.54Z"/><path class="cls-2" d="M216.46,387.82s-.85.45-2.36,1.21-3.67,1.81-6.27,3-5.66,2.62-9,4.07c-1.64.73-3.34,1.48-5.08,2.22l-5.25,2.26-5.27,2.22c-1.73.74-3.46,1.43-5.11,2.13l-4.78,2c-1.52.63-3,1.21-4.28,1.78s-2.55,1-3.62,1.52-2,.84-2.78,1.2-1.37.62-1.78.81l-.64.28.56-.41c.37-.26.9-.66,1.6-1.14s1.57-1,2.57-1.64,2.15-1.29,3.41-2,2.64-1.44,4.11-2.21,3-1.53,4.66-2.32c.81-.4,1.64-.79,2.48-1.17l2.56-1.17c1.72-.79,3.49-1.54,5.25-2.3s3.55-1.48,5.3-2.19,3.49-1.38,5.17-2c3.37-1.28,6.54-2.4,9.27-3.32,1.37-.46,2.63-.86,3.75-1.21s2.1-.65,2.91-.89,1.45-.41,1.88-.54Z"/><path class="cls-2" d="M168.17,399.8l1.71-.95c1.12-.61,2.75-1.51,4.86-2.6s4.68-2.41,7.66-3.84,6.36-3,10.11-4.65,7.83-3.32,12.24-4.92a120.56,120.56,0,0,1,14.15-4.3,57.23,57.23,0,0,1,7.8-1.27c.67,0,1.35-.12,2-.11a20.18,20.18,0,0,1,2.08,0,14.64,14.64,0,0,1,2.11.23l1,.18,1,.19.49.09c.17,0,.3,0,.45,0l.88.08h.91c.15,0,.3,0,.45,0l.45-.05a8.21,8.21,0,0,0,3.32-1,5.55,5.55,0,0,0,2.23-2.35,4.59,4.59,0,0,0,.36-3.06,5.11,5.11,0,0,0-1.72-2.66,8.41,8.41,0,0,0-3.09-1.57,18.81,18.81,0,0,0-7.46-.25,44.21,44.21,0,0,0-7.44,1.87c-2.47.87-4.92,1.7-7.28,2.6-4.74,1.75-9.31,3.56-13.61,5.31-2.15.89-4.24,1.75-6.26,2.61s-4,1.68-5.83,2.48c-3.73,1.62-7.14,3.13-10.15,4.47l-7.79,3.54-5,2.31-1.77.83,1.7-1c1.11-.62,2.74-1.54,4.83-2.65s4.64-2.48,7.59-4l4.7-2.38c1.67-.82,3.41-1.69,5.25-2.56,3.67-1.78,7.67-3.64,11.94-5.53s8.8-3.84,13.57-5.68c2.38-1,4.81-1.83,7.26-2.74a42.16,42.16,0,0,1,7.9-2.08,21.3,21.3,0,0,1,8.54.27,11,11,0,0,1,4.09,2.07,7.73,7.73,0,0,1,2.6,4.06,7.24,7.24,0,0,1-.59,4.85,8.18,8.18,0,0,1-3.29,3.44,10.79,10.79,0,0,1-4.36,1.33l-.56.06c-.19,0-.37,0-.55,0-.37,0-.73,0-1.1,0l-1.12-.12c-.18,0-.38,0-.55-.07l-.49-.1-1-.19-1-.17a13.52,13.52,0,0,0-1.84-.22,17.85,17.85,0,0,0-1.88-.05c-.63,0-1.26,0-1.89.07a54.89,54.89,0,0,0-7.49,1.09q-3.68.79-7.18,1.8c-2.34.65-4.61,1.37-6.81,2.09-4.4,1.47-8.52,3-12.31,4.46-7.56,3-13.78,5.65-18.12,7.56l-5,2.26Z"/><path class="cls-2" d="M158.81,364.61l1.32-.56c.87-.36,2.13-.91,3.75-1.57s3.58-1.48,5.85-2.38,4.82-1.93,7.62-3,5.83-2.26,9.05-3.45,6.61-2.48,10.15-3.73,7.18-2.57,10.92-3.82,7.54-2.5,11.4-3.66c1.95-.56,3.86-1.11,5.94-1.5.26,0,.53-.09.83-.12l.47,0a3,3,0,0,1,.66,0l.11,0,.17.05.17.07a1.76,1.76,0,0,1,.28.18,1.49,1.49,0,0,1,.5.75,1.51,1.51,0,0,1,0,.79,1.91,1.91,0,0,1-.09.25l-.08.14a1.79,1.79,0,0,1-.15.22l-.13.15-.11.11a6.1,6.1,0,0,1-.75.6l-.68.44-.35.21-.32.18-1.28.74-1.28.73-1.31.71c-.87.46-1.74.94-2.61,1.37-1.73.88-3.44,1.74-5.13,2.55-3.37,1.66-6.69,3.15-9.83,4.56l-4.59,2L195,359.5c-2.76,1.17-5.31,2.21-7.58,3.12s-4.24,1.68-5.88,2.31-2.93,1.1-3.8,1.43l-1.35.5,18-8.75,8.68-4.26c3.07-1.53,6.3-3.15,9.62-4.86,1.67-.85,3.34-1.74,5-2.65.85-.45,1.67-.93,2.52-1.39l1.27-.7,1.27-.74,1.28-.75.32-.19.28-.17.56-.37a3.87,3.87,0,0,0,.42-.33h0l0,.07,0,.06a.81.81,0,0,0-.06.16,1.17,1.17,0,0,0,0,.6,1.1,1.1,0,0,0,.18.38,1.41,1.41,0,0,0,.21.23.91.91,0,0,0,.2.13l.08,0,.09,0h0c.08,0,0,0-.08,0l-.27,0-.65.1c-1.83.36-3.76.93-5.66,1.48-3.81,1.11-7.61,2.32-11.34,3.54l-11,3.59-10.25,3.39-9.2,3-7.78,2.53-6,1.92c-1.67.54-3,.93-3.88,1.21Z"/><rect class="cls-2" x="225.63" y="416.7" width="73.76" height="1.77" transform="translate(-123.13 110.07) rotate(-19.28)"/><rect class="cls-2" x="237.16" y="441.53" width="73.76" height="1.77" transform="translate(-33.31 22.46) rotate(-4.42)"/><path class="cls-3" d="M462.26,275.54c-52.51-10.51-154.76-31-179.84,18-8.32,16.23-3.38,31.2.12,47.06a206.77,206.77,0,0,0,30.06,71.11c0,.17-7,7.84-7,7.84s13.18,2.17,13.85,2.67c4,3.81,8.34,8.18,13.21,12-5,3.44-11,8.22-11,8.22s25.68-2,29-1.2a119.74,119.74,0,0,0,29.63,3.32,129.71,129.71,0,0,0,31.85-4,167.58,167.58,0,0,0,34.28-14.48C475.48,408,494.1,378.35,497.25,345,500,315.46,504,285.78,462.26,275.54Z"/><path class="cls-1" d="M460.19,410.62c-19,12.54-41,21.92-64.11,21.78a82.6,82.6,0,0,1-51-18.41c-15.25-12.17-26.53-28.69-34.44-46.4-1.44-3.23-3.48-6.83-3.73-10.37a17.39,17.39,0,0,1,1.29-7.28c2.46-6.49,7.11-12.17,11.85-17.13,12.48-13.06,28.17-23.57,44.54-31.12a100.74,100.74,0,0,1,24.1-8A53.2,53.2,0,0,1,416,296c20.21,7.24,33.94,25.94,45.89,42.78,3.22,4.54,6.68,9.18,9.64,13.76a9.34,9.34,0,0,1,1.57,5.77c-.29,5.17-3.9,9.9-7.27,13.55-10.17,11-23.94,19-37.25,25.54a154.59,154.59,0,0,1-18.87,8c-4.35,1.47-8.11,2.46-12.61,2.2-14.67-.84-29.66-4.79-41.4-14A57.86,57.86,0,0,1,339,372.4a60.58,60.58,0,0,1-5-14.76,11.81,11.81,0,0,1,1.21-6.84c2.86-6.18,8.17-11.11,13.42-15.26a100.22,100.22,0,0,1,21.54-12.92c7-3.12,14.61-5.73,22.32-6.31a26.18,26.18,0,0,1,9,.65,30.22,30.22,0,0,1,7.12,3.61,110.26,110.26,0,0,1,15.77,11.21c4.23,3.68,8.67,8.1,10.58,13.51s0,10.36-3.92,14.19c-7.38,7.14-18.33,10.53-28,13.15-8.43,2.29-17.8,4.2-26.55,2.61a20.24,20.24,0,0,1-7.56-2.77,10.67,10.67,0,0,1-3.69-4c-1.72-3.27-1.59-7.6-.31-11.51a24.73,24.73,0,0,1,7.75-11.15c5.76-4.76,13.94-6.52,21.21-7,5.46-.34,13.8.42,12.93,7.62-.93,7.73-9,13.19-16,14.8-2.41.55-6.36,1-8-1.36-1.91-2.65-.68-6.59,1.5-8.62,3.21-3,8.43-4.45,12.44-4.82,2.76-.25-3.65-3.84-5.85-3.64-5.06.45-6.44,1.32-10.06,5.05-5.68,5.85-2.75,16.46,5.48,17.93,8.07,1.45,17.42-3.8,21.92-10.32,4.13-6,3.83-14.45-2.7-18.55-3.45-2.17-7.75-2.66-11.74-2.54a54.28,54.28,0,0,0-16.7,3.32,27,27,0,0,0-12.52,9.83c-5.89,8.32-6.9,20.54,1.74,27.43,5.36,4.28,12.59,5.31,19.26,5.14,11.57-.3,23.48-3.62,34.09-8.07,7.34-3.08,16.08-7.6,19.18-15.49,2.3-5.83.45-12-2.82-17-3.91-6-9.46-10.93-15.19-15.19-5.2-3.87-10.94-8-16.91-10.65-6.54-2.86-14.18-2-20.94-.45a93.66,93.66,0,0,0-24.86,10.12c-7.42,4.21-14.6,9.26-20.38,15.57-4.11,4.48-8.42,10.37-7.94,16.8.38,5.06,2.61,10.37,4.55,15a68.2,68.2,0,0,0,7.85,14,62.43,62.43,0,0,0,20.86,18.05,77.56,77.56,0,0,0,23.45,7.88c5.74,1,12.13,2.15,17.93,1.08s11.57-3.41,17-5.74a196.15,196.15,0,0,0,22-11.07,130,130,0,0,0,20.47-14.37c4.83-4.25,9.71-9.27,12.08-15.37a16,16,0,0,0,1.13-7.81c-.46-3.58-2.35-6.28-4.37-9.17-7-10-13.81-20.06-21.64-29.37-7.23-8.59-15.39-16.62-25.16-22.29a58.32,58.32,0,0,0-31.49-8c-8.58.36-17,2.83-25,5.94a153.08,153.08,0,0,0-26.71,13.84,146,146,0,0,0-23,18c-5.59,5.43-11,11.57-14.38,18.68a25,25,0,0,0-2.52,9c-.21,3.43.83,6.3,2.11,9.44a150.91,150.91,0,0,0,15.43,28.83c11.49,16.69,27.1,30.9,46,38.51,19.95,8,41.91,7.56,62.18.91,12.3-4,17.06-5.12,27.84-12.24,1.93-1.27,5.69-10.1,3.71-8.79Z"/><path class="cls-2" d="M181.29,444.32a15.3,15.3,0,0,1,1.62-1.12,30.44,30.44,0,0,1,4.58-2.3,26.22,26.22,0,0,1,3.23-1.11,25.64,25.64,0,0,1,3.8-.6c1.33-.14,2.69-.3,4.06-.54a29,29,0,0,1,4.3-.51,6.49,6.49,0,0,1,1.2.14l1,.21c.35.09.66.13,1,.2l1,.2c1.32.29,2.64.52,3.91.77s2.5.5,3.66.8,2.25.59,3.25.88,1.92.58,2.73.85,1.52.52,2.1.74c1.16.43,1.81.73,1.81.73l0,.26s-.72.06-2,.06c-.62,0-1.37,0-2.23-.07s-1.82-.13-2.87-.24-2.18-.27-3.37-.47-2.43-.48-3.71-.83-2.58-.75-3.91-1.2c-.65-.21-1.36-.51-2-.79l-.94-.46a4.81,4.81,0,0,0-.84-.33,9.08,9.08,0,0,0-2-.27,12.33,12.33,0,0,0-2,.14,15.07,15.07,0,0,0-3.83,1.12c-1.2.51-2.34,1.06-3.45,1.46s-2.19.72-3.18,1c-2,.57-3.69,1-4.91,1.22s-1.93.32-1.93.32Z"/><path class="cls-2" d="M285.85,332.38s9.09-.28-34-39.48q-1-.91-2-1.71c-37.38,15.2-84.8,39.11-128.17,75.49,3.42,3.6,15-9.51,52.8-27.73C232.39,311,285.85,332.38,285.85,332.38Z"/><path class="cls-4" d="M172.5,284.62s-56.88,62.52-56.33,109,38.14,75.17,45.32,145.37c3.32,28.19,22.11,29.3,29.3,28.19s30.47-2.1,18.79-46.43-75-91.75-19.35-199.54c3.16-6.12,26.16-8.61,26.16-8.61Z"/><path class="cls-5" d="M216.4,312.56l-43.9-27.94s-8.88,9.76-19.59,24.44c12.55,13.49,19.69,29.67,23.75,43.5a235.11,235.11,0,0,1,13.57-31.4C193.39,315,216.4,312.56,216.4,312.56Z"/><path class="cls-6" d="M255.4,143.69s-21.33-9.92-35.22-1-49.11,53.57-53.08,80.86a277.19,277.19,0,0,0-2,53.57S163,293,184,305c11.51,6.58,9.61,13.36,9.61,13.36l49.08-10.86s-19.39-66.72-16-83.83S255.4,143.69,255.4,143.69Z"/><path class="cls-6" d="M168.93,420.7c-15.47,8.91-37.1,1.23-49.62-4.76,9.27,35,36.21,64.71,42.18,123,3.32,28.19,22.11,29.3,29.3,28.19s30.47-2.1,18.79-46.43C202.33,493.2,175.11,464.43,168.93,420.7Z"/><path class="cls-4" d="M176.41,450.8c-7.48,5.28-15.85,17-6.87,41.74,14.3,39.46,16.58,52,16.58,52s4.57,14.87,18.3,13.72a22.84,22.84,0,0,0,4.87-1c3.86-6.49,5.33-17.53.29-36.62C204.3,500.65,187.57,478.45,176.41,450.8Z"/><path class="cls-5" d="M242.67,307.54s-4.1-14.11-8.19-31c-25.61,1.5-39.54,19.36-45.14,27.5a13.49,13.49,0,0,0-2,3.66c-2.15,16,5.13,14.73,5.13,14.73Z"/><path class="cls-4" d="M220.18,142.7c-7.27,4.67-20.38,19.13-31.79,35.76l3.08,16.92s2.67,11.58,25.83-6.23,38.11-45.46,38.11-45.46S234.07,133.77,220.18,142.7Z"/><path class="cls-4" d="M447.11,248.82l28.59-1.27a29,29,0,0,1,10.52,1.4C516,259,513,278.17,513,278.17c0,40.23-13.41,50.29-13.41,50.29l-16.09,6,5.36-18.77-14.08,18.1c-12.74-9.39-9.39-57.66-9.39-57.66s1.34-6-38.22,2c-51.63,12.74-61.69,4-79.79,4.69-17.43,1.34-42.91,23.47-63,59s19.44,144.83,19.44,154.89c0,6.27-6.77,10.19-11.87,12.26a8.43,8.43,0,0,1-9.23-2l-13.47-13.95a.62.62,0,0,0-1.05.59l4.05,15.7a1,1,0,0,1-1.6,1.08l-9.3-6.89a25.31,25.31,0,0,1-9-12.48l-26.78-82a40.84,40.84,0,0,1-1.65-18.15l9.92-73.32a28,28,0,0,0-1.16-12.56c-15.27-46-14-81.2-14-81.2C235.69,170.4,272.94,116,285.34,98.41,287.59,95.22,295.4,86,302.76,81c0,0,17-14.76,37.44-18.32,22-3.82,35.9-11.89,96.45,17.24S447.11,248.82,447.11,248.82Z"/><path class="cls-6" d="M324.69,238.07c-17.61-34.27-50-46.17-59.49-2.86-9.46,43-17.5,92.16,14.13,123.6.83-6.62,2.42-12.39,5-16.95,20.11-35.54,45.59-57.66,63-59,14.53-.54,23.92,5.23,53.69.58,6.4-1,12.25-1.94,17.08-6.28,17.5-15.73,27.57-26,29.52-28.81-4.42,1.41-27.19,23.3-40.37,28.07-6.68,2.42-22.53.85-31.48-2.29C356.36,267.32,333.87,255.93,324.69,238.07Z"/><path class="cls-6" d="M436.65,79.91C376.1,50.79,362.16,58.85,340.2,62.67,319.72,66.24,302.76,81,302.76,81c-7.35,5-15.17,14.22-17.42,17.42A657,657,0,0,0,250.12,154c5.66,11.57,17.23,33.24,25,34.54,10.64,1.77,53.73,21.21,73,23S436.65,79.91,436.65,79.91Z"/><path class="cls-4" d="M341.06,62.52l-.86.16C319.72,66.24,302.76,81,302.76,81c-7.35,5-15.17,14.22-17.42,17.42-2.63,3.74-6.4,9.16-10.84,15.86,0,12.34,2,23.86,10.48,24.11,17.42.51,49-47.21,49-47.21S340.71,75.6,341.06,62.52Z"/><path class="cls-4" d="M331.48,288.51c-1.72-6.07-5.13-13.29-10.86-22-2.81-4.34-5.85-9.55-9.11-15.79-20.58-39.44-37.25,14.63-36.58,42.57.31,12.95,2.31,37.09,10.42,46.82C299.74,315.22,316.7,297.15,331.48,288.51Z"/><path class="cls-7" d="M433.88,276.83s11.31-3.55,17.07-4.21,13.3-.67,13.3-.67a28,28,0,0,1,9.24-10.53s-8.35,11.64-8.57,30.27l-.44-14S464,271.73,433.88,276.83Z"/><path class="cls-6" d="M259,320.54s6,29.27,2.66,57.2-19.38,67-21.71,75.34l10.68,32.6s2.1,11.41,9.18,16.64,10.85,8.13,10.85,8.13l1.6-1.08s-8.32-7.14-9.2-11.87,1.17-9.43,6.2-4.42S282.68,507,282.68,507s4.13,4,9.23,2a28.66,28.66,0,0,0,8.64-5.59s.89-3.25-.59-3.55-5,4.73-11.23-3.25-14.78-39.61-5.62-46.71a21.46,21.46,0,0,1,7.57-3.58s-14.84-58.59-11.35-87.52Z"/><path class="cls-6" d="M310.16,199.67s11.5,29.3,22.38,49.68c0,0-23.27-26.62-36.57-24.4s-32.37,45.23-32.81,66.52,13.3,48.78,3.55,94.9S241,454.64,241,454.64s-11.09-35.47-13.75-41.24-4.88-12.86-1.33-37.69,7.4-52.34,7.91-58.1-2.59-14.18-6.14-31-8-39.48-7.08-62.09c0,0,17.28-52.32,36.35-78.92Z"/><path class="cls-5" d="M232.66,305.06l-1.79-4.86c-.58-1.62-1.21-3.23-1.72-4.88l-1.6-4.94c-.55-1.64-1-3.31-1.48-5l-1.42-5-1.27-5c-.21-.84-.43-1.68-.62-2.52l-.56-2.54c-.36-1.69-.77-3.38-1.1-5.08l-1-5.11c-.32-1.7-.57-3.42-.86-5.13s-.52-3.43-.76-5.15l-.36-2.58-.31-2.59-.3-2.59-.23-2.6c-.17-1.73-.28-3.47-.4-5.2-.07-.87-.1-1.74-.15-2.61s-.09-1.74-.11-2.61-.06-1.74-.07-2.62,0-1.74,0-2.67v-.27l.09-.28q1.4-4.27,2.83-8.52c.46-1.43,1-2.82,1.52-4.22l1.59-4.2.8-2.1c.26-.7.53-1.4.83-2.08L226,198l1.74-4.13c.58-1.38,1.23-2.72,1.84-4.08l1.87-4.07c.62-1.36,1.23-2.72,1.91-4.05l4-8c1.38-2.65,2.79-5.28,4.18-7.92.69-1.32,1.43-2.62,2.15-3.92l2.18-3.91c1.43-2.61,2.95-5.18,4.46-7.75.76-1.28,1.51-2.57,2.28-3.84l2.34-3.81,2.34-3.81,2.4-3.77,2.42-3.75,2.47-3.72,2.47-3.72q1.26-1.85,2.53-3.68c1.68-2.45,3.42-4.87,5.14-7.3.85-1.22,1.75-2.41,2.62-3.61s1.75-2.4,2.65-3.59q2.67-3.58,5.42-7.09L280.6,106l-4.7,7.57c-1.56,2.53-3.12,5-4.64,7.6q-1.14,1.91-2.31,3.81l-2.27,3.82-2.27,3.83-2.22,3.86-2.24,3.84-2.19,3.87L255.58,148c-.73,1.29-1.42,2.6-2.13,3.9-1.4,2.61-2.88,5.17-4.24,7.81l-2.07,3.93c-.69,1.31-1.39,2.61-2,3.94-1.33,2.64-2.65,5.29-4,7.92l-3.84,8c-.31.67-.65,1.33-1,2l-.92,2-1.83,4c-.6,1.35-1.24,2.68-1.81,4L230,199.69l-1.73,4.08c-.3.68-.56,1.36-.83,2.05l-.8,2.06-1.6,4.12c-.54,1.37-1.09,2.74-1.55,4.14q-1.45,4.18-2.93,8.34l.1-.56c0,.8,0,1.66,0,2.5s0,1.7,0,2.55,0,1.7.06,2.55,0,1.7.09,2.56c.08,1.71.15,3.41.28,5.12l.17,2.56.21,2.56.21,2.56.26,2.55c.18,1.7.34,3.41.57,5.11s.41,3.4.66,5.1l.74,5.09c.24,1.7.56,3.39.83,5.08l.43,2.54c.15.85.32,1.69.49,2.53l1,5.06,1.08,5c.36,1.68.72,3.37,1.14,5l1.2,5c.2.84.4,1.68.64,2.51l.67,2.5Z"/><path class="cls-4" d="M557.53,119.54l-.09-.23a24.14,24.14,0,0,0-18.27-15c-10.11-1.75-26.39-2.9-50.81-.35,0,0-40.21-28.72-102-32.31,0,0-2.15-62.47-46-53.14,0,0-11.28-4.62-14.15,74.37l.54.19L299,134.15s5.23,63,37.67,123c5.7,10.55,6,16.24,59.43,24.27,16.74,1.67,19.25-3.35,51.06-32.64,21.31-19.63,37.74-36.25,46.26-45.08a33.27,33.27,0,0,0,9.22-20.24c.62-7.08.53-17.09-1.69-30.25l.12,0,26.12,13.86s9.29.66,29.79-37.57A12,12,0,0,0,557.53,119.54Z"/><path class="cls-6" d="M393.18,156.73l10.76,2.5h5.5l-3.25-4.5-5.25-1.5-5.32-7.38,4.83-2a3.82,3.82,0,0,0,2-2.91c-.11-15.91-7.79-24.29-11.72-27.52a4,4,0,0,0-4.11-.6l-1.84.77a3.66,3.66,0,0,0-2.21,2.78l-1.76,10.58a5,5,0,0,0,.52,3.2l3.5,6.56s0,7.12-2.82,9.37c-2.22,1.77-13.67,3.53-28.2-4-11.45-5.94-12.4-17.26-12.21-22.49a4.46,4.46,0,0,1,1.91-3.47l23.78-16.69-13.6-25.6,15.21-1.6L356.12,61c0-12.81-12-37.61-12-37.61l-6.74-3.11c-3.56,4.54-9.17,20.11-11.08,72.58l.54.19-28.68,39.31a397.08,397.08,0,0,0,10.72,56.17l2.65,3.64,6,19.29,10.64,14.63,7.32,9.31s6-.67,9.31-2.66,10.64,1.33,10.64,1.33L368,245.38l22.66,2.72,3-4.8s-9.6-6.88-12.26-9.76c-14.49-15.68-2.42-54.77,4-70.3C387.09,159.2,393.18,156.73,393.18,156.73Z"/><path class="cls-8" d="M338.25,260.33q1.88,2.94,3.84,5.63A26.06,26.06,0,0,1,338.25,260.33Z"/><path class="cls-9" d="M390.71,248.1l-18.1,29.24c-12.08-2.23-20.17-4-26.07-7.72,2.39.57,6,.41,11.5-1.65-.48.08-10.72,1.63-14.62-4C340,259.07,328,236.65,321.5,217l6.64,9.13,7.32,9.31s6-.67,9.31-2.66,10.64,1.33,10.64,1.33L368,245.38Z"/><path class="cls-8" d="M465.82,230.75l-25.94,24.61s-25.27,22-30.59,25.28-13.23.83-13.23.83c-21.87-.5-48.63-10.15-51.29-11.48s-8.64-13.3-17.29-29.93-21.09-54.6-21.28-55.19l2.67,3.67c5.27,19.82,12.89,41.87,23.68,60.81,3.95,6.93,6,12.92,9.55,16.62,6.17,6.48,15.09,8.53,30.52,11.37l18.1-29.24,10.59,1.27s10.64-2.66,15.6-1.13,11.68,9.11,11.68,9.11l25.94-20.62Z"/><path class="cls-10" d="M461.81,202.57c13.53-8.45,12.2-27.95,12.2-27.95-24.67-1.09-41.56-8-41.56-8l-4.78,26.81S444.44,213.41,461.81,202.57Z"/><path class="cls-10" d="M335,170.09c-8.88-13.26-.28-33-.28-33a199.84,199.84,0,0,0,41.57,14.05l-10.82,27.8S345.65,185.92,335,170.09Z"/><path d="M445.29,170.39s-6.87,15.88-5.13,23.87c1.47,4.77,7.55,2.95,13.7-.8,3.66-2.23,5-22,5-22Z"/><path d="M365.52,147.57s-3.63,15.25-6,20.42c-1.35,3-8.5,9.12-13.22-3-2.23-5.73,5-22.08,5-22.08Z"/><path class="cls-11" d="M362,147.38s26.68,9,21.58-17c-3.75-19.14,8.08-14.63,10.15-10.61C396.92,126,397.42,143,378.59,150,378.59,150,372,152.64,362,147.38Z"/><path class="cls-6" d="M550.1,141.61l-19.59-18.76-38,4.31c5.38,6.82,8.44,26.09,8.44,26.09l.12,0,26.12,13.86S534.36,167.64,550.1,141.61Z"/><path class="cls-11" d="M316.8,142.36s-10.58-1.81-5.68,5.16,9.54,1.29,11.87,1.81c4.94,1,3.6-6-.07-6.74A17.41,17.41,0,0,0,316.8,142.36Z"/><path class="cls-11" d="M338.2,189.66a8.8,8.8,0,0,0-3.09-1c-1.37-.29-1.56-.66-2.59-1.56-1.64-1.42-3.71.55-5.25-.42-1.33-.83-2.73,1.34-1.58,2.43.52.5.79,2.44,1,2.8a3.62,3.62,0,0,0,2.2,1.35,11.73,11.73,0,0,1,4.26,2.06,8.21,8.21,0,0,0,2.55,1.72C340.2,198.48,341.51,191.83,338.2,189.66Z"/><path class="cls-11" d="M348.75,195.28a.63.63,0,0,0-1.05-.38l-.12,0c-1.66.68-3.19,1.07-4.21,2.26-.27.31-1.12-.26-1.27-.19a.55.55,0,0,0-.42.62v0s0,0,0,.06l0,.12a.72.72,0,0,0,.14.35,2.47,2.47,0,0,0,1.68,1.34,3.05,3.05,0,0,0,.85.11.6.6,0,0,0,.21,0h0C346.75,199.45,349,197.45,348.75,195.28Z"/><path class="cls-11" d="M347.31,208.51c-1.27-.46-2.6,1.81-3.21,2.62a18.48,18.48,0,0,0-1.77,3c-.28.57-.51,1.26-1.17,1.53a1.51,1.51,0,0,1-.47.07.51.51,0,0,0-.56-.06,3.39,3.39,0,0,0-2,3.33c.07.88.51,2,1.6,1.7.88-.27,1.8-1.42,2.46-2,1-.81,1.91-1.6,2.85-2.42a8,8,0,0,0,3-4.65C348.25,210.76,348.41,208.91,347.31,208.51Z"/><path class="cls-11" d="M361.62,185.82c-.66-.54-2.82.9-3.59,1.38a15.41,15.41,0,0,0-1.55,1.78c-.71.85-1.46,1.68-2.13,2.57a6.78,6.78,0,0,0-.61,1,4,4,0,0,0-.52.85,2.32,2.32,0,0,0,.89,3.07,1.89,1.89,0,0,0,1.62-.11,8.09,8.09,0,0,0,1.4-1c.58-.43.85-.87.94-.09a5.28,5.28,0,0,1-1.2,3.35c-2.73,2.64-1.38,3.83-1,4.25.17.19.92.78,1,.58C358.63,200.32,362.09,186.2,361.62,185.82Z"/><path class="cls-11" d="M331.25,177.81c-.61-3.14-3.74-2.94-5.36-5.16s-.85-5.51-2.49-7.84a4.48,4.48,0,0,0-2.29-1.68,20.86,20.86,0,0,1-2-.6c-1.09-.52-1.27-1.28-1.9-2.13a2.53,2.53,0,0,0-4.16-.29c-1.74,2-.78,5.45.5,7.44a10.31,10.31,0,0,0,1.63,1.93,2.38,2.38,0,0,0,.5.44,13,13,0,0,0,1.15.87,10.34,10.34,0,0,0,1.17.66c1.28,1.18,3,2,3.73,3.68.92,2.25.13,5,2.08,6.79A4.48,4.48,0,0,0,331.25,177.81Z"/><path class="cls-11" d="M347.83,122.7c1.73-.51,3.42,1.31,4.45,4.3,1.67,4.81,6.46.44,5.14,4.94-1.6,2.79-5.89,1.12-7.77,1.09a2.79,2.79,0,0,1-1.53-.49c-1.27-.86-3.63-2.81-3.06-5.17C346.2,124.17,346.85,123,347.83,122.7Z"/><path class="cls-11" d="M337.26,129.63s2.9,1.68,3,.52,1.52-3.11-1.86-3.37c-2-.16-3.67-3-5.46-3.46-4.71-1.29-7.55-1-8.14,2.12s1.36,3.39,4.83,4S333.41,128.4,337.26,129.63Z"/><path class="cls-11" d="M356.44,108c.71-1.4-1.77-4-1.91-4.12a6.48,6.48,0,0,0-5.35-1.51c-2.16.38-3.43,1.83-4.82,3.4-1.77,2-4.25,2.76-6.21,4.47-.41.36-1.18,1-1.16,1.6a1.81,1.81,0,0,0,.2.57,1.18,1.18,0,0,0,.44.37,1.62,1.62,0,0,1,.17,2.13.56.56,0,0,0,.52.81,7.57,7.57,0,0,0,4.29-1.29,17.13,17.13,0,0,1,6.61-1.88A8.62,8.62,0,0,0,356.44,108Z"/><path class="cls-11" d="M374.67,99.69a19.43,19.43,0,0,1-2.16-.1c-1.2-.25-2.36-1.89-2.54-2a6.41,6.41,0,0,0-5.16-1.42A6.68,6.68,0,0,0,362,97.41a5.91,5.91,0,0,1-1.9,1,5.8,5.8,0,0,0-1.36.34c-1.43,1,0,2.5.86,3.32,1.85,1.87,3.9,1.34,6.23,2.1,2.78.9,3.75,3.79,6.4,4.81,1.9.73,6.36.48,7.85-.95C383.32,105,378.74,100.06,374.67,99.69Z"/><path class="cls-6" d="M379.19,129c-.55-2.9-2.43-4.38-4.59-4.49-3.5-.16-.34-7.54-6.14-7.21-3.51.2-4.74,2.39-4.92,3.65-.6,4.22,6.14,4.15,5.83,10.6-.32,6.63,6.38,9.06,6.3,4.7C375.56,130.48,380,133,379.19,129Z"/><path class="cls-11" d="M492.7,154.66c-2.17-3.22-2.92-7.79-5.61-8.76-4-1.44-6.93-3.53-6.43.11.7,5.05.1,11.29,3.9,14.83,1.55,1.44,4.06,2.92,5.89,1.06C492.08,160.25,494,156.53,492.7,154.66Z"/><path class="cls-11" d="M485,170.95c0-2.19-2.58-6.52-4.46-7.69s-.37,3.49-3.68-.4c-1.13-1.33-.61.94.19,1.76,3.84,3.92,2.05,6.29,6.61,7.49C484.13,172.23,485,172.32,485,170.95Z"/><path class="cls-11" d="M451.34,214.23c-2-1.5-4.53-4.94-8.91-2.26a2.67,2.67,0,0,0-.69,3.77c.88,1.29,2,2.74,3.88,1.71.93-.51-.33-.16,2.44,1.17C452.87,220.93,453.5,215.85,451.34,214.23Z"/><path class="cls-11" d="M429,209.1c-1.86-.07-.66,1.91.16,2.86,1,1.12.72,3,.89,4.38.2,1.71.29,2.52,1.64,3.69a2.54,2.54,0,0,0,3.16.48c2-.76-1.33-1.66.11-4.1C436.78,213.37,434,209.27,429,209.1Z"/><path class="cls-11" d="M430.11,235a17.75,17.75,0,0,0-3.22-8.54c-1.17-1.62-2.61-2.61-3.2-.23a2.59,2.59,0,0,0-.16.88,1.86,1.86,0,0,0,.26,1c1.69,2.76,1,6,1.19,9.12.11,1.86,1.55,5.46,4.08,4.12C431,240.31,430.23,237,430.11,235Z"/><path class="cls-11" d="M442,225.83c-.79-.65-2-1.83-3.37-1.31-.78.29-2.11,2.82.94,3,1.73.13.7,1.63,1.85,2.19.85.41,1.55.29,1.78-.74A3.12,3.12,0,0,0,442,225.83Z"/><path class="cls-11" d="M459.32,152.91a3.47,3.47,0,0,0-2.77.65c-2.15,1.71-.27,4.46,1.36,5.36,1.19.65,7.57-2.9,13.59.67s4-18.25-1.56-10.69A10.52,10.52,0,0,1,459.32,152.91Z"/><polygon class="cls-6" points="429.65 157.81 433.82 164.41 416.9 248.24 416.27 246.89 429.65 157.81"/><path class="cls-5" d="M372.28,149.11l4.07,2s-10.56,29.77-14.45,39.34c-4.14,10.18-9.26,42.44-9.26,42.44l-1.1.55s5.83-34.33,8.4-44.11C362.57,179.29,372.28,149.11,372.28,149.11Z"/><path class="cls-11" d="M390.47,141.93s-8.47,11.49-16.95,9.6S324.8,133.3,324.8,133.3s43.82,15.1,49.2,15.28a13.84,13.84,0,0,0,10.31-4.3C385.2,143.11,388.46,140.35,390.47,141.93Z"/><path class="cls-6" d="M456.59,169.13c4.08,3.84-20.85-1.79-20.85-1.79s-19.19-10.46-2.44-27c7.29-7.22.32-15,21.68-13.75,7.39.44,14.89-3.08,16.55,5.59,2.33,12.15-14.93-.71-19-2.44-6.59-2.83-8,20.81-6,19.23,3-6.27,14.14-9,12.88-2.83-2.1,10.27-13.2,7.53-10.78,10.6C451.61,160.45,450.28,163.19,456.59,169.13Z"/><path class="cls-11" d="M426.61,151.82s-1.72,13.32,7.55,16.25c8.35,2.64,17.32,5.25,54.72,8.12,0,0-48.93-8.7-53.82-11s-5.44-7.63-5.72-9.07S429.11,151.31,426.61,151.82Z"/><path class="cls-11" d="M454.52,169.81c.42-.08-14.83-1.48-21.43-7.54-3-2.75-1.84-10.32,2.81-13.48,15.69-10.66,9-21.91,3.33-18.94-9.5,5-20.42,23.25-4.89,36C439,169.67,447.53,171.13,454.52,169.81Z"/><path class="cls-12" d="M396.05,281.47l-13.61-14.58a1.17,1.17,0,0,1,.22-1.78L396.83,256a10.5,10.5,0,0,1,3.49-1.43l11.59-1.93a2.28,2.28,0,0,0,1.69-3l-1.34-4c-.55-1.66-1.89-3.45-3.63-3.32-16.69,1.2-31.41-3.36-48.18-12.22-1.55-.82-6,0-7.24,1.2l-3,3a2.28,2.28,0,0,0,.15,3.4l7.89,6.45a10.5,10.5,0,0,1,2.44,2.87l13.64,16.37a1.17,1.17,0,0,1-.62,1.68l-25,5.67S357.91,276.57,396.05,281.47Z"/><path class="cls-7" d="M298.14,132.36l.43-.7c.28-.46.69-1.14,1.23-2,1.06-1.7,2.62-4.11,4.53-7,.94-1.44,2-3,3.11-4.59s2.31-3.32,3.53-5.08,2.53-3.55,3.85-5.38,2.67-3.68,4-5.51l2-2.76L323,96.68,325,94l1-1.3c.37-.47.7-.86,1.05-1.29,1.38-1.66,2.75-3.23,4.08-4.69s2.61-2.82,3.83-4,2.37-2.31,3.41-3.25,2-1.71,2.79-2.32,1.46-1,1.92-1.34l.71-.43-.65.5c-.42.34-1,.84-1.74,1.53a78.63,78.63,0,0,0-5.67,6c-1.11,1.3-2.31,2.71-3.54,4.24s-2.52,3.14-3.81,4.84c-.31.42-.67.87-.95,1.27l-.93,1.36-1.92,2.74-2,2.79-2,2.78c-1.33,1.86-2.67,3.72-4,5.52s-2.65,3.6-4,5.31-2.54,3.37-3.76,4.92-2.34,3-3.42,4.36c-2.14,2.69-4,4.91-5.25,6.44-.64.77-1.16,1.37-1.51,1.77Z"/><path class="cls-5" d="M334.77,137.07s-6.14,12.79-3.48,26.38S349,180.6,354.36,180.3a37.34,37.34,0,0,0,8.87-1.48L362,180.6s-21.58,6.5-29-7.39-3-29.86-.3-37.25Z"/><path class="cls-6" d="M427.67,193.46s10.64,12.86,22.17,12.56,18.92-8.87,21.58-16.26A49.18,49.18,0,0,0,474,174.62l2.15.65s1.18,25.72-18.62,32.22-30.45-12.71-30.45-12.71Z"/><path class="cls-11" d="M484.19,195.17c-3.19-2.23-5,6.77-9.81,6.57-12.14-.51-16.49,3.32-15.74,7.71.42,2.44,1.08,4.36,3.53,5.08,2.82.82,4.71-.47,6.42-2.43,1-1.2,2.4-4.28,3.86-5,1.64-.77,3.72,1.19,6.68-.05a11,11,0,0,0,6.07-5.45C486.13,199.85,486.52,196.8,484.19,195.17Z"/><path class="cls-3" d="M396.05,281.47S382,264.41,378.89,264s-26.23,6.05-30.19,6.8C348.71,270.76,364.88,279.46,396.05,281.47Z"/><path class="cls-13" d="M358,268c-5.49,2.06-9.11,2.22-11.5,1.65a23.76,23.76,0,0,1-4.45-3.65q-2-2.68-3.84-5.63c-1.71-3.15-3.38-6.9-5.71-11-10.79-18.94-18.41-41-23.68-60.81l2.65,3.64,6,19.29,4,5.5c6.54,19.68,18.54,42.11,21.92,47C347.32,269.59,357.55,268,358,268Z"/><path class="cls-5" d="M332.54,249.35c2.32,4.08,4,7.84,5.71,11C318.14,229,304.4,177.94,304.4,177.94s-9.31-35-5.82-46.28,20.28-29.52,20.28-29.52l1.06-1.36C327,93.69,335,76.84,332.78,85.7s-27.94,43.46-29.27,47.45,2.22,19.51,4.88,28.82,5.32,23.5,10.2,44.79c.74,3.23,1.74,6.67,2.91,10.2l-4-5.5-6-19.29-2.65-3.64C314.13,208.35,321.75,230.4,332.54,249.35Z"/><path class="cls-5" d="M346.54,269.61c-3.78-.9-4.45-3.65-4.45-3.65A23.76,23.76,0,0,0,346.54,269.61Z"/><path class="cls-8" d="M377.12,237.36s4-14.19,6.21-15.08a30.88,30.88,0,0,1,6.21-1.33l2.66,6.65-2.66,13.75Z"/></svg>