<svg id="Layer_1" data-name="Layer 1" xmlns="http://www.w3.org/2000/svg" width="600" height="589" viewBox="0 0 600 589"><defs><style>.cls-1{fill:#f59fc2;}.cls-2{fill:#ed7eab;}.cls-3{fill:#f5d3e1;}.cls-4{fill:#f5bfd5;}.cls-5{fill:#ed5191;}.cls-6{fill:#fff;}.cls-7{fill:none;stroke:#ed5191;stroke-miterlimit:10;stroke-width:2px;}</style></defs><title>premio_leccion_5_4</title><path class="cls-1" d="M170.21,239.3s-15.75-23.44-65.32-39.19-50.24,11.34-43.81,18.06c8.84,9.22,78,28.05,81.46,40.73Z"/><path class="cls-1" d="M134.47,266.58s-30-26.51-96.83-31.51c-31.12-.77-23.44,21.52-21.9,27.67s6.15,12.3,20.75,15,74.55,18.06,78,21.9Z"/><path class="cls-1" d="M114.49,307.31s-81.08-22.29-84.92.77,23.06,30.74,47.26,30,43.42-.77,43.42-.77Z"/><path class="cls-2" d="M113.27,222.86c-27.68-7.33-43.38-15.45-52-21.37C56.57,207.1,58,215,61.08,218.16c8.84,9.22,78,28.05,81.46,40.73l13.09-9.27C148.39,239.6,135.67,228.79,113.27,222.86Z"/><path class="cls-2" d="M125.76,281c-16.49-11.19-70.18-23.93-93.38-27.79-11.31-1.88-14.85-6.89-15.32-11.84-5.81,6.88-2.31,17.45-1.33,21.39,1.54,6.15,6.15,12.3,20.75,15s74.55,18.06,78,21.9Z"/><path class="cls-2" d="M115.76,313.9c-20.13,5.87-59.83,4.48-75.79,1.22-6.78-1.39-9.5-4.47-10.22-7.82-.07.26-.13.51-.18.78-3.84,23.06,23.06,30.74,47.26,30s43.42-.77,43.42-.77Z"/><path class="cls-1" d="M262.05,216.48s0-40.57,44.56-89.79c28.55-30,43.71-20.09,57.68-9.45s-3.14,16.1-17.77,30.73-49.88,52.54-45.89,75.82Z"/><path class="cls-1" d="M304.48,222.11s23.69-47.38,89.33-87.78c29.91-17.87,47.77-2.72,52.43,12s-7,22.53-24.08,31.85S339,228.71,335.55,240.36Z"/><path class="cls-1" d="M341.77,244.63a238.32,238.32,0,0,1,66-34.57c31.85-10.49,41.73-8.33,47.77,6.6,6.6,16.31,3.88,20.2-39.62,27.19-48.43,7.78-64.47,24.86-64.47,24.86Z"/><path class="cls-2" d="M351.48,268.71s16-17.07,64.47-24.86c43.5-7,46.22-10.87,39.62-27.19a35.57,35.57,0,0,0-1.85-3.91c-33.91,7-89.86,29.07-109.82,37.17Z"/><path class="cls-2" d="M409,127.66c17.93,15.75,20,24.19,4.67,30.74-32.39,13.66-80.82,50.29-102.7,67.5l24.62,14.46c3.5-11.65,69.52-52.82,86.61-62.14s28.74-17.09,24.08-31.85C442.43,134.31,429.79,122,409,127.66Z"/><path class="cls-2" d="M300.63,223.79c-4-23.28,31.26-61.19,45.89-75.82s31.74-20.09,17.77-30.73c-10.56-8-21.81-15.68-39-5.95,11.32,4.67,16.23,11.87,4.94,22.25C288.52,171.88,280,201.41,276,219.12Z"/><path class="cls-3" d="M168,375.22l-4.53,27.61s-32.14-3.17-32.59,20.37l44.36.45s7.24,1.36,9.05-9.05,7.7-31.23,7.7-31.23Z"/><path class="cls-1" d="M331.4,361.64l-.91,19.92s-22.63-5.43-20.82,14c0,0,25.8,9.51,32.14,1.36l2.72-34Z"/><path class="cls-1" d="M163.46,402.83l-.82-.06c.7,5.78-.72,9-13.14,11.35-8.49,1.62-12.61-.26-14.6-2.65a18.4,18.4,0,0,0-4,11.73l44.36.45s7.24,1.36,9.05-9.05,7.7-31.23,7.7-31.23l-24-8.15Z"/><path class="cls-3" d="M357.82,261.7c14,59.86-21.95,115.72-91.12,126.36C197.2,398.76,126.65,381,113,333.52S126.33,240,209.51,217.81C299.3,193.86,349.28,225.1,357.82,261.7Z"/><path class="cls-3" d="M354.72,286.14s26.53-28.74,119-10.69c74.8,14.74,94.7-33.9,98-41.64s3.68-10.69,7-8.84-.91,14.26-2.58,19.53c-4.42,14-4.79,35.38-40.53,56s-47.54,48.64-124.55,66-99.49-5.16-99.49-5.16S349.56,339.21,354.72,286.14Z"/><path class="cls-4" d="M535.65,300.52c35.74-20.64,36.11-42,40.53-56,1.19-3.77,3.67-11.16,3.8-15.76-4.87,16.62-23,53.82-89.7,71.78,0,0-4.07,21.28-24.44,22.63S395.68,320,353.58,312.75a26.42,26.42,0,0,0-4.62-.37c-12.11,34.22-37.36,48.94-37.36,48.94s22.48,22.48,99.49,5.16S499.91,321.15,535.65,300.52Z"/><path class="cls-4" d="M344.61,237.05c-.88,27.78-4.33,89-102.84,109.19-74.89,15.35-114.39-13.42-132.07-33.54A84.26,84.26,0,0,0,113,333.52c13.62,47.51,84.18,65.24,153.69,54.55,69.17-10.64,105.08-66.51,91.12-126.36A55.54,55.54,0,0,0,344.61,237.05Z"/><path class="cls-3" d="M453.48,303.46s-2.21,1.84-.37,5.16S464.3,333,503.36,331.5c7.74-.74,8.52,2.27,8.91,11.13,1.11,25.6,2.9,51.67,17.07,52.32,13.74.63,42.43,3.22,31.74-6.36-7.37-5.53-19.16-6.26-19.16-6.26S532.33,327,532,320.41s-.74-8.11-19.9-14S469.32,288,453.48,303.46Z"/><path class="cls-3" d="M365,295s-16.58,18.06-2.58,35.38c10.32,10.32,31.69,15.85,33.16,14.74s1.11,4.79,7,8.84l-4.05,51.22s-1.47,6.26,6.26,8.48S443.16,424,450.9,418.8s-11.79-11.42-11.79-11.42,7.74-58.59,3.68-75.17c0,0,.74-5.16-15.85-14.62C411.48,308.75,391.2,271,365,295Z"/><ellipse class="cls-5" cx="131.41" cy="320.63" rx="4.02" ry="1.94" transform="translate(-142.71 108.66) rotate(-30)"/><path class="cls-4" d="M520.43,334.1c.74-10.39-3-15.21-14.84-18.18-9.05-2.26-39.22-8.19-53.06-10.88a4.56,4.56,0,0,0,.58,3.59C455,311.94,464.3,333,503.36,331.5c7.74-.74,8.52,2.27,8.91,11.13,1.07,24.51,2.76,49.44,15.34,52.08C528.2,376.76,519.89,341.66,520.43,334.1Z"/><path class="cls-4" d="M422.39,370.24c3.17-22.18-5-42.1-28.52-51.15a108.77,108.77,0,0,1-32.09-19.62c-4,6.43-9.07,18.84.69,30.9,10.32,10.32,31.69,15.85,33.16,14.74s1.11,4.79,7,8.84l-4.05,51.22s-1.47,6.26,6.26,8.48c2.44.7,7.16,2,12.72,3.25C418.77,402.42,420.58,382.88,422.39,370.24Z"/><path d="M299.67,248.79c1.26,8.21-13,13.72-17.7,13.36-13.46-1-35.44-8.82-34.74-18.61.59-8.28,12.43-10.42,26.57-8.39C290.73,237.59,299,244.24,299.67,248.79Z"/><path d="M128.7,297.13c3.21,6.5,16.17,3.3,19.36.68,9.12-7.47,24.56-34.32,20.34-38.45-5.19-5.07-13.26-.72-22.36,7.83C135.16,277.43,126.92,293.53,128.7,297.13Z"/><ellipse class="cls-6" cx="274.43" cy="240.05" rx="4.16" ry="9.87" transform="translate(-12.04 465.6) rotate(-79.39)"/><ellipse class="cls-6" cx="148.27" cy="275.36" rx="9.87" ry="4.16" transform="translate(-160.13 223.4) rotate(-52.14)"/><path class="cls-4" d="M134.89,318.62s3.7-9.64,25.82-10.94,50,3.91,102.17-24.73c19.52-10.41,40.35-6.51,40.35-6.51s-28,11.06-46.2,23.43-40.35,23.43-91.76,15.62C165.27,315.49,141,310,134.89,318.62Z"/><path class="cls-7" d="M129.06,322.71s10-13.58,43.91-7.24,63.83,0,102.3-27.16c24.44-14.94,38-10.41,38-10.41"/></svg>