<svg id="Layer_1" data-name="Layer 1" xmlns="http://www.w3.org/2000/svg" width="600" height="589" viewBox="0 0 600 589"><defs><style>.cls-1{opacity:0.22;}.cls-2{fill:#ffbc3a;}.cls-3{fill:#f7a200;}.cls-4{fill:#e88b00;}.cls-5{fill:#f2a533;}.cls-6{fill:#f7d088;}.cls-7{fill:#ffe7b8;}.cls-8{fill:#9d6000;}.cls-9{fill:#fff;}.cls-10{fill:#8c3a00;}.cls-11{fill:#edd7ab;}.cls-12{opacity:0.1;}</style></defs><title>premio1-4</title><polygon class="cls-1" points="300.64 472.47 447.54 472.47 506.56 490.2 421.17 507.05 332.03 507.05 293.1 486.66 300.64 472.47"/><path class="cls-2" d="M178.73,133.47S50.91,61.61,26.4,111.18c-3.25,6.57-4.69,55.14,41.36,81.37,19.2,11.15,23.52-2.46,28.08-12.64,2.89-6.45,12.29-22.91-6.91-37.16l-6.78-4.27s2.74-3.84,23.17,4.21,49.25,21.11,49.25,21.11Z"/><path class="cls-3" d="M66.36,117.07s6.46,13.42,16,21c0,0-.43.8-.68.55C78.67,135.61,70.48,129.64,66.36,117.07Z"/><path class="cls-3" d="M95.85,179.91c1.79-4,6.08-11.84,4.51-20.62-12.08-11.94-31.75-6.06-31.75,1.47,0,10.81-7,3.13-21.63-22.19-15.44-26.69-8.66-38-1.43-42.77-8.45,2.47-15.17,7.32-19.16,15.38-3.25,6.57-4.69,55.14,41.36,81.37C87,203.7,91.28,190.09,95.85,179.91Z"/><path class="cls-2" d="M359.17,140.88s-23.11-10-49.29-33.89-116.3-27.73-166.36,70.86-15.4,117.84-2.31,123.23,33.89-8.47,68.55-43.9c0,0,6.16-4.62,12.32,24.65S259.81,350.37,301.4,365c0,0,1.78,39.63,7.94,55.81s-16.87,24.1,22.87,45.86c29,15.89,42.36,8.47,42.36-3.08s12.32-17.71-9.24-38.51l13.86-27.73,36.2-20.8s19.25,36.2,25.42,54.68,3.08,59.3,13.86,60.84c6.16.88,18.12-1.53,27.19-.45,20,2.38,8.48-5.44,7-10.35-3.32-10.68-7.72-24.69-1.92-71.54,0,0,9.39-43.54,7.7-60.46-3.3-33-8.46-55.81-9-64.18a13.8,13.8,0,0,1,1.15-6.39l4.09-9.26S475.08,186.7,359.17,140.88Z"/><path class="cls-4" d="M222.07,281.82s-19.25,51.22-28.5,61.62l9.24,52s9.4,17.88,15,19.64a24.22,24.22,0,0,0,22-3.47s5.78-2.31-1.16-22l-6.93-25.39,38-17.84S226.26,303.56,222.07,281.82Z"/><path class="cls-4" d="M128.88,286.44l16.17,70.86s12.16,22.89,19.43,20.87l3.64-2.42-1.62-5.25s3.64,8.48,14.14,5.66c6.73-1.81,6.46-4,3.64-20.6s-15.35-71.9-15.35-71.9Z"/><path class="cls-3" d="M484.21,491c1-3,.76-7.08-1.85-12.48-9-18.65-20.58-32.16-16.72-70.75,0,0,3.86-2.57-6.43-43.73l1.29-35.37s-7.33,26.16-45,48.24c4.51,8.63,20.16,38.8,25.33,54.29,6.16,18.48,3.08,59.3,13.86,60.84,6.16.88,18.09.25,27.19-.45A7.84,7.84,0,0,0,484.21,491Z"/><path class="cls-5" d="M147.07,302.4a15.43,15.43,0,0,1-5.94-1.13,36.12,36.12,0,0,1-18.7-16.14c-6.52-12-7.06-29-1.61-50.67l.14-.54.26.49c5.26,10,10.2,15.77,14.3,16.59a5.14,5.14,0,0,0,4.45-1.24c3.15-2.62,6-10.38,9.34-19.37,5.63-15.21,12.63-34.13,24.64-37.11,5.88-1.46,12.54,1.09,19.8,7.59,19.22,15.56,24.93,64.23,25,64.72v.09l-1,1.09-.12-.33c-2.57-6.84-4.81-8.79-6.25-9.22a1.77,1.77,0,0,0-1.51.12C179.57,288.33,160.12,302.4,147.07,302.4Zm-26-67.29c-8.59,34.59-1.79,56.71,20.2,65.77C154,306.11,174.41,293,209.6,257a2.15,2.15,0,0,1,1.89-.22c1.51.44,3.84,2.39,6.42,9.16l.37-.42c-.29-2.42-6.14-49.22-24.82-64.34h0c-7.15-6.4-13.68-8.92-19.42-7.5-11.79,2.93-18.75,21.73-24.34,36.85-3.35,9-6.23,16.85-9.47,19.55a5.54,5.54,0,0,1-4.81,1.33C131.2,250.58,126.38,245.1,121.09,235.11Z"/><path class="cls-3" d="M193.6,201c-35.06-31.37-42.44,39.67-53.51,48.9-6.3,5.25-13.79-5.32-19.07-15.41-12.62,50.11,10.14,62.42,20.19,66.56,13.09,5.39,33.89-8.47,68.55-43.9,0,0,3.62-2.71,8.08,9.2l.67-.76S213,216.72,193.6,201Z"/><path class="cls-3" d="M208.72,258.23c-8.68-9.47-28.39-27.91-45.09-20.89-19.24,8.08-12,46.92,7,54.9C181,285,193.5,273.72,208.72,258.23Z"/><path class="cls-3" d="M373.13,466.8s-4.63-4.93-7.11-20.4-6.46-11.15-15.12-20.43-2.82-59.41,16.36-74.26c6.19-6.19-.62-7.43-.62-17.95s-22.28-19.8-22.28-35.28,2-41.27,6.92-50.56-23.17,13.28-25.73,53.4c-14.51,24.76-17.63,31.22-21.34,64-2,17.9-2.07,37.58,9.39,61.46-6.83,8.54-11.1,31.58,36,47.41C372.36,480.62,373.13,466.8,373.13,466.8Z"/><path class="cls-3" d="M303.06,376.89s24.86-109.57,48.22-129c0,0-33.83,49.62-53,115.31L301.4,365Z"/><path class="cls-3" d="M321.28,303.47c-41.83-15.37-46.1-62.74-54.21-51.22-6.46,9.18-6.83-36.71-22.19-46.52S229.09,181,208.61,145.55c-11-19-2.3-33.27,8.12-42.36-15.07,6.77-37.57,18-67,62,18.78-17.5,35.43-24.33,48.66-2.13,26.2,44,16.83,54.62,25.61,115.24a91.54,91.54,0,0,0,4.22,21c12.34,25.8,39.48,53.87,73.21,65.73C301.4,365,323,304.09,321.28,303.47Z"/><path class="cls-3" d="M300,118.85s20.77,1.52,46.86,15.45C346.87,134.3,317,113.53,300,118.85Z"/><path class="cls-3" d="M480.7,277.66s1.92,9.6-10.88,39.05c0,0,15.36-30.73,18.57-42.89Z"/><path class="cls-4" d="M332.81,275.3s-8.11,12-9,26.46,3,17.07,3,17.07S326,301.76,332.81,275.3Z"/><path class="cls-4" d="M313.6,435.78s-8.54-18.35-9.82-32.44-4.27-41.4-4.27-41.4,2.56-32.44,26-60.61l-1.71,8.11s-8.54,16.22-12.38,29.88-8.11,30.3-8.11,30.3,3.84,42.25,11.52,61.46S313.6,435.78,313.6,435.78Z"/><path class="cls-3" d="M366.1,426.39a55.29,55.29,0,0,0-2.13,7.68c-.85,4.27.43,9.39-2.13,10.67s-5.12-8.54-5.12-8.54S383.17,385.41,390,376,370.79,415.72,366.1,426.39Z"/><path class="cls-4" d="M404.73,377.74l4.46,5.1c-13.93,7.17-30,14.51-30,14.51l2.7-5.1S393.81,385.26,404.73,377.74Z"/><path class="cls-4" d="M434.37,365.15a86.27,86.27,0,0,1-6.39,6.6c-2.87,2.55-10.39,6.76-18.69,11l14.85-10.61,7.68-4.27Z"/><path class="cls-4" d="M310.61,428.52s-1.71,8.54-2.56,11.52.85,13.23,15.37,21.77,26.89,14.94,35.43,14.51,3.41-4.27,4.27-5.55-5.12-6-5.12-6-6.4-3-9.82-4.27-18.78-5.55-26.46-9.39-9.82-12.8-8.11-15.37Z"/><path class="cls-4" d="M428,371.76s9.82,25.18,11.52,35.85,7.26,32,7.26,44.39,1.28,34.15,7.68,34.57,22.62.85,22.62.85l4.79,4.21s-15.46.91-21.44.91-10.24.85-12.8-10.24-1.71-39.69-5.55-48.23-22.46-51.94-26.59-57.13Z"/><path class="cls-4" d="M204.77,219.62c1.39-2.16,17,38.89,17.29,65.94.19,21,29.44,64.42,77.46,76.38l2.57-6S261.75,336.77,247,316.28,228.46,259.95,204.77,219.62Z"/><path class="cls-4" d="M224,286.84s-4.26-33.46-30.56-47.6q-1-.55-2.09-1.06s30.73,4.48,37.77,53.14Z"/><path class="cls-6" d="M452.73,342.75c-.4.52-10.34,13.41-18.36,22.4l-2.54,2.76-7.68,4.27L409.3,382.79l-.1.05-4.46-5.1.63-.44c11.1-7.68,25.18-12.38,25.18-12.38C434.33,361.57,452.12,343.37,452.73,342.75Z"/><path class="cls-7" d="M409.2,382.84l.1-.05-.09.06Z"/><path class="cls-7" d="M490.87,269.46l-22.76,49.37-9.39,13.66-6.83,13.66-17.52,19c8-9,18-21.89,18.36-22.4-.61.62-18.4,18.82-22.18,22.18,0,0-14.08,4.69-25.18,12.38l-.63.44-4.49-5.13-11.1-18.35,4.27-.85-11.52-22.62L381.46,315l5.12,2.13-3.84-25.18-1.28-13.23,3.84,3-3-21.34,13.23-28.17,33.29,14.94,19.63.43Z"/><path class="cls-2" d="M553.25,175.88s-13.14,47.93-28.76,68.38c-3.6-6.9-12.36-16.43-28.36-10.43,0,0-2.32,8.35-16.7,3.25a56.9,56.9,0,0,0-13.67-3.38,26.2,26.2,0,0,0-3.22-.12A24,24,0,0,0,455,235a36.6,36.6,0,0,0-7.09,3.5c-9.74,6-33.4-7-33.4-7l-34.33-23.66s-13.92-17.17-15.31-25.52-3.25-35.26-3.25-35.26,6.5-8.82,11.13-9.74c0,0-6-2.78-8.35-1.39l-.27-8,.44-.6q2-3.54,3.9-6.56a88,88,0,0,1,5.83-8.29c1.11-1.39,2.23-2.66,3.35-3.83l.48-.5.49-.49.49-.47.49-.46c.32-.31.65-.6,1-.89l.5-.42.5-.41c.33-.27.66-.53,1-.79s.67-.51,1-.75.68-.48,1-.7.76-.49,1.15-.72l.82-.48c.4-.23.81-.45,1.22-.65s.72-.37,1.09-.54l.47-.22,1.21-.52c14.47-5.89,34.23-2.87,71.14-1,62.11,3.18,70.87,21.5,70.87,21.5Z"/><path class="cls-7" d="M361.24,132.57c-2.49,6.1-3.92,14.25-3.18,27.17l-.72-6.5A36.08,36.08,0,0,1,361,132.9Z"/><path class="cls-7" d="M394.53,238.26c8.09,5.65,17.5,11.44,26.36,16.79-35.74-17.2-57.15-44.13-57.15-44.13l-.75-6.77C366.62,215.67,374.55,224.31,394.53,238.26Z"/><path class="cls-7" d="M523.79,245.16c-15.92,19.9-12,26.64-12.81,34.61-.41,4.16-16.57,6.16-32,6.28l-.75-.57c-20.32-14.74-2-19.12-7.35-20.84-33.25-2.12-14.56-29.35-14.56-29.35A9.1,9.1,0,0,1,455,235a24,24,0,0,1,7.57-1.39,26.2,26.2,0,0,1,3.22.12,56.9,56.9,0,0,1,13.67,3.38c14.38,5.1,16.7-3.25,16.7-3.25,16-6,24.76,3.53,28.36,10.43Z"/><path class="cls-2" d="M361,132.9a36.12,36.12,0,0,1,3.07-5Z"/><path class="cls-3" d="M540.06,143.24a412.52,412.52,0,0,0,33.89-47s-4-8.76-34.7,4.78c0,0-16.95.8-25,7.17l18.56,11.94Z"/><path class="cls-3" d="M364.54,127.32l-15.93-19.91a74.44,74.44,0,0,1,10.41-38l10.67-10A4.57,4.57,0,0,1,374,59l10.54,4.22a9.87,9.87,0,0,1,4.82,4.13l11,18.61,12.55,10.82s-21.06,1.18-29.82,9.94S364.54,127.32,364.54,127.32Z"/><path class="cls-4" d="M394,98.45s-11.34-19.34-15.73-19.34-12.75-.8-11.55,2,10,24.3,8,30.28S377.27,102.43,394,98.45Z"/><path class="cls-3" d="M390.55,99.63l.08-.2c-7.71,2.88-13.06,7.55-16.36,13C379.35,106.13,384.48,102.1,390.55,99.63Z"/><path class="cls-3" d="M470.93,264.63c-33.25-2.12-14.56-29.35-14.56-29.35-8.76-1.2-25.9-19.52-31.24-24s-5-19-10.59-20.64-21.91-33.47,11.16-27.49,44.22,37.45,39,58.56.11,17.91.11,17.91c-.29-4.8,5.94-24.21,12.74-28.54,8.35-6.19,1.49-52.71,1.49-52.71S447.2,174.32,430.39,154s-15.46-10.37-31.8-22.72c-15.37-11.62-8.87-29.58-8-31.67-6.06,2.47-11.2,6.5-16.27,12.83-8.11,13.49-18.81,17.34-15.93,51.34,3.48,41.06-.7,48.71,36.19,74.46C412,250.45,435.59,263.32,446.65,271a18.19,18.19,0,0,1,4.69,10.84c.13,2.88,13.59,4.36,27.69,4.26l-.75-.57C458,270.74,476.28,266.35,470.93,264.63Z"/><path class="cls-8" d="M544,184.58c-2-2-3.05,6.18-6,6-7.44-.47-10.1,3-9.64,7,.26,2.23.66,4,2.16,4.63,1.73.75,2.88-.43,3.93-2.21.64-1.09,1.47-3.9,2.36-4.52s2.28,1.09,4.09,0a8.56,8.56,0,0,0,3.72-5C545.17,188.84,545.41,186.06,544,184.58Z"/><path class="cls-8" d="M520.08,199.29c-2.25.34-6.11-.19-7.15,4.36a2.44,2.44,0,0,0,2,2.85c1.4.25,3.07.44,3.59-1.44.26-.93-.31.12,2.32-.84C525.42,202.57,522.52,198.92,520.08,199.29Z"/><path class="cls-8" d="M433,137.38a3.64,3.64,0,0,0-.45-4.07.56.56,0,0,0-.06-.48,7.54,7.54,0,0,0-5.26-3.76c-2.52-.44-4.56.5-6.61,1.82-4.95,3.2-9.31,1.18-12.14,2.28-.6.23-1.67.59-1.9,1.29a2.11,2.11,0,0,0,0,.7,1.38,1.38,0,0,0,.34.57,1.89,1.89,0,0,1-.65,2.4.65.65,0,0,0,.25,1.09c1.73.79,4.41.55,8.41-1.48,2.43-1.24,6.07.82,8.7,1.5C426.74,140,431.14,140.92,433,137.38Z"/><path class="cls-8" d="M455.38,125.43a20,20,0,0,1-2.21.23,3.94,3.94,0,0,1-2.61-1.22.5.5,0,0,0-.28-.45c-1.69-1-4.52-.06-6.4.56a6.86,6.86,0,0,0-2.64,1.71,6.07,6.07,0,0,1-1.77,1.32,6,6,0,0,0-1.33.55c-1.31,1.2.42,2.53,1.37,3.24,2.16,1.62,4.16.77,6.64,1.18,3,.49,4.39,3.28,7.23,3.91,2,.45,4.51.43,5.82-1.24C462,131.63,459.57,125.2,455.38,125.43Z"/><path class="cls-8" d="M462.31,148.94c-1.82-2.18-5.56-3.66-7.43-2.73-3,1.51-4.88-3.63-9.6-.63-2.86,1.81-2.87,4.24-2.43,5.39,1.47,3.84,8.13-.68,9.89,5.29,1.54,5.23,5.46,4.29,6.17.15C459.47,153.17,464.84,152,462.31,148.94Z"/><path class="cls-8" d="M542.58,153.06c-1.64-1.13-2.84-3.18-4.31-3.14-2.18.05-4-.4-3.05,1.25,1.27,2.29,2.15,5.38,4.62,6.36,1,.4,2.48.64,3-.59S543.53,153.72,542.58,153.06Z"/><path class="cls-8" d="M529.65,156.15c0-2.29-4-5.57-6-6.8s.28,2-3.13.17c-.69-.36-.31,1.16-.67,2.29-1.75,5.48,2.15,6.37,7.07,6.79A2.86,2.86,0,0,0,529.65,156.15Z"/><path class="cls-8" d="M527.37,138.46a3.63,3.63,0,0,0-2.47,1.66c-1.47,2.46,1.38,4.47,3.31,4.75,1.4.2,2-1.14,8.24-1.48,7.3-.4-2.86-19.38-5.47-9.89C530.22,136.24,529.56,138.06,527.37,138.46Z"/><path class="cls-8" d="M455.84,165.65s32.33-3.85,17.29-18.08c-14.7-13.91-1.17-17,2.38-15.5,3.78,1.59,16.8,14.55-1,31.56C474.48,163.63,459.92,165,455.84,165.65Z"/><path class="cls-8" d="M451.18,205.06a7.9,7.9,0,0,0-1.79,2.3c-.67,1.06-1,1.1-2.12,1.7-1.71.94-.7,3.29-2,4.29-1.11.86.28,2.72,1.55,2.09.58-.29,2.3.09,2.67,0a3.25,3.25,0,0,0,1.83-1.43,10.54,10.54,0,0,1,3.07-2.95,7.37,7.37,0,0,0,2.24-1.61C459.23,206.12,454,202.95,451.18,205.06Z"/><path class="cls-8" d="M461,202a.52.52,0,0,0-.79.47.56.56,0,0,0,0,.09c-.44,1.41-1,2.58-.77,3.85.06.33-.75.57-.79.7a.45.45,0,0,0,.17.59l0,0,0,0,.1,0a.59.59,0,0,0,.3.1,2,2,0,0,0,1.73-.36,2.51,2.51,0,0,0,.51-.48.5.5,0,0,0,.11-.13v0C462.64,205.48,462.56,203,461,202Z"/><path class="cls-8" d="M443.22,206.48c-2.42-1.64-4.32.51-6.8.12s-4.11-3-6.68-3.47a4.09,4.09,0,0,0-2.56.39,19.08,19.08,0,0,1-1.69.92c-1,.37-1.65,0-2.61-.15a2.31,2.31,0,0,0-2.88,2.5c.19,2.44,3,4,5.13,4.5a9.43,9.43,0,0,0,2.3.2,2.18,2.18,0,0,0,.61,0,11.93,11.93,0,0,0,1.31-.18,9.46,9.46,0,0,0,1.19-.33c1.59-.06,3.25-.67,4.79,0,2,.86,3.29,3.13,5.73,3A4.09,4.09,0,0,0,443.22,206.48Z"/><path class="cls-9" d="M417.73,163.86l41.84,1.5s12-2.11,6,10.53-8.13,23.78-25.88,19.86S415,179.81,417.73,163.86Z"/><path class="cls-9" d="M504.41,165.36l4.21,26.18s16.55,4.21,24.68-26.79C533.31,164.76,511,160.85,504.41,165.36Z"/><path class="cls-8" d="M508.59,163c6.09,1.64,4.31,1.11,31.31,2,0,0-8.7-1.64-13.82-2.44C515,160.84,501.83,161.13,508.59,163Z"/><path d="M505.66,162.84a34.62,34.62,0,0,0-.52,6.76c0,8,3.21,15.17,7.84,15.17s8.38-6.51,8.38-14.53a26.62,26.62,0,0,0-.53-6.29Z"/><path d="M440.55,165.18a24,24,0,0,0-.66,5.66c0,8,3.75,14.53,8.38,14.53s8.38-6.51,8.38-14.53a23.81,23.81,0,0,0-.74-6Z"/><path class="cls-8" d="M483.39,147.88s-4.3,17.77-14.8,18.4C437,168.19,406.13,161,406.13,161s52.2,2.95,58.63,1.84c11.35-2,12.24-7.83,12.73-9.55S480.42,147,483.39,147.88Z"/><path class="cls-8" d="M399.41,160s4.39.2,3.8-1.19.2-2.18-4.19-2.77-3.4-3.17-9.59-1.59-14,3-12.78,6.94,6,4.16,10.39,2.77S393,159.63,399.41,160Z"/><path class="cls-8" d="M420.42,149c1.54-1.35,3.74-2.64,6.12-.62,3.83,3.24,8.1-1.83,8.73,2.73-.42,3.23-6.49,4.82-8.43,5.79a3.66,3.66,0,0,1-1.79.39c-1.68-.07-5-.49-5.41-2.82C419.4,151.14,419.55,149.78,420.42,149Z"/><path class="cls-8" d="M535.87,164.78s-17.12-.84-26.31-2.91c-4.86-1.09-3.92-6.22.17-9.12,9-6.38,5.89-22.19,1.41-18.71-6.87,5.33-12.93,31.41-4,30.18C510.26,163.81,535.87,164.78,535.87,164.78Z"/><path class="cls-8" d="M412.09,193.12s-11.06-3.85-7,6,10,3,12.44,4c5.13,2.06,4.89-7.47,1.07-8.92A15.38,15.38,0,0,0,412.09,193.12Z"/><path class="cls-10" d="M493,252.55a27.2,27.2,0,0,0-4.33-.62c-1.55,0-4.33-4.64-8.66-6.8s-9.9-4.95-11.44-5.88-7.42-1.86-7.42-1.86-1.86-2.17.93-3.09,5.57-2.17,9.28-1.55,16.7,2.47,20.1,2.78,8-2.47,13.3-2.47a35.18,35.18,0,0,1,9.9,1.55s.62,1.55-1.24,3.09-5.88,2.78-8.66,4.33-9.28,9.28-9.28,9.28Z"/><path class="cls-8" d="M472.69,204.32c-1.38-.4-2.63,2.13-3.22,3.05a19.92,19.92,0,0,0-1.67,3.3c-.25.63-.45,1.39-1.13,1.73a1.6,1.6,0,0,1-.49.11.54.54,0,0,0-.6,0,3.66,3.66,0,0,0-1.84,3.72c.14.93.69,2.15,1.82,1.71.92-.35,1.81-1.66,2.47-2.31,1-.94,1.92-1.86,2.85-2.81a8.61,8.61,0,0,0,2.88-5.21C473.86,206.66,473.9,204.67,472.69,204.32Z"/><path class="cls-8" d="M474.77,189.27a8.29,8.29,0,0,0-2.35-2,2,2,0,0,0-2.35.4,15.53,15.53,0,0,0-.94,2.19c-.42,1-.88,2.07-1.25,3.13a6.83,6.83,0,0,0-.29,1.1,4,4,0,0,0-.23,1,2.34,2.34,0,0,0,1.81,2.67,1.9,1.9,0,0,0,1.52-.61,8.15,8.15,0,0,0,1-1.35c.42-.59.55-1.1.88-.38a5.32,5.32,0,0,1-.11,3.58c-1.8,3.38.74,3.77,1.23,4.06a.56.56,0,0,0,.66-.12c1.27-1.21,2.38-3,2.47-7.28C476.95,191.77,475.35,190.54,474.77,189.27Z"/><path class="cls-3" d="M504.18,166.87s2.17,22.27,4.33,34.33,6.19,33.4,6.19,33.4,2.47-.31,2.47-3.71-4-21.65-6.19-30.93S505.11,177.39,504.18,166.87Z"/><path class="cls-11" d="M489.64,252.86c-1.86,0-18.56,9.28-21.34,11.44l3.4,2.78s5.26-3.71,8-5.26,7.42-4.33,11.44-4,15.77,9.28,18.25,10.52,2.47-.62-.93-4-11.13-11.13-12.68-11.75S489.64,252.86,489.64,252.86Z"/><path class="cls-8" d="M466.87,266.92l22.29-12.45a3.76,3.76,0,0,1,3.57-.06c2.91,1.51,13.78,10.19,17.7,13.86l-21-10.55a1.89,1.89,0,0,0-1.41.08l-17.73,8.61a6.85,6.85,0,0,1-3.54.52Z"/><path class="cls-4" d="M417.73,163.86s-2.63,12.29,4.79,21.88,24.74,10.52,28.15,9.59,0,3.71-9.28,1.86-18.25-4.33-22.58-12.06-3.09-22.27-3.09-22.27Z"/><path class="cls-4" d="M533.31,164.76s-3.76,20.67-16.75,25.93c0,0,11.13.62,16.7-16.7l2.62-9.2Z"/><path class="cls-3" d="M390.55,99.63l.08-.2c-7.71,2.88-13.06,7.55-16.36,13C379.35,106.13,384.48,102.1,390.55,99.63Z"/><path class="cls-6" d="M479,286c-14.1.11-27.56-1.38-27.69-4.26a18.16,18.16,0,0,0-4.69-10.84c-11.06-7.63-34.66-20.5-52.12-32.69-36.88-25.75-32.7-33.4-36.18-74.46-2.22-26.15,3.6-34.47,10.09-43.05q-1.92,3-3.9,6.56l-.44.6.27,8c2.32-1.39,8.35,1.39,8.35,1.39-4.64.93-11.13,9.74-11.13,9.74s1.86,26.91,3.25,35.26,15.31,25.52,15.31,25.52l34.33,23.66s23.66,13,33.4,7A36.6,36.6,0,0,1,455,235a9.1,9.1,0,0,0,1.38.31s-18.68,27.23,14.56,29.35c5.36,1.72-13,6.1,7.35,20.84Z"/><path class="cls-7" d="M496.14,233.84,494,223.65h-4.87l-2.78,4.87-.46,6.4a56.2,56.2,0,0,0,6.34.93C492.89,235.69,496.14,235.69,496.14,233.84Z"/><polygon class="cls-12" points="142 458.39 189.38 457.11 264.93 459.67 280.3 467.35 262.37 478.88 194.5 489.12 112.54 489.12 97.17 473.75 142 458.39"/></svg>