<svg id="Layer_1" data-name="Layer 1" xmlns="http://www.w3.org/2000/svg" width="600" height="589" viewBox="0 0 600 589"><defs><style>.cls-1{fill:#c49b8a;}.cls-2{fill:#a38173;}.cls-3{fill:#917366;}.cls-4{fill:#fff;}.cls-5{fill:#b58f7e;}</style></defs><title>premio3-1</title><path class="cls-1" d="M503.06,386.9s-1.34,27.39,2.67,34.73,10.69,38.07,24,37.41,19.37-2.67,21.37-15.36,18-118.23-4.68-128.92c0,0-18-16-28.05-2.67S503.06,386.9,503.06,386.9Z"/><path class="cls-2" d="M551.15,443.68c.9-5.72,4.65-30.3,6.42-56.56-8.92,10-19.65,12.77-30,2-5.06-5.25-16.34-19.5-21.76-26.41-1.81,13.45-2.75,24.16-2.75,24.16s-1.34,27.39,2.67,34.73,10.69,38.07,24,37.41S549.15,456.37,551.15,443.68Z"/><path class="cls-3" d="M330,400.57s18.48,7.78,18.48,25.83S357,454,370.24,438.09s7.43-51-5.31-57.35S331.15,388,330,400.57Z"/><path class="cls-1" d="M143.95,441.27s-17.07,79.38-7.68,81.94,40.12,6.83,41.82-6S187.48,474.56,202,472s28.17-11.95,32.43,16.22,1.71,38.41,23.9,35,22.19-6.83,31.58-32.43,41.82-78.52,77.67-86.21,71.7-8.54,103.28-3.41,74.26-1.71,66.58-57.19-21.34-203.14-152.78-216.8S170.41,240.69,170.41,240.69,158.46,419.08,143.95,441.27Z"/><path class="cls-2" d="M537.43,344c-1.27-9.15-2.71-20.85-4.81-34-3.7,4.36-7.43,10.47-11,19-19.54,46.52-116.29-19.54-136.76-2.79-40,31.63-40.55,52.3-67.91,38.14-12.14-6.28-38.14,40-53,63.26-32.56,40.93-92.1,28.84-117.22,29.77-2.07.08-4.08.27-6.07.51-4.43,23.41-11,63.57-4.37,65.38,9.39,2.56,40.12,6.83,41.82-6S187.48,474.56,202,472s28.17-11.95,32.43,16.22,1.71,38.41,23.9,35,22.19-6.83,31.58-32.43,41.82-78.52,77.67-86.21,71.7-8.54,103.28-3.41S545.11,399.45,537.43,344Z"/><path class="cls-1" d="M211.16,238.62s28.05-6,45.42-20c0,0-24-120.9,118.9-143.61,0,0,9.35,1.34,6.68,29.39,0,0,18,47.43,4.68,79.49s-60.78,67.46-106.21,61.45c0,0-4,19.37,8.68,40.08L269.94,279a107.61,107.61,0,0,1-38.14-22Z"/><path class="cls-1" d="M88.85,278.29a2.34,2.34,0,0,1-3.65-2.85c6.59-11.21,16-25.67,24.75-34,15.82-14.88-3.26-31.17.47-66.05s1.86-45.12,27.44-74.42S163.46,65.66,183,68.45s21.4,12.09,24.65,34.89,21.4,48.84-1.4,90.71-38.14,54-38.14,54S131.66,237.92,88.85,278.29Z"/><path class="cls-2" d="M282.85,212.34s32.25-80,68.84-100.47c0,0,11.16-9.3,2.48,25.43s15.51,56.44-13,67.6S286.57,226,282.85,212.34Z"/><ellipse class="cls-4" cx="208.22" cy="343.84" rx="12.39" ry="7.15" transform="translate(-174.3 467.38) rotate(-76.7)"/><path class="cls-5" d="M113.4,237.32c8.23-5.65,17.86-15.61,12.53-29.32a374.22,374.22,0,0,1-14.27-44.91c-.37,3.77-.75,7.85-1.23,12.35C107,207.11,122.37,223.44,113.4,237.32Z"/><path class="cls-5" d="M194.78,207.37s-49.62,12.4-38.45-55.2c7.19-43.57,10.78-68.31,11.76-82.9-7.57,3.22-13.32,12.39-30.21,31.74a174.1,174.1,0,0,0-11.27,14.15c0,.15,0,.28-.05.43-7.44,90.55,25.6,118.72,25.6,118.72s2.56-2.57,33.24-6C185.39,228.3,186.71,213.58,194.78,207.37Z"/><path class="cls-1" d="M308.78,350.53A124.21,124.21,0,0,0,184.57,226.32c-68.6,0-142.1,70.63-142.1,138,0,54.67,73.5,110.41,142.1,110.41A124.21,124.21,0,0,0,308.78,350.53Z"/><path class="cls-5" d="M306.53,363.15c-19.7,6.85-18,66-84.47,75.57-32,4.63-45.28,3.72-50.24-11.16s-13-8.06-24.81-9.92-10.54-37.83-21.09-39.69-3.72-23.57-16.13-25.43-26.67-30.39-14.26-65.74c3.93-11.21,3.81-19.36,1.81-25.27C65.29,288.27,42.47,326.8,42.47,364.34c0,54.67,73.5,110.41,142.1,110.41,46.46,0,85.12-23.36,108.24-63.3C299.1,400.58,314.2,360.48,306.53,363.15Z"/><path class="cls-3" d="M116.89,407.37c4.56-4.64,12.25-13.22,14.68-20.62a2,2,0,0,0-1.16-2.4c-5.06-2.08-19.44-7.19-37.15,1.95-1,.53-1,2.08-.21,2.94,2.84,3.2,11.87,12.56,17,18A4.74,4.74,0,0,0,116.89,407.37Z"/><path d="M64.14,341.49s4,36.89-11.9,31.73-21-12.3-8.73-37.68S64.14,314.52,64.14,341.49Z"/><path class="cls-3" d="M117.29,412.49s.79,23.4-16.66,14.68c0,0,45.22,33.32,57.91-2.78C158.54,424.39,132,435.5,117.29,412.49Z"/><path d="M228.55,338.87c-1.33-11.7-15.63-35.34-34.9-35.34s-35.48,25.94-34.9,35.34c.88,14.4,10,36.21,34.9,35.34C212.91,373.53,229.95,351.12,228.55,338.87Z"/><ellipse class="cls-4" cx="193" cy="323.6" rx="13.31" ry="14.83"/><path class="cls-4" d="M59.93,334.33c-1.36,3.66-6.84,8.17-9.92,6.82s-3.75-5.91-1.21-11.7,7.09-9.4,10.16-8.05S61.13,331.11,59.93,334.33Z"/><path class="cls-2" d="M148.88,235.28a152.3,152.3,0,0,1,42.3-6.49q5.38,0,10.74.45a105.17,105.17,0,0,1,10.66,1.52A82.4,82.4,0,0,1,223,233.62a73.59,73.59,0,0,1,9.85,4.37l-.5,0q9.45-7.76,19.24-15.08c3.27-2.44,6.56-4.84,9.95-7.1,1.69-1.13,3.41-2.24,5.17-3.27.88-.51,1.78-1,2.7-1.43a12.31,12.31,0,0,1,1.42-.57,2.33,2.33,0,0,1,1.5-.11,2.31,2.31,0,0,0-1.48.16,12.23,12.23,0,0,0-1.39.61c-.9.46-1.78,1-2.65,1.51-1.73,1.07-3.4,2.22-5.06,3.4-3.31,2.36-6.56,4.81-9.78,7.3s-6.41,5-9.57,7.57-6.34,5.11-9.47,7.7l-.23.19-.27-.14a72.67,72.67,0,0,0-9.74-4.26,91,91,0,0,0-10.27-2.79,104.22,104.22,0,0,0-10.54-1.56q-5.31-.48-10.66-.51a156.4,156.4,0,0,0-21.31,1.45A164.74,164.74,0,0,0,148.88,235.28Z"/><path class="cls-2" d="M351.69,111.86A208.91,208.91,0,0,0,334,128.94a244.41,244.41,0,0,0-15.85,18.76,200.57,200.57,0,0,0-25,42.09c-6.43,15-10.69,31.06-11.43,47.41a120.43,120.43,0,0,0,7.61,48.17l-2.08-5.79-1-2.9-.82-3-1.62-5.94-1.18-6a112.47,112.47,0,0,1-1.63-24.56c.58-16.47,4.89-32.65,11.28-47.77a197.5,197.5,0,0,1,25.34-42.16A225.72,225.72,0,0,1,351.69,111.86Z"/></svg>