<svg id="Layer_1" data-name="Layer 1" xmlns="http://www.w3.org/2000/svg" width="600" height="589" viewBox="0 0 600 589"><defs><style>.cls-1{fill:#c49b8a;}.cls-2{fill:#b58f7e;}.cls-3{fill:#a38173;}.cls-4{fill:#917366;}.cls-5{fill:#fff;}</style></defs><title>premio3-4</title><path class="cls-1" d="M518.57,271.45a215.41,215.41,0,0,0-27.38-6.17c6.26-6.41,4.54-10.17,4.54-10.17-5.57,4.59-12.88,7.18-20,8.64-37.66-1.64-34.53,13.95-121.6-73.76C250.79,85.9,131.62,371,210.06,438.15c0,0,52,74.67,227.8,31.68S575.18,287.76,518.57,271.45Z"/><path class="cls-2" d="M535.07,280l-.54,2.72s28.84,53.79-39,96.67S386.41,381,369.26,349.8c-15-27.21-130.2,7.31-106,122.18,35.33,12.12,90.94,18.32,174.61-2.15C595.72,431.21,580.78,315.09,535.07,280Z"/><path class="cls-1" d="M386.72,384.71A114.65,114.65,0,0,0,272.06,270.06c-63.32,0-106.56,42.22-106.56,105.54s53.84,120.7,111.82,119.51C340.63,493.82,386.72,448,386.72,384.71Z"/><path class="cls-1" d="M180.88,334.18s-18.93,14.2-28.4,41.42c-2.37,9.47-5.92-16.57-46.74-11.83S5.16,428.85,32.38,482.09c16.57,30.77,111.82,7.69,141.41-66.27Z"/><path class="cls-3" d="M214,457.24s6.51,26.62,10.65,32.54c0,0-65.08,10.06-46.74,28.4,9.47,11.24,129-4.14,142.59-2.37s16-7.1-10.65-17.16-44.37-21.3-44.37-21.3Z"/><path class="cls-4" d="M348.32,120s-11.83-.59-14.79,16.57S327,183.9,327,183.9s13,12.42,22.48,9.47S357.19,123,348.32,120Z"/><path class="cls-2" d="M294.47,433.53c-49.49,1-95.45-48-95.45-102,0-16.28,3.37-30.91,9.53-43.43-26.93,18.13-43,48.88-43,87.51,0,63.32,53.84,120.7,111.82,119.51,63.31-1.29,109.39-47.08,109.39-110.4a115.19,115.19,0,0,0-1.86-20.5C374.73,405,339.78,432.6,294.47,433.53Z"/><path class="cls-3" d="M209.67,384.33l27.57-32.74s5-11.64.46-18.82a3.1,3.1,0,0,1,2.24-4.87c6-.49,15.84.59,26.76,9.38a17.83,17.83,0,0,1,6.56,12.95,62.4,62.4,0,0,1-.79,15.41,4.16,4.16,0,0,1-7.11,2l-5.12-5.46a14.61,14.61,0,0,0-8.49-4.46L244,356.57a8.44,8.44,0,0,0-7.54,2.72l-25.69,28.77Z"/><path class="cls-3" d="M212.18,379.82c-4.48-.49-12.36-1-16.9.95a1.22,1.22,0,0,0-.43,1.72,40.64,40.64,0,0,0,20.81,19.93c.78.34,1.43-.38,1.4-1.19-.13-3-.88-12.23-1.25-17.54A4.33,4.33,0,0,0,212.18,379.82Z"/><path class="cls-4" d="M533.51,262s23.07,15.38,34.91,45c5.32,11.83-33.55,15.17-43.19-11.83C516.35,270.28,533.51,262,533.51,262Z"/><path class="cls-3" d="M277.32,495.11a122.94,122.94,0,0,0,23.55-3,108.76,108.76,0,0,0,22.42-7.61A98.51,98.51,0,0,0,360,455.3a107.14,107.14,0,0,0,12.32-20.18,127.62,127.62,0,0,0,8-22.3,144.41,144.41,0,0,0,4-23.38A194.47,194.47,0,0,0,385,365.7a194.72,194.72,0,0,1-.27,23.79A144.24,144.24,0,0,1,381,413a115,115,0,0,1-20.22,42.9,98.39,98.39,0,0,1-37.15,29.33A108.8,108.8,0,0,1,301,492.62,123.19,123.19,0,0,1,277.32,495.11Z"/><path class="cls-3" d="M272.06,270.06a133.47,133.47,0,0,0-21,1.91,114.32,114.32,0,0,0-20.31,5.34,97.8,97.8,0,0,0-35.33,22.06,96.16,96.16,0,0,0-22.53,35,111,111,0,0,0-5.48,20.26,129.92,129.92,0,0,0-2,21,130.17,130.17,0,0,1,1.47-21,111.06,111.06,0,0,1,5.24-20.45,95.81,95.81,0,0,1,22.55-35.46,97.41,97.41,0,0,1,35.77-22.06,114.13,114.13,0,0,1,20.49-5.1A133.72,133.72,0,0,1,272.06,270.06Z"/><path d="M188.48,362.27c6.19-13.77,5.39-27.55-1.8-30.78s-19.36,11.59-22.82,18.62c-3.35,6.82-6.8,28,.39,31.23S182.28,376,188.48,362.27Z"/><ellipse class="cls-5" cx="179.32" cy="346.26" rx="5.12" ry="7.35" transform="translate(-210.28 329.99) rotate(-60.23)"/><ellipse class="cls-5" cx="185.76" cy="337.17" rx="2.37" ry="4.16" transform="translate(-199.14 331) rotate(-60.23)"/><ellipse cx="258.53" cy="449.12" rx="25.29" ry="21.69" transform="translate(-209.12 225.85) rotate(-34.55)"/><ellipse class="cls-5" cx="254.08" cy="444.5" rx="7.43" ry="12.17" transform="translate(-257.91 444.35) rotate(-60.23)"/><ellipse class="cls-5" cx="269.97" cy="440.08" rx="2.95" ry="5.2" transform="translate(-203.99 235.36) rotate(-35.11)"/><path class="cls-2" d="M400.39,291.72S386,319.58,404,325.37s25.63-19.08,34.08-7.5c5.79,7.93-22.5,35.58-43.94,21.65C376.23,327.85,396.32,290.65,400.39,291.72Z"/><path class="cls-4" d="M398.61,342.46a45.42,45.42,0,0,0,18.1-.51,31.66,31.66,0,0,0,15.47-9,35,35,0,0,0,8.48-15.76,28.26,28.26,0,0,0,.76-9,24.86,24.86,0,0,0-15.1-20.81,24.55,24.55,0,0,0-17.63-.57,29.65,29.65,0,0,0-14,11.07,45,45,0,0,0-7.13,16.65,45.17,45.17,0,0,1,6.85-16.85,29.88,29.88,0,0,1,14.1-11.39,24.82,24.82,0,0,1,18.07.46,25.7,25.7,0,0,1,13.16,12.47,25.16,25.16,0,0,1,2.4,8.9,29,29,0,0,1-.81,9.18,35.19,35.19,0,0,1-8.73,16,32.15,32.15,0,0,1-15.81,8.93A45.56,45.56,0,0,1,398.61,342.46Z"/><path class="cls-2" d="M306.48,266.62a21.65,21.65,0,0,0,17.34,17.94c15.7,3.29,15.06-2.09,15.62-4.27s-28.81-24-23-46.7C316.46,233.59,305.4,244.17,306.48,266.62Z"/><path class="cls-4" d="M353.27,286.12a85.62,85.62,0,0,0,3.4-14.65,63.82,63.82,0,0,0,.56-15A34.53,34.53,0,0,0,353,242.29a24.12,24.12,0,0,0-10.83-9.83,33.3,33.3,0,0,0-7-2.38l-1.83-.36-1.85-.28-1.85-.2a19.07,19.07,0,0,0-9,1.54,16.61,16.61,0,0,0-5.7,4.62c-3.1,3.9-4.83,8.73-6.09,13.55a102.26,102.26,0,0,0-2.52,14.83,102.43,102.43,0,0,1,2.16-14.92c1.2-4.87,2.86-9.77,6-13.82a16.68,16.68,0,0,1,5.87-4.84,17.87,17.87,0,0,1,7.43-1.68,18.06,18.06,0,0,1,1.91,0l1.89.2,1.88.28,1.87.36a33.46,33.46,0,0,1,7.21,2.4,24.85,24.85,0,0,1,11.09,10.16,34.27,34.27,0,0,1,4.16,14.5,63.79,63.79,0,0,1-.77,15.07A85.79,85.79,0,0,1,353.27,286.12Z"/><path class="cls-2" d="M172.76,418.17c-.14-.29-.27-.59-.41-.88-12.83-26-36.42-48.42-77.94-27.92-39.25,19.39-62.07,73.26-53.61,101C69.25,506.78,145.6,482,172.76,418.17Z"/><path class="cls-3" d="M155.48,382.64a133.48,133.48,0,0,1-19.12,11.95,213,213,0,0,1-20.56,9.33l-5.3,1.94-2.66,1-2.69.87-5.37,1.73-5.44,1.52-2.72.75c-.91.24-1.83.44-2.74.66l-5.49,1.3c-3.68.8-7.39,1.43-11.07,2.15,3.66-.84,7.35-1.59,11-2.51l5.46-1.4c.91-.24,1.82-.46,2.72-.71l2.7-.8,5.4-1.59,5.35-1.76,2.67-.88,2.64-1,5.28-2q10.5-4.06,20.56-9.14c1.68-.84,3.35-1.7,5-2.61s3.28-1.82,4.91-2.76A112.13,112.13,0,0,0,155.48,382.64Z"/><path class="cls-3" d="M78.39,463q5.28-4.47,10.45-9.05t10.33-9.18c6.84-6.17,13.61-12.42,20.2-18.85s13.06-13,19.18-19.86c3-3.45,6-7,8.72-10.69a52.81,52.81,0,0,0,7-11.87,53,53,0,0,1-6.67,12.08c-2.67,3.76-5.58,7.35-8.58,10.86-6,7-12.5,13.57-19.09,20s-13.41,12.66-20.34,18.74q-5.2,4.56-10.47,9T78.39,463Z"/></svg>