<svg id="Layer_2" data-name="Layer 2" xmlns="http://www.w3.org/2000/svg" width="600" height="589" viewBox="0 0 600 589"><defs><style>.cls-1{opacity:0.87;}.cls-2{fill:#1e354a;}</style></defs><title>premio_L2_silueta</title><g class="cls-1"><path class="cls-2" d="M383.2,149.51C318.74,177,281.75,202.34,281.75,202.34l-20.22,31.73,0-.34q.16-1.12.31-2.24.2-1.47.38-2.94c.2-1.63.39-3.24.56-4.83q.15-1.39.27-2.75c.11-1.17.2-2.31.28-3.43q0-.67.09-1.32c.07-1.12.12-2.21.15-3.26q0-.56,0-1.11a32.72,32.72,0,0,0-.83-9.19c-.25-.64-.65-.64-1.15-.21a4.16,4.16,0,0,0-.51.55c-.18.23-.37.49-.56.79-2.11,3.26-4.79,10.24-4.8,10.24s1.67-9.82,2.59-19.7q.07-.78.14-1.56c.13-1.58.24-3.15.32-4.66a45.27,45.27,0,0,0-.4-11,23.21,23.21,0,0,0-1.46-4.86,3.23,3.23,0,0,0-.39-.6,1.25,1.25,0,0,0-.66-.44c-1.53-.35-3.94,3-9.23,10.08v0l0-.08.13-.43v0l.1-.36,0-.06.13-.43.06-.2.09-.31.07-.26.15-.52.07-.26.11-.39.1-.35.12-.43.15-.52.12-.44.1-.36.18-.64c1.88-6.82,4.44-16.93,3.18-17.18-1.89-.38-20.46,14-21.41,11.56-.19-.5.86-4.34,2.63-10.29l.87-2.89,1.46-4.84,2.2-7.26,1.79-5.93.76-2.53q.77-2.56,1.55-5.21l.82-2.79c1.06-3.61,2.12-7.3,3.16-11l.75-2.7c1.19-4.27,2.33-8.52,3.38-12.66q.34-1.34.67-2.65c1.15-4.61,2.17-9,3-13.12.15-.75.3-1.5.44-2.22q.32-1.65.58-3.21l.1-.57q.24-1.43.43-2.78l.06-.44q.19-1.38.32-2.65a46.39,46.39,0,0,0,.29-5.31,18.74,18.74,0,0,0-.25-3c-.91-5.06-1.69-7.17-2.65-7.26a.77.77,0,0,0-.33,0,1.89,1.89,0,0,0-.7.5,9,9,0,0,0-1,1.42c-.56.9-1.2,2.06-1.92,3.42-.64,1.21-1.35,2.55-2.15,4-.46.84-1,1.71-1.48,2.61s-1.08,1.81-1.68,2.74-1.23,1.87-1.9,2.82-1.38,1.89-2.13,2.83-1.55,1.87-2.39,2.78l.05-.2v0l.29-1.07,0-.07,1.44-5.42.08-.29.76-2.85.14-.53.22-.83,0-.13h0c2.4-9.06,5.62-21.31,7.38-28.34,5.68-20.84,2.08-20.65-3.79-9.09s-11.18,27.28-17.62,28.61c-4.17,1.14-23.68,80.51-22.92,85.25.66,4.14,1.47,40.06,1.28,50.87a8.84,8.84,0,0,0-.9-.63A10,10,0,0,0,202,196a11.56,11.56,0,0,0-1.68-.55,14,14,0,0,0-2.11-.35,23.62,23.62,0,0,0-8.66,1c-3.2.92-6.28,1.85-9.13,2.69l-1.06.31-2,.59-1,.28-1.87.52-1.75.45-.82.2-1.4.31-.25.05c-.65.13-1.26.24-1.81.31l-.14,0c-.37,0-.71.08-1,.09h-.53c-1.09,0-1.78-.25-2-.8a9.31,9.31,0,0,0,1-1.58,5.53,5.53,0,0,0,.3-.78,3.08,3.08,0,0,0,.14-.79,1.89,1.89,0,0,0,0-.37,1.46,1.46,0,0,0-.1-.35,1.3,1.3,0,0,0-.19-.31,1.45,1.45,0,0,0-.3-.27,2,2,0,0,0-.41-.21c-2.52-1-3.1.39-3.1.39s0-.13.09-.34a7.55,7.55,0,0,0,.14-.85,6,6,0,0,0,0-.82,2.31,2.31,0,0,0-2.48-2.57h0a5.68,5.68,0,0,0-1,.1,9.74,9.74,0,0,0-1.25.32c-.46.15-1,.34-1.5.58s-1.14.52-1.78.86a12.06,12.06,0,0,1-4.72,1.78,22.87,22.87,0,0,0-2.6.63l-.64.24a8,8,0,0,0-2.51,1.62s-1-1.14-3.33-.33c-1.41.48-3.31,1.66-5.78,4.21q-1.45,1.53-2.57,2.65l-1,1c-1.56,1.55-2.39,2.31-2.4,2.32v0c0-.08,0-.35,0-.68,0,0,0-.07,0-.1s0-.07,0-.11,0-.1,0-.16,0-.13,0-.19v-.1c0-.1,0-.19,0-.28v-.08c0-.07,0-.14-.05-.2l0-.07a1.28,1.28,0,0,0-.08-.19l0,0a.62.62,0,0,0-.14-.16h0a.37.37,0,0,0-.14-.06h-.05a.48.48,0,0,0-.17,0h0a1.11,1.11,0,0,0-.26.15l0,0a2.76,2.76,0,0,0-.27.25l-.1.12-.27.33-.12.15c-.13.18-.28.39-.43.63-1.69,2.65-4.35,10-3.5,19.08l0,.24c.09.87.2,1.76.36,2.66q.12.71.28,1.44c.12.59.27,1.18.43,1.77q.3,1.13.68,2.29c.21.62.42,1.24.67,1.87a40.87,40.87,0,0,0,4,7.66l.76,1.14c-1.34,7.08-2.89,16.74-2.28,21l.12.84c5.24,37.26,13.52,50.69,19.55,55.39l.48.37-.08-.6c0-.21-1.89-16.31,6.66-28.77.15,6,3.53,7.63,8.68,7.9l1.27,0h1.14c2.82,0,5.49-.23,7.72.45l.09,0c2.15.8,3.69,2.68,4.82,5.13a37,37,0,0,1,1,3.58c.2.85.4,1.8.61,2.82l.33,1.59.71,3.5.57,2.77c.34,2.79.61,5.3,1,7.08,1.73,8,3.73,16.09,6.89,23.66a54.12,54.12,0,0,0,10.89,16.31,80.29,80.29,0,0,0-4.18,7.35h0c-.19.39-.38.78-.57,1.18l-.11.22c-.17.35-.33.71-.48,1.07l-.16.36c-.14.33-.28.66-.42,1l-.19.46c-.12.31-.24.62-.36.93l-.2.54c-.11.3-.21.59-.31.89l-.2.6c-.09.28-.18.56-.26.85l-.19.65q-.11.41-.22.81c-.06.23-.11.46-.17.68s-.12.52-.17.78-.09.48-.14.71-.09.5-.13.75-.07.49-.1.73-.06.48-.08.72,0,.5-.05.75,0,.46,0,.69,0,.51,0,.77,0,.44,0,.65,0,.52.06.78,0,.41.05.61.08.54.13.8.06.37.1.56.14.58.22.87.07.31.12.46a13.31,13.31,0,0,0,.46,1.25v0s-5.92-3.5-8.07-3-14,1.34-16.41,3.5-17.48,16.14-13.45,16.94,12.91-2.42,12.91-2.42-7.8,11.3-4.57,11.83,3.23.81,7.53-1.88,12.37-18,23.13-14.52,16.41,5.92,16.41,2.69-2.76-5.86-5.61-6.68c-2-.57-3.65-1-5.11-1.53.28,0,.56,0,.84,0a13.89,13.89,0,0,0,2.27-.35c.66-.15,1.34-.36,2-.59a39.32,39.32,0,0,0,4.29-1.77c2.23-1.06,4.55-2.34,6.91-3.64l2.84-1.57a69.16,69.16,0,0,1,11.08-5.21h0c-.15.93-.28,1.83-.38,2.66a46.75,46.75,0,0,0-.3,6.09c0,.69,0,1.38,0,2.09,0,.35,0,.71,0,1.06q0,1,.08,2c0,.38,0,.76.07,1.14.05.72.12,1.45.2,2.19,0,.35.07.69.11,1,.13,1.09.28,2.2.47,3.34,0,0-24.11,9.71-24.11,14.52s-.33,12.11-1.33,15.1,2.16,5.14,8.13,1.33,9.18-17.21,18.08-17.09c7.16.1,9.12-.33,25.55,14.76,0,0,2.16-12.44-2-14.6s-12.44-7.13-15.92-11.45a12,12,0,0,1-3.84.67c1.86,0,4.48-.63,8.17-2.43,7.94-3.88,23.68-12.23,34.37-21.47,1-.88,2-1.77,2.91-2.66s2-2,2.87-3.06l.73.64,2.58,2.27.19.17,1.43,1.27.25.22,1.6,1.42.11.09,1.65,1.47.27.24,1.74,1.57.42.38,1.85,1.67.33.3,1.88,1.71.23.21,2,1.87.45.41,2.06,1.89.52.48,2.17,2,.25.24,2.09,2,.47.44,2.21,2.09.55.52,2.26,2.15.45.43,2.18,2.09.32.3,2.34,2.27.54.53,2.3,2.26.51.51,2.38,2.37.21.21,2.26,2.27.46.46,2.27,2.32.52.54,2.27,2.35.37.39,2.13,2.25.29.3,2.2,2.37.46.5,2.1,2.31.4.45,2.12,2.38.08.1q1,1.16,2,2.3l.35.41q1,1.12,1.87,2.23l.37.45c.61.74,1.21,1.48,1.79,2.21l.23.29q.83,1.05,1.62,2.08l.2.26c.54.71,1.05,1.41,1.55,2.1l.29.41q.73,1,1.4,2l.23.35c.46.68.9,1.35,1.31,2h0a281.61,281.61,0,0,1,16,30.54l.85,1.85q1.7,3.72,3.36,7.52l.83,1.9q1.65,3.81,3.26,7.64l.8,1.91q.79,1.91,1.56,3.81c1.29,3.17,2.54,6.3,3.73,9.38q.72,1.85,1.41,3.66c1.39,3.63,2.69,7.15,3.9,10.51q.6,1.68,1.17,3.3l.56,1.61q.55,1.59,1.06,3.11c.85,2.54,1.63,4.92,2.31,7.13.55,1.76,1,3.41,1.45,4.92l.3,1.11c.39,1.45.71,2.75,1,3.9v.06q.19.85.38,1.62l.11.4c.1.38.21.76.31,1.11l.11.35c.11.34.22.68.33,1l.1.27c.12.32.24.63.36.92l.08.17c.13.3.27.59.4.85l.05.1c.15.28.29.53.44.77l0,0a7.59,7.59,0,0,0,.47.66h0c3.91,4.83,8.36-4.26,7.85-15.36-.67-14.4-2-26.79-2-26.79s5.36,14.07,9.38,11.05c3.22-2.41-6.65-31.41-10-42.91h0a32.42,32.42,0,0,1-1.09-4.31v0a.9.9,0,0,1,0-.22v0s0-.07.06-.07h0c.17,0,.63.38,1.31,1.06,1.57,1.55,4.31,4.67,7.39,8.31,1.29,1.53,2.64,3.15,4,4.8,2.11,2.57,4.21,5.18,6.08,7.55l1.78,2.28c2,2.54,3.5,4.63,4.23,5.8.15.23.3.45.45.66l.1.14c.15.2.3.4.46.58l.05.06c.15.17.29.32.44.47l.09.09c.16.16.33.3.49.44l0,0a6,6,0,0,0,.51.37h0c2.78,1.77,5.18-.33,2.39-8.19-3.68-10.38-20.43-53.58-26.79-58.94,0,0,18.42,16.74,18.75,13.4.29-2.94-6.33-11.57-15-20.39a149.38,149.38,0,0,0,34.48,4.16,1.28,1.28,0,0,0,.62-2.39c-33.82-20.12-56-26.12-67.07-27.89-32-22.58-73.25-46.18-89.83-63.15-.74-3.79-2.76-13.92-5.41-26.11h0v0c-1-4.61-2.1-9.5-3.25-14.47h0l-.22-.95c8.51.89,16.21,1.29,21.33,1.46h.07l.77,0h.09l.69,0h.13l2.93.06h1.78a6.39,6.39,0,0,0-.16-1.4,13.93,13.93,0,0,0-3.19-5.63,34.84,34.84,0,0,0-3.2-3.24c-.9-.81-1.81-1.57-2.68-2.25l-1.27-1c-2.24-1.67-3.95-2.71-3.95-2.71a70.49,70.49,0,0,0,10,.61c1.18,0,2.41,0,3.67,0s2.55-.05,3.86-.1c3.22-.11,6.53-.31,9.71-.58l.3,0c3.08-.27,6-.6,8.6-1l1.78-.3c4.53-.82,7.64-1.86,7.89-3.11a.84.84,0,0,0,0-.42c-1.41-4.58-3.94-6.08-9.86-6-1,0-1.4-.36-1.62-.88-.48-1.14-.06-3-3-3a46.81,46.81,0,0,1-5.81.36c-7.37,0-10.39-2.12-10.39-2.12,1,0,1.9,0,2.86,0l.9,0c.67,0,1.33-.08,2-.14l1-.1q1-.1,2-.24l.92-.12q1.27-.19,2.54-.42l.32-.06c1-.18,1.92-.39,2.88-.6l.8-.19c.69-.17,1.39-.34,2.08-.52l1-.26,2-.57.9-.27q1.17-.37,2.33-.76l.47-.16q1.4-.49,2.79-1l.66-.26,2.09-.83.89-.37,1.87-.8.87-.38,2-.94.6-.28q1.3-.62,2.57-1.26l.57-.3,1.93-1,.87-.47,1.6-.88.88-.49,1.61-.93.75-.44,2.2-1.33.62-.39,1.54-1,.9-.58,1.18-.77.93-.62,1.07-.73.9-.62,1.07-.76,1.54-1.12.8-.59.95-.72.65-.5.92-.73.54-.44.91-.74.3-.26c3.82-3.18,6.21-5.69,6.62-6.78,1.76-4.58-6.69-8.45-6.69-8.45a74,74,0,0,0,9.81-1.14,62.55,62.55,0,0,0,8.22-1.94,68,68,0,0,0,9.09-3.27,6.88,6.88,0,0,0-2.58-2h0c-1.85-.92-4.84-1.7-9.4-1.18-8.85,1-21-.26-15.43-1.94l.61-.17h0c5.32-1.27,23.77-10.19,31.73-16.41,3.13-2.41,4.65-4.42,3.14-5.43h0a2.76,2.76,0,0,0-.54-.27h0c-6.84-2.6-40.64,7.84-28.33,1.68q2.52-.88,4.89-1.73t4.58-1.68q2.21-.83,4.28-1.64t4-1.59q3.84-1.57,7.14-3,1.65-.74,3.18-1.45l1.49-.71c8.78-4.22,14.25-7.81,17.64-10.74l.81-.73q.88-.82,1.55-1.56.39-.43.71-.83t.59-.78c.14-.2.27-.4.39-.59s.2-.33.29-.48l.18-.33a7.88,7.88,0,0,0,.5-1.21l.08-.27a4.84,4.84,0,0,0,.18-1.35,3.18,3.18,0,0,0-.17-1,.4.4,0,0,0-.08-.13.39.39,0,0,0-.41-.12c-3.09.91-27.4,8.07-31,9.06-3.87,1.06,45.44-35.58,51.43-44s-4.93-1.41,4.93-8.81,9.51-10.57,7-10.57-10.92,1.06-4.93-2.11c17.61-10.21,47.2-41.56,43.33-48.26S427.93,129.08,383.2,149.51ZM173.45,302.31l.05,0a6.69,6.69,0,0,1,2.36,1.33l.29.26c.11.11.22.24.33.36l.1.12A7.61,7.61,0,0,0,173.45,302.31Z"/></g></svg>