<svg id="Layer_2" data-name="Layer 2" xmlns="http://www.w3.org/2000/svg" width="600" height="589" viewBox="0 0 600 589"><defs><style>.cls-1{fill:#38667d;}</style></defs><title>premio_leccion_5_4_block</title><path class="cls-1" d="M578.77,225c-3.32-1.84-3.68,1.11-7,8.84s-23.22,56.38-98,41.64c-68.7-13.41-101-1-113.08,6.27a112.59,112.59,0,0,0-2.45-18.25l.89-.58q1.34-.85,3-1.78l1.68-.94q1.75-1,3.78-2c2.71-1.34,5.8-2.72,9.31-4.1a188.52,188.52,0,0,1,39.13-10.25c4.08-.66,7.8-1.28,11.18-1.9l3.28-.61q2.38-.45,4.51-.9l2.75-.6q2.65-.6,4.9-1.2,1.13-.3,2.16-.61,1.55-.46,2.9-.93.9-.31,1.71-.63l.79-.32q1.16-.49,2.13-1l.63-.34q.61-.35,1.14-.7t1-.73a11.13,11.13,0,0,0,.85-.76l.37-.39a8,8,0,0,0,1.16-1.65q.11-.22.21-.43a7.94,7.94,0,0,0,.65-2.83q0-.25,0-.51,0-.52,0-1.06a17,17,0,0,0-.37-2.29,31.66,31.66,0,0,0-.93-3.19c-.39-1.13-.85-2.33-1.36-3.6-.26-.64-.52-1.24-.8-1.83l-.18-.39c-.28-.59-.57-1.16-.87-1.7h0c-6.28-11.32-17.11-12.18-45.93-2.69-27.93,9.19-50.28,23.4-60.3,30.39l-.44-.54,0,0a63.7,63.7,0,0,0-6-6.53c.74-.72,1.54-1.47,2.41-2.24l1.11-1c1.52-1.32,3.19-2.71,5-4.14l1.38-1.09c21.46-16.82,59-40,71.3-46.67,9.08-5,16.62-9.47,21-14.82q.39-.47.74-1a16.5,16.5,0,0,0,3.3-8.32c0-.06,0-.12,0-.18a16.72,16.72,0,0,0,0-2.34,21.4,21.4,0,0,0-1-5.22c-.13-.42-.28-.85-.44-1.27l-.16-.4c-.11-.29-.23-.58-.35-.87l-.2-.47q-.18-.41-.38-.82l-.22-.47c-.15-.3-.3-.59-.46-.89l-.2-.37q-.33-.6-.7-1.19l-.26-.4c-.17-.26-.34-.53-.52-.79l-.36-.51-.49-.66-.41-.52-.51-.62-.44-.51-.6-.65q-.39-.42-.8-.82l-.57-.55-.59-.53-.51-.44-.65-.53-.5-.38-.72-.52-.46-.31a26.86,26.86,0,0,0-2.9-1.7l-.42-.21-.94-.43-.47-.2-1-.39-.43-.15a27.68,27.68,0,0,0-4-1.06l-.09,0c-.41-.08-.83-.14-1.25-.2l-.43-.06-1.24-.13-.47,0c-.43,0-.87-.05-1.31-.07h-.31a34.44,34.44,0,0,0-4.64.24l-.42,0c-.47.06-.94.14-1.42.22l-.58.1-1.43.29-.58.13c-.51.12-1,.24-1.53.38h0a60.93,60.93,0,0,0-15.15,6.67c-50.4,31-76.06,66.15-85.27,80.79q-3.58-1.12-7.41-2c.08-.37.17-.75.27-1.12q.48-1.89,1.15-3.84t1.51-3.93a100.29,100.29,0,0,1,8-14.82l.88-1.35c1.77-2.7,3.66-5.39,5.61-8q1-1.32,2-2.62c2.32-3,4.71-6,7.08-8.81l1-1.2c2-2.39,4-4.68,6-6.83l1-1.07c4.17-4.58,8-8.51,11-11.48a115.5,115.5,0,0,1,9.61-8.44l1.31-1,2-1.56c1-.8,2-1.57,2.86-2.31.74-.61,1.43-1.21,2.08-1.79a30.61,30.61,0,0,0,2.57-2.57,15.14,15.14,0,0,0,1.27-1.66,8.12,8.12,0,0,0,1.13-2.47,5.74,5.74,0,0,0,.14-.83c.19-1.94-.66-3.93-2.89-6.13a23.73,23.73,0,0,0-2.26-1.94l-.88-.67-.19-.14-1.86-1.38-.11-.08q-1-.71-2-1.4h0c-12.71-8.75-27.48-13.35-52.65,13.13-33.52,37-41.83,69.16-43.88,82.8-15.82.48-33.57,3.07-53.22,8.31a225.22,225.22,0,0,0-43.81,16.25c-7.61-7.81-25.74-22.81-60.82-34C61.25,186.24,55.51,205.57,59.15,215v0c.12.3.25.6.38.88l0,.06c.14.27.28.54.43.79l0,.06c.15.25.31.49.48.71l0,0a7.47,7.47,0,0,0,.54.63h0a17.3,17.3,0,0,0,3.62,2.63l.76.44c.48.27,1,.54,1.51.81.87.45,1.81.91,2.81,1.38l1.8.84,2,.91,1.19.52q1.79.77,3.71,1.56l1.52.62c2.56,1,5.28,2.12,8.08,3.22l1.69.66,3.44,1.34,1.74.68,3.51,1.37c2.94,1.15,5.9,2.31,8.82,3.48l2.25.91c1.57.64,3.12,1.27,4.65,1.91l3.33,1.41,3.22,1.41c6.7,3,12.5,5.94,16.45,8.75a97,97,0,0,0-9,9c-11.85-7.79-41.12-23.3-90.66-27-29.95-.74-24,19.86-22.1,26.9l.2.77A16.19,16.19,0,0,0,21.83,272a24.51,24.51,0,0,0,5.47,3.09,37.61,37.61,0,0,0,4.17,1.45c1.53.44,3.2.83,5,1.16,2.47.45,6.23,1.27,10.79,2.33l.54.13,2,.47.58.14c3.42.81,7.18,1.73,11.11,2.72l.71.18,2.52.64.65.17,7.43,1.92c2.95.77,5.9,1.56,8.8,2.35,3.63,1,7.18,2,10.52,2.94l1.88.55,2,.59,4.41,1.33,1.25.39c3.73,1.17,6.86,2.24,9.12,3.14a71.37,71.37,0,0,0-1,8.38c-17.32-4.32-76.95-17.71-80.23,2-2.28,13.69,6.27,22,18.67,26.26q2,.68,4,1.23a85.4,85.4,0,0,0,22.28,2.53l2.28,0,2.32-.07,4.28-.12,4.37-.11,7.91-.17,1.91,0c6.91-.13,12.66-.19,16.63-.22,5.28,14.53,16.1,26.09,30.63,34.7q1.08.64,2.18,1.25a113.85,113.85,0,0,0,14.14,6.62l2.52,1c1,.38,2.09.75,3.15,1.1l-3.42,20.89h-.63c-3.4-.22-20.12-.8-27.94,8.69h0a16.77,16.77,0,0,0-1.48,2.12l-.14.23c-.15.27-.29.55-.43.83s-.21.41-.3.62-.22.53-.33.8-.2.52-.29.79-.17.52-.24.78-.17.63-.24,1-.12.5-.17.76-.13.79-.19,1.19c0,.22-.07.43-.09.66-.07.64-.11,1.3-.12,2h0l44.36.45a7,7,0,0,0,4.62-1,7.34,7.34,0,0,0,.77-.57,7.88,7.88,0,0,0,.76-.73l.37-.43a13.59,13.59,0,0,0,2.53-6.28c.23-1.3.52-2.77.85-4.33.17-.78.35-1.59.53-2.42s.38-1.67.58-2.52c.3-1.28.62-2.59.94-3.89l.32-1.3.59-2.31.46-1.77.57-2.18.61-2.29.56-2.1.41-1.52q1.66.29,3.35.56,5.88.93,12,1.52a246.46,246.46,0,0,0,60.67-2c21.26-3.27,39.37-10.82,53.87-21.44l.3.13q.9.38,1.9.76,1.5.57,3.24,1.13,1.16.37,2.42.73T331,370l-.52,11.51s-22.63-5.43-20.82,14c0,0,25.8,9.51,32.14,1.36l2-24.69,2,.2c2.54.24,5.24.41,8.12.5s5.93.1,9.17,0,6.65-.26,10.26-.55l2.74-.24q2.78-.26,5.7-.6c6.08-.72,12.65-1.74,19.72-3.11l-2.9,36.68s0,.1,0,.27a6.55,6.55,0,0,0-.06.74,6.8,6.8,0,0,0,2.13,5.2,10.06,10.06,0,0,0,4.24,2.26h0l.9.26.29.08.85.23.33.09,1.07.29.24.06,3.11.81.26.07,1.49.37.32.08,1.75.42.08,0,2,.47h0c12.05,2.75,28,5.44,33.34,1.91,7.74-5.16-11.79-11.42-11.79-11.42s3.62-27.43,4.61-50.07l1.77-.62c5.37-1.92,10.29-3.9,14.85-5.94l2.25-1q2.22-1,4.33-2.07l2.08-1a179.13,179.13,0,0,0,24.59-15.24,94.42,94.42,0,0,0,9.77.12q.73-.07,1.37-.09c2.59-.1,4.25.35,5.34,1.45a4.83,4.83,0,0,1,.91,1.33,7.34,7.34,0,0,1,.34.83,19.55,19.55,0,0,1,.77,4.56q.06.7.1,1.46t.08,1.59q0,.69.06,1.39l0,.93q0,.64.06,1.28t0,1.05q0,.75.08,1.51l0,.8q0,.8.09,1.6l0,.71q0,.82.1,1.64l0,.64q.05.85.11,1.68l0,.58q.06.84.12,1.68l0,.57q.07.84.14,1.67l0,.54q.07.85.16,1.7l0,.47q.09.87.18,1.73l0,.4q.1.88.2,1.74l0,.35q.11.88.23,1.75l0,.3q.12.89.26,1.75l0,.23q.14.89.29,1.77l0,.15q.16.9.33,1.78v.07c2.25,11.44,6.29,19.51,14.09,19.87,13.74.63,42.43,3.22,31.74-6.36-7.37-5.53-19.16-6.26-19.16-6.26S532.33,327,532,320.41c-.29-5.25-.59-7.27-10.22-10.81a157.39,157.39,0,0,1,13.9-9.09,116.75,116.75,0,0,0,11.82-7.76q2.58-1.94,4.81-3.87t4.16-3.86a67.87,67.87,0,0,0,5.13-5.72q1.51-1.89,2.77-3.76c.58-.85,1.11-1.7,1.63-2.55s.92-1.56,1.34-2.33c5.41-9.93,6.62-19,8.88-26.17l.09-.27.09-.3C578.13,238.39,582,226.75,578.77,225Z"/></svg>