<svg id="Layer_1" data-name="Layer 1" xmlns="http://www.w3.org/2000/svg" width="600" height="589" viewBox="0 0 600 589"><defs><style>.cls-1{fill:#488bab;}.cls-2{fill:#417994;}.cls-3{fill:#549abc;}.cls-4{fill:#38667d;}.cls-5{fill:#fff;}</style></defs><title>premio_leccion_6_3</title><path class="cls-1" d="M274.58,286.27s13.59,79.39,107.29,86.54c15.74,1.43,14.3-7.15,1.43-17.17S354,305.59,361.12,284.84Z"/><path class="cls-2" d="M381.87,372.82c6.63.6,10.2-.58,11.16-2.88-66.71-3.36-97.95-57.89-109.08-83.82l-9.37.15S288.17,365.67,381.87,372.82Z"/><path class="cls-3" d="M465.59,435.69s2.75-134.82-105.93-141-71.54,20.64-170.59,6.88c-2.75.69-99.74,39.9-123.13-74.29-17.2-4.13-22.7-19.95-21.32-29.58s9.63-18.57,9.63-18.57,1.38-8.25-6.19-26.83-5.5-75,36.46-99.74S156.05,37.42,176,39.48c0,0,31.64-19.95,53.65,11.69,0,0,116.25-6.19,228.37,127.94s53.65,236.62,51.59,252.44c0,0,39.09-2.34,36.62,61.44,2.47,22.22,5.35,41.15-6.17,42.39s-11.52-21.81-29.22-23.46-21-24.69-17.28-35c0,0-6.35,4.12-12.91,16a54.1,54.1,0,0,1-9.81,13c-27.91,26.68-68.94,30.88-90.86,57,0,0-6.58,2.06-2.88-10.7S407.57,440.51,465.59,435.69Z"/><path class="cls-1" d="M188.15,230.32s-14.38,12.06-33.87,15.31-6,13.92.46,13.92,50.57,6.49,75.16-71c0,0-1.39-5.1-7,2.32S194.65,225.21,188.15,230.32Z"/><path class="cls-1" d="M302.43,98.79S335,159.18,363.35,157s23.16-32.71,48.1-68.4c27.25-39,56.11-28.86,49.7-42.75-5-10.85-65.2-26.19-80.7-15s-58.25,38.48-70,45.42C300.84,82,298.16,94,302.43,98.79Z"/><path class="cls-1" d="M540.06,535.4c11.52-1.23,8.64-20.16,6.17-42.39.14-3.68.14-7.14,0-10.4-11.62-23.26-29.94-38.27-50.56-37.7-52.74,1.45-96.25,58.91-106.28,108.92,22.92-18.41,57.15-24.62,81.44-47.83a54.1,54.1,0,0,0,9.81-13c6.56-11.87,12.91-16,12.91-16-3.7,10.29-.41,33.33,17.28,35S528.54,536.63,540.06,535.4Z"/><path class="cls-1" d="M378.09,259.57c-41.56-18.28-133-.83-133-.83s27.43-22.44,34.08-56.52c0,0-54,74-132.15,76.46-29.92,1-54.59-10.77-73.66-25.6,31.72,82,113.17,49.1,115.69,48.47,99.05,13.76,61.91-13.07,170.59-6.88s105.93,141,105.93,141c-1.48.12,1.73,13.53,11.41,6.73C488.69,434.2,506.91,309.44,378.09,259.57Z"/><path class="cls-2" d="M461.54,46.85l-73.17,3.43c-8.94.42-19,9.32-25.12,15.85-8.06,8.61-20.09,20.24-30,24.72-7.3,3.29-15.09,13.15-20.46,24.73,11.88,17.7,32.15,42.85,50.61,41.46,28.32-2.14,23.16-32.71,48.1-68.4C438,50.58,466.13,59.3,461.54,46.85Z"/><path class="cls-4" d="M82.21,250.43s10-8.31,14.13-56.52,52.36-64.83,79-69.81,49.82-30.51,65.66-49c0,0-36.67,47.54-34.72,80.53,2.1,35.64-26.78,75.73-63.35,76.56S82.21,250.43,82.21,250.43Z"/><path class="cls-5" d="M142.88,138.23a19,19,0,0,0-2.94-2.66c-19.24,9.42-37.52,25.11-42.53,50.81,10.8,8.57,27.35,10.5,38.55-3C148.12,168.67,148.7,144.88,142.88,138.23Z"/><path class="cls-4" d="M238.86,77.47a11,11,0,0,1,3.74-1.91c2.3-.68,2.3-2.95-2.66-2.83s-1.49,2.64-.2,3.29C240.13,76.21,238.86,77.47,238.86,77.47Z"/><path class="cls-2" d="M145.47,253.51s34.33,9.74,58.45-18.56,26-52.42,26-52.42-14,35.29-28.76,49.64C185.37,247.48,165,255.83,145.47,253.51Z"/><path d="M220.58,64.77c0-11.21-14.62-22.48-25.83-22.48a20.3,20.3,0,0,0-20.3,20.3c0,11.21,8.25,22.62,20.59,22.62C209.09,85.2,220.58,76,220.58,64.77Z"/><path class="cls-5" d="M207.38,60.94c0,5.17-2.38,9.37-5.32,9.37s-7.95-6.82-4.47-10.64c4.26-4.68,1.53-8.09,4.47-8.09S207.38,55.76,207.38,60.94Z"/><path class="cls-5" d="M187.16,59.23c0,4.7-1.81,8.51-4,8.51s-5.11-3-5.11-7.66S183,49,185.24,49C190.78,49,187.16,54.53,187.16,59.23Z"/><path d="M71.82,227.39a27.55,27.55,0,0,1-13.53-51.54s-4.41,3.32-.24,25.77S71.82,227.39,71.82,227.39Z"/><path class="cls-2" d="M170.11,435.68a15,15,0,0,0,.83,4.23,7.59,7.59,0,0,0,2.32,3.52,4.87,4.87,0,0,0,4.07.8,12.87,12.87,0,0,0,4.08-1.81,13,13,0,0,1-4,2.18,5.44,5.44,0,0,1-4.59-.55,8.49,8.49,0,0,1-2.93-3.71,16.29,16.29,0,0,1-1.29-4.54Z"/><path class="cls-2" d="M380.63,161.7c.76-.74,1.52-1.48,2.22-2.27s1.42-1.56,2.08-2.37a46.34,46.34,0,0,0,3.63-5.11,32.86,32.86,0,0,0,2.74-5.61l.52-1.48c.15-.5.25-1,.39-1.52.34-1,.38-2.06.62-3.11a19.9,19.9,0,0,1-.8,6.35,24.37,24.37,0,0,1-2.62,5.89,30.68,30.68,0,0,1-3.91,5.1A27.24,27.24,0,0,1,380.63,161.7Z"/><path class="cls-2" d="M168.77,80.67a44.56,44.56,0,0,0,6.59,8.65A27.57,27.57,0,0,0,184,95.39a22.76,22.76,0,0,0,10.31,1.76,40.08,40.08,0,0,0,10.59-2.33,26.85,26.85,0,0,1-10.44,3.88,21.84,21.84,0,0,1-5.71,0,22.57,22.57,0,0,1-5.54-1.51,24.74,24.74,0,0,1-9-6.86A28.78,28.78,0,0,1,168.77,80.67Z"/><path class="cls-2" d="M63.81,163.65a38.87,38.87,0,0,0-.22,3.9c0,1.3,0,2.6.09,3.89a46.94,46.94,0,0,0,1.1,7.66,42.76,42.76,0,0,0,2.33,7.38,52.63,52.63,0,0,0,3.54,6.95q-.61-.77-1.19-1.56a17.12,17.12,0,0,1-1.13-1.61l-1-1.7c-.34-.56-.6-1.17-.9-1.76a32.86,32.86,0,0,1-1.53-3.65c-.22-.62-.38-1.27-.58-1.9a19.2,19.2,0,0,1-.49-1.92,35.2,35.2,0,0,1-.89-7.86A30.1,30.1,0,0,1,63.81,163.65Z"/><path class="cls-2" d="M70.16,168c.09,1.64.26,3.27.44,4.88s.44,3.21.79,4.78a33.64,33.64,0,0,0,1.37,4.62A22.83,22.83,0,0,0,75,186.6a13.53,13.53,0,0,1-3-4,21.75,21.75,0,0,1-1.63-4.72A26.43,26.43,0,0,1,70.16,168Z"/><path class="cls-2" d="M176,39.53a27.42,27.42,0,0,0-3.14,2.61,27.82,27.82,0,0,0-2.75,3,38.35,38.35,0,0,0-2.2,3.35,35.74,35.74,0,0,0-1.84,3.6l-.1,0A10.38,10.38,0,0,1,167.05,48a15.06,15.06,0,0,1,2.47-3.4A26.81,26.81,0,0,1,176,39.44Z"/><path class="cls-2" d="M302.43,98.79a16.3,16.3,0,0,1-1.53-4.3,18.18,18.18,0,0,1-.26-2.29l0-1.16c0-.39.05-.77.07-1.16a17,17,0,0,1,3.26-8.59,25.29,25.29,0,0,1,6.78-6.21c1.34-.73,2.67-1.5,4-2.17s2.82-1.15,4.24-1.67c-1.33.73-2.68,1.41-4,2.11s-2.56,1.58-3.82,2.38c-.58.47-1.17.94-1.76,1.39a12,12,0,0,0-1.69,1.45l-1.58,1.56c-.47.57-.91,1.17-1.36,1.75A17.85,17.85,0,0,0,301.43,90,18.25,18.25,0,0,0,302.43,98.79Z"/></svg>