<svg id="Layer_2" data-name="Layer 2" xmlns="http://www.w3.org/2000/svg" width="600" height="589" viewBox="0 0 600 589"><defs><style>.cls-1{fill:#38667d;}</style></defs><title>premio_leccion_7_2_block</title><path class="cls-1" d="M571.16,208.18h0l-5.48.11h0l-10.6.25-5.26.09,0,.05-1.5,0,.07-.09-5.7.25c-7.31.21-15.43.48-24,.79l-2.14.08-.11-.1-13.11.59v0l-1.8.08,0-.11-14.29.74v0l-1.34.07,0-.09-6.25.41c-5.11.27-10.23.56-15.29.87l-2.69.15v0l-4.3.28-.47-.13-5.48.54c-12.93.91-25.2,2-35.82,3.2l0-.09-4.84.69-3.6.48c-12.07,1.67-20.63,3.68-26.95,6a36.47,36.47,0,0,0-9.23,4.52,29.43,29.43,0,0,0-5.33,4.5,27.34,27.34,0,0,0-3.4,4.26c-3.81,5.46-6.76,11.62-15,18.26l-.08-.24-3.56,2.91c-1,.61-2.54,1.63-4.45,3-1.6,1.16-3.44,2.57-5.31,4.2S330,268.3,328,270.08c-1,.89-1.95,1.77-3,2.57a11.4,11.4,0,0,1-3.13,1.9c-.49.16-1,.35-1.45.55l-.22-.17a31.61,31.61,0,0,0-4.71-3.12,74.28,74.28,0,0,0-10-15.66c3.31-2.07,6.79-4.35,10.29-6.75q2.07-1.41,4.14-2.87l2.06-1.47q2-1.47,4.05-3l2-1.49q2-1.49,3.83-3c1.87-1.48,3.65-3,5.32-4.39a95.16,95.16,0,0,0,7.24-6.83,24.72,24.72,0,0,0,4.87-6.72c4.09-10,10-34.11,15.46-39.11s.93-12.28,2.29-14.1c.53-.71,2.33-5.75,2.36-12,0-3-2-6.4-2.83-9.67-1-4.11-1.18-5.08-3.45-7.46a26.91,26.91,0,0,0-10.63-6.61l.32.06-.49-.12a45,45,0,0,0-8-2c-1-.55-2-1.08-2.93-1.6-5.49-3.44-19.79-12.34-20.89-12.26h0c-.6-.27-1.2-.51-1.8-.73h0a22.87,22.87,0,0,0-3.26-.92,16.25,16.25,0,0,0-2.35-.4c-.39,0-.86,0-1.36,0-3.8-.15-8.33.51-14.48,2.11a.46.46,0,0,0-.13,0c-.78,0-9.4,2.83-9.4,2.83a37.32,37.32,0,0,0-4.51,1.5l-3.57,1.21a31,31,0,0,0-5.82,2.23c-1.19.83-3.38,4.08-4.11,5.2a33.79,33.79,0,0,0-1.94,3.24,40.2,40.2,0,0,0-3,6.92c-3.21,9.07-5.18,20.93-5.85,33.71h0c-.2,3.78-.29,7.63-.26,11.52h0q0,2.92.13,5.85h0q.11,2.93.3,5.86h0q.19,2.93.47,5.84h0q.28,2.91.65,5.79h0l.1.74a43.13,43.13,0,0,0-14-5.78,8.6,8.6,0,0,0-.53-.73l-.47-.13a19.82,19.82,0,0,0-9.36-.2,31.41,31.41,0,0,0-12,4.75,14.15,14.15,0,0,0-3.26,2.56l.07,0c-1.3,1-2,1.65-2,1.65a12.78,12.78,0,0,1,1.34.08q-1,.79-2.07,1.65a1.33,1.33,0,0,1-.2-.27l-2.09,1.93h.32c-.73.63-1.45,1.28-2.18,2l-1.33-.21a75.83,75.83,0,0,0-6,5.53,71.57,71.57,0,0,0-6.37,7,45.78,45.78,0,0,0-5,6.49l-.07.1h0c-.54.73-1,1.38-1.4,1.94l-.3-.31,0,.16c-5.59-5.67-13.07-13.2-21.53-21.92v-.22L169.37,211q-3.11-3.22-6.36-6.62V204l-3.7-3.59-3.88-4.12-9.12-10h-.12c-4.71-5.16-9.45-10.45-14.11-15.81l-9-10.75-.2-.08c-5.53-6.64-10.82-13.3-15.66-19.81v-.16l-5.73-8-.12.13C70.75,88.68,46.54,44.86,39.18,48c-2,.86-2.56,3.5-2.36,7.32v.27c0,.3,0,.6.07.92v.12c.62,7,3.28,17.39,4.6,28.18l0,.38q.11.89.2,1.78l0,.35q.11,1.06.19,2.12v.06q.08,1,.13,2c0,.18,0,.36,0,.54q0,.78.06,1.56c0,.18,0,.35,0,.53,0,.68,0,1.35,0,2,0,0,0,.07,0,.11,0,.63,0,1.25,0,1.87,0,.2,0,.39,0,.59q0,.73-.08,1.44c0,.2,0,.39,0,.59-.05.65-.11,1.3-.19,1.94C39.42,123.33,54.4,207.08,107.38,243.7A84.09,84.09,0,0,0,124.11,253c25.62,11.18,31.19,6.33,41.57,14.78l1.07,1.2,0,0-2.7,4.42v.05L161.32,278s.87,1.29,2.2,2.85l-1.2,1.82h-.12l-.67,1.16h0l-.82,1.24a17,17,0,0,0-3.64-.63L155,288.57h0l-.14.29-8.29,16.37.43.2-1.08,1.51-.13,0-.89,1.25H145l-1.43,2c-1.58-.21-2.73-.3-2.73-.3l-12.26,17.31s.32.89.86,2.25q-1.37,2.52-2.57,5.2a92.8,92.8,0,0,0-7.69,18l-.56,1.5-1.45,6,0,.15c-.19.79-.3,1.34-.33,1.59a2.09,2.09,0,0,0,0,.58,53.6,53.6,0,0,0-.59,5.87,33.61,33.61,0,0,0,1.94,3.51c-.3,4.14-.43,8.36-.4,12.62-.67-.75-1.09-1.25-1.09-1.25s.24,2.83.63,7c0,2,.85,9.7,1.85,17.19.2,1.6.4,3.16.61,4.65l.19,1.7.21,1a50.38,50.38,0,0,0,1.61,7.71l0,.19h0a2.23,2.23,0,0,0,.51.89l.08.06q.77,3.35,1.67,6.65l-.12-.09s.17,1.92.53,4.8c.05,1.4.18,4.25.43,7.17l.17,2.85a5.37,5.37,0,0,0,.37,1.78,11.07,11.07,0,0,0,1.14,4,2.13,2.13,0,0,0,1.1.74c.35,1.19.72,2.32,1.13,3.37-.5,1.05-1,2.17-1.45,3.4C114.67,489.4,98.16,516.06,115.29,530c.49.51,1,1,1.48,1.52,1.67,1.63,3.38,3.22,5.11,4.78q5.17,4.71,10.55,9.18l5.38,4.47,1.36,1.11a17.55,17.55,0,0,0,1.5,1,20.68,20.68,0,0,0,3.23,1.64,16.23,16.23,0,0,0,7.18,1.25,14.67,14.67,0,0,0,7-2.37l-.08,0a2.23,2.23,0,0,0,.93-1.11,6.24,6.24,0,0,0,.32-1,15.7,15.7,0,0,0,.32-1.85c.14-1.21.2-2.41.24-3.6.07-2.38,0-4.75,0-7.11-.14-4.72-.42-9.43-.73-14.13l-1.07-14.07a60,60,0,0,1,.35-13.88,88.17,88.17,0,0,1,2.5-10.93,4.27,4.27,0,0,0,.55.48,5.34,5.34,0,0,0,2.25.92,5.6,5.6,0,0,0,4.11-1l.49.65.16.2.74.93.14.18c.58.71,1.15,1.37,1.7,2l.1.11.68.71.21.21.57.54.22.2.59.5.16.13c.24.19.48.37.72.53l.1.07c.19.13.39.25.57.35l.21.11.44.21.22.09.43.13.19,0a3.07,3.07,0,0,0,.58.06c.92,0,2.09,0,3.46.07.56,8.47,2.91,28.44,12.73,40.93a1.32,1.32,0,0,0,2.37-.76c.21-8.77.14-34.41,3.4-41.24,11.86-1.9,27.12-6.86,43.72-19.36h0l-.09.08,4.25,3.75q1.83,1.82,3.59,3.8,1,1.08,1.89,2.2,1.87,2.24,3.64,4.62.89,1.19,1.75,2.4c1.72,2.42,3.37,4.92,4.94,7.44q1.57,2.52,3,5.07t2.82,5.07q1.35,2.52,2.6,5c1.66,3.29,3.16,6.49,4.51,9.48,1.68,3.75,3.12,7.19,4.29,10.13.47,1.18.9,2.27,1.28,3.28.57,1.51,1.05,2.8,1.43,3.85a5.17,5.17,0,0,0,.34.76,5.12,5.12,0,0,0,1.64,1.78,4.75,4.75,0,0,0,2.26.79,4.58,4.58,0,0,0,.83,0,7.59,7.59,0,0,0,1.18-.22l.13,0a6.35,6.35,0,0,0,1-.38l.13-.06a6,6,0,0,0,.87-.54l.08-.06c4.37-3.36,3.86-12.43,5.54-19.81,7.39-26.32,9.23-35.09.46-47.09-11.08-13.66-21.16-22.28-27.9-27.24l0-.09q.91-1.13,1.83-2.29l1.6-1.9.79-.95.65-.79.88-1.06c.61-.65,1.21-1.3,1.82-2l7.75-9.92s-.64.8-1.88,2.16l1.52-2,.35-.48,1.16-1.6.38-.53c.45-.63.88-1.25,1.29-1.85l0,0c.43-.62.83-1.23,1.22-1.82l.28-.44.87-1.36.24-.39c.34-.55.67-1.09,1-1.61l.08-.13c.28-.47.55-.94.8-1.39l.2-.37q.35-.62.66-1.22l.12-.22q.37-.7.69-1.37l.1-.22q.27-.56.51-1.09l.13-.29a35.38,35.38,0,0,0,2.78-9.45,34.92,34.92,0,0,0,11.33-16.8h0a36.52,36.52,0,0,0,1.67-11S321.4,354,322.31,333.76a20.51,20.51,0,0,0,5.27-7.43l0,0q.17-.4.34-.83l.11-.21,0,0a23.18,23.18,0,0,0,1.26-5.07v-.1q.08-.65.13-1.32v-.11a29.88,29.88,0,0,0-2-12.4l.09-.17a6.1,6.1,0,0,0,.66-3.18v-.05c0-.12,0-.25,0-.38v-.12c0-.11,0-.22,0-.33l0-.15q0-.16-.06-.33l0-.17-.09-.33-.05-.18-.12-.36-.06-.17c-.05-.15-.11-.3-.18-.45l0-.1q-.12-.28-.27-.57l-.07-.13-.24-.46-.13-.22-.24-.39-.16-.25-.26-.38-.19-.26-.29-.38-.21-.26-.34-.4-.22-.26-.42-.45-.21-.22-.5-.5a7.14,7.14,0,0,0,4.62-.79h0c.27-.13.55-.27.84-.43l.17-.09c.3-.17.6-.35.92-.55h0c.37-.24.81-.48,1.28-.72l1-.49c.61-.28,1.28-.56,2-.84a74.89,74.89,0,0,1,8.59-2.62q3-.76,6.63-1.48c2.84-.56,5.93-1.1,9.25-1.59l.71-.1c5.07-.74,10.65-1.37,16.68-1.86l3.32-.25c8.38-.59,17.56-.9,27.36-.81,17.28.16,31.4-4.36,44.27-11.08q2.76-1.44,5.45-3t5.33-3.24c2.64-1.67,5.25-3.4,7.85-5.19,3.46-2.38,6.91-4.83,10.37-7.31,6.06-4.34,12.19-8.74,18.63-12.9A82.24,82.24,0,0,1,516.46,231c3.52-1.24,7.12-2.31,10.71-3.26l2.69-.69c2.69-.67,5.37-1.29,8-1.87l2.63-.57,5.15-1.08c11.81-2.46,22.08-4.57,27.74-8.51A3.76,3.76,0,0,0,571.16,208.18Zm-232,52.59c1.68-1.28,3.09-2.27,4-2.92l0,0c-2.09,1.47-3.9,2.82-5.49,4.05Zm-173,7.43.7.61v0Z"/></svg>