<svg id="Layer_1" data-name="Layer 1" xmlns="http://www.w3.org/2000/svg" width="600" height="589" viewBox="0 0 600 589"><defs><style>.cls-1{opacity:0.22;}.cls-2{fill:#f89c02;}.cls-3{fill:#e88b00;}.cls-4{fill:#ffb321;}.cls-5{fill:#ffe7b8;}.cls-6{fill:#f7d088;}.cls-7{fill:#9d6000;}.cls-8{fill:#ffbc3a;}.cls-9{fill:#fff;}.cls-10{fill:#f39e19;}.cls-11{fill:#8c3a00;}.cls-12{fill:#f7a200;}</style></defs><title>premio1-1</title><polygon class="cls-1" points="75.06 499.09 235.49 499.09 299.93 526.51 206.69 552.57 109.34 552.57 66.83 521.03 75.06 499.09"/><path class="cls-2" d="M194.73,219.63s-80.64,84.78-77.19,150.94,71,117.86,71,117.86S156.13,372.64,194.73,219.63Z"/><path class="cls-2" d="M361.72,402.43s17.79,16.13,51.52,9.71c42.23-8,40.39-23.41,70-33.06s48.08-.15,49.62,18.25c.94,11.23-3,29.22-36.07,25.77s-59.27,34.46-99.25,26.19-46.18-16.54-46.18-16.54Z"/><path class="cls-3" d="M351.39,432.75s5.07,6.75,35.49,14.14l.84-1.2c-26.65-10.11-26-43.27-26-43.27Z"/><path class="cls-4" d="M258.14,567l-56,.19L200.8,557,189.59,567.9,171.52,569l15.92-29.29s-35.1-155.18-24.57-222.32S239.64,55.36,367.5,91.89c148,42.27,7.35,203.14,7.35,225.53s-1.32,75-52.66,192.22c1.34,2.93,10.12,24.63,13.38,32.7a2.17,2.17,0,0,1-2,3L300.32,545l-6.93-8.62.45,7.17-34.93,1.06S258.14,567.33,258.14,567Z"/><path class="cls-3" d="M299.93,435.2c2.8,8.92.51,12.74-3.06,29.81s-8.15,49.94-3.82,79c-12.23.51-34.14.66-34.14.66l9.53-80.9C288,448.45,291.78,438.26,299.93,435.2Z"/><path class="cls-2" d="M162.87,317.42c-10.53,67.15,24.57,222.32,24.57,222.32L171.52,569,188.76,568l11.94-11.09,1.39,10.27,21.48-1.32c-.25-18.16-1.1-59.64-4-111.88-4.14-73.75,67.54-213,67.54-213l-25-125.57C201,173.44,170,271.68,162.87,317.42Z"/><path class="cls-5" d="M288.72,443.61s30.06-30.57,34.65-36.69l30.06-54.52,32.1-58.6-22.93-3.57-25-31.59-53-19.36-10.19,42.8-5.1,30.57,8.15,11.72-7.64,2.55-3.06,4.59,10.7,23.44L271.39,358l.51,15.29,11.21,21.91-5.61,4.59Z"/><path class="cls-6" d="M355.31,294.81l-22.74,95.74s26.6-45.77,53.62-98.31Z"/><path class="cls-7" d="M293.62,293.08c-1.17-2.46-4.65-5.34-5.64-7.23-3.77-7.21-6.93-7-8.84-5.1s-1.21,10,1.25,12.49a9.67,9.67,0,0,0,1.8,1.33,4,4,0,0,1-1.7,3.25c-4.79,3.43-4,6.94-.62,10.82a15.55,15.55,0,0,0,10.51,5.51c2.85.15,3.12-1.77.94-6C289.23,304.05,296.18,297,293.62,293.08Z"/><path class="cls-7" d="M312,343.21c-1.12,1.34-.31,3.44-1.52,3.44s-2.89-1.56-2.19-3.16,1-3.16,2.19-3.16S313.23,341.75,312,343.21Z"/><path class="cls-7" d="M305.35,305.78s-3.79-1.72-.69,6.2,2.76,12.75,11.72,13.78,1.38-.69-1.38-11.37S313.28,313.71,305.35,305.78Z"/><path class="cls-7" d="M318,275.38c-1.12-4-5.59-.24-10.22-2.43-3.76-1.78-4.62,3.86-4.62,8s3.89,10.95,11.19,10C318.51,290.39,321,285.84,318,275.38Z"/><path class="cls-7" d="M225.6,233.05s-4.62-1-5.35,4.86,3.16.49,5.59,1.7,5.11,4.62,6.08,2.19S227.79,233.05,225.6,233.05Z"/><path class="cls-7" d="M249.93,248.86s8,9,9.49,2.68-.24-6.57-6.32-12.41-2.92,1.22-3.41,4.14A14.65,14.65,0,0,0,249.93,248.86Z"/><path class="cls-8" d="M430.88,94.21c17.66,12.82,25.61,13.86,23.2,25.63a108,108,0,0,0,1.84,48.71L476,227.07a8.5,8.5,0,0,1-2.89,9.52l-34.11,26a6.11,6.11,0,0,0-2.2,6.47l2.66,9.75a5.89,5.89,0,0,1-4.88,7.4c-15.77,2.13-55.68,7.38-76.62,8.83a9.5,9.5,0,0,1-9.89-7.38c-4.85-21-20-30-44.68-38.2-26.35-8.78-63.62-22.61-66.06-51.9a25.44,25.44,0,0,1,.39-6.89c7.69-40,26.14-68.95,26.14-68.95a72.18,72.18,0,0,1-19.61-6.55,20.87,20.87,0,0,1-11-15.33A119.72,119.72,0,0,1,239.8,38a17.12,17.12,0,0,1,7.57-8.67c5.64-3.14,15.85-7.43,30.94-8.63a13.68,13.68,0,0,1,9.38,2.79c22.36,17.15,33.36,42.83,33.36,42.83S385.62,61.35,430.88,94.21Z"/><path class="cls-5" d="M263.85,121.68a178.24,178.24,0,0,0-10.75,20.73c3.32-8.93,6.58-17.21,8.63-21.17C262.43,121.4,263.13,121.54,263.85,121.68Z"/><path class="cls-5" d="M262.19,231.67c10,6.22,21.67,10.94,32.46,14.76-5.37-1.58-10.73-3.23-15.61-5.11A72.17,72.17,0,0,1,262.19,231.67Z"/><path class="cls-5" d="M298.57,96.42a29.61,29.61,0,0,0-5.51.07C295.76,95.79,297.48,95.93,298.57,96.42Z"/><path class="cls-5" d="M299.73,101a6,6,0,0,1,.65-.79Z"/><path class="cls-5" d="M329.69,261.23a50.84,50.84,0,0,1,4.17,3.07C332.51,263.27,331.11,262.25,329.69,261.23Z"/><path class="cls-5" d="M347.09,284.05q.47,1.54.87,3.18A25.71,25.71,0,0,1,347.09,284.05Z"/><path class="cls-5" d="M355.09,237.55c-6.92-1.6-14.16-6.9-21.7-15l8.32,2L365,230.61l1.7,12.57,7.69,7.14c-1.91-.58-4.09-1.17-6.87-1.75C354.17,245.82,367,240.3,355.09,237.55Z"/><path class="cls-5" d="M439,275.45c3.57,8.15-4.48,10.71-4.48,10.71s-56.16,8.65-68.39,9.16a44.21,44.21,0,0,1-9.26-.33,7.78,7.78,0,0,0,1,0c7-.48,16.12-1.4,25.74-2.47-2.39-1.72-5.18-3.91-8.38-6.73-11.49-10.11,4.15-13.93,4.15-13.93,30.8,3.07,45.47-6.29,45.47-6.29-20.21-2.29-13.33-11.49-22.51-11.49q-2.1,0-3.94,0l8.46-5.69L411,237.24l7.56-5.52,34.74,6,.41,13.58a61.62,61.62,0,0,1-12.64,7.82C433.43,262.72,435.47,267.3,439,275.45Z"/><path class="cls-9" d="M449.89,176.45s3.42-6.27,5.7-19.94c2.16-12.94-7.09-21.52-7.09-21.52S443.71,165.85,449.89,176.45Z"/><path class="cls-10" d="M427.72,91.77c1.28.87.5-3.2,1.33-4.81,2.44-4.8,7.29-12.43,10.34-17.58a8.52,8.52,0,0,0-1.22-10.29C428,48.63,398.95,25.92,363.37,69.36,363.37,69.36,393.28,68.47,427.72,91.77Z"/><path class="cls-8" d="M403.29,48.66l-7.2-3.51c-9.89,2.73-20.94,9.83-32.71,24.2,0,0,14.12,1.34,36.56,10.51l3.35-2.07C421.55,55.62,403.29,48.66,403.29,48.66Z"/><path class="cls-10" d="M452.56,156.1s-3.78-10.33,1.52-36.26a13,13,0,0,0-.22-7.38l-1.19.24s-36,6.9-32,39.42l7.94,74.14,30,9.63L476,227.07Z"/><path class="cls-7" d="M365.3,116.62c3.85-.7,8.48-.14,11-6,1.23-2.8-1.93-10.5-7.7-7.88s-7.06,7.21-11.9,11.2c-3,2.45-3.5,5.25-1.93,7.7C357.51,125.92,362.43,117.15,365.3,116.62Z"/><path class="cls-7" d="M367.93,129.4s4.38-.53,9.8,4.55c5.6,2.1,4.38,3,3.85,5.08-1.54,1.26-8.08,1.29-10.67,1.25a4.37,4.37,0,0,1-2.1-.56c-1.74-1-5-3.22-4.2-5.94C366.18,130.1,367.93,129.4,367.93,129.4Z"/><path class="cls-7" d="M398.21,121.7c-1.9-1.41-7.35-4-9.45.53.35,6,5.08,2.28,4.9,7.18-.12,3.4,8.12,10.44,10,7.53,1.23-1.93,2.45-2.45,4.73-2.8S401.43,124.09,398.21,121.7Z"/><path class="cls-7" d="M382.64,97.38s1.83.73,6-2,16.61,5.11,16.61,5.11,3.1,3.1.73,6.76-7.85,2-10.41-.73-6.76-6.57-8.95-6S383.19,100.49,382.64,97.38Z"/><path class="cls-7" d="M328.42,163.17s-16-2.73-8.59,7.8,14.44,2,18,2.73c7.47,1.57,5.44-9.11-.1-10.19A26.34,26.34,0,0,0,328.42,163.17Z"/><path class="cls-7" d="M339.58,179.6a10.15,10.15,0,0,0-2.84-1.62c-.54-2.3-5.27-.81-6.22,2.84s5.14,10.41,15.55,9.6c5.54,1.35.14,6.49,7.57,9.33s10-3.38,8.65-5.95c-3.38-5.27-9.6-2.7-12.71-5.68S347.56,179.47,339.58,179.6Z"/><path class="cls-7" d="M363.78,202s2.64,1.19,3.38-1.49c1.35-4.87,3.65-2.84,4.87-4.87s5.41-6.22,8.11-2.3.95,6.76-1.08,7.71-5.14-.41-6.63,2.43-3.83,1.19-5.41.41C365.94,203.4,364.19,205.16,363.78,202Z"/><path class="cls-7" d="M391.64,197.18c-.27,1.76-1.35,1.89-2.84,2.3s2.3,2.84,5.14-.54,1.49-7.71-.68-6.08S391.84,195.88,391.64,197.18Z"/><path class="cls-7" d="M398.67,212.46c-.11.57-2,.81-2.84,2-1.28,1.92.27,1.89.27,3.92s10.41-3.92,12.85-10.41-.41-8.65-4.87-3.38S399.37,208.7,398.67,212.46Z"/><path class="cls-11" d="M433.33,225.48a5.88,5.88,0,0,0-4.74.77,71.49,71.49,0,0,1-10,5.47c-5.13,1.82-2.2,6.24-2.2,6.24s2.29,3.24,6.36-.06,25.2-5,30.24,13l.75.44L476.53,234a2.51,2.51,0,0,0,.86-2.82l-2.61-7.62-2.21.6C467.8,226.07,453.46,230.62,433.33,225.48Z"/><path class="cls-12" d="M406.51,153.19s-5,21.19-11.16,27.36l30.21,18.87s-3.82-27.16.61-72C426.17,127.42,418.29,153.91,406.51,153.19Z"/><path class="cls-9" d="M352.81,155.78l9.82,19.05c2.61,4.62,8.85,7.85,14,9,5.95,1.36,13.4,2.29,16.5-.55,7.39-6.36,13.55-30.23,13.55-30.23Z"/><path d="M398.88,154.06c-1.08,11.25-5.92,19.39-9.49,19.39-5.65,0-8.32-5.42-8.14-18.85"/><path class="cls-10" d="M425.27,129s-3.09,21.6-14.61,23.44-56.9,2.56-56.9,2.56,49.88-3.4,55.42-11.5S415.35,117.48,425.27,129Z"/><path class="cls-7" d="M426.11,132.7s-4.89,18.55-16.4,20.39S342.41,155,342.41,155s60.83-2.71,67.63-5.16,9-9.25,9.53-11.16S422.82,131.73,426.11,132.7Z"/><path class="cls-7" d="M416.24,148.14s8.4-5.84-2.56-22.27c-9.31-17.34,1.83-17,3.83-15.7s15.88,12.78,4.56,32.86A16.68,16.68,0,0,1,416.24,148.14Z"/><path class="cls-6" d="M375.31,285.79c3.2,2.82,6,5,8.38,6.73-9.62,1.07-18.75,2-25.74,2.47a7.78,7.78,0,0,1-1,0c-4.52-.8-7.29-3-9-7.77q-.39-1.64-.87-3.18c-.1-.47-.2-1-.29-1.46-1.43-8.2-6.6-13.42-12.9-18.25l-.05,0a50.84,50.84,0,0,0-4.17-3.07c-1.41-1-2.84-2-4.28-3.1-6.69-4.93-18.74-8.16-30.76-11.7-10.79-3.82-22.47-8.54-32.46-14.76-9.42-7.07-17.47-16-21.37-23.48-6.11-11.72.51-32.61.51-32.61s6-17.57,11.78-33.17a178.24,178.24,0,0,1,10.75-20.73c-.72-.14-1.43-.28-2.11-.43a16.05,16.05,0,0,1,1-1.72c4.59-6.62,21.91-20.89,30.33-23a29.61,29.61,0,0,1,5.51-.07c2.32,1,1.83,3.74,1.83,3.74l0,0a6,6,0,0,0-.65.79,159.19,159.19,0,0,0-15.6,23.64c-7.64,14.27-9.17,14.27-12.23,26s.51,30.57.51,30.57l23.95,32.61,37,8.74c7.54,8.11,14.77,13.41,21.7,15,11.95,2.76-.92,8.27,12.41,11,2.78.58,5,1.17,6.87,1.75l6.58,6.11,14.61-.34,2.91-2q1.84,0,3.94,0c9.19,0,2.3,9.19,22.51,11.49,0,0-14.67,9.36-45.47,6.29C379.46,271.87,363.82,275.68,375.31,285.79Z"/><path class="cls-12" d="M262.19,231.67c-13.31-8.28-23.63-19.2-24.87-34.15a25.41,25.41,0,0,1,.39-6.89,222.11,222.11,0,0,1,15.4-48.21c-5.8,15.59-11.78,33.17-11.78,33.17s-6.62,20.89-.51,32.61C244.72,215.67,252.77,224.6,262.19,231.67Z"/><path class="cls-12" d="M293.06,96.49c-8.42,2.15-25.74,16.42-30.33,23a16.05,16.05,0,0,0-1,1.72,70.84,70.84,0,0,1-17.49-6.11,20.88,20.88,0,0,1-11-15.33,120.44,120.44,0,0,1,4.16-55c8.65-4.16,19-5.32,26.25,6.22C278.36,74.43,293.06,96.49,293.06,96.49Z"/><path class="cls-12" d="M298.57,96.42c2.5.28,4.38,1.19,1.83,3.74C300.41,100.16,300.9,97.47,298.57,96.42Z"/><path class="cls-12" d="M325.41,258.13c1.44,1.06,2.87,2.08,4.28,3.1-7-4.66-15.79-8.3-26.32-11.81-2.8-.93-5.73-1.93-8.72-3C306.67,250,318.72,253.2,325.41,258.13Z"/><path class="cls-12" d="M346.81,282.59c.09.5.18,1,.29,1.46a39.75,39.75,0,0,0-13.19-19.71C340.21,269.17,345.38,274.38,346.81,282.59Z"/><path class="cls-12" d="M356.91,295a9.49,9.49,0,0,1-8.86-7.38l-.09-.38C349.63,292.05,352.39,294.2,356.91,295Z"/><path class="cls-12" d="M361.52,154.38s-16.54-2.76-23.43,1.83S325.22,152.54,317,159s-14.25,21.6-.46,41.81a187.9,187.9,0,0,0,16.9,21.75l-37-8.74-23.95-32.61s-3.57-18.85-.51-30.57,4.59-11.72,12.23-26A159.19,159.19,0,0,1,299.73,101c-4.43,6.36-4.54,27.67,14.93,27.67,19.3,0,28.75-12.58,29.87-10.57C346.82,122.21,336.25,133.25,361.52,154.38Z"/><path class="cls-12" d="M398.47,254.13l-2.91,2-14.61.34-6.58-6.11C381,252.34,384.4,254.14,398.47,254.13Z"/><path class="cls-7" d="M444.63,257.72s-40.86,19.53-68,11.76c-.2-.4-6.58,2.59-6.18,4.58s6.38-2.19,9-2.19,23.92,7.77,64-12.16"/><path class="cls-7" d="M352.52,141.48s3.85.18,3.33-1.05.18-1.93-3.68-2.45-3-2.8-8.4-1.4-12.25,2.63-11.2,6.13,5.25,3.68,9.1,2.45S346.92,141.13,352.52,141.48Z"/><path class="cls-5" d="M461,226.54l-1.53-14.78L463,201.57l3.57-1,8.22,23A88.11,88.11,0,0,1,461,226.54Z"/><path class="cls-7" d="M216.37,260.07c-12.84.24-20.34,12.41-19.66,24.28.34,5.92,9.6,6,9.26,0-.38-6.65,2.56-14.85,10.4-15,8.52-.19,8.6,11.37,8.8,17.95.18,5.94,12.57,5.26,12.38-.71C237.19,274.64,230.6,259.81,216.37,260.07Z"/><path class="cls-7" d="M208.57,221.43c-.28-.24-3.35-3.06-4.69-2.79-1.64.33-2.85,3.79-3.45,5.73a16.5,16.5,0,0,0-1,3.92c-.21,1.53-.9,6.13-1,6.92A12.29,12.29,0,0,0,202,245.89c3.38,3.1,5.34-1.45,6.54-4l3-6.29c.75-1.58,1.83-3.24,1.93-5C213.64,227.52,210.79,223.38,208.57,221.43Z"/><path class="cls-7" d="M194.45,253.63c-.74-2-4-2.45-5.44-1.72-2.33,1.2-2.62,5.44-3.57,7.53-1.3,2.89-2.81,7.29.18,9.75s6.23-1.2,7.42-3.73C194.62,262.12,195.77,257.17,194.45,253.63Z"/><path class="cls-7" d="M219.16,276.87c-.63-1.45-1.88-4.83-5.23-3.1a5.47,5.47,0,0,0-2.53,2.77c-1.29,2.87-1.93,7-.37,9.91a3.7,3.7,0,0,0,6.82-.22C219.19,283.1,220.9,280.88,219.16,276.87Z"/><path class="cls-7" d="M268.85,269.47c-2.31-1.79.6-5.65-.65-8.18-.87-1.76-2.2-3.59-4.35-3.63a3.81,3.81,0,0,0-3.7,3.09c-1,4.25,2,9.54,3.6,13.31q1.55,3.58,3.43,7c1.13,2.07,2.14,3.8,4.43,4.63,1.53.56,2.78-1,3.23-2.46C276.11,278.89,277.89,276.47,268.85,269.47Z"/><path class="cls-7" d="M340.78,333.81c-1.46-.08-3,.29-4.38-.25a21.72,21.72,0,0,1-2.5-2.32,4.83,4.83,0,0,0-3.93-.8c-4.36.71-4.17,6.45-4.39,7-1.07,2.8-3.25,7.94-.23,10.3s7-.44,9.48-2.15a33.73,33.73,0,0,0,8.15-8C344.21,336,342.51,333.91,340.78,333.81Z"/><path class="cls-7" d="M354.15,310.45a5,5,0,0,0-5.13-2.62,2.36,2.36,0,0,0-.7.14,6.23,6.23,0,0,0-1.7.73,22.69,22.69,0,0,0-5.11,4.08c-2.31,2.13-3.44,3-4.4,5.39-.47,1.16-1.58,3.24-1.64,5-.14,3.75,4.64,2.93,7.07,1.92C347.49,323.08,358.19,317.48,354.15,310.45Z"/><path class="cls-7" d="M331.73,301.54l.41-1.09a2.56,2.56,0,0,0-1.78-3.13,2.62,2.62,0,0,0-3.13,1.78l-1.16,3.08a2.38,2.38,0,0,0,.77,2.54l0,0c.67,1,2.36,1.78,3.49.91l.62-.48a2.64,2.64,0,0,0,1.17-2.88A2.86,2.86,0,0,0,331.73,301.54Z"/><path class="cls-7" d="M194.8,315.33c-1.2,1.14-.91,3.69-3.93,4-1.27.11-1.16-1.41-4-2.42-4.06-1.47-5.63,3-4.3,6.87,1.11,3.21,5,6.44,8.48,4.62s6.08-6.53,7.71-9.93C200,315.87,197,313.25,194.8,315.33Z"/><path class="cls-7" d="M195.47,301.54c-.69-1-2.29-2.34-2.22-4.18.09-2.35-4.23-3-5-.23-.67,2.46-2.14,5.61-1.64,8.18a4.26,4.26,0,0,0,5.27,3.41c2.08-.42,4-1.58,4.44-3.79A5,5,0,0,0,195.47,301.54Z"/><path class="cls-7" d="M193.15,281.81c-2.41-4.24-8.63-2.63-12.17-.08-5.68,4.1-6.75,7.29-8.87,14.62a47.51,47.51,0,0,0-.65,13.6c.28,3.11,1.8,10.37,6.26,9.48s4.44-8.09,4-11.47c-.42-3.19-2.51-4.28-2.33-10.25a19.74,19.74,0,0,1,2-5.7c.75-1.36,3.22-4,8.77-2.75C193.24,290,194.56,284.29,193.15,281.81Z"/><path class="cls-7" d="M238.15,219.87a17.38,17.38,0,0,0-2.06-4.57q-.52-1-1.07-2l-.57-1.34a85.29,85.29,0,0,0-4.28-8.63c-1-1.83-2.15-4.87-4.26-5.82-1.8-.81-4-.27-5.91.86a12.39,12.39,0,0,0-5.11,7.62c-.64,2.64-.57,5.66,1.11,7.91,2.37,3.18,6,1.4,8.94,3.3s4.48,5.17,7.59,6.57C235.31,225,238.72,223.14,238.15,219.87Z"/><path class="cls-7" d="M416.32,181a11.58,11.58,0,0,0-2.27-3.64,2.84,2.84,0,0,0-3.29-.48,21.7,21.7,0,0,0-2.19,2.51c-1,1.2-2.06,2.37-3,3.62a9.55,9.55,0,0,0-.86,1.34,5.63,5.63,0,0,0-.73,1.19c-.64,1.48-.38,3.59,1.26,4.32a2.66,2.66,0,0,0,2.29-.16,11.39,11.39,0,0,0,2-1.35c.81-.6,1.2-1.23,1.33-.12a7.43,7.43,0,0,1-1.69,4.72c-3.85,3.72-.64,5.34-.11,5.93a.78.78,0,0,0,.93.12c2.21-1.06,4.46-3,6.42-8.61C418.14,185.24,416.55,182.91,416.32,181Z"/><path class="cls-7" d="M372.19,301.59a1.14,1.14,0,0,0-1.57-.71.71.71,0,0,0-.41,0c-2.66.91-6.09,2.07-8.17,4a2.58,2.58,0,0,0-.84,1.73,42.07,42.07,0,0,0-.59,5.46c-.07,1.56,1.07,2.21,2.37,1.15a7.4,7.4,0,0,0,1.52-2.46c.86-1.54,2.11-2.12,3.62-2.81,1.74-.79,4-1.94,4.26-4.08a2.86,2.86,0,0,0,0-.68A3.21,3.21,0,0,0,372.19,301.59Z"/><path class="cls-7" d="M298.53,263a11.12,11.12,0,0,0-3.86-1.46c-2.61-.75-3.8-2.44-5.5-4.43-2.36-2.77-4.71-5.66-8.4-6.56a.75.75,0,0,0-.56.08h-.15a.78.78,0,0,0-.66,1.15c2.69,6.28,5.62,12.66,9.78,18.08.76,1,2.53,3,4.13,2.1.43-.24.43-.85.84-1.2.25-.21,2,.22,2,.22,1.44.5,2.66-.58,3.46-1.34A4.76,4.76,0,0,0,298.53,263Z"/><path class="cls-7" d="M319.7,361.86a.74.74,0,0,0-1.32-.25.81.81,0,0,0-.49.21l-5.47,4.78a.77.77,0,0,0,.34,1.28C316.43,369.32,320.48,365.63,319.7,361.86Z"/><path class="cls-7" d="M295.87,324.11c-1.62-.57-1.46-.08-1.85-3-.14-1.05-1.7-1.24-2.64-.76a2.8,2.8,0,0,0-1.5,2.78,5.17,5.17,0,0,0,1.43,2.76,3,3,0,0,0,.53.73c1.18,1.16,4.23,1.66,5-.06C297.06,325.93,297.5,324.68,295.87,324.11Z"/><path class="cls-7" d="M269,315.49c.83-1.71,1.39-3.64.6-5.48a3.7,3.7,0,0,0-3.57-2.4,3,3,0,0,0-2.83,2.55c-.21,1.83,1.26,3.36,2.52,4.46.49.43,1,.83,1.5,1.26,0,.18,0,.36,0,.54,0,1.18,1.11,4.69,2.86,2.85C271.16,318.16,270.07,316.59,269,315.49Z"/><path class="cls-3" d="M262.78,123.66s-19.11-14.52-22.93-22.16-2.29-55.79.76-61.14,12.23-14.52,12.23-14.52-12.23,4.59-14.52,6.11-9.17,19.11-9.17,38.22.76,33.63,2.29,36.69,26,16.81,26,16.81a136.86,136.86,0,0,0-14.52,30.57c-5.35,16.81-15.29,35.92-12.23,44.33s20.64,33.63,20.64,33.63-9.94-22.93-12.23-31.34,0-19.87,7.64-41.27S256.66,132.83,262.78,123.66Z"/><path class="cls-3" d="M362.9,295.63s-16.09,2.16-16.94,2-2.55-5.94-2.55-5.94-.51-4.08.34-6.11-7-12.74-10-16.65-13.93-10.53-16-11.72-26.5-11.55-27.69-11.72-13.08-3.91-14.95-5.1-8.32-6.28-9.51-8.66c0,0,9.51,5.44,13.25,6.79s17.33,2.21,18.85,2.89,8.49,2,11.72,3.91,12.06,4.93,18.85,9.68a144.78,144.78,0,0,1,14.1,11.72s4.19,7.48,5.27,10.7c1,3.06.42,5.27.59,8.32s-.68,5.61,1.27,8.24c0,0,4.32.15,14.84.13a.53.53,0,0,1,.16,1Z"/><path class="cls-3" d="M160.82,314.43s-5.1,0-3.57,34.14,25,189,25,189,3.06,6.11,6.62,8.66c0,0-19.36-133-23.44-163.57S160.82,343,160.82,314.43Z"/></svg>