<svg id="Layer_1" data-name="Layer 1" xmlns="http://www.w3.org/2000/svg" width="600" height="589" viewBox="0 0 600 589"><defs><style>.cls-1{fill:#f5d3e1;}.cls-2{fill:#f5bfd5;}.cls-3{fill:#f59fc2;}.cls-4{fill:#ed7eab;}.cls-5{fill:#fff;}</style></defs><title>premio_leccion_5_1</title><path class="cls-1" d="M438.29,232.24s27.69,0,36.47,16.88,9.46,45.93,9.46,45.93,30.39-3.38,33.09,10.13-23.64,18.24-57.41,6.75c0,0,17.56-54-30.39-55.38Z"/><path class="cls-2" d="M517.06,309.62c-10.29-4.38-28.2-3.91-38.24-2.09-13.55,2.46-2.68-15.36-7.39-32.85-5.75-21.35-25.24-25.75-37.29-31l-4.64,12.84c48,1.35,30.39,55.38,30.39,55.38C489.64,322,513.61,319.58,517.06,309.62Z"/><path class="cls-3" d="M230.95,133.63s11.48-3.38-14.86-29-56.73-89.15-91.85-84.42,27.69,70.24,41.2,83.07,43.22,39.17,48,39.17S230.95,133.63,230.95,133.63Z"/><path class="cls-3" d="M206,149.17S141.12,109.32,89.12,45.83c-18.24-25.66-32.36-18.6-44.58-2-9.46,12.83,20.94,64.84,78.34,93.88s68.89,31.74,68.89,31.74Z"/><path class="cls-3" d="M172.19,214.68s1.35-27,6.75-29.72-109.41-41.2-109.41-41.2-19.59-10.13-27.69,13.51,44.58,46.6,66.86,52S162.73,219.41,172.19,214.68Z"/><path class="cls-4" d="M230.95,133.63a3.83,3.83,0,0,0,2.42-3.25c-16.88-9.47-53.89-32.33-79.85-63.59-21.18-25.51-20.84-38.93-16.68-45.51a29.48,29.48,0,0,0-12.61-1.12c-35.12,4.73,27.69,70.24,41.2,83.07s43.22,39.17,48,39.17S230.95,133.63,230.95,133.63Z"/><path class="cls-4" d="M129.93,121.06C79.19,84.1,63.26,48.7,58.28,30.85c-4.88,2.46-9.43,7.11-13.74,13-9.46,12.83,20.94,64.84,78.34,93.88s68.89,31.74,68.89,31.74l5.57-8C183.1,155.69,161.55,144.08,129.93,121.06Z"/><path class="cls-4" d="M172.4,200.48c-80.52-3.89-111.62-36.4-123-55.17-2.92,2.38-5.61,6.14-7.6,12-8.1,23.64,44.58,46.6,66.86,52s54,10.13,63.49,5.4c0,0,.35-7,1.41-14.26Z"/><path class="cls-1" d="M326.19,558.43s3.65-122.86-80.29-142.32c-42.58-8.52-99.75,30.41-75.42,63.25,14.82,17.86-16.33,18.69-30.87,20.76s-29.49-3.32-28.66-13.71S135,477.28,140,477.69c0,0-24.51-65.63,72.28-84.33-7.06-7.48-25.34-31.16-27-111.33-9.55,0-63.56-18.69-72.7,41.13,0,0,7.06,11.63-6.65,14.12s-51.1,11.63-55.25,1.25,0-20.77,14.54-23.68,19.94-1.25,19.94-1.25-2.44-34.49,10.93-47.86S231.37,207.56,332,289.34c37.75,37,28.31,57.41,28.31,73.13,0,0,50.33-11.8,84.93,22.8,0,0,20.45-28.31,33-14.15s-2.36,28.31-13.37,40.11-17.3,18.09-22.8,12.58-47.18-46.4-92.79-23.59c0,0-9.44,40.89-3.93,75.49S335.28,560.15,326.19,558.43Z"/><path class="cls-3" d="M350.49,126.88S408.39,73.23,445,53.94c34.34-18.08,40.35-5.6,39.85,7.43-.68,17.56-33.77,36.47-59.43,45.25s-44.58,34.44-44.58,34.44Z"/><path class="cls-3" d="M394.39,149.84s32.41-28.85,92.53-48c72.27-23,85.57-10.21,78.34,8.1-10.13,25.66-33.77,24.31-65.51,29.72s-52.68,10.81-84.42,31.74Z"/><path class="cls-3" d="M421.4,174.16l106-6.08s20.26-3.38,20.94,11.48-3.38,22.29-18.91,21.61-91.18,1.35-91.18,1.35S430.18,174.83,421.4,174.16Z"/><path class="cls-4" d="M477.61,45.83c-1.28,6.87-9.27,16.08-32,27.84-43.89,22.7-68.83,49.19-78.52,61l13.78,6.43s18.91-25.66,44.58-34.44,58.76-27.69,59.43-45.25C485.15,54.7,483.69,48.19,477.61,45.83Z"/><path class="cls-4" d="M415.33,171.46c31.74-20.94,52.68-26.34,84.42-31.74s55.38-4.05,65.51-29.72c-5.13-9.89-16.63,11.53-59.34,10.3-35.59-1-87.15,27.36-104,37.28Z"/><path class="cls-4" d="M438.29,202.52s75.64-2,91.18-1.35,19.59-6.75,18.91-21.61c0,0,0,0,0-.08-5.9,7.48-21.73,11.4-49.42,6.51a127.25,127.25,0,0,0-64.77,5C436.7,197.11,438.29,202.52,438.29,202.52Z"/><path class="cls-2" d="M344,302.39l-1-.47C265.19,317.65,185,262.61,185,262.61c-62.91-1.57-83.36,26-81.78,47.18.55,7.47-1.43,12-4.22,14.77A56.68,56.68,0,0,0,85.66,323c-18.12,0-32.82,8-33,17.9,6.81,4.9,27.25,1.48,42-1.41h0l.21,0,1.37-.27.16,0,5.53-1.1H102l1.12-.22.35-.07,1-.18.35-.07,1.19-.22c.56-.1,1.08-.22,1.57-.36l.37-.1c.44-.13.86-.26,1.24-.41l.1,0a11.64,11.64,0,0,0,1.15-.53l.23-.13a9.29,9.29,0,0,0,.88-.56l.07-.05a7.67,7.67,0,0,0,.81-.69l.1-.1a6.79,6.79,0,0,0,.61-.71l0,0a6.37,6.37,0,0,0,.51-.82l0,0a6.42,6.42,0,0,0,.36-.85h0c1.4-4.05-1.42-8.71-1.42-8.71,7.58-49.58,46-45.22,64.34-42.28a24.43,24.43,0,0,1,7.44,1.11c.34,0,.65,0,.92,0,0,.1,0,.19,0,.29,7.88,2.93,12.11,9.65,17,14.1,49.67,61.39,138.05,49,159,45C360.71,331.07,357.17,318.53,344,302.39Z"/><path class="cls-2" d="M186.3,304.69c4.26,62.13,19.66,82,26,88.68.31.25,14.35-1.79,14.35-1.79C200.21,366.75,190.07,327.12,186.3,304.69Z"/><path class="cls-2" d="M275.15,410.71c-39.37-22.64-129.24,2.74-109.88,57.56-6.59-29.81,42.79-59.73,80.64-52.16,83.93,19.46,80.29,142.32,80.29,142.32,2.4.45,5.25-2.71,8.05-8.2C335,509.38,327.67,440.91,275.15,410.71Z"/><path class="cls-2" d="M436.57,418.63l.34-.11c-15.24-59.94-85.85-36.58-85.85-36.58l-1.73,18.28C387.41,381.18,422.74,406.53,436.57,418.63Z"/><path class="cls-2" d="M481.78,376.42c-8.5.83-19.74,8.68-28.64,20.87-6.56,9-10.47,18.46-11.37,26.17l.35.35c5.5,5.5,11.8-.79,22.8-12.58C474.56,400.91,487.21,388.78,481.78,376.42Z"/><path class="cls-1" d="M446.84,215.05c0,56-63.92,101.43-142.78,101.43S161.28,271.07,161.28,215.05s63.92-101.43,142.78-101.43a195.23,195.23,0,0,1,49.5,6.26C408,134.19,446.84,171.4,446.84,215.05Z"/><path class="cls-5" d="M283,222.11s-52.68-14.86-62.14,20.26c-9.75,36.22,54.71,50,91.85,52s84.42-23.64,97.93-39.17,16.21-52.68-12.83-42.55C367.61,223.17,332.25,234.27,283,222.11Z"/><path d="M274.47,202.18c-11.26-2.39-24.23-2.39-38.22,0-3.33.57-6.14-2.76-6.14-6.14h0c0-3.38,2.85-5.39,6.14-6.14,11.94-2.73,26.27-3.07,38.22,0,3.27.84,6.14,2.76,6.14,6.14h0C280.61,199.42,277.77,202.88,274.47,202.18Z"/><path d="M402.11,198.69c-8.22-1.29-17.77.42-26.42,3.25-2.62.86-5.25-1.63-5.59-4.36l0-.21c-.34-2.74,1.75-4.7,4.36-5.59a58,58,0,0,1,26.42-3.25c2.74.27,5.25,1.63,5.59,4.36l0,.21C406.81,195.84,404.84,199.12,402.11,198.69Z"/><path class="cls-2" d="M174.35,488.06c-7-2-16.86-2.73-27.68-1.81-13.7,1.16-25.44,4.74-31.54,9.09,5.34,4.32,15,6.14,24.48,4.79C151.29,498.46,173.66,497.58,174.35,488.06Z"/></svg>