<svg id="Layer_1" data-name="Layer 1" xmlns="http://www.w3.org/2000/svg" width="600" height="589" viewBox="0 0 600 589"><defs><style>.cls-1{fill:#c49b8a;}.cls-2{fill:#b58f7e;}.cls-3{fill:#917366;}.cls-4{fill:#fff;}.cls-5{fill:#a38173;}.cls-6{fill:none;stroke:#917366;stroke-miterlimit:10;stroke-width:1.5px;}</style></defs><title>premio3-3</title><path class="cls-1" d="M251.26,111.37s-13.82-67.24,6.91-67.87,54-5.66,59.7,21.37,6.91,31.42,6.91,31.42S263.83,117,251.26,111.37Z"/><path class="cls-2" d="M324.78,96.28s-1.2-4.23-6.48-29.36c-8.88-.63-22.27,5.51-39.22,3.32-15.42-2-24.44-12.46-29.16-20.41-7.84,16.85,1.34,61.53,1.34,61.53C263.83,117,324.78,96.28,324.78,96.28Z"/><path class="cls-1" d="M382,212.54s0,27.65-3.77,48.39c0,0,91.74,130.08,99.28,220.56,4.4,54.67-61.58,76.66-138.24,74.15S226.12,564.43,201,442.52c-13.82-94.26,28.91-167.15,17.59-243.81-6.91-54.67,17-74.15,17-74.15s-11.31-9.43-40.22,3.14-57.18-17-59.7-78.55c1.26-21.37,52.78-38.33,86.09-8.8S250,83.72,282.05,95c0,0,50.9-16.34,66-9.43S385.11,112,399.56,112s30.79,2.51,25.76,17S404.59,188,382,212.54Z"/><path class="cls-2" d="M350.3,555.81c2.35,0,4.69,0,7-.06l1.7,0q8.7-.22,17.09-.9l1.44-.12q3.82-.33,7.56-.76l.76-.08q8.49-1,16.48-2.54l.66-.13c2.62-.51,5.19-1.06,7.72-1.66h0l-.67-5.21a18.31,18.31,0,0,0-14.38-15.7c-16.58-3.33-20.25-24.39-22.43-41.83-2.64-21.11-7.92-5.28-29,14.08s-25.51,14.08-44-20.23-4.4-150.44-4.4-150.44c15-4.4,59.82-83.58,59.82-83.58S307.44,76.5,275.49,97.38c-33.32,21.77-35.08,8.47-35.08,8.47-8.8-40.47-58.06-81.82-44-63.34s1.76,36.07,1.76,36.07L185,77.69c-13.2-.88-23.75-12.32-28.15-19.35-2.46-3.93-6.29-15.82-9.19-25.55h0a33.82,33.82,0,0,0-6.75,5.43l-.23.26q-.74.8-1.37,1.64l-.38.52q-.52.72-1,1.45c-.13.22-.26.43-.38.65-.25.46-.48.94-.68,1.41-.1.24-.21.47-.3.71a15.26,15.26,0,0,0-.47,1.48c-.06.22-.13.43-.18.65a13.9,13.9,0,0,0-.31,2.16c2.51,61.58,30.79,91.12,59.7,78.55s40.22-3.14,40.22-3.14-23.88,19.48-17,74.15c.31,2.09.56,4.17.79,6.25.09.78.16,1.57.24,2.35q.18,1.87.32,3.74c.07,1,.15,2,.21,2.93.1,1.69.17,3.38.23,5.07v0c6.48,9.28,16.84,79.88,40.59,97.7C279.52,330.68,265,383,265,383c-20.92,86.6.39,142.46,17.26,170.42h0c12.24,1.48,26,1.59,41.61,1.88l6.59.13.88,0q3.86.09,7.85.22c2.91.1,5.8.14,8.67.17Z"/><path class="cls-3" d="M252.38,554.94s11.74,12.5,32.28,11.36,21.52-12.61,21.52-12.61-5-19.22-27.66-19.22C258.85,534.47,252.38,554.94,252.38,554.94Z"/><path class="cls-3" d="M375,557.56s11.74,12.5,32.28,11.36,21.52-12.61,21.52-12.61-5-19.22-27.66-19.22C381.43,537.09,375,557.56,375,557.56Z"/><path class="cls-1" d="M349.82,346c6.18,8.59,24.9,27.39,13.38,41.08-12.75,15.16-41.08-21.48-38.28-48.24s15.56-33.61,35.48-17.12C360.4,321.74,336.56,327.6,349.82,346Z"/><path class="cls-1" d="M260.49,318.94s36.2,36.75,22.41,78.12c-6.54,19.61-34.86-12.14-29.26-49.8C258.67,313.51,260.49,318.94,260.49,318.94Z"/><path class="cls-1" d="M382,212.54C404.59,188,420.3,143.41,425.32,129S414,112,399.56,112,363.11,92.51,348,85.6s-66,9.43-66,9.43c-.95-.33-1.85-.67-2.74-1-21.33,25.77-36,61.07-16.91,103.32C290.55,251,295,243.09,322.22,227.25c12.32-6.16-22,39.59,1.76,37.83S382,212.54,382,212.54Z"/><path d="M334.17,129.41c0-12.31-3.63-17.33-8.7-18.85-7.15-2.15-15.65-2.3-18.27-.29-4.93,3.77-14.8,17.17-14.41,21,1.28,12.24,8.6,23.08,18.76,22.5C327.28,152.88,334.17,141.72,334.17,129.41Z"/><ellipse class="cls-4" cx="325.39" cy="132.42" rx="7.81" ry="4" transform="translate(-6.45 247.74) rotate(-41.31)"/><path class="cls-4" d="M329.72,113.12a9.71,9.71,0,0,0-4.26-2.56c-7.15-2.15-15.65-2.3-18.27-.29a29.35,29.35,0,0,0-3.51,3.36c.16,1.12.49,1.94,1.06,2.12,2.23.69,5.83-1.72,5.15,1.2s-4.55.09-5.66,7.21c-.95,6,3.14,9,7.07,8.08,7.69-1.85,11.32-7.57,11.32-12.89,0-3.18,4.1-4.67,6.32-5.78A4.3,4.3,0,0,0,329.72,113.12Z"/><path class="cls-1" d="M362.1,332.53s-18.54-20.21-23.79,6.58c-5.06,25.81,16.7,51.63,27.33,38s23.28,15.18,23.28,15.18l-38,33.91L301.87,373l23.79-69.85,35.94-6.07,14.68,28.35Z"/><path class="cls-2" d="M363.2,387.1a15.09,15.09,0,0,0,3.6-11.33,13.54,13.54,0,0,0-1.16,1.3c-10.63,13.67-32.39-12.15-27.33-38,2.57-13.09,8.3-14.95,13.49-13.44,9.29,2.9,8.59-3.93,8.59-3.93-19.92-16.5-32.68-9.65-35.48,17.12S350.45,402.26,363.2,387.1Z"/><path class="cls-5" d="M349.82,346c2.22,2.95,4.64,5.74,6.89,8.66a79.54,79.54,0,0,1,6.27,9.14,32.22,32.22,0,0,1,4,10.38,17.51,17.51,0,0,1,.07,5.62,14.9,14.9,0,0,1-1.92,5.3,15.47,15.47,0,0,1-3.68,4.29,9.89,9.89,0,0,1-5.29,2.11,12.12,12.12,0,0,1-5.6-1,21.13,21.13,0,0,1-4.86-2.86A40.08,40.08,0,0,1,338,379.6a64,64,0,0,1-5.72-9.56,79.14,79.14,0,0,1-6.75-21.14,74.32,74.32,0,0,1-1.06-11.07,44.73,44.73,0,0,1,1.06-11.09,21.5,21.5,0,0,1,5-9.94,13.45,13.45,0,0,1,4.62-3.19,14.17,14.17,0,0,1,5.5-1,24.27,24.27,0,0,1,10.66,2.94,48.85,48.85,0,0,1,9.14,6.23,48.73,48.73,0,0,0-9.24-6,23.92,23.92,0,0,0-10.55-2.68,13.88,13.88,0,0,0-5.29,1.06,12.85,12.85,0,0,0-4.38,3.1,20.82,20.82,0,0,0-4.68,9.69,46.15,46.15,0,0,0-.94,10.9,73.42,73.42,0,0,0,1.09,10.93,78.19,78.19,0,0,0,6.75,20.86,63.46,63.46,0,0,0,5.59,9.43,39.17,39.17,0,0,0,7.45,7.95,20.24,20.24,0,0,0,4.64,2.76,11.25,11.25,0,0,0,5.2.91,9.07,9.07,0,0,0,4.85-1.91,14.69,14.69,0,0,0,3.53-4,15.13,15.13,0,0,0,1.89-10.42,31.83,31.83,0,0,0-3.77-10.24,79.18,79.18,0,0,0-6-9.23C354.33,351.86,352,349,349.82,346Z"/><path class="cls-2" d="M261.9,319.71s-11.66,17.39-3.9,70.86,33.63,9.49,33.63,9.49-25-1.28-25.87-37.95c-.86-37.51,2.31-34.78,2.31-34.78Z"/><path class="cls-2" d="M265.76,362.11c-.37-15.9.74-26.83,2.14-34.16-2.33-3.2-4.37-5.64-5.71-7.16-3.14,7-8.87,25.08-5.53,58.72,7,20.14,21.58,30.87,26.16,17.76C275.52,393.4,266.27,384.16,265.76,362.11Z"/><path class="cls-5" d="M260.49,318.94a96.73,96.73,0,0,1,17.87,26.45,80.54,80.54,0,0,1,7.53,31.06,70.52,70.52,0,0,1-1.43,16c-.27,1.31-.57,2.62-.92,3.92a14.45,14.45,0,0,1-1.44,3.84,6.68,6.68,0,0,1-3,2.88,6.43,6.43,0,0,1-4.18.2A16.65,16.65,0,0,1,268,399a37.38,37.38,0,0,1-5.09-6.23,56.23,56.23,0,0,1-6.68-14.52,58.29,58.29,0,0,0,7.09,14.24,37.31,37.31,0,0,0,5.12,6,16,16,0,0,0,6.61,4,5.63,5.63,0,0,0,3.66-.22,5.9,5.9,0,0,0,2.64-2.55,13.61,13.61,0,0,0,1.34-3.63c.34-1.28.63-2.57.89-3.87a69.59,69.59,0,0,0,1.32-15.8,81.16,81.16,0,0,0-7.23-30.77,101.72,101.72,0,0,0-7.55-14A95,95,0,0,0,260.49,318.94Z"/><path class="cls-5" d="M386.56,439.79a48,48,0,0,0-8.72,13.68,58.34,58.34,0,0,0-4.33,15.61,69.1,69.1,0,0,0-.19,16.2,84.56,84.56,0,0,0,3.35,15.87c.39,1.3.79,2.59,1.27,3.87l1.38,3.83a41.83,41.83,0,0,0,3.46,7.3,30.67,30.67,0,0,0,11.4,11.14,36.7,36.7,0,0,0,15.52,4.18,80.21,80.21,0,0,0,16.26-.87,76.36,76.36,0,0,1-16.29,1.34,37.12,37.12,0,0,1-15.85-4A30.69,30.69,0,0,1,382,516.62a42.75,42.75,0,0,1-3.57-7.43L377,505.34c-.49-1.28-.9-2.58-1.3-3.89a84,84,0,0,1-3.31-16.07,66.39,66.39,0,0,1,.33-16.4,58.9,58.9,0,0,1,4.65-15.71,52.71,52.71,0,0,1,4-7.15A38.22,38.22,0,0,1,386.56,439.79Z"/><path class="cls-2" d="M412.51,136.91s-24,29.08-29.6,17.62c-5.64-11.63-19.23-10.45-24.67,1.41-3.88,8.46,1.76,15.15,16.92,16.21,27,1.88,39.89-32,39.89-32Z"/><circle class="cls-2" cx="368.96" cy="157.41" r="13.68"/><path class="cls-5" d="M396.46,111.69s-7.57,4.28,5.27,16.1,8.6,15,11.28,15.53c1.46.28,9.9-5.58,14.39-12C430.17,127.33,440.22,106.15,396.46,111.69Z"/><path class="cls-3" d="M398.64,111.44c-.44,1.62.34,2.93,4.51,2.48,9.52-1,20.06,3.4,16,10.54S413,140.1,415,140.1s4.6-3,3.58.05a42.76,42.76,0,0,0,8.76-8.84C430.12,127.4,439.84,106.89,398.64,111.44Z"/><path class="cls-3" d="M381,160.28a3.39,3.39,0,0,1-1,4.31c-1.82,1.37-5,1.34-5.56.64s.53-2.37,2.34-3.74S380.52,159.59,381,160.28Z"/><path class="cls-6" d="M377.9,162.75s10.47,9.48,20.61-3.54c11.35-14.57,14.07-16.35,14.07-16.35s-5.19,17.37-2.12,24.37"/></svg>