<svg id="Layer_2" data-name="Layer 2" xmlns="http://www.w3.org/2000/svg" width="600" height="589" viewBox="0 0 600 589"><defs><style>.cls-1{fill:#3392ff;}.cls-2,.cls-6{fill:none;stroke-miterlimit:10;stroke-width:4.35px;}.cls-2{stroke:#2a78d1;}.cls-3{fill:#1875de;}.cls-4{fill:#ffe43c;}.cls-5{fill:#e6c036;}.cls-6{stroke:#e8c236;}</style></defs><title>rapida</title><polygon class="cls-1" points="317.9 330.74 290.27 448.81 272.1 526.49 224.85 462.35 149.63 488.76 222.06 301.15 231.87 304.16 290.94 322.44 303.08 326.17 317.9 330.74"/><polyline class="cls-2" points="235.77 293.74 231.87 304.16 170.86 467.14 229.7 446.53 266.75 496.73 282.58 422.51 303.08 326.17"/><line class="cls-2" x1="305.42" y1="315.2" x2="304.98" y2="317.2"/><polygon class="cls-3" points="200.77 356.32 207.37 369.6 353.51 356.32 378.58 327.06 207.24 340.99 200.77 356.32"/><polygon class="cls-3" points="317.9 330.74 290.27 448.81 282.58 422.51 256.89 335.03 290.94 322.44 304.98 317.2 303.08 326.17 317.9 330.74"/><polygon class="cls-1" points="450.37 483.49 373.83 461.33 330.19 528 273.58 335.06 367.63 300.22 450.37 483.49"/><polyline class="cls-2" points="348.31 295.49 427.97 463.11 368.07 445.77 333.92 497.94 279.93 320.82"/><polygon class="cls-4" points="158.95 149.15 225.07 78.63 310.29 63.94 410.19 100.67 449.86 171.19 439.58 263.75 370.52 347.5 233.88 356.32 150.14 250.53 158.95 149.15"/><polygon class="cls-5" points="158.95 149.15 225.07 78.63 310.29 63.94 410.19 100.67 449.86 171.19 439.58 263.75 370.52 347.5 233.88 356.32 150.14 250.53 158.95 149.15"/><polygon class="cls-4" points="163.86 143.25 227.68 75.18 309.93 61 406.36 96.45 444.65 164.52 434.72 253.86 368.07 334.69 236.19 343.2 155.35 241.1 163.86 143.25"/><polygon class="cls-6" points="189.38 154.28 241.23 98.97 308.07 87.45 386.42 116.25 417.54 171.56 409.47 244.16 355.31 309.84 248.15 316.76 182.46 233.79 189.38 154.28"/></svg>