<svg id="Layer_1" data-name="Layer 1" xmlns="http://www.w3.org/2000/svg" width="512" height="512" viewBox="0 0 512 512"><defs><style>.cls-1{fill:#43d3e8;}.cls-2{fill:#242d3c;}</style></defs><title>usuario</title><circle class="cls-1" cx="256" cy="256" r="188.97"/><path class="cls-2" d="M338.73,431.31A49.26,49.26,0,0,0,290,389.23H222a49.24,49.24,0,0,0-48.68,42.06l-37.36-5.44a87,87,0,0,1,86-74.38h68a87,87,0,0,1,86,74.21Z"/><path class="cls-2" d="M256,332a76,76,0,1,1,76-76A76.12,76.12,0,0,1,256,332Zm0-114.33A38.28,38.28,0,1,0,294.29,256,38.32,38.32,0,0,0,256,217.72Z"/><path class="cls-2" d="M256,475C135.24,475,37,376.76,37,256S135.24,37,256,37s219,98.26,219,219S376.76,475,256,475Zm0-400.24C156.06,74.76,74.75,156.07,74.75,256S156.06,437.24,256,437.24,437.25,355.94,437.25,256,355.94,74.76,256,74.76Z"/></svg>